<svg viewBox="-4.5 -3 72.5 72.5" xmlns="http://www.w3.org/2000/svg" xmlns:xlink="http://www.w3.org/1999/xlink"><linearGradient id="a"><stop offset="0" stop-color="#fff"/><stop offset="1" stop-color="#808080"/></linearGradient><linearGradient id="b" gradientUnits="userSpaceOnUse" x1="20" x2="20" xlink:href="#a" y1="33.55" y2="33.55"/><linearGradient id="c" gradientUnits="userSpaceOnUse" x1="63.52" x2="21.67" xlink:href="#a" y1="53.13" y2="28.15"/><linearGradient id="d" gradientUnits="userSpaceOnUse" x1="13.79" x2="45.52" xlink:href="#a" y1="11.84" y2="11.84"/><linearGradient id="e" gradientUnits="userSpaceOnUse" x1="22.16" x2="29.41" xlink:href="#a" y1="17.24" y2="13.03"/><linearGradient id="f" gradientUnits="userSpaceOnUse" x1="8.2" x2="19.58" xlink:href="#a" y1="27.46" y2="19.13"/><linearGradient id="g" gradientUnits="userSpaceOnUse" x1="12.58" x2="26.34" xlink:href="#a" y1="17.62" y2="17.62"/><linearGradient id="h" gradientUnits="userSpaceOnUse" x1="6.69" x2="7.66" xlink:href="#a" y1="35.47" y2="19.02"/><linearGradient id="i"><stop offset="0" stop-color="#fff"/><stop offset="1" stop-color="#6b6b6b"/></linearGradient><linearGradient id="j" gradientUnits="userSpaceOnUse" x1="22.97" x2="28.44" xlink:href="#i" y1="8.86" y2="6.53"/><linearGradient id="k" gradientUnits="userSpaceOnUse" x1="31.91" x2="37.68" xlink:href="#a" y1="6.87" y2="6.87"/><linearGradient id="l" gradientUnits="userSpaceOnUse" x1="42.44" x2="49.78" y1="14.47" y2="14.47"><stop offset="0" stop-color="#fff"/><stop offset="1" stop-color="#575757"/></linearGradient><linearGradient id="m" gradientUnits="userSpaceOnUse" x1="14.95" x2="21.67" xlink:href="#a" y1="46.5" y2="39.96"/><linearGradient id="n" gradientUnits="userSpaceOnUse" x1="17.79" x2="17.17" xlink:href="#a" y1="49.19" y2="42.62"/><linearGradient id="o" gradientUnits="userSpaceOnUse" x1="26.89" x2="28.29" xlink:href="#a" y1="65.47" y2="49.12"/><linearGradient id="p" gradientUnits="userSpaceOnUse" x1="49.28" x2="54.38" y1="25.11" y2="25.11"><stop offset="0" stop-color="#fff"/><stop offset="1" stop-color="#4f4f4f"/></linearGradient><linearGradient id="q" gradientUnits="userSpaceOnUse" x1="54.64" x2="59.95" y1="37.37" y2="37.37"><stop offset="0" stop-color="#fff"/><stop offset="1" stop-color="#404040"/></linearGradient><linearGradient id="r" gradientUnits="userSpaceOnUse" x1="27.22" x2="20.77" y1="35.32" y2="39.62"><stop offset="0" stop-color="#a91212"/><stop offset="1" stop-color="#d71212"/></linearGradient><linearGradient id="s" gradientUnits="userSpaceOnUse" x1="26.27" x2="25.7" xlink:href="#i" y1="2.86" y2="9.62"/><linearGradient id="t" gradientUnits="userSpaceOnUse" x1="36.15" x2="33.69" xlink:href="#a" y1="3.11" y2="7.45"/><linearGradient id="u" gradientUnits="userSpaceOnUse" x1="47.96" x2="45.17" xlink:href="#a" y1="8.65" y2="10.69"/><linearGradient id="v" gradientUnits="userSpaceOnUse" x1="52.78" x2="51.2" xlink:href="#a" y1="20.38" y2="21.54"/><linearGradient id="w" gradientUnits="userSpaceOnUse" x1="57.49" x2="56.42" xlink:href="#a" y1="32.13" y2="32.91"/><linearGradient id="x" gradientUnits="userSpaceOnUse" x1="52.85" x2="49.95" y1="43.17" y2="44.07"><stop offset="0" stop-color="#fff"/><stop offset="1"/></linearGradient><radialGradient id="y" cx="0" cy="0" gradientTransform="matrix(.0874 -.379 .4747 .1095 8.15 41.59)" gradientUnits="userSpaceOnUse" r="64"><stop offset="0" stop-color="#ffb11b"/><stop offset="1" stop-color="#fff9c7"/></radialGradient><path d="m34.64 1.34s-.88 1.37-1.66 2.66l-1.1-.71.03.05c-.42-.31-.96-.39-1.6-.36-.31-.48-1.43-2.38-1.43-2.38l-6.66 1.77-.13 2.24c-.03.03-.07.03-.07.03a176.12 176.12 0 0 1 -1.41.5c-.95.38-1.87.82-2.75 1.26l-.12.06a51.2 51.2 0 0 1 -1.54.87l-.91.57-.42.27-.88.62-.12.08-.27.18-1.19.95-.6.48-.12.63s-.82 3.37-1.07 4.26c-1.32 1.29-5.69 5.44-9.37 7.78l-1.03.68.38 10.17 10.27 6.64 1.81-.17c-.18.49-.68 1.61-.68 1.61v4.92s7.96 5.34 8.1 5.47l-1.66 5.92s1.2 3.75 4.77 5.63c4.27 2.32 10.98 2.84 10.98 2.84l16.94-12.83s4.21-.14 7.14-2.36c3.17-2.4 5.02-6.85 5.02-6.85l-1.55-3.04.39-4.34-3.23-6.37-2.87-.49c-.31-.69-.53-1.08-.82-1.69.38-1.06 1.5-4.01 1.5-4.01l-3.16-6.27s-2.35.63-3.05.8l1.57-7.04-5.16-6.38s-3.13 2.62-4.37 3.68c.17-1.96.5-6.9.5-6.9l-7.48-2.92z"/><path d="m19.97 33.54.03-.04v.01z" fill="url(#b)"/><path d="m49.12 51.97s5.05-.95 8.37-3.28c2.01-1.45 2.94-4.78 2.94-4.78l-14.93-29.36c-11.06-1.5-19.16 3.98-19.16 3.98l-2.24 5.03s-8.63 5.32-12.72 6.55v8.33l13.45-1.31 4.82-2.66-.95 6.03-7.83 6.4.09 3.55 11.11-5.57 1.22.47.23 17.68z" fill="url(#c)"/><path d="m26.34 18.53s8.1-5.48 19.16-3.98l-14.76-9.44s-8.04-.18-16.95 6.54z" fill="url(#d)"/><path d="m26.34 18.53s8.1-5.48 19.16-3.98l-14.76-9.44a29.1 29.1 0 0 0 -16.95 6.54z" fill="url(#e)"/><path d="m2.42 24.98 8.96 5.13s3.3-1.17 6.43-2.92c3.19-1.8 6.29-3.63 6.29-3.63l-11.55-7.06s-5.53 5.5-10.13 8.48z" fill="url(#f)"/><path d="m13.79 11.65 12.55 6.88-2.24 5.03-11.55-7.06z" fill="url(#g)"/><path d="m2.42 24.98.27 7.82 8.69 5.64v-8.33z" fill="url(#h)"/><path d="m23.78 12.55 7.83-3.14-3.74-6.33-3.62.97z" fill="url(#j)"/><path d="m32.32 9.03 4.14-6.53 4.33 1.68-.5 7.06-2.61-1.69z" fill="url(#k)"/><path d="m42.44 12.59 4.18-3.56 3.13 3.88-1.53 6.97-2.72-5.33z" fill="url(#l)"/><path d="m16.06 37.99-1.9 4.52 6.71 4.39 7.83-6.4.95-6.03-4.82 2.66z" fill="url(#m)"/><path d="m14.16 45.88v-3.37l6.71 4.39.09 3.55z" fill="url(#n)"/><path d="m23.22 49.3-2.02 7.2s.83 3.31 3.82 4.92c3.21 1.66 8.5 1.61 8.5 1.61l-.23-17.68-1.22-.47z" fill="url(#o)"/><path d="m49.26 21.97 3.18-.85 1.94 3.88-1.54 4.03z" fill="url(#p)"/><path d="m57.5 33-2.87-.5 4.92 9.73.4-4.39z" fill="url(#q)"/><path d="m18.98 37.7-1.17 3.04 1.93 1.72 9.5-5.41.41-2.58-4.82 2.66z" fill="url(#r)"/><path d="m23.78 12.55.47-8.5 3.62-.97.23.37-3.38 1.01-.4 7.89z" fill="url(#s)"/><path d="m32.32 9.03.63.07 3.88-6.47-.37-.13z" fill="url(#t)"/><path d="m42.44 12.59 4.18-3.56.35.41-4.05 3.47z" fill="url(#u)"/><path d="m49.26 21.97 3.18-.85.14.35-3.08.92z" fill="url(#v)"/><path d="m54.63 32.5 2.87.5.29.56-2.84-.52z" fill="url(#w)"/><path d="m59.49 42.02.46-4.18-2.45-4.84-2.87-.5-1.78-3.49 1.53-4.01-1.8-3.53-.14-.35-3.18.85-1.04-2.09 1.53-6.96-2.78-3.48-.35-.41-4.18 3.56.15.1-2.3-1.45.5-7.06-3.96-1.55-.37-.13-2.82 4.46-2.9-1.85s-.6-.03-1.62.1l-1.25-2.13-3.62.97-.12 2.18a27.72 27.72 0 0 0 -10.34 5.42l-1.24 4.85s-5.53 5.5-10.13 8.48l.27 7.82 8.69 5.64 4.65-.45-1.87 4.52v3.37l6.8 4.57 11.11-5.57 1.22.47.23 17.68 15.6-11.06s5.03-.91 7.88-2.96a9.19 9.19 0 0 0 3.43-5.1zm-31.13-1.85-7.79 5.83-5.65-3.61 1.69-4.46 8.22-.8 4.48-2.46zm3.9-17.67a2.54 2.54 0 0 1 -4.63.56l-.03-.12c.16-.1.47-.22.74-.33l1.55-.71 1.43-.96c.19-.19.45-.36.65-.46.03.03.05.1.05.1.22.39.36.8.36 1.24 0 .21-.06.44-.12.68z" fill="#007900" fill-opacity=".6"/><path d="m32.2 22.76a2.2 2.2 0 0 1 -1.08 1.35 2.2 2.2 0 0 1 -3.03-.85l-.07-.12.68-.27 1.39-.63 1.26-.87c.17-.13.4-.3.56-.39.06.02.09.09.09.09.19.33.27.7.27 1.08 0 .22-.03.43-.07.61z" fill="#f00"/><g fill-opacity=".38"><path d="m23 49.4 12.97-7.42s2.35-5.19 2.7-6.29c-.13 1.1-1.92 6.81-1.92 6.81l-14.27 8.17zm.78-36.85 7.83-3.14 3.89 2.14-3.63.98zm8.54-3.52 9.4 3.09-4.04-2.57z"/><path d="m24.25 48.78.15-.05 3.35 2.03 5.76-.46-6.02 1.23zm-1.16 2.03 4.25 3.24 6.05.01-6.33.76z"/><path d="m21.34 52.93 4.81 4.31 7.59-.9-7.86 1.66zm-.33 3.39 4.86 4.33 7.58-.9-7.86 1.67z"/></g><path d="m49.81 36 7.68 13.82-8.35 2.18z" fill="url(#x)"/><path d="m26.65 22.91 3.24-1.01 3.61-3.17z" fill-opacity=".38"/><path d="m30.87 22.35c0-.48.33-.87.7-.87.39 0 .67.39.67.87 0 .49-.28.88-.67.88-.37 0-.7-.39-.7-.88z" fill="#ff0"/><path d="m19.66 41.35 2.86-1.23-2.91.56-.67-.56z" fill="#fff" fill-opacity=".85"/><path d="m23 49.4-2 7.16s.41 3.12 3.48 4.72c3.12 1.68 8.86 1.86 8.86 1.86l-.22-17.69-1.23-.49z" fill="#ff6" fill-opacity=".6"/><path d="m46.87 36.37s-4 4-4 11c-2-4-7-5-7-5s-1 6 5 9c0 0 0 1-6 1 0 0 3 6 11 4v4h2v-4c8 2 11-4 11-4-6 0-6-1-6-1 6-3 5-9 5-9s-5 1-7 5c0-7-4-11-4-11z" fill="none" stroke="#000" stroke-width="4"/><path d="m15 36s-4 4-4 11c-2-4-7-5-7-5s-1 6 5 9c0 0 0 1-6 1 0 0 3 6 11 4v4h2v-4c8 2 11-4 11-4-6 0-6-1-6-1 6-3 5-9 5-9s-5 1-7 5c0-7-4-11-4-11z" fill="url(#y)" transform="translate(31.87 .37)"/></svg>