<svg xmlns="http://www.w3.org/2000/svg" xmlns:xlink="http://www.w3.org/1999/xlink" viewBox="-4.5 -3 72.5 72.5"><linearGradient id="a" gradientUnits="userSpaceOnUse"><stop offset="0" stop-color="#fff"/><stop offset="1" stop-color="gray"/></linearGradient><linearGradient id="c" x1="20" x2="20" y1="33.5" y2="33.5" xlink:href="#a"/><linearGradient id="d" x1="63.5" x2="21.7" y1="53.1" y2="28.1" xlink:href="#a"/><linearGradient id="e" x1="13.8" x2="45.5" y1="11.8" y2="11.8" xlink:href="#a"/><linearGradient id="f" x1="22.2" x2="29.4" y1="17.2" y2="13" xlink:href="#a"/><linearGradient id="g" x1="8.2" x2="19.6" y1="27.5" y2="19.1" xlink:href="#a"/><linearGradient id="h" x1="12.6" x2="26.3" y1="17.6" y2="17.6" xlink:href="#a"/><linearGradient id="i" x1="6.7" x2="7.7" y1="35.5" y2="19" xlink:href="#a"/><linearGradient id="b" gradientUnits="userSpaceOnUse"><stop offset="0" stop-color="#fff"/><stop offset="1" stop-color="#6b6b6b"/></linearGradient><linearGradient id="j" x1="23" x2="28.4" y1="8.9" y2="6.5" xlink:href="#b"/><linearGradient id="k" x1="31.9" x2="37.7" y1="6.9" y2="6.9" xlink:href="#a"/><linearGradient id="l" x1="42.4" x2="49.8" y1="14.5" y2="14.5" gradientUnits="userSpaceOnUse"><stop offset="0" stop-color="#fff"/><stop offset="1" stop-color="#575757"/></linearGradient><linearGradient id="m" x1="14.9" x2="21.7" y1="46.5" y2="40" xlink:href="#a"/><linearGradient id="n" x1="17.8" x2="17.2" y1="49.2" y2="42.6" xlink:href="#a"/><linearGradient id="o" x1="26.9" x2="28.3" y1="65.5" y2="49.1" xlink:href="#a"/><linearGradient id="p" x1="49.3" x2="54.4" y1="25.1" y2="25.1" gradientUnits="userSpaceOnUse"><stop offset="0" stop-color="#fff"/><stop offset="1" stop-color="#4f4f4f"/></linearGradient><linearGradient id="q" x1="54.6" x2="60" y1="37.4" y2="37.4" gradientUnits="userSpaceOnUse"><stop offset="0" stop-color="#fff"/><stop offset="1" stop-color="#404040"/></linearGradient><linearGradient id="r" x1="27.2" x2="20.8" y1="35.3" y2="39.6" gradientUnits="userSpaceOnUse"><stop offset="0" stop-color="#a91212"/><stop offset="1" stop-color="#d71212"/></linearGradient><linearGradient id="s" x1="26.3" x2="25.7" y1="2.9" y2="9.6" xlink:href="#b"/><linearGradient id="t" x1="36.1" x2="33.7" y1="3.1" y2="7.5" xlink:href="#a"/><linearGradient id="u" x1="48" x2="45.2" y1="8.7" y2="10.7" xlink:href="#a"/><linearGradient id="v" x1="52.8" x2="51.2" y1="20.4" y2="21.5" xlink:href="#a"/><linearGradient id="w" x1="57.5" x2="56.4" y1="32.1" y2="32.9" xlink:href="#a"/><linearGradient id="x" x1="52.9" x2="50" y1="43.2" y2="44.1" gradientUnits="userSpaceOnUse"><stop offset="0" stop-color="#fff"/><stop offset="1"/></linearGradient><radialGradient id="y" cx="0" cy="0" r="64" gradientTransform="matrix(.0874 -.379 .4747 .1095 40.07 41.97)" gradientUnits="userSpaceOnUse"><stop offset="0" stop-color="#ffb11b"/><stop offset="1" stop-color="#fff9c7"/></radialGradient><path d="M34.64 1.34L32.98 4l-1.1-.7.03.05c-.42-.3-.96-.4-1.6-.36L28.88.6l-6.66 1.77-.13 2.24c-.03.03-.07.03-.07.03a176.12 176.12 0 0 1-1.41.5L17.86 6.4l-.12.06a51.2 51.2 0 0 1-1.54.87l-.9.57-.42.27-.88.62-.4.26-1.8 1.43-.12.63-1.07 4.26c-1.32 1.3-5.7 5.44-9.37 7.78l-1.03.68L.6 34l10.27 6.64 1.8-.17c-.18.5-.68 1.6-.68 1.6V47l8.1 5.47-1.66 5.92s1.2 3.75 4.77 5.63c4.27 2.32 10.98 2.84 10.98 2.84l16.94-12.83s4.2-.14 7.14-2.36c3.17-2.4 5.02-6.85 5.02-6.85l-1.55-3.04.4-4.34-3.23-6.37-2.87-.5c-.3-.7-.53-1.08-.82-1.7l1.5-4-3.16-6.27-3.05.8 1.57-7.04L46.9 6l-4.37 3.68.5-6.9-7.48-2.92z"/><path fill="url(#c)" d="M19.97 33.54l.03-.04z"/><path fill="url(#d)" d="M49.12 51.97s5.05-.95 8.37-3.28c2-1.45 2.94-4.78 2.94-4.78L45.5 14.55c-11.06-1.5-19.16 3.98-19.16 3.98l-2.24 5.03s-8.63 5.32-12.72 6.55v8.33l13.45-1.3 4.82-2.66-.95 6.03-7.83 6.4.1 3.55 11.1-5.57 1.22.47.23 17.68z"/><path fill="url(#e)" d="M26.34 18.53s8.1-5.48 19.16-3.98L30.74 5.1s-8.04-.18-16.95 6.54z"/><path fill="url(#f)" d="M26.34 18.53s8.1-5.48 19.16-3.98L30.74 5.1a29.1 29.1 0 0 0-16.95 6.54z"/><path fill="url(#g)" d="M2.42 24.98l8.96 5.13s3.3-1.17 6.43-2.92l6.3-3.63-11.55-7.06S7.02 22 2.42 24.98z"/><path fill="url(#h)" d="M13.8 11.65l12.55 6.88-2.24 5.03-11.55-7.06z"/><path fill="url(#i)" d="M2.42 24.98l.27 7.82 8.7 5.64V30.1z"/><path fill="url(#j)" d="M23.78 12.55l7.83-3.14-3.74-6.33-3.62.97z"/><path fill="url(#k)" d="M32.32 9.03l4.14-6.53 4.33 1.68-.5 7.06-2.6-1.7z"/><path fill="url(#l)" d="M42.44 12.6l4.18-3.56 3.13 3.88-1.53 6.97-2.72-5.33z"/><path fill="url(#m)" d="M16.06 38l-1.9 4.52 6.7 4.4 7.83-6.4.95-6.03-4.82 2.66z"/><path fill="url(#n)" d="M14.16 45.88V42.5l6.7 4.4.1 3.55z"/><path fill="url(#o)" d="M23.22 49.3l-2.02 7.2s.83 3.3 3.82 4.92c3.2 1.66 8.5 1.6 8.5 1.6l-.23-17.68-1.22-.47z"/><path fill="url(#p)" d="M49.26 21.97l3.18-.85L54.38 25l-1.54 4.03z"/><path fill="url(#q)" d="M57.5 33l-2.87-.5 4.92 9.73.4-4.4z"/><path fill="url(#r)" d="M18.98 37.7l-1.17 3.04 1.93 1.72 9.5-5.4.4-2.58-4.82 2.66z"/><path fill="url(#s)" d="M23.78 12.55l.47-8.5 3.62-.97.23.37-3.38 1-.4 7.9z"/><path fill="url(#t)" d="M32.32 9.03l.63.07 3.88-6.47-.37-.13z"/><path fill="url(#u)" d="M42.44 12.6l4.18-3.56.35.4-4.05 3.47z"/><path fill="url(#v)" d="M49.26 21.97l3.18-.85.14.35-3.08.92z"/><path fill="url(#w)" d="M54.63 32.5l2.87.5.3.56-2.84-.52z"/><path fill="#007900" fill-opacity=".6" d="M59.5 42.02l.46-4.18L57.5 33l-2.87-.5-1.78-3.5 1.53-4-1.8-3.53-.14-.35-3.18.85-1.04-2.1 1.53-6.96-2.78-3.48-.35-.4-4.18 3.56.15.1-2.3-1.45.5-7.06-3.96-1.55-.37-.13-2.82 4.46-2.9-1.85s-.6-.03-1.62.1l-1.25-2.13-3.62.97-.12 2.18a27.72 27.72 0 0 0-10.34 5.42l-1.24 4.85S7.02 22 2.42 24.98l.27 7.82 8.7 5.64 4.65-.45-1.87 4.52v3.37l6.8 4.57 11.1-5.57 1.22.47.23 17.68 15.6-11.06s5.03-.9 7.88-2.96a9.19 9.19 0 0 0 3.43-5.1zm-31.13-1.85L20.57 46l-5.65-3.6 1.7-4.46 8.22-.8 4.48-2.46zm3.9-17.67a2.54 2.54 0 0 1-4.63.56l-.03-.12c.16-.1.47-.22.74-.33l1.55-.7 1.43-.96a2.68 2.68 0 0 1 .65-.46 2.54 2.54 0 0 1 .41 1.34c0 .2-.06.44-.12.68z"/><path fill="red" d="M32.2 22.76a2.2 2.2 0 0 1-1.08 1.35 2.2 2.2 0 0 1-3.03-.85l-.07-.12.68-.27 1.4-.63 1.26-.87.56-.4c.06.02.1.1.1.1a2.14 2.14 0 0 1 .27 1.08 2.84 2.84 0 0 1-.07.61z"/><g fill-opacity=".4"><path d="M23 49.4l12.97-7.42 2.7-6.3c-.13 1.1-1.92 6.8-1.92 6.8l-14.27 8.17zm.78-36.85L31.6 9.4l3.9 2.14-3.63.98zm8.54-3.52l9.4 3.1-4.04-2.57z"/><path d="M24.25 48.78l.15-.05 3.35 2.03 5.76-.46-6.02 1.23zM23.1 50.8l4.25 3.24 6.05.01-6.33.76zm-1.75 2.12l4.8 4.3 7.6-.9L25.88 58zm-.33 3.4l4.86 4.33 7.58-.9-7.86 1.67z"/></g><path fill="url(#x)" d="M49.8 36l7.68 13.82L49.14 52z"/><path fill-opacity=".4" d="M26.65 22.9l3.24-1 3.6-3.17z"/><path fill="#ff0" d="M30.87 22.35c0-.48.33-.87.7-.87.4 0 .67.4.67.87 0 .5-.28.88-.67.88-.37 0-.7-.4-.7-.88z"/><path fill="#fff" fill-opacity=".8" d="M19.66 41.35l2.86-1.23-2.9.56-.67-.56z"/><path fill="#ff6" fill-opacity=".6" d="M23 49.4l-2 7.16s.4 3.12 3.48 4.72c3.12 1.68 8.86 1.86 8.86 1.86l-.22-17.7-1.23-.5z"/><use fill="none" stroke="#000" stroke-width="4" xlink:href="#z"/><use x=".03" y=".03" fill="url(#y)" xlink:href="#z"/><defs><path id="z" d="M46.87 36.37s-4 4-4 11c-2-4-7-5-7-5s-1 6 5 9c0 0 0 1-6 1 0 0 3 6 11 4v4h2v-4c8 2 11-4 11-4-6 0-6-1-6-1 6-3 5-9 5-9s-5 1-7 5c0-7-4-11-4-11z"/></defs></svg>