<svg viewBox="0 0 8350 8350" xmlns="http://www.w3.org/2000/svg" xmlns:xlink="http://www.w3.org/1999/xlink"><defs><path id="a" d="m6077 4268-17-576-86-287-247-465-284-300-301-214-576-212-516-34-325 58-265 82-470 273-293 327-270 439-106 375-20 570 100 388 224 440 155 218 491 385 338 146 859 74 435-122 390-214 250-213 193-232 275-538 60-367zm-3066 1270-57-51 127 100zm824 216-199-93 470 43zm72-1690-520 55 321-540zm-182-486 637 319-438 163zm187 503 60 480-580-426zm53 495-630 199 42-630zm-35-488 488 325-428 155zm8-15 438-163 50 488zm673-564 406-191-46 456zm346 275-558 102 198-366zm-574 96-363-667 563 298zm-20-2-640-320 275-350zm-990 230-81-313 394-213zm-54 651-311-511 353-107zm636-162-316 338-290-147zm470-169-114 407-311-253zm-31-511 470 371-420 116zm10-14 563-103-90 476zm584-126 45-451 260 354zm311-80 15 516-322-419zm-696-202 11-383 393 192zm-17 0-560-298 572-88zm-873 48-105-383 375 40zm-14 14-398 215 293-598zm-339 567-346 106 264-416zm-63 632-431-306 129-191zm35 44 290 147-356 197zm652-208 312 253-633 90zm457-160 460 444-574-33zm12-12 422-116 38 560zm530-610 324 423-413 50zm333-110 274 155-260 360zm3-18 170-279 101 433zm-12-12-261-355 433 71zm-687-575 306-277 88 470zm-606 85 194-345 375 257zm-404-38 220-448 157 488zm-328 632-267-446 566-165zm-283 448-129-520 400 95zm-143 212-118-294 244 107zm460 356-66 345-370-654zm319 169 101 342-460-144zm670-99-100 445-542-354zm597 32-260 236-302-268zm-9-578 400 405-363 154zm8-16 413-50-14 454zm698-428 165 555-428-190zm-93-469 269 204-168 227zm-463-103 250-286 184 357zm-11-13-88-468 336 182zm-427-198-373-257 678-20zm-604 84-157-485 350 142zm-407-38-180-246 398-197zm-12 11-554 162 372-408zm-318 634-395-93 134-343zm-282 450-250-110 125-396zm-139 219-215 79 96-375zm387 688-473-293 100-368zm482 176-448 70-2-211zm-57-345 526 344-426-5zm666-100 306 270-405 168zm600 34 160 448-423-210zm14-10 360-153-200 602zm397-638 428 190-442 265zm286-379 280 200-120 340zm-3-23 168-227 111 426zm-112-472 77-243 186 443zm-12-20-179-345 258 103zm-528-550 373-24-47 200zm-738 7 263-326 420 305zm-15-8-136-354 395 32zm-18 2-345-140 211-210zm-776 60 149-430 252 230zm-398 424 109-445 258 43zm-162 380-139-220 270-114zm-7 20-120 380-15-593zm-137 440-97 380-153-380zm-254-17 8-373 241 373zm384 350-97 354-118-276zm388 690-293 40-168-327zm16 14 2 208-290-167zm489 155-149 310-310-238zm17 3 392 362-542-49zm20-5 430 5-40 356zm863-170 16 402-421-235zm17 1 425 210-409 190zm660-411 210 330-410 272zm14-10 406 60-198 266zm7-15 435-260-28 320zm574-620 77 268-192 63zm-102-458 220 277-113 134zm-206-505 286 210-98 236zm-295-144 46-197 206 298zm-364-198-50-300 430 275zm-19-10-410-297 360-3zm-833-346 267-164 115 195zm-258 223-248-226 458 17zm-436 215-257-43 403-378zm-400 433-263-214 373-238zm-11 12-272 116 13-326zm-272 774-245-378 228-246zm-105 446-46 231-92-574zm12 28 114 267-163-23zm297 626-173-34 10-282zm326 200-123 118-165-283zm14 9 296 227-417-110zm961-70 420 233-460 123zm870 45-24 294-379-106zm421-277-233 409-165-145zm230-290 1 214-186 36zm47-365 190-61-216 364zm132-376 108-127-35 381zm-121-469 97-233 125 513zm-206-494 68-118 205 318zm-12-13-201-290 269 171zm-675-614 204-22 206 284zm-414-12-112-190 459 188zm-425-38-90-158 354-3zm-18 3-445-17 355-142zm-900 368 160-346 232-20zm-28 21-147-140 308-210zm-11 13-363 231 217-371zm-410 600-182-98 195-221zm-6 16-221 239 38-337zm-250 669-94 76 101-405zm2 20 96 599-196-517zm296 713-11 281-153-304zm187 360 155 267-320-298zm655 442-7 155-407-263zm17 7 211 98-218 54zm563 49 6 217-307-161zm485-130-124 293-330-171zm20-3 380 105-504 188zm439-196 160 140-183 142zm435-300 185-36-405 421zm218-83-1-208 170-105zm15-238 207-348-38 245zm264-752 25 256-55 76zm-126-641 48 44 47 343zm-240-392 45-22 128 292zm-312-204 79-112 190 284zm-12-12-204-281 283 169zm-459-295-1-122 196 102zm-17-3-449-184 448 59zm-888-206 72-61 237 58zm-390 147 140-150 191 17zm-36 13-210 20 346-165zm-578 242 23-52 193-96zm-254 408-14-136 210-200zm-15 24-174 198 160-330zm-259 617-111 21 147-333zm-4 18-106 429-7-408zm94 1067-126-103-61-390zm177 360-80-26-54-242zm345 333-268-145-42-145zm50 46 116 148-355-278zm44 28 369 239-242-76zm677 213 287 150-499-99zm345-57 320 167-314 50zm852-8-130 112-293 46zm240-169 11 70-168 52zm438-451-173 308-220 102zm48-52 116-214-124 294zm246-660 43-60-70 231zm42-457v-5l4-57 4 149zm-12-85-44-317 55 180zm-130-495-80-182 112 212zm-241-375-160-237 204 215zm-534-513 10-8 123 88zm-17-10-82-42 92 36zm-701-180 156-32 234 83zm-50-7-213-52 356 23zm-403 4-165-15 231-42zm-583 148 94-71 153-47zm-78 37-82 40 126-73zm-344 236-98 93 112-124zm-457 656-43 17 168-274zm-56 40 47-18-118 269zm-116 696-6 176zm8 187 42 275-58-224zm222 568 55 245-175-344zm175 350 38 128-113-153zm849 658 16 25-166-72zm42 36-20-30 361 70zm885 30-38 43-198-6zm26-4 237-37-272 76zm546-204 139-43-244 133zm222-92-10-70 202-93zm439-526-10 94-133 160zm220-403 34-17-157 308zm45-40-39 18 78-254z"/><path id="b" d="m7766 2713c-169-405-510-842-778-980a4016 4016 0 0 1 392 1176v3l1 4a3505 3505 0 0 1 -120 2616c-445 953-1522 1930-3207 1883-1820-52-3423-1401-3723-3169-54-278 0-420 28-646a2887 2887 0 0 0 -63 535v20a3880 3880 0 0 0 7704 655l18-150a3980 3980 0 0 0 -252-1947z"/><linearGradient id="c" x1="42%" x2="61%" y1="-10%" y2="114%"><stop offset="0" stop-color="#aaf2ff"/><stop offset=".29" stop-color="#0df"/><stop offset=".61" stop-color="#0090ed"/><stop offset=".89" stop-color="#0250bb"/></linearGradient><linearGradient id="d" x1="38%" x2="63%" y1="0%" y2="124%"><stop offset="0" stop-color="#aaf2ff"/><stop offset=".29" stop-color="#0df"/><stop offset=".74" stop-color="#0090ed"/><stop offset="1" stop-color="#0250bb"/></linearGradient><linearGradient id="e" x1="86%" x2="20%" y1="15%" y2="84%"><stop offset=".24" stop-color="#80ebff" stop-opacity=".5"/><stop offset=".7" stop-color="#0df" stop-opacity="0"/></linearGradient><linearGradient id="f" x1="61%" x2="20%" y1="-10%" y2="149%"><stop offset="0" stop-color="#bff3ff" stop-opacity=".9"/><stop offset="1" stop-color="#80ebff" stop-opacity=".5"/></linearGradient><linearGradient id="g"><stop offset="0" stop-color="#bff3ff"/><stop offset="1" stop-color="#0df" stop-opacity="0"/></linearGradient><linearGradient id="h" x1="51%" x2="48%" xlink:href="#g" y1="-2%" y2="139%"/><linearGradient id="i" x1="52%" x2="47%" y1="-4%" y2="143%"><stop offset="0" stop-color="#bff3ff"/><stop offset="1" stop-color="#aaf2ff" stop-opacity=".5"/></linearGradient><linearGradient id="j" x1="53%" x2="47%" xlink:href="#g" y1="-2%" y2="142%"/><linearGradient id="k"><stop offset="0" stop-color="#bff3ff" stop-opacity=".8"/><stop offset="1" stop-color="#80ebff" stop-opacity=".2"/></linearGradient><linearGradient id="l" x1="49%" x2="57%" xlink:href="#k" y1="-2%" y2="123%"/><linearGradient id="m" x1="117%" x2="24%" xlink:href="#k" y1="-23%" y2="128%"/><linearGradient id="n" x1="52%" x2="47%" y1="-1%" y2="137%"><stop offset="0" stop-color="#0df" stop-opacity=".4"/><stop offset="1" stop-color="#0df" stop-opacity="0"/></linearGradient><linearGradient id="o" x1="50%" x2="50%" xlink:href="#g" y1="-12%" y2="99%"/><linearGradient id="p" x1="53%" x2="47%" y1="-3%" y2="142%"><stop offset="0" stop-color="#bff3ff" stop-opacity=".8"/><stop offset="1" stop-color="#0df" stop-opacity="0"/></linearGradient><radialGradient id="q" cx="55%" cy="25%" r="60%"><stop offset=".1" stop-color="#0df" stop-opacity=".4"/><stop offset=".9" stop-color="#7542e5" stop-opacity=".3"/></radialGradient><radialGradient id="r" cx="49.24%" cy="52.7%" fx="49%" r="51%"><stop offset=".91" stop-color="#7542e5" stop-opacity="0"/><stop offset="1" stop-color="#0df" stop-opacity=".4"/></radialGradient><radialGradient id="s" cx="86%" cy="-13%" gradientTransform="matrix(.81263 0 0 1 .16 0)" r="128%"><stop offset="0" stop-color="#80ebff"/><stop offset=".26" stop-color="#0df"/><stop offset=".53" stop-color="#0090ed"/><stop offset=".86" stop-color="#0060df"/></radialGradient><radialGradient id="t" cx="47.73%" cy="40%" fx="48%" gradientTransform="matrix(.81263 0 0 1 .09 0)" r="128%"><stop offset=".3" stop-color="#321c64" stop-opacity=".8"/><stop offset=".37" stop-color="#212f83" stop-opacity=".5"/><stop offset=".48" stop-color="#0a47ac" stop-opacity=".1"/><stop offset=".53" stop-color="#0250bb" stop-opacity="0"/></radialGradient><radialGradient id="u" cx="90%" cy="-50%" gradientTransform="matrix(.83857 0 0 1 .13 0)" r="210%"><stop offset="0" stop-color="#80ebff"/><stop offset=".47" stop-color="#00b3f4"/><stop offset=".84" stop-color="#0060df"/><stop offset="1" stop-color="#592acb"/></radialGradient><radialGradient id="v" cx="208%" cy="-104%" gradientTransform="scale(1 .99746)" r="300%"><stop offset="0" stop-color="#0df"/><stop offset=".82" stop-color="#0090ed"/></radialGradient><radialGradient id="w" cx="155%" cy="-45%" gradientTransform="matrix(.8937 0 0 1 .17 0)" r="313%"><stop offset=".29" stop-color="#80ebff"/><stop offset="1" stop-color="#00b3f4"/></radialGradient><radialGradient id="x" cx="15%" cy="-43%" gradientTransform="scale(.9814 1)" r="230%"><stop offset=".18" stop-color="#aaf2ff"/><stop offset=".43" stop-color="#0df"/><stop offset=".69" stop-color="#0060df"/></radialGradient></defs><g fill="#09204d"><path d="m2406 4693 244.2 677 367 495 1273.5 199.4 703.6-175.8 303-290.5z"/><path d="m6051.8 3694.2-86.3-286.2-246.6-465.4-282-297.4-299.5-214-572-213-513.7-32.7-324 58.4-264.3 81.3-469 274.5-293 327-270.3 439-106.3 373.6-20 567 101.2 386.7 223.6 440 157.6 212.5 490.4 384.2 335.8 146 855.4 74 434.2-122.3 388.2-213 249.7-213 193.7-231 273.8-536 60.4-366.7-17-573.4z"/></g><path d="m4061 2443.2-230 228.2 375.3 152.2 279.2-346.3-424.4-34z" fill="#0e56d7"/><path d="m4206.2 2823.6 726.6-22-447.4-324.2-279.2 346.3z" fill="#1053d1"/><path d="m4878.8 2475-393.4 2.4 447.4 324.2 413.7-27z" fill="#0b4fbf"/><path d="m5346.5 2774.5-235.2-324.3 325.5 195z" fill="#0b48b0"/><path d="m5658 2973-311.4-198.6 90.4-129.4z" fill="#0c45a7"/><path d="m5346.5 2774.5-52 222.2 284.8 114-232.7-336z" fill="#0f46af"/><path d="m5346.5 2774.5 311.5 198.5-78.7 137.5-232.7-336z" fill="#0c47ad"/><path d="m4932.8 2801.5 413.7-27-52 222.2-361.6-195.2z" fill="#0e4fc3"/><path d="m4932.8 2801.5-327 296 420.7 206-93.8-502z" fill="#174dca"/><path d="m4206.2 2823.6 726.6-22-327 296-399.7-274z" fill="#1650d4"/><path d="m5294.4 2996.7 197.8 383.8 87-270-284.8-114z" fill="#1246b2"/><path d="m5492.2 3380.5 87-270 207.3 493z" fill="#133ea1"/><path d="m5579.2 3110.6 316 231.4-108.6 261.6-207.3-493z" fill="#103d98"/><path d="m5658 2973 61-30.5 176 399.5z" fill="#0b3785"/><path d="m5895 3342 70.4 66-246.6-465.4z" fill="#0b3685"/><path d="m5895 3342-237-369-78.7 137.5zm-458.3-696.8 221 328 61-30z" fill="#0c3b91"/><path d="m6036 3917.8-70.4-509.8 86.3 286.2-16 223.6z" fill="#0b3279"/><path d="m5895 3342 140.8 575.8-70.4-509.8z" fill="#0f388d"/><path d="m5786.5 3603.6 249.4 314.2-141-575.8-108.6 261.6z" fill="#0d3481"/><path d="m6034.8 3917.8 17-223.6 17 573.4z" fill="#0b2e71"/><path d="m5994 4371 74.8-103.4-33-349.8z" fill="#0e2f77"/><path d="m6008.5 4634.3-59.8 28.8 120.2-395.5z" fill="#0e2969"/><path d="m5948.7 4663 120.2-395.5-75 103.5-45.4 292z" fill="#0c2a69"/><path d="m5994 4371 41.8-453.2-128 151 86.3 302z" fill="#123180"/><path d="m5948.7 4663 45.4-292-247 415.3 201.7-123.2z" fill="#112b70"/><path d="m5786.5 3603.6 249.4 314.2-128 151-121.3-465.3z" fill="#12378c"/><path d="m5994 4371-86.3-302-130.3 372z" fill="#122e7b"/><path d="m5734.7 5170.3 214-507.2-200.2 369.7z" fill="#11296c"/><path d="m5748.5 5032.8 200.2-369.7-201.7 123.2z" fill="#142a72"/><path d="m5948.7 4663-214 507 273.8-536zm-407.7 738.3 193.6-231 13.8-137.5zm-250 213 250-213-264 121.4z" fill="#112768"/><path d="m3833.7 5762.8-252.3 61.8 7.7-176.2z" fill="#1c226a"/><path d="m2431 3366 69.6-25.8-176 399.4z" fill="#182b7a"/><path d="m2324.6 3739.5 133.2-24.8 42.7-374.6-176 399.4z" fill="#1f308d"/><path d="m2332.6 4219.2-8-479.7 133.2-24.8z" fill="#1e2b7f"/><path d="m5294.4 2996.7-267.8 306.8 465.6 77zm-2336.8-314.7 341.8-234-305 151.8z" fill="#1346b5"/><path d="m2994.3 2599.8 305-151.6z" fill="#1244ac"/><path d="m3299.4 2448.2 428.2-204.2-264.3 81.3-164 123z" fill="#0e4ab6"/><path d="m4932.8 2801.5 93.8 502 267.8-306.8zm-1372.8-377.1 399-160-231.6-20.8z" fill="#0e4bba"/><path d="m4051.6 2185.6-324 58.4 231.6 20.8z" fill="#0a4ebc"/><path d="m4358 2261-398.8 4 92.4-79.2" fill="#0c54cc"/><path d="m5111.3 2450-232.5 24.7 467.7 300zm-753.3-189 519.3 68.4-312-111z" fill="#0b4bb4"/><path d="m5111.3 2450.2-234-121 260 102z" fill="#0c3889"/><path d="m2406 4693 154 126.3-227-600zm2119 1193.3 135-317.8-492 132zm135-317.8 411.2 114 25-318z" fill="#202575"/><path d="m5277 5522.7-181-158.2 437.3-290.6z" fill="#1b2773"/><path d="m5533.4 5074-256.4 448.7 264-121.4 207.4-368.5-215 41z" fill="#15276d"/><path d="m5137.3 2431.3-26 19 325.5 195zm-258.5 43.6 232.5-24.7-234-121z" fill="#0c409d"/><path d="m4051.6 2185.6 306.4 75.4 207.3-42.6zm825.7 143.7-519.3-68.3 520.8 214z" fill="#0b4cb7"/><path d="m4358 2261 127.4 216.4 393.4-2.4z" fill="#0b55ce"/><path d="m4358 2261 127.4 216.4-424.4-34 297-182.3z" fill="#0a52c5"/><path d="m3959.2 2264.8 101.8 178.4 297-182.3-398.8 4z" fill="#0951c4"/><path d="m3560.2 2424.4 399-159.6 101.8 178.4z" fill="#0b50c4"/><path d="m3299.4 2448.2 260.8-23.8 167.4-180zm260.8-23.8 270.7 247 230-228.2z" fill="#0f4dbf"/><path d="m3560.2 2424.4-440.7 413.3 180-389.5 260.8-23.8z" fill="#1546b6"/><path d="m3119.5 2837.7 281.2 46.7 159.5-460z" fill="#1549bd"/><path d="m3400.7 2884.4 159.5-460 270.7 247z" fill="#144bc3"/><path d="m2701.2 2927 17 166.2 239.3-411-256.5 244.8z" fill="#173794"/><path d="m2500.5 3340 200.7-413.2 17 166.2-217.8 247z" fill="#192f84"/><path d="m2718.3 3093 239.3-411 162 155.6-401.2 255.4z" fill="#1a389b"/><path d="m2703.8 3449.5 14.5-356.4-217.8 247z" fill="#1d3089"/><path d="m2703.8 3449.5 14.5-356.4 282.7 229.5-297.2 127z" fill="#1e389f"/><path d="m3001 3322.6 118.5-485-401.2 255.4 282.7 229.5z" fill="#1c40af"/><path d="m3001 3322.6 118.5-485 281.2 46.7-399.7 438.2z" fill="#1e41b7"/><path d="m2457.8 3714.7 42.7-374.6 203.3 109.4z" fill="#192c7d"/><path d="m4525 5886.2 378-58.7 168-145zm-2220-1580 28-87.2-8-480zm153-591.7-125 504.5 227 600-111-695z" fill="#162467"/><path d="m2559.6 4819.2 187.3 26.3-131.2-306.2-56 280z" fill="#1a236a"/><path d="m5277 5522.7-374 305 388.2-213zm-1101.7 419 293.5 8.2 434.2-122.3-378 58.7zm-1441-774.2 196.8 37.8-184.3-360z" fill="#132668"/><path d="m3589 5648.4-333.3-256.6-138.5 133.3 464 299.5zm-1183-955.4 223.6 440-70-313.7zm-101.4-386.5 101.4 386.5-73.5-473.7zm1863.4 1394-579-52 244.6 114.4-252.3 61.8-303.7-94.6 335.8 146 562 66 350-55.4zm-1421.2-855-187-26.3 174.8 348.2zm-298-721.5 111.2 695.2 56-280zm482.4 1081.2-196.8-37.8-104.4-34.4 157.6 212.5 490 384.6-160-204.5z" fill="#1b2268"/><path d="m2457.8 3714.7 264.3 409-18.3-674-246 265.2z" fill="#212a81"/><path d="m2448.8 4124 167 415.3 106.4-415.7-273.3.4z" fill="#21267a"/><path d="m2615.7 4539.3 106.4-415.7 132 328.5-238.5 87.2z" fill="#262781"/><path d="m2747 4845.5 506.8 314-399.5-707.5-107.3 393.4z" fill="#272379"/><path d="m2630 5133 104.7 34.5-174.7-348.2zm1119.4 180.7-160 334.8 579 52zm-1002.5-468 370.4 680 138.5-133.3-2-232.2z" fill="#1e226d"/><path d="m5096 5364.5-25 318 206-160zm-886-45.7-42 381.7 492-132-17.5-429z" fill="#222475"/><path d="m2448.8 4124h273.2l-264.3-409zm2193.7 1015.3 17.5 429 436-204z" fill="#23277d"/><path d="m4642.5 5139.3 280.7-254.2 173 479.4-453.6-225.2z" fill="#1e2776"/><path d="m5096 5364.5 212.2-642.7-385 163.3 173 479.4z" fill="#222b86"/><path d="m5533.4 5074-437.4 290.5 212.2-642.7 225 352z" fill="#192974"/><path d="m5747 4786.3-438.7-64.5 225 352 215-41-1.5-246.5z" fill="#172a75"/><path d="m5777.5 4441-469.2 281 438.7 64.5 247-415.4-216.6 70z" fill="#172d7d"/><path d="m2500.5 3340 200.7-413.2-270 439zm3102 511.5 175 589.3 130-372z" fill="#18338a"/><path d="m5907.8 4069-121.3-465.3-184 248z" fill="#153791"/><path d="m5308.3 4721.8 469.2-281-454.7-202.4-14.5 483.3z" fill="#1b318b"/><path d="m5308.3 4721.8-425.3-429.6 40 593 385-163.3z" fill="#242d8d"/><path d="m4642.5 5139.3-326.5-289 607.2 35-280.7 254.2z" fill="#2a2b8f"/><path d="m2747 4845.5 107.3-393.4-238.5 87.2zm1569 4.5-106 468.8 432.3-179.5z" fill="#27267f"/><path d="m3640.2 4946-314.2-159.7-72.3 373.3 495.4 154 461 5.2-570-372.7z" fill="#2d2381"/><path d="m4210.2 5318.8 105.8-468.6-675.8 96 570 372.7z" fill="#2f2485"/><path d="m2722 4123.6 135.5-432.8-153.8-241.3 18.3 674z" fill="#233196"/><path d="m3001 3322.6 595-173.4-314.3 642-280.7-468.7z" fill="#293cb7"/><path d="m5308.3 4721.8-425.3-429.6 439.7-53.7-14.5 483.3z" fill="#25339c"/><path d="m5777.5 4441-175-589.3-279.7 387 454.7 202.4z" fill="#19348f"/><path d="m4923.2 4885-486.2-470 446.2-122.7 40 593z" fill="#2a309a"/><path d="m4316 4850.2 607.2 35-486.2-470.2-121 435.3z" fill="#302b96"/><path d="m4316 4850.2-332.5-270.8 453.5-164.4-121 435.3z" fill="#3630a7"/><path d="m2957.6 2682 36.7-82.3-293 327zm2534.6 698.4 110 471 184-248z" fill="#173da2"/><path d="m3001 3322.6 280.7 468.7-424-100.5 143.4-368.2z" fill="#2a36a8"/><path d="m2857.6 3690.8 424 100.5-286.6 451.7-137.3-552.2z" fill="#312e9f"/><path d="m3596 3149.2 235-477.8-430.2 213 195.3 264.8z" fill="#184dcd"/><path d="m2722 4123.6 273 119.4-140.7 209-132-328.5z" fill="#272986"/><path d="m2995 4243-140.7 209 399.5 707.5 72.3-373.3-331-543.3z" fill="#2c2584"/><path d="m3326 4786.3 44.2-657.3-375.3 114 331 543.3z" fill="#32268b"/><path d="m3326 4786.3 657.5-207-613.3-450.4-44.2 657.3z" fill="#372999"/><path d="m3983.5 4579.4-64-508.2-549.2 57.8 613.3 450.4z" fill="#392da5"/><path d="m3919.4 4071.2 463.8-173.4 53.7 517-517.5-343.7z" fill="#3338bc"/><path d="m3640.2 4946 675.8-96-332.5-270.8-343.3 366.7z" fill="#362896"/><path d="m3640.2 4946-314.2-159.7 657.5-207z" fill="#35268f"/><path d="m3596 3149.2 402.7 42.6-167.8-520.4-235 477.8z" fill="#2648d3"/><path d="m4206.2 2823.6-375.2-152.2 167.8 520.4 207.5-368.2z" fill="#1057dc"/><path d="m4206.2 2823.6 399.7 274-607.2 94.3 207.5-368.2z" fill="#1653da"/><path d="m3998.7 3191.8 595.6 316-211 390-384.5-706z" fill="#2b46d5"/><path d="m4594.3 3507.7 11.6-410.2-607.2 94.3 595.6 316z" fill="#244ad7"/><path d="m4594.3 3507.7 11.6-410.2 420.7 206z" fill="#2547cf"/><path d="m3998.7 3191.8 384.5 706-674.2-337.8 289.8-368.2z" fill="#333cc5"/><path d="m3919.4 4071.2 463.8-173.4-674.2-337.8 210.5 511.2z" fill="#3833b6"/><path d="m4383.2 3897.8 594.8-108.8-383.6-281.4-211 390z" fill="#2a41c6"/><path d="m5026.6 3303.5-48.6 485.5-383.6-281.4 432.3-204.2z" fill="#2045c1"/><path d="m5026.6 3303.5 280.7 381.3-329.3 104.2 48.7-485.6z" fill="#1b43b7"/><path d="m5492.2 3380.5-465.6-77 280.7 381.3 185-304.3z" fill="#1742af"/><path d="m3120 2837.7 180-390-341.8 234zm2372.7 542.8-185 304.3 295.2 166.8z" fill="#1740a9"/><path d="m5322.8 4238.5 279.7-387-295.2-166.8 15.5 553.7z" fill="#1b3ca4"/><path d="m5322.8 4238.5-15.5-553.7-329.3 104.2 345 449.4z" fill="#1f3dad"/><path d="m3001 3322.6 595-173.4-195.3-264.8zm1382.2 575.2 500 394.4 94.8-503z" fill="#2543c3"/><path d="m4437 4415 446.2-122.7-500-394.4 53.7 517z" fill="#2e37b2"/><path d="m3596 3149.2 113 410.8 289.8-368.2-402.7-42.6z" fill="#2d40c7"/><path d="m3596 3149.2-314.3 642 427.3-231.2z" fill="#3537b8"/><path d="m3709 3560-338.7 569 549.2-57.8z" fill="#3931b0"/><path d="m3919.4 4071.2 64 508.2 453.6-164.4zm-549.4 57.8 338.7-569-427.2 231.3z" fill="#3735b8"/><path d="m2995 4243 286.8-451.7 88.5 337.7z" fill="#342892"/><path d="m3277.7 5730 303.7 95-464-299.5zm-22-337.8 333.3 256.6 160-334.8-495.4-154zm912.3 308.8 42-381.7-461-5.2zm492-132.5-135 317.8 546.2-203.7z" fill="#232372"/><path d="m2722 4123.6 135.5-432.8 137.5 552.2z" fill="#2a2f96"/><path d="m2857.6 3690.8 143.4-368.2-297 127.4zm2120 98.3-94.8 503 440-53.7z" fill="#2636a5"/><use fill="url(#q)" xlink:href="#a"/><use fill="url(#r)" xlink:href="#a"/><use fill="url(#s)" xlink:href="#b"/><use fill="url(#t)" xlink:href="#b"/><path d="m331 4246c300 1768 1903 3117 3724 3169 1685 47 2761-930 3206-1883a3505 3505 0 0 0 120-2616v-7 7c138 897-319 1767-1033 2355l-3 5c-1392 1132-2725 683-2995 499l-56-28c-812-388-1148-1127-1076-1760a996 996 0 0 1 -919-578 1465 1465 0 0 1 1427-57 1933 1933 0 0 0 1456 57c-1-31-676-300-940-560l-266-255a1176 1176 0 0 0 -100-76l-80-53c-283-184-846-173-865-173h-1c-154-195-143-837-135-970a696 696 0 0 0 -130 68 2833 2833 0 0 0 -379 324 3400 3400 0 0 0 -363 436 3269 3269 0 0 0 -520 1174c-2 8-140 610-72 922z" fill="url(#u)"/><path d="m5544 2717a2106 2106 0 0 1 360 470l58 48c880 810 420 1955 385 2036 714-588 1172-1458 1034-2355-439-1093-1183-1533-1790-2492a4805 4805 0 0 1 -92-149l-42-80a703 703 0 0 1 -58-154 10 10 0 0 0 -9-10 13 13 0 0 0 -7 0l-2 1-3 1c-150 72-1040 1480 166 2684z" fill="url(#c)"/><path d="m4052 2186 513 32 312 110 260 102 300 214 282 298 98 185 87 59a2106 2106 0 0 0 -360-470c-1206-1204-316-2611-166-2683l2-2c-975 570-1305 1625-1336 2153v3z" fill="url(#d)"/><path d="m2795 2466 80 53a1793 1793 0 0 1 -11-947 2870 2870 0 0 0 -934 721c19 0 582-10 865 173z" fill="url(#v)"/><path d="m2434 4505s179-667 1282-667c120 0 460-332 467-429a1934 1934 0 0 1 -1457-57 1465 1465 0 0 0 -1427 57 996 996 0 0 0 920 578c-72 633 263 1372 1075 1760 18 9 35 18 54 26-474-244-866-707-914-1268z" fill="url(#w)"/><path d="m5963 3234-83-65a1340 1340 0 0 0 -935-227c1395 697 1020 3097-913 3006a1724 1724 0 0 1 -505-97 2274 2274 0 0 1 -114-47l-63-30c270 185 1602 634 2995-499l2-5c34-81 495-1226-384-2036z" fill="url(#x)"/><path d="m7766 2713c-169-405-510-843-779-980a4019 4019 0 0 1 393 1175v7c-437-1093-1181-1533-1790-2492a4531 4531 0 0 1 -90-149 1278 1278 0 0 1 -44-80 702 702 0 0 1 -56-153 10 10 0 0 0 -10-10 13 13 0 0 0 -6 0h-3l-2 2 1-2c-974 570-1305 1629-1335 2156l8-1 513 33 290 102 282 110 300 214 282 298 98 185a1328 1328 0 0 0 -873-186c1396 697 1020 3097-913 3006a1727 1727 0 0 1 -504-97q-57-21-114-47a1444 1444 0 0 1 -66-30h3l-57-27 54 26c-474-244-865-707-914-1268 0 0 180-667 1283-667 119 0 460-332 466-429-1-31-677-300-940-560l-266-255a1140 1140 0 0 0 -100-76 1796 1796 0 0 1 -12-947 2885 2885 0 0 0 -934 720h-2c-154-195-143-837-134-970a704 704 0 0 0 -130 68 2822 2822 0 0 0 -380 324 3391 3391 0 0 0 -362 434 3271 3271 0 0 0 -520 1175l-50 270a4509 4509 0 0 0 -57 540v20a3881 3881 0 0 0 7704 658l18-150a3984 3984 0 0 0 -252-1947zm-385 200v4z" fill="url(#e)"/><path d="m4183 3410-47 17c-76 128-346 372-449 372-1103-5-1285 654-1285 654a1410 1410 0 0 0 216 634 1422 1422 0 0 1 -185-582s180-667 1283-667c120 0 460-332 467-429z" fill="url(#f)"/><path d="m7382 2916v-7 7l-312-610-57-89-395-518c-337-396-702-762-1028-1276l-91-149a766.7 766.7 0 0 1 -43-80 795 795 0 0 1 -53-136l-3-8-2-10a10 10 0 0 0 -9-10 13 13 0 0 0 -7 0l-2 1a27 27 0 0 0 -3 1 114 114 0 0 0 -24 18 126 126 0 0 0 -5 5 372 372 0 0 0 -30 32l-2 1c-232 273-826 1460 131 2526-895-1054-330-2193-85-2491a861 861 0 0 0 48 117 1149 1149 0 0 0 43 80l91 148c608 960 1352 1400 1790 2493v-7 7a3505 3505 0 0 1 -120 2617 3215 3215 0 0 1 -616 884 3220 3220 0 0 0 662-932 3506 3506 0 0 0 120-2616z" fill="url(#h)"/><path d="m5378 33 2-2c-878 514-1233 1420-1317 1981a2867 2867 0 0 1 1172-1809c35-66 84-124 143-170z" fill="url(#i)"/><path d="m6345 5276 2-5c34-82 495-1227-384-2037a760 760 0 0 0 -59-47l-24-18a1354 1354 0 0 0 -900-233 861 861 0 0 0 -35 6c1380 688 1029 3043-848 3008l15 1c1903 75 2278-2259 956-2991a1405 1405 0 0 1 735 212l24 17a740 740 0 0 1 60 45c911 775 495 1937 464 2020l-2 6" fill="url(#j)"/><path d="m2736 3391a1939 1939 0 0 0 1403 34 1939 1939 0 0 1 -1413-73 1474 1474 0 0 0 -1408 45l-5 4-5 2-3 3h-2l-2 2 3 10 4 8a800 800 0 0 0 25 50 993 993 0 0 0 885 510c-70 614 244 1328 1004 1724-726-419-1031-1178-947-1783-560-14-811-350-883-493a1533 1533 0 0 1 1344-43z" fill="url(#l)"/><path d="m2875 2517-20-10 20 12zm-4-14a1796 1796 0 0 1 -6-931 2828 2828 0 0 0 -898 681 2929 2929 0 0 1 819-578 1818 1818 0 0 0 85 828z" fill="url(#m)"/><path d="m425 4653-3-11a3589 3589 0 0 1 -90-396 1677 1677 0 0 1 0-500 3299 3299 0 0 0 -36 388v20a3877 3877 0 0 0 2604 3661 3922 3922 0 0 1 -2475-3162z" fill="url(#n)"/><path d="m394 4262c-68-312 70-914 71-923a3269 3269 0 0 1 521-1174 3400 3400 0 0 1 362-434 2840 2840 0 0 1 380-324 334 334 0 0 1 16-10c-1 294 15 792 152 955h2c18-1 583-26 872 150l82 50 103 73 274 248c210 195 667 390 865 482-193-97-647-304-851-506l-267-254a1176 1176 0 0 0 -100-76l-80-53c-283-184-846-173-864-173h-2c-140-178-144-730-137-925a175 175 0 0 1 1-21v-25h-6l-4 2h-3l-3 3-4 2-4 1-5 2-10 5-3 2a1929 1929 0 0 0 -87 50 2833 2833 0 0 0 -379 324 3400 3400 0 0 0 -363 436 3269 3269 0 0 0 -520 1174c-2 8-140 610-72 922 255 1505 1454 2707 2929 3063-1446-375-2615-1563-2866-3046z" fill="url(#o)"/><path d="m7766 2713a2384 2384 0 0 0 -680-920l-30-21-39-24a887 887 0 0 0 -28-16l49 100a3977 3977 0 0 1 343 1076v7c138 898-319 1767-1033 2355l-2 5c-889 723-1752 802-2332 716 577 108 1488 63 2425-700l2-5c714-588 1171-1456 1034-2356l-1-7a3894 3894 0 0 0 -283-944 2566 2566 0 0 1 424 605 3863 3863 0 0 1 359 1900l-10 148a3864 3864 0 0 1 -3640 3379 3965 3965 0 0 1 -767-31 3882 3882 0 0 0 4443-3170l18-150a3980 3980 0 0 0 -252-1947zm-384 203v-3z" fill="url(#p)"/></svg>