<svg viewBox="0 0 51500 51500" xmlns="http://www.w3.org/2000/svg" xmlns:xlink="http://www.w3.org/1999/xlink"><defs><path id="a" d="m37427 26376v-5l-108-3568-537-1783-1538-2898-1758-1851-1859-1326a36 36 0 0 0 -4-2 30 30 0 0 0 -4-2l-1615-633-1948-689-3191-203a46 46 0 0 0 -5 0h-2l-2017 363-1647 508-2922 1712-1823 2036-1683 2733-660 2324a26 26 0 0 0 0 4v1l-123 3523a30 30 0 0 0 0 5v3l629 2398a52 52 0 0 0 2 5l1 2 1387 2729a50 50 0 0 0 3 5l982 1322a25 25 0 0 0 2 3l1358 1244 1696 1146 2085 907a35 35 0 0 0 5 1l2 1h6l3489 410 1821 50a57 57 0 0 0 10 0l3-1h1l2701-761 3-2 2408-1321a35 35 0 0 0 4-3l3-2 1555-1327 1201-1432a53 53 0 0 0 4-7l2-2 1704-3331a30 30 0 0 0 0-5l2-2 374-2277zm-19016 7878-350-321 788 617zm5110 1335-1230-576 2913 262zm450-10478-3232 340 1993-3348zm-1128-3015 3948 1977-2716 1016zm1157 3117 376 2979-3595-2640zm329 3074-3905 1229 263-3903zm-217-3024 3027 2010-2652 962zm49-94 2715-1016 315 3028zm4172-3498 2517-1188-284 2827zm2147 1706-3460 632 1229-2269zm-3558 593-2254-4138 3492 1851zm-127-12-3973-1990 1708-2170zm-6135 1422-506-1933 2444-1323zm-335 4041-1931-3169 2189-665zm3943-1004-1964 2099-1800-914zm2910-1046-702 2524-1927-1570zm-190-3172 2920 2304-2608 717zm58-87 3498-640-558 2959zm3624-779 280-2795 1616 2195zm1932-502 89 3202-1994-2598zm-4316-1253 67-2376 2437 1194zm-105-2-3479-1844 3547-551zm-5417 296-652-2372 2326 246zm-85 88-2467 1336 1815-3708zm-2102 3520-2143 650 1638-2579zm-388 3920-2676-1896 798-1185zm216 268 1798 914-2212 1222zm4043-1290 1931 1573-3924 556zm2834-992 2850 2756-3558-205zm76-73 2616-720 235 3476zm3281-3780 2011 2620-2563 312zm2068-681 1699 960-1610 2225zm18-111 1052-1730 627 2679zm-77-75-1617-2197 2683 443zm-4252-3560 1900-1720 545 2917zm-3759 530 1205-2139 2322 1590zm-2516-240 1366-2778 976 3025zm-2034 3915-1656-2764 3510-1023zm-1752 2779-800-3220 2473 585zm-882 1316-735-1825 1517 663zm2855 2207-415 2140-2290-4057zm1975 1045 628 2122-2860-890zm4154-609-622 2757-3354-2193zm3705 199-1612 1460-1876-1660zm-58-3584 2483 2508-2250 954zm50-99 2560-312-85 2813zm4329-2653 1022 3442-2656-1182zm-580-2908 1668 1264-1043 1404zm-2870-644 1548-1772 1143 2217zm-70-80-541-2897 2087 1127zm-2645-1228-2311-1583 4202-128zm-3747 521-969-3004 2167 878zm-2520-234-1122-1521 2472-1224zm-78 72-3437 1002 2310-2532zm-1970 3930-2450-580 828-2127zm-1747 2790-1550-679 770-2460zm-864 1356-1334 488 594-2325zm2399 4264-2935-1818 622-2278zm2988 1091-2776 440-12-1307zm-353-2140 3264 2135-2640-30zm4130-618 1896 1678-2509 1042zm3710 210 1002 2775-2626-1303zm90-63 2236-947-1232 3730zm2462-3958 2656 1182-2740 1640zm1778-2347 1737 1236-742 2115zm-20-143 1044-1407 688 2638zm-696-2929 484-1502 1156 2744zm-73-117-1104-2142 1590 636zm-3271-3412 2312-151-291 1242zm-4579 40 1628-2019 2610 1890zm-96-48-838-2196 2450 198zm-109 10-2141-868 1313-1303zm-4810 367 920-2656 1563 1426zm-2470 2633 674-2760 1600 267zm-1000 2355-865-1357 1670-713zm-47 123-740 2360-98-3675zm-851 2729-603 2355-946-2353zm-1573-103 50-2313 1494 2310zm2383 2170-600 2196-731-1709zm2403 4271-1819 258-1040-2029zm99 92 12 1289-1800-1035zm3033 962-920 1928-1919-1477zm108 20 2432 2246-3360-303zm119-33 2665 30-243 2205zm5354-1057 102 2492-2612-1450zm106 10 2635 1307-2534 1185zm4087-2554 1309 2046-2542 1689zm92-53 2519 370-1226 1652zm46-100 2695-1612-175 1983zm3560-3843 475 1665-1194 385zm-634-2830 1365 1718-701 827zm-1277-3130 1773 1297-610 1468zm-1827-893 286-1218 1277 1842zm-2260-1234-307-1861 2666 1707zm-117-62-2540-1841 2235-14zm-5168-2144 1659-1018 711 1210zm-1593 1383-1535-1402 2841 107zm-2701 1334-1594-267 2500-2343zm-2474 2680-1632-1325 2316-1474zm-70 80-1685 719 82-2021zm-1686 4793-1515-2343 1410-1520zm-656 2769-288 1433-567-3560zm73 170 710 1658-1014-142zm1842 3882-1070-206 68-1750zm2021 1240-760 730-1021-1755zm91 58 1826 1405-2585-676zm5958-438 2607 1447-2850 766zm5390 285-143 1818-2350-653zm2615-1721-1447 2534-1022-893zm1429-1792 8 1327-1158 221zm290-2260 1177-380-1343 2257zm817-2333 668-789-218 2364zm-750-2906 600-1445 777 3180zm-1277-3063 422-736 1271 1976zm-73-84-1247-1800 1669 1064zm-4185-3806 1263-135 1277 1761zm-2563-74-696-1182 2843 1169zm-2643-233-560-980 2193-22zm-112 18-2763-104 2202-880zm-5584 2279 990-2143 1434-130zm-178 133-904-868 1909-1306zm-67 81-2250 1432 1342-2304zm-2543 3716-1128-607 1209-1370zm-35 100-1370 1477 237-2086zm-1549 4143-580 474 625-2514zm15 124 591 3710-1212-3202zm1831 4420-68 1744-947-1887zm1164 2232 962 1653-1980-1850zm4059 2740-42 958-2525-1629zm103 41 1310 613-1351 330zm3490 305 40 1344-1904-997zm3010-803-772 1818-2043-1062zm121-16 2350 652-3120 1163zm2718-1219 996 870-1132 879zm2701-1863 1149-219-2515 2614zm1352-507-8-1294 1058-646zm93-1478 1285-2160-236 1519zm1638-4663 150 1587-340 470zm-780-3977 294 275 294 2127zm-1488-2426 276-138 799 1810zm-1932-1267 485-694 1187 1760zm-75-76-1265-1743 1750 1048zm-2848-1824-8-758 1218 630zm-105-20-2784-1144 2776 365zm-5506-1278 443-380 1470 361zm-2420 908 862-929 1191 108zm-222 85-1305 119 2142-1021zm-3588 1500 144-324 1197-595zm-1572 2530-87-844 1303-1244zm-90 149-1080 1224 995-2048zm-1610 3826-690 128 911-2068zm-22 110-660 2658-42-2527zm583 6616-784-645-376-2418zm1099 2235-500-165-336-1500zm2140 2063-1663-905-267-897zm303 285 720 918-2201-1724zm270 173 2290 1478-1499-469zm4201 1318 1780 931-3094-610zm2136-354 1992 1036-1952 310zm5288-48-809 698-1820 282zm1495-1046 67 435-1045 324zm2712-2800-1075 1910-1368 630zm300-318 720-1330-770 1824zm1522-4099 272-376-437 1437zm262-2834v-3l-4-28 27-356 28 922zm-73-524-272-1970 337 1118zm-809-3073-496-1125 695 1311zm-1497-2323-991-1470 1265 1333zm-3312-3179 67-48 762 544zm-100-57-515-267 572 225zm-4350-1124 965-199 1454 517zm-316-42-1315-324 2205 140zm-2490 24-1027-93 1436-259zm-3620 916 586-440 946-290zm-483 230-509 253 783-458zm-2135 1464-604 577 690-770zm-2829 4069-268 100 1043-1694zm-350 241 290-107-732 1664zm-721 4317 15 926-53 168zm50 1163 264 1702-364-1389zm1378 3520 340 1520-1083-2132zm1089 2171 235 792-700-945zm5260 4077 99 157-1030-447zm265 224-121-193 2240 441zm5485 190-235 266-1230-34zm163-27 1465-227-1683 474zm3386-1265 859-266-1515 832zm1376-570-67-436 1255-577zm2720-3260-59 586-826 985zm1360-2498 212-102-970 1900zm283-253-238 115 478-1575z"/><path id="b" d="m47898 16736c-1046-2512-3164-5225-4827-6082 1354 2650 2137 5310 2437 7293l3 23 4 26c2270 6147 1034 12397-749 16217-2757 5910-9432 11967-19880 11671-11290-319-21234-8685-23090-19643-339-1728 0-2605 170-4008-208 1082-287 1394-390 3316 0 40-3 81-3 122 0 13271 10772 24029 24060 24029a24056 24056 0 0 0 23717-19963l110-927c478-4120-54-8452-1561-12074z"/><linearGradient id="c" x1="42%" x2="61%" y1="-10%" y2="114%"><stop offset="0" stop-color="#aaf2ff"/><stop offset=".29" stop-color="#0df"/><stop offset=".61" stop-color="#0090ed"/><stop offset=".89" stop-color="#0250bb"/></linearGradient><linearGradient id="d" x1="38%" x2="63%" y1="0%" y2="124%"><stop offset="0" stop-color="#aaf2ff"/><stop offset=".29" stop-color="#0df"/><stop offset=".74" stop-color="#0090ed"/><stop offset="1" stop-color="#0250bb"/></linearGradient><linearGradient id="e" x1="86%" x2="20%" y1="15%" y2="84%"><stop offset=".24" stop-color="#80ebff" stop-opacity=".5"/><stop offset=".7" stop-color="#0df" stop-opacity="0"/></linearGradient><linearGradient id="f" x1="61%" x2="20%" y1="-10%" y2="149%"><stop offset="0" stop-color="#bff3ff" stop-opacity=".9"/><stop offset="1" stop-color="#80ebff" stop-opacity=".5"/></linearGradient><linearGradient id="g"><stop offset="0" stop-color="#bff3ff"/><stop offset="1" stop-color="#0df" stop-opacity="0"/></linearGradient><linearGradient id="h" x1="51%" x2="48%" xlink:href="#g" y1="-2%" y2="139%"/><linearGradient id="i" x1="52%" x2="47%" y1="-4%" y2="143%"><stop offset="0" stop-color="#bff3ff"/><stop offset="1" stop-color="#aaf2ff" stop-opacity=".5"/></linearGradient><linearGradient id="j" x1="53%" x2="47%" xlink:href="#g" y1="-2%" y2="142%"/><linearGradient id="k"><stop offset="0" stop-color="#bff3ff" stop-opacity=".8"/><stop offset="1" stop-color="#80ebff" stop-opacity=".2"/></linearGradient><linearGradient id="l" x1="49%" x2="57%" xlink:href="#k" y1="-2%" y2="123%"/><linearGradient id="m" x1="117%" x2="24%" xlink:href="#k" y1="-23%" y2="128%"/><linearGradient id="n" x1="52%" x2="47%" y1="-1%" y2="137%"><stop offset="0" stop-color="#0df" stop-opacity=".4"/><stop offset="1" stop-color="#0df" stop-opacity="0"/></linearGradient><linearGradient id="o" x1="50%" x2="50%" xlink:href="#g" y1="-12%" y2="99%"/><linearGradient id="p" x1="53%" x2="47%" y1="-3%" y2="142%"><stop offset="0" stop-color="#bff3ff" stop-opacity=".8"/><stop offset="1" stop-color="#0df" stop-opacity="0"/></linearGradient><radialGradient id="q" cx="55%" cy="25%" r="60%"><stop offset=".1" stop-color="#0df" stop-opacity=".4"/><stop offset=".9" stop-color="#7542e5" stop-opacity=".25"/></radialGradient><radialGradient id="r" cx="49.24%" cy="52.7%" fx="49%" r="51%"><stop offset=".91" stop-color="#7542e5" stop-opacity="0"/><stop offset="1" stop-color="#0df" stop-opacity=".4"/></radialGradient><radialGradient id="s" cx="86%" cy="-13%" gradientTransform="matrix(.81263 0 0 1 .16 0)" r="128%"><stop offset="0" stop-color="#80ebff"/><stop offset=".26" stop-color="#0df"/><stop offset=".53" stop-color="#0090ed"/><stop offset=".86" stop-color="#0060df"/></radialGradient><radialGradient id="t" cx="47.73%" cy="40%" fx="48%" gradientTransform="matrix(.81263 0 0 1 .09 0)" r="128%"><stop offset=".3" stop-color="#321c64" stop-opacity=".8"/><stop offset=".37" stop-color="#212f83" stop-opacity=".5"/><stop offset=".48" stop-color="#0a47ac" stop-opacity=".14"/><stop offset=".53" stop-color="#0250bb" stop-opacity="0"/></radialGradient><radialGradient id="u" cx="90%" cy="-50%" gradientTransform="matrix(.83857 0 0 1 .13 0)" r="210%"><stop offset="0" stop-color="#80ebff"/><stop offset=".47" stop-color="#00b3f4"/><stop offset=".84" stop-color="#0060df"/><stop offset="1" stop-color="#592acb"/></radialGradient><radialGradient id="v" cx="208%" cy="-104%" gradientTransform="scale(1 .99746)" r="300%"><stop offset="0" stop-color="#0df"/><stop offset=".82" stop-color="#0090ed"/></radialGradient><radialGradient id="w" cx="155%" cy="-45%" gradientTransform="matrix(.8937 0 0 1 .17 0)" r="313%"><stop offset=".29" stop-color="#80ebff"/><stop offset="1" stop-color="#00b3f4"/></radialGradient><radialGradient id="x" cx="15%" cy="-43%" gradientTransform="scale(.9814 1)" r="230%"><stop offset=".18" stop-color="#aaf2ff"/><stop offset=".43" stop-color="#0df"/><stop offset=".69" stop-color="#0060df"/></radialGradient></defs><g fill="#09204d"><path d="m14662 29010 1514 4198 2276 3070 5341 1018 2556 218 4362-1090 1880-1802z"/><path d="m37269 22818-535-1775-1530-2885-1749-1844-1857-1326-1612-633-1935-688-3185-203-2009 363-1639 504-2908 1702-1818 2027-1676 2723-660 2316-122 3515 628 2396 1387 2728 977 1318 1352 1240 1689 1142 2082 905 3485 410 1820 50 2692-759 2407-1320 1549-1322 1200-1432 1698-3324 375-2273z"/></g><path d="m24924 15062-1427 1415 2328 943 1730-2146z" fill="#0e56d7"/><path d="m25825 17420 4505-136-2774-2010-1732 2146z" fill="#1053d1"/><path d="m29995 15258-2440 15 2775 2010 2565-167z" fill="#0b4fbf"/><path d="m32895 17116-1458-2011 2018 1210z" fill="#0b48b0"/><path d="m34826 18347-1930-1231 560-802 1370 2034z" fill="#0c45a7"/><path d="m32895 17116-323 1378 1766 706z" fill="#0f46af"/><path d="m32895 17116 1932 1231-488 853z" fill="#0c47ad"/><path d="m30330 17284 2565-168-323 1378z" fill="#0e4fc3"/><path d="m30330 17284-2027 1834 2609 1278z" fill="#174dca"/><path d="m25825 17420 4505-136-2027 1834z" fill="#1650d4"/><path d="m32572 18494 1228 2379 540-1673-1767-706z" fill="#1246b2"/><path d="m33799 20873 540-1673 1285 3057z" fill="#133ea1"/><path d="m34338 19200 1960 1434-674 1623z" fill="#103d98"/><path d="m34826 18347 379-190 1092 2477-1470-2286z" fill="#0b3785"/><path d="m36297 20634 437 410-1530-2886z" fill="#0b3685"/><path d="m36297 20634-1470-2286-488 852zm-2842-4320 1371 2034 379-190z" fill="#0c3b91"/><path d="m37170 24204-436-3160 535 1774-106 1386z" fill="#0b3279"/><path d="m36297 20634 873 3570-436-3160z" fill="#0f388d"/><path d="m35624 22257 1546 1947-873-3570z" fill="#0d3481"/><path d="m37163 24204 106-1386 106 3555z" fill="#0b2e71"/><path d="m36911 27014 464-640-205-2170z" fill="#0e2f77"/><path d="m37000 28646-370 180 745-2453z" fill="#0e2969"/><path d="m36630 28825 745-2452-464 640-282 1812z" fill="#0c2a69"/><path d="m36911 27014 260-2810-795 937z" fill="#123180"/><path d="m36630 28825 281-1811-1532 2575 1250-764z" fill="#112b70"/><path d="m35624 22257 1546 1947-794 937z" fill="#12378c"/><path d="m36911 27014-535-1873-808 2307z" fill="#122e7b"/><path d="m35302 31970 1327-3145-1241 2292-85 853z" fill="#11296c"/><path d="m35388 31117 1241-2292-1250 764z" fill="#142a72"/><path d="m36630 28825-1328 3145 1698-3324zm-2528 4577 1200-1432 86-852zm-1549 1321 1549-1320-1637 752z" fill="#112768"/><path d="m23515 35644-1565 382 48-1092z" fill="#1c226a"/><path d="m14816 20782 432-160-1092 2478 660-2317z" fill="#182b7a"/><path d="m14157 23099 826-154 264-2322z" fill="#1f308d"/><path d="m14206 26073-50-2974 827-154z" fill="#1e2b7f"/><path d="m32572 18494-1660 1902 2887 477zm-14490-1951 2120-1450-1892 940z" fill="#1346b5"/><path d="m18310 16033 2908-1702-1017 762z" fill="#1244ac"/><path d="m20201 15093 2656-1266-1639 504z" fill="#0e4ab6"/><path d="m30330 17284 582 3112 1660-1902zm-8511-2339 2474-989-1436-129z" fill="#0e4bba"/><path d="m24866 13465-2009 362 1436 129 573-492z" fill="#0a4ebc"/><path d="m26765 13931-2472 25 573-492" fill="#0c54cc"/><path d="m31437 15105-1442 153 2900 1858zm-4672-1174 3220 424-1934-688z" fill="#0b4bb4"/><path d="m31437 15105-1451-750 1612 633z" fill="#0c3889"/><path d="m14662 29010 952 783-1408-3720zm13140 7398 837-1970-3050 820zm837-1970 2550 708 154-1972z" fill="#202575"/><path d="m32465 34155-1122-981 2711-1802z" fill="#1b2773"/><path d="m34054 31372-1589 2783 1637-753 1286-2285z" fill="#15276d"/><path d="m31598 14988-161 117 2018 1210zm-1603 270 1442-153-1451-750z" fill="#0c409d"/><path d="m24866 13465 1900 466 1285-264zm5120 890-3220-424 3230 1327z" fill="#0b4cb7"/><path d="m26765 13931 790 1342 2440-15z" fill="#0b55ce"/><path d="m26765 13931 790 1342-2631-211 1841-1130z" fill="#0a52c5"/><path d="m24293 13956 631 1106 1841-1130z" fill="#0951c4"/><path d="m21819 14945 2474-989 631 1106z" fill="#0b50c4"/><path d="m20201 15093 1618-148 1038-1118zm1618-148 1678 1532 1427-1416z" fill="#0f4dbf"/><path d="m21819 14945-2733 2563 1115-2415z" fill="#1546b6"/><path d="m19086 17507 1744 290 989-2852-2733 2563z" fill="#1549bd"/><path d="m20830 17797 989-2852 1679 1532z" fill="#144bc3"/><path d="m16492 18060 106 1031 1484-2548z" fill="#173794"/><path d="m15247 20623 1245-2562 106 1030-1350 1532z" fill="#192f84"/><path d="m16598 19091 1484-2548 1004 964z" fill="#1a389b"/><path d="m16509 21300 90-2209-1352 1532 1263 677z" fill="#1d3089"/><path d="m16509 21300 90-2209 1752 1423-1842 787z" fill="#1e389f"/><path d="m18351 20514 735-3006-2488 1583z" fill="#1c40af"/><path d="m18351 20514 735-3006 1744 290z" fill="#1e41b7"/><path d="m14983 22945 264-2322 1263 677-1526 1644z" fill="#192c7d"/><path d="m27802 36408 2344-364 1042-899zm-13768-9794 172-541-50-2974zm949-3669-777 3128 1408 3720-687-4310z" fill="#162467"/><path d="m15614 29793 1162 163-814-1899z" fill="#1a236a"/><path d="m32465 34155-1277 990-1042 900 2407-1322zm-6831 2597 1820 50 2692-758-2344 364zm-8936-4800 1220 235-1142-2230z" fill="#132668"/><path d="m21998 34934-2067-1590-859 825 2878 1857zm-7336-5924 1387 2728-435-1945zm-628-2396 628 2396-456-2937zm11554 8644-3590-323 1517 709-1565 382-1883-588 2082 905 3484 410 2168-345zm-8812-5302-1162-163 1084 2159zm-1849-4473 687 4310 348-1736zm2992 6703-1221-234-650-214 978 1318 1352 1240 1689 1142-995-1269z" fill="#1b2268"/><path d="m14983 22945 1639 2536-113-4180z" fill="#212a81"/><path d="m14927 25483 1035 2574 660-2577z" fill="#21267a"/><path d="m15962 28057 660-2577 819 2037z" fill="#262781"/><path d="m16776 29956 3142 1947-2477-4386-665 2440z" fill="#272379"/><path d="m16049 31738 649 214-1084-2159zm6940 1120-991 2076 3590 323zm-6213-2902 1143 2230 1153 1983 860-826-14-1440z" fill="#1e226d"/><path d="m31343 33174-155 1971 1277-990zm-5494-283-260 2366 3050-820-110-2660z" fill="#222475"/><path d="m14927 25483 1694-3-1638-2535zm13603 6295 109 2660 2704-1264z" fill="#23277d"/><path d="m28530 31778 1740-1576 1073 2972z" fill="#1e2776"/><path d="m31343 33174 1315-3985-2388 1013z" fill="#222b86"/><path d="m34054 31372-2711 1802 1316-3984z" fill="#192974"/><path d="m35379 29590-2720-400 1395 2182 1334-255-10-1528z" fill="#172a75"/><path d="m35568 27448-2910 1741 2720 400 1533-2575z" fill="#172d7d"/><path d="m15247 20623 1245-2562-1676 2722zm19236 3171 1085 3654 808-2307z" fill="#18338a"/><path d="m36376 25141-752-2884-1141 1537z" fill="#153791"/><path d="m32658 29190 2910-1742-2820-1255-90 2996z" fill="#1b318b"/><path d="m32658 29190-2636-2665 248 3677z" fill="#242d8d"/><path d="m28530 31778-2024-1793 3764 217z" fill="#2a2b8f"/><path d="m16776 29956 665-2440-1479 541zm9730 30-657 2905 2681-1113z" fill="#27267f"/><path d="m22315 30580-1949-990-448 2313 3072 955 2860 33z" fill="#2d2381"/><path d="m25850 32890 656-2905-4191 595 3534 2310z" fill="#2f2485"/><path d="m16622 25480 840-2683-953-1496 113 4180z" fill="#233196"/><path d="m18351 20514 3690-1075-1949 3980-1740-2905z" fill="#293cb7"/><path d="m32658 29190-2636-2665 2726-332-90 2996z" fill="#25339c"/><path d="m35568 27448-1085-3654-1735 2399z" fill="#19348f"/><path d="m30270 30202-3015-2916 2767-760z" fill="#2a309a"/><path d="m26506 29985 3764 217-3015-2916-750 2700z" fill="#302b96"/><path d="m26506 29985-2063-1679 2812-1020-750 2700z" fill="#3630a7"/><path d="m18082 16543 228-510-1818 2027zm15717 4330 684 2921 1140-1537z" fill="#173da2"/><path d="m18351 20514 1741 2906-2630-623 890-2283z" fill="#2a36a8"/><path d="m17462 22797 2630 623-1778 2800z" fill="#312e9f"/><path d="m22040 19439 1458-2962-2668 1320z" fill="#184dcd"/><path d="m16622 25480 1692 740-873 1297-820-2036z" fill="#272986"/><path d="m18314 26220-873 1297 2477 4386 448-2314-2052-3368z" fill="#2c2584"/><path d="m20366 29590 275-4076-2327 707 2052 3368z" fill="#32268b"/><path d="m20366 29590 4077-1284-3802-2792-275 4075z" fill="#372999"/><path d="m24443 28306-397-3150-3405 358z" fill="#392da5"/><path d="m24046 25156 2876-1076 333 3206z" fill="#3338bc"/><path d="m22315 30580 4190-595-2062-1679z" fill="#362896"/><path d="m22315 30580-1949-990 4077-1284z" fill="#35268f"/><path d="m22040 19439 2498 264-1040-3226-1457 2962z" fill="#2648d3"/><path d="m25825 17420-2327-943 1040 3226z" fill="#1057dc"/><path d="m25825 17420 2478 1698-3765 585z" fill="#1653da"/><path d="m24538 19703 3693 1958-1310 2420z" fill="#2b46d5"/><path d="m28231 21661 72-2543-3765 585z" fill="#244ad7"/><path d="m28231 21661 72-2543 2609 1278z" fill="#2547cf"/><path d="m24538 19703 2384 4377-4181-2094z" fill="#333cc5"/><path d="m24046 25156 2876-1076-4181-2094z" fill="#3833b6"/><path d="m26922 24080 3687-673-2378-1746-1310 2420z" fill="#2a41c6"/><path d="m30912 20396-303 3010-2378-1745 2680-1265z" fill="#2045c1"/><path d="m30912 20396 1740 2363-2043 648z" fill="#1b43b7"/><path d="m33799 20873-2887-477 1740 2364 1148-1887z" fill="#1742af"/><path d="m19086 17507 1115-2414-2120 1450zm14714 3366-1147 1887 1830 1035z" fill="#1740a9"/><path d="m32748 26193 1735-2400-1830-1034z" fill="#1b3ca4"/><path d="m32748 26193-96-3434-2043 648 2140 2786z" fill="#1f3dad"/><path d="m18351 20514 3690-1075-1211-1641zm8570 3566 3100 2445 588-3118z" fill="#2543c3"/><path d="m27255 27286 2767-760-3100-2446z" fill="#2e37b2"/><path d="m22040 19439 700 2547 1798-2283-2497-264z" fill="#2d40c7"/><path d="m22040 19439-1948 3980 2649-1433-700-2547z" fill="#3537b8"/><path d="m22740 21986-2100 3528 3406-358-1305-3170z" fill="#3931b0"/><path d="m24046 25156 397 3150 2812-1020zm-3405 358 2100-3528-2649 1434z" fill="#3735b8"/><path d="m18314 26220 1778-2800 549 2094-2327 707z" fill="#342892"/><path d="m20067 35438 1883 588-2878-1857zm-136-2094 2067 1590 992-2076-3072-955zm5657 1913 261-2366-2860-33zm3050-820-836 1970 3386-1262z" fill="#232372"/><path d="m16622 25480 840-2683 852 3424-1692-740z" fill="#2a2f96"/><path d="m17462 22797 890-2283-1843 787zm13147 610-587 3118 2726-332z" fill="#2636a5"/><use fill="url(#q)" xlink:href="#a"/><use fill="url(#r)" xlink:href="#a"/><use fill="url(#s)" xlink:href="#b"/><use fill="url(#t)" xlink:href="#b"/><path d="m1796 26241c1856 10958 11800 19324 23090 19643 10448 296 17123-5761 19880-11670 1783-3820 3020-10070 750-16218l-2-3-3-23a98 98 0 0 0 -3-23l4 40c854 5566-1981 10958-6412 14604l-14 32c-8634 7022-16897 4236-18570 3096a13720 13720 0 0 1 -350-174c-5034-2403-7113-6984-6667-10912-4251 0-5700-3581-5700-3581s3816-2718 8846-354c4658 2190 9033 354 9033 354-9-195-4196-1859-5829-3466-872-858-1286-1272-1653-1582a7150 7150 0 0 0 -623-470 28191 28191 0 0 0 -499-330c-1755-1140-5245-1077-5360-1074h-11c-954-1206-887-5187-832-6018-12-52-712 363-803 425a17524 17524 0 0 0 -2352 2013 21038 21038 0 0 0 -2247 2691l-1 4v-4a20270 20270 0 0 0 -3228 7280c-11 53-866 3785-444 5720z" fill="url(#u)"/><path d="m34121 16760a13073 13073 0 0 1 2234 2910c132 100 256 199 361 296 5455 5020 2597 12120 2384 12625 4430-3646 7266-9038 6412-14604-2720-6773-7334-9504-11101-15450l-567-920a7315 7315 0 0 1 -265-498 4374 4374 0 0 1 -359-949 63 63 0 0 0 -55-65 82 82 0 0 0 -45 0l-29 17c-931 443-6449 9169 1030 16638z" fill="url(#c)"/><path d="m24866 13465 3185 202 1935 688 1612 633 1857 1326 1750 1844 607 1147c82 50 250 158 393 255 53 37 100 74 150 110a13073 13073 0 0 0 -2233-2910c-7480-7470-1962-16197-1032-16640l10-14c-6044 3536-8095 10076-8283 13349v18z" fill="url(#d)"/><path d="m17074 15204a24333 24333 0 0 1 499 330 11120 11120 0 0 1 -68-5873c-2471 1124-4394 2901-5791 4470 115-3 3605-66 5360 1073z" fill="url(#v)"/><path d="m14832 27845s1111-4134 7953-4134c740 0 2854-2061 2893-2659 0 0-4375 1835-9033-354-5030-2364-8845 354-8845 354s1450 3581 5700 3581c-445 3928 1634 8509 6668 10912l334 164c-2940-1517-5366-4383-5670-7864z" fill="url(#w)"/><path d="m36716 19966a4753 4753 0 0 0 -361-295c-49-37-97-74-150-110-1285-902-3585-1792-5801-1407 8654 4321 6330 19202-5662 18640a10697 10697 0 0 1 -3130-603 13300 13300 0 0 1 -707-289 9084 9084 0 0 1 -405-193l16 10c1673 1140 9935 3925 18570-3097l13-31c214-505 3072-7605-2383-12625z" fill="url(#x)"/><path d="m47896 16735c-1046-2512-3164-5225-4827-6082 1354 2650 2137 5310 2437 7293l4 40c-2720-6773-7334-9504-11101-15450l-567-920a7311 7311 0 0 1 -265-498 4376 4376 0 0 1 -359-950 63 63 0 0 0 -54-64 82 82 0 0 0 -46 0l-29 17 10-14c-6044 3536-8094 10095-8282 13367l49-8 3185 202 1793 638 1755 683 1857 1326 1747 1843 610 1148c-1395-830-3421-1498-5410-1152 8654 4321 6330 19202-5661 18640a10694 10694 0 0 1 -3132-604 13180 13180 0 0 1 -707-288 9196 9196 0 0 1 -405-194l16 10a13720 13720 0 0 1 -350-174l334 164c-2939-1517-5365-4383-5668-7864 0 0 1110-4134 7953-4134 740 0 2854-2061 2893-2659-9-195-4197-1859-5829-3465-872-859-1287-1273-1653-1583a7150 7150 0 0 0 -624-470 11120 11120 0 0 1 -67-5873c-2472 1124-4394 2900-5792 4470h-10c-955-1207-887-5187-833-6018-11-52-712 363-803 425a17530 17530 0 0 0 -2352 2012 21046 21046 0 0 0 -2246 2691 26 26 0 0 1 -2 4 27 27 0 0 0 2-4 20272 20272 0 0 0 -3229 7280l-32 159a39749 39749 0 0 0 -277 1515c-3 18 2-18 0 0a27913 27913 0 0 0 -355 3353l-3 123c0 13270 10772 24028 24060 24028a24057 24057 0 0 0 23716-19962l110-927c478-4120-54-8452-1561-12074zm-2387 1234 4 26v-3z" fill="url(#e)"/><path d="m25678 21052s-102 43-290 107c-470 795-2140 2310-2780 2308-6842-30-7970 4058-7970 4058a8734 8734 0 0 0 1340 3927 8803 8803 0 0 1 -1146-3607s1111-4134 7953-4134c740 0 2854-2060 2893-2659z" fill="url(#f)"/><path d="m45515 17996v-3l-4-23a212 212 0 0 0 -3-23 580 580 0 0 0 4 40 23904 23904 0 0 0 -517-1190c-60-131-127-254-190-382l-365-730c-78-145-160-283-239-425l-351-616c-88-147-179-287-268-430l-353-553-289-420-360-513c-100-140-203-275-305-410a34915 34915 0 0 0 -368-483q-158-203-320-403a48663 48663 0 0 0 -375-462q-164-200-330-396l-180-216c26 30 50 63 77 94-2085-2460-4347-4726-6368-7915-190-300-381-602-567-920a7206 7206 0 0 1 -265-497 4910 4910 0 0 1 -330-844l-15-50-13-57a63 63 0 0 0 -55-64 85 85 0 0 0 -45 0c-4 1-9 5-12 7l-18 9a740 740 0 0 0 -146 107 1727 1727 0 0 0 -35 31 2504 2504 0 0 0 -190 201l-7 7 2-1c-1441 1694-5123 9058 810 15663-5554-6534-2054-13596-533-15446a5366 5366 0 0 0 296 727 7430 7430 0 0 0 265 497c186 318 377 620 567 920 3768 5946 8380 8678 11102 15450a912 912 0 0 1 -5-40 170 170 0 0 1 3 23l4 24v2c2270 6147 1034 12398-748 16217a19936 19936 0 0 1 -3822 5480 19980 19980 0 0 0 4113-5770c1782-3820 3018-10070 748-16217z" fill="url(#h)"/><path d="m33090 120c4-4 10-12 10-14-5444 3185-7647 8808-8168 12284 598-3212 2657-8117 7270-11214 380-600 715-973 889-1056z" fill="url(#i)"/><path d="m39086 32623 14-32c213-505 3070-7605-2384-12625a4753 4753 0 0 0 -361-296l-150-110c-1242-870-3432-1731-5578-1440h-5q-110 15-218 34c8556 4272 6380 18867-5260 18653l95 5c11800 462 14126-14009 5927-18546 1777-17 3495 632 4557 1316 54 35 103 70 153 104a4720 4720 0 0 1 373 281c5647 4803 3070 12010 2876 12523a7228 7228 0 0 1 -12 32" fill="url(#j)"/><path d="m16709 20938c3938 1706 7593 622 8700 214-1020 352-4789 1414-8764-454-4522-2125-8062-144-8732 278l-32 20-46 30-13 8-9 6 26 57v6l21 45c34 72 86 175 158 300 534 945 2143 3163 5489 3163-432 3811 1512 8235 6224 10690-4500-2600-6400-7300-5870-11049-3476-92-5031-2176-5475-3059a9575 9575 0 0 1 8323-255z" fill="url(#l)"/><path d="m17569 15520-118-68 122 82-4-13zm-25-88a11135 11135 0 0 1 -39-5771c-2343 1065-4192 2717-5568 4223 1310-1277 3010-2647 5078-3586-128 982-239 2993 530 5134z" fill="url(#m)"/><path d="m2376 28760-20-69a22074 22074 0 0 1 -560-2450c-184-843-125-2027 0-3099-93 557-151 1123-220 2407 0 40-3 81-3 122 0 10502 6747 19429 16147 22697-8148-3120-14185-10588-15344-19608z" fill="url(#n)"/><path d="m2183 26338c-421-1935 433-5667 445-5720a20270 20270 0 0 1 3228-7280 21046 21046 0 0 1 2247-2690 17523 17523 0 0 1 2351-2013 2920 2920 0 0 1 102-63c-8 1828 95 4912 942 5923h11c116-6 3618-160 5410 933a27328 27328 0 0 1 509 316 7185 7185 0 0 1 638 453c376 301 803 704 1700 1540 1300 1208 4136 2411 5360 2984-1192-600-4007-1884-5277-3134-872-858-1286-1272-1653-1583a7150 7150 0 0 0 -623-470 28191 28191 0 0 0 -499-330c-1755-1139-5245-1076-5360-1073h-11c-872-1103-890-4522-846-5736l6-130 2-43a11980 11980 0 0 1 2-36l4-73c0-3-4-5-10-4h-7a102 102 0 0 0 -15 4l-13 5a426 426 0 0 0 -39 15l-23 11a1660 1660 0 0 0 -50 24l-30 15-24 13-36 19-20 10a9510 9510 0 0 0 -536 313 17524 17524 0 0 0 -2352 2012 21038 21038 0 0 0 -2247 2691l-1 4v-4a20270 20270 0 0 0 -3228 7280c-11 52-866 3784-444 5720 1580 9325 9017 16772 18156 18981-8960-2323-16211-9690-17769-18884z" fill="url(#o)"/><path d="m47898 16736c-923-2217-2680-4588-4223-5705l-43-30q-71-50-143-98l-54-36q-67-43-134-83l-51-31a4252 4252 0 0 0 -179-99l190 382a39489 39489 0 0 1 115 237c1167 2442 1856 4845 2132 6675l4 40c854 5566-1981 10958-6412 14604l-14 30c-5508 4480-10864 4969-14455 4440 3578 668 9223 386 15037-4342l13-31c4431-3646 7266-9039 6413-14604a1255 1255 0 0 1 -5-40c-245-1625-816-3701-1757-5854a15900 15900 0 0 1 2632 3748c1704 3476 2473 7704 2223 11782l-58 917c-1307 11250-10697 20284-22578 20950a24566 24566 0 0 1 -4750-193 24263 24263 0 0 0 3832 305c11900 0 21782-8629 23716-19963l110-927c478-4120-54-8452-1561-12074zm-2383 1260v-3l-4-23z" fill="url(#p)"/></svg>