<svg viewBox="0 0 953 1022" xmlns="http://www.w3.org/2000/svg" xmlns:xlink="http://www.w3.org/1999/xlink"><defs><path id="a" d="m810.67 803.9a246.89 246.89 0 0 1 -30.12 18.18 704 704 0 0 0 38.3-63c9.46-10.47 18.13-20.65 25.2-31.65 3.44-5.4 7.3-12.08 11.42-19.82 24.92-44.9 52.4-117.56 53.18-192.2v-5.7a257.6 257.6 0 0 0 -5.71-55.71l.56 4.3-.64-3.3c.37 2 .66 4 1 6 5.1 43.22 1.47 85.37-16.68 116.45l-.87 1.32c9.4-47.23 12.56-99.4 2.1-151.6 0 0-4.2-25.38-35.38-102.44-18-44.35-49.83-80.72-78-107.2-24.7-30.55-47.1-51-59.47-64.06-25.82-27.2-36.64-47.57-41.1-60.87-3.85-1.93-53.14-49.8-57.05-51.63-21.5 33.35-89.16 137.67-57 235.15 14.58 44.17 51.47 90 90.07 115.74 1.7 1.94 23 25 33.1 77.16 10.45 53.85 5 95.86-16.54 158-25.3 54.5-90.07 108.4-150.72 113.9-129.67 11.78-177.15-65.1-177.15-65.1 46.34 18.52 97.57 14.65 128.72-4.56 31.4-19.43 50.4-33.83 65.8-28.15 15.2 5.65 27.3-10.76 16.44-27.77a78.5 78.5 0 0 0 -79.4-34.57c-31.43 5.1-60.23 30-101.4 5.9a85.53 85.53 0 0 1 -7.73-5.06c-2.7-1.8 8.83 2.72 6.13.7-8-4.35-22.2-13.84-25.88-17.22-.6-.56 6.22 2.18 5.6 1.62-38.5-31.7-33.7-53.13-32.5-66.57 1-10.75 8-24.52 19.75-30.1 5.7 3.1 9.24 5.48 9.24 5.48l-3.74-7.58c.46-.2.9-.15 1.36-.34 4.66 2.25 15 8.1 20.4 11.67 7.07 5 9.33 9.44 9.33 9.44s1.86-1 .48-5.37c-.5-1.78-2.65-7.45-9.65-13.17h.44a81.2 81.2 0 0 1 11.87 8.24c2-7.18 5.53-14.68 4.75-28.1-.48-9.43-.26-11.87-1.92-15.5-1.5-3.13.83-4.35 3.42-1.1a32.83 32.83 0 0 0 -2.21-7.4v-.31c3.23-11.24 68.25-40.46 73-43.88a67.36 67.36 0 0 0 19.13-20.8c3.62-5.76 6.34-13.85 7-26.1.36-8.84-3.76-14.73-69.5-21.62-18-1.77-28.53-14.8-34.53-26.82-1.1-2.6-2.2-4.94-3.33-7.28a58 58 0 0 1 -2.56-8.43c10.75-30.87 28.8-57 55.37-76.7 1.45-1.32-5.78.34-4.34-1 1.7-1.54 12.7-6 14.8-7 2.54-1.2-10.88-6.9-22.73-5.5-12.07 1.36-14.63 2.8-21.07 5.53 2.67-2.66 11.17-6.15 9.18-6.13-13 2-29.18 9.56-43 18.12a10.73 10.73 0 0 1 .83-4.35c-6.44 2.73-22.26 13.8-26.87 23.14a44.33 44.33 0 0 0 .27-5.4 84.48 84.48 0 0 0 -13.19 13.82l-.24.22c-37.36-15-70.23-16-98.05-9.28-6.1-6.1-9.06-1.64-22.9-32.07-.94-1.83.72 1.8 0 0-2.28-5.9 1.4 7.87 0 0-23.28 18.37-53.92 39.2-68.63 53.9-.18.6 17.16-4.9 0 0-6 1.72-5.6 5.28-6.5 37.5-.22 2.44 0 5.18-.22 7.38-11.75 15-19.75 27.64-22.78 34.2-15.2 26.18-31.93 67-48.15 131.55a334.36 334.36 0 0 1 25.77-50.36c-13.53 34.26-26.56 88.06-29.17 170.93a483.61 483.61 0 0 1 12.53-50.66 473 473 0 0 0 34.74 201.09c9.33 22.82 24.76 57.46 51 95.4 82.53 86.84 198.95 140.9 327.85 140.9 134.6-.03 255.46-58.9 338.5-152.4z"/><path id="b" d="m477.6 319.63c.4-8.77-4.16-14.66-76.68-21.46-29.84-2.76-41.26-30.33-44.75-41.94-10.6 27.56-15 56.5-12.64 91.48 1.6 22.92 17 47.52 24.37 62 0 0 1.64-2.13 2.4-2.9 13.86-14.43 71.94-36.42 77.4-39.54 6.02-3.84 28.9-20.57 29.92-47.63z"/><linearGradient id="c" gradientUnits="userSpaceOnUse" x1="767.95" x2="968.59" y1="403.536" y2="411.456"><stop offset="0" stop-color="#0083ff"/><stop offset=".18" stop-color="#0096f6"/><stop offset=".51" stop-color="#00b3e6"/><stop offset=".79" stop-color="#00c6dd"/><stop offset="1" stop-color="#00ccda"/></linearGradient><linearGradient id="d" gradientUnits="userSpaceOnUse" x1="540.73" x2="349.3" y1="729.45" y2="103.22"><stop offset="0" stop-color="#000f40" stop-opacity=".6"/><stop offset=".61" stop-color="#000f40" stop-opacity=".18"/><stop offset="1" stop-color="#000f40" stop-opacity="0"/></linearGradient><linearGradient id="e" gradientUnits="userSpaceOnUse" x1="540.67" x2="349.23" y1="729.45" y2="103.22"><stop offset="0" stop-color="#000f43" stop-opacity=".4"/><stop offset=".48" stop-color="#001962" stop-opacity=".17"/><stop offset="1" stop-color="#002079" stop-opacity="0"/></linearGradient><linearGradient id="f" gradientUnits="userSpaceOnUse" x1="911.378" x2="771.902" y1="813.076" y2="788.394"><stop offset="0" stop-color="#002275"/><stop offset="1" stop-color="#005fe7"/></linearGradient><linearGradient id="g" gradientUnits="userSpaceOnUse" x1="827.612" x2="972.702" y1="601.466" y2="477.652"><stop offset=".05" stop-color="#005fe7"/><stop offset=".19" stop-color="#005ce1"/><stop offset=".38" stop-color="#0052cf"/><stop offset=".6" stop-color="#0043b2"/><stop offset=".84" stop-color="#002d8a"/><stop offset=".95" stop-color="#002275"/></linearGradient><linearGradient id="h" gradientUnits="userSpaceOnUse" x1="551.122" x2="832.748" y1="904.024" y2="932.464"><stop offset="0" stop-color="#002079"/><stop offset=".99" stop-color="#000f40"/></linearGradient><radialGradient id="i" cx="584.1" cy="385.43" fx="717.51" fy="263.18" gradientUnits="userSpaceOnUse" r="751.57"><stop offset=".16" stop-color="#58c1ff"/><stop offset=".24" stop-color="#4cb8ff"/><stop offset=".39" stop-color="#2ea0ff"/><stop offset=".54" stop-color="#0a84ff"/><stop offset=".76" stop-color="#0060df"/><stop offset=".8" stop-color="#0067de"/><stop offset=".85" stop-color="#007bdd"/><stop offset=".91" stop-color="#009cda"/><stop offset=".98" stop-color="#00c8d7"/></radialGradient><linearGradient id="j" gradientUnits="userSpaceOnUse" x1="750.478" x2="663.025" y1="-27.762" y2="946.286"><stop offset="0" stop-color="#00feff"/><stop offset=".3" stop-color="#04c9ff"/><stop offset=".61" stop-color="#0897ff"/><stop offset=".77" stop-color="#0a84ff"/><stop offset=".79" stop-color="#0a84ff" stop-opacity=".93"/><stop offset=".84" stop-color="#0a84ff" stop-opacity=".76"/><stop offset=".9" stop-color="#0a84ff" stop-opacity=".5"/><stop offset=".98" stop-color="#0a84ff" stop-opacity=".1"/><stop offset="1" stop-color="#0a84ff" stop-opacity="0"/></linearGradient><linearGradient id="k" gradientUnits="userSpaceOnUse" x1="270.03" x2="436.56" y1="340.418" y2="356.798"><stop offset="0" stop-color="#003eaa"/><stop offset=".3" stop-color="#0054c5" stop-opacity=".68"/><stop offset=".78" stop-color="#0076ef" stop-opacity=".2"/><stop offset="1" stop-color="#0083ff" stop-opacity="0"/></linearGradient><linearGradient id="l" gradientUnits="userSpaceOnUse" x1="553.42" x2="358.4" y1="335.89" y2="332.89"><stop offset="0" stop-color="#00feff" stop-opacity=".25"/><stop offset=".54" stop-color="#2ddfff" stop-opacity=".12"/><stop offset="1" stop-color="#58c1ff" stop-opacity="0"/></linearGradient><linearGradient id="m" gradientUnits="userSpaceOnUse" x1="162.322" x2="70.86" y1="317.312" y2="56.248"><stop offset=".19" stop-color="#002275" stop-opacity=".7"/><stop offset=".63" stop-color="#009dc2" stop-opacity=".36"/><stop offset=".94" stop-color="#00feff" stop-opacity=".1"/></linearGradient><linearGradient id="n" gradientUnits="userSpaceOnUse" x1="220.519" x2="302.999" y1="466.123" y2="581.356"><stop offset="0" stop-color="#002275" stop-opacity=".8"/><stop offset=".07" stop-color="#002479" stop-opacity=".74"/><stop offset=".95" stop-color="#003eaa" stop-opacity="0"/></linearGradient><linearGradient id="o" gradientUnits="userSpaceOnUse" x1="378.472" x2="383.855" y1="665.457" y2="612.565"><stop offset="0" stop-color="#002275" stop-opacity=".6"/><stop offset=".24" stop-color="#002275" stop-opacity=".34"/><stop offset=".49" stop-color="#002275" stop-opacity=".15"/><stop offset=".72" stop-color="#002275" stop-opacity=".04"/><stop offset=".93" stop-color="#002275" stop-opacity="0"/></linearGradient><linearGradient id="p" gradientUnits="userSpaceOnUse" x1="569.33" x2="877.68" y1="-78.11" y2="611.4"><stop offset="0" stop-color="#00feff"/><stop offset=".28" stop-color="#03dfff"/><stop offset=".9" stop-color="#0992ff"/><stop offset="1" stop-color="#0a84ff"/></linearGradient><linearGradient id="q" gradientUnits="userSpaceOnUse" x1="680.88" x2="536.1" y1="429.47" y2="818.22"><stop offset="0" stop-color="#0060df"/><stop offset=".09" stop-color="#0067e5" stop-opacity=".8"/><stop offset=".21" stop-color="#006eec" stop-opacity=".6"/><stop offset=".33" stop-color="#0075f2" stop-opacity=".4"/><stop offset=".46" stop-color="#007af7" stop-opacity=".26"/><stop offset=".58" stop-color="#007efa" stop-opacity=".15"/><stop offset=".71" stop-color="#0081fd" stop-opacity=".06"/><stop offset=".85" stop-color="#0082fe" stop-opacity=".02"/><stop offset="1" stop-color="#0083ff" stop-opacity="0"/></linearGradient><linearGradient id="r" gradientUnits="userSpaceOnUse" x1="639.98" x2="747.97" y1="-34.27" y2="876.19"><stop offset="0" stop-color="#75feff"/><stop offset=".28" stop-color="#5adfff"/><stop offset=".9" stop-color="#1692ff"/><stop offset="1" stop-color="#0a84ff"/></linearGradient><linearGradient id="s" gradientUnits="userSpaceOnUse" x1="735.57" x2="653.08" y1="407.59" y2="755.57"><stop offset="0" stop-color="#9ee7ff"/><stop offset=".14" stop-color="#8cdbff" stop-opacity=".88"/><stop offset=".46" stop-color="#5ebdff" stop-opacity=".57"/><stop offset=".92" stop-color="#168cff" stop-opacity=".08"/><stop offset="1" stop-color="#0a84ff" stop-opacity="0"/></linearGradient><linearGradient id="t" gradientUnits="userSpaceOnUse" x1="648.98" x2="724.55" y1="-16.58" y2="556.53"><stop offset="0" stop-color="#00feff"/><stop offset=".14" stop-color="#0bf7ff" stop-opacity=".88"/><stop offset=".46" stop-color="#26e4ff" stop-opacity=".57"/><stop offset=".92" stop-color="#51c6ff" stop-opacity=".08"/><stop offset="1" stop-color="#58c1ff" stop-opacity="0"/></linearGradient><linearGradient id="u" gradientUnits="userSpaceOnUse" x1="662.79" x2="1060.9" y1="17.94" y2="640.41"><stop offset="0" stop-color="#00feff"/><stop offset=".14" stop-color="#01efff" stop-opacity=".88"/><stop offset=".46" stop-color="#04caff" stop-opacity=".57"/><stop offset=".92" stop-color="#098eff" stop-opacity=".08"/><stop offset="1" stop-color="#0a84ff" stop-opacity="0"/></linearGradient><linearGradient id="v" x1="754.47" x2="313.89" xlink:href="#s" y1="464.46" y2="808.04"/><linearGradient id="w" x1="358.66" x2="43.38" xlink:href="#u" y1="231.92" y2="472.42"/><linearGradient id="x" x1="145.71" x2="130.51" xlink:href="#u" y1="126.8" y2="259.1"/><linearGradient id="y" x1="292.56" x2="195.55" xlink:href="#u" y1="423.18" y2="617.2"/></defs><path d="m916.77 436.4-20.3-67.6-58.1-109.92-66.44-70.23-70.55-50.5-61.25-24.1-73.5-26.2-121-7.73-76.3 13.8-62.26 19.2-110.47 64.83-69.05 77.23-63.66 103.7-25.04 88.24-4.68 133.87 23.87 91.28 52.66 103.92 37.14 50.2 51.36 47.2 64.14 43.5 79.1 34.5 132.36 15.58 69.12 1.93 102.3-28.9 91.43-50.32 58.83-50.32 45.62-54.56 64.5-126.6 14.24-86.6-4.05-135.43" fill="#061a58"/><path d="m447.85 140.94-54.18 53.9 88.4 35.93-34.2-89.84" fill="#133691"/><path d="m482.06 230.78-34.21-89.84 99.97 8.07z" fill="#1943ae"/><path d="m482.06 230.78 171.14-5.2-105.38-76.58-65.76 81.77" fill="#2053cf"/><path d="m653.2 225.58-105.38-76.58 92.67-.57 12.7 77.14" fill="#2660eb"/><path d="m653.2 225.58 97.45-6.38-110.16-70.76 12.7 77.14" fill="#306dff"/><path d="m750.65 219.2-110.15-70.76 54.76-5.85 55.4 76.6" fill="#235adb"/><path d="m750.65 219.2-55.4-76.61 76.68 46.06z" fill="#2660eb"/><path d="m824 266.1-73.36-46.9 21.28-30.55z" fill="#2053cf"/><path d="m750.65 219.2-12.27 52.48 67.1 26.89z" fill="#1c4abd"/><path d="m750.65 219.2 73.35 46.9-18.53 32.46-54.83-79.37" fill="#1a46b4"/><path d="m653.2 225.58 97.45-6.38-12.27 52.48z" fill="#2660eb"/><path d="m653.2 225.58 85.18 46.1-63.08 72.45z" fill="#235adb"/><path d="m653.2 225.58-77 69.88 99.1 48.67z" fill="#1f51ca"/><path d="m482.06 230.78 171.14-5.2-77 69.88-94.15-64.68" fill="#1f50c9"/><path d="m675.3 344.13 63.08-72.45 46.6 90.62z" fill="#2053cf"/><path d="m738.38 271.68 46.6 90.62 20.5-63.73-67.1-26.9" fill="#1b48b9"/><path d="m784.98 362.3 20.5-63.73 48.82 116.43z" fill="#173fa5"/><path d="m805.48 298.57 74.4 54.64-25.58 61.8z" fill="#12348d"/><path d="m805.48 298.57 74.4 54.64-55.87-87.1z" fill="#143895"/><path d="m824 266.1 14.36-7.23 41.5 94.33z" fill="#0f2f82"/><path d="m879.88 353.2 16.58 15.6-58.1-109.92 41.5 94.33" fill="#05154c"/><path d="m824 266.1 14.36-7.23-66.44-70.23z" fill="#163c9e"/><path d="m913.04 489.2-16.58-120.4 20.3 67.6-4 52.8h.27" fill="#051753"/><path d="m879.88 353.2 33.16 136-16.58-120.4z" fill="#061a57"/><path d="m854.3 415 58.74 74.2-33.16-136z" fill="#05154c"/><path d="m912.77 489.2 4-52.8 4.05 135.43-7.78-82.62h-.27" fill="#081f63"/><path d="m903.2 596.22 17.62-24.4-7.78-82.62z" fill="#12348d"/><path d="m906.58 658.4-14.1 6.8 28.33-93.4-14.24 86.6" fill="#123392"/><path d="m892.5 665.22 28.33-93.4-17.62 24.4-10.7 69" fill="#0c2674"/><path d="m903.2 596.22 9.84-107.02-30.18 35.7z" fill="#081f63"/><path d="m892.5 665.22 10.7-69-58.2 98.1z" fill="#0f2f82"/><path d="m854.3 415 58.74 74.2-30.18 35.7z" fill="#061a57"/><path d="m903.2 596.22-20.34-71.32-30.69 87.85z" fill="#081e5f"/><path d="m845 694.32 58.2-98.1-51.03 16.53-7.18 81.57" fill="#092167"/><g fill="#163aa2"><path d="m842.1 785 64.5-126.6-14.1 6.8z"/><path d="m842.1 785 50.4-119.78-47.15 87.3z"/></g><path d="m845.34 752.53 47.15-87.3-47.5 29.1z" fill="#0e2b7e"/><path d="m796.48 839.57 48.86-87.04-3.24 32.47-45.6 54.57" fill="#123392"/><path d="m734.3 868.24 62.17-28.67-58.83 50.32z" fill="#1a45b2"/><path d="m796.48 839.57 48.86-87.04-111.03 115.7 62.17-28.67" fill="#123392"/><path d="m734.3 868.24 3.34 21.65-51.85 16.08 48.5-37.73" fill="#133493"/><g fill="#1a45b2"><path d="m646.22 940.2 39.58-34.24 51.85-16.08z"/><path d="m646.22 940.2 39.58-34.24-128.64 48.1zm-102.3 28.9 102.3-28.9-89.06 13.86-13.23 15.03m-69.14-1.92 69.12 1.93 13.23-15.03z"/></g><path d="m342.45 951.6-7.55-12.07 139.9 27.65-132.36-15.58" fill="#1f51ca"/><path d="m342.45 951.6-7.55-12.07-71.55-22.43zm-143.24-78-51.36-47.2 115.5 90.72-64.14-43.5" fill="#173fad"/><path d="m147.85 826.37-37.14-50.2 24.67 8.14z" fill="#1b47b5"/><path d="m147.85 826.37 115.5 90.72-37.78-48.3z" fill="#163aa3"/><path d="m147.85 826.37 77.72 42.42-90.2-84.48 12.47 42.06" fill="#173fad"/><path d="m225.57 868.8 109.33 70.73-71.55-22.43z" fill="#133595"/><path d="m225.57 868.8 109.33 70.73 1.8-41.6-111.14-29.14" fill="#163ba4"/><path d="m394.33 924.94-59.43 14.58 1.8-41.6 57.62 27" fill="#163aa2"/><path d="m135.38 784.31-24.67-8.14-16.5-74.08z" fill="#2053cf"/><path d="m110.7 776.17-52.65-103.92 36.15 29.85 16.5 74.08" fill="#306dff"/><path d="m40.73 560.38 53.47 141.72-36.16-29.84" fill="#1f51ca"/><path d="m58.05 672.25-23.87-91.28 6.55-20.59z" fill="#2257d7"/><path d="m40.73 560.38-6.55 20.59 4.68-133.87z" fill="#11318d"/><path d="m63.9 358.86 16.38-6.1-41.42 94.33 25.04-88.24" fill="#0c2674"/><path d="m38.86 447.1 31.36-5.85 10.06-88.48z" fill="#102f88"/><path d="m40.73 560.38-1.87-113.28 31.36-5.85-29.5 119.13" fill="#133595"/><path d="m70.22 441.25-2.1 96.66-27.38 22.47 29.5-119.13" fill="#12328e"/><path d="m127.56 255.17-47.28 97.6-16.38 6.1z" fill="#0b2572"/><path d="m127.56 255.17 60.4-57.8 8.66-19.42-69.05 77.23" fill="#020b2e"/><path d="m196.6 177.94 71.85-35.8-80.5 55.23 8.66-19.42" fill="#092064"/><path d="m196.6 177.94 110.47-64.83-38.62 29.02-71.85 35.8" fill="#030f41"/><path d="m268.46 142.13 100.88-48.22-62.26 19.2z" fill="#081e5f"/><path d="m369.34 93.9-39.44 42.6-61.44 5.62z" fill="#081f61"/><path d="m329.9 136.5 93.97-37.68-54.53-4.92z" fill="#0d2a78"/><path d="m445.64 80.1-76.3 13.81 54.53 4.92z" fill="#11338b"/><path d="m517.8 97.9-93.93.94 21.77-18.73" fill="#153a99"/><path d="m445.64 80.1 121 7.73-48.84 10.07z" fill="#0d2a78"/><path d="m517.8 97.9 48.84-10.06 73.5 26.2z" fill="#2053ce"/><path d="m695.25 142.6-55.12-28.55 61.25 24.1-6.13 4.44" fill="#1e4dc3"/><path d="m695.25 142.6 6.13-4.44 70.55 50.5z" fill="#1e4fc7"/><path d="m334.9 939.52 139.9 27.65-80.48-42.23-59.43 14.58" fill="#1a45b2"/><path d="m474.8 967.17-80.48-42.23 78.76-14.7 1.72 56.94" fill="#163aa2"/><path d="m557.16 954.07-82.35 13.1-1.72-56.94z" fill="#1a45b2"/><path d="m557.16 954.07-84.07-43.84 115.86-31.2-31.8 75.05" fill="#1741aa"/><path d="m685.8 905.97-128.64 48.1 31.79-75.05" fill="#1a45b2"/><path d="m685.8 905.97 5.88-75.1-102.73 48.15z" fill="#133493"/><path d="m685.8 905.97 5.88-75.1 42.63 37.37-48.5 37.73" fill="#163aa2"/><path d="m734.31 868.24-42.63-37.37 103-68.63z" fill="#133493"/><path d="m734.3 868.24 60.37-106 50.66-9.7z" fill="#1a45b2"/><path d="m845.34 752.53-.35-58.2-50.3 67.92 50.66-9.7" fill="#092167"/><path d="m640.13 114.04.36 34.4 54.76-5.85" fill="#2258d9"/><path d="m640.5 148.44-.36-34.4-122.34-16.14 122.7 50.55m-122.7-50.55 30.02 51.1 92.67-.57z" fill="#2257d7"/><path d="m517.8 97.9 30.02 51.1-99.97-8.07z" fill="#1a46b3"/><path d="m423.87 98.83 23.98 42.1 69.95-43.03-93.93.94" fill="#163c9f"/><path d="m329.9 136.5 93.97-37.68 23.98 42.1-117.95-4.43" fill="#103186"/><path d="m393.67 194.85-63.77-58.35 117.95 4.43-54.18 53.9" fill="#163c9e"/><path d="m268.46 142.13-80.51 55.23 38.15 36.75z" fill="#031043"/><path d="m329.9 136.51-103.8 97.6 42.36-91.98z" fill="#030f41"/><path d="m226.1 234.1 66.23 11.05 37.57-108.65z" fill="#05164e"/><path d="m292.33 245.16 37.57-108.66 63.77 58.34-101.34 50.3" fill="#092064"/><path d="m127.56 255.17 4.04 39.27 56.35-97.08-60.4 57.8" fill="#030f41"/><path d="m80.28 352.77 47.28-97.6 4.04 39.27z" fill="#091f64"/><path d="m131.6 294.44 56.35-97.08 38.15 36.75z" fill="#041345"/><path d="m128.2 378.6 3.4-84.16-51.32 58.33 47.9 25.83" fill="#0a226b"/><path d="m128.2 378.6 3.4-84.16 66.6 54.2z" fill="#091f64"/><path d="m198.2 348.64 27.9-114.53-94.5 60.33z" fill="#061853"/><path d="m198.2 348.64 27.9-114.53 66.23 11.05-94.14 103.48" fill="#030f42"/><path d="m70.22 441.25 10.06-88.48 47.9 25.83-57.97 62.65" fill="#0b2572"/><path d="m94.2 702.1-26.1-164.2-27.38 22.47z" fill="#173da9"/><path d="m135.38 784.3-41.18-82.2 44.12 6.2-2.95 76" fill="#1a45b2"/><path d="m94.2 702.1 44.12 6.2-30.9-72.32-13.23 66.1" fill="#1741aa"/><path d="m94.2 702.1-26.1-164.2 39.33 98.07-13.23 66.1" fill="#10308b"/><path d="m135.38 784.3 46.37 8.95-43.42-84.96-2.95 76" fill="#123390"/><path d="m135.38 784.3 90.2 84.48-43.82-75.53-46.37-8.95" fill="#133493"/><path d="m225.57 868.8 32.63-31.46-76.45-44.07z" fill="#1a45b2"/><path d="m225.57 868.8 111.14 29.14-78.5-60.6-32.63 31.46" fill="#163aa2"/><path d="m336.7 897.93 57.62 27 78.76-14.7z" fill="#1a45b2"/><path d="m336.7 897.93 37.67-79.08 98.7 91.38-136.38-12.3" fill="#123392"/><path d="m68.1 537.9 64.37-.1-62.26-96.57-2.1 96.66" fill="#102f87"/><path d="m70.22 441.25 62.26 96.57-4.3-159.22-57.97 62.65" fill="#081f63"/><path d="m68.1 537.9 39.33 98.07 25.04-98.16-64.37.1" fill="#163ba4"/><path d="m107.44 635.98 25.04-98.16 31.13 77.56z" fill="#11318c"/><path d="m138.33 708.3 25.28-92.92-56.17 20.6 30.9 72.32" fill="#123390"/><path d="m138.33 708.3 119.37 74.17-94.1-167.1-25.28 92.92" fill="#123392"/><path d="m181.75 793.26 75.95-10.8-119.37-74.17 43.42 84.96" fill="#163aa2"/><path d="m258.2 837.33-.5-54.86-75.95 10.8 76.45 44.07" fill="#1741aa"/><path d="m258.2 837.33-.5-54.86 116.68 36.38-116.18 18.48 78.5 60.6 37.67-79.08-116.18 18.48" fill="#123392"/><path d="m473.1 910.23 9.9-90.14-108.62-1.24 98.7 91.38" fill="#0e2b80"/><path d="m473.1 910.23 9.9-90.14 105.95 58.93-115.86 31.2" fill="#143698"/><path d="m588.95 879.02-4.12-101.33-101.83 42.41 105.95 58.93" fill="#0d2878"/><path d="m588.95 879.02-4.12-101.33 106.85 53.18z" fill="#123392"/><path d="m584.83 777.7 66.1-60.04 40.74 113.22-106.85-53.18" fill="#081f63"/><path d="m691.68 830.87 49.98-151.77-90.72 38.55z" fill="#061a57"/><path d="m794.68 762.24-103 68.63 49.98-151.77z" fill="#0f2f82"/><path d="m794.68 762.24 50.3-67.92-103.33-15.22 53.02 83.14" fill="#092167"/><path d="m845 694.32-103.34-15.22 110.5-66.35-7.18 81.57" fill="#05164f"/><path d="m882.86 524.9-71.9-51.33 41.22 139.18 30.7-87.85" fill="#051753"/><path d="m882.86 524.9-28.56-109.9-43.35 58.56 71.9 51.33m-141.2 154.2 110.5-66.35-107.1-47.8-3.4 114.16" fill="#031043"/><path d="m741.66 679.1-100.16-101.5 9.44 140.04 90.72-38.55" fill="#030f41"/><path d="m584.83 777.7-76.9-68.28 143 8.24z" fill="#092167"/><path d="m584.83 777.7-101.83 42.4 24.93-110.68z" fill="#0f2f82"/><path d="m374.38 818.85 108.62 1.25-134.25-88.04 25.63 86.8" fill="#123390"/><path d="m374.38 818.85-25.63-86.8-91.05 50.42z" fill="#0f2d84"/><path d="m257.7 782.47 17.03-88.15 74.02 37.73z" fill="#0e2b7e"/><path d="m274.73 694.32-111.13-78.94 94.1 167.1 17.03-88.15" fill="#0f2e86"/><path d="m483 820.1 24.93-110.68-159.18 22.64z" fill="#081f63"/><path d="m132.48 537.82 31.92-102.22-36.22-57z" fill="#0a236c"/><path d="m128.2 378.6 36.22 57 33.78-86.96z" fill="#081f63"/><path d="m198.2 348.64 140.14-40.96-46-62.52z" fill="#05164e"/><path d="m198.2 348.64 140.14-40.96-74.02 151.64z" fill="#030f41"/><path d="m741.66 679.1-100.16-101.5 103.56-12.67-3.4 114.16" fill="#05164f"/><path d="m852.17 612.75-41.22-139.18-65.9 91.37 107.1 47.8" fill="#030f42"/><path d="m650.94 717.65-114.54-111.05 105.1-29 9.44 140.04" fill="#030f41"/><path d="m507.93 709.4 143 8.24-114.53-111.04z" fill="#05164f"/><path d="m507.93 709.4-78.33-63.96 106.8-38.85-28.47 102.8" fill="#031042"/><path d="m810.95 473.57 43.35-58.57-69.32-52.7z" fill="#0f2e82"/><path d="m198.2 348.64 66.12 110.68-99.9-23.72z" fill="#061853"/><path d="m164.4 435.6 99.9 23.72-67.56 106.7z" fill="#081f63"/><path d="m338.33 307.68 55.34-112.83-101.34 50.3 46 62.52" fill="#081e5f"/><path d="m196.75 566.02-32.34-130.42-31.93 102.22" fill="#091f64"/><path d="m132.48 537.82 64.27 28.2-33.14 49.36z" fill="#11318c"/><path d="m196.75 566.02 77.98 128.3-111.12-78.94z" fill="#0e2b7e"/><path d="m274.73 694.32 10.42-155.23-88.4 26.93z" fill="#092167"/><path d="m274.73 694.32 154.87-48.87-144.45-106.36z" fill="#061a57"/><path d="m429.6 645.45-15.1-120-129.36 13.65z" fill="#05164f"/><path d="m536.4 606.6-106.8 38.85-15.1-120 121.9 81.16" fill="#041245"/><path d="m414.5 525.44 109.23-40.97 12.67 122.13z" fill="#030f42"/><path d="m348.75 732.05 159.18-22.64-78.33-63.96z" fill="#092167"/><path d="m348.75 732.05-74.02-37.73 154.87-48.87z" fill="#0c2674"/><path d="m338.33 307.68 94.86 10.06-39.52-122.9-55.34 112.83" fill="#0c2771"/><path d="m482.06 230.78-88.4-35.93 39.52 122.9 48.87-86.96" fill="#153a99"/><path d="m482.06 230.78 94.15 64.68-143.02 22.28z" fill="#163da0"/><path d="m433.2 317.74 140.3 74.6-49.74 92.13-90.55-166.73" fill="#11338b"/><path d="m573.48 392.34 2.73-96.88-143.02 22.28 140.3 74.6" fill="#163ca0"/><path d="m573.48 392.34 2.73-96.88 99.1 48.67-101.82 48.2" fill="#1a45b2"/><path d="m433.2 317.74 90.55 166.73-158.82-79.77z" fill="#0c266e"/><path d="m414.5 525.44 109.23-40.97-158.82-79.77 49.6 120.74" fill="#071b5c"/><path d="m523.74 484.47 140.08-25.65-90.34-66.48z" fill="#0f2f82"/><path d="m675.3 344.13-11.48 114.7-90.34-66.48 101.82-48.2" fill="#1741aa"/><path d="m675.3 344.13 66.12 90.04-77.6 24.65 11.48-114.7" fill="#153a99"/><path d="m784.98 362.3-109.68-18.17 66.12 90.04z" fill="#1945b1"/><path d="m741.42 434.17 69.53 39.4-25.97-111.27z" fill="#12338c"/><path d="m745.06 564.94 65.9-91.37-69.53-39.4 3.64 130.77" fill="#081e60"/><path d="m745.06 564.94-3.64-130.77-77.6 24.65z" fill="#081e5f"/><path d="m663.82 458.82-22.32 118.78 103.56-12.67" fill="#061a57"/><path d="m523.74 484.47 140.08-25.65-22.32 118.8-117.76-93.14" fill="#031042"/><path d="m536.4 606.6 105.1-29-117.76-93.14z" fill="#05164f"/><path d="m338.33 307.68 26.6 97.02 68.27-86.96-94.86-10.06" fill="#05174f"/><path d="m338.33 307.68-74.03 151.64 100.6-54.62-26.6-97.02" fill="#061853"/><path d="m364.92 404.7-79.77 134.4 129.36-13.65-49.6-120.74" fill="#030f41"/><path d="m285.15 539.1 79.77-134.4-100.6 54.62 20.84 79.77" fill="#041245"/><path d="m196.75 566.02 67.56-106.7 20.84 79.77z" fill="#061a58"/><path d="m922.8 571.94v-.2l-4-135.88-20.3-67.57v-.1l-.06-.14v-.05l-58.5-110.48-66.44-70.23-.12-.1-.1-.08-70.52-50.48h-.07l-.3-.16-61.6-24.26-73.48-26.26h-.54l-121.47-7.73-76.54 13.72-62.2 19.17-.14.06-.16.07h-.08l-111.04 65.34-69 77.27v.06l-.06.1-64.04 104.24v.06l-25 88.35v.3l-4.86 134.6 23.86 91.3a2 2 0 0 0 .08.19v.1l52.75 104.1 37.3 50.42 51.6 47.4 64.3 43.6h.08l79.35 34.56h.3l132.55 15.58 69.18 1.93a2 2 0 0 0 .39 0h.14l102.7-28.94 91.53-50.4.12-.1 59.03-50.53 45.6-54.56a2 2 0 0 0 .16-.24l.05-.1 64.5-126.68c0-.05 0-.1.07-.15v-.34l14.23-86.7s.76 0 .76-.06zm-722.34 300.06-13.3-12.23 29.92 23.5zm194.14 50.85-46.75-21.92 110.65 10zm17-399.13-122.74 13 75.7-127.5zm-42.8-114.82 150 75.32-103.18 38.67zm44 118.74 14.2 113.44-136.5-100.54zm12.48 117.1-148.33 46.8 10-148.67zm-8.28-115.22 115 76.55-100.73 36.65zm1.83-3.6 103.17-38.67 12 115.33zm158.53-133.22 95.64-45.25-10.82 107.68zm81.55 65-131.43 24.04 46.66-86.44zm-135.17 22.56-85.62-157.64 132.64 70.53zm-4.8-.45-150.94-75.81 64.88-82.64zm-233.07 54.19-19.23-73.62 92.86-50.4zm-12.7 153.88-73.36-120.7 83.2-25.33zm149.8-38.23-74.63 79.94-68.34-34.83zm110.5-39.84-26.62 96.12-73.23-59.8zm-7.25-120.81 110.94 87.75-99 27.3zm2.23-3.34 132.87-24.34-21.17 112.68zm137.65-29.66 10.66-106.48 61.38 83.6zm73.38-19.1 3.4 121.94-75.75-99zm-163.92-47.75 2.55-90.5 92.58 45.46zm-4-.08-132.13-70.27 134.7-21zm-205.76 11.27-24.8-90.34 88.35 9.37zm-3.23 3.36-93.73 50.88 69-141.26zm-79.84 134-81.4 24.8 62.2-98.26zm-14.73 149.38-101.63-72.2 30.32-45.15zm8.2 10.23 68.3 34.8-84 46.52zm153.6-49.13 73.35 59.9-149.05 21.2zm107.65-37.8 108.26 105-135.17-7.8zm2.87-2.78 99.36-27.4 8.93 132.4zm124.68-144 76.4 99.8-97.4 11.9zm78.56-25.94 64.44 36.54-61.1 84.8zm.68-4.2 39.95-65.9 23.82 102zm-2.94-2.87-61.48-83.67 101.9 16.9zm-161.57-135.59 72.16-65.5 20.7 111.07zm-142.73 20.13 45.78-81.46 88.2 60.6zm-95.62-9.13 51.9-105.8 37.07 115.25zm-77.25 149.12-62.9-105.28 133.3-39zm-66.56 105.88-30.43-122.7 94 22.3zm-33.5 50.13-27.9-69.5 57.6 25.27zm108.46 84.08-15.75 81.54-87-154.56zm75 39.8 23.87 80.82-108.64-33.83zm157.82-23.2-23.66 105-127.4-83.52zm140.72 7.57-61.25 55.62-71.25-63.26zm-2.2-136.53 94.3 95.55-85.42 36.3zm1.93-3.75 97.2-11.9-3.2 107.15zm164.4-101.1 38.8 131.16-100.9-45zm-22-110.8 63.33 48.15-39.6 53.5zm-109-24.5 58.8-67.52 43.43 84.46zm-2.65-3-20.6-110.37 79.3 42.9zm-100.55-46.78-87.8-60.32 159.6-4.86zm-142.3 19.85-36.8-114.45 82.32 33.47zm-95.7-8.93-42.63-57.95 93.92-46.63zm-3 2.72-130.54 38.17 87.72-96.42zm-74.84 149.72-93.05-22.1 31.46-81zm-66.33 106.27-58.9-25.85 29.27-93.7zm-32.83 51.65-50.67 18.58 22.6-88.55zm91.14 162.44-111.5-69.27 23.6-86.78zm113.5 41.56-105.46 16.8-.46-49.8zm-13.42-81.5 124 81.3-100.3-1.14zm156.93-23.55 72 63.9-95.35 39.68zm140.93 8 38 105.7-99.74-49.67zm3.4-2.4 84.9-36.1-46.78 142.05zm93.52-150.75 100.88 45-104.1 62.5zm67.55-89.4 66 47.08-28.15 80.6zm-.75-5.45 39.64-53.56 26.13 100.5zm-26.5-111.58 18.4-57.23 43.85 104.57zm-2.77-4.47-41.94-81.57 60.4 24.2zm-124.3-130 87.83-5.75-11.06 47.32zm-173.9 1.53 61.84-76.9 99.1 72zm-3.65-1.84-31.84-83.62 93 7.52zm-4.13.4-81.35-33.09 49.86-49.6zm-182.73 14 34.98-101.19 59.37 54.32zm-93.82 100.31 25.6-105.1 60.78 10.14zm-38 89.7-32.84-51.68 63.46-27.15zm-1.75 4.7-28.07 89.85-3.77-140zm-32.35 103.92-22.9 89.73-35.93-89.65zm-59.74-3.9 1.92-88.1 56.73 88zm90.5 82.68-22.75 83.63-27.8-65.1zm91.34 162.67-69.1 9.8-39.5-77.28zm3.75 3.5.45 49.07-68.4-39.42zm115.22 36.65-35 73.4-72.88-56.25zm4.08.74 92.4 85.55-127.7-11.53zm4.53-1.26 101.22 1.15-9.23 84zm203.4-40.27 3.86 94.9-99.23-55.2zm4 .35 100.12 49.83-96.26 45.12zm155.27-97.26 49.7 77.93-96.55 64.35zm3.46-2 95.7 14.1-46.6 62.9zm1.78-3.78 102.35-61.44-6.66 75.5zm135.18-146.44 18.07 63.4-45.36 14.7zm-24-107.82 51.84 65.46-26.63 31.5zm-48.57-119.23 67.32 49.44-23.15 55.9zm-69.4-34 10.87-46.45 48.5 70.2zm-85.84-47-11.7-70.9 101.27 65zm-4.44-2.37-96.5-70.08 84.87-.53zm-196.32-81.64 63-38.77 27 46zm-60.5 52.65-58.34-53.37 107.9 4.05zm-102.6 50.81-60.6-10.1 94.95-89.27zm-94 102.2-62-50.46 88-56.16zm-2.63 3-64 27.4 3.12-77zm-64.07 182.63-57.55-89.27 53.58-57.9zm-24.93 105.44-10.92 54.6-21.55-135.6zm2.77 6.53 27 63.13-38.5-5.4zm70 147.82-40.66-7.84 2.52-66.68zm76.8 47.22-28.94 27.84-38.78-66.85zm3.45 2.23 69.32 53.53-98.18-25.74zm226.28-16.67 99 55.07-108.26 29.17zm204.76 10.84-5.43 69.26-89.3-24.85zm99.35-65.56-55 96.54-38.82-34zm54.22-68.25.3 50.55-44 8.42zm11-86.1 44.73-14.5-51 86zm31-88.87 25.4-30-8.28 90zm-28.4-110.66 22.8-55.06 29.54 121.15zm-48.5-116.7 16-28 48.27 75.26zm-2.78-3.2-47.38-68.58 63.4 40.53zm-159-145 48-5.12 48.52 67.1zm-97.32-2.8-26.42-45 108 44.5zm-100.4-8.85-21.27-37.36 83.33-.83zm-4.23.65-105-3.94 83.63-33.53zm-212.17 86.82 37.6-81.62 54.5-5zm-6.75 5.1-34.36-33.1 72.5-49.74zm-2.58 3.07-85.42 54.53 50.94-87.75zm-96.56 141.53-42.87-23.1 45.92-52.2zm-1.32 3.8-52.09 56.28 9-79.47zm-58.86 157.83-22 18.05 23.7-95.77zm.55 4.72 22.48 141.33-46-122zm69.58 168.33-2.58 66.43-36-71.85zm44.2 85 36.54 63-75.2-70.4zm154.17 104.4-1.6 36.5-95.92-62.06zm3.94 1.56 49.78 23.34-51.35 12.64zm132.6 11.6 1.55 51.18-72.35-38zm114.33-30.56-29.34 69.3-77.6-40.47zm4.6-.6 89.24 24.83-118.53 44.34zm103.26-46.4 37.8 33.14-43 33.46zm102.64-71 43.6-8.35-95.6 99.58zm51.33-19.32-.3-49.27 40.17-24.6zm3.54-56.3 48.8-82.25-9 57.84zm62.24-177.62 5.7 60.47-12.9 17.87zm-29.64-151.5 11.15 10.5 11.15 81zm-56.53-92.4 10.5-5.28 30.34 68.94zm-73.42-48.26 18.42-26.44 45.1 67zm-2.86-2.9-48-66.4 66.47 39.92zm-108.2-69.5-.3-28.87 46.26 24zm-4-.78-105.72-43.56 105.4 13.92zm-209.13-48.65 16.83-14.48 55.84 13.71zm-91.92 34.57 32.73-35.34 45.26 4.08zm-8.4 3.25-49.56 4.53 81.37-38.9zm-136.34 57.1 5.48-12.3 45.48-22.67zm-59.67 96.41-3.3-32.17 49.47-47.36zm-3.44 5.66-41 46.64 37.8-78zm-61.16 145.79-26.2 4.9 34.6-78.77zm-.87 4.23-25.05 101.22-1.6-96.25zm22.15 252-29.78-24.58-14.26-92.12zm41.75 85.14-19-6.28-12.73-57.14zm81.3 78.6-63.2-34.5-10.14-34.2zm11.52 10.85 27.36 35-83.6-65.73zm10.23 6.6 87 56.28-56.92-17.84zm159.6 50.13 67.6 35.47-117.5-23.24zm81.13-13.48 75.68 39.4-74.13 11.8zm200.87-1.84-30.72 26.58-69.13 10.76zm56.78-39.84 2.56 16.58-39.7 12.3zm103-106.65-40.81 72.71-52 24zm11.4-12.13 27.36-50.66-29.22 69.5zm57.84-156.16 10.33-14.3-16.6 54.74zm9.9-108v-.1l-.15-1.06 1-13.56 1 35.1zm-2.75-20-10.25-75 12.8 42.58zm-30.7-117-18.86-42.86 26.4 49.94zm-56.86-88.5-37.66-56 48 50.78zm-125.82-121.06 2.52-1.82 29 20.73zm-3.8-2.2-19.57-10.14 21.76 8.56zm-165.27-42.78 36.7-7.56 55.2 19.7zm-12-1.62-50-12.3 83.76 5.35zm-94.64.92-39-3.5 54.52-9.87zm-137.5 34.9 22.34-16.76 35.94-11.08zm-18.3 8.75-19.34 9.64 29.73-17.45zm-81.13 55.77-22.94 22 26.23-29.34zm-107.43 155.02-10.16 3.8 39.62-64.53zm-13.3 9.2 11-4.1-27.8 63.36zm-27.36 164.4.58 35.27-2 6.4zm1.9 44.28 10 64.83-13.78-52.91zm52.36 134.12 12.9 57.86-41.14-81.17zm41.35 82.7 8.95 30.1-26.64-36zm199.85 155.3 3.73 6-39.1-17.05zm10 8.5-4.6-7.34 85.06 16.8zm208.4 7.2-9 10.15-46.7-1.3zm6.2-1 55.66-8.67-63.93 18.06zm128.6-48.2 32.64-10.12-57.56 31.68zm52.28-21.7-2.56-16.6 47.7-22zm103.32-124.14-2.23 22.32-31.37 37.53zm51.6-95.16 8.06-3.9-36.9 72.42zm10.73-9.63-9 4.37 18.2-60z" fill="#58c1ff" fill-opacity=".3"/><path d="m80 726.72c51.48 39.42 209.8 68.08 396.9 68.08s345.08-28.62 397-67.94" fill="none" stroke="#f9f9fa" stroke-linecap="round" stroke-miterlimit="10" stroke-width="6"/><path d="m770.28 91.82c-23.95 27.88-35.1 90.64-10.82 154.26s61.5 49.8 84.7 114.67c30.62 85.6 16.37 200.6 16.37 200.6s36.82 106.6 62.47-6.64c56.8-212.71-152.72-410.51-152.72-462.89z" fill="url(#c)"/><use fill="url(#d)" xlink:href="#a"/><use fill="url(#e)" xlink:href="#a"/><path d="m711.1 867c162.87-18.86 235-186.7 142.38-190-83.63-2.7-219.48 198.87-142.38 190z" fill="url(#f)"/><path d="m865.2 642.68c112.06-65.21 82.8-206.08 82.8-206.08s-43.25 50.24-72.62 130.32c-28.98 79.3-77.54 115.15-10.17 75.76z" fill="url(#g)"/><path d="m509.47 950.32c156.23 49.85 290.53-73.22 207.73-114.32-75.2-37.07-281.9 90.75-207.74 114.32z" fill="url(#h)"/><path d="m638.58 21.68.53-.57a1.78 1.78 0 0 0 -.53.57zm238.27 680.8c3.8-5.36 8.94-22.53 13.48-30.2 27.58-44.52 27.78-80 27.78-80.84 16.66-83.22 15.15-117.2 4.9-180-8.25-50.6-44.32-123.1-75.57-158-32.2-36-9.5-24.25-40.7-50.52-27.33-30.3-53.82-60.3-68.25-72.36-104.28-87.2-101.93-105.72-99.92-108.88l-1.47 1.64c-1.23-4.92-2.1-9.06-2.1-9.06s-57 57-69 152c-7.83 62 15.38 126.68 49 168a381.37 381.37 0 0 0 59 58c25.4 36.48 39.38 81.5 39.38 129.9 0 121.24-98.34 219.53-219.65 219.53a220.45 220.45 0 0 1 -49.13-5.52c-57.24-10.9-90.3-39.78-106.77-59.38-9.45-11.23-13.46-19.42-13.46-19.42 51.28 18.37 108 14.53 142.47-4.52 34.75-19.26 55.77-33.55 72.84-27.92 16.82 5.6 30.2-10.67 18.2-27.54-11.77-16.85-42.4-41-87.88-34.3-34.8 5.07-66.66 29.76-112.24 5.84a96.31 96.31 0 0 1 -8.55-5c-3-1.77 9.77 2.7 6.8.68-8.87-4.32-24.57-13.73-28.64-17.07-.68-.56 6.88 2.16 6.2 1.6-42.62-31.45-37.3-52.7-36-66 1.07-10.66 8.8-24.32 21.86-29.86 6.3 3.08 10.23 5.43 10.23 5.43l-4.14-7.5c.5-.2 1-.15 1.5-.34 5.16 2.23 16.58 8 22.6 11.57 7.83 4.95 10.32 9.36 10.32 9.36s2.06-1 .54-5.33c-.56-1.77-2.93-7.4-10.68-13.07h.48a90.85 90.85 0 0 1 13.13 8.17c2.2-7.12 6.12-14.56 5.25-27.86-.53-9.35-.28-11.78-2.12-15.4-1.65-3.1.92-4.3 3.78-1.1a30 30 0 0 0 -2.44-7.34v-.24c3.57-11.14 75.53-40.12 80.77-43.5a70.31 70.31 0 0 0 21.17-20.63c4-5.72 7-13.73 7.75-25.9.25-5.48-1.44-9.82-20.5-14-11.44-2.5-29.14-4.9-56.43-7.47-19.9-1.76-31.58-14.68-38.2-26.6-1.2-2.57-2.45-4.9-3.68-7.22a53.11 53.11 0 0 1 -2.83-8.36 158.47 158.47 0 0 1 61.28-76.06c1.6-1.3-6.4.33-4.8-1 1.87-1.52 14.06-5.93 16.37-6.92 2.8-1.2-12-6.84-25.16-5.47-13.36 1.35-16.2 2.78-23.32 5.5 3-2.64 12.37-6.1 10.16-6.08-14.4 2-32.3 9.48-47.6 18a9.68 9.68 0 0 1 .92-4.31c-7.13 2.7-24.64 13.67-29.73 23a39.49 39.49 0 0 0 .29-5.35 88.68 88.68 0 0 0 -14.6 13.7l-.27.22c-41.3-14.95-77.7-15.9-108.44-9.2-6.74-6.06-17.57-15.23-32.9-45.4-1-1.82-1.6 3.75-2.4 2-6-13.8-9.55-36.44-9-52 0 0-12.32 5.6-22.5 29.06-1.9 4.2-3.1 6.54-4.32 8.87-.56.68 1.27-7.7 1-7.24-1.77 3-6.36 7.2-8.37 12.62-1.38 4-3.32 6.27-4.56 11.3l-.3.46c-.1-1.48.37-6.08 0-5.14a236.1 236.1 0 0 0 -12.31 29.84c-5.5 18-11.88 42.6-12.9 74.57-.24 2.42 0 5.14-.25 7.32-13 14.75-21.87 27.3-25.2 33.8-16.84 25.96-35.36 66.46-53.32 130.48a319.14 319.14 0 0 1 28.54-50c-14.92 33.98-29.34 87.36-32.24 169.53a438.52 438.52 0 0 1 13.87-50.24c-2.58 54.8 3.8 122.74 38.45 199.4 20.57 45.1 67.92 136.65 183.62 208.1 0 0 39.36 29.3 107 51.26l15.23 5.33a93.43 93.43 0 0 1 -4.7-2.05 484.88 484.88 0 0 0 138.8 20.4c175.18.15 226.85-70.2 226.85-70.2l-.5.38q3.7-3.5 7.14-7.26c-27.66 26.11-90.76 27.83-114.31 25.96 40.22-11.8 66.7-21.8 118.17-41.52q9-3.36 18.48-7.64l2.05-.94 3.75-1.74a349.21 349.21 0 0 0 70.26-44c51.7-41.3 62.95-81.56 68.83-108.1-.82 2.54-3.37 8.47-5.17 12.32-13.3 28.48-42.84 46-74.9 60.95a689 689 0 0 0 42.38-62.46c10.47-10.35 13.7-26.6 21.55-37.5z" fill="url(#i)"/><path d="m813.92 801.24c21.08-23.24 40-49.82 54.35-80 36.9-77.58 94-206.58 49-341.3-35.5-106.46-84.27-164.69-146.17-221.56-100.54-92.38-128.62-133.6-128.62-158.12 0 0-116.1 129.4-65.74 264.38s153.46 130 221.68 270.87c80.27 165.74-64.95 346.6-185 397.24 7.35-1.63 267-60.38 280.6-208.88-.35 2.73-6.2 43.8-80.1 77.37z" fill="url(#j)"/><use fill="url(#k)" xlink:href="#b"/><use fill="url(#l)" xlink:href="#b"/><path d="m158.3 156.73c-1-1.82-1.6 3.75-2.4 2-6-13.8-9.58-36.2-8.72-52 0 0-12.32 5.6-22.5 29.06-1.9 4.2-3.1 6.54-4.32 8.86-.56.68 1.27-7.7 1-7.24-1.77 3-6.36 7.2-8.35 12.38-1.65 4.24-3.35 6.52-4.6 11.77-.4 1.43.4-6.32.05-5.38-23.74 45.76-28.26 115.05-25.76 112.12 50.48-53.9 108.3-66.68 108.3-66.68-6.15-4.53-19.53-17.63-32.7-44.9z" fill="url(#m)"/><path d="m349.84 720.36c-69.72-29.77-149-71.75-146-167.14 4.08-125.62 117.16-100.79 117.16-100.79-4.27 1-15.68 9.16-19.72 17.82-4.27 10.83-12.07 35.28 11.55 60.9 37.1 40.2-76.2 95.36 98.66 199.57 4.4 2.4-41-1.43-61.64-10.36z" fill="url(#n)"/><path d="m325.07 657.76c49.44 17.2 107 14.2 141.52-4.86 23.1-12.85 52.7-33.43 70.92-28.35-15.78-6.24-27.73-9.15-42.1-9.86-2.45 0-5.38-.05-8-.32a136.23 136.23 0 0 0 -15.76.86c-8.9.82-18.77 6.43-27.74 5.53-.48 0 8.7-3.77 8-3.6-4.75 1-9.92 1.2-15.37 1.88-3.47.4-6.45.82-9.9 1-103 8.73-190-55.8-190-55.8-7.4 25 33.17 74.3 88.52 93.57z" fill="url(#o)"/><path d="m813.74 801.9c104.16-102.27 156.86-226.58 134.58-366 0 0 8.9 71.5-24.85 144.63 16.2-71.4 18.1-160.1-25-252-57.47-122.63-152.02-187.16-188.12-214.08-54.7-40.8-77.35-82.32-77.78-90.9-16.34 33.48-65.77 148.2-5.3 247 56.64 92.56 145.86 120 208.33 204.95 115.08 156.42-21.85 326.4-21.85 326.4z" fill="url(#p)"/><path d="m798.8 535.8c-36.4-75.2-81.84-108-124.8-143.55 5 7 6.23 9.47 9 14 37.83 40.32 93.6 138.66 53.1 262.1-76.22 232.39-381.1 122.95-413.1 92.23 12.93 134.5 238 198.84 384.6 111.63 83.4-78.95 150.87-213.21 91.2-336.41z" fill="url(#q)"/><path d="m814.12 686.64.94-4.85 1-5.6c.6-4 1.38-8.47 1.87-13.43a237.94 237.94 0 0 0 1.48-35 223 223 0 0 0 -5.81-43.76 232 232 0 0 0 -17.42-48.75 336.9 336.9 0 0 0 -29.59-49.81c-5.8-8.24-12.3-16.18-19.1-24.06s-14.23-15.4-21.92-22.8-15.83-14.6-24.14-21.6l-25.36-21c-8.5-7-17-14.14-25.3-21.6s-16.23-15.28-23.73-23.5a246 246 0 0 1 -20.75-26l-2.3-3.42a55.55 55.55 0 0 1 -2.28-3.45l-4.37-7c-1.44-2.34-2.72-4.77-4.08-7.14l-2-3.57c-.66-1.2-1.24-2.43-1.86-3.64l-3.67-7.3-3.34-7.4c-2.3-4.88-4.12-9.94-6.13-14.88l-.74-1.86-.64-1.9-1.27-3.8-2.5-7.54-3-11.43c-.36-1.26-.53-2.55-.8-3.82a212.57 212.57 0 0 1 -3.8-59.83 261.12 261.12 0 0 1 10.19-53.46 310.66 310.66 0 0 1 17-44.06 372 372 0 0 1 18.17-33.81 366.16 366.16 0 0 1 24.69-36c2.56-3.27 5.1-6.43 7.66-9.35a1 1 0 0 1 1.31 0 1 1 0 0 1 .17 1.29c-2.42 2.8-5 6-7.55 9.3a375.79 375.79 0 0 0 -43 70.76 308.15 308.15 0 0 0 -16.54 43.94 256.43 256.43 0 0 0 -9.66 53 213.07 213.07 0 0 0 4.27 58.87l.38 1.88.5 1.86 3 11.2 3.74 11.12c.4 1.24 1 2.45 1.42 3.67l3.68 9.2.82 1.8 1.64 3.63 1.64 3.64c.55 1.2 1.08 2.44 1.7 3.62l3.63 7.16a248 248 0 0 0 37.41 53.14c7.43 8.06 15.32 15.72 23.5 23.07s16.66 14.36 25.13 21.33l25.32 20.84c8.32 7.02 16.44 14.16 24.23 21.5s15.15 15 22.1 22.84 13.43 15.88 19.3 24.16a340.26 340.26 0 0 1 30 50.05l.8 1.55.72 1.58 1.44 3.14 2.8 6.23 2.5 6.25 1.17 3.12c.4 1 .73 2.08 1.1 3.12l2.15 6.17c.37 1 .68 2 1 3.07l.9 3.07 1.77 6.06 1.48 6a227.37 227.37 0 0 1 6.11 44.51 242 242 0 0 1 -1.32 35.8c-1.06 10.17-2.7 18.44-3.92 24.66a283.86 283.86 0 0 1 -9.88 35.23 300.4 300.4 0 0 1 -12.74 30.91c-4.6 9.5-9.2 18.33-14 26.26l-1.73 3-5.23 8.4-6.77 10.15c-4.42 6.36-8.57 11.95-12.3 16.73l-5.27 6.6-4.57 5.37-1.95 2.26-1.76 1.93q-1.64 1.8-2.8 3c-1.52 1.6-2.37 2.37-2.47 2.28s.57-1.07 1.94-2.88l6.08-7.84a457.89 457.89 0 0 0 21.39-29.82l6.5-10.34c2.2-3.64 4.5-7.43 6.7-11.46 4.55-8 9-16.74 13.38-26.17l3.23-7.2 3.12-7.46c2-5.08 4-10.27 5.8-15.67a292.75 292.75 0 0 0 9.38-34.06z" fill="url(#r)"/><path d="m739.36 650 2-8.22c.68-3.42 1.74-7.4 2.5-12l1.3-7.26 1.4-10.1.22-2.16.44-4.45.43-4.6.28-4.75a261.51 261.51 0 0 0 -.93-41.93l-.27-2.8-1.12-8.4c-.23-1.88-.6-3.74-.92-5.63l-1-5.65-1.17-5.64-.6-2.82-.68-2.8-1.37-5.6-1.55-5.56a271.66 271.66 0 0 0 -15.87-42.08 267.35 267.35 0 0 0 -19.66-34.4c-3.27-4.92-6.6-9.3-9.6-13.26s-6-7.34-8.54-10.2l-2.3-2.56a1.61 1.61 0 0 1 -.3-.4l-.18-.3-.64-1.08-2.2-3.78c-1.32-2.18-2.34-3.7-2.92-4.6l-2.36-3.45a1 1 0 0 1 .3-1.27.93.93 0 0 1 1.3.14l2.43 3.46c.65 1 1.75 2.6 3.14 4.85l2.3 3.82.64 1a.5.5 0 0 0 .09.11l.22.24.46.5 1.92 2.1a221.73 221.73 0 0 1 18.55 23.67 269.51 269.51 0 0 1 20 34.53 273.9 273.9 0 0 1 16.22 42.33l1.6 5.6 2.13 8.46.62 2.84 1.22 5.67c.4 1.9.7 3.8 1 5.68l1 5.66.8 5.65.4 2.8.3 2.8a264.11 264.11 0 0 1 1.26 42.32 258.54 258.54 0 0 1 -3.87 33.84c-.78 4.68-1.78 8.68-2.48 12.21s-1.5 6.33-2.06 8.47l-1.66 6.3-1.86 6-1.8 5.72q-.95 2.77-1.9 5.38c-2.54 6.94-5.14 12.95-7.5 17.84-4.7 9.8-8.32 15.14-8.77 14.9s2.33-6.26 6.35-16.34c2-5 4.28-11.1 6.57-18l1.7-5.3 1.66-5.6 1.74-5.82z" fill="url(#s)"/><path d="m716.9 368.7-9.35-7.54-6.23-5.15-7.1-6.07a403.8 403.8 0 0 1 -34.4-33.24 293.34 293.34 0 0 1 -35.56-48l-4-7-4.53-9.03-.82-1.86-1.63-3.74-1.63-3.75-1.45-3.83-1.44-3.84-1.36-3.88-2.4-7.77-2.1-8-.94-4-.85-4a225 225 0 0 1 -4.1-32.31 249.48 249.48 0 0 1 .42-31.43 280.1 280.1 0 0 1 3.68-29.26c1.7-9.27 3.7-18 5.86-26.1a362 362 0 0 1 13.28-39.91c4.07-10.17 7.26-17 8.5-19.7l2.56-5.35a1 1 0 0 1 1.25-.35.94.94 0 0 1 .51 1.2l-2.5 5.34c-1.35 2.87-4.57 9.87-8.57 20.11a362.64 362.64 0 0 0 -12.95 39.91 298.35 298.35 0 0 0 -9.05 54.85 252.1 252.1 0 0 0 -.18 31 222 222 0 0 0 4.27 31.68l.86 3.94.43 2 .52 1.95 2.1 7.8 2.48 7.67c.38 1.3.88 2.53 1.36 3.8l1.43 3.75 1.45 3.74 1.62 3.66 1.6 3.65c.27.6.52 1.22.82 1.8l.9 1.77 3.58 7 3.9 6.8a290.41 290.41 0 0 0 35.21 47 402.74 402.74 0 0 0 34.17 32.77l7.1 6 6.26 5.13 9.47 7.62 26.8 21.2 20.9 17.2 7.67 6.72c2.2 2 4 3.78 5.55 5.22 3 2.9 4.5 4.56 4.33 4.76s-2.1-1.14-5.47-3.73l-14.13-11.07-21.46-16.5-26.65-20.64z" fill="url(#t)"/><path d="m925.73 401.72-1.73-6.54-2.42-8.28-1.5-4.73-1.7-5.1-4-11.24-2.17-6.14-5.12-13.1-2.8-7-6.29-14.59-8.2-17.38-1-2-2.06-4-4.2-8.06-2.22-4.05-2.34-4-4.68-8.24-7.65-12.36-1.3-2.08-1.38-2c-3.7-5.45-7.3-11.08-11.36-16.47l-6-8.2-6.3-8.15-3.2-4.05-3.32-4-6.7-8-6.95-7.8-3.5-3.88-3.6-3.8-7.2-7.6-7.37-7.42c-2.43-2.5-4.95-4.9-7.45-7.3l-7.5-7.2-15.1-14-29.12-27.3c-18.7-17.93-35.8-35.2-50-51s-25.56-30.2-32.86-42a104.88 104.88 0 0 1 -8-15.28 54.81 54.81 0 0 1 -3-9.2 36.26 36.26 0 0 1 -1-7.28 1 1 0 0 0 -1-.84.9.9 0 0 0 -.95.89 37.71 37.71 0 0 0 1 7.67 57.41 57.41 0 0 0 3.22 9.94 108.05 108.05 0 0 0 8.33 15.83 232.76 232.76 0 0 0 14 19.82c5.57 7.13 12 14.72 19.12 22.68 14.24 15.9 31.27 33.23 49.86 51.2l28.98 27.35 14.93 14 7.4 7.17 7.34 7.27 7.26 7.38 10.63 11.33 3.44 3.86 6.83 7.73 6.57 7.9 3.27 3.93 3.14 4 6.2 8 5.9 8.14c4 5.34 7.52 10.92 11.16 16.3 1.85 2.67 3.46 5.48 5.15 8.2l5 8.13 4.6 8.16 4.45 8 4.1 8 2 3.92c.68 1.3 1.34 2.6 1.93 3.9a543.11 543.11 0 0 1 23.28 55.87l3.92 11.37.9 2.58.8 2.5 1.5 4.72c.93 3 1.68 5.8 2.4 8.28s1.23 4.7 1.74 6.6l.73 2.83.65 2.83 1.3 5.58 2.16 10.9 1 5.3.8 5.2c.57 3.4.93 6.76 1.38 10 1.6 13 2.24 24.6 2.54 34.24.52 19.3-.2 30.75.45 30.8.25 0 .7-2.93 1.26-8.34s1-13.3 1.1-23.12a307.72 307.72 0 0 0 -9.47-77.16z" fill="url(#u)"/><path d="m577.3 723c1.42-.52 3-1.3 4.85-2.12l6.14-2.78 7.2-3.68 2-1 2-1.14 4.2-2.4c2.9-1.58 5.82-3.54 8.93-5.5s6.22-4.24 9.5-6.53c1.66-1.13 3.26-2.4 4.9-3.7l5-3.9 5-4.28c1.68-1.45 3.42-2.9 5-4.5l5-4.78c1.7-1.63 3.3-3.4 5-5.1l2.5-2.62c.84-.88 1.6-1.83 2.43-2.74l4.88-5.6a243.28 243.28 0 0 0 18-25.16 240 240 0 0 0 14.82-28.69 235.77 235.77 0 0 0 10.5-31.1 233.23 233.23 0 0 0 5.68-32.06c.4-5.35.94-10.64 1-15.9.23-5.25.1-10.45 0-15.57a237 237 0 0 0 -2.93-29.45c-.7-4.68-1.68-9.2-2.58-13.6l-1.55-6.44c-.48-2.12-1.14-4.16-1.7-6.2l-.85-3a78.27 78.27 0 0 0 -.93-2.93l-1.83-5.67-2-5.37-1-2.6-1-2.5-2-4.8-2-4.46c-.63-1.46-1.27-2.85-1.93-4.17l-1.93-3.83a210.19 210.19 0 0 0 -10.73-18.7l-3.3-5a1 1 0 0 1 .15-1.11l.43-.16h-.5l.45-.16a.92.92 0 0 1 1.06.28l3.36 5a211.37 211.37 0 0 1 11.2 19.34 218.3 218.3 0 0 1 15.71 39.84c1.24 4.07 2.22 8.36 3.3 12.75l1.4 6.74a65.57 65.57 0 0 1 .65 3.45l.6 3.5a247.21 247.21 0 0 1 3.05 29.66l.18 7.8v3.94l-.1 4c0 5.3-.55 10.65-.9 16a220.44 220.44 0 0 1 -16.08 63.8 221.78 221.78 0 0 1 -32.92 54.59l-4.9 5.7c-.82.93-1.6 1.9-2.44 2.8l-2.53 2.66-5 5.2-5.02 4.93c-.85.8-1.65 1.62-2.5 2.37l-2.57 2.24-5 4.37-5.07 4c-1.67 1.3-3.27 2.63-5 3.78l-4.88 3.48-2.37 1.68-2.35 1.57c-3.17 2-6.1 4-9.08 5.66l-4.27 2.46-2 1.17c-.67.37-1.36.7-2 1.05l-7.4 3.8-6.32 2.9c-1.9.9-3.55 1.67-5 2.2a205.76 205.76 0 0 1 -33.27 10.63l-7.5 1.63-10.52 1.7-3.24.36-6.06.64c-1.92.24-3.76.3-5.5.38l-4.87.22c-3 .18-5.62 0-7.73 0-4.22-.13-6.5-.34-6.5-.62s2.36-.57 6.64-.92c2.14-.18 4.76-.3 7.8-.7l4.87-.53 2.66-.28c.9-.1 1.84-.27 2.8-.4 3.8-.62 8-1.07 12.5-2l6.94-1.36 7.3-1.78a232 232 0 0 0 32.06-10.68z" fill="url(#v)"/><path d="m351.94 263 3.6-9.7c1.57-3.66 3.2-7.86 5.47-12.36a162.21 162.21 0 0 1 19.1-30.7 152.2 152.2 0 0 1 34.89-32.46c1.84-1.25 3.77-2.43 5.74-3.6l2.03-1.17.2-.1.32-.17h.1c.12 0 0 0-.06-.07h-.1l-.42-.1q-3.4-.72-6.93-1.23a125.42 125.42 0 0 0 -29.7-.78 112.59 112.59 0 0 0 -26.45 5.73 101.37 101.37 0 0 0 -13.72 6c-4.56 2.42-9.26 5.06-14 7.77s-9.53 5.6-14.28 8.68c-1.2.76-2.38 1.55-3.56 2.35l-3.52 2.45a74.86 74.86 0 0 0 -6.73 5.32l-1.48 1.46-.35.37-.4.47c-.1.15-.25.22-.3.42h-.17l-.1.05-.2.1-.7.37a3.52 3.52 0 0 1 -.64.26c-.27.07-.56.33-.86.12l-1.5-.56-2.1-.74c-2.8-1-5.65-1.88-8.52-2.77q-8.62-2.74-17.62-4.78l-.8-.18-.85-.2a190.2 190.2 0 0 0 -29.58-4.16 131.88 131.88 0 0 0 -30.22 2.23c-5 .87-10 2-15 3.22s-9.9 2.68-14.8 4.23a238.45 238.45 0 0 0 -28.55 11.23 209.52 209.52 0 0 0 -50.18 32.6 176.69 176.69 0 0 0 -19.89 20.65c-1.53 1.77-2.9 3.67-4.3 5.5s-2.7 3.75-4 5.63l-3.91 5.62c-1.28 1.87-2.6 3.7-3.75 5.6l-7 11.2-6.34 11.1c-1.07 1.8-2 3.64-3 5.46l-5.54 10.73-2.54 5.26c-3.43 6.9-6.32 13.63-9.14 20l-7.3 18.05-5.76 15.66c-1.76 4.76-3.1 9.1-4.27 12.9l-1.66 5.3-1.32 4.46-1.8 6.25c-1 3.42-1.84 6.8-2.62 10a1 1 0 0 1 -1.15.61.93.93 0 0 1 -.72-1.12c.76-3.15 1.62-6.58 2.6-10.08.43-1.6 1-3.84 1.88-6.64l1.36-4.63 1.7-5.44c.6-2 1.27-4 2-6.22l2.33-6.95 5.8-15.87 7.34-18.23 4.35-9.84c.73-1.7 1.52-3.38 2.35-5.08l2.48-5.17 2.5-5.32 5.6-10.75 1.45-2.75 1.55-2.73 6.37-11.14 7-11.26c.58-1 1.22-1.9 1.86-2.82l1.92-2.8 3.9-5.67 2-2.86 2.1-2.8 2.13-2.8c.72-.93 1.5-1.83 2.24-2.75a180.16 180.16 0 0 1 20.13-20.84 203.28 203.28 0 0 1 23.79-18.02 228.83 228.83 0 0 1 26.75-14.8 239.72 239.72 0 0 1 58.82-18.93c5.1-.9 10.2-1.62 15.34-2.05a98.69 98.69 0 0 1 3.86-.27l3.87-.14c2.58 0 5.14.08 7.7.13a193.27 193.27 0 0 1 30 4.12l.86.2.8.18q9.08 2 17.83 4.67l8.64 2.78 2.75.97c.1 0 .13.06.18.05a.86.86 0 0 1 .1-.14l.28-.34.4-.44c.54-.6 1.1-1.1 1.67-1.66a78 78 0 0 1 7-5.58c1.2-.86 2.38-1.7 3.6-2.5l3.6-2.4c4.8-3.15 9.64-6 14.4-8.8s9.43-5.4 14.1-7.9a104.25 104.25 0 0 1 14.19-6.25 116.2 116.2 0 0 1 27.36-6 129.17 129.17 0 0 1 30.39.7q3.62.5 7.13 1.23c.35.07 1.77.37 2.8.62s2.17.53 3.13.83l2.93.87 1.45.44.3.1.16.05h-.1l-.85.38-3.37 1.53-.84.38c-.28.13-.57.26-.77.37l-1.33.7-1.33.7-.98.52-.18.1-1.43.83c-1 .54-1.88 1.13-2.8 1.7s-1.84 1.16-2.73 1.76a148.24 148.24 0 0 0 -33.92 31.52 159.28 159.28 0 0 0 -18.71 30c-2.22 4.44-3.86 8.6-5.4 12.24s-2.62 6.94-3.6 9.7a230.59 230.59 0 0 0 -8.08 30 198.21 198.21 0 0 0 -3.69 28.12 128.13 128.13 0 0 0 .92 25.09l.47 2.85c.15.94.3 1.87.54 2.8.44 1.83.8 3.64 1.32 5.37s.92 3.45 1.46 5.1l1.55 4.83a275.33 275.33 0 0 0 11.74 28.73c3.1 6.56 4.88 10.07 4.63 10.22s-2.53-3.27-6.14-9.8a213.18 213.18 0 0 1 -13.21-29 163.9 163.9 0 0 1 -3.3-10.15c-.52-1.8-.95-3.65-1.44-5.52s-.73-3.87-1.1-5.87a131.26 131.26 0 0 1 -1.09-25.76 190.38 190.38 0 0 1 3.59-28.37 227.32 227.32 0 0 1 8.01-29.8z" fill="url(#w)"/><path d="m915.07 657.63 2.85-6.3 4-9.2 4.75-11.72 2.52-6.7 2.62-7.2c1.7-5 3.56-10.18 5.18-15.68.82-2.75 1.77-5.52 2.53-8.38l2.36-8.7c.85-2.92 1.46-5.92 2.17-8.93l1-4.53c.36-1.5.7-3 1-4.57l2.17-11.56.34-2.33.7-4.66c1-6.2 1.55-12.42 2.24-18.53.44-6.13 1-12.15 1.12-18 .46-11.7.34-22.7-.22-32.32a284.21 284.21 0 0 0 -4.08-36.28l-.65-3.34a1 1 0 0 1 .77-1 .92.92 0 0 1 1.14.63 85.67 85.67 0 0 1 .7 3.38 287.52 287.52 0 0 1 4.51 36.94l.4 7.5.24 8c0 5.44.12 11.14-.13 17-.1 5.88-.58 11.93-1 18.08-.64 6.13-1.12 12.4-2.08 18.62l-.96 7.02-.42 2.33-1.66 9.3c-.25 1.55-.6 3.08-.94 4.6l-1 4.56c-.7 3-1.28 6.05-2.1 9l-2.3 8.75c-.36 1.45-.8 2.86-1.2 4.26l-1.25 4.18-1.23 4.1-.6 2-.66 2-2.57 7.7a447 447 0 0 1 -16.62 41.7c-11.9 26.2-23.65 43.64-24.6 43s9.5-19.44 20.98-44.73zm-135.67 207.69c5-3 16.85-10 31.16-20.3l5.5-4 8.53-6.48 2.88-2.32 5.87-4.75 5.84-5c2-1.7 3.95-3.4 5.82-5.18l5.6-5.48c1.86-1.84 3.6-3.8 5.27-5.82a141.68 141.68 0 0 0 9.53-12.29 149 149 0 0 0 8-12.74 170.21 170.21 0 0 0 11.32-24.49 159.47 159.47 0 0 0 7.92-29.47l.4-2.8a1 1 0 0 1 1.07-.74.92.92 0 0 1 .87 1 77.04 77.04 0 0 1 -.38 2.88 161.52 161.52 0 0 1 -7.79 30.28 171.55 171.55 0 0 1 -11.21 24.91 150.63 150.63 0 0 1 -8 13 145.35 145.35 0 0 1 -9.54 12.57c-1.68 2.06-3.5 4-5.3 6s-3.68 3.85-5.63 5.64l-5.82 5.3-5.8 5.12-5.84 4.83-2.86 2.37-2.9 2.24-5.62 4.37c-1.85 1.4-3.7 2.72-5.48 4a404.48 404.48 0 0 1 -31.39 20.8c-20.72 12.4-37.24 18.66-37.67 17.6-.2-.47 3.73-2.72 10.2-6.37l25.46-14.68zm-261.3 116.5 6.73-.27 9.74-.6c7.4-.5 16.5-1.28 26.66-2.52l3.86-.46 12.1-1.75c2.77-.4 5.56-1 8.4-1.46s5.73-1 8.63-1.6l8.75-1.93 4.43-1c1.47-.35 2.93-.77 4.4-1.16l8.85-2.37c.74-.2 1.48-.38 2.2-.6l2.18-.7 4.36-1.4c2.9-1 5.82-1.82 8.68-2.85l8.5-3.14 4.2-1.56 4.1-1.67 8-3.3a272.24 272.24 0 0 0 28.13-14 119.14 119.14 0 0 0 19.1-13.55 50.12 50.12 0 0 0 8-8.69l.9-1.37a10.55 10.55 0 0 0 .72-1.36 1.05 1.05 0 0 1 1.22-.39c.55.15.7.64.56 1.2s-.5 1-.78 1.53-.63 1-1 1.5a52.77 52.77 0 0 1 -8.44 9.36 125 125 0 0 1 -19.42 14 281.5 281.5 0 0 1 -28.23 14.4l-12.1 5.1-4.2 1.6-8.45 3.2-8.7 2.94-6.57 2.2-2.22.63-8.87 2.47-4.42 1.2-4.43 1-8.77 2c-2.9.63-5.8 1.13-8.65 1.68s-5.65 1.13-8.42 1.55l-8.16 1.34-7.83 1.1c-10.2 1.33-19.35 2.18-26.82 2.76l-9.87.67-6.9.3c-28 1.17-48.35-1.16-48.24-2.3s21.05-.55 48.08-1.73z" fill="#fff" opacity=".25"/><path d="m155.86 160.77-1.92-3.17-2.33-4.54a76.32 76.32 0 0 1 -4.61-13.42 117.31 117.31 0 0 1 -3-19.64q-.2-2.84-.3-5.9v-2.1a.63.63 0 0 0 0-.06l-.1.1-.54.6-4.56 5.24a328.73 328.73 0 0 0 -12.83 16c-4.4 5.85-8.84 12.16-13 18.82-2.14 3.3-4.08 6.77-6.06 10.2l-2.78 5.28c-.48.87-.9 1.77-1.3 2.67l-1.25 2.7a150.47 150.47 0 0 0 -7.97 21.95c-2 7.28-3.66 14.35-4.93 20.92s-2.16 12.65-2.85 18c-1.33 10.6-1.78 18.1-1.9 20.5l-.16 3.35a1 1 0 0 1 -1 .83.93.93 0 0 1 -1-.89c0-1.06.07-2.2.12-3.4.12-2.63.5-10.3 1.76-21 .64-5.37 1.53-11.5 2.7-18.13s2.8-13.77 4.77-21.13a149.73 149.73 0 0 1 7.78-22.29l1.24-2.75.62-1.38.7-1.35 2.76-5.38c2-3.5 3.9-7 6-10.38 4.15-6.77 8.54-13.2 12.93-19.1s8.7-11.4 12.77-16.27l4.55-5.3.68-.77 1.06-1.17 2.1-2.32 2.07-2.23 1-1.1.25-.26.12-.12a1.1 1.1 0 0 1 0 .18v.8c-.06 2.15-.18 4.38-.16 6.33v4.3q.1 2.94.33 5.7a113.59 113.59 0 0 0 3 18.89 72.28 72.28 0 0 0 4.43 12.76c.34.85.8 1.57 1.15 2.28l1.05 2 1.9 3.13c3.67 5.9 7.5 11.2 11 15.9l9.3 12.2c5.3 6.8 8.45 10.86 8 11.24s-4.4-3.2-10.36-9.65c-3-3.23-6.43-7.2-10.1-11.82a170.55 170.55 0 0 1 -11.13-15.84z" fill="url(#x)"/><path d="m205.1 584.1-1.13-6.35-.6-4.3-.6-5a142.48 142.48 0 0 1 .09-25.65 151.87 151.87 0 0 1 6.16-31.3 99.67 99.67 0 0 1 6.59-16 81.86 81.86 0 0 1 22.32-26.87l3.43-2.6 3.5-2.38 1.75-1.16 1.8-1.07 3.56-2.1a81.38 81.38 0 0 1 28.77-8.82 120.8 120.8 0 0 1 22.47-.45c5.84.42 9.8 1.07 11.38 1.32 1.08.18 2.13.37 3.13.58a1 1 0 0 1 -.39 1.92c-.94-.18-2-.35-3.06-.52-1.7-.25-5.7-.85-11.5-1.2a118.58 118.58 0 0 0 -22.12.74 78.63 78.63 0 0 0 -27.64 8.93c-2.26 1.4-4.63 2.7-6.85 4.28-1.1.78-2.3 1.5-3.37 2.35l-3.29 2.55a78.82 78.82 0 0 0 -21.08 26 96.88 96.88 0 0 0 -6.17 15.5 148.83 148.83 0 0 0 -5.71 30.51 139.54 139.54 0 0 0 .09 24.89l.6 4.86c.2 1.52.36 2.93.6 4.2l1.14 6.28c1.3 6.35 2.86 12.2 4.4 17.4s3.1 9.75 4.52 13.5c2.73 7.52 4.67 11.87 4.17 12.15s-3.37-3.86-6.85-11.32a132.11 132.11 0 0 1 -5.42-13.49c-.86-2.62-1.78-5.38-2.53-8.3l-2.2-9.08z" fill="url(#y)"/></svg>