<svg xmlns="http://www.w3.org/2000/svg" xmlns:xlink="http://www.w3.org/1999/xlink" viewBox="0 0 953 1022"><style>.a{fill:#061a58}.b{fill:#2053cf}.c{fill:#2660eb}.d{fill:#306dff}.f{fill:#235adb}.g{fill:#1f51ca}.h{fill:#12348d}.i{fill:#0f2f82}.j{fill:#05154c}.k{fill:#163c9e}.l{fill:#051753}.m{fill:#061a57}.n{fill:#081f63}.o{fill:#123392}.p{fill:#0c2674}.q{fill:#081e5f}.r{fill:#092167}.s{fill:#163aa2}.t{fill:#0e2b7e}.e{fill:#1a45b2}.u{fill:#133493}.v{fill:#173fad}.w{fill:#133595}.x{fill:#163ba4}.y{fill:#2257d7}.z{fill:#0b2572}.aa{fill:#092064}.ab{fill:#030f41}.ac{fill:#0d2a78}.ad{fill:#11338b}.ae{fill:#153a99}.af{fill:#1741aa}.ag{fill:#031043}.ah{fill:#05164e}.ai{fill:#091f64}.aj{fill:#061853}.ak{fill:#030f42}.al{fill:#123390}.am{fill:#11318c}.an{fill:#05164f}.ao{fill:#031042}.ap{fill:#041245}.aq{stop-color:#002275}.ar{stop-color:#000f40}.as{stop-color:#0a84ff}.at{stop-color:#58c1ff}.au{stop-color:#00feff}.av{stop-color:#0083ff}.ax{stop-color:#002079}.aw{stop-opacity:0}.ba{stop-color:#0060df}.bb{stop-opacity:.88}.bc{stop-opacity:.57}.bd{stop-opacity:.08}.be{stop-color:#005fe7}</style><linearGradient id="x" x1="-14396" x2="-14132" y1="-8278.2" y2="-8278.2" gradientTransform="matrix(.76 .03 -.05 1.12 11295 10107)" gradientUnits="userSpaceOnUse"><stop class="av" offset="0"/><stop offset=".18" stop-color="#0096f6"/><stop offset=".51" stop-color="#00b3e6"/><stop offset=".79" stop-color="#00c6dd"/><stop offset="1" stop-color="#00ccda"/></linearGradient><linearGradient id="o" x1="-541.27" x2="-732.7" y1="729.45" y2="103.22" gradientTransform="translate(1082)" gradientUnits="userSpaceOnUse"><stop class="ar" offset="0" stop-opacity=".6"/><stop class="ar" offset=".61" stop-opacity=".18"/><stop class="ar aw" offset="1"/></linearGradient><linearGradient id="j" x1="540.67" x2="349.23" y1="729.45" y2="103.22" gradientUnits="userSpaceOnUse"><stop offset="0" stop-color="#000f43" stop-opacity=".4"/><stop offset=".48" stop-color="#001962" stop-opacity=".17"/><stop class="ax aw" offset="1"/></linearGradient><linearGradient id="i" x1="-8529.9" x2="-8645.1" y1="-6473.8" y2="-6482.7" gradientTransform="matrix(1.22 .12 -.12 1.22 10541 9734.7)" gradientUnits="userSpaceOnUse"><stop class="aq" offset="0"/><stop class="be" offset="1"/></linearGradient><linearGradient id="h" x1="-8614.8" x2="-8506.9" y1="-6638.9" y2="-6751" gradientTransform="matrix(1.22 .12 -.12 1.22 10541 9734.7)" gradientUnits="userSpaceOnUse"><stop class="be" offset=".05"/><stop offset=".19" stop-color="#005ce1"/><stop offset=".38" stop-color="#0052cf"/><stop offset=".6" stop-color="#0043b2"/><stop offset=".84" stop-color="#002d8a"/><stop class="aq" offset=".95"/></linearGradient><linearGradient id="g" x1="-8815.1" x2="-8584.2" y1="-6371.2" y2="-6370.6" gradientTransform="matrix(1.22 .12 -.12 1.22 10541 9734.7)" gradientUnits="userSpaceOnUse"><stop class="ax" offset="0"/><stop class="ar" offset=".99"/></linearGradient><radialGradient id="c" cx="584.1" cy="385.43" r="751.57" fx="717.51" fy="263.18" gradientUnits="userSpaceOnUse"><stop class="at" offset=".16"/><stop offset=".24" stop-color="#4cb8ff"/><stop offset=".39" stop-color="#2ea0ff"/><stop class="as" offset=".54"/><stop class="ba" offset=".76"/><stop offset=".8" stop-color="#0067de"/><stop offset=".85" stop-color="#007bdd"/><stop offset=".91" stop-color="#009cda"/><stop offset=".98" stop-color="#00c8d7"/></radialGradient><linearGradient id="f" x1="-7661.4" x2="-7732.5" y1="-8137.1" y2="-7338.7" gradientTransform="matrix(1.23 0 0 1.22 10174 9899.5)" gradientUnits="userSpaceOnUse"><stop class="au" offset="0"/><stop offset=".3" stop-color="#04c9ff"/><stop offset=".61" stop-color="#0897ff"/><stop class="as" offset=".77"/><stop class="as" offset=".79" stop-opacity=".93"/><stop class="as" offset=".84" stop-opacity=".76"/><stop class="as" offset=".9" stop-opacity=".49"/><stop class="as" offset=".98" stop-opacity=".11"/><stop class="as aw" offset="1"/></linearGradient><linearGradient id="e" x1="-9088.3" x2="-8951.8" y1="-6806.3" y2="-6806.3" gradientTransform="matrix(1.22 .12 -.12 1.22 10541 9734.7)" gradientUnits="userSpaceOnUse"><stop offset="0" stop-color="#003eaa"/><stop offset=".3" stop-color="#0054c5" stop-opacity=".68"/><stop offset=".78" stop-color="#0076ef" stop-opacity=".19"/><stop class="av aw" offset="1"/></linearGradient><linearGradient id="d" x1="553.42" x2="358.4" y1="335.89" y2="332.89" gradientUnits="userSpaceOnUse"><stop class="au" offset="0" stop-opacity=".25"/><stop offset=".54" stop-color="#2ddfff" stop-opacity=".12"/><stop class="at aw" offset="1"/></linearGradient><linearGradient id="w" x1="229.82" x2="112" y1="-1143" y2="-1394.8" gradientTransform="matrix(.99 .1 -.1 .99 -179.5 1425.9)" gradientUnits="userSpaceOnUse"><stop class="aq" offset=".19" stop-opacity=".7"/><stop offset=".63" stop-color="#009dc2" stop-opacity=".36"/><stop class="au" offset=".94" stop-opacity=".1"/></linearGradient><linearGradient id="v" x1="-18.4" x2="75.71" y1="608.65" y2="715.54" gradientTransform="matrix(.99 .1 -.1 .99 299.6 -134.6)" gradientUnits="userSpaceOnUse"><stop class="aq" offset="0" stop-opacity=".8"/><stop offset=".07" stop-color="#002479" stop-opacity=".74"/><stop class="aw" offset=".95" stop-color="#003eaa"/></linearGradient><linearGradient id="u" x1="159.67" x2="159.71" y1="792.01" y2="738.58" gradientTransform="matrix(.99 .1 -.1 .99 299.6 -134.6)" gradientUnits="userSpaceOnUse"><stop class="aq" offset="0" stop-opacity=".6"/><stop class="aq" offset=".24" stop-opacity=".34"/><stop class="aq" offset=".49" stop-opacity=".15"/><stop class="aq" offset=".72" stop-opacity=".04"/><stop class="aq aw" offset=".93"/></linearGradient><linearGradient id="t" x1="569.33" x2="877.68" y1="-78.11" y2="611.4" gradientUnits="userSpaceOnUse"><stop class="au" offset="0"/><stop offset=".28" stop-color="#03dfff"/><stop offset=".9" stop-color="#0992ff"/><stop class="as" offset="1"/></linearGradient><linearGradient id="s" x1="680.88" x2="536.1" y1="429.47" y2="818.22" gradientUnits="userSpaceOnUse"><stop class="ba" offset="0"/><stop offset=".09" stop-color="#0067e5" stop-opacity=".81"/><stop offset=".21" stop-color="#006eec" stop-opacity=".59"/><stop offset=".33" stop-color="#0075f2" stop-opacity=".41"/><stop offset=".46" stop-color="#007af7" stop-opacity=".26"/><stop offset=".58" stop-color="#007efa" stop-opacity=".15"/><stop offset=".71" stop-color="#0081fd" stop-opacity=".06"/><stop offset=".85" stop-color="#0082fe" stop-opacity=".02"/><stop class="av aw" offset="1"/></linearGradient><linearGradient id="r" x1="639.98" x2="747.97" y1="-34.27" y2="876.19" gradientUnits="userSpaceOnUse"><stop offset="0" stop-color="#75feff"/><stop offset=".28" stop-color="#5adfff"/><stop offset=".9" stop-color="#1692ff"/><stop class="as" offset="1"/></linearGradient><linearGradient id="b" x1="735.57" x2="653.08" y1="407.59" y2="755.57" gradientUnits="userSpaceOnUse"><stop offset="0" stop-color="#9ee7ff"/><stop class="bb" offset=".14" stop-color="#8cdbff"/><stop class="bc" offset=".46" stop-color="#5ebdff"/><stop class="bd" offset=".92" stop-color="#168cff"/><stop class="as aw" offset="1"/></linearGradient><linearGradient id="q" x1="648.98" x2="724.55" y1="-16.58" y2="556.53" gradientUnits="userSpaceOnUse"><stop class="au" offset="0"/><stop class="bb" offset=".14" stop-color="#0bf7ff"/><stop class="bc" offset=".46" stop-color="#26e4ff"/><stop class="bd" offset=".92" stop-color="#51c6ff"/><stop class="at aw" offset="1"/></linearGradient><linearGradient id="a" x1="662.79" x2="1060.9" y1="17.94" y2="640.41" gradientUnits="userSpaceOnUse"><stop class="au" offset="0"/><stop class="bb" offset=".14" stop-color="#01efff"/><stop class="bc" offset=".46" stop-color="#04caff"/><stop class="bd" offset=".92" stop-color="#098eff"/><stop class="as aw" offset="1"/></linearGradient><linearGradient id="p" x1="754.47" x2="313.89" y1="464.46" y2="808.04" xlink:href="#b"/><linearGradient id="n" x1="358.66" x2="43.38" y1="231.92" y2="472.42" xlink:href="#a"/><linearGradient id="m" x1="145.71" x2="130.51" y1="126.8" y2="259.1" xlink:href="#a"/><linearGradient id="k" x1="292.56" x2="195.55" y1="423.18" y2="617.2" xlink:href="#a"/><path d="m916.77 436.39-20.31-67.59-58.09-109.92-66.44-70.23-70.55-50.5-61.25-24.11-73.49-26.21-121-7.73-76.3 13.81-62.26 19.2-110.47 64.83-69.05 77.23-63.66 103.69-25.04 88.24-4.68 133.87 23.87 91.28 52.66 103.92 37.14 50.2 51.36 47.21 64.14 43.51 79.1 34.5 132.36 15.58 69.12 1.93 102.29-28.89 91.43-50.32 58.83-50.32 45.61-54.57 64.49-126.59 14.24-86.59-4.05-135.43" class="a"/><path fill="#133691" d="m447.85 140.94-54.18 53.91 88.39 35.93-34.21-89.84"/><path fill="#1943ae" d="m482.06 230.78-34.21-89.84 99.97 8.07-65.76 81.77"/><path d="m482.06 230.78 171.14-5.2-105.38-76.57-65.76 81.77" class="b"/><path d="m653.2 225.58-105.38-76.57 92.67-0.57 12.71 77.14" class="c"/><path d="m653.2 225.58 97.45-6.38-110.16-70.76 12.71 77.14" class="d"/><path d="m750.65 219.2-110.16-70.76 54.76-5.85 55.4 76.61" class="f"/><path d="m750.65 219.2-55.4-76.61 76.68 46.06-21.28 30.55" class="c"/><path d="m824.01 266.11-73.36-46.91 21.28-30.55 52.08 77.46" class="b"/><path fill="#1c4abd" d="m750.65 219.2-12.27 52.48 67.1 26.89-54.83-79.37"/><path fill="#1a46b4" d="m750.65 219.2 73.36 46.91-18.53 32.46-54.83-79.37"/><path d="m653.2 225.58 97.45-6.38-12.27 52.48-85.18-46.1" class="c"/><path d="m653.2 225.58 85.18 46.1-63.08 72.45-22.1-118.55" class="f"/><path d="m653.2 225.58-76.99 69.88 99.09 48.67-22.1-118.55" class="g"/><path fill="#1f50c9" d="m482.06 230.78 171.14-5.2-76.99 69.88-94.15-64.68"/><path d="m675.3 344.13 63.08-72.45 46.6 90.62-109.68-18.17" class="b"/><path fill="#1b48b9" d="m738.38 271.68 46.6 90.62 20.5-63.73-67.1-26.89"/><path fill="#173fa5" d="m784.98 362.3 20.5-63.73 48.82 116.44-69.32-52.71"/><path d="m805.48 298.57 74.4 54.64-25.58 61.8-48.82-116.44" class="h"/><path fill="#143895" d="m805.48 298.57 74.4 54.64-55.87-87.1-18.53 32.46"/><path d="m824.01 266.11 14.36-7.23 41.51 94.33-55.87-87.1" class="i"/><path d="m879.88 353.21 16.58 15.59-58.09-109.92 41.51 94.33" class="j"/><path d="m824.01 266.11 14.36-7.23-66.44-70.23 52.08 77.46" class="k"/><path d="m913.04 489.2-16.58-120.4 20.31 67.59-4 52.81h0.27" class="l"/><path d="m879.88 353.21 33.16 135.99-16.58-120.4-16.58-15.59" class="m"/><path d="m854.3 415.01 58.74 74.19-33.16-135.99-25.58 61.8" class="j"/><path d="m912.77 489.2 4-52.81 4.05 135.43-7.78-82.62h-0.27" class="n"/><path d="m903.2 596.22 17.62-24.4-7.78-82.62-9.84 107.02" class="h"/><path d="m906.58 658.41-14.09 6.81 28.33-93.4-14.24 86.59" class="o"/><path d="m892.49 665.22 28.33-93.4-17.62 24.4-10.71 69" class="p"/><path d="m903.2 596.22 9.84-107.02-30.18 35.7 20.34 71.32" class="n"/><path d="m892.49 665.22 10.71-69-58.21 98.1 47.5-29.1" class="i"/><path d="m854.3 415.01 58.74 74.19-30.18 35.7-28.56-109.89" class="m"/><path d="m903.2 596.22-20.34-71.32-30.69 87.85 51.03-16.53" class="q"/><path d="m844.99 694.32 58.21-98.1-51.03 16.53-7.18 81.57" class="r"/><path d="m842.09 785 64.49-126.59-14.09 6.81-50.4 119.78" class="s"/><path d="m842.09 785 50.4-119.78-47.15 87.31-3.25 32.47" class="s"/><path d="m845.34 752.53 47.15-87.31-47.5 29.1 0.35 58.21" class="t"/><path d="m796.48 839.57 48.86-87.04-3.25 32.47-45.61 54.57" class="o"/><path d="m734.31 868.24 62.17-28.67-58.83 50.32-3.34-21.65" class="e"/><path d="m796.48 839.57 48.86-87.04-111.03 115.71 62.17-28.67" class="o"/><path d="m734.31 868.24 3.34 21.65-51.85 16.08 48.51-37.73" class="u"/><path d="m646.22 940.21 39.58-34.24 51.85-16.08-91.43 50.32" class="e"/><path d="m646.22 940.21 39.58-34.24-128.64 48.1 89.06-13.86" class="e"/><path d="m543.93 969.1 102.29-28.89-89.06 13.86-13.23 15.03" class="e"/><path d="m474.81 967.17 69.12 1.93 13.23-15.03-82.35 13.1" class="e"/><path d="m342.45 951.59-7.55-12.07 139.91 27.65-132.36-15.58" class="g"/><path d="m342.45 951.59-7.55-12.07-71.55-22.43 79.1 34.5m-143.24-78.01-51.36-47.21 115.5 90.72-64.14-43.51" class="v"/><path fill="#1b47b5" d="m147.85 826.37-37.14-50.2 24.67 8.14 12.47 42.06"/><path fill="#163aa3" d="m147.85 826.37 115.5 90.72-37.78-48.3-77.72-42.42"/><path d="m147.85 826.37 77.72 42.42-90.19-84.48 12.47 42.06" class="v"/><path d="m225.57 868.79 109.33 70.73-71.55-22.43-37.78-48.3" class="w"/><path d="m225.57 868.79 109.33 70.73 1.81-41.59-111.14-29.14" class="x"/><path d="m394.33 924.94-59.43 14.58 1.81-41.59 57.62 27.01" class="s"/><path d="m135.38 784.31-24.67-8.14-16.5-74.08 41.17 82.22" class="b"/><path d="m110.71 776.17-52.66-103.92 36.16 29.84 16.5 74.08" class="d"/><path d="m40.73 560.38 53.48 141.71-36.16-29.84" class="g"/><path d="m58.05 672.25-23.87-91.28 6.55-20.59 17.32 111.87" class="y"/><path fill="#11318d" d="m40.73 560.38-6.55 20.59 4.68-133.87 1.87 113.28"/><path d="m63.9 358.86 16.38-6.09-41.42 94.33 25.04-88.24" class="p"/><path fill="#102f88" d="m38.86 447.1 31.36-5.85 10.06-88.48-41.42 94.33"/><path d="m40.73 560.38-1.87-113.28 31.36-5.85-29.49 119.13" class="w"/><path fill="#12328e" d="m70.22 441.25-2.11 96.66-27.38 22.47 29.49-119.13"/><path d="m127.56 255.17-47.28 97.6-16.38 6.09 63.66-103.69" class="z"/><path fill="#020b2e" d="m127.56 255.17 60.39-57.81 8.66-19.42-69.05 77.23"/><path d="m196.61 177.94 71.85-35.81-80.51 55.23 8.66-19.42" class="aa"/><path d="m196.61 177.94 110.47-64.83-38.62 29.02-71.85 35.81" class="ab"/><path d="m268.46 142.13 100.88-48.22-62.26 19.2-38.62 29.02" class="q"/><path fill="#081f61" d="m369.34 93.91-39.44 42.6-61.44 5.62 100.88-48.22"/><path d="m329.9 136.51 93.97-37.68-54.53-4.92-39.44 42.6" class="ac"/><path d="m445.64 80.1-76.3 13.81 54.53 4.92 21.77-18.73" class="ad"/><path d="m517.8 97.89-93.93 0.94 21.77-18.73" class="ae"/><path d="m445.64 80.1 121 7.73-48.84 10.06-72.16-17.79" class="ac"/><path fill="#2053ce" d="m517.8 97.89 48.84-10.06 73.49 26.21-122.33-16.15"/><path fill="#1e4dc3" d="m695.25 142.59-55.12-28.55 61.25 24.11-6.13 4.44"/><path fill="#1e4fc7" d="m695.25 142.59 6.13-4.44 70.55 50.5-76.68-46.06"/><path d="m334.9 939.52 139.91 27.65-80.48-42.23-59.43 14.58" class="e"/><path d="m474.81 967.17-80.48-42.23 78.76-14.71 1.72 56.94" class="s"/><path d="m557.16 954.07-82.35 13.1-1.72-56.94 84.07 43.84" class="e"/><path d="m557.16 954.07-84.07-43.84 115.86-31.21-31.79 75.05" class="af"/><path d="m685.8 905.97-128.64 48.1 31.79-75.05" class="e"/><path d="m685.8 905.97 5.88-75.1-102.73 48.15 96.85 26.95" class="u"/><path d="m685.8 905.97 5.88-75.1 42.63 37.37-48.51 37.73" class="s"/><path d="m734.31 868.24-42.63-37.37 103-68.63-60.37 106" class="u"/><path d="m734.31 868.24 60.37-106 50.66-9.71-111.03 115.71" class="e"/><path d="m845.34 752.53-0.35-58.21-50.31 67.92 50.66-9.71" class="r"/><path fill="#2258d9" d="m640.13 114.04 0.36 34.4 54.76-5.85"/><path d="m640.49 148.44-0.36-34.4-122.33-16.15 122.69 50.55m-122.69-50.55 30.02 51.12 92.67-0.57-122.69-50.55" class="y"/><path fill="#1a46b3" d="m517.8 97.89 30.02 51.12-99.97-8.07 69.95-43.05"/><path fill="#163c9f" d="m423.87 98.83 23.98 42.11 69.95-43.05-93.93 0.94"/><path fill="#103186" d="m329.9 136.51 93.97-37.68 23.98 42.11-117.95-4.43"/><path d="m393.67 194.85-63.77-58.34 117.95 4.43-54.18 53.91" class="k"/><path d="m268.46 142.13-80.51 55.23 38.15 36.75 42.36-91.98" class="ag"/><path d="m329.9 136.51-103.8 97.6 42.36-91.98 61.44-5.62" class="ab"/><path d="m226.1 234.11 66.23 11.05 37.57-108.65-103.8 97.6" class="ah"/><path d="m292.33 245.16 37.57-108.65 63.77 58.34-101.34 50.31" class="aa"/><path d="m127.56 255.17 4.04 39.27 56.35-97.08-60.39 57.81" class="ab"/><path d="m80.28 352.77 47.28-97.6 4.04 39.27-51.32 58.33" class="ai"/><path fill="#041345" d="m131.6 294.44 56.35-97.08 38.15 36.75-94.5 60.33"/><path fill="#0a226b" d="m128.19 378.6 3.41-84.16-51.32 58.33 47.91 25.83"/><path d="m128.19 378.6 3.41-84.16 66.59 54.2-70 29.96" class="ai"/><path d="m198.19 348.64 27.91-114.53-94.5 60.33 66.59 54.2" class="aj"/><path d="m198.19 348.64 27.91-114.53 66.23 11.05-94.14 103.48" class="ak"/><path d="m70.22 441.25 10.06-88.48 47.91 25.83-57.97 62.65" class="z"/><path fill="#173da9" d="m94.21 702.09-26.1-164.18-27.38 22.47 53.48 141.71"/><path d="m135.38 784.31-41.17-82.22 44.12 6.21-2.95 76.01" class="e"/><path d="m94.21 702.09 44.12 6.21-30.89-72.32-13.23 66.11" class="af"/><path fill="#10308b" d="m94.21 702.09-26.1-164.18 39.33 98.07-13.23 66.11"/><path d="m135.38 784.31 46.37 8.95-43.42-84.96-2.95 76.01" class="al"/><path d="m135.38 784.31 90.19 84.48-43.82-75.53-46.37-8.95" class="u"/><path d="m225.57 868.79 32.63-31.46-76.45-44.07 43.82 75.53" class="e"/><path d="m225.57 868.79 111.14 29.14-78.51-60.6-32.63 31.46" class="s"/><path d="m336.71 897.93 57.62 27.01 78.76-14.71-136.38-12.3" class="e"/><path d="m336.71 897.93 37.67-79.08 98.71 91.38-136.38-12.3" class="o"/><path fill="#102f87" d="m68.11 537.91 64.37-0.09-62.26-96.57-2.11 96.66"/><path d="m70.22 441.25 62.26 96.57-4.29-159.22-57.97 62.65" class="n"/><path d="m68.11 537.91 39.33 98.07 25.04-98.16-64.37 0.09" class="x"/><path d="m107.44 635.98 25.04-98.16 31.13 77.56-56.17 20.6" class="am"/><path d="m138.33 708.3 25.28-92.92-56.17 20.6 30.89 72.32" class="al"/><path d="m138.33 708.3 119.37 74.17-94.09-167.09-25.28 92.92" class="o"/><path d="m181.75 793.26 75.95-10.79-119.37-74.17 43.42 84.96" class="s"/><path d="m258.2 837.33-0.5-54.86-75.95 10.79 76.45 44.07" class="af"/><path d="m258.2 837.33-0.5-54.86 116.68 36.38-116.18 18.48 78.51 60.6 37.67-79.08-116.18 18.48" class="o"/><path fill="#0e2b80" d="m473.09 910.23 9.91-90.14-108.62-1.24 98.71 91.38"/><path fill="#143698" d="m473.09 910.23 9.91-90.14 105.95 58.93-115.86 31.21"/><path fill="#0d2878" d="m588.95 879.02-4.12-101.33-101.83 42.4 105.95 58.93"/><path d="m588.95 879.02-4.12-101.33 106.85 53.18-102.73 48.15" class="o"/><path d="m584.83 777.69 66.11-60.04 40.74 113.22-106.85-53.18" class="n"/><path d="m691.68 830.87 49.98-151.77-90.72 38.55 40.74 113.22" class="m"/><path d="m794.68 762.24-103 68.63 49.98-151.77 53.02 83.14" class="i"/><path d="m794.68 762.24 50.31-67.92-103.33-15.22 53.02 83.14" class="r"/><path d="m844.99 694.32-103.33-15.22 110.51-66.35-7.18 81.57" class="an"/><path d="m882.86 524.9-71.91-51.33 41.22 139.18 30.69-87.85" class="l"/><path d="m882.86 524.9-28.56-109.89-43.35 58.56 71.91 51.33m-141.2 154.2 110.51-66.35-107.11-47.81-3.4 114.16" class="ag"/><path d="m741.66 679.1-100.16-101.49 9.44 140.04 90.72-38.55" class="ab"/><path d="m584.83 777.69-76.9-68.28 143.01 8.24-66.11 60.04" class="r"/><path d="m584.83 777.69-101.83 42.4 24.93-110.68 76.9 68.28" class="i"/><path d="m374.38 818.85 108.62 1.24-134.25-88.04 25.63 86.8" class="al"/><path fill="#0f2d84" d="m374.38 818.85-25.63-86.8-91.05 50.42 116.68 36.38"/><path d="m257.7 782.47 17.03-88.15 74.02 37.73-91.05 50.42" class="t"/><path fill="#0f2e86" d="m274.73 694.32-111.12-78.94 94.09 167.09 17.03-88.15"/><path d="m483 820.09 24.93-110.68-159.18 22.64 134.25 88.04" class="n"/><path fill="#0a236c" d="m132.48 537.82 31.93-102.22-36.22-57 4.29 159.22"/><path d="m128.19 378.6 36.22 57 33.78-86.96-70 29.96" class="n"/><path d="m198.19 348.64 140.14-40.96-46-62.52-94.14 103.48" class="ah"/><path d="m198.19 348.64 140.14-40.96-74.02 151.64-66.12-110.68" class="ab"/><path d="m741.66 679.1-100.16-101.49 103.56-12.67-3.4 114.16" class="an"/><path d="m852.17 612.75-41.22-139.18-65.89 91.37 107.11 47.81" class="ak"/><path d="m650.94 717.65-114.54-111.05 105.1-28.99 9.44 140.04" class="ab"/><path d="m507.93 709.41 143.01 8.24-114.54-111.05-28.47 102.81" class="an"/><path d="m507.93 709.41-78.33-63.96 106.8-38.85-28.47 102.81" class="ao"/><path fill="#0f2e82" d="m810.95 473.57 43.35-58.56-69.32-52.71 25.97 111.27"/><path d="m198.19 348.64 66.12 110.68-99.9-23.72 33.78-86.96" class="aj"/><path d="m164.41 435.6 99.9 23.72-67.56 106.7-32.34-130.42" class="n"/><path d="m338.33 307.68 55.34-112.83-101.34 50.31 46 62.52" class="q"/><path d="m196.75 566.02-32.34-130.42-31.93 102.22" class="ai"/><path d="m132.48 537.82 64.27 28.2-33.14 49.36-31.13-77.56" class="am"/><path d="m196.75 566.02 77.98 128.3-111.12-78.94 33.14-49.36" class="t"/><path d="m274.73 694.32 10.42-155.23-88.4 26.93 77.98 128.3" class="r"/><path d="m274.73 694.32 154.87-48.87-144.45-106.36-10.42 155.23" class="m"/><path d="m429.6 645.45-15.09-120.01-129.36 13.65 144.45 106.36" class="an"/><path d="m536.4 606.6-106.8 38.85-15.09-120.01 121.89 81.16" class="ap"/><path d="m414.51 525.44 109.23-40.97 12.66 122.13-121.89-81.16" class="ak"/><path d="m348.75 732.05 159.18-22.64-78.33-63.96-80.85 86.6" class="r"/><path d="m348.75 732.05-74.02-37.73 154.87-48.87-80.85 86.6" class="p"/><path fill="#0c2771" d="m338.33 307.68 94.86 10.06-39.52-122.89-55.34 112.83"/><path d="m482.06 230.78-88.39-35.93 39.52 122.89 48.87-86.96" class="ae"/><path fill="#163da0" d="m482.06 230.78 94.15 64.68-143.02 22.28 48.87-86.96"/><path d="m433.19 317.74 140.29 74.6-49.74 92.13-90.55-166.73" class="ad"/><path fill="#163ca0" d="m573.48 392.34 2.73-96.88-143.02 22.28 140.29 74.6"/><path d="m573.48 392.34 2.73-96.88 99.09 48.67-101.82 48.21" class="e"/><path fill="#0c266e" d="m433.19 317.74 90.55 166.73-158.82-79.77 68.27-86.96"/><path fill="#071b5c" d="m414.51 525.44 109.23-40.97-158.82-79.77 49.59 120.74"/><path d="m523.74 484.47 140.08-25.65-90.34-66.48-49.74 92.13" class="i"/><path d="m675.3 344.13-11.48 114.69-90.34-66.48 101.82-48.21" class="af"/><path d="m675.3 344.13 66.12 90.04-77.6 24.65 11.48-114.69" class="ae"/><path fill="#1945b1" d="m784.98 362.3-109.68-18.17 66.12 90.04 43.56-71.87"/><path fill="#12338c" d="m741.42 434.17 69.53 39.4-25.97-111.27-43.56 71.87"/><path fill="#081e60" d="m745.06 564.94 65.89-91.37-69.53-39.4 3.64 130.77"/><path d="m745.06 564.94-3.64-130.77-77.6 24.65 81.24 106.12" class="q"/><path d="m663.82 458.82-22.32 118.79 103.56-12.67" class="m"/><path d="m523.74 484.47 140.08-25.65-22.32 118.79-117.76-93.14" class="ao"/><path d="m536.4 606.6 105.1-28.99-117.76-93.14 12.66 122.13" class="an"/><path fill="#05174f" d="m338.33 307.68 26.59 97.02 68.27-86.96-94.86-10.06"/><path d="m338.33 307.68-74.02 151.64 100.61-54.62-26.59-97.02" class="aj"/><path d="m364.92 404.7-79.77 134.39 129.36-13.65-49.59-120.74" class="ab"/><path d="m285.15 539.09 79.77-134.39-100.61 54.62 20.84 79.77" class="ap"/><path d="m196.75 566.02 67.56-106.7 20.84 79.77-88.4 26.93" class="a"/><path fill="#58c1ff" fill-opacity=".3" d="M922.81,571.94s0-.09,0-.13,0,0,0-.06v0h0l-4-135.4s0,0,0-.06,0-.07,0-.1,0-.09,0-.14,0-.12,0-.18v0l-20.3-67.57v0h0l0,0,0-.11-.06-.14,0-.06L840.14,257.95l0-.05-.07-.11-.07-.1,0-.06-.06-.07,0-.05-66.44-70.23,0,0,0,0-.12-.1-.09-.08h0l-70.52-50.48,0,0-.07,0-.15-.08-.15-.08,0,0L640.91,112.2h-.12L567.31,85.94l-.07,0-.14,0-.13,0-.13,0h-.07l-121-7.72h-.48L369,91.94h-.11l0,0-.14,0-62.19,19.17h0l-.14.06-.16.07-.08,0h0L195.6,176.21l0,0-.09.06-.08.06-.08.06-.07.05-.08.08-.06.06,0,0h0l-69,77.21,0,0,0,.06,0,.06-.06.09,0,0,0,0h0L62.2,357.81l0,.06-.06.11-.05.12-.05.14,0,.06-25,88.24v0l0,.06v.05s0,.09,0,.14,0,.1,0,.15v0L32.18,580.9s0,.06,0,.09,0,.08,0,.12,0,.08,0,.12,0,.11,0,.16,0,.05,0,.08v.06h0l23.86,91.22h0v0l0,.07a2,2,0,0,0,.08.19h0l0,.1v0h0l52.65,103.89h0l0,.05.1.17,0,0,37.12,50.16h0l0,0,0,.06.11.11.08.09,51.36,47.22.13.1.1.09,64.14,43.51,0,0h0l.15.09.08,0,0,0,79.09,34.5.08,0,.18.06.09,0,.14,0,.08,0,132.37,15.58h.18l69.11,1.93h.07a2,2,0,0,0,.39,0l.08,0h.06l102.29-28.89.06,0,.09,0,.08,0,.06,0,.12-.05h0l0,0h0l91.38-50.29,0,0,0,0,.15-.11h0l.12-.09h0l58.82-50.32.06-.06.08-.07.07-.08,0,0,45.61-54.56h0l0,0a2,2,0,0,0,.16-.24l.05-.09v0h0l64.49-126.59,0-.09c0-.05,0-.1.07-.15l0-.07c0-.05,0-.11,0-.16s0-.07,0-.11l14.23-86.57h0v0s0,0,0-.05V572S922.81,572,922.81,571.94ZM200.46,872l-13.3-12.23,29.92,23.5Zm194.14,50.85-46.75-21.92,110.65,10Zm17-399.13-122.74,13,75.69-127.51ZM368.8,408.89l150,75.32L415.62,522.88Zm44,118.74L427,641.08,290.49,540.54Zm12.48,117.1-148.33,46.8,10-148.67ZM417,529.52l115,76.55L431.27,642.72Zm1.83-3.59L522,487.25l12,115.33ZM577.36,392.71,673,347.45,662.18,455.13Zm81.55,65L527.48,481.75l46.66-86.44ZM523.74,480.27,438.12,322.63l132.64,70.53Zm-4.8-.45L368,404l64.88-82.64ZM285.87,534l-19.23-73.62,92.86-50.41ZM273.16,687.88,199.8,567.18,283,541.85Zm149.79-38.23-74.63,79.94L280,694.76Zm110.5-39.84-26.62,96.12-73.23-59.8ZM526.22,489l110.94,87.75-99,27.31Zm2.23-3.34,132.87-24.34L640.15,574ZM666.11,456l10.66-106.48,61.38,83.59Zm73.38-19.11,3.4,121.94-75.75-99ZM575.57,389.14l2.55-90.51,92.58,45.46Zm-4-.08L439.43,318.79l134.71-21ZM365.8,400.34,341,310l88.35,9.37Zm-3.23,3.36-93.73,50.88,69-141.26Zm-79.84,134-81.4,24.8,62.21-98.26ZM268,687.08l-101.63-72.2,30.32-45.15Zm8.2,10.23,68.3,34.81-84,46.52Zm153.6-49.13,73.35,59.89-149.05,21.2Zm107.65-37.8,108.26,105-135.17-7.79Zm2.87-2.78,99.36-27.4,8.93,132.4ZM665,463.59l76.39,99.79L644,575.3Zm78.56-25.94L808,474.21,746.89,559Zm.68-4.21,39.95-65.91,23.82,102Zm-2.94-2.87L679.82,346.9l101.91,16.89ZM579.73,295l72.16-65.5L672.6,340.57ZM437,315.13l45.78-81.46,88.19,60.59ZM341.38,306l51.89-105.81,37.07,115.25ZM264.13,455.12l-62.9-105.28,133.31-39ZM197.57,561,167.14,438.31l94,22.31Zm-33.51,50.13-27.9-69.51,57.6,25.27Zm108.46,84.08-15.75,81.54-87-154.56Zm75,39.8,23.87,80.82L262.76,782ZM505.34,711.8l-23.66,105L354.28,733.28Zm140.72,7.57L584.82,775l-71.25-63.26Zm-2.21-136.53,94.31,95.55-85.42,36.31Zm1.93-3.75L743,567.21,739.8,674.36ZM810.19,478,849,609.16l-100.9-45Zm-22-110.79,63.33,48.15-39.6,53.5Zm-109-24.51,58.79-67.52,43.43,84.46Zm-2.65-3L655.93,229.33l79.29,42.91ZM576,292.92l-87.8-60.32,159.61-4.86ZM433.69,312.77,396.88,198.32l82.32,33.47ZM338,303.84l-42.63-57.95,93.92-46.63Zm-3,2.72L204.46,344.73l87.72-96.42ZM260.16,456.28l-93.05-22.09,31.46-81ZM193.83,562.55,134.92,536.7,164.19,443ZM161,614.21l-50.67,18.58,22.59-88.55Zm91.14,162.44L140.65,707.38l23.61-86.78Zm113.5,41.56L260.18,835l-.46-49.79Zm-13.42-81.5,124,81.3-100.3-1.14Zm156.93-23.55,72,63.91L485.8,816.75Zm140.93,8,38,105.71L588.34,777.2Zm3.39-2.39,84.91-36.09L691.6,824.73ZM747,568l100.88,45L743.77,675.5Zm67.55-89.41,66,47.08-28.15,80.59Zm-.75-5.45,39.64-53.56,26.13,100.5ZM787.31,361.56l18.41-57.23L849.57,408.9Zm-2.77-4.47L742.6,275.52,803,299.73Zm-124.3-130,87.83-5.75L737,268.67Zm-173.91,1.53,61.84-76.9,99.11,72Zm-3.65-1.84-31.84-83.62,93,7.52Zm-4.13.39-81.34-33.06,49.86-49.61Zm-182.73,14L330.8,140l59.37,54.32ZM202,341.5,227.6,236.39l60.78,10.14Zm-38,89.7-32.84-51.68,63.46-27.15Zm-1.75,4.7-28.07,89.85-3.77-140ZM129.9,539.82,107,629.55,71.07,539.9Zm-59.74-3.91,1.92-88.09,56.73,88Zm90.5,82.68-22.75,83.63L110.1,637.13ZM252,781.27l-69.09,9.81-39.49-77.28Zm3.75,3.51.45,49.07-68.4-39.42Zm115.22,36.65-35,73.41-72.88-56.25Zm4.08.74,92.41,85.55L339.75,896.19Zm4.53-1.26,101.22,1.15-9.23,84Zm203.4-40.27,3.86,94.9-99.23-55.19Zm4,.35,100.12,49.83-96.26,45.12Zm155.27-97.26,49.7,77.93L695.39,826Zm3.46-2,95.69,14.1-46.59,62.9Zm1.78-3.78,102.35-61.44L843.18,692ZM882.67,531.51l18.07,63.4-45.36,14.69Zm-24-107.82,51.84,65.46-26.63,31.5ZM810.11,304.45l67.32,49.44-23.15,55.91Zm-69.4-34L751.57,224l48.49,70.19Zm-85.84-47-11.69-70.91,101.27,65Zm-4.44-2.37L553.92,151l84.87-.53ZM454.11,139.44l63-38.77,27,46Zm-60.5,52.65-58.34-53.37,107.91,4.05ZM291,242.91,230.41,232.8l94.95-89.27ZM197,345.1l-62-50.46,88-56.16Zm-2.63,3-64,27.4,3.12-77ZM130.29,530.73,72.74,441.46l53.58-57.91ZM105.36,636.17l-10.92,54.6L72.89,555.18Zm2.77,6.53,27,63.13-38.51-5.41Zm70,147.82-40.66-7.84L140,716Zm76.8,47.22L226,865.58l-38.78-66.85Zm3.45,2.23L327.7,893.5l-98.18-25.74ZM484.66,823.3l99,55.07L475.4,907.54Zm204.76,10.84L684,903.39l-89.31-24.85Zm99.35-65.56-55,96.54-38.82-34ZM843,700.33l.31,50.55-44,8.42Zm11-86.09,44.73-14.49-51,86Zm31-88.87,25.39-30-8.28,90ZM856.6,414.69l22.8-55.06,29.54,121.15ZM808.1,298l16-28,48.27,75.26Zm-2.78-3.19-47.38-68.58,63.39,40.53Zm-159-145,48-5.12,48.52,67.09ZM549,147l-26.42-45,108,44.49Zm-100.39-8.85-21.27-37.36,83.33-.83Zm-4.23.65-105-3.94L423,101.33ZM232.21,225.62,269.79,144l54.51-5Zm-6.75,5.1L191.1,197.62l72.51-49.74Zm-2.58,3.07-85.42,54.53,50.94-87.75ZM126.32,375.32,83.45,352.21,129.37,300ZM125,379.13,72.9,435.41l9-79.47ZM66.13,536.95,44.12,555l23.71-95.77Zm.55,4.72L89.16,683l-46-122ZM136.26,710l-2.58,66.43-36-71.85Zm44.21,85L217,858,141.8,787.59Zm154.17,104.4-1.59,36.49-95.92-62.06Zm3.94,1.56,49.78,23.34L337,936.94Zm132.59,11.61,1.55,51.18-72.35-38ZM585.51,882,556.17,951.3l-77.6-40.47Zm4.6-.6,89.24,24.83L560.82,950.57ZM693.36,835l37.81,33.14-43,33.46ZM796,764l43.59-8.35L744,855.23Zm51.33-19.32-.3-49.27L887.2,670.8Zm3.54-56.31,48.81-82.25-9,57.84Zm62.24-177.62,5.69,60.47-12.9,17.87Zm-29.64-151.5,11.15,10.49,11.15,81Zm-56.53-92.39,10.49-5.28,30.34,68.94Zm-73.42-48.26,18.42-26.44,45.09,67Zm-2.86-2.89-48-66.4,66.47,39.92ZM642.46,146.22l-.3-28.87,46.26,24Zm-4-.78L532.74,101.88,638.15,115.8ZM429.33,96.77l16.83-14.48L502,96Zm-91.92,34.57L370.14,96l45.26,4.08ZM329,134.59l-49.56,4.53,81.37-38.89ZM192.66,191.7l5.48-12.3,45.48-22.67ZM133,288.11l-3.31-32.17,49.47-47.36Zm-3.44,5.66-41,46.64,37.8-78ZM68.4,439.55l-26.19,4.89,34.59-78.77Zm-.87,4.23L42.48,545l-1.59-96.25Zm22.15,252L59.91,671.19,45.65,579.07Zm41.75,85.14-19-6.28L99.69,717.51Zm81.29,78.59L149.53,825l-10.14-34.19Zm11.52,10.85,27.36,35L168,839.63Zm10.23,6.59,87,56.28-56.92-17.84Zm159.59,50.13,67.6,35.47L344.15,939.31Zm81.13-13.48L550.87,953l-74.13,11.79Zm200.87-1.84-30.72,26.58-69.13,10.76Zm56.78-39.84,2.56,16.58L695.7,900.8Zm103-106.65L795.05,838l-52,24Zm11.39-12.13,27.36-50.66L845.41,772ZM905.1,597l10.33-14.3-16.6,54.74ZM915,489h0v-.09s0,0,0,0l-.15-1.06,1-13.56,1,35.11Zm-2.75-20L902,394l12.8,42.58ZM881.55,352l-18.86-42.86,26.39,49.94Zm-56.86-88.51-37.66-56,48,50.78ZM698.87,142.44l2.52-1.82,29,20.73Zm-3.8-2.19L675.5,130.11l21.76,8.56ZM529.81,97.46,566.5,89.9l55.21,19.69Zm-12-1.62-50-12.31,83.76,5.35Zm-94.64.92-39-3.51,54.52-9.87Zm-137.5,34.91L308,114.91l35.94-11.08Zm-18.3,8.75-19.34,9.64,29.73-17.45Zm-81.13,55.77-22.94,22,26.23-29.34Zm-107.44,155L68.64,355l39.62-64.53Zm-13.29,9.2,11-4.09L48.72,419.66ZM38.14,524.81l.58,35.27-2,6.41Zm1.91,44.28,10,64.83L36.26,581ZM92.41,703.2l12.89,57.86L64.16,679.89Zm41.35,82.69L142.71,816l-26.64-36ZM333.59,941.21l3.73,6-39.1-17.05Zm10,8.51L339,942.38l85.06,16.81ZM552,956.92,543,967.07l-46.69-1.3Zm6.2-1,55.66-8.67-63.93,18.06Zm128.61-48.19,32.64-10.12-57.56,31.68ZM739.08,886l-2.56-16.61,47.7-22ZM842.4,761.86l-2.23,22.32-31.37,37.53ZM894,666.69l8.06-3.89-36.89,72.42Zm10.73-9.63-9,4.37,18.19-60Z"/><path fill="none" stroke="#f9f9fa" stroke-linecap="round" stroke-miterlimit="10" stroke-width="6" d="m80 726.72c51.48 39.42 209.8 68.08 396.9 68.08s345.08-28.62 397-67.94"/><path fill="url(#x)" d="M770.28,91.82c-23.95,27.88-35.1,90.64-10.82,154.26s61.5,49.8,84.7,114.67c30.62,85.6,16.37,200.59,16.37,200.59S897.35,667.94,923,554.7C979.79,342,770.28,144.2,770.28,91.82Z"/><path fill="url(#o)" d="M810.67,803.89a246.89,246.89,0,0,1-30.12,18.18,704,704,0,0,0,38.3-63c9.46-10.47,18.13-20.65,25.19-31.65,3.44-5.41,7.31-12.08,11.42-19.82,24.92-44.9,52.4-117.56,53.18-192.2v-.18c0-1.84,0-3.67,0-5.51A257.6,257.6,0,0,0,902.93,454c.2,1.43.38,2.86.56,4.29-.22-1.1-.41-2.21-.64-3.31.37,2,.66,4,1,6,5.09,43.22,1.47,85.37-16.68,116.45-.29.45-.58.88-.87,1.32,9.41-47.23,12.56-99.39,2.09-151.6,0,0-4.19-25.38-35.38-102.44-18-44.35-49.83-80.72-78-107.21-24.69-30.55-47.11-51-59.47-64.06-25.82-27.19-36.64-47.57-41.09-60.87-3.85-1.93-53.14-49.81-57.05-51.63-21.51,33.35-89.16,137.67-57,235.15,14.58,44.17,51.47,90,90.07,115.74,1.69,1.94,23,25,33.09,77.16,10.45,53.85,5,95.86-16.54,158-25.29,54.51-90.07,108.39-150.72,113.9-129.67,11.78-177.15-65.11-177.15-65.11,46.34,18.52,97.57,14.65,128.72-4.56,31.4-19.43,50.39-33.83,65.81-28.15,15.2,5.65,27.3-10.76,16.44-27.77a78.5,78.5,0,0,0-79.4-34.57c-31.43,5.11-60.23,30-101.41,5.89a85.53,85.53,0,0,1-7.73-5.06c-2.71-1.79,8.83,2.72,6.13.69-8-4.35-22.2-13.84-25.88-17.22-.61-.56,6.22,2.18,5.61,1.62-38.51-31.71-33.7-53.13-32.49-66.57,1-10.75,8-24.52,19.75-30.11,5.69,3.11,9.24,5.48,9.24,5.48s-2.43-5-3.74-7.58c.46-.2.9-.15,1.36-.34,4.66,2.25,15,8.1,20.41,11.67,7.07,5,9.33,9.44,9.33,9.44s1.86-1,.48-5.37c-.5-1.78-2.65-7.45-9.65-13.17l.44,0a81.2,81.2,0,0,1,11.87,8.24c2-7.18,5.53-14.68,4.75-28.09-.48-9.43-.26-11.87-1.92-15.51-1.49-3.13.83-4.35,3.42-1.1a32.83,32.83,0,0,0-2.21-7.4l0-.24c3.23-11.24,68.25-40.46,73-43.88a67.36,67.36,0,0,0,19.13-20.8c3.62-5.76,6.34-13.85,7-26.11.36-8.84-3.76-14.73-69.51-21.62-18-1.77-28.53-14.8-34.53-26.82-1.09-2.59-2.21-4.94-3.33-7.28a58,58,0,0,1-2.56-8.43c10.75-30.87,28.81-57,55.37-76.7,1.45-1.32-5.78.34-4.34-1,1.69-1.54,12.71-6,14.79-7,2.54-1.2-10.88-6.9-22.73-5.51-12.07,1.36-14.63,2.8-21.07,5.53,2.67-2.66,11.17-6.15,9.18-6.13-13,2-29.18,9.56-43,18.12a10.73,10.73,0,0,1,.83-4.35c-6.44,2.73-22.26,13.79-26.87,23.14a44.33,44.33,0,0,0,.27-5.4,84.48,84.48,0,0,0-13.19,13.82l-.24.22c-37.36-15-70.23-16-98.05-9.28-6.09-6.11-9.06-1.64-22.91-32.07-.94-1.83.72,1.81,0,0-2.28-5.9,1.39,7.87,0,0-23.28,18.37-53.92,39.19-68.63,53.89-.18.59,17.16-4.9,0,0-6,1.72-5.6,5.28-6.51,37.5-.22,2.44,0,5.18-.22,7.38-11.75,15-19.75,27.64-22.78,34.21-15.19,26.18-31.93,67-48.15,131.55A334.36,334.36,0,0,1,75.2,398.62C61.71,432.89,48.67,486.7,46.06,569.57a483.61,483.61,0,0,1,12.53-50.66A473,473,0,0,0,93.33,720c9.33,22.82,24.76,57.46,51,95.4,82.53,86.84,198.95,140.9,327.85,140.9C606.79,956.27,727.64,897.39,810.67,803.89Z"/><path fill="url(#j)" d="M810.67,803.89a246.89,246.89,0,0,1-30.12,18.18,704,704,0,0,0,38.3-63c9.46-10.47,18.13-20.65,25.19-31.65,3.44-5.41,7.31-12.08,11.42-19.82,24.92-44.9,52.4-117.56,53.18-192.2v-.18c0-1.84,0-3.67,0-5.51A257.6,257.6,0,0,0,902.93,454c.2,1.43.38,2.86.56,4.29-.22-1.1-.41-2.21-.64-3.31.37,2,.66,4,1,6,5.09,43.22,1.47,85.37-16.68,116.45-.29.45-.58.88-.87,1.32,9.41-47.23,12.56-99.39,2.09-151.6,0,0-4.19-25.38-35.38-102.44-18-44.35-49.83-80.72-78-107.21-24.69-30.55-47.11-51-59.47-64.06-25.82-27.19-36.64-47.57-41.09-60.87-3.85-1.93-53.14-49.81-57.05-51.63-21.51,33.35-89.16,137.67-57,235.15,14.58,44.17,51.47,90,90.07,115.74,1.69,1.94,23,25,33.09,77.16,10.45,53.85,5,95.86-16.54,158-25.29,54.51-90.07,108.39-150.72,113.9-129.67,11.78-177.15-65.11-177.15-65.11,46.34,18.52,97.57,14.65,128.72-4.56,31.4-19.43,50.39-33.83,65.81-28.15,15.2,5.65,27.3-10.76,16.44-27.77a78.5,78.5,0,0,0-79.4-34.57c-31.43,5.11-60.23,30-101.41,5.89a85.53,85.53,0,0,1-7.73-5.06c-2.71-1.79,8.83,2.72,6.13.69-8-4.35-22.2-13.84-25.88-17.22-.61-.56,6.22,2.18,5.61,1.62-38.51-31.71-33.7-53.13-32.49-66.57,1-10.75,8-24.52,19.75-30.11,5.69,3.11,9.24,5.48,9.24,5.48s-2.43-5-3.74-7.58c.46-.2.9-.15,1.36-.34,4.66,2.25,15,8.1,20.41,11.67,7.07,5,9.33,9.44,9.33,9.44s1.86-1,.48-5.37c-.5-1.78-2.65-7.45-9.65-13.17l.44,0a81.2,81.2,0,0,1,11.87,8.24c2-7.18,5.53-14.68,4.75-28.09-.48-9.43-.26-11.87-1.92-15.51-1.49-3.13.83-4.35,3.42-1.1a32.83,32.83,0,0,0-2.21-7.4l0-.24c3.23-11.24,68.25-40.46,73-43.88a67.36,67.36,0,0,0,19.13-20.8c3.62-5.76,6.34-13.85,7-26.11.36-8.84-3.76-14.73-69.51-21.62-18-1.77-28.53-14.8-34.53-26.82-1.09-2.59-2.21-4.94-3.33-7.28a58,58,0,0,1-2.56-8.43c10.75-30.87,28.81-57,55.37-76.7,1.45-1.32-5.78.34-4.34-1,1.69-1.54,12.71-6,14.79-7,2.54-1.2-10.88-6.9-22.73-5.51-12.07,1.36-14.63,2.8-21.07,5.53,2.67-2.66,11.17-6.15,9.18-6.13-13,2-29.18,9.56-43,18.12a10.73,10.73,0,0,1,.83-4.35c-6.44,2.73-22.26,13.79-26.87,23.14a44.33,44.33,0,0,0,.27-5.4,84.48,84.48,0,0,0-13.19,13.82l-.24.22c-37.36-15-70.23-16-98.05-9.28-6.09-6.11-9.06-1.64-22.91-32.07-.94-1.83.72,1.81,0,0-2.28-5.9,1.39,7.87,0,0-23.28,18.37-53.92,39.19-68.63,53.89-.18.59,17.16-4.9,0,0-6,1.72-5.6,5.28-6.51,37.5-.22,2.44,0,5.18-.22,7.38-11.75,15-19.75,27.64-22.78,34.21-15.19,26.18-31.93,67-48.15,131.55A334.36,334.36,0,0,1,75.2,398.62C61.71,432.89,48.67,486.7,46.06,569.57a483.61,483.61,0,0,1,12.53-50.66A473,473,0,0,0,93.33,720c9.33,22.82,24.76,57.46,51,95.4,82.53,86.84,198.95,140.9,327.85,140.9C606.79,956.27,727.64,897.39,810.67,803.89Z"/><path fill="url(#i)" d="M711.1,867c162.87-18.86,235-186.7,142.38-190C769.85,674.3,634,875.87,711.1,867Z"/><path fill="url(#h)" d="M865.21,642.68C977.26,577.47,948,436.6,948,436.6s-43.25,50.24-72.62,130.32C846.4,646.22,797.84,682.07,865.21,642.68Z"/><path fill="url(#g)" d="M509.47,950.32C665.7,1000.17,800,877.1,717.21,836,642,798.93,435.32,926.75,509.47,950.32Z"/><path fill="url(#c)" d="M638.58,21.68l.53-.57A1.78,1.78,0,0,0,638.58,21.68ZM876.85,702.49c3.8-5.36,8.94-22.53,13.48-30.21,27.58-44.52,27.78-80,27.78-80.84,16.66-83.22,15.15-117.2,4.9-180-8.25-50.6-44.32-123.09-75.57-158-32.2-36-9.51-24.25-40.69-50.52-27.33-30.29-53.82-60.29-68.25-72.36C634.22,43.35,636.57,24.84,638.58,21.68c-.34.37-.84.92-1.47,1.64-1.23-4.92-2.11-9.06-2.11-9.06s-57,57-69,152c-7.83,62,15.38,126.68,49,168a381.37,381.37,0,0,0,59,58v0c25.4,36.48,39.38,81.49,39.38,129.91,0,121.24-98.34,219.53-219.65,219.53a220.45,220.45,0,0,1-49.13-5.52c-57.24-10.91-90.29-39.78-106.77-59.38-9.45-11.23-13.46-19.42-13.46-19.42,51.28,18.37,108,14.53,142.47-4.52,34.75-19.26,55.77-33.55,72.84-27.92,16.82,5.61,30.21-10.67,18.2-27.54-11.77-16.85-42.4-41-87.88-34.29-34.79,5.07-66.66,29.76-112.24,5.84a96.31,96.31,0,0,1-8.55-5c-3-1.77,9.77,2.69,6.79.68-8.87-4.32-24.57-13.73-28.64-17.07-.68-.56,6.88,2.16,6.2,1.6-42.62-31.45-37.3-52.69-36-66,1.07-10.66,8.81-24.32,21.86-29.86,6.3,3.08,10.23,5.43,10.23,5.43s-2.69-4.92-4.14-7.51c.51-.19,1-.15,1.5-.34,5.16,2.23,16.58,8,22.59,11.57,7.83,4.95,10.32,9.36,10.32,9.36s2.06-1,.54-5.33c-.56-1.77-2.93-7.39-10.68-13.07l.48,0a90.85,90.85,0,0,1,13.13,8.17c2.19-7.12,6.12-14.56,5.25-27.86-.53-9.35-.28-11.78-2.12-15.39-1.65-3.1.92-4.31,3.78-1.09a30,30,0,0,0-2.44-7.34l0-.24c3.57-11.14,75.53-40.12,80.77-43.51a70.31,70.31,0,0,0,21.17-20.63c4-5.72,7-13.73,7.75-25.89.25-5.48-1.44-9.82-20.5-14-11.44-2.49-29.14-4.91-56.43-7.47-19.9-1.76-31.58-14.68-38.21-26.6-1.21-2.57-2.45-4.9-3.68-7.22a53.11,53.11,0,0,1-2.83-8.36,158.47,158.47,0,0,1,61.28-76.06c1.6-1.31-6.4.33-4.8-1,1.87-1.52,14.06-5.93,16.37-6.92,2.81-1.19-12-6.84-25.16-5.47-13.36,1.35-16.19,2.78-23.32,5.49,3-2.64,12.37-6.1,10.16-6.08-14.4,2-32.3,9.48-47.6,18a9.68,9.68,0,0,1,.92-4.31c-7.13,2.71-24.64,13.67-29.73,23a39.49,39.49,0,0,0,.29-5.35,88.68,88.68,0,0,0-14.6,13.7l-.27.22C258.14,196.25,221.75,195.29,191,202c-6.74-6.06-17.57-15.23-32.89-45.4-1-1.82-1.6,3.75-2.4,2-6-13.81-9.55-36.44-9-52,0,0-12.32,5.61-22.51,29.06-1.89,4.21-3.11,6.54-4.32,8.87-.56.68,1.27-7.7,1-7.24-1.77,3-6.36,7.19-8.37,12.62-1.38,4-3.32,6.27-4.56,11.29l-.29.46c-.1-1.48.37-6.08,0-5.14a236.1,236.1,0,0,0-12.31,29.84c-5.49,18-11.88,42.61-12.89,74.57-.24,2.42,0,5.14-.25,7.32C69.2,283,60.34,295.54,57,302.06,40.18,328,21.66,368.49,3.71,432.52a319.14,319.14,0,0,1,28.54-50C17.32,416.51,2.89,469.88,0,552.05a438.52,438.52,0,0,1,13.87-50.24c-2.58,54.8,3.81,122.74,38.45,199.39,20.57,45.09,67.92,136.65,183.62,208.1h0s39.36,29.3,107,51.26c5,1.81,10.06,3.6,15.23,5.33-1.62-.66-3.19-1.34-4.71-2.05a484.88,484.88,0,0,0,138.8,20.4c175.18.15,226.85-70.2,226.85-70.2l-.51.38q3.71-3.49,7.14-7.26C698.11,933.28,635,935,611.45,933.13c40.22-11.81,66.69-21.81,118.17-41.52q9-3.36,18.48-7.64l2.05-.94c1.25-.58,2.49-1.13,3.75-1.74a349.21,349.21,0,0,0,70.26-44c51.7-41.3,62.95-81.56,68.83-108.1-.82,2.54-3.37,8.47-5.17,12.32-13.31,28.48-42.84,46-74.91,60.95A689,689,0,0,0,855.3,740C865.77,729.65,869,713.41,876.85,702.49Z"/><path fill="url(#f)" d="m813.92 801.24c21.08-23.24 40-49.82 54.35-80 36.9-77.58 94-206.58 49-341.31-35.5-106.45-84.27-164.68-146.16-221.55-100.55-92.38-128.63-133.6-128.63-158.12 0 0-116.09 129.41-65.74 264.38s153.46 130 221.68 270.87c80.27 165.74-64.95 346.61-185 397.24 7.35-1.63 267-60.38 280.61-208.88-0.35 2.73-6.2 43.8-80.11 77.37z"/><path fill="url(#e)" d="m477.59 319.63c0.39-8.77-4.16-14.66-76.68-21.46-29.84-2.76-41.26-30.33-44.75-41.94-10.61 27.56-15 56.49-12.64 91.48 1.61 22.92 17 47.52 24.37 62 0 0 1.64-2.13 2.39-2.91 13.86-14.43 71.94-36.42 77.39-39.54 6.02-3.84 28.91-20.57 29.92-47.63z"/><path fill="url(#d)" d="m477.59 319.63c0.39-8.77-4.16-14.66-76.68-21.46-29.84-2.76-41.26-30.33-44.75-41.94-10.61 27.56-15 56.49-12.64 91.48 1.61 22.92 17 47.52 24.37 62 0 0 1.64-2.13 2.39-2.91 13.86-14.43 71.94-36.42 77.39-39.54 6.02-3.84 28.91-20.57 29.92-47.63z"/><path fill="url(#w)" d="M158.31,156.73c-1-1.82-1.6,3.75-2.4,2-6-13.81-9.58-36.2-8.72-52,0,0-12.32,5.61-22.51,29.06-1.89,4.21-3.11,6.54-4.32,8.86-.56.68,1.27-7.7,1-7.24-1.77,3-6.36,7.19-8.35,12.38-1.65,4.24-3.35,6.52-4.61,11.77-.39,1.43.39-6.32.05-5.38C84.72,201.94,80.19,271.23,82.69,268.3,133.17,214.4,191,201.62,191,201.62c-6.15-4.53-19.53-17.63-32.7-44.89Z"/><path fill="url(#v)" d="M349.84,720.36c-69.72-29.77-149-71.75-146-167.14C207.92,427.6,321,452.43,321,452.43c-4.27,1-15.68,9.16-19.72,17.82-4.27,10.83-12.07,35.28,11.55,60.9,37.09,40.19-76.2,95.36,98.66,199.57,4.41,2.4-41-1.43-61.64-10.36Z"/><path fill="url(#u)" d="M325.07,657.76c49.44,17.21,107,14.19,141.52-4.86,23.09-12.85,52.7-33.43,70.92-28.35-15.78-6.24-27.73-9.15-42.1-9.86-2.45,0-5.38-.05-8-.32a136.23,136.23,0,0,0-15.76.86c-8.9.82-18.77,6.43-27.74,5.53-.48,0,8.7-3.77,8-3.61-4.75,1-9.92,1.21-15.37,1.88-3.47.39-6.45.82-9.89,1-103,8.73-190-55.81-190-55.81-7.41,25,33.17,74.3,88.52,93.57Z"/><path fill="url(#t)" d="m813.74 801.9c104.16-102.27 156.86-226.58 134.58-366 0 0 8.9 71.5-24.85 144.63 16.21-71.39 18.1-160.11-25-252-57.47-122.64-152.02-187.16-188.12-214.08-54.69-40.79-77.35-82.32-77.78-90.9-16.34 33.48-65.77 148.2-5.31 247 56.64 92.56 145.86 120 208.33 204.95 115.08 156.42-21.85 326.4-21.85 326.4z"/><path fill="url(#s)" d="M798.81,535.81c-36.4-75.2-81.84-108-124.81-143.55,5,7,6.23,9.47,9,14,37.83,40.32,93.61,138.66,53.11,262.11C659.88,900.74,355,791.31,323,760.58c12.93,134.49,238,198.84,384.6,111.63C791,793.26,858.47,659,798.81,535.81Z"/><path fill="url(#r)" d="M814.12,686.64l.94-4.85c.32-1.75.75-3.6,1-5.61.61-4,1.38-8.47,1.87-13.43a237.94,237.94,0,0,0,1.48-35A223,223,0,0,0,813.6,584a232,232,0,0,0-17.42-48.75,336.9,336.9,0,0,0-29.59-49.81c-5.8-8.24-12.31-16.18-19.09-24.06s-14.23-15.39-21.92-22.79S709.75,424,701.44,417s-16.85-14-25.36-21-17-14.14-25.3-21.61-16.23-15.28-23.73-23.51a246,246,0,0,1-20.75-26L604,321.46c-.79-1.13-1.57-2.27-2.28-3.45l-4.37-7c-1.44-2.34-2.72-4.77-4.08-7.14l-2-3.57c-.66-1.2-1.24-2.43-1.86-3.64l-3.67-7.29c-1.14-2.46-2.22-4.94-3.34-7.4-2.31-4.88-4.12-9.94-6.13-14.88l-.74-1.86-.64-1.9-1.27-3.79c-.83-2.52-1.71-5-2.49-7.54l-2-7.63-1-3.8c-.36-1.26-.53-2.55-.8-3.82a212.57,212.57,0,0,1-3.8-59.83,261.12,261.12,0,0,1,10.19-53.46,310.66,310.66,0,0,1,17-44.06,372,372,0,0,1,18.17-33.81,366.16,366.16,0,0,1,24.69-36c2.56-3.27,5.11-6.43,7.66-9.35a1,1,0,0,1,1.31,0,1,1,0,0,1,.17,1.29c-2.42,2.81-5,6-7.55,9.3a375.79,375.79,0,0,0-43,70.76,308.15,308.15,0,0,0-16.54,43.94,256.43,256.43,0,0,0-9.66,53,213.07,213.07,0,0,0,4.27,58.87c.13.63.24,1.26.38,1.88l.49,1.86,1,3.73c.68,2.48,1.28,5,2,7.48l2.49,7.4,1.25,3.72c.41,1.24,1,2.45,1.42,3.67l2.94,7.35.74,1.84.82,1.81,1.64,3.63,1.64,3.64c.55,1.21,1.08,2.44,1.7,3.62l3.63,7.16a248,248,0,0,0,37.41,53.14c7.43,8.06,15.32,15.72,23.5,23.07s16.66,14.36,25.13,21.33,17,13.82,25.32,20.84,16.44,14.16,24.23,21.51,15.15,15,22.09,22.84,13.43,15.88,19.3,24.16a340.26,340.26,0,0,1,30,50.05l.79,1.55.72,1.58,1.44,3.14c.94,2.09,1.93,4.15,2.81,6.23l2.51,6.25L808.8,555c.39,1,.73,2.08,1.1,3.12l2.15,6.17c.37,1,.68,2,1,3.07l.91,3.07c.59,2,1.23,4,1.77,6.06l1.48,6A227.37,227.37,0,0,1,823.32,627,242,242,0,0,1,822,662.8c-1.06,10.17-2.69,18.44-3.92,24.66a283.86,283.86,0,0,1-9.88,35.23,300.4,300.4,0,0,1-12.74,30.91c-4.59,9.51-9.21,18.33-14,26.26l-1.73,3-1.78,2.86-3.45,5.54c-2.34,3.55-4.57,7-6.77,10.15-4.42,6.36-8.57,11.95-12.3,16.73l-5.27,6.59-4.57,5.37-1.95,2.26-1.76,1.93q-1.64,1.79-2.79,3c-1.52,1.59-2.37,2.37-2.47,2.28s.57-1.07,1.94-2.88,3.49-4.39,6.08-7.84C749.93,822,757.43,812,766,799c2.08-3.28,4.3-6.7,6.51-10.34s4.5-7.43,6.7-11.46c4.55-8,9-16.74,13.38-26.17,1.06-2.37,2.2-4.74,3.23-7.2l3.12-7.46c2-5.08,4-10.27,5.8-15.67A292.75,292.75,0,0,0,814.12,686.64Z"/><path fill="url(#b)" d="M739.36,650c.52-2.06,1.32-4.8,2-8.22s1.74-7.41,2.49-12c.4-2.29.87-4.71,1.29-7.26l1.11-8,.29-2.11.22-2.16.44-4.45c.14-1.51.32-3,.43-4.59l.28-4.75a261.51,261.51,0,0,0-.93-41.93l-.27-2.79-.37-2.79-.75-5.61c-.23-1.88-.61-3.74-.92-5.63s-.61-3.77-1-5.65l-1.17-5.64c-.2-.94-.38-1.89-.6-2.82l-.68-2.81-1.37-5.61-1.55-5.56a271.66,271.66,0,0,0-15.87-42.08,267.35,267.35,0,0,0-19.66-34.4c-3.27-4.92-6.59-9.3-9.61-13.26s-6-7.34-8.54-10.2l-1.86-2.06-.45-.5a1.61,1.61,0,0,1-.3-.4l-.18-.29-.64-1.08L679,401.57c-1.32-2.18-2.34-3.71-2.92-4.59-.8-1.19-1.6-2.35-2.36-3.45a1,1,0,0,1,.3-1.27.93.93,0,0,1,1.3.14c.77,1.07,1.59,2.24,2.43,3.46.65,1,1.75,2.59,3.14,4.85l2.31,3.82.64,1a.5.5,0,0,0,.09.11l.22.24.46.5,1.92,2.1a221.73,221.73,0,0,1,18.55,23.67,269.51,269.51,0,0,1,20,34.53A273.9,273.9,0,0,1,741.32,509l1.6,5.59,1.42,5.64.71,2.82.62,2.84,1.22,5.67c.39,1.89.69,3.79,1,5.68s.72,3.77,1,5.66l.8,5.65.39,2.81.29,2.81a264.11,264.11,0,0,1,1.26,42.32,258.54,258.54,0,0,1-3.87,33.84C747,635,746,639,745.29,642.53s-1.51,6.33-2.06,8.47l-1.66,6.3-1.86,6-1.8,5.72q-.95,2.77-1.9,5.38c-2.54,6.94-5.14,12.95-7.49,17.84-4.71,9.79-8.32,15.14-8.77,14.89s2.33-6.26,6.35-16.34c2-5,4.28-11.11,6.57-18,.57-1.72,1.15-3.49,1.71-5.31l1.66-5.6,1.74-5.82Z"/><path fill="url(#q)" d="M716.89,368.69c-2.35-1.89-5.54-4.37-9.35-7.54L701.31,356c-2.24-1.86-4.58-3.92-7.09-6.07a403.8,403.8,0,0,1-34.4-33.24,293.34,293.34,0,0,1-35.56-48c-1.31-2.31-2.66-4.62-4-7l-3.62-7.22-.91-1.81c-.29-.61-.55-1.24-.82-1.86l-1.63-3.74-1.63-3.75c-.51-1.26-1-2.55-1.45-3.83l-1.44-3.84c-.49-1.28-1-2.56-1.36-3.88L605,224l-2.1-8c-.37-1.32-.66-2.66-.94-4l-.85-4a225,225,0,0,1-4.1-32.31,249.48,249.48,0,0,1,.42-31.43A280.1,280.1,0,0,1,601.11,115c1.69-9.27,3.71-18,5.86-26.11a362,362,0,0,1,13.28-39.91c4.07-10.17,7.26-17,8.51-19.69.86-1.85,1.72-3.65,2.56-5.35a1,1,0,0,1,1.25-.35.94.94,0,0,1,.51,1.2c-.79,1.65-1.65,3.47-2.51,5.34C629.22,33,626,40,622,50.24a362.64,362.64,0,0,0-12.95,39.91A298.35,298.35,0,0,0,600,145a252.1,252.1,0,0,0-.18,31,222,222,0,0,0,4.27,31.68l.86,3.94.43,2,.52,1.95,2.11,7.79,2.48,7.67c.38,1.29.88,2.53,1.36,3.79l1.43,3.75c.49,1.25.93,2.51,1.45,3.74l1.62,3.66,1.61,3.65c.27.6.52,1.22.82,1.81l.9,1.77,3.58,7,3.91,6.79a290.41,290.41,0,0,0,35.21,47,402.74,402.74,0,0,0,34.17,32.77c2.51,2.13,4.85,4.18,7.09,6l6.26,5.13c3.82,3.17,7.07,5.68,9.47,7.62l26.81,21.21c8.08,6.44,15.15,12.25,20.91,17.2l7.67,6.72c2.2,2,4,3.78,5.55,5.22,3,2.89,4.51,4.56,4.33,4.76s-2.1-1.14-5.47-3.73L765,405.83l-21.46-16.5C735.35,383.09,726.32,376.21,716.89,368.69Z"/><path fill="url(#a)" d="M925.73,401.72c-.5-1.87-1-4.07-1.73-6.54s-1.49-5.25-2.42-8.28l-1.51-4.73c-.52-1.65-1.07-3.36-1.71-5.1l-4-11.24-2.17-6.14-2.5-6.4-2.62-6.71c-.92-2.28-1.75-4.64-2.8-7L898,325c-2.29-5-4.76-10.1-7.25-15.38l-.94-2-1-2-2.06-4-4.19-8.06c-.69-1.37-1.45-2.71-2.22-4.05L878,285.51l-4.68-8.24-5.08-8.21-2.57-4.15c-.43-.69-.85-1.4-1.3-2.08l-1.38-2c-3.7-5.45-7.31-11.08-11.36-16.47-2-2.72-4-5.49-6-8.21L839.33,228c-1.06-1.35-2.1-2.72-3.19-4.05l-3.32-4-6.69-8-6.95-7.79c-1.17-1.29-2.3-2.62-3.5-3.88l-3.59-3.8c-2.4-2.53-4.77-5.09-7.2-7.59l-7.37-7.42c-2.43-2.49-4.95-4.89-7.45-7.3s-5-4.83-7.5-7.19l-15.09-14c-10-9.2-19.77-18.32-29.12-27.29-18.7-17.93-35.79-35.19-50-51s-25.56-30.19-32.86-42a104.88,104.88,0,0,1-8-15.28,54.81,54.81,0,0,1-3-9.2,36.26,36.26,0,0,1-1-7.28,1,1,0,0,0-1-.84.9.9,0,0,0-.95.89,37.71,37.71,0,0,0,1,7.67,57.41,57.41,0,0,0,3.22,9.94,108.05,108.05,0,0,0,8.33,15.83,232.76,232.76,0,0,0,14,19.82c5.57,7.13,12,14.72,19.12,22.68,14.24,15.91,31.27,33.23,49.86,51.19,9.29,9,19,18.12,28.92,27.33l14.93,14,7.39,7.17c2.47,2.39,4.94,4.79,7.34,7.27l7.26,7.38,7.09,7.55,3.54,3.78c1.16,1.27,2.29,2.58,3.44,3.86l6.83,7.73,6.57,7.89,3.27,3.93c1.07,1.33,2.09,2.68,3.14,4l6.21,8c2,2.7,3.94,5.44,5.9,8.14,4,5.34,7.52,10.92,11.16,16.31,1.85,2.67,3.46,5.48,5.15,8.2l5,8.13,4.6,8.16c1.49,2.71,3.07,5.33,4.45,8l4.11,8,2,3.92c.68,1.3,1.34,2.59,1.93,3.9a543.11,543.11,0,0,1,23.28,55.87L914.51,378l.9,2.58.79,2.5,1.5,4.72c.93,3,1.68,5.8,2.41,8.28s1.23,4.7,1.74,6.6l.73,2.83.65,2.83,1.29,5.58c.73,3.71,1.57,7.32,2.16,10.9l1,5.29.8,5.19c.57,3.41.93,6.76,1.38,10,1.6,13,2.24,24.61,2.54,34.24.52,19.29-.2,30.75.45,30.8h0c.25,0,.71-2.93,1.26-8.34s1-13.29,1.09-23.12A307.72,307.72,0,0,0,925.73,401.72Z"/><path fill="url(#p)" d="M577.29,723c1.42-.52,3-1.31,4.85-2.12l6.14-2.78,7.21-3.68,2-1,2-1.14,4.19-2.4c2.91-1.58,5.82-3.54,8.93-5.5s6.22-4.24,9.51-6.53c1.66-1.13,3.26-2.4,4.9-3.69l5-3.91,5-4.28c1.68-1.45,3.42-2.9,5-4.51l5-4.78c1.69-1.63,3.29-3.39,5-5.11l2.51-2.62c.84-.88,1.61-1.83,2.43-2.74l4.88-5.61a243.28,243.28,0,0,0,18-25.16,240,240,0,0,0,14.82-28.69,235.77,235.77,0,0,0,10.5-31.1,233.23,233.23,0,0,0,5.68-32.06c.41-5.35.94-10.64,1-15.9.23-5.25.11-10.45,0-15.57a237,237,0,0,0-2.93-29.45c-.69-4.68-1.68-9.19-2.58-13.59l-1.55-6.44c-.48-2.12-1.14-4.16-1.69-6.19l-.85-3c-.29-1-.62-2-.93-2.93l-1.83-5.67-2-5.37-1-2.59-1-2.49-2-4.8c-.67-1.54-1.37-3-2-4.46s-1.27-2.85-1.93-4.17l-1.93-3.83a210.19,210.19,0,0,0-10.73-18.7l-3.29-5a1,1,0,0,1,.15-1.11l.43-.16h0l-.24,0h-.25l.45-.16a.92.92,0,0,1,1.06.28l3.36,5a211.37,211.37,0,0,1,11.2,19.34,218.3,218.3,0,0,1,15.71,39.84c1.24,4.07,2.22,8.36,3.31,12.75l1.4,6.74c.25,1.14.46,2.29.65,3.45l.59,3.51a247.21,247.21,0,0,1,3.05,29.66l.18,7.79c0,1.31,0,2.62,0,3.94l-.09,4c0,5.3-.55,10.65-.91,16a220.44,220.44,0,0,1-16.08,63.8,221.78,221.78,0,0,1-32.92,54.59l-4.91,5.71c-.82.93-1.6,1.89-2.44,2.79l-2.53,2.66c-1.69,1.75-3.31,3.53-5,5.21L644.75,684c-.85.79-1.65,1.62-2.51,2.37l-2.57,2.24-5,4.37-5.07,4c-1.67,1.3-3.27,2.63-5,3.78l-4.88,3.48c-.8.56-1.58,1.14-2.37,1.68L615,707.49c-3.17,2-6.11,4-9.08,5.66l-4.27,2.46-2,1.17c-.67.37-1.36.71-2,1.05l-7.39,3.79c-2.3,1.09-4.43,2-6.32,2.89s-3.55,1.67-5,2.21a205.76,205.76,0,0,1-33.27,10.63c-2.58.56-5.07,1.13-7.5,1.63L531,740.15l-3.35.54-3.24.36-6.06.64c-1.92.24-3.76.29-5.49.38l-4.87.22c-3,.18-5.62,0-7.73,0-4.22-.13-6.5-.34-6.5-.62s2.36-.57,6.64-.92c2.14-.18,4.76-.3,7.8-.7l4.87-.53,2.66-.28c.91-.1,1.84-.27,2.8-.41,3.81-.62,8-1.07,12.49-2l6.94-1.36,7.31-1.78A232,232,0,0,0,577.29,723Z"/><path fill="url(#n)" d="M351.94,263c1-2.74,2.18-6,3.6-9.69,1.57-3.66,3.21-7.86,5.47-12.36a162.21,162.21,0,0,1,19.1-30.7A152.2,152.2,0,0,1,415,177.78c1.84-1.25,3.77-2.43,5.74-3.6l1.49-.86.54-.31.19-.1.32-.17.09,0c.12,0,0,0-.06-.07l-.1,0-.42-.09q-3.4-.72-6.93-1.23a125.42,125.42,0,0,0-29.7-.78,112.59,112.59,0,0,0-26.45,5.73,101.37,101.37,0,0,0-13.72,6c-4.56,2.42-9.26,5.06-14,7.77s-9.53,5.59-14.28,8.68c-1.2.76-2.38,1.55-3.56,2.35s-2.36,1.61-3.52,2.45a74.86,74.86,0,0,0-6.73,5.32c-.5.48-1,1-1.48,1.46l-.35.37-.39.47c-.09.15-.25.22-.3.42,0,0-.14,0-.17,0l-.09.05-.19.1-.69.37a3.52,3.52,0,0,1-.64.26c-.27.07-.56.33-.86.12l-1.51-.56-2.09-.74c-2.8-1-5.65-1.88-8.52-2.77Q278,205.68,269,203.64l-.79-.18-.85-.2a190.2,190.2,0,0,0-29.58-4.16,131.88,131.88,0,0,0-30.22,2.23c-5,.87-10,2-15,3.22s-9.91,2.68-14.8,4.23A238.45,238.45,0,0,0,149.18,220,209.52,209.52,0,0,0,99,252.6a176.69,176.69,0,0,0-19.89,20.65c-1.53,1.77-2.89,3.67-4.3,5.51s-2.71,3.75-4,5.63L66.89,290c-1.28,1.87-2.6,3.69-3.75,5.61l-7,11.19-6.34,11.09c-1.07,1.8-2,3.64-3,5.46L44,328.78c-.92,1.79-1.88,3.53-2.74,5.3l-2.54,5.26c-3.43,6.89-6.32,13.63-9.14,20-2.65,6.39-5.18,12.39-7.29,18.05s-4,10.9-5.76,15.66-3.11,9.09-4.27,12.91l-1.66,5.29-1.32,4.46c-.81,2.68-1.38,4.79-1.79,6.25-1,3.42-1.84,6.8-2.62,10a1,1,0,0,1-1.15.61A.93.93,0,0,1,3,431.45c.76-3.15,1.62-6.58,2.6-10.08.43-1.6,1-3.84,1.88-6.64l1.36-4.63,1.69-5.44c.59-2,1.27-4,2-6.22s1.48-4.52,2.33-6.95c1.73-4.84,3.57-10.18,5.8-15.87S25.3,363.85,28,357.41l4.35-9.84c.73-1.69,1.52-3.38,2.35-5.08l2.48-5.17L39.67,332l2.77-5.32,2.82-5.43c.48-.91.94-1.84,1.45-2.75l1.55-2.73c2.09-3.65,4.15-7.4,6.37-11.14l7-11.26c.58-1,1.22-1.89,1.86-2.82l1.92-2.81,3.89-5.67,2-2.86,2.11-2.8,2.13-2.81c.72-.93,1.49-1.83,2.24-2.75a180.16,180.16,0,0,1,20.13-20.84A203.28,203.28,0,0,1,121.72,232a228.83,228.83,0,0,1,26.75-14.8,239.72,239.72,0,0,1,58.82-18.93c5.09-.9,10.2-1.62,15.34-2.05,1.28-.11,2.57-.21,3.86-.27s2.58-.12,3.87-.14c2.58,0,5.14.08,7.7.13a193.27,193.27,0,0,1,30,4.12l.86.2.81.18q9.08,2,17.83,4.67c2.91.89,5.79,1.8,8.64,2.78l2.13.75.62.22c.11,0,.13.06.18.05a.86.86,0,0,1,.1-.14l.28-.34.41-.44c.54-.61,1.11-1.11,1.67-1.66a78,78,0,0,1,7-5.58c1.19-.86,2.38-1.71,3.59-2.51s2.4-1.63,3.61-2.4c4.81-3.15,9.64-6,14.39-8.81s9.43-5.39,14.09-7.89a104.25,104.25,0,0,1,14.19-6.25,116.2,116.2,0,0,1,27.36-6,129.17,129.17,0,0,1,30.39.7q3.62.51,7.13,1.23c.35.07,1.77.37,2.79.62s2.17.53,3.13.83l2.93.87,1.45.44.3.1.16.05s.06,0,0,0l-.11,0-.85.38-3.37,1.53-.84.38c-.28.13-.57.26-.77.37l-1.33.7-1.33.69-.66.35-.32.17-.18.1-1.43.83c-1,.54-1.88,1.13-2.81,1.7s-1.84,1.16-2.73,1.76a148.24,148.24,0,0,0-33.92,31.52,159.28,159.28,0,0,0-18.71,30c-2.22,4.44-3.86,8.6-5.41,12.24s-2.62,6.94-3.6,9.7a230.59,230.59,0,0,0-8.08,30,198.21,198.21,0,0,0-3.69,28.12,128.13,128.13,0,0,0,.92,25.09l.47,2.85c.15.94.3,1.87.54,2.79.44,1.83.8,3.64,1.32,5.37s.92,3.45,1.46,5.1,1,3.27,1.55,4.83A275.33,275.33,0,0,0,362,397.06c3.09,6.56,4.88,10.07,4.63,10.22s-2.53-3.27-6.14-9.81a213.18,213.18,0,0,1-13.21-29c-1.15-3.19-2.27-6.57-3.3-10.15-.52-1.79-.95-3.65-1.44-5.52s-.73-3.87-1.11-5.87a131.26,131.26,0,0,1-1.09-25.76,190.38,190.38,0,0,1,3.59-28.37A227.32,227.32,0,0,1,351.94,263Z"/><path fill="#fff" d="M915.07 657.63l2.85-6.3 4-9.2 4.75-11.72 2.52-6.71c.86-2.32 1.8-4.7 2.62-7.19 1.7-5 3.56-10.18 5.18-15.68.82-2.75 1.77-5.52 2.53-8.38l2.36-8.69c.85-2.92 1.46-5.92 2.17-8.93l1-4.53c.36-1.51.71-3 1-4.57l1.74-9.24.43-2.32.34-2.33.69-4.66c1-6.19 1.55-12.42 2.24-18.53.44-6.13 1-12.15 1.12-18 .46-11.7.34-22.7-.22-32.32a284.21 284.21 0 0 0-4.08-36.28c-.21-1.15-.43-2.28-.65-3.34a1 1 0 0 1 .77-1 .92.92 0 0 1 1.14.63c.23 1 .48 2.2.7 3.38a287.52 287.52 0 0 1 4.51 36.94c.13 2.42.32 4.92.4 7.5l.24 8c0 5.44.12 11.14-.13 17-.09 5.88-.58 11.93-1 18.08-.64 6.13-1.12 12.39-2.08 18.62l-.64 4.68-.32 2.34-.42 2.33-1.66 9.3c-.25 1.55-.6 3.08-.94 4.6l-1 4.56c-.69 3-1.28 6.05-2.1 9l-2.29 8.75c-.36 1.45-.79 2.86-1.21 4.26l-1.25 4.18-1.23 4.1-.61 2-.66 2-2.57 7.7a447 447 0 0 1-16.62 41.7c-11.91 26.19-23.65 43.64-24.6 43S903.6 682.92 915.07 657.63zM779.41 865.32c5-3 16.85-10 31.16-20.3l5.49-4 5.63-4.28 2.9-2.2 2.88-2.32 5.87-4.75 5.84-5c2-1.69 3.95-3.39 5.82-5.18s3.73-3.64 5.59-5.48 3.59-3.81 5.27-5.82a141.68 141.68 0 0 0 9.53-12.29 149 149 0 0 0 8-12.74 170.21 170.21 0 0 0 11.32-24.49A159.47 159.47 0 0 0 892.63 727c.15-1 .3-1.91.41-2.81a1 1 0 0 1 1.07-.74.92.92 0 0 1 .87 1c-.1.9-.23 1.88-.38 2.88a161.52 161.52 0 0 1-7.79 30.28 171.55 171.55 0 0 1-11.21 24.91 150.63 150.63 0 0 1-8 13 145.35 145.35 0 0 1-9.54 12.57c-1.68 2.06-3.51 4-5.29 6s-3.68 3.85-5.63 5.64-3.87 3.58-5.82 5.3l-5.81 5.12-5.84 4.83-2.86 2.37-2.89 2.24-5.62 4.37c-1.85 1.4-3.7 2.72-5.48 4-14.29 10.46-26.22 17.71-31.39 20.8-20.72 12.39-37.24 18.66-37.67 17.61-.2-.47 3.73-2.72 10.19-6.37S769.43 871.27 779.41 865.32zM518.09 981.82l6.73-.27 9.74-.6c7.4-.51 16.5-1.28 26.66-2.52 1.27-.15 2.56-.27 3.86-.46l3.94-.57 8.15-1.18c2.77-.39 5.56-1 8.4-1.46s5.73-1 8.63-1.6l8.75-1.93 4.43-1c1.47-.35 2.93-.77 4.41-1.16l8.85-2.37c.74-.2 1.48-.38 2.21-.61l2.18-.7 4.36-1.41c2.9-1 5.82-1.82 8.68-2.85l8.49-3.14 4.19-1.56 4.1-1.67 8-3.29a272.24 272.24 0 0 0 28.13-14 119.14 119.14 0 0 0 19.1-13.55 50.12 50.12 0 0 0 8-8.69c.3-.46.61-.92.89-1.37s.53-.92.72-1.36a1.05 1.05 0 0 1 1.22-.39c.55.15.71.64.56 1.2s-.51 1-.78 1.53-.63 1-1 1.51a52.77 52.77 0 0 1-8.44 9.36 125 125 0 0 1-19.42 14 281.5 281.5 0 0 1-28.23 14.4l-8 3.37-4.09 1.72-4.19 1.6L638.87 964c-2.86 1-5.79 2-8.7 2.94l-4.38 1.46-2.19.73c-.74.22-1.48.42-2.22.63l-8.87 2.47c-1.48.4-2.94.84-4.42 1.2l-4.43 1-8.77 2c-2.9.63-5.8 1.13-8.65 1.68s-5.65 1.13-8.42 1.55L569.66 981c-2.67.42-5.28.83-7.83 1.11-10.2 1.33-19.35 2.18-26.82 2.76l-9.87.67-6.89.3c-28 1.17-48.35-1.16-48.24-2.29S491.06 983 518.09 981.82z" opacity=".25" style="mix-blend-mode:overlay"/><path fill="url(#m)" d="M155.86,160.77l-1.92-3.17c-.67-1.32-1.53-2.79-2.33-4.54A76.32,76.32,0,0,1,147,139.64,117.31,117.31,0,0,1,144,120q-.21-2.84-.31-5.89l0-1.53V112a.63.63,0,0,0,0-.06l0,0-.09.09-.09.1-.45.5c-1.5,1.68-3,3.43-4.56,5.24-4.08,4.77-8.43,10.15-12.83,16s-8.84,12.16-13,18.82c-2.14,3.3-4.08,6.77-6.06,10.21l-2.78,5.28c-.48.87-.9,1.77-1.31,2.67l-1.25,2.7A150.47,150.47,0,0,0,93.3,195.5c-2,7.28-3.66,14.35-4.93,20.92s-2.16,12.65-2.85,18c-1.33,10.61-1.78,18.1-1.91,20.49l-.16,3.35a1,1,0,0,1-1,.83.93.93,0,0,1-1-.89c0-1.06.07-2.21.12-3.39.12-2.63.5-10.29,1.76-21,.64-5.37,1.53-11.49,2.71-18.13s2.79-13.77,4.77-21.13a149.73,149.73,0,0,1,7.78-22.29l1.24-2.75.62-1.38.69-1.35,2.76-5.38c2-3.5,3.9-7,6-10.38,4.15-6.77,8.54-13.19,12.93-19.11s8.7-11.4,12.77-16.27c1.54-1.83,3.05-3.6,4.55-5.3l.68-.77,1.06-1.17,2.11-2.32,2.07-2.23,1-1.11.25-.26.12-.12a1.1,1.1,0,0,1,0,.18l0,.81c-.06,2.15-.18,4.38-.16,6.33q0,.75,0,1.5v1.32l0,1.48q.11,2.94.33,5.7a113.59,113.59,0,0,0,3,18.89,72.28,72.28,0,0,0,4.43,12.76c.34.85.79,1.57,1.15,2.28l1.05,2,1.9,3.13c3.67,5.91,7.49,11.2,11,15.9s6.66,8.8,9.31,12.2c5.3,6.8,8.45,10.86,8,11.24s-4.4-3.19-10.36-9.65c-3-3.23-6.43-7.2-10.1-11.82A170.55,170.55,0,0,1,155.86,160.77Z"/><path fill="url(#k)" d="M205.1,584.1c-.35-1.58-.67-3.73-1.13-6.35-.25-1.31-.43-2.74-.61-4.3l-.6-5a142.48,142.48,0,0,1,.09-25.65,151.87,151.87,0,0,1,6.16-31.3,99.67,99.67,0,0,1,6.59-16,81.86,81.86,0,0,1,22.32-26.87l3.43-2.59c1.14-.85,2.35-1.59,3.51-2.38l1.75-1.16c.59-.37,1.2-.71,1.79-1.07l3.56-2.09a81.38,81.38,0,0,1,28.77-8.82,120.8,120.8,0,0,1,22.47-.45c5.84.42,9.8,1.07,11.38,1.32,1.08.18,2.13.37,3.13.58a1,1,0,0,1-.39,1.92c-.94-.18-2-.35-3.06-.52-1.69-.25-5.7-.85-11.5-1.19a118.58,118.58,0,0,0-22.12.74A78.63,78.63,0,0,0,253,461.85c-2.26,1.39-4.63,2.69-6.85,4.28-1.11.78-2.29,1.49-3.37,2.35L239.51,471a78.82,78.82,0,0,0-21.08,26,96.88,96.88,0,0,0-6.17,15.5,148.83,148.83,0,0,0-5.71,30.51,139.54,139.54,0,0,0,.09,24.89l.61,4.86c.19,1.52.36,2.93.61,4.21.47,2.57.79,4.7,1.14,6.28,1.31,6.35,2.86,12.2,4.4,17.41s3.11,9.75,4.52,13.49c2.73,7.52,4.67,11.87,4.17,12.15s-3.37-3.86-6.85-11.32a132.11,132.11,0,0,1-5.42-13.49c-.86-2.62-1.78-5.38-2.53-8.31S205.8,587.26,205.1,584.1Z"/></svg>