<svg xmlns="http://www.w3.org/2000/svg" viewBox="-29.5 -11 277 277"><linearGradient id="a" y1="50.7%" y2="50.7%"><stop offset=".4" stop-color="#f50"/><stop offset=".6" stop-color="#ff2000"/></linearGradient><linearGradient id="b" x1="2.1%" y1="50.7%" y2="50.7%"><stop offset="0" stop-color="#ff452a"/><stop offset="1" stop-color="#ff2000"/></linearGradient><path fill="url(#a)" d="M210 61.3l6-14.7L199 29c-9.2-9.2-28.8-3.8-28.8-3.8L148 0H69.7L47.4 25.3S27.8 20 18.6 29l-17 17.5 6 14.7L.1 83l25 95.3c5.2 20.4 8.7 28.3 23.4 38.7l45.7 31c4.4 2.7 9.8 7.4 14.7 7.4s10.3-4.7 14.7-7.4l45.7-31c14.7-10.4 18.2-18.3 23.4-38.7l25-95.3z"/><path fill="#fff" d="M164 41.4s28.7 34.7 28.7 42c0 7.5-3.6 9.4-7.2 13.3l-21.5 23c-2 2-6.3 5.4-3.8 11.3 2.5 6 6 13.4 2 21-4 7.7-11 12.8-15.5 12a82 82 0 0 1-19-9c-3.8-2.5-16-12.6-16-16.5s12.6-11 15-12.4c2.3-1.6 13-7.8 13.2-10.2s.2-3-3-9-8.8-14-8-19.2c1-5.2 10-8 16.7-10.5l20.7-7.8c1.6-.8 1.2-1.5-3.6-2-4.8-.4-18.3-2.2-24.4-.5S122 71.2 121 72.6c-.8 1.4-1.6 1.4-.7 6.2l5.8 31.5c.4 4 1.2 6.7-3 7.7-4.4 1-11.7 2.7-14.2 2.7S99 119 94.7 118s-3.5-3.7-3-7.7c.4-4 4.8-26.8 5.7-31.5 1-4.8.1-4.8-.7-6.2-1-1.4-11.3-4-17.4-5.7-6-1.7-19.6.1-24.4.6-4.8.4-5.2 1-3.6 2L72 77.2c6.6 2.5 15.8 5.3 16.7 10.5 1 5.3-4.7 13.2-8 19.2s-3.2 6.6-3 9 11 8.6 13.2 10.2c2.4 1.5 15 8.5 15 12.4S94 152.5 90 155a82 82 0 0 1-19 9c-4.5.8-11.5-4.3-15.6-12-4-7.6-.4-15 2-21 2.5-6-1.7-9.2-3.8-11.3l-21.5-23C28.6 93 25 91 25 83.6s28.7-42 28.7-42L81 46c3.2 0 10.3-2.7 16.8-5 6.5-2 11-2.2 11-2.2s4.4 0 11 2.2 13.6 5 16.8 5c3.3 0 27.5-4.7 27.5-4.7zm-21.5 132.8c1.8 1 .7 3.2-1 4.4l-25.4 19.8c-2 2-5.2 5-7.3 5s-5.2-3-7.3-5A1320 1320 0 0 0 76 178.6c-1.6-1.2-2.7-3.3-1-4.4l15-8a87 87 0 0 1 18.8-7.3c1.5 0 11 3.4 18.7 7.3l15 8z"/><path fill="url(#b)" d="M170.4 25.3L148 0H69.7L47.4 25.3S27.8 20 18.6 29c0 0 26-2.3 35 12.3L81.2 46c3.2 0 10.3-2.7 16.8-5 6.5-2 11-2.2 11-2.2s4.4 0 11 2.2 13.6 5 16.8 5c3.3 0 27.5-4.7 27.5-4.7 9-14.6 35-12.3 35-12.3-9.2-9.2-28.8-3.8-28.8-3.8"/></svg>