<svg xmlns="http://www.w3.org/2000/svg" viewBox="-295 -110 2770 2770"><linearGradient id="a" y1="50.7%" y2="50.7%"><stop offset=".4" stop-color="#f50"/><stop offset=".6" stop-color="#ff2000"/></linearGradient><linearGradient id="b" x1="2.1%" y1="50.7%" y2="50.7%"><stop offset="0" stop-color="#ff452a"/><stop offset="1" stop-color="#ff2000"/></linearGradient><path fill="url(#a)" d="M210 61.3l6-14.7L199 29c-9.2-9.2-28.8-3.8-28.8-3.8L148 0H69.7L47.4 25.3S27.8 20 18.6 29l-17 17.5 6 14.7L.1 83l25 95.3c5.2 20.4 8.7 28.3 23.4 38.7l45.7 31c4.4 2.7 9.8 7.4 14.7 7.4s10.3-4.7 14.7-7.4l45.7-31c14.7-10.4 18.2-18.3 23.4-38.7l25-95.3z" transform="scale(10)"/><path fill="#fff" d="M1640 414s287 347 287 420c0 75-36 94-72 133l-215 230c-20 20-63 54-38 113 25 60 60 134 20 210-40 77-110 128-155 120a820 820 0 0 1-190-90c-38-25-160-126-160-165s126-110 150-124c23-16 130-78 132-102s2-30-30-90-88-140-80-192c10-52 100-80 167-105l207-78c16-8 12-15-36-20-48-4-183-22-244-5s-163 43-173 57c-8 14-16 14-7 62l58 315c4 40 12 67-30 77-44 10-117 27-142 27s-99-17-142-27-35-37-30-77c4-40 48-268 57-315 10-48 1-48-7-62-10-14-113-40-174-57-60-17-196 1-244 6-48 4-52 10-36 20l207 77c66 25 158 53 167 105 10 53-47 132-80 192s-32 66-30 90 110 86 132 102c24 15 150 85 150 124s-119 140-159 165a820 820 0 0 1-190 90c-45 8-115-43-156-120-40-76-4-150 20-210 25-60-17-92-38-113L321 967c-35-37-71-57-71-131s287-420 287-420l273 44c32 0 103-27 168-50 65-20 110-22 110-22s44 0 110 22 136 50 168 50c33 0 275-47 275-47zm-215 1328c18 10 7 32-10 44l-254 198c-20 20-52 50-73 50s-52-30-73-50a13200 13200 0 0 0-255-198c-16-12-27-33-10-44l150-80a870 870 0 0 1 188-73c15 0 110 34 187 73l150 80z"/><path fill="url(#b)" d="M170.4 25.3L148 0H69.7L47.4 25.3S27.8 20 18.6 29c0 0 26-2.3 35 12.3L81.2 46c3.2 0 10.3-2.7 16.8-5 6.5-2 11-2.2 11-2.2s4.4 0 11 2.2 13.6 5 16.8 5c3.3 0 27.5-4.7 27.5-4.7 9-14.6 35-12.3 35-12.3-9.2-9.2-28.8-3.8-28.8-3.8" transform="scale(10)"/></svg>