<svg xmlns="http://www.w3.org/2000/svg" xmlns:xlink="http://www.w3.org/1999/xlink" viewBox="1 1 190 190"><style>.a{stop-color:#a52714}.b{stop-opacity:0}.c{stop-color:#055524}.d{stop-color:#ea6100}.e{stop-color:#3e2723}.f{stop-color:#263238}.g{stop-color:#fff}.h{fill:#ffcd40}.i{fill:#fff}.j{fill-opacity:.2}.k{fill-opacity:.1}.l{fill:#3e2723}</style><linearGradient id="a" x1="29.3" x2="81.8" y1="75" y2="44.4" gradientUnits="userSpaceOnUse"><stop class="a" offset="0" stop-opacity=".6"/><stop class="a b" offset=".7"/></linearGradient><linearGradient id="b" x1="110.9" x2="52.5" y1="164.5" y2="130.3" gradientUnits="userSpaceOnUse"><stop class="c" offset="0" stop-opacity=".4"/><stop class="c b" offset=".3"/></linearGradient><linearGradient id="c" x1="121.9" x2="136.6" y1="49.8" y2="114.1" gradientUnits="userSpaceOnUse"><stop class="d" offset="0" stop-opacity=".3"/><stop class="d b" offset=".7"/></linearGradient><linearGradient id="d" x1="121.9" x2="136.6" y1="49.8" y2="114.1" gradientUnits="userSpaceOnUse" xlink:href="#c"/><linearGradient id="e" x1="29.3" x2="81.8" y1="75" y2="44.4" gradientUnits="userSpaceOnUse" xlink:href="#a"/><radialGradient id="f" cx="668.2" cy="56" r="84.1" gradientTransform="translate(-576)" gradientUnits="userSpaceOnUse"><stop class="e" offset="0" stop-opacity=".2"/><stop class="e b" offset="1"/></radialGradient><linearGradient id="g" x1="110.9" x2="52.5" y1="164.5" y2="130.3" gradientUnits="userSpaceOnUse" xlink:href="#b"/><radialGradient id="h" cx="597.9" cy="48.5" r="78" gradientTransform="translate(-576)" gradientUnits="userSpaceOnUse" xlink:href="#f"/><radialGradient id="i" cx="95.8" cy="96.1" r="87.9" gradientUnits="userSpaceOnUse"><stop class="f" offset="0" stop-opacity=".2"/><stop class="f b" offset="1"/></radialGradient><radialGradient id="j" cx="34.3" cy="32" r="176.8" gradientUnits="userSpaceOnUse"><stop class="g" offset="0" stop-opacity=".1"/><stop class="g b" offset="1"/></radialGradient><clipPath id="k"><circle cx="96" cy="96" r="88"/></clipPath><clipPath id="l"><path d="M8 184h83.8l39-39v-29H61.2L8 24.5z"/></clipPath><clipPath id="m"><path d="M96 56l34.6 60L92 184h92V56z"/></clipPath><clipPath id="n"><path d="M22 8v40.3L61.4 116 96 56h88V8z"/></clipPath><g clip-path="url(#k)"><path fill="#db4437" d="M22 8v108h39.4L96 56h88V8z"/><path fill="url(#a)" d="M22 8v108h39.4L96 56h88V8z"/></g><path d="M62.3 115.7L22.5 47.4l-.6 1 39 67.8z" class="k l" clip-path="url(#k)"/><g clip-path="url(#k)"><path fill="#0f9d58" d="M8 184h83.8l39-39v-29H61.2L8 24.5z"/><path fill="url(#b)" d="M8 184h83.8l39-39v-29H61.2L8 24.5z"/></g><path fill="#263238" d="M129.8 117.3l-.8-.4-38.3 67h1l38.3-67z" class="k" clip-path="url(#k)"/><g clip-path="url(#k)"><g clip-path="url(#l)"><path d="M96 56l34.6 60L92 184h92V56z" class="h"/><path fill="url(#c)" d="M96 56l34.6 60L92 184h92V56z"/></g></g><g clip-path="url(#k)"><path d="M96 56l34.6 60L92 184h92V56z" class="h"/><path fill="url(#d)" d="M96 56l34.6 60L92 184h92V56z"/></g><g clip-path="url(#k)"><g clip-path="url(#m)"><path fill="#db4437" d="M22 8v108h39.4L96 56h88V8z"/><path fill="url(#e)" d="M22 8v108h39.4L96 56h88V8z"/></g></g><path fill="url(#f)" d="M96 56v21l78.4-21z" clip-path="url(#k)"/><g clip-path="url(#k)"><g clip-path="url(#n)"><path fill="#0f9d58" d="M8 184h83.8l39-39v-29H61.2L8 24.5z"/><path fill="url(#g)" d="M8 184h83.8l39-39v-29H61.2L8 24.5z"/></g></g><path fill="url(#h)" d="M22 48.5l57.2 57.2L61.4 116z" clip-path="url(#k)"/><path fill="url(#i)" d="M91.8 184l21-78.3 17.8 10.3z" clip-path="url(#k)"/><g clip-path="url(#k)"><circle cx="96" cy="96" r="40" fill="#f1f1f1"/><circle cx="96" cy="96" r="32" fill="#4285f4"/></g><g clip-path="url(#k)"><path d="M96 55c-22 0-40 18-40 40v1c0-22 18-40 40-40h88v-1z" class="l j"/><path d="M130.6 116a40 40 0 0 1-69.2 0L8 24.5v1L61.4 117a40 40 0 0 0 69.2 0z" class="i k"/><path d="M97 56h-.5a40 40 0 1 1 0 80h.5c22 0 40-18 40-40s-18-40-40-40z" class="l k"/><path d="M131 117.3a39.3 39.3 0 0 0 3.4-32 38 38 0 0 1-3.8 30.7L92 184h1l38.2-66.5z" class="i j"/></g><g clip-path="url(#k)"><path d="M96 9a88 88 0 0 1 88 87.5V96A88 88 0 0 0 8 96v.5A88 88 0 0 1 96 9z" class="i j"/><path d="M96 183a88 88 0 0 0 88-87.5v.5A88 88 0 0 1 8 96v-.5A88 88 0 0 0 96 183z" class="l k"/></g><circle cx="96" cy="96" r="88" fill="url(#j)"/><path fill="none" d="M0 0h192v192H0z"/></svg>