<svg viewBox="1 1 190 190" xmlns="http://www.w3.org/2000/svg" xmlns:xlink="http://www.w3.org/1999/xlink"><style>.a{stop-color:#a52714}.b{stop-opacity:0}.c{stop-color:#055524}.d{stop-color:#ea6100}.e{stop-color:#3e2723}.f{stop-color:#263238}.g{stop-color:#fff}.h{fill:#ffcd40}.i{fill:#fff}.j{fill-opacity:.2}.k{fill-opacity:.1}.l{fill:#3e2723}</style><linearGradient id="s" x1="29.3" x2="81.8" y1="75" y2="44.4" gradientUnits="userSpaceOnUse"><stop class="a" stop-opacity=".6" offset="0"/><stop class="a b" offset=".7"/></linearGradient><linearGradient id="r" x1="110.9" x2="52.5" y1="164.5" y2="130.3" gradientUnits="userSpaceOnUse"><stop class="c" stop-opacity=".4" offset="0"/><stop class="c b" offset=".3"/></linearGradient><linearGradient id="q" x1="121.9" x2="136.6" y1="49.8" y2="114.1" gradientUnits="userSpaceOnUse"><stop class="d" stop-opacity=".3" offset="0"/><stop class="d b" offset=".7"/></linearGradient><linearGradient id="ab" x1="121.9" x2="136.6" y1="49.8" y2="114.1" gradientUnits="userSpaceOnUse" xlink:href="#q"/><linearGradient id="aa" x1="29.3" x2="81.8" y1="75" y2="44.4" gradientUnits="userSpaceOnUse" xlink:href="#s"/><radialGradient id="p" cx="668.2" cy="56" r="84.1" gradientTransform="translate(-576)" gradientUnits="userSpaceOnUse"><stop class="e" stop-opacity=".2" offset="0"/><stop class="e b" offset="1"/></radialGradient><linearGradient id="z" x1="110.9" x2="52.5" y1="164.5" y2="130.3" gradientUnits="userSpaceOnUse" xlink:href="#r"/><radialGradient id="y" cx="597.9" cy="48.5" r="78" gradientTransform="translate(-576)" gradientUnits="userSpaceOnUse" xlink:href="#p"/><radialGradient id="x" cx="95.8" cy="96.1" r="87.9" gradientUnits="userSpaceOnUse"><stop class="f" stop-opacity=".2" offset="0"/><stop class="f b" offset="1"/></radialGradient><radialGradient id="w" cx="34.3" cy="32" r="176.8" gradientUnits="userSpaceOnUse"><stop class="g" stop-opacity=".1" offset="0"/><stop class="g b" offset="1"/></radialGradient><clipPath id="o"><circle cx="96" cy="96" r="88"/></clipPath><clipPath id="v"><path d="M8 184h83.8l39-39v-29H61.2L8 24.5z"/></clipPath><clipPath id="u"><path d="M96 56l34.6 60L92 184h92V56z"/></clipPath><clipPath id="t"><path d="M22 8v40.3L61.4 116 96 56h88V8z"/></clipPath><g clip-path="url(#o)"><path d="M22 8v108h39.4L96 56h88V8z" fill="#db4437"/><path d="M22 8v108h39.4L96 56h88V8z" fill="url(#s)"/><path class="k l" d="m62.3 115.7-39.8-68.3-0.6 1 39 67.8z"/><path d="M8 184h83.8l39-39v-29H61.2L8 24.5z" fill="#0f9d58"/><path d="M8 184h83.8l39-39v-29H61.2L8 24.5z" fill="url(#r)"/><path class="k" d="M129.8 117.3l-.8-.4-38.3 67h1l38.3-67z" fill="#263238"/><g clip-path="url(#v)"><path class="h" d="M96 56l34.6 60L92 184h92V56z"/><path d="M96 56l34.6 60L92 184h92V56z" fill="url(#q)"/></g><path class="h" d="M96 56l34.6 60L92 184h92V56z"/><path d="M96 56l34.6 60L92 184h92V56z" fill="url(#ab)"/><g clip-path="url(#u)"><path d="M22 8v108h39.4L96 56h88V8z" fill="#db4437"/><path d="M22 8v108h39.4L96 56h88V8z" fill="url(#aa)"/></g><path d="m96 56v21l78.4-21z" fill="url(#p)"/><g clip-path="url(#t)"><path d="M8 184h83.8l39-39v-29H61.2L8 24.5z" fill="#0f9d58"/><path d="M8 184h83.8l39-39v-29H61.2L8 24.5z" fill="url(#z)"/></g><path d="M22 48.5l57.2 57.2L61.4 116z" fill="url(#y)"/><path d="m91.8 184 21-78.3 17.8 10.3z" fill="url(#x)"/><circle cx="96" cy="96" r="40" fill="#f1f1f1"/><circle cx="96" cy="96" r="32" fill="#4285f4"/><path class="l j" d="m96 55c-22 0-40 18-40 40v1c0-22 18-40 40-40h88v-1z"/><path class="i k" d="M130.6 116a40 40 0 0 1-69.2 0L8 24.5v1L61.4 117a40 40 0 0 0 69.2 0z"/><path class="l k" d="M97 56h-.5a40 40 0 1 1 0 80h.5c22 0 40-18 40-40s-18-40-40-40z"/><path class="i j" d="M131 117.3a39.3 39.3 0 0 0 3.4-32 38 38 0 0 1-3.8 30.7L92 184h1l38.2-66.5z"/><path class="i j" d="M96 9a88 88 0 0 1 88 87.5V96A88 88 0 0 0 8 96v.5A88 88 0 0 1 96 9z"/><path class="l k" d="M96 183a88 88 0 0 0 88-87.5v.5A88 88 0 0 1 8 96v-.5A88 88 0 0 0 96 183z"/></g><circle cx="96" cy="96" r="88" fill="url(#w)"/><path d="M0 0h192v192H0z" fill="none"/></svg>