<svg xmlns="http://www.w3.org/2000/svg" xmlns:xlink="http://www.w3.org/1999/xlink" viewBox="-29.5 -11 277 277"><defs><linearGradient id="a" y1="50.7%" y2="50.7%"><stop stop-color="#f50" offset="0"/><stop stop-color="#f50" offset=".4"/><stop stop-color="#ff2000" offset=".6"/></linearGradient><linearGradient id="b" x1="2.1%" y1="50.7%" y2="50.7%"><stop stop-color="#ff452a" offset="0"/><stop stop-color="#ff2000" offset="1"/></linearGradient><path id="c" d="M4.5 0h117.8a4.5 4.5 0 0 1 4.6 4.5v51.3a4.5 4.5 0 0 1-4.5 4.5H4.5A4.5 4.5 0 0 1 0 55.8V4.5A4.5 4.5 0 0 1 4.5 0z"/><filter id="d" x="-6.7%" y="-10.8%" width="113.4%" height="128.2%"><feOffset dy="2" in="a"/><feGaussianBlur stdDeviation="2.5"/><feColorMatrix values="0 0 0 0 0 0 0 0 0 0 0 0 0 0 0 0 0 0 0.3 0"/></filter></defs><path d="M210.1 61.3l6-14.7-17-17.6c-9.2-9.2-28.8-3.8-28.8-3.8L148.1 0H69.7L47.4 25.3S27.8 20 18.6 29.1C9.3 38.4 1.7 46.6 1.7 46.6l6 14.7L.1 83l25 95.3c5.2 20.4 8.7 28.3 23.4 38.7 14.7 10.3 41.4 28.3 45.7 31 4.4 2.7 9.8 7.4 14.7 7.4s10.3-4.7 14.7-7.4c4.3-2.7 31-20.7 45.7-31 14.7-10.4 18.2-18.3 23.4-38.7l25-95.3z" fill="url(#a)"/><path d="M164.1 41.4s28.7 34.7 28.7 42.1c0 7.5-3.6 9.4-7.2 13.3l-21.5 22.9c-2 2.1-6.3 5.4-3.8 11.3 2.5 6 6.1 13.4 2 21-4 7.7-11 12.7-15.5 12a89 89 0 0 1-19-9c-3.8-2.5-16-12.6-16-16.5s12.6-10.9 15-12.4c2.3-1.6 13-7.8 13.2-10.2s.2-3-3-9-8.8-13.9-7.9-19.2c1-5.2 10.1-8 16.7-10.5l20.7-7.8c1.6-.8 1.2-1.5-3.6-2-4.8-.4-18.3-2.2-24.4-.5s-16.5 4.3-17.4 5.7c-.8 1.4-1.6 1.4-.7 6.2l5.8 31.5c.4 4 1.2 6.7-3.1 7.7s-11.7 2.7-14.2 2.7-9.8-1.7-14.2-2.7-3.5-3.7-3-7.7c.4-4 4.8-26.8 5.7-31.5.9-4.8.1-4.8-.7-6.2-.9-1.4-11.3-4-17.4-5.7-6-1.7-19.6.1-24.4.6-4.7.4-5.2 1.1-3.6 1.9l20.8 7.8c6.6 2.5 15.8 5.3 16.7 10.5 1 5.3-4.7 13.2-7.9 19.2s-3.2 6.6-3 9 10.9 8.6 13.2 10.2c2.4 1.5 15 8.5 15 12.4s-12.2 14-16 16.5a89 89 0 0 1-19 9c-4.5.7-11.5-4.3-15.6-12-4-7.6-.4-15 2.1-21 2.5-5.9-1.7-9.2-3.8-11.3l-21.5-23c-3.7-3.7-7.2-5.7-7.2-13.1s28.7-42.1 28.7-42.1S77.9 46 81.1 46s10.3-2.7 16.8-4.9c6.5-2.1 10.9-2.2 10.9-2.2s4.3 0 10.9 2.2c6.5 2.2 13.6 5 16.8 5a473 473 0 0 0 27.5-4.7zm-21.5 132.8c1.8 1.1.7 3.2-1 4.4-1.5 1.1-23.3 18-25.4 19.8-2.1 2-5.2 5-7.3 5s-5.2-3-7.3-5a1306 1306 0 0 0-25.5-19.8c-1.6-1.2-2.7-3.3-1-4.4l15-7.9a87 87 0 0 1 18.8-7.3 87 87 0 0 1 18.7 7.3l15 8z" fill="#fff"/><path d="M170.4 25.3L148.1 0H69.7L47.4 25.3S27.8 20 18.6 29.1c0 0 26.1-2.3 35 12.3 0 0 24.3 4.6 27.6 4.6 3.2 0 10.3-2.7 16.8-4.9 6.5-2.1 10.9-2.2 10.9-2.2s4.3 0 10.9 2.2c6.5 2.2 13.6 5 16.8 5a473 473 0 0 0 27.5-4.7c9-14.6 35.1-12.3 35.1-12.3-9.2-9.2-28.8-3.8-28.8-3.8" fill="url(#b)"/><g transform="translate(102.5 182.9)"><use filter="url(#d)" xlink:href="#c"/><use fill="#f2f2f2" xlink:href="#c"/></g><path d="M135.5 222.1a8.7 8.7 0 0 0 2.3-6.2c0-2.6-.8-4.7-2.3-6.2a7.4 7.4 0 0 0-5.4-2.2c-2 0-3.9.8-5.4 2.3a8.4 8.4 0 0 0-2.2 6.1c0 2.6.7 4.7 2.2 6.2a7.3 7.3 0 0 0 5.4 2.3 7.3 7.3 0 0 0 5.4-2.3zm-4.3-19.1c3.4 0 6.3 1.2 8.5 3.6a13 13 0 0 1 3.4 9.3c0 3.8-1.2 7-3.4 9.4a11 11 0 0 1-8.5 3.7 9.7 9.7 0 0 1-5.2-1.4 10.3 10.3 0 0 1-3.5-3.7v4.7h-5.2v-33.9h5.2V208a9.9 9.9 0 0 1 8.7-5zm27.7 26c-3.7 0-6.7-1.2-9-3.6a13 13 0 0 1-3.4-9.5c0-3.9 1.2-7 3.5-9.4a12 12 0 0 1 9-3.5c3.6 0 6.6 1.1 9 3.4a12 12 0 0 1 3.3 8.9c0 .8 0 1.7-.2 2.4H152a7.2 7.2 0 0 0 2 5 6.8 6.8 0 0 0 5 1.9c2.8 0 4.8-1.2 6-3.5h5.6a11.3 11.3 0 0 1-4.2 5.7 12.2 12.2 0 0 1-7.4 2.2zm7-14.8a6.5 6.5 0 0 0-2-5 7 7 0 0 0-5-1.8c-1.9 0-3.5.6-4.8 1.8a7.5 7.5 0 0 0-2.2 5zm22.8-6.6h-6.2v14c0 1 .3 1.6.7 2s1.2.6 2.3.6h3.2v4.4h-4.2c-4.8 0-7.2-2.4-7.2-7v-14h-3v-4.2h3V197h5.2v6.3h6.2v4.2zm21.4 14.6c1.5-1.6 2.2-3.7 2.2-6.3s-.7-4.6-2.2-6.1a7.3 7.3 0 0 0-5.4-2.3c-2 0-3.8.7-5.4 2.2a8.2 8.2 0 0 0-2.2 6.2c0 2.6.7 4.6 2.2 6.2a7.2 7.2 0 0 0 5.4 2.4c2 0 3.9-.8 5.4-2.3zm-6.5 6.8a11.1 11.1 0 0 1-8.4-3.7 13.3 13.3 0 0 1-3.5-9.4c0-3.8 1.2-7 3.4-9.3 2.3-2.4 5.1-3.6 8.5-3.6 2 0 3.7.4 5.3 1.3a9.5 9.5 0 0 1 3.5 3.6v-4.5h5.2v25.2h-5.3v-4.7a9.7 9.7 0 0 1-8.7 5z" fill="#2f2f2f"/></svg>