<svg xmlns="http://www.w3.org/2000/svg" xmlns:xlink="http://www.w3.org/1999/xlink" viewBox="0 0 953 1022"><linearGradient id="a" x1="-8960" x2="-8752.8" y1="-6718.1" y2="-6718.1" gradientTransform="matrix(1.22 .12 -.12 1.22 10304 9602.1)" gradientUnits="userSpaceOnUse"><stop offset="0" stop-color="#666"/><stop offset=".16" stop-color="#606060"/><stop offset=".38" stop-color="#4e4e4e"/><stop offset=".64" stop-color="#303030"/><stop offset=".92" stop-color="#080808"/><stop offset=".97"/></linearGradient><linearGradient id="c" x1="215.03" x2="177.41" y1="-1064.4" y2="-1181.2" gradientTransform="matrix(.99 .1 -.1 .99 -174.08 1317.6)" gradientUnits="userSpaceOnUse"><stop offset="0" stop-color="#4d4d4d"/><stop offset=".19" stop-color="#474747"/><stop offset=".46" stop-color="#353535"/><stop offset=".77" stop-color="#181818"/><stop offset=".97"/></linearGradient><linearGradient id="d" x1="42.16" x2="69.1" y1="627.29" y2="767.52" gradientTransform="matrix(.99 .1 -.1 .99 305.06 -242.85)" gradientUnits="userSpaceOnUse"><stop offset="0" stop-color="#666"/><stop offset=".16" stop-color="#5d5d5d"/><stop offset=".42" stop-color="#464646"/><stop offset=".74" stop-color="#202020"/><stop offset=".97"/></linearGradient><radialGradient id="e" cx="95.14" cy="770.13" r="263.97" gradientTransform="matrix(.99762 -.06889 .0434 .6285 194.45 58.32)" gradientUnits="userSpaceOnUse"><stop offset=".64"/><stop offset=".95" stop-color="#4d4d4d"/></radialGradient><linearGradient id="f" x1="790.38" x2="666.12" y1="476.45" y2="631.22" gradientUnits="userSpaceOnUse"><stop offset="0" stop-color="#666"/><stop offset=".97"/></linearGradient><linearGradient id="g" x1="-7686.7" x2="-7487" y1="-8228" y2="-7574.2" gradientTransform="matrix(1.23 0 0 1.22 9930.2 9899.6)" xlink:href="#a"/><linearGradient id="h" x1="854.54" x2="681.52" y1="200.03" y2="485.51" gradientUnits="userSpaceOnUse"><stop offset="0" stop-color="gray"/><stop offset=".97"/></linearGradient><linearGradient id="i" x1="-8673.8" x2="-8396.4" y1="-6273.6" y2="-6273.6" gradientTransform="matrix(1.22 .12 -.12 1.22 10304 9602.1)" gradientUnits="userSpaceOnUse"><stop offset="0" stop-color="gray"/><stop offset=".97" stop-color="#333"/></linearGradient><linearGradient id="j" x1="679" x2="1007.6" y1="752.46" y2="752.46" gradientUnits="userSpaceOnUse"><stop offset="0" stop-color="#666"/><stop offset=".97" stop-color="#333"/></linearGradient><linearGradient id="k" x1="-8422.3" x2="-8234.8" y1="-6622.4" y2="-6622.4" gradientTransform="matrix(1.22 .12 -.12 1.22 10304 9602.1)" gradientUnits="userSpaceOnUse"><stop offset="0" stop-color="gray"/><stop offset=".97" stop-color="#1a1a1a"/></linearGradient><radialGradient id="l" cx="-7709.9" cy="-7489.3" r="650.78" fx="-7750.7" gradientTransform="matrix(1.23 0 0 1.22 9930.2 9899.6)" gradientUnits="userSpaceOnUse"><stop offset=".03" stop-color="#ff272d" stop-opacity="0"/><stop offset=".15" stop-color="#ff2730" stop-opacity=".01"/><stop offset=".26" stop-color="#ff2838" stop-opacity=".06"/><stop offset=".37" stop-color="#ff2a45" stop-opacity=".13"/><stop offset=".48" stop-color="#ff2c58" stop-opacity=".24"/><stop offset=".59" stop-color="#ff2e70" stop-opacity=".37"/><stop offset=".69" stop-color="#ff328e" stop-opacity=".54"/><stop offset=".8" stop-color="#ff36b1" stop-opacity=".74"/><stop offset=".9" stop-color="#ff3ad8" stop-opacity=".96"/><stop offset=".92" stop-color="#ff3be0"/></radialGradient><radialGradient id="m" cx="-7561.9" cy="-7941.3" r="650.78" fx="-7602.7" gradientTransform="matrix(1.23 0 0 1.22 9930.2 9899.6)" gradientUnits="userSpaceOnUse"><stop offset=".03" stop-color="#ff3be0"/><stop offset=".11" stop-color="#ff37be" stop-opacity=".81"/><stop offset=".25" stop-color="#ff3081" stop-opacity=".47"/><stop offset=".36" stop-color="#ff2b54" stop-opacity=".22"/><stop offset=".45" stop-color="#ff2838" stop-opacity=".06"/><stop offset=".49" stop-color="#ff272d" stop-opacity="0"/></radialGradient><linearGradient id="n" x1="524.74" x2="301.4" y1="677.08" y2="-53.5" gradientUnits="userSpaceOnUse"><stop offset="0" stop-color="#000f43" stop-opacity=".3"/><stop offset=".35" stop-color="#00165a" stop-opacity=".17"/><stop offset="1" stop-color="#002079" stop-opacity="0"/></linearGradient><linearGradient id="o" x1="540.67" x2="349.23" y1="729.19" y2="102.96" gradientUnits="userSpaceOnUse"><stop offset="0" stop-color="#000f43" stop-opacity=".4"/><stop offset=".48" stop-color="#001962" stop-opacity=".17"/><stop offset="1" stop-color="#002079" stop-opacity="0"/></linearGradient><filter id="b" width="953.36" height="984" x="0" y="0" color-interpolation-filters="sRGB" filterUnits="userSpaceOnUse"><feColorMatrix result="invert" values="-1 0 0 0 1 0 -1 0 0 1 0 0 -1 0 1 0 0 0 1 0"/><feFlood flood-color="#fff" result="bg"/><feBlend in="invert" in2="bg"/></filter><mask id="q" width="953.36" height="984" x="0" y="0" maskUnits="userSpaceOnUse"><g filter="url(#b)"><path fill="url(#a)" d="M477.59 319.37c.39-8.77-4.16-14.66-76.68-21.46-29.84-2.76-41.26-30.33-44.75-41.94-10.61 27.56-15 56.49-12.64 91.48 1.61 22.92 17 47.52 24.37 62 0 0 1.64-2.13 2.39-2.91 13.86-14.43 71.94-36.42 77.39-39.54 6.02-3.84 28.91-20.56 29.92-47.63z"/><path fill="url(#c)" d="M158.31 156.47c-1-1.82-1.6 3.75-2.4 2-6-13.81-9.58-36.2-8.72-52 0 0-12.32 5.61-22.51 29.06-1.89 4.21-3.11 6.54-4.32 8.86-.56.68 1.27-7.7 1-7.24-1.77 3-6.36 7.19-8.35 12.38-1.65 4.24-3.35 6.52-4.61 11.77-.39 1.43.39-6.32.05-5.38C84.72 201.68 80.19 271 82.69 268 133.17 214.14 191 201.36 191 201.36c-6.15-4.53-19.53-17.63-32.7-44.89z"/><path fill="url(#d)" d="M349.84 720.1c-69.72-29.77-149-71.75-146-167.14C207.92 427.35 321 452.18 321 452.18c-4.27 1-15.68 9.16-19.72 17.82-4.27 10.83-12.07 35.28 11.55 60.9 37.09 40.19-76.2 95.36 98.66 199.57 4.41 2.4-41-1.43-61.64-10.36z"/><path fill="url(#e)" d="M325.07 657.5c49.44 17.21 107 14.19 141.52-4.86 23.09-12.85 52.7-33.43 70.92-28.35-15.78-6.24-27.73-9.15-42.1-9.86-2.45 0-5.38-.05-8-.32a136.23 136.23 0 0 0-15.76.86c-8.9.82-18.77 6.43-27.74 5.53-.48 0 8.7-3.77 8-3.61-4.75 1-9.92 1.21-15.37 1.88-3.47.39-6.45.82-9.89 1-103 8.73-190-55.81-190-55.81-7.41 25 33.17 74.3 88.52 93.57z"/><path fill="url(#f)" d="M798.81 535.55C762.41 460.35 717 427.55 674 392c5 7 6.23 9.47 9 14 37.83 40.32 93.61 138.66 53.11 262.11C659.88 900.48 355 791.06 323 760.32c12.93 134.49 238 198.84 384.6 111.63C791 793 858.47 658.79 798.81 535.55z"/><path fill="url(#g)" d="M813.92 801c21.08-23.24 40-49.82 54.35-80 36.9-77.58 94-206.58 49-341.31C881.77 273.22 833 215 771.11 158.12 670.56 65.76 642.48 24.52 642.48 0c0 0-116.09 129.41-65.74 264.38s153.46 130 221.68 270.87c80.27 165.74-64.95 346.61-185 397.24 7.35-1.63 267-60.38 280.61-208.88-.35 2.73-6.2 43.8-80.11 77.39z"/><path fill="url(#h)" d="M770.28 91.56c-10.12 11.78-17.94 29.81-21.78 51.48 44.44 35.4 107.39 94.36 150 185.23q6.74 14.38 12 28.65C866.06 228.88 770.28 127 770.28 91.56z"/><path fill="url(#i)" d="M614.73 931.91l-3.28 1c23.58 1.88 86.66.15 114.3-25.95q-3.43 3.77-7.14 7.26l.51-.38-.4.51c8.42-7.94 14.83-16.3 18.84-24.61-62.56 28.86-120.76 42-124.19 42.79z"/><path fill="url(#j)" d="M813.92 801l.53-.24 1.76-2.31c-.77.83-1.52 1.69-2.29 2.55zm79-97c-21.09 34-47.31 66.29-78.06 96.63 63.58-29.15 76.22-63.8 78.63-74.08a55.53 55.53 0 0 0-.6-22.62z"/><path fill="url(#k)" d="M923.47 580.26c28.57-61.89 26.58-122.61 25.29-139.81-.42-2.64-.72-4.1-.72-4.1s-6.09 7.07-15.24 20.13c3.68 44.63-.87 86.52-9.33 123.78z"/></g></mask><radialGradient id="p" cx="535.42" cy="397.74" r="654.25" gradientUnits="userSpaceOnUse"><stop offset=".78" stop-color="#fff"/><stop offset="1" stop-color="#fff"/></radialGradient><linearGradient id="r" x1="760.39" x2="774.1" y1="-145.42" y2="279.62" gradientUnits="userSpaceOnUse"><stop offset="0" stop-color="#fff" stop-opacity=".8"/><stop offset=".97" stop-color="#fff"/></linearGradient><path fill="#c42482" d="M476.92 972.83c245.24 0 443.9-199.74 443.9-446s-198.66-446-443.66-446S33.5 280.51 33.5 526.8C33 773.33 231.92 972.83 476.92 972.83z"/><path fill="url(#l)" d="M476.92 972.83c245.24 0 443.9-199.74 443.9-446s-198.66-446-443.66-446S33.5 280.51 33.5 526.8C33 773.33 231.92 972.83 476.92 972.83z"/><path fill="url(#m)" d="M476.92 972.83c245.24 0 443.9-199.74 443.9-446s-198.66-446-443.66-446S33.5 280.51 33.5 526.8C33 773.33 231.92 972.83 476.92 972.83z"/><g opacity=".4"><path fill="url(#n)" d="M810.67 803.64a246.89 246.89 0 0 1-30.12 18.18 704 704 0 0 0 38.3-63c9.46-10.47 18.13-20.65 25.19-31.65a297.65 297.65 0 0 0 11.42-19.82c24.92-44.9 52.4-117.56 53.18-192.2V515v-5.51a257.6 257.6 0 0 0-5.71-55.75c.2 1.43.38 2.86.56 4.29-.22-1.1-.41-2.21-.64-3.31.37 2 .66 4 1 6 5.09 43.22 1.47 85.37-16.68 116.45l-.87 1.32c9.41-47.23 12.56-99.39 2.09-151.6 0 0-4.19-25.38-35.38-102.44-18-44.35-49.83-80.72-78-107.21-24.69-30.55-47.11-51-59.47-64.06-25.82-27.19-36.64-47.57-41.09-60.87-3.85-1.93-53.14-49.81-57.05-51.63-21.51 33.35-89.16 137.67-57 235.15 14.58 44.17 51.47 90 90.07 115.74 1.69 1.94 23 25 33.09 77.16 10.45 53.85 5 95.86-16.54 158-25.29 54.51-90.07 108.39-150.72 113.9-129.67 11.78-177.15-65.11-177.15-65.11 46.34 18.52 97.57 14.65 128.72-4.56 31.4-19.43 50.39-33.83 65.81-28.15C548.86 648.43 561 632 550.1 615a78.5 78.5 0 0 0-79.4-34.57c-31.43 5.11-60.23 30-101.41 5.89a85.53 85.53 0 0 1-7.73-5.06c-2.71-1.79 8.83 2.72 6.13.69-8-4.35-22.2-13.84-25.88-17.22-.61-.56 6.22 2.18 5.61 1.62-38.51-31.71-33.7-53.13-32.49-66.57 1-10.75 8-24.52 19.75-30.11 5.69 3.11 9.24 5.48 9.24 5.48s-2.43-5-3.74-7.58c.46-.2.9-.15 1.36-.34 4.66 2.25 15 8.1 20.41 11.67 7.07 5 9.33 9.44 9.33 9.44s1.86-1 .48-5.37c-.5-1.78-2.65-7.45-9.65-13.17h.44a81.2 81.2 0 0 1 11.87 8.24c2-7.18 5.53-14.68 4.75-28.09-.48-9.43-.26-11.87-1.92-15.51-1.49-3.13.83-4.35 3.42-1.1a32.83 32.83 0 0 0-2.21-7.4v-.24c3.23-11.24 68.25-40.46 73-43.88a67.36 67.36 0 0 0 19.13-20.8c3.62-5.76 6.34-13.85 7-26.11.36-8.84-3.76-14.73-69.51-21.62-18-1.77-28.53-14.8-34.53-26.82a162.7 162.7 0 0 0-3.33-7.28 58 58 0 0 1-2.56-8.43c10.75-30.87 28.81-57 55.37-76.7 1.45-1.32-5.78.34-4.34-1 1.69-1.54 12.71-6 14.79-7 2.54-1.2-10.88-6.9-22.73-5.51-12.07 1.36-14.63 2.8-21.07 5.53 2.67-2.66 11.17-6.15 9.18-6.13-13 2-29.18 9.56-43 18.12a10.73 10.73 0 0 1 .83-4.35c-6.44 2.73-22.26 13.79-26.87 23.14a44.33 44.33 0 0 0 .27-5.4 84.48 84.48 0 0 0-13.19 13.82l-.24.22c-37.36-15-70.23-16-98.05-9.28-6.09-6.11-9.06-1.64-22.91-32.07-.94-1.83.72 1.81 0 0-2.28-5.9 1.39 7.87 0 0-23.28 18.37-53.92 39.19-68.63 53.89-.18.59 17.16-4.9 0 0-6 1.72-5.6 5.28-6.51 37.5-.22 2.44 0 5.18-.22 7.38-11.75 15-19.75 27.64-22.78 34.21-15.19 26.18-31.93 67-48.15 131.55a334.36 334.36 0 0 1 25.79-50.32c-13.49 34.27-26.53 88.08-29.13 170.94a483.61 483.61 0 0 1 12.53-50.66 473 473 0 0 0 34.73 201.07c9.33 22.82 24.76 57.46 51 95.4C226.9 902 343.31 956 472.21 956c134.58 0 255.43-58.87 338.46-152.36z"/><path fill="url(#o)" d="M810.67 803.64a246.89 246.89 0 0 1-30.12 18.18 704 704 0 0 0 38.3-63c9.46-10.47 18.13-20.65 25.19-31.65a297.65 297.65 0 0 0 11.42-19.82c24.92-44.9 52.4-117.56 53.18-192.2V515v-5.51a257.6 257.6 0 0 0-5.71-55.75c.2 1.43.38 2.86.56 4.29-.22-1.1-.41-2.21-.64-3.31.37 2 .66 4 1 6 5.09 43.22 1.47 85.37-16.68 116.45l-.87 1.32c9.41-47.23 12.56-99.39 2.09-151.6 0 0-4.19-25.38-35.38-102.44-18-44.35-49.83-80.72-78-107.21-24.69-30.55-47.11-51-59.47-64.06-25.82-27.19-36.64-47.57-41.09-60.87-3.85-1.93-53.14-49.81-57.05-51.63-21.51 33.35-89.16 137.67-57 235.15 14.58 44.17 51.47 90 90.07 115.74 1.69 1.94 23 25 33.09 77.16 10.45 53.85 5 95.86-16.54 158-25.29 54.51-90.07 108.39-150.72 113.9-129.67 11.78-177.15-65.11-177.15-65.11 46.34 18.52 97.57 14.65 128.72-4.56 31.4-19.43 50.39-33.83 65.81-28.15C548.86 648.43 561 632 550.1 615a78.5 78.5 0 0 0-79.4-34.57c-31.43 5.11-60.23 30-101.41 5.89a85.53 85.53 0 0 1-7.73-5.06c-2.71-1.79 8.83 2.72 6.13.69-8-4.35-22.2-13.84-25.88-17.22-.61-.56 6.22 2.18 5.61 1.62-38.51-31.71-33.7-53.13-32.49-66.57 1-10.75 8-24.52 19.75-30.11 5.69 3.11 9.24 5.48 9.24 5.48s-2.43-5-3.74-7.58c.46-.2.9-.15 1.36-.34 4.66 2.25 15 8.1 20.41 11.67 7.07 5 9.33 9.44 9.33 9.44s1.86-1 .48-5.37c-.5-1.78-2.65-7.45-9.65-13.17h.44a81.2 81.2 0 0 1 11.87 8.24c2-7.18 5.53-14.68 4.75-28.09-.48-9.43-.26-11.87-1.92-15.51-1.49-3.13.83-4.35 3.42-1.1a32.83 32.83 0 0 0-2.21-7.4v-.24c3.23-11.24 68.25-40.46 73-43.88a67.36 67.36 0 0 0 19.13-20.8c3.62-5.76 6.34-13.85 7-26.11.36-8.84-3.76-14.73-69.51-21.62-18-1.77-28.53-14.8-34.53-26.82a162.7 162.7 0 0 0-3.33-7.28 58 58 0 0 1-2.56-8.43c10.75-30.87 28.81-57 55.37-76.7 1.45-1.32-5.78.34-4.34-1 1.69-1.54 12.71-6 14.79-7 2.54-1.2-10.88-6.9-22.73-5.51-12.07 1.36-14.63 2.8-21.07 5.53 2.67-2.66 11.17-6.15 9.18-6.13-13 2-29.18 9.56-43 18.12a10.73 10.73 0 0 1 .83-4.35c-6.44 2.73-22.26 13.79-26.87 23.14a44.33 44.33 0 0 0 .27-5.4 84.48 84.48 0 0 0-13.19 13.82l-.24.22c-37.36-15-70.23-16-98.05-9.28-6.09-6.11-9.06-1.64-22.91-32.07-.94-1.83.72 1.81 0 0-2.28-5.9 1.39 7.87 0 0-23.28 18.37-53.92 39.19-68.63 53.89-.18.59 17.16-4.9 0 0-6 1.72-5.6 5.28-6.51 37.5-.22 2.44 0 5.18-.22 7.38-11.75 15-19.75 27.64-22.78 34.21-15.19 26.18-31.93 67-48.15 131.55a334.36 334.36 0 0 1 25.79-50.32c-13.49 34.27-26.53 88.08-29.13 170.94a483.61 483.61 0 0 1 12.53-50.66 473 473 0 0 0 34.73 201.07c9.33 22.82 24.76 57.46 51 95.4C226.9 902 343.31 956 472.21 956c134.58 0 255.43-58.87 338.46-152.36z"/></g><path fill="url(#p)" d="M896.18 698.54q1.57-2.61 3.09-5.23l.13-.23 3-5.2.13-.24q1.46-2.6 2.89-5.22l.17-.31q1.41-2.59 2.77-5.18l.17-.32q1.36-2.59 2.68-5.19l.19-.38q1.3-2.58 2.57-5.17l.21-.43q1.25-2.57 2.47-5.15l.22-.48q1.2-2.56 2.36-5.12l.24-.53q1.14-2.54 2.26-5.09l.26-.6q1.09-2.52 2.15-5.05l.27-.67 2-5 .28-.71q1-2.5 1.95-5l.29-.77q.94-2.48 1.84-5l.3-.84q.88-2.46 1.74-4.93l.3-.88q.84-2.45 1.65-4.91l.3-.95q.79-2.43 1.55-4.87l.3-1c.49-1.61 1-3.22 1.45-4.84l.3-1.07a431.16 431.16 0 0 0 1.67-5.98c.43-1.57.85-3.14 1.25-4.72l.32-1.27 1.16-4.66.31-1.35c.36-1.53.72-3.07 1.06-4.6l.3-1.41 1-4.57.29-1.47c.3-1.51.61-3 .89-4.54l.28-1.54c.28-1.49.55-3 .81-4.49l.27-1.62.72-4.43.25-1.69c.22-1.46.44-2.92.64-4.39l.23-1.8c.19-1.43.38-2.87.55-4.31l.21-1.89c.16-1.41.33-2.82.48-4.24l.19-2 .39-4.14.16-2.08c.11-1.37.23-2.73.32-4.1l.13-2.16c.09-1.35.18-2.7.25-4 0-.75.07-1.51.1-2.26.06-1.32.13-2.64.18-4 0-.78 0-1.56.07-2.34 0-1.31.09-2.61.11-3.92v-2.45-3.83-2.6-3.71c0-.9 0-1.8-.06-2.7 0-1.21 0-2.41-.08-3.63 0-.94-.07-1.87-.1-2.81 0-1.18-.08-2.36-.13-3.54 0-.95-.1-1.89-.15-2.84l-.19-3.53-.21-3-.24-3.41-.27-3.15-.28-3.27c-.1-1.09-.23-2.21-.34-3.31l-.32-3.13c-.11-1.05-.28-2.35-.42-3.52l-.35-2.94c-.17-1.35-.36-2.7-.55-4.05l-.33-2.43q-.47-3.25-1-6.51s.21 1.69.44 4.82c-.42-2.64-.72-4.1-.72-4.1s-6.09 7.07-15.24 20.13a370.23 370.23 0 0 0-22.26-99.56C866.06 228.88 770.28 127 770.28 91.56c-9.32 10.86-16.69 27-20.8 46.44-83-78.39-107-115.33-107-138 0 0-116.09 129.41-65.74 264.38C606.24 343.47 653.86 374.52 702 415c-9.36-7.84-18.71-15.36-28-23l.39.55c25.15 36.37 39 81.16 39 129.33 0 121.24-98.34 219.53-219.65 219.53a220.45 220.45 0 0 1-49.13-5.52 203.75 203.75 0 0 1-51.36-16.81q2 1.32 4.1 2.65c-37.47-23.93-59.62-45.18-72.17-64.2 49.42 17.17 107 14.15 141.43-4.89 23.09-12.85 52.7-33.43 70.92-28.35l-1.24-.48a24.13 24.13 0 0 1 3.38.85c16.82 5.61 30.21-10.67 18.2-27.54-11.77-16.85-42.4-41-87.88-34.29-34.79 5.07-66.66 29.76-112.24 5.84a96.31 96.31 0 0 1-8.55-5c-3-1.77 9.77 2.69 6.79.68-8.87-4.32-24.57-13.73-28.64-17.07-.68-.56 6.88 2.16 6.2 1.6-14.15-10.44-23-19.75-28.49-28q.79 1.24 1.66 2.49c-16-22.77-9.29-43.58-5.44-53.34 2.63-5.64 8.39-11 13.26-14.42l-1.12.8a32.59 32.59 0 0 1 6-3.38c6.3 3.08 10.23 5.43 10.23 5.43s-2.69-4.92-4.14-7.51c.51-.19 1-.15 1.5-.34 5.16 2.23 16.58 8 22.59 11.57 7.83 4.95 10.32 9.36 10.32 9.36s2.06-1 .54-5.33c-.56-1.77-2.93-7.39-10.68-13.07h.48a90.85 90.85 0 0 1 13.13 8.17c2.19-7.12 6.12-14.56 5.25-27.86-.53-9.35-.28-11.78-2.12-15.39-1.65-3.1.92-4.31 3.78-1.09a30 30 0 0 0-2.44-7.34v-.24s1.64-2.13 2.39-2.91c13.86-14.43 71.94-36.42 77.39-39.54 6-3.8 28.9-20.52 29.91-47.59.39-8.77-4.16-14.66-76.68-21.46-29.84-2.76-41.26-30.33-44.75-41.94l-.1.27c0-.16-.09-.33-.12-.48a158.47 158.47 0 0 1 61.28-76.06c1.6-1.31-6.4.33-4.8-1 1.87-1.52 14.06-5.93 16.37-6.92 2.81-1.19-12-6.84-25.16-5.47-13.36 1.35-16.19 2.78-23.32 5.49 3-2.64 12.37-6.1 10.16-6.08-14.4 2-32.3 9.48-47.6 18a9.68 9.68 0 0 1 .92-4.31c-7.13 2.71-24.64 13.67-29.73 23a39.49 39.49 0 0 0 .29-5.35 88.68 88.68 0 0 0-14.6 13.7l-.27.22C258.14 196 221.75 195 191 201.72l-.31-.28.36-.08c-6.15-4.53-19.53-17.63-32.7-44.89-1-1.82-1.6 3.75-2.4 2-6-13.81-9.58-36.2-8.72-52 0 0-12.32 5.61-22.51 29.06-1.89 4.21-3.11 6.54-4.32 8.86-.56.68 1.27-7.7 1-7.24-1.77 3-6.36 7.19-8.35 12.38-1.65 4.24-3.35 6.52-4.61 11.77-.39 1.43.39-6.32.05-5.38C86.62 198 81 260 82.23 267.39v.48C69.2 282.72 60.34 295.28 57 301.8c-16.81 26-35.33 66.44-53.29 130.46a319.14 319.14 0 0 1 28.54-50C17.32 416.25 2.89 469.62 0 551.8a438.52 438.52 0 0 1 13.87-50.24C11.29 556.36 17.68 624.3 52.32 701c20.57 45 67.92 136.6 183.62 208.05s39.36 29.3 107 51.26c5 1.81 10.06 3.6 15.23 5.33-1.62-.66-3.19-1.34-4.71-2.05A484.88 484.88 0 0 0 492.27 984c166.45.14 221.39-63.35 226.45-69.68 8.42-7.94 14.83-16.3 18.84-24.61 71.71-33.09 149.14-86.79 156.44-166.1a26.08 26.08 0 0 1-.53 2.88 55.57 55.57 0 0 0-.56-22.57q1.61-2.6 3.18-5.21zm-705.53-497.1h-.13zm-.28.07h-.15zm492.15 203.64l.5.82zm-8.1-12.62c4.3 6.06 5.7 8.64 8 12.46-2.32-3.79-3.72-6.37-8.02-12.43zM407 727.74l4.51 2.72q-2.32-1.36-4.51-2.72zm-5.44-3.36l-3.63-2.29zm4.39 2.71l-3.49-2.09zm-91.5-194.36l-.09-.1zm-6-7q-.91-1.18-1.73-2.36c.54.75 1.12 1.53 1.72 2.32zm4.38 5.2c-.77-.83-1.5-1.67-2.2-2.5q1.04 1.21 2.19 2.46zm-2.5-2.86a83.2 83.2 0 0 1-1.75-2.17 64.4 64.4 0 0 0 1.74 2.1zm4.24-72.48a39.72 39.72 0 0 1 3-1.9 30.1 30.1 0 0 0-3 1.87zm3.16-2l.62-.33zm1.1-.57l.47-.22zm1-.46l.33-.13z" mask="url(#q)"/><path fill="url(#r)" d="M813.74 801.65c104.16-102.27 156.86-226.58 134.58-366 0 0 8.9 71.5-24.85 144.63 16.21-71.39 18.1-160.11-25-252C841 205.64 746.45 141.11 710.35 114.19 655.66 73.4 633 31.87 632.57 23.3c-16.34 33.48-65.77 148.2-5.31 247 56.64 92.56 145.86 120 208.33 204.95 115.08 156.42-21.85 326.4-21.85 326.4z"/></svg>