<svg xmlns="http://www.w3.org/2000/svg" xmlns:xlink="http://www.w3.org/1999/xlink" viewBox="-5.5 -5.1 136.5 136.5"><style>.e{stop-color:#fff}.a{stop-opacity:0}.b{stop-color:#3465a4}.c{stop-color:#4434e2}.d{fill:#3465a4}.f{stroke-linecap:round;stroke:#3465a4;stroke-linejoin:round;stroke-width:4}.h{fill:#729fcf}</style><linearGradient id="a"><stop offset="0" class="b"/><stop offset="1" class="b a"/></linearGradient><linearGradient id="b"><stop offset="0" class="e"/><stop offset="1" class="e a"/></linearGradient><linearGradient id="c"><stop offset="0" stop-color="#73a0d0"/><stop offset="1" class="e"/></linearGradient><linearGradient id="d" xlink:href="#b"/><linearGradient id="e"><stop offset="0" stop-opacity=".71"/><stop offset=".4" stop-opacity=".35"/><stop offset="1" class="a"/></linearGradient><radialGradient id="f" cx="65.33" cy="63.5" fy="31.01" gradientUnits="userSpaceOnUse" r="57.35" xlink:href="#e"/><linearGradient id="g" gradientUnits="userSpaceOnUse" x1="60.81" x2="428.63" y1="222.16" y2="222.16"><stop offset="0" class="c"/><stop offset="1" stop-color="#15069a"/></linearGradient><radialGradient id="h" cx="244.72" cy="222.16" gradientUnits="userSpaceOnUse" r="183.91"><stop offset="0" class="e" stop-opacity=".7"/><stop offset=".8" stop-color="#13059a" class="a"/><stop offset="1" class="c"/></radialGradient><radialGradient id="i" cx="33.42" cy="222.17" gradientUnits="userSpaceOnUse" r="249.01" xlink:href="#d"/><radialGradient id="j" cx="60.81" cy="222.17" gradientUnits="userSpaceOnUse" r="249.01" xlink:href="#d"/><linearGradient id="k" gradientTransform="matrix(.543 -.941 .941 .543 -156.67 314.83)" gradientUnits="userSpaceOnUse" x1="98" x2="420" xlink:href="#d" y1="240.92" y2="240.92"/><linearGradient id="l" gradientTransform="matrix(-.941 .543 .543 .941 334.23 -173.07)" gradientUnits="userSpaceOnUse" x1="98" x2="420" xlink:href="#d" y1="240.92" y2="240.92"/><linearGradient id="m" gradientTransform="matrix(.941 -.543 -.543 -.941 150.77 625.27)" gradientUnits="userSpaceOnUse" x1="98" x2="420" xlink:href="#d" y1="240.92" y2="240.92"/><linearGradient id="n" gradientTransform="matrix(-.543 .941 -.941 -.543 641.67 131.38)" gradientUnits="userSpaceOnUse" x1="98" x2="420" xlink:href="#d" y1="240.92" y2="240.92"/><radialGradient id="o" cx="246.35" cy="226.88" gradientTransform="matrix(1 -.577 .124 .215 -28.14 320.38)" gradientUnits="userSpaceOnUse" r="154.36" xlink:href="#d"/><radialGradient id="p" cx="246.35" cy="226.88" gradientTransform="matrix(-.577 -1 .215 -.124 339.85 501.37)" gradientUnits="userSpaceOnUse" r="154.36" xlink:href="#d"/><radialGradient id="q" cx="156.5" cy="148.5" gradientUnits="userSpaceOnUse" r="19.5"><stop offset="0" class="e"/><stop offset=".35" class="e" stop-opacity=".84"/><stop offset="1" class="e a"/></radialGradient><radialGradient id="r" cx="104.98" cy="98.51" gradientTransform="matrix(1.189 0 0 .766 -21.88 20.22)" gradientUnits="userSpaceOnUse" r="94.91" xlink:href="#e"/><radialGradient id="s" cx="262.1" cy="89.63" gradientTransform="matrix(.459 0 0 .207 10.53 45.75)" gradientUnits="userSpaceOnUse" r="142.27" xlink:href="#c"/><linearGradient id="t" gradientUnits="userSpaceOnUse" x1="166.51" x2="94.9" xlink:href="#a" y1="161.01" y2="36.98"/><radialGradient id="u" cx="167.69" cy="141.67" gradientTransform="matrix(.648 0 .117 .709 37.76 -78.53)" gradientUnits="userSpaceOnUse" r="21.77" xlink:href="#c"/><radialGradient id="v" cx="167.69" cy="141.67" gradientTransform="matrix(-.561 -.324 -.456 .555 385.36 14.61)" gradientUnits="userSpaceOnUse" r="21.77" xlink:href="#c"/><linearGradient id="w" gradientUnits="userSpaceOnUse" x1="185.18" x2="185.18" xlink:href="#b" y1="178.87" y2="162.24"/><radialGradient id="x" cx="185.18" cy="162.24" gradientTransform="matrix(1.766 0 0 3.005 -141.84 -325.26)" gradientUnits="userSpaceOnUse" r="8.31" xlink:href="#b"/><radialGradient id="y" cx="221.8" cy="186.6" gradientTransform="matrix(-.112 .419 -.513 -.138 305.54 -5.28)" gradientUnits="userSpaceOnUse" r="66.98" xlink:href="#c"/><radialGradient id="z" cx="221.52" cy="231.32" gradientTransform="matrix(.56 .15 -.099 .368 78.27 -37.3)" gradientUnits="userSpaceOnUse" r="13.71" xlink:href="#d"/><radialGradient id="A" cx="231.54" cy="137.96" gradientTransform="matrix(.351 .462 -.843 .64 234.94 -166.62)" gradientUnits="userSpaceOnUse" r="22.61" xlink:href="#c"/><radialGradient id="B" cx="211.68" cy="126.36" gradientTransform="matrix(.841 -.022 .027 1.039 8.02 -106.11)" gradientUnits="userSpaceOnUse" r="14.33" xlink:href="#c"/><radialGradient id="C" cx="142.7" cy="188.13" gradientTransform="matrix(.787 0 0 .505 230.34 97.2)" gradientUnits="userSpaceOnUse" r="76.51" xlink:href="#e"/><linearGradient id="D" gradientUnits="userSpaceOnUse" x1="443.72" x2="418" xlink:href="#c" y1="270.76" y2="174.79"/><radialGradient id="E" cx="129.83" cy="205.85" gradientTransform="matrix(.224 .185 -.308 .374 304.44 51.17)" gradientUnits="userSpaceOnUse" r="169.41" xlink:href="#a"/><radialGradient id="F" cx="235.33" cy="388.71" gradientTransform="matrix(.635 0 0 .559 162.72 -15.63)" gradientUnits="userSpaceOnUse" r="126.07" xlink:href="#d"/><path d="m122.681 63.501a57.351 57.351 0 1 1 -114.701 0 57.351 57.351 0 1 1 114.701 0z" fill="url(#f)" transform="matrix(.62716 0 0 .22697 21.81 100.59)"/><g transform="matrix(0 -.26274 .26274 0 4.48 133.83)"><path d="m428.628 222.161a183.908 183.908 0 1 1 -367.816 0 183.908 183.908 0 1 1 367.816 0z" fill="navy" stroke="#190b49" class="h" stroke-width="7.62"/><path d="m428.628 222.161a183.908 183.908 0 1 1 -367.816 0 183.908 183.908 0 1 1 367.816 0z" fill="url(#g)"/><path d="m428.628 222.161a183.908 183.908 0 1 1 -367.816 0 183.908 183.908 0 1 1 367.816 0z" fill="url(#h)"/></g><path d="m428.628 222.161a183.908 183.908 0 1 1 -367.816 0 183.908 183.908 0 1 1 367.816 0z" fill="url(#i)" transform="matrix(0 .19117 .19117 0 20.36 10.51)"/><path d="m428.628 222.161a183.908 183.908 0 1 1 -367.816 0 183.908 183.908 0 1 1 367.816 0z" fill="url(#j)" transform="matrix(0 -.15364 .20618 0 17.03 125.8)"/><g opacity=".5"><path d="m201.582 398.665s-175.986-177.966 32.579-358.777c-235.796 180.15-32.036 357.836-32.579 358.777z" fill="url(#k)" transform="matrix(.26274 0 0 .26274 -1.45 11.11)"/><path d="m418.062 185.186s-177.966-175.986-358.777 32.58c180.15-235.796 357.836-32.036 358.777-32.58z" fill="url(#l)" transform="matrix(.26274 0 0 .26274 -1.45 11.11)"/><path d="m66.938 267.021s177.966 175.986 358.777-32.58c-180.15 235.796-357.836 32.036-358.777 32.58z" fill="url(#m)" transform="matrix(.26274 0 0 .26274 -1.45 11.11)"/><path d="m283.418 47.542s175.986 177.966-32.579 358.777c235.796-180.15 32.036-357.836 32.579-358.777z" fill="url(#n)" transform="matrix(.26274 0 0 .26274 -1.45 11.11)"/><path d="m92 316s170.42-72.468 308.71-178.234c-161.71 68.234-309.71 178.234-308.71 178.234z" fill="url(#o)" transform="matrix(.26274 0 0 .26274 -1.45 11.11)"/><path d="m335.47 381.236s-72.468-170.42-178.234-308.71c68.234 161.71 178.234 309.71 178.234 308.71z" fill="url(#p)" transform="matrix(.26274 0 0 .26274 -1.45 11.11)"/></g><g fill="url(#q)"><path d="m176 148.5a19.5 19.5 0 1 1 -39 0 19.5 19.5 0 1 1 39 0z" id="aa"/><use href="#aa" transform="matrix(.49194 0 0 .49194 -13.65 -2.15)"/><use href="#aa" transform="matrix(.20869 0 0 .20869 55.1 14.92)"/><use href="#aa" transform="matrix(.12811 0 0 .12811 77.47 31.92)"/><use href="#aa" transform="matrix(.26274 0 0 .26274 6.7 4.8)"/><use href="#aa" transform="matrix(.26274 0 0 .26274 49.28 15.32)"/><use href="#aa" transform="matrix(.26274 0 0 .26274 36.93 57.9)"/><use href="#aa" transform="matrix(.26274 0 0 .26274 -6.7 48.18)"/><use href="#aa" transform="matrix(.20869 0 0 .20869 53.78 63.8)"/><use href="#aa" transform="matrix(.12811 0 0 .12811 60.39 83.96)"/><use href="#aa" transform="matrix(.20869 0 0 .20869 5.41 64.86)"/><use href="#aa" transform="matrix(.20869 0 0 .20869 5.41 15.97)"/><use href="#aa" transform="matrix(.12811 0 0 .12811 8.6 71.87)"/><use href="#aa" transform="matrix(.12811 0 0 .12811 24.12 18.51)"/></g><g transform="matrix(.50045 0 0 .50045 -1.23 0)"><path d="m193.531 2.004c-1.895.063-4.321 1.1-5.5 5.5-.691-3.379-8.094-2.563-8.094-2.563s2.436 1.668 2.375 2.969v.031c-1.27.144-2.513.329-3.75.594-.536-1.193.151-3.566-.188-5.219-1.048 1.587-1.505 3.834-1.719 5.656-1.206.325-2.407.707-3.563 1.156-4.327-7.285-11.327-10.539-19.813-5.281-4.635 2.872-6.804 7.47-7.438 12.563-13.507 2.807-28.827 5.156-42.188 5.156-32.729 0-51.288 21.703-51.594 57.125-.305 35.422 4.891 43.966 8.25 45.188 3.359 1.221 1.219-1.219 1.219-1.219l2.438 1.5v-1.5l2.125.281 1.25-2.438h2.719s2.462-1.201 2.156-5.781c-.305-4.58 2.443-5.506 0-9.781s-5.198-41.53-.313-45.5c4.886-3.97 19.865-13.144 31.469-15.281 11.604-2.138 19.847-5.167 46.719-.281.021 1.768.154 3.858.438 6.438 1.539 13.987 6.342 16.266 12.656 27.344 7.678 13.718 18.677 16.044 32.031 8.594 11.007-6.436 16.264-6.033 24.594-17.375 1.695-2.308 2.94-4.154 3.875-5.781 2.008-1.484 4.006-2.952 5.906-4.188 9.273-6.222 20.233-19.286 14.031-30.844-5.017-9.349-13.421-9.507-21.219-4.469-.716-1.011-1.479-2.005-2.313-2.938.587-1.227 1.423-3.279 1.344-5-1.193 1.397-1.536 4.729-3.469 2.781s2-2.313 2-2.313-4.097-3.112-5.688-1.25c1.502-5.604-3.031-5.969-3.031-5.969s1.934 1.936 1.25 3.469c-.228.512-.81.863-1.438.938-.692-.415-1.375-.84-2.094-1.219-.161-.457-.202-1.06 0-1.813-1.196-.426-2.109-.098-2.781.469-.523-.232-1.062-.442-1.594-.656l.969-4.906-2.688 4.219c-.405-.145-.809-.272-1.219-.406-.126-1.717-.896-3.714-3.594-4.219-.457 1.707-1.371 2.479-2.344 2.688-.696-.133-1.394-.242-2.094-.344-.947-.52-1.619-1.438-1.531-2.344.226-2.335 4.063-3.313 4.063-3.313s-.37-.171-.969-.313c-.449-.106-1.025-.177-1.656-.156z" class="d f"/><path d="m191.812 14.208c-1.822.061-4.155 1.058-5.289 5.289-.665-3.249-7.783-2.464-7.783-2.464s2.342 1.604 2.284 2.855v.03c-1.221.138-2.417.317-3.606.571-.516-1.147.145-3.429-.18-5.018-1.008 1.527-1.447 3.687-1.653 5.439-1.16.313-2.315.68-3.426 1.112-4.161-7.005-10.892-10.134-19.052-5.079-4.457 2.762-6.543 7.184-7.152 12.08-12.988 2.699-27.72 4.958-40.568 4.958-31.472 0-49.319 20.869-49.613 54.932s3.847 39.71 7.077 40.884c3.23 1.175 1.172-1.172 1.172-1.172l2.344 1.442v-1.442l2.043.27 1.202-2.344h2.614s2.795-3.723 2.502-8.128c-.294-4.405 4.49-4.867 2.14-8.978-2.349-4.111-5.552-34.279-2.441-39.472 14.86-24.802 55.517-24.525 75.614-14.537 1.449.72.148 3.71.421 6.19 1.479 13.45 6.098 15.642 12.17 26.294 7.384 13.192 17.96 15.428 30.802 8.264 10.585-6.189 15.639-5.801 23.65-16.708 1.63-2.22 2.827-3.994 3.726-5.559 1.93-1.427 3.852-2.839 5.68-4.027 8.917-5.983 19.456-18.546 13.493-29.66-4.824-8.99-12.906-9.142-20.404-4.297-.689-.972-1.422-1.928-2.224-2.825.564-1.18 1.368-3.154 1.292-4.808-1.147 1.343-1.477 4.548-3.336 2.674-1.859-1.873 1.923-2.224 1.923-2.224s-3.94-2.993-5.469-1.202c1.444-5.389-2.915-5.74-2.915-5.74s1.859 1.861 1.202 3.336c-.22.493-.778.83-1.382.902-.666-.399-1.323-.807-2.013-1.172-.155-.44-.194-1.019 0-1.743-1.15-.41-2.028-.094-2.674.451-.503-.224-1.021-.425-1.533-.631l.932-4.718-2.584 4.057c-.39-.139-.778-.262-1.172-.391-.121-1.651-.861-3.571-3.456-4.057-.44 1.642-1.319 2.384-2.254 2.584-.669-.128-1.34-.233-2.013-.331-.911-.5-1.557-1.383-1.472-2.254.218-2.245 3.907-3.185 3.907-3.185s-.356-.164-.932-.301c-.432-.102-.985-.171-1.593-.15z" fill="url(#r)"/><path d="m181.535 8.221s-44.927 14.352-77.868 14.352c-32.729 0-51.301 21.681-51.607 57.103-.305 35.422 4.886 43.973 8.245 45.194s1.221-1.221 1.221-1.221l2.443 1.527v-1.527l2.138.305 1.221-2.443h2.748s2.443-1.221 2.138-5.802c-.305-4.58 2.443-5.497 0-9.772s-5.191-41.53-.305-45.499c4.886-3.97 19.849-13.131 31.453-15.268 11.604-2.138 19.849-5.191 46.721-.305s34.812-32.979 31.453-36.644z" fill="url(#s)"/><path d="m65.206 61.608c6.012 85.856-13.431 57.574-12.196 16.444.02 13.431-.228 27.176 3.645 40.083.872 2.155 1.75 4.851 4.033 5.898-3.157-4.274 2.538.558 2.822-1.381 3.051 1.635 2.405-3.542 5.66-2.063 2.092-.221 2.176-3.203 2.124-4.851-.452-3.301 2.393-6.618-.029-9.658-2.429-7.963-2.474-16.515-2.925-24.813.096-6.826-.615-14.12 2.121-20.523 3.44-3.675 8.239-5.916 12.488-8.499 8.119-4.641 16.989-7.828 26.282-9.171 14.121-3.229 28.76-1.374 42.803 1.152-47.863-13.4-74.588 7.256-86.828 17.382z" fill="url(#t)"/><path d="m153.281 4.856c-11.15 6.908-8.201 23.7-3.282 33.725 5.155 10.131 9.62 26.414 16.336 21.086 21.888-21.888 9.677-68.895-13.054-54.811z" fill="url(#u)"/><path d="m243.618 29.061c6.202 11.558-4.747 24.625-14.02 30.848-9.53 6.196-21.538 18.065-24.69 10.093-8.012-29.899 26.067-64.503 38.711-40.941z" fill="url(#v)"/><g fill="#fff"><path d="m195.188 2.165c-1.795-.425-5.578-.54-7.15 5.326-.691-3.379-8.094-2.563-8.094-2.563s2.433 1.68 2.372 2.981l-.005.018c-1.27.144-2.527.341-3.764.605-.536-1.193.162-3.573-.176-5.225-1.048 1.587-1.513 3.851-1.726 5.673-9.318 2.514-17.3 8.677-21.127 19.33-3.945 9.121-6.524 9.031-4.985 23.018s6.326 16.25 12.641 27.328c7.678 13.718 18.681 16.034 32.035 8.584 11.007-6.436 16.281-6.004 24.611-17.346s6.06-12.551 7.209-22.422c2.215-10.234-.915-19.063-6.934-25.799.587-1.227 1.425-3.304 1.346-5.024-1.193 1.397-1.534 4.734-3.467 2.786s1.991-2.318 1.991-2.318-4.082-3.101-5.672-1.238c1.502-5.604-3.034-5.973-3.034-5.973s1.926 1.952 1.243 3.485c-.228.512-.799.838-1.426.912-.692-.415-1.398-.826-2.116-1.205-.161-.457-.189-1.045.013-1.798-1.196-.426-2.113-.112-2.786.454-.523-.232-1.052-.455-1.585-.668l.953-4.886-2.687 4.215c-.405-.145-.815-.269-1.224-.403-.126-1.717-.879-3.718-3.578-4.223-.457 1.707-1.363 2.487-2.336 2.695-.696-.133-1.4-.254-2.1-.356-.947-.52-1.635-1.442-1.548-2.347.226-2.335 4.074-3.299 4.074-3.299s-.368-.174-.966-.315z"/><path d="m223.412 59.27 10.614-7.666-2.963.296 5.572-4.36-5.131 1.246 8.226-5.159-7.298 2.196 8.093-6.013-6.281 1.294 6.899-4.759-6.811 2.348 5.13-5.718-6.148 2.148 2.299-4.568-3.494 1.35 1.636-4.368-2.831 1.15 1.061-2.108-8.846 4.153s2.489 4.841 3.186 11.562c.698 6.721-2.917 16.977-2.917 16.977zm-67.736-18.15-5.359-11.946 2.419 1.738-2.646-6.562 3.82 3.644-4.545-8.581 5.222 5.551-4.003-9.254 4.792 4.261-3.595-7.571 4.725 5.439-1.584-7.516 4.25 4.934.293-5.105 2.351 2.916.767-4.601 1.876 2.411.135-2.356 5.584 8.019s-4.576 2.948-8.541 8.42-5.962 16.16-5.962 16.16z"/></g><path d="m163.704 32.284s16.959 1.866 12.489 18.55c-15.821-4.239 3.627-14.231-12.489-18.55z" class="h"/></g><path d="m193.496 170.556a8.312 8.312 0 1 1 -16.623 0 8.312 8.312 0 1 1 16.623 0z" transform="matrix(.37445793 .10061594 -.10061594 .37445793 31.058416 -61.217427)"/><path d="m193.496 170.556a8.312 8.312 0 1 1 -16.623 0 8.312 8.312 0 1 1 16.623 0z" fill="url(#w)" transform="matrix(.14753 .03964 -.01845 .06867 58.57 4)"/><path d="m193.496 170.556a8.312 8.312 0 1 1 -16.623 0 8.312 8.312 0 1 1 16.623 0z" fill="url(#x)" transform="matrix(.2331 .06262 -.03524 .13117 46.4 -13.9)"/><path d="m216.869 46.53s-15.62-6.863-20.091 9.82c15.821 4.239 3.974-14.138 20.091-9.82z" class="h" transform="matrix(.50045 0 0 .50045 -1.23 0)"/><path d="m193.496 170.556a8.312 8.312 0 1 1 -16.623 0 8.312 8.312 0 1 1 16.623 0z" transform="matrix(-.37445793 -.10061594 -.10061594 .37445793 189.014016 -18.862758)"/><path d="m193.496 170.556a8.312 8.312 0 1 1 -16.623 0 8.312 8.312 0 1 1 16.623 0z" fill="url(#w)" transform="matrix(-.14753 -.03964 -.01845 .06867 132.5 23.78)"/><path d="m193.496 170.556a8.312 8.312 0 1 1 -16.623 0 8.312 8.312 0 1 1 16.623 0z" fill="url(#x)" transform="matrix(-.2331 -.06262 -.03524 .13117 151.99 14.38)"/><g transform="matrix(.50045 0 0 .50045 -1.23 0)"><path d="m152.846 39.282c-.781-.115-1.67.386-2.154 1.375-.386 2.455-.373 5.636.178 10.646 1.525 13.861 6.27 16.104 12.527 27.083 1.182 2.111 2.443 3.959 3.78 5.531-.218-1.09.187-2.665-.336-3.604-2.238-.105-.932-1.619.369-2.281 2.427-2.027-.967.29-1.871.112.622-2.949 3.19-5.018 5.092-7.207 2.591-2.12-.682-4.449-2.94-4.432-1.171-.904-5.422.861-4.244-1.509.907-1.901 1.554-3.537 3.228-4.899-1.091-.111-5.242 3.02-3.755-.002 1.377-2.548-2.321-.486-3.161.139-2.691 1.505-.586-1.568.369-2.281 1.822-1.398.162-2.667-1.457-1.711-3.296.81.849-1.558 1.843-2.091-.791-.49-2.693 1.024-3.989.939-.022-1.308 2.299-2.075 3.193-3.105 2.535-1.908-1.159-1.449-2.348-.815-2.513.652.133-1.215 1.053-1.503 2.301-1.478-1.34-.727-2.16-.337-3.736 1.261-1.577-2.751-.03-3.913 1.512-2.811-1.558 1.216-2.493-.203-1.588-1.761 1.615-2.915.77-4.052-.159-1.18-.773-1.778-1.467-1.881zm70.869 18.989c-.596-.102-1.292.166-1.916.974-1.301.562.896 3.162-1.359 3.894-1.519.762-2.164-4.261-2.261-1.071.759 1.78.622 6.334-1.982 3.374-.514-.748-3.292-3.219-2.039-.788.653.71 1.994 3.644.144 1.824-.712-1.143-3.665-3.383-2.423-.463.26 1.339 1.868 3.159 1.196 4.281-1.165-.575-2.038-2.832-2.968-2.803.595.958 2.983 5.077.534 2.728-.924-1.638-2.978-1.364-2.1.758.471 1.095.758 4.809-.821 2.16-.415-.96-2.586-4.596-2.668-1.7-.224 3.36-2.271-1.431-3.271-1.88.768 2.017.511 3.757.346 5.857-.165 2.641-2.947-1.008-4.413-.811-1.948-1.143-5.946-.763-4.762 2.368.553 2.847 1.725 5.919.789 8.783-.872-.298-2.635-3.997-1.547-1.028.796 1.224 1.171 3.188-.821 2.16-.804.481-1.241 1.73-1.83 2.596 1.815-.658 3.687-1.521 5.603-2.589 10.909-6.379 16.135-5.95 24.39-17.191 3.165-4.31 4.786-7.144 5.646-9.551-.088-1.009-.698-1.749-1.467-1.881zm-54.849 26.843c-.259.007-.463-.018-.652-.063.35.365.699.715 1.059 1.046-.101-.386-.219-.739-.406-.983zm18.337 4.914c-.176.073-.359.175-.533.322l.779-.2zm-14.682-1.554-.148-.002c.215.132.425.255.643.377-.132-.177-.288-.319-.495-.374z" fill="url(#y)"/><path d="m175.36 74.779c-3.634.208-4.481.699-3.854 3.694.628 2.995 2.358 7.214 6.364 8.288s7.619-1.714 9.661-3.994c2.043-2.28 2.585-2.368-1.49-5.126s-7.048-3.07-10.682-2.862z"/><path d="m175.894 75.572c-3.172.182-3.912.61-3.364 3.225s8.272-2.903 5.556 7.235c2.708-10.106 6.651-1.496 8.435-3.487 1.783-1.99 2.257-2.067-1.301-4.475s-6.153-2.68-9.325-2.499z" fill="url(#z)"/><path d="m190.46 35.685s4.27 1.943 2.946 8.375c5.421-5.334 2.795-10.429 2.795-10.429s6.033 2.814 4.163 8.302c4.949-5.061 2.322-10.157 2.322-10.157s5.887.38 6.478 4.131c-.093-5.614-4.336-9.146-4.336-9.146s10.157 2.322 8.387 7.437c3.885-8.54-3.564-10.536-3.564-10.536s5.069-1.037 8.168 3.785c-1.183-7.503-6.245-8.896-6.245-8.896 5.269 2.271 7.323 6.209 6.91 13.864-.319-3.279-4.588-5.666-4.588-5.666s3.981 2.682-1.021 10.923c.453-4.669-4.375-6.734-4.375-6.734s3.634 4.893-.633 9.811c.725-4.197-2.627-5.095-2.627-5.095s.339 7.676-7.291 10.821c1.371-3.625-.365-6.086-.365-6.086s.592 3.752-6.838 6.152c2.588-3.698-.285-10.855-.285-10.855z" fill="url(#A)"/><path d="m188.926 11.045c-1.531-.678-6.201-1.648-9.654-.459 4.539-1.879 9.812 3.661 9.812 3.661s-7.501-1.673-10.376 1.867c8.184-2.47 10.735 4.436 10.735 4.436s-5.492-3.237-9.208.246c3.645-1.507 8.996 3.167 8.996 3.167s-3.396.122-5.541 4.363c2.712-1.337 6.564-.649 6.564-.649-3.141.403-4.7.929-8.508 3.277 2.515-4.915 5.041-6.292 5.041-6.292s-6.643-4.118-9.776-1.364c5.149-5.806 9.327-3.978 9.327-3.978s-6.859-3.744-10.092-.618c3.202-5.414 9.358-4.981 9.358-4.981s-2.635-2.928-8.207-2.296c7.084-4.09 13.058.297 11.528-.38z" fill="url(#B)"/></g><g transform="matrix(.50045 0 0 .50045 -101.28 0)"><path d="m420.011 169.148s1.832 45.805-39.087 50.996-67.486-13.741-85.808-25.651c-18.322-11.909-29.315-32.674-29.315-32.674l2.138 1.221-2.443-3.359 2.138 1.832-2.443-4.886 1.832 1.221-2.138-5.497 3.054 3.97-2.138-5.497 2.443 1.221-.916-4.275 2.443 2.443-.305-3.054 2.443 1.221-.611-1.527 2.748 1.527v-1.832l2.443 1.527v-3.359l2.138 3.054v-2.443l2.138 3.054.305-1.832 2.138 2.138v-1.221l4.58 3.97.305-2.138s47.091 27.903 79.7 43.973c25.863 12.745 38.171 7.634 52.217-24.124z" class="d f"/><path d="m417.275 178.936s1.762 44.046-37.586 49.038-64.895-13.214-82.514-24.666-28.19-31.42-28.19-31.42l2.055 1.175-2.349-3.23 2.055 1.762-2.349-4.698 1.762 1.175-2.055-5.286 2.936 3.817-2.055-5.286 2.349 1.175-.881-4.111 2.349 2.349-.294-2.936 2.349 1.175-.587-1.468 2.643 1.468v-1.762l2.349 1.468v-3.23l2.055 2.936v-2.349l2.055 2.936.294-1.762 2.056 2.055v-1.175l4.405 3.817.294-2.055s45.283 26.832 76.641 42.285c24.87 12.256 36.705 7.341 50.213-23.198z" fill="url(#C)"/><path d="m420.011 169.148s1.832 45.805-39.087 50.996-67.486-13.741-85.808-25.651c-18.322-11.909-29.315-32.674-29.315-32.674l2.138 1.221-2.443-3.359 2.138 1.832-2.443-4.886 1.832 1.221-2.138-5.497 3.054 3.97-2.138-5.497 2.443 1.221-.916-4.275 2.443 2.443-.305-3.054 2.443 1.221-.611-1.527 2.748 1.527v-1.832l2.443 1.527v-3.359l2.138 3.054v-2.443l2.138 3.054.305-1.832 2.138 2.138v-1.221l4.58 3.97.305-2.138s47.091 27.903 79.7 43.973c25.863 12.745 38.171 7.634 52.217-24.124z" fill="url(#D)"/><path d="m420.011 169.148s1.832 45.805-39.087 50.996-67.486-13.741-85.808-25.651c-18.322-11.909-29.315-32.674-29.315-32.674l2.138 1.221-2.443-3.359 2.138 1.832-2.443-4.886 1.832 1.221-2.138-5.497 3.054 3.97-2.138-5.497 2.443 1.221-.916-4.275 2.443 2.443-.305-3.054 2.443 1.221-.611-1.527 2.748 1.527v-1.832l2.443 1.527v-3.359l2.138 3.054v-2.443l2.138 3.054.305-1.832 2.138 2.138v-1.221l4.58 3.97.305-2.138s47.091 27.903 79.7 43.973c25.863 12.745 38.171 7.634 52.217-24.124z" fill="url(#E)"/><path d="m277.261 167.54c.52 5.571 20.582 19.549 20.582 19.549s-14.16-8.881-17.518-21.67c2.104 7.228 19.352 17.648 19.352 17.648s-9.93-6.447-16.062-20.63c4.394 6.151 17.51 16.662 17.51 16.662s-14.042-13.598-14.098-21.559c5.849 11.556 16.701 17.427 16.701 17.427s-7.557-3.269-13.707-18.202c7.145 10.909 19.363 15.597 19.363 15.597s-12.207-8.067-16.728-17.636c14.554 11.476 78.562 44.925 100.398 46.969-12.203 1.998-46.643-8.324-46.643-8.324s26.749 11.463 43 9.396c-16.101 2.423-51.052-6.898-51.052-6.898s35.059 11.074 48.402 8.878c-13.673 2.381-58.285-6.379-58.285-6.379s43.341 9.407 50.927 9.992c-15.442 2.054-57.901-8.559-57.901-8.559s44.521 12.333 51.867 10.418c-13.649 4.453-59.302-9.546-59.302-9.546s41.908 15.394 47.006 12.982c-28.863 5.61-72.835-18.607-83.811-46.113z" fill="url(#F)"/></g></svg>