<svg xmlns="http://www.w3.org/2000/svg" viewBox="0 0 512 512"><style>.st0{fill:#4285F4;} .st1{opacity:0.2;fill:#263238;} .st2{opacity:0.2;fill:#FFFFFF;} .st3{fill:#424242;} .st4{fill:#9E9E9E;} .st5{fill:url(#SVGID_1_);} .st6{fill:#E8E8E8;} .st7{fill:#FFFFFF;} .st8{opacity:0.3;fill:#263238;} .st9{fill:url(#SVGID_2_);}</style><ellipse class="st0" cx="256" cy="262.6" rx="157.1" ry="154.9"/><path class="st1" d="M256 415c-86.3 0-156.4-68.7-157.1-153.7v1.2c0 85.5 70.3 154.9 157.1 154.9S413.1 348 413.1 262.5v-1.2c-.7 85-70.8 153.7-157.1 153.7z"/><path class="st2" d="M256 110.2c86.3 0 156.4 68.7 157.1 153.7v-1.2c0-85.5-70.3-154.9-157.1-154.9S98.9 177.1 98.9 262.6v1.2c.7-84.9 70.8-153.6 157.1-153.6z"/><path class="st3" d="M218.7 144.4v46.3l37.3 50.1 37.3-51.4v-45h44.1l43.1-74.6H131.6l43 74.6z"/><path class="st4" d="M209.2 144.4h-34.6l12.3 21.3h22.3zm93.6 21.3h22.3l12.3-21.3h-34.6z"/><path class="st3" d="M293.3 368.5V338L256 286.8 218.7 338v30.5h-44l-43.2 74.6h249l-43-74.6z"/><path class="st1" d="M293.3 185.6L256 237.1l-37.3-50.3v3.9l37.3 50.1 37.3-51.4z"/><path class="st2" d="M131.6 69.8h248.8l-1.5 2.6H133.1z"/><path class="st1" d="M218.7 341.8l37.4-51.3 37.2 51.3V338l-37.2-51.2-37.4 51.1zM380.4 443H131.6l1.5-2.7h245.8z"/><linearGradient id="SVGID_1_" gradientUnits="userSpaceOnUse" x1="202.75" y1="205.35" x2="410.484" y2="413.084"><stop offset="0" stop-color="#231F20" stop-opacity=".16"/><stop offset="1" stop-color="#231F20" stop-opacity="0"/></linearGradient><path class="st5" d="M380.4 443l-1.5-2.7-30.3-52.6c32.1-23.1 54.9-57.9 62.1-98L265.5 142.6 246 372.1l68.9 70.9 65.6.1-.1-.1z"/><path class="st6" d="M265.5 142.6l-70 140.1h50.8l-.3 89.4 70.9-140.9h-51.7z"/><path class="st7" d="M265.5 142.6l-68.7 137.6h49.5l-.3 89.4 69.6-138.4h-50.4z"/><path class="st4" d="M218.7 144.4h-44.1l12.3 21.3h31.8zm74.6 21.3h31.8l12.3-21.3h-44.1z"/><path class="st8" d="M293.3 163.2v2.5h31.8l1.5-2.6zm-74.6 0l-33.3-.1 1.5 2.6h31.8z"/><radialGradient id="SVGID_2_" cx="132" cy="70.431" r="448" gradientUnits="userSpaceOnUse"><stop offset="0" stop-color="#FFF" stop-opacity=".1"/><stop offset="1" stop-color="#FFF" stop-opacity="0"/></radialGradient><path class="st9" d="M413.1 263.8v-1.2c0-53.6-27.7-100.9-69.7-128.7l37.1-64.1H131.6l37 64.1c-42 27.8-69.7 75.1-69.7 128.7v1.2c.4 50.9 25.8 96 64.6 124l-30.4 52.5-1.5 2.7-.1.1h248.9l-.1-.1-1.5-2.7-30.3-52.6c38.9-27.9 64.2-72.9 64.6-123.9z"/></svg>