<svg xmlns="http://www.w3.org/2000/svg" viewBox="320 320 4485 4485"><style>.a,.b{opacity:.2}.c{fill:#424242}.d{fill:#9e9e9e}.e{stop-color:#fff}.f{stop-opacity:0}.j{stop-color:#231f20}.k{fill:#263238}.l{fill:#fff}</style><ellipse cx="2560" cy="2626" fill="#4285f4" rx="1571" ry="1549"/><path d="M2560 4150c-863 0-1564-687-1571-1537v12c0 855 703 1549 1571 1549s1571-694 1571-1549v-12c-7 850-708 1537-1571 1537z" class="a k"/><path d="M2560 1102c863 0 1564 687 1571 1537v-12c0-855-703-1549-1571-1549S989 1771 989 2626v12c7-849 708-1536 1571-1536z" class="b l k"/><path d="M2187 1444v463l373 501 373-514v-450h441l431-746H1316l430 746z" class="c"/><path d="M2092 1444h-346l123 213h223zm936 213h223l123-213h-346z" class="d"/><path d="M2933 3685v-305l-373-512-373 512v305h-440l-432 746h2490l-430-746z" class="c"/><path d="M2933 1856l-373 515-373-503v39l373 501 373-514z" class="a k"/><path d="M1316 698h2488l-15 26H1331z" class="b l k"/><path d="M2187 3418l374-513 372 513v-38l-372-512-374 511zm1617 1012H1316l15-27h2458z" class="a k"/><linearGradient id="a" x1="2027" x2="4105" y1="2054" y2="4131" gradientUnits="userSpaceOnUse"><stop class="j" offset="0" stop-opacity=".16"/><stop class="j f" offset="1"/></linearGradient><path fill="url(#a)" d="M3804 4430l-15-27-303-526c321-231 549-579 621-980L2655 1426l-195 2295 689 709 656 1-1-1z"/><path fill="#e8e8e8" d="M2655 1426l-700 1401h508l-3 894 709-1409h-517z"/><path d="M2655 1426l-687 1376h495l-3 894 696-1384h-504z" class="l"/><path d="M2187 1444h-441l123 213h318zm746 213h318l123-213h-441z" class="d"/><path d="M2933 1632v25h318l15-26zm-746 0l-333-1 15 26h318z" class="k" opacity=".3"/><radialGradient id="b" cx="1320" cy="704" r="4480" gradientUnits="userSpaceOnUse"><stop class="e" offset="0" stop-opacity=".1"/><stop class="e f" offset="1"/></radialGradient><path fill="url(#b)" d="M4131 2638v-12c0-536-277-1009-697-1287l371-641H1316l370 641c-420 278-697 751-697 1287v12c4 509 258 960 646 1240l-304 525-15 27-1 1h2489l-1-1-15-27-303-526c389-279 642-729 646-1239z"/></svg>