<svg xmlns="http://www.w3.org/2000/svg" viewBox="0 0 448.5 448.5"><style>.a{fill:#263238}.b{fill:#424242}.c{fill:#fff}.d{fill:#9e9e9e}.e{stop-color:#231f20}.f{stop-color:#fff}.g{stop-opacity:0}</style><linearGradient id="d" x1="170.75" x2="378.5" y1="173.35" y2="381.1" gradientUnits="userSpaceOnUse"><stop class="e" offset="0" stop-opacity=".16"/><stop class="e g" offset="1"/></linearGradient><radialGradient id="c" cx="100" cy="38.43" r="448" gradientUnits="userSpaceOnUse"><stop class="f" offset="0" stop-opacity=".1"/><stop class="f g" offset="1"/></radialGradient><path fill="none" stroke="#fff" stroke-miterlimit="10" stroke-width="25" d="M381.1 231.8v-1.2c0-53.6-27.7-100.9-69.7-128.7l37.1-64.1H99.6l37 64.1c-42 27.8-69.7 75.1-69.7 128.7v1.2c.4 50.9 25.8 96 64.6 124l-30.4 52.5-1.5 2.7h248.7l-1.5-2.7-30.3-52.6c38.9-27.9 64.2-72.9 64.6-123.9z"/><ellipse cx="224" cy="230.6" fill="#4285f4" rx="157.1" ry="154.9"/><path d="M224 383c-86.3 0-156.4-68.7-157.1-153.7v1.2c0 85.5 70.3 154.9 157.1 154.9S381.1 316 381.1 230.5v-1.2c-.7 85-70.8 153.7-157.1 153.7z" class="a" opacity=".2"/><path d="M224 78.2c86.3 0 156.4 68.7 157.1 153.7v-1.2c0-85.5-70.3-154.9-157.1-154.9S66.9 145.1 66.9 230.6v1.2c.7-84.9 70.8-153.6 157.1-153.6z" class="c" opacity=".2"/><path d="M186.7 112.4v46.3l37.3 50.1 37.3-51.4v-45h44.1l43.1-74.6H99.6l43 74.6z" class="b"/><path d="m177.2 112.4h-34.6l12.3 21.3h22.3zm93.6 21.3h22.3l12.3-21.3h-34.6z" class="d"/><path d="M261.3 336.5V306L224 254.8 186.7 306v30.5h-44l-43.2 74.6h249l-43-74.6z" class="b"/><path d="m261.3 153.6-37.3 51.5-37.3-50.3v3.9l37.3 50.1 37.3-51.4z" class="a" opacity=".2"/><path d="M99.6 37.8h248.8l-1.5 2.6H101.1z" class="c" opacity=".2"/><path d="M186.7 309.8l37.4-51.3 37.2 51.3V306l-37.2-51.2-37.4 51.1zM348.4 411H99.6l1.5-2.7h245.8z" class="a" opacity=".2"/><path fill="url(#d)" d="M348.4 411l-1.5-2.7-30.3-52.6c32.1-23.1 54.9-57.9 62.1-98L233.5 110.6 214 340.1l68.9 70.9 65.6.1z"/><path fill="#e8e8e8" d="m233.5 110.6-70 140.1h50.8l-0.3 89.4 70.9-140.9h-51.7z"/><path d="m233.5 110.6-68.7 137.6h49.5l-0.3 89.4 69.6-138.4h-50.4z" class="c"/><path d="m186.7 112.4h-44.1l12.3 21.3h31.8zm74.6 21.3h31.8l12.3-21.3h-44.1z" class="d"/><path d="m261.3 131.2v2.5h31.8l1.5-2.6zm-74.6 0-33.3-0.1 1.5 2.6h31.8z" class="a" opacity=".3"/><path fill="url(#c)" d="M381.1 231.8v-1.2c0-53.6-27.7-100.9-69.7-128.7l37.1-64.1H99.6l37 64.1c-42 27.8-69.7 75.1-69.7 128.7v1.2c.4 50.9 25.8 96 64.6 124l-30.4 52.5-1.5 2.7-.1.1h248.9l-.1-.1-1.5-2.7-30.3-52.6c38.9-27.9 64.2-72.9 64.6-123.9z"/></svg>