<svg viewBox="21 21 470 470" xmlns="http://www.w3.org/2000/svg" xmlns:xlink="http://www.w3.org/1999/xlink"><radialGradient id="a" cx="263.6" cy="228.19" gradientUnits="userSpaceOnUse" r="167.93"><stop offset="0" stop-color="#231f20" stop-opacity=".1"/><stop offset="1" stop-color="#231f20" stop-opacity="0"/></radialGradient><radialGradient id="b" cx="254.78" cy="231.15" gradientUnits="userSpaceOnUse" r="37"><stop offset=".4" stop-color="#231f20" stop-opacity="0"/><stop offset="1" stop-color="#231f20" stop-opacity=".04"/></radialGradient><radialGradient id="c" cx="23.82" cy="81.35" gradientUnits="userSpaceOnUse" r="468.19"><stop offset="0" stop-color="#fff" stop-opacity=".1"/><stop offset="1" stop-color="#fff" stop-opacity="0"/></radialGradient><path d="m208 153.4v298.6h95.9v-298.6zm93.5 296.1h-90.9v-293.6h90.9z" fill="#424242"/><path d="m20.9 78.8 43.1 74.6h144v298.6h96v-298.6h143.6l43.1-74.6z" fill="#424242"/><path d="m489.2 81.4 1.5-2.6h-469.8l1.6 2.6z" fill="#fff" opacity=".2"/><path d="m103.3 153.4h-39.3l12.3 21.3h17.7c2.7-7.4 5.7-14.5 9.3-21.3zm304 0c3.5 6.8 6.6 14 9.2 21.3h18.8l12.3-21.3z" fill="#afafaf"/><ellipse cx="255.3" cy="231.7" fill="#4285f4" rx="171" ry="171"/><path d="m95 172.1h-20.2l1.5 2.6h17.7c.4-.9.7-1.8 1-2.6zm320.6 0c.3.9.6 1.7.9 2.6h18.8l1.5-2.6zm-160.3 228.1c-94 0-170.3-75.9-171-169.8v1.2c0 94.4 76.6 171 171 171s171-76.6 171-171v-1.2c-.7 93.9-77 169.8-171 169.8z" fill="#263238" opacity=".3"/><path d="m255.3 63.2c94 0 170.3 75.9 171 169.8v-1.2c0-94.4-76.6-171-171-171s-171 76.6-171 171v1.2c.7-93.9 77-169.8 171-169.8z" fill="#fff" opacity=".2"/><circle cx="255.3" cy="233.6" fill="#263238" opacity=".3" r="112"/><path d="m425.2 251.2-74.1-74.1-12.3 7.1-48.2-48.2-34.1 89-16.5 70.8 14.9 49.8 49.9 49.9c64.3-19.5 112.6-75.7 120.4-144.3z" fill="url(#a)"/><path d="m254.9 123.5v111l49.2-65.7c-2.7-28.1-22.5-45.3-49.2-45.3zm-97.1 55 97.1 56-32.3-75.3c-25.7-11.7-51.4-3.8-64.8 19.3zm.9 111.6 96.2-55.6-81.3-9.6c-23.1 16.4-28.3 42.1-14.9 65.2z" fill="#e8e8e8"/><path d="m254.9 345.6v-111l-49 63.7c2.6 28.1 22.2 47.3 49 47.3zm32.3-35.8c25.7 11.8 51.5 2 64.8-21.1l-97-56.8z" fill="#d6d6d6"/><path d="m351.1 179-96.2 55.6 81.3 9.6c23-16.5 28.3-42.2 14.9-65.2z" fill="#d6d6d6"/><path d="m254.9 232.6v-111c26.7 0 46.3 17.3 49 45.5zm0 0-96.2-55.6c13.5-23.1 38.3-31.5 63.9-19.7z" fill="#fff"/><path d="m254.9 232.6-96.2 55.6c-13.4-23.1-8.1-48.8 14.9-65.2z" fill="#fff"/><path d="m254.9 232.6v111c-26.7 0-46.3-17.3-49-45.5zm0 0 96.2 55.6c-13.4 23.1-38.2 31.5-63.9 19.7z" fill="#e8e8e8"/><path d="m254.9 232.6 96.2-55.6c13.4 23.1 8.1 48.8-14.9 65.2z" fill="#e8e8e8"/><circle cx="254.8" cy="231.2" fill="#fff" r="37"/><circle cx="254.8" cy="231.2" fill="url(#b)" r="37"/><path d="m331.8 78.8c-23-11.5-49-18.1-76.5-18.1s-53.5 6.5-76.5 18.1h-157.9l.7 1.3.8 1.4 41.6 72 10.8 18.7 1.5 2.6h17.7c-6.3 17.8-9.8 37-9.8 57 0 78 52.3 143.9 123.7 164.4v55.8h95.9v-56.3c70.7-21 122.3-86.4 122.3-164 0-20-3.4-39.2-9.8-57h18.8l12.3-21.3 43.1-74.6zm-231 79.6c-.1.1-.1.2-.2.4 0-.1.1-.2.2-.4zm-2.4 5.3c0 .1-.1.2-.1.3 0-.2 0-.2.1-.3zm311.4-5.3c.1.1.1.2.2.4 0-.1-.1-.2-.2-.4zm2.4 5.3c0 .1.1.2.1.3 0-.2 0-.2-.1-.3z" fill="url(#c)"/></svg>