<svg xmlns="http://www.w3.org/2000/svg" viewBox="21 21 470 470"><style>.a{fill:#fff}.b{opacity:.2}.c{opacity:.3}.d{fill:#263238}.e{fill:#e8e8e8}.f{fill:#424242}.g{fill:#d6d6d6}.h{stop-color:#fff}.i{stop-opacity:0}.j{stop-opacity:.1}.k{stop-color:#231f20}</style><radialGradient id="a" cx="263.6" cy="228.19" r="167.93" gradientUnits="userSpaceOnUse"><stop class="k j" offset="0"/><stop class="k i" offset="1"/></radialGradient><radialGradient id="b" cx="254.78" cy="231.15" r="37" gradientUnits="userSpaceOnUse"><stop class="k i" offset=".4"/><stop class="k" offset="1" stop-opacity=".04"/></radialGradient><radialGradient id="c" cx="23.82" cy="81.35" r="468.19" gradientUnits="userSpaceOnUse"><stop class="h j" offset="0"/><stop class="h i" offset="1"/></radialGradient><path d="M208 153.4V452h95.9V153.4zm93.5 296.1h-90.9V155.9h90.9z" class="f"/><path d="M20.9 78.8L64 153.4h144V452h96V153.4h143.6l43.1-74.6z" class="f"/><path d="M489.2 81.4l1.5-2.6H20.9l1.6 2.6z" class="a b"/><path fill="#afafaf" d="M103.3 153.4H64l12.3 21.3H94c2.7-7.4 5.7-14.5 9.3-21.3zm304 0c3.5 6.8 6.6 14 9.2 21.3h18.8l12.3-21.3z"/><ellipse cx="255.3" cy="231.7" fill="#4285f4" rx="171" ry="171"/><path d="M95 172.1H74.8l1.5 2.6H94c.4-.9.7-1.8 1-2.6zm320.6 0c.3.9.6 1.7.9 2.6h18.8l1.5-2.6zM255.3 400.2c-94 0-170.3-75.9-171-169.8v1.2c0 94.4 76.6 171 171 171s171-76.6 171-171v-1.2c-.7 93.9-77 169.8-171 169.8z" class="c d"/><path d="M255.3 63.2c94 0 170.3 75.9 171 169.8v-1.2c0-94.4-76.6-171-171-171s-171 76.6-171 171v1.2c.7-93.9 77-169.8 171-169.8z" class="a b"/><circle cx="255.3" cy="233.6" r="112" class="c d"/><path fill="url(#a)" d="M425.2 251.2l-74.1-74.1-12.3 7.1-48.2-48.2-34.1 89-16.5 70.8 14.9 49.8 49.9 49.9c64.3-19.5 112.6-75.7 120.4-144.3z"/><path d="M254.9 123.5v111l49.2-65.7c-2.7-28.1-22.5-45.3-49.2-45.3zm-97.1 55l97.1 56-32.3-75.3c-25.7-11.7-51.4-3.8-64.8 19.3zm.9 111.6l96.2-55.6-81.3-9.6c-23.1 16.4-28.3 42.1-14.9 65.2z" class="e"/><path d="M254.9 345.6v-111l-49 63.7c2.6 28.1 22.2 47.3 49 47.3zm32.3-35.8c25.7 11.8 51.5 2 64.8-21.1l-97-56.8z" class="g"/><path d="M351.1 179l-96.2 55.6 81.3 9.6c23-16.5 28.3-42.2 14.9-65.2z" class="g"/><path d="M254.9 232.6v-111c26.7 0 46.3 17.3 49 45.5zm0 0L158.7 177c13.5-23.1 38.3-31.5 63.9-19.7zM254.9 232.6l-96.2 55.6c-13.4-23.1-8.1-48.8 14.9-65.2z" class="a"/><path d="M254.9 232.6v111c-26.7 0-46.3-17.3-49-45.5zm0 0l96.2 55.6c-13.4 23.1-38.2 31.5-63.9 19.7zM254.9 232.6l96.2-55.6c13.4 23.1 8.1 48.8-14.9 65.2z" class="e"/><circle cx="254.8" cy="231.2" r="37" class="a"/><circle cx="254.8" cy="231.2" r="37" fill="url(#b)"/><path fill="url(#c)" d="M331.8 78.8c-23-11.5-49-18.1-76.5-18.1s-53.5 6.5-76.5 18.1H20.9l.7 1.3.8 1.4 41.6 72 10.8 18.7 1.5 2.6H94c-6.3 17.8-9.8 37-9.8 57 0 78 52.3 143.9 123.7 164.4V452h95.9v-56.3c70.7-21 122.3-86.4 122.3-164 0-20-3.4-39.2-9.8-57h18.8l12.3-21.3 43.1-74.6zm-231 79.6c-.1.1-.1.2-.2.4 0-.1.1-.2.2-.4zm-2.4 5.3c0 .1-.1.2-.1.3 0-.2 0-.2.1-.3zm311.4-5.3c.1.1.1.2.2.4 0-.1-.1-.2-.2-.4zm2.4 5.3c0 .1.1.2.1.3 0-.2 0-.2-.1-.3z"/></svg>