<svg xmlns="http://www.w3.org/2000/svg" xmlns:xlink="http://www.w3.org/1999/xlink" fill="#fff" viewBox="0 0 524 524"><defs><path id="a" d="M337.7 84.8c-23-11.5-49-18.1-76.5-18.1s-53.5 6.5-76.5 18.1H26.8l.7 1.3.8 1.4 53.9 93.3h17.7a170.61 170.61 0 0 0-9.8 57c0 78 52.3 143.9 123.7 164.4V458h95.9v-56.3c70.7-21 122.3-86.4 122.3-164 0-20-3.4-39.2-9.8-57H441l55.4-95.9zm-231 79.6c-.1.1-.1.2-.2.4 0-.1.1-.2.2-.4zm-2.4 5.3c0 .1-.1.2-.1.3 0-.2 0-.2.1-.3zm311.4-5.3c.1.1.1.2.2.4 0-.1-.1-.2-.2-.4zm2.4 5.3c0 .1.1.2.1.3 0-.2 0-.2-.1-.3z"/></defs><radialGradient id="b" cx="269.5" cy="234.19" r="167.93" gradientUnits="userSpaceOnUse"><stop offset="0" stop-color="#231f20" stop-opacity=".1"/><stop offset="1" stop-color="#231f20" stop-opacity="0"/></radialGradient><radialGradient id="c" cx="260.7" cy="237.2" r="37" gradientUnits="userSpaceOnUse"><stop offset=".4" stop-color="#231f20" stop-opacity="0"/><stop offset="1" stop-color="#231f20" stop-opacity=".04"/></radialGradient><radialGradient id="d" cx="29.72" cy="87.35" r="468.19" gradientUnits="userSpaceOnUse"><stop offset="0" stop-color="#fff" stop-opacity=".1"/><stop offset="1" stop-color="#fff" stop-opacity="0"/></radialGradient><use stroke="#fff" stroke-miterlimit="10" stroke-width="30" xlink:href="#a"/><g fill="#424242"><path d="M213.9 159.4V458h95.9V159.4zm93.5 296.1h-90.9V161.9h90.9z"/><path d="M26.8 84.8l43.1 74.6h144V458h96V159.4h143.6l43.1-74.6z"/></g><path d="M495.1 87.4l1.5-2.6H26.8l1.6 2.6z" opacity=".2"/><path fill="#afafaf" d="M109.2 159.4H69.9l12.3 21.3h17.7c2.7-7.4 5.7-14.5 9.3-21.3zm304 0c3.5 6.8 6.6 14 9.2 21.3h18.8l12.3-21.3z"/><circle cx="261.2" cy="237.7" r="171" fill="#4285f4"/><path fill="#263238" d="M100.9 178.1H80.7l1.5 2.6h17.7c.4-.9.7-1.8 1-2.6zm320.6 0l.9 2.6h18.8l1.5-2.6zM261.2 406.2c-94 0-170.3-75.9-171-169.8v1.2c0 94.4 76.6 171 171 171s171-76.6 171-171v-1.2c-.7 93.9-77 169.8-171 169.8z" opacity=".3"/><path d="M261.2 69.2c94 0 170.3 75.9 171 169.8v-1.2c0-94.4-76.6-171-171-171s-171 76.6-171 171v1.2c.7-93.9 77-169.8 171-169.8z" opacity=".2"/><circle cx="261.2" cy="239.6" r="112" fill="#263238" opacity=".3"/><path fill="url(#b)" d="M431.1 257.2L357 183.1l-12.3 7.1-48.2-48.2-34.1 89-16.5 70.8 14.9 49.8 49.9 49.9C375 382 423.3 325.8 431.1 257.2z"/><path fill="#e8e8e8" d="M260.8 129.5v111l49.2-65.7c-2.7-28.1-22.5-45.3-49.2-45.3zm-97.1 55l97.1 56-32.3-75.3c-25.7-11.7-51.4-3.8-64.8 19.3zm.9 111.6l96.2-55.6-81.3-9.6c-23.1 16.4-28.3 42.1-14.9 65.2z"/><g fill="#d6d6d6"><path d="M260.8 351.6v-111l-49 63.7c2.6 28.1 22.2 47.3 49 47.3zm32.3-35.8c25.7 11.8 51.5 2 64.8-21.1l-97-56.8z"/><path d="M357 185l-96.2 55.6 81.3 9.6c23-16.5 28.3-42.2 14.9-65.2z"/></g><path d="M260.8 238.6v-111c26.7 0 46.3 17.3 49 45.5zm0 0L164.6 183c13.5-23.1 38.3-31.5 63.9-19.7zm0 0l-96.2 55.6c-13.4-23.1-8.1-48.8 14.9-65.2z"/><path fill="#e8e8e8" d="M260.8 238.6v111c-26.7 0-46.3-17.3-49-45.5zm0 0l96.2 55.6c-13.4 23.1-38.2 31.5-63.9 19.7zm0 0L357 183c13.4 23.1 8.1 48.8-14.9 65.2z"/><circle cx="260.7" cy="237.2" r="37" transform="rotate(283.95 260.72 237.2)"/><circle cx="260.7" cy="237.2" r="37" fill="url(#c)"/><use fill="url(#d)" xlink:href="#a"/></svg>