<svg xmlns="http://www.w3.org/2000/svg" viewBox="671 1 895 895"><style>.e{stop-color:#ef1b71}.a{stop-color:#e90062}.b{stop-color:#c42482}.c{stop-opacity:0}.d{stop-opacity:.6}.f{stop-color:#ffa2f4}</style><defs><radialGradient id="r1" cx="-7423.21" cy="-9213.09" r="693.37" gradientTransform="matrix(1.23 0 0 1.23 10378.93 11466.5)" gradientUnits="userSpaceOnUse"><stop offset=".07" stop-color="#c25bfa"/><stop offset=".26" stop-color="#9400ff"/><stop offset=".43" stop-color="#4600a4"/></radialGradient><linearGradient id="l1" x1="1174.43" x2="1006.67" y1="-297.14" y2="-845.92" gradientTransform="translate(0 936.08)" gradientUnits="userSpaceOnUse"><stop offset="0" stop-color="#000f43" stop-opacity=".4"/><stop offset=".48" stop-color="#001962" stop-opacity=".17"/><stop class="c" offset="1" stop-color="#002079"/></linearGradient><radialGradient id="r2" cx="1230.7" cy="791.26" r="99.05" gradientUnits="userSpaceOnUse"><stop offset="0" stop-color="#7d1b71"/><stop offset=".45" stop-color="#a60022"/><stop offset="1" stop-color="#a4000f"/></radialGradient><radialGradient id="r3" cx="-13031.94" cy="-9586.45" r="395.11" fx="-13057.15" gradientTransform="matrix(.76 .03 -.05 1.12 10946.69 11394.41)" gradientUnits="userSpaceOnUse"><stop offset=".1" stop-color="#f75fcc"/><stop offset=".17" stop-color="#f731cc"/><stop offset=".28" stop-color="#ff5b7c"/><stop offset=".43" stop-color="#ff5b7c"/><stop offset=".77" stop-color="#ed2062"/><stop offset=".87" stop-color="#e0255a"/><stop offset=".95" stop-color="#cc2477"/><stop class="b" offset="1"/></radialGradient><radialGradient id="r4" cx="-8053.77" cy="-8062.73" r="233.88" gradientTransform="rotate(5.62 -110682.24 111671.77) scale(1.23)" gradientUnits="userSpaceOnUse"><stop offset="0" stop-color="#fc139c"/><stop offset=".39" stop-color="#dc0555"/><stop offset="1" stop-color="#9c2455"/></radialGradient><radialGradient id="r5" cx="-8074.93" cy="-8286.98" r="390.56" gradientTransform="rotate(5.62 -110682.24 111671.77) scale(1.23)" gradientUnits="userSpaceOnUse"><stop offset="0" stop-color="#ff5b7c"/><stop offset=".16" stop-color="#e23555"/><stop offset=".32" stop-color="#ef1b61"/><stop class="a" offset=".47"/><stop class="a" offset=".62"/><stop class="a" offset=".76"/><stop class="a" offset=".89"/><stop class="a" offset="1"/></radialGradient><radialGradient id="r6" cx="1327.15" cy="-590.77" r="685.44" fx="1351.67" fy="-602.89" gradientTransform="translate(0 936.08)" gradientUnits="userSpaceOnUse"><stop offset=".16" stop-color="#ff87f4"/><stop offset=".23" stop-color="#ff64f4"/><stop offset=".37" stop-color="#ff89e9"/><stop offset=".54" stop-color="#ff56d9"/><stop offset=".76" stop-color="#ef1b4a"/><stop offset=".8" stop-color="#e61b3c"/><stop offset=".84" stop-color="#d11b38"/><stop offset=".89" stop-color="#b80032"/><stop offset=".94" stop-color="#960001"/></radialGradient><radialGradient id="r7" cx="1287.85" cy="-908.66" r="781.19" gradientTransform="translate(0 936.08)" gradientUnits="userSpaceOnUse"><stop offset=".28" stop-color="#ff8af4"/><stop offset=".4" stop-color="#ff40e9"/><stop class="e" offset=".63"/><stop offset=".86" stop-color="#ff47a6"/><stop offset=".93" stop-color="#ef3ea0"/><stop offset=".99" stop-color="#ce1250"/></radialGradient><linearGradient id="l2" x1="-8654.66" x2="-8385.61" y1="-8210.83" y2="-8279.41" gradientTransform="rotate(5.62 -110682.24 111671.77) scale(1.23)" gradientUnits="userSpaceOnUse"><stop offset="0" stop-color="#a4000f" stop-opacity=".5"/><stop offset=".45" stop-color="#cf0092" stop-opacity=".5"/><stop offset=".53" stop-color="#d81493" stop-opacity=".51"/><stop offset=".74" stop-color="#ff6ef4" stop-opacity=".87"/><stop class="f" offset=".84" stop-opacity=".96"/><stop class="f" offset="1"/></linearGradient><linearGradient id="l3" x1="1074.18" x2="1026.36" y1="-2320.05" y2="-2442.61" gradientTransform="rotate(5.77 -24257.22 -3432.13)" gradientUnits="userSpaceOnUse"><stop class="d" offset="0" stop-color="#521580"/><stop class="b c" offset="1"/></linearGradient><linearGradient id="l4" x1="835.22" x2="917.69" y1="-540.91" y2="-447.25" gradientTransform="rotate(5.77 -8535.97 541.38)" gradientUnits="userSpaceOnUse"><stop offset=".01" stop-color="#891551" stop-opacity=".5"/><stop offset=".48" stop-color="#ff2779" stop-opacity=".5"/><stop class="c" offset="1" stop-color="#ff272d"/></linearGradient><linearGradient id="l5" x1="993.73" x2="993.79" y1="-379.37" y2="-444.9" gradientTransform="rotate(5.77 -8535.97 541.38)" gradientUnits="userSpaceOnUse"><stop class="b" offset="0"/><stop class="b" offset=".08" stop-opacity=".81"/><stop class="b" offset=".21" stop-opacity=".57"/><stop class="b" offset=".33" stop-opacity=".36"/><stop class="b" offset=".45" stop-opacity=".2"/><stop class="b" offset=".56" stop-opacity=".09"/><stop class="b" offset=".67" stop-opacity=".02"/><stop class="b c" offset=".77"/></linearGradient><linearGradient id="l6" x1="1244.15" x2="1512" y1="-904.41" y2="-305.45" gradientTransform="translate(0 936.08)" gradientUnits="userSpaceOnUse"><stop offset=".02" stop-color="#ffd9f4"/><stop class="f" offset=".23"/><stop offset=".44" stop-color="#ff64f4"/><stop offset=".63" stop-color="#ff40b7"/><stop offset=".76" stop-color="#ff1aa8"/><stop offset=".88" stop-color="#ff1a87"/><stop offset=".92" stop-color="#ff1a72"/><stop offset=".95" stop-color="#ff1a89"/><stop class="e" offset="1"/></linearGradient><linearGradient id="l7" x1="1297.08" x2="1170.21" y1="-559.95" y2="-219.28" gradientTransform="translate(0 936.08)" gradientUnits="userSpaceOnUse"><stop class="e" offset="0"/><stop class="e" offset=".04" stop-opacity=".86"/><stop class="e" offset=".08" stop-opacity=".8"/><stop class="e" offset=".13" stop-opacity=".7"/><stop class="e d" offset=".18"/><stop class="e d" offset=".23"/><stop class="e d" offset=".28"/><stop offset=".39" stop-color="#ff1883" stop-opacity=".48"/><stop offset=".52" stop-color="#ff1a94" stop-opacity=".42"/><stop class="e" offset=".68" stop-opacity=".31"/><stop offset=".84" stop-color="#ed2075" stop-opacity=".17"/><stop class="c" offset="1" stop-color="#ff8e7f"/></linearGradient></defs><path fill="url(#r1)" d="M1119.38,854.06c214.87,0,389-175,389-390.84S1334.25,72.38,1119.56,72.38s-388.74,175-388.74,390.84C730.38,679.24,904.68,854.06,1119.38,854.06Z"/><path fill="url(#l1)" d="M1410.84,704.21a224,224,0,0,1-26.37,15.95A608.56,608.56,0,0,0,1418,665c8.33-9.2,15.86-18.14,22.08-27.78,3-4.73,6.4-10.6,10-17.35,21.82-39.35,45.92-103.05,46.62-168.43v-5a229.5,229.5,0,0,0-5-48.9l.52,3.77c-.17-1-.35-1.93-.52-2.9.35,1.76.61,3.51.88,5.26,4.46,37.86,1.31,74.84-14.64,102.09a12.5,12.5,0,0,1-.79,1.14c8.24-41.36,11-87.1,1.84-132.85,0,0-3.68-22.26-31-89.73-15.77-38.91-43.64-70.72-68.35-93.94-21.65-26.82-41.28-44.7-52.14-56.18-22.61-23.83-32.08-41.71-36-53.36-3.33-1.67-46.53-43.64-50-45.22-18.84,29.27-78.17,120.67-50,206,12.79,38.73,45.13,78.87,79,101.39,1.49,1.67,20.15,21.91,29,67.65,9.2,47.15,4.38,84-14.46,138.46-22.17,47.76-78.87,95-132.06,99.81-113.66,10.34-155.19-57-155.19-57,40.57,16.21,85.52,12.79,112.78-4,27.51-17,44.16-29.62,57.66-24.71,13.32,4.91,23.92-9.46,14.37-24.36a68.83,68.83,0,0,0-69.58-30.32c-27.51,4.47-52.75,26.29-88.86,5.17a57.85,57.85,0,0,1-6.74-4.47c-2.37-1.58,7.71,2.37,5.34.61-7-3.77-19.45-12.09-22.7-15.07-.52-.53,5.44,1.93,4.91,1.4-33.74-27.78-29.53-46.53-28.48-58.36.88-9.47,7-21.47,17.35-26.38,5,2.72,8.06,4.82,8.06,4.82s-2.1-4.38-3.24-6.66c.44-.17.79-.09,1.23-.26a188.58,188.58,0,0,1,17.88,10.25c6.22,4.38,8.15,8.24,8.15,8.24s1.66-.88.43-4.73c-.43-1.58-2.27-6.58-8.41-11.57h.35a70.51,70.51,0,0,1,10.43,7.19c1.75-6.31,4.82-12.89,4.21-24.63-.44-8.24-.27-10.43-1.67-13.58-1.31-2.72.7-3.86,3-1a28.65,28.65,0,0,0-1.93-6.48v-.18c2.81-9.81,59.77-35.49,64-38.47a58.3,58.3,0,0,0,16.74-18.22c3.16-5.09,5.52-12.18,6.14-22.88.35-7.71-3.33-12.88-60.91-18.92-15.77-1.58-25-13-30.23-23.49-1-2.28-1.93-4.29-2.89-6.4a53.06,53.06,0,0,1-2.28-7.36c9.46-27.08,25.24-49.95,48.55-67.21,1.31-1.14-5.09.26-3.77-.88,1.49-1.31,11.13-5.26,13-6.13,2.19-1-9.55-6-19.89-4.82-10.61,1.22-12.8,2.45-18.5,4.82,2.37-2.37,9.82-5.35,8.07-5.35-11.4,1.75-25.59,8.41-37.68,15.86a11.45,11.45,0,0,1,.7-3.85c-5.61,2.36-19.55,12.09-23.58,20.24a41.67,41.67,0,0,0,.27-4.73,75.26,75.26,0,0,0-11.57,12.09l-.18.18c-32.77-13.15-61.51-14-86-8.15-5.35-5.35-8-1.4-20.07-28.13-.79-1.58.61,1.57,0,0-2-5.17,1.23,6.92,0,0-20.42,16.12-47.23,34.35-60.12,47.23-.17.53,15.08-4.29,0,0-5.25,1.49-4.9,4.65-5.69,32.86-.18,2.11,0,4.56-.18,6.49-10.34,13.14-17.35,24.18-20,30-13.32,23-27.95,58.71-42.24,115.32a295,295,0,0,1,22.61-44.08c-11.83,30.06-23.22,77.21-25.5,149.77a431.14,431.14,0,0,1,11-44.43,415.2,415.2,0,0,0,30.4,176.22A431.2,431.2,0,0,0,827.22,714a393,393,0,0,0,287,123.73C1232.16,837.76,1338,786.15,1410.84,704.21Z"/><path fill="url(#r2)" d="M1109.16,848.86c180.52,20.16,269.23-77.22,243.61-97.27C1252,672.72,1072.44,844.76,1109.16,848.86Z"/><path fill="url(#r3)" d="M1375.44,80.27c-21,24.45-30.76,79.4-9.46,135.22s53.89,43.64,74.22,100.51c26.82,75,14.37,175.79,14.37,175.79s32.25,93.42,54.77-5.78C1559,299.44,1375.44,126.1,1375.44,80.27Z"/><path fill="url(#r4)" d="M1323.56,759.51C1466.32,742.94,1529.5,595.9,1448.35,593,1375,590.64,1256,767.31,1323.56,759.51Z"/><path fill="url(#r5)" d="M1458.6,563c98.15-57.14,72.56-180.61,72.56-180.61s-37.85,44-63.62,114.18C1442.13,566.1,1399.54,597.47,1458.6,563Z"/><path fill="url(#r6)" d="M1468.77,615.35c3.33-4.73,7.8-19.72,11.83-26.46,24.19-39,24.36-70.11,24.36-70.81,14.64-72.91,13.32-102.7,4.3-157.74-7.19-44.34-38.83-107.87-66.25-138.46-28.22-31.54-8.33-21.2-35.67-44.25-23.92-26.55-47.15-52.84-59.77-63.45-91.4-76.41-89.29-92.62-87.54-95.43a16.52,16.52,0,0,1-1.31,1.41c-1.06-4.3-1.84-8-1.84-8s-50,50-60.47,133.2c-6.84,54.33,13.49,111,42.94,147.22a333.58,333.58,0,0,0,51.7,50.83h0c22.26,32,34.53,71.42,34.53,113.83,0,106.21-86.14,192.36-192.44,192.36a192.38,192.38,0,0,1-43-4.82c-50.12-9.56-79.13-34.88-93.59-52.06-8.32-9.81-11.83-17-11.83-17,45,16.13,94.64,12.71,124.88-3.94,30.49-16.91,48.89-29.36,63.79-24.45,14.72,4.91,26.47-9.38,16-24.1-10.34-14.72-37.16-35.93-77-30.06-30.49,4.47-58.45,26.12-98.32,5.09a80.38,80.38,0,0,1-7.45-4.39c-2.63-1.57,8.59,2.37,6,.62-7.8-3.77-21.56-12-25.06-15-.62-.52,6,1.93,5.43,1.4-37.33-27.6-32.69-46.18-31.55-57.83,1-9.38,7.71-21.3,19.19-26.21,5.52,2.72,8.94,4.74,8.94,4.74s-2.36-4.3-3.59-6.58c.44-.17.88-.08,1.31-.26A213.21,213.21,0,0,1,1007,405c6.83,4.38,9,8.23,9,8.23s1.85-.87.44-4.64c-.52-1.58-2.54-6.48-9.37-11.48h.43a73.66,73.66,0,0,1,11.48,7.19c1.93-6.23,5.35-12.8,4.56-24.45-.44-8.24-.26-10.34-1.84-13.5-1.4-2.72.79-3.77,3.33-1a27.75,27.75,0,0,0-2.1-6.4v-.17c3.15-9.73,66.16-35.15,70.8-38.12a61.78,61.78,0,0,0,18.58-18.06c3.51-5,6.14-12,6.84-22.69.17-4.82-1.23-8.59-18-12.27-10-2.19-25.5-4.3-49.42-6.57-17.44-1.58-27.69-12.89-33.48-23.31-1-2.28-2.19-4.3-3.24-6.31a42.48,42.48,0,0,1-2.45-7.37,139.06,139.06,0,0,1,53.72-66.68c1.4-1.14-5.61.26-4.21-.88,1.66-1.31,12.36-5.17,14.37-6,2.45-1.05-10.51-6-22.08-4.82-11.74,1.23-14.2,2.46-20.42,4.82,2.63-2.27,10.87-5.34,8.94-5.34-12.62,1.75-28.31,8.32-41.72,15.77a9.2,9.2,0,0,1,.79-3.77c-6.22,2.37-21.55,12-26,20.16a44.24,44.24,0,0,0,.26-4.73,75,75,0,0,0-12.79,12l-.27.18c-36.54-13-68.35-13.85-95.34-8-5.87-5.34-15.42-13.32-28.83-39.78-.88-1.58-1.4,3.33-2.1,1.75-5.26-12.09-8.42-31.9-7.89-45.57,0,0-10.78,4.91-19.72,25.5-1.66,3.68-2.72,5.7-3.77,7.8-.52.62,1.14-6.74.88-6.31-1.58,2.63-5.61,6.31-7.36,11-1.23,3.51-2.89,5.53-4,9.91l-.27.44c-.08-1.32.35-5.35,0-4.47a198.81,198.81,0,0,0-10.77,26.11c-4.82,15.77-10.43,37.33-11.31,65.37-.17,2.11,0,4.47-.17,6.4-11.4,13-19.2,24-22.09,29.71-14.72,22.78-30.93,58.19-46.71,114.36a281.94,281.94,0,0,1,25-43.82c-13.06,29.53-25.68,76.33-28.22,148.36a382.84,382.84,0,0,1,12.18-44c-2.28,48,3.33,107.53,33.74,174.74,18,39.43,59.5,119.71,160.89,182.27h0s34.53,25.68,93.77,45c4.38,1.58,8.85,3.15,13.32,4.64-1.4-.61-2.8-1.14-4.12-1.75a423.56,423.56,0,0,0,121.63,17.88c153.54.17,198.84-61.52,198.84-61.52l-.44.35a69.61,69.61,0,0,0,6.22-6.4c-24.18,22.88-79.57,24.37-100.16,22.79,35.23-10.34,58.45-19.11,103.58-36.37,5.26-1.93,10.69-4.21,16.21-6.66l1.76-.79c1.05-.52,2.19-1,3.33-1.49a305.38,305.38,0,0,0,61.6-38.56c45.31-36.19,55.21-71.5,60.29-94.73-.7,2.2-3,7.45-4.55,10.78-11.66,25-37.51,40.31-65.64,53.46A607.81,607.81,0,0,0,1450,648.48C1459.13,639.19,1461.93,625,1468.77,615.35Z"/><path fill="url(#r7)" d="M1413.65,701.93c18.49-20.33,35-43.64,47.58-70.1,32.34-68,82.38-181.05,42.94-299.09-31-93.33-73.78-144.33-128-194.19C1288.07,57.66,1263.45,21.47,1263.45,0c0,0-101.74,113.4-57.58,231.7s134.52,113.92,194.28,237.39c70.37,145.21-57,303.74-162.12,348.08,6.4-1.4,234-52.93,245.9-183.07C1483.58,636.47,1478.41,672.49,1413.65,701.93Z"/><path fill="url(#l2)" d="M1118.94,279.9c.35-7.72-3.68-12.89-67.21-18.84-26.12-2.46-36.19-26.56-39.26-36.72-9.29,24.18-13.14,49.51-11,80.18,1.4,20.07,14.9,41.63,21.38,54.33,0,0,1.4-1.84,2.1-2.54,12.18-12.62,63-31.9,67.83-34.61C1098,318.28,1118.07,303.56,1118.94,279.9Z"/><path fill="url(#l3)" d="M839.13,137.14c-.87-1.57-1.4,3.33-2.1,1.76-5.26-12.1-8.41-31.73-7.62-45.57,0,0-10.78,4.91-19.72,25.5-1.67,3.68-2.72,5.69-3.77,7.8-.52.61,1.14-6.75.88-6.31-1.58,2.63-5.61,6.31-7.28,10.86-1.49,3.69-2.89,5.7-4,10.35-.35,1.22.35-5.53,0-4.74-20.85,40-24.8,100.69-22.61,98.06,44.26-47.23,94.91-58.36,94.91-58.36-5.35-4-17.09-15.51-28.66-39.35Z"/><path fill="url(#l4)" d="M1007,631C945.87,604.92,876.38,568.12,879,484.6c3.59-110.06,102.7-88.33,102.7-88.33-3.77.88-13.76,8.06-17.26,15.6-3.77,9.46-10.61,30.93,10.08,53.37,32.51,35.23-66.78,83.6,86.49,174.91,3.85,2.1-35.93-1.31-54.07-9.11Z"/><path fill="url(#l5)" d="M985.3,576.18c43.29,15.07,93.77,12.44,124-4.29,20.25-11.22,46.19-29.27,62.13-24.8-13.84-5.44-24.27-8.07-36.89-8.68a64,64,0,0,1-7-.26,121.46,121.46,0,0,0-13.85.79c-7.79.7-16.47,5.6-24.27,4.82-.44,0,7.62-3.33,7-3.16-4.21.88-8.67,1-13.49,1.67-3.07.35-5.7.7-8.68.87-90.26,7.63-166.5-48.9-166.5-48.9-6.48,21.91,29.09,65.11,77.55,81.94Z"/><path fill="url(#l6)" d="M1413.47,702.55c91.32-89.65,137.5-198.58,118-320.74,0,0,7.8,62.66-21.74,126.72,14.2-62.57,15.86-140.3-21.9-220.83-50.39-107.44-133.2-164-164.84-187.62C1275,64.32,1255.21,28,1254.77,20.42c-14.28,29.35-57.66,129.87-4.64,216.45C1299.73,318,1378,342,1432.66,416.51,1533.53,553.57,1413.47,702.55,1413.47,702.55Z"/><path fill="url(#l7)" d="M1400.42,469.27c-31.9-65.81-71.69-94.64-109.37-125.75,4.38,6.13,5.43,8.32,7.89,12.27,33.12,35.31,82,121.54,46.53,229.68-66.77,203.66-334,107.79-362,80.8,11.31,117.86,208.57,174.3,337,97.88C1393.58,694.92,1452.73,577.32,1400.42,469.27Z"/></svg>