<svg xmlns="http://www.w3.org/2000/svg" width="32" height="32"><g transform="translate(.805 .795) scale(.09807)"><circle r="152.959" cy="155.05" cx="154.951" fill="#159677"/><ellipse ry="141.584" rx="138.614" cy="155.545" cx="156.436" fill="#fff" stroke="#fff" stroke-linejoin="round" stroke-opacity=".651"/><path d="M127.952 303.545c-5.428-1.021-14.927-3.622-21.109-5.779-6.182-2.157-16.303-6.646-22.491-9.975-6.188-3.329-15.514-9.361-20.723-13.405-5.21-4.043-13.694-11.982-18.854-17.641-5.16-5.66-12.064-14.498-15.342-19.64-3.278-5.143-8.183-14.291-10.9-20.329-2.716-6.038-6.483-16.755-8.37-23.816-3.19-11.93-3.43-14.54-3.38-36.9.05-21.808.362-25.243 3.337-36.685 1.805-6.943 5.548-17.66 8.317-23.816 2.77-6.156 7.626-15.25 10.792-20.211 3.166-4.961 9.97-13.684 15.118-19.385 5.149-5.7 13.585-13.675 18.747-17.722 5.162-4.047 14.534-10.178 20.828-13.625 6.293-3.447 16.5-8.008 22.68-10.136 6.182-2.128 16.536-4.797 23.01-5.93 6.473-1.135 18.315-2.063 26.315-2.063 7.999 0 19.826.945 26.282 2.1 21.434 3.835 41.188 12.005 59.185 24.478 5.616 3.892 14.258 10.978 19.203 15.747 4.945 4.77 12.6 13.68 17.01 19.801 4.412 6.122 10.537 16.45 13.612 22.95 3.075 6.502 6.782 15.892 8.237 20.866 4.022 13.75 6.316 29.595 6.316 43.632 0 6.966-.838 17.67-1.862 23.788-1.025 6.118-3.258 15.705-4.963 21.306-1.706 5.6-5.387 14.826-8.181 20.501-2.795 5.675-7.643 14.058-10.775 18.63-3.132 4.571-9.106 12.11-13.277 16.754-4.17 4.644-12.4 12.219-18.29 16.833-5.889 4.615-15.537 10.996-21.44 14.18-5.904 3.185-15.74 7.538-21.858 9.673-6.119 2.135-16.113 4.788-22.209 5.895-13.763 2.5-41.473 2.462-54.965-.076zM223.909 269c4.847-2.98 11.909-7.881 15.693-10.891 9.512-7.567 22.926-22.656 27.778-31.25 2.229-3.946 5.309-9.346 6.845-12 3.497-6.04 8.265-19.14 10.984-30.185 1.145-4.65 2.373-15.185 2.728-23.412.471-10.909.084-18.065-1.432-26.437-1.143-6.314-3.754-16.307-5.804-22.206-2.05-5.9-6.179-15.073-9.177-20.386-2.998-5.313-8.76-13.757-12.804-18.764-4.044-5.008-11.91-12.92-17.481-17.582-5.571-4.662-15.104-11.19-21.186-14.505-6.08-3.315-16.394-7.78-22.919-9.922-6.525-2.142-17.093-4.628-23.485-5.525-15.67-2.198-36.243-.93-51.784 3.193-6.715 1.781-17.46 5.83-23.879 8.997-6.418 3.166-15.184 8.243-19.479 11.282-4.295 3.038-11.892 9.563-16.882 14.5-4.99 4.937-11.871 13.205-15.292 18.373-3.42 5.169-8.254 13.619-10.74 18.778-2.486 5.158-5.98 14.523-7.763 20.81-2.47 8.704-3.405 15.483-3.923 28.424-.652 16.275.295 26.823 3.468 38.642.725 2.701 1.768 4.621 2.317 4.268.55-.354 1.393-6.07 1.873-12.7 1.19-16.426 6.156-46.058 10.045-59.946 1.762-6.292 4.826-14.779 6.808-18.859 1.982-4.08 5.733-9.694 8.334-12.477 2.602-2.782 7.578-6.41 11.057-8.062 3.902-1.852 12.071-3.809 21.312-5.104 20.984-2.943 33.033-5.45 44.795-9.32 9.93-3.267 10.33-3.295 18.933-1.35 4.835 1.092 13.36 3.822 18.945 6.065 5.586 2.244 13.994 7.037 18.684 10.651 4.691 3.615 9.934 7.324 11.65 8.244 1.718.919 4.954 2.081 7.191 2.583 2.238.502 4.626 1.998 5.307 3.323.681 1.326 1.239 3.892 1.239 5.702s1.63 5.97 3.622 9.242c3.22 5.287 4.74 10.043 10.09 31.557.93 3.738 4.042 8.73 9.527 15.28 4.481 5.352 10.748 11.594 13.927 13.872 3.178 2.278 10.304 5.834 15.836 7.903l10.058 3.763-7.717-.719c-4.244-.395-10.566-1.846-14.048-3.224-4.672-1.85-6.331-2.075-6.331-.86 0 .905 1.742 5.65 3.872 10.543 2.13 4.893 4.382 10.388 5.003 12.21.966 2.837.903 2.991-.44 1.071-.862-1.233-3.414-5.637-5.671-9.785-2.257-4.147-9.196-13.673-15.42-21.168-6.223-7.494-12.864-16.846-14.758-20.78-1.894-3.934-4.635-11.25-6.092-16.258-1.457-5.008-3.965-10.796-5.573-12.864l-2.923-3.76-7.713 2.78c-4.242 1.53-13.615 4.233-20.828 6.008-7.214 1.775-15.505 4.482-18.425 6.015-7.945 4.172-19.553 13.149-26.168 20.239-7.013 7.516-11.571 17.338-10.367 22.337.458 1.9 2.64 5.799 4.848 8.663 2.208 2.865 6.798 10.375 10.2 16.69 3.403 6.315 9.438 15.206 13.41 19.758 3.973 4.552 11.559 11.462 16.858 15.356 5.299 3.893 16.92 14.17 25.825 22.838 8.904 8.667 16.738 15.759 17.409 15.759.67 0 5.185-2.438 10.033-5.418zM161.464 98.864c1.762-.697 3.204-2.098 3.204-3.112 0-1.014-.89-2.2-1.976-2.633-2.54-1.016-8.494-1.016-11.034 0-1.086.434-1.975 1.575-1.975 2.536 0 2.029 3.432 4.381 6.474 4.438 1.158.022 3.546-.53 5.307-1.229z" fill="#159677" stroke="#159677" stroke-width="1.007" stroke-linejoin="round" stroke-opacity=".651"/></g></svg>