<svg fill="#159677" viewBox="-10.5 -10.5 331 331" xmlns="http://www.w3.org/2000/svg"><circle cx="155" cy="155.1" r="153"/><g stroke-linejoin="round" stroke-opacity=".7"><ellipse cx="156.4" cy="155.5" fill="#fff" rx="138.6" ry="141.6" stroke="#fff"/><path d="m128 303.5c-5.5-1-15-3.6-21.2-5.7a189 189 0 0 1 -22.4-10c-6.2-3.3-15.6-9.4-20.8-13.4a183 183 0 0 1 -18.8-17.7 187 187 0 0 1 -15.4-19.6c-3.2-5.1-8.2-14.3-10.9-20.3s-6.5-16.8-8.3-23.8c-3.2-12-3.5-14.6-3.4-37 0-21.7.3-25.2 3.3-36.6a185 185 0 0 1 8.3-23.8c2.8-6.2 7.7-15.3 10.8-20.3 3.2-5 10-13.6 15.1-19.3 5.2-5.7 13.6-13.7 18.8-17.8 5.2-4 14.5-10.1 20.8-13.6 6.3-3.4 16.5-8 22.7-10.1s16.5-4.8 23-6c6.5-1 18.3-2 26.3-2s19.9 1 26.3 2a148.8 148.8 0 0 1 95.4 60.1 177 177 0 0 1 13.6 23c3 6.5 6.8 15.9 8.3 20.8 4 13.8 6.3 29.6 6.3 43.7 0 7-.9 17.6-1.9 23.7a176 176 0 0 1 -5 21.4c-1.7 5.6-5.3 14.8-8.1 20.5a183 183 0 0 1 -10.8 18.6c-3.1 4.6-9.1 12.1-13.3 16.7a173.5 173.5 0 0 1 -18.3 16.9c-5.9 4.6-15.5 11-21.4 14.2-6 3.1-15.8 7.5-21.9 9.6-6 2.2-16 4.8-22.2 6a200.8 200.8 0 0 1 -55-.2zm96-34.5c4.8-3 11.8-7.9 15.6-10.9a140 140 0 0 0 27.8-31.2l6.8-12c3.5-6 8.3-19.2 11-30.2a152.8 152.8 0 0 0 1.3-49.9 179 179 0 0 0 -5.8-22.2c-2-5.9-6.2-15-9.2-20.4a159 159 0 0 0 -12.8-18.7c-4-5-11.9-13-17.5-17.6a157.2 157.2 0 0 0 -21.1-14.5c-6.1-3.3-16.4-7.8-23-10-6.5-2-17-4.6-23.5-5.5-15.6-2.2-36.2-.9-51.7 3.2a155.1 155.1 0 0 0 -43.4 20.3 140.9 140.9 0 0 0 -32.2 32.9 223 223 0 0 0 -10.7 18.7 111 111 0 0 0 -11.7 49.2c-.6 16.3.3 26.8 3.5 38.6.7 2.7 1.7 4.7 2.3 4.3.5-.4 1.4-6 1.9-12.7a400 400 0 0 1 10-60 147 147 0 0 1 6.8-18.8c2-4 5.8-9.7 8.4-12.5a44 44 0 0 1 11-8c4-1.9 12-3.9 21.3-5.1 21-3 33-5.5 44.8-9.4 10-3.2 10.3-3.3 19-1.3a94.7 94.7 0 0 1 37.5 16.7 135 135 0 0 0 11.6 8.2c1.7 1 5 2.1 7.2 2.6 2.3.5 4.6 2 5.3 3.3.7 1.4 1.3 4 1.3 5.8s1.6 6 3.6 9.2c3.2 5.3 4.7 10 10 31.6 1 3.7 4.1 8.7 9.6 15.2a99.9 99.9 0 0 0 14 13.9 84 84 0 0 0 15.8 8l10 3.7-7.7-.8a61.5 61.5 0 0 1 -14-3.2c-4.7-1.8-6.4-2-6.4-.8 0 .9 1.8 5.6 3.9 10.5s4.4 10.4 5 12.2c1 2.9 1 3-.4 1a181.5 181.5 0 0 0 -21-31 144 144 0 0 1 -14.9-20.6c-1.9-4-4.6-11.3-6-16.3-1.5-5-4-10.8-5.7-12.9l-2.9-3.7-7.7 2.8c-4.2 1.5-13.6 4.2-20.8 6a98.5 98.5 0 0 0 -18.4 6c-8 4.1-19.6 13.1-26.2 20.2-7 7.5-11.6 17.4-10.4 22.4.5 1.9 2.7 5.8 4.9 8.6 2.2 2.9 6.8 10.4 10.2 16.7s9.4 15.2 13.4 19.8c4 4.5 11.5 11.4 16.8 15.3 5.3 4 17 14.2 25.9 22.9a176 176 0 0 0 17.4 15.7c.6 0 5.2-2.4 10-5.4zm-62.6-170.1c1.7-.7 3.2-2.1 3.2-3.1s-1-2.2-2-2.7c-2.5-1-8.5-1-11 0-1.1.5-2 1.6-2 2.6 0 2 3.4 4.3 6.5 4.4 1.1 0 3.5-.5 5.3-1.2z" stroke="#159677"/></g></svg>