<svg xmlns="http://www.w3.org/2000/svg" fill="#47848f" viewBox="-11.5 -6 161 161"><path d="M48.8 32.2c-19.5-3.6-34.9.2-41.1 10.8-4.6 7.9-3.3 18.5 3.2 29.7.5 1 1.8 1.3 2.7.7 1-.5 1.3-1.8.7-2.7C8.5 60.6 7.4 51.5 11.1 45 16.2 36.2 30 32.8 48 36.1a1.95 1.95 0 0 0 2.3-1.6c.2-1.1-.4-2.1-1.5-2.3zM21.1 86.4a123 123 0 0 0 29.8 23.5c28.3 16.3 58.4 20.7 73.3 10.6.9-.6 1.1-1.9.5-2.8s-1.9-1.1-2.8-.5c-13.3 9.1-41.9 4.9-69-10.7A120 120 0 0 1 24 83.7a2 2 0 0 0-2.8-.1 2 2 0 0 0-.1 2.8zm98.3-2.4c12.8-15.1 17.2-30.3 11.1-40.9-4.5-7.8-14.1-11.9-26.7-12.1a2 2 0 1 0 0 4c11.4.1 19.6 3.7 23.3 10.1 5.1 8.8 1.1 22.4-10.7 36.3a2 2 0 0 0 .2 2.8 2 2 0 0 0 2.8-.2zM86.6 32.8A126.3 126.3 0 0 0 51 46.9C21.7 63.8 2.7 88.7 5.3 106.7a2.1 2.1 0 0 0 2.3 1.7 2.1 2.1 0 0 0 1.7-2.3C6.9 90.1 25 66.6 53 50.4a122.8 122.8 0 0 1 34.5-13.7 2 2 0 0 0 1.5-2.4c-.3-1-1.3-1.7-2.4-1.5z"/><path d="M39.3 119.2c6.7 18.6 17.6 30.1 29.9 30.1 9 0 17.2-6.1 23.7-16.9.6-.9.3-2.2-.7-2.7-.9-.6-2.2-.3-2.7.7-5.8 9.7-12.9 14.9-20.3 14.9-10.2 0-19.9-10.2-26.1-27.5a2 2 0 0 0-2.6-1.2 2 2 0 0 0-1.2 2.6zm61-3.6a124 124 0 0 0 5.3-37.1c0-33.1-11.6-61.7-28.1-69-1-.4-2.2 0-2.6 1s0 2.2 1 2.6c14.7 6.5 25.7 33.6 25.7 65.4a123 123 0 0 1-5.1 35.9 2 2 0 0 0 1.3 2.5c1 .3 2.1-.3 2.5-1.3zm37.6-2a9.6 9.6 0 1 0-19.2 0 9.6 9.6 0 0 0 19.2 0zm-4 0a5.6 5.6 0 1 1-11.2 0 5.6 5.6 0 0 1 11.2 0zM9.8 123.2a9.6 9.6 0 1 0 0-19.2 9.6 9.6 0 0 0 0 19.2zm0-4a5.6 5.6 0 1 1 0-11.2 5.6 5.6 0 0 1 0 11.2z"/><path d="M69.2 19.2a9.6 9.6 0 1 0 0-19.2 9.6 9.6 0 0 0 0 19.2zm0-4a5.6 5.6 0 1 1 0-11.2 5.6 5.6 0 0 1 0 11.2zm1.4 70.1a7 7 0 0 1-8.2-5.3 7 7 0 0 1 5.3-8.2 7 7 0 0 1 8.2 5.3 6.9 6.9 0 0 1-5.3 8.2z"/></svg>