<svg xmlns="http://www.w3.org/2000/svg" width="170.218" height="170.277" viewBox="0 0 170.21801 170.27679" enable-background="new 0 0 648.371 170.775">
    <circle cx="85.314" cy="85.713" r="83.805" transform="translate(0 -.25)" fill="#fff"/>
    <path d="m138.644 100.7c0-29.454-23.877-53.331-53.33-53.331-29.454 0-53.331 23.877-53.331 53.331h15.237c0-21.039 17.055-38.094 38.093-38.094 21.038 0 38.093 17.055 38.093 38.094" fill-opacity=".1"/>
    <circle cx="89.123" cy="96.379" r="28.951" transform="translate(0 -.25)" fill-opacity=".1"/>
    <linearGradient id="a" gradientUnits="userSpaceOnUse" x1="-175.667" y1="582.198" x2="-175.667" y2="581.436" gradientTransform="matrix(82 0 0 -82 14489.971 47794.699)">
        <stop offset="0" stop-color="#81B4E0"/>
        <stop offset="1" stop-color="#0C5A94"/>
    </linearGradient>
    <circle cx="85.314" cy="85.712" r="31.236" transform="translate(0 -.25)" fill="url(#a)"/>
    <linearGradient id="b" gradientUnits="userSpaceOnUse" x1="-114.519" y1="250.392" x2="-114.519" y2="181.062" gradientTransform="matrix(1 0 0 -1 202.5 250.526)">
        <stop offset="0" stop-color="#F06B59"/>
        <stop offset="1" stop-color="#DF2227"/>
    </linearGradient>
    <path d="m161.5 47.369c-20.975-42.2-72.188-59.407-114.389-38.433-13.159 6.54-24.405 16.367-32.65 28.53l34.284 59.425c-6.314-20.068 4.837-41.456 24.905-47.769 3.529-1.11 7.203-1.701 10.902-1.752" fill="url(#b)"/>
    <linearGradient id="c" gradientUnits="userSpaceOnUse" x1="-181.738" y1="104.41" x2="-146.693" y2="162.311" gradientTransform="matrix(1 0 0 -1 202.5 250.526)">
        <stop offset="0" stop-color="#388B41"/>
        <stop offset="1" stop-color="#4CB749"/>
    </linearGradient>
    <path d="m14.461 37.466c-26.241 39.144-15.781 92.148 23.363 118.389 12.111 8.119 26.1 12.999 40.633 14.175l35.808-60.948c-13.389 16.228-37.397 18.529-53.625 5.14-5.512-4.547-9.634-10.552-11.895-17.33" fill="url(#c)"/>
    <linearGradient id="d" gradientUnits="userSpaceOnUse" x1="-64.337" y1="98.252" x2="-101.668" y2="188.151" gradientTransform="matrix(1 0 0 -1 202.5 250.526)">
        <stop offset="0" stop-color="#E4B022"/>
        <stop offset=".3" stop-color="#FCD209"/>
    </linearGradient>
    <path d="m78.457 170.03c46.991 3.552 87.965-31.662 91.518-78.653 1.146-15.162-1.779-30.354-8.476-44.007h-76.947c21.037.097 38.014 17.23 37.917 38.268-.039 8.511-2.928 16.766-8.205 23.444" fill="url(#d)"/>
    <linearGradient id="e" gradientUnits="userSpaceOnUse" x1="-170.136" y1="155.92" x2="-170.136" y2="216.868" gradientTransform="matrix(1 0 0 -1 202.5 250.526)">
        <stop offset="0" stop-opacity=".15"/>
        <stop offset=".3" stop-opacity=".06"/>
        <stop offset="1" stop-opacity=".03"/>
    </linearGradient>
    <path d="m14.461 37.466l34.284 59.425c-2.54-8.547-2-17.714 1.523-25.904l-34.284-35.807" fill="url(#e)"/>
    <linearGradient id="f" gradientUnits="userSpaceOnUse" x1="-86.009" y1="136.238" x2="-127.911" y2="93.575" gradientTransform="matrix(1 0 0 -1 202.5 250.526)">
        <stop offset="0" stop-opacity=".15"/>
        <stop offset=".3" stop-opacity=".06"/>
        <stop offset="1" stop-opacity=".03"/>
    </linearGradient>
    <path d="m78.457 170.03l35.808-60.948c-5.65 6.737-13.456 11.312-22.094 12.951l-15.238 47.997" fill="url(#f)"/>
    <linearGradient id="g" gradientUnits="userSpaceOnUse" x1="-86.616" y1="123.964" x2="-80.521" y2="184.148" gradientTransform="matrix(1 0 0 -1 202.5 250.526)">
        <stop offset="0" stop-opacity=".15"/>
        <stop offset=".3" stop-opacity=".06"/>
        <stop offset="1" stop-opacity=".03"/>
    </linearGradient>
    <path d="M161.5 47.369h-76.948c11.59.054 22.526 5.381 29.712 14.476l48.759-12.19" fill="url(#g)"/>
</svg>
