<?xml version="1.0" encoding="UTF-8" standalone="no"?>
<!-- Generator: Adobe Illustrator 15.0.2, SVG Export Plug-In . SVG Version: 6.00 Build 0)  -->

<svg
   xmlns:dc="http://purl.org/dc/elements/1.1/"
   xmlns:cc="http://creativecommons.org/ns#"
   xmlns:rdf="http://www.w3.org/1999/02/22-rdf-syntax-ns#"
   xmlns:svg="http://www.w3.org/2000/svg"
   xmlns="http://www.w3.org/2000/svg"
   xmlns:sodipodi="http://sodipodi.sourceforge.net/DTD/sodipodi-0.dtd"
   xmlns:inkscape="http://www.inkscape.org/namespaces/inkscape"
   version="1.1"
   id="Layer_1"
   x="0px"
   y="0px"
   width="170.218"
   height="170.27678"
   viewBox="0 0 170.21801 170.27679"
   enable-background="new 0 0 648.371 170.775"
   xml:space="preserve"
   inkscape:version="0.48.0 r9654"
   sodipodi:docname="Google_Chrome_2011_Logo.svg"><metadata
   id="metadata74"><rdf:RDF><cc:Work
       rdf:about=""><dc:format>image/svg+xml</dc:format><dc:type
         rdf:resource="http://purl.org/dc/dcmitype/StillImage" /></cc:Work></rdf:RDF></metadata><defs
   id="defs72" /><sodipodi:namedview
   pagecolor="#ffffff"
   bordercolor="#666666"
   borderopacity="1"
   objecttolerance="10"
   gridtolerance="10"
   guidetolerance="10"
   inkscape:pageopacity="0"
   inkscape:pageshadow="2"
   inkscape:window-width="1024"
   inkscape:window-height="712"
   id="namedview70"
   showgrid="false"
   fit-margin-top="0"
   fit-margin-left="0"
   fit-margin-right="0"
   fit-margin-bottom="0"
   inkscape:zoom="0.82051792"
   inkscape:cx="324.1857"
   inkscape:cy="85.139249"
   inkscape:window-x="-4"
   inkscape:window-y="-4"
   inkscape:window-maximized="1"
   inkscape:current-layer="Layer_1" />

<circle
   id="circle47_1_"
   cx="85.314003"
   cy="85.712997"
   r="83.805"
   sodipodi:cx="85.314003"
   sodipodi:cy="85.712997"
   sodipodi:rx="83.805"
   sodipodi:ry="83.805"
   style="fill:#ffffff"
   transform="translate(2.1317774e-4,-0.24996129)" />
<path
   id="path49_1_"
   d="m 138.64421,100.70004 c 0,-29.454001 -23.877,-53.331001 -53.329997,-53.331001 -29.454,0 -53.331,23.877 -53.331,53.331001 h 15.237 c 0,-21.039001 17.055,-38.094001 38.093,-38.094001 21.037997,0 38.092997,17.055 38.092997,38.094001"
   inkscape:connector-curvature="0"
   style="fill-opacity:0.1" />
<circle
   id="circle51_1_"
   cx="89.123001"
   cy="96.378998"
   r="28.951"
   sodipodi:cx="89.123001"
   sodipodi:cy="96.378998"
   sodipodi:rx="28.951"
   sodipodi:ry="28.951"
   style="fill-opacity:0.1"
   transform="translate(2.1317774e-4,-0.24996129)" />
<linearGradient
   id="circle53_2_"
   gradientUnits="userSpaceOnUse"
   x1="-175.6665"
   y1="582.19751"
   x2="-175.6665"
   y2="581.43579"
   gradientTransform="matrix(82,0,0,-82,14489.971,47794.699)">
	<stop
   offset="0"
   style="stop-color:#81B4E0"
   id="stop23" />
	<stop
   offset="1"
   style="stop-color:#0C5A94"
   id="stop25" />
</linearGradient>
<circle
   id="circle53_1_"
   cx="85.314003"
   cy="85.711998"
   r="31.236"
   sodipodi:cx="85.314003"
   sodipodi:cy="85.711998"
   sodipodi:rx="31.236"
   sodipodi:ry="31.236"
   style="fill:url(#circle53_2_)"
   transform="translate(2.1317774e-4,-0.24996129)" />
<linearGradient
   id="path55_2_"
   gradientUnits="userSpaceOnUse"
   x1="-114.519"
   y1="250.3918"
   x2="-114.519"
   y2="181.0621"
   gradientTransform="matrix(1,0,0,-1,202.50021,250.52594)">
	<stop
   offset="0"
   style="stop-color:#F06B59"
   id="stop29" />
	<stop
   offset="1"
   style="stop-color:#DF2227"
   id="stop31" />
</linearGradient>
<path
   id="path55_1_"
   d="m 161.50021,47.369039 c -20.975,-42.2000003 -72.187997,-59.407 -114.388997,-38.4330003 -13.159,6.5400003 -24.405,16.3670003 -32.65,28.5300003 l 34.284,59.425 c -6.314,-20.068 4.837,-41.456 24.905,-47.769 3.529,-1.11 7.203,-1.701 10.902,-1.752"
   inkscape:connector-curvature="0"
   style="fill:url(#path55_2_)" />
<linearGradient
   id="path57_2_"
   gradientUnits="userSpaceOnUse"
   x1="-181.73779"
   y1="104.4104"
   x2="-146.69279"
   y2="162.3109"
   gradientTransform="matrix(1,0,0,-1,202.50021,250.52594)">
	<stop
   offset="0"
   style="stop-color:#388B41"
   id="stop35" />
	<stop
   offset="1"
   style="stop-color:#4CB749"
   id="stop37" />
</linearGradient>
<path
   id="path57_1_"
   d="m 14.461213,37.466039 c -26.241,39.144 -15.7809998,92.148001 23.363,118.389001 12.111,8.119 26.1,12.999 40.633,14.175 l 35.807997,-60.948 c -13.389,16.228 -37.396997,18.529 -53.624997,5.14 -5.512,-4.547 -9.634,-10.552 -11.895,-17.330001"
   inkscape:connector-curvature="0"
   style="fill:url(#path57_2_)" />
<linearGradient
   id="path59_2_"
   gradientUnits="userSpaceOnUse"
   x1="-64.337402"
   y1="98.252197"
   x2="-101.6683"
   y2="188.15109"
   gradientTransform="matrix(1,0,0,-1,202.50021,250.52594)">
	<stop
   offset="0"
   style="stop-color:#E4B022"
   id="stop41" />
	<stop
   offset="0.3"
   style="stop-color:#FCD209"
   id="stop43" />
</linearGradient>
<path
   id="path59_1_"
   d="m 78.457213,170.03004 c 46.990997,3.552 87.964997,-31.662 91.517997,-78.653001 1.146,-15.162 -1.779,-30.354 -8.476,-44.007 H 84.552213 c 21.036997,0.097 38.013997,17.23 37.916997,38.268 -0.039,8.511 -2.928,16.766001 -8.205,23.444001"
   inkscape:connector-curvature="0"
   style="fill:url(#path59_2_)" />
<linearGradient
   id="path61_2_"
   gradientUnits="userSpaceOnUse"
   x1="-170.1362"
   y1="155.9202"
   x2="-170.1362"
   y2="216.8683"
   gradientTransform="matrix(1,0,0,-1,202.50021,250.52594)">
	<stop
   offset="0"
   style="stop-color:#000000;stop-opacity:0.15"
   id="stop47" />
	<stop
   offset="0.3"
   style="stop-color:#000000;stop-opacity:0.06"
   id="stop49" />
	<stop
   offset="1"
   style="stop-color:#000000;stop-opacity:0.03"
   id="stop51" />
</linearGradient>
<path
   id="path61_1_"
   d="m 14.461213,37.466039 34.284,59.425 c -2.54,-8.547 -2,-17.714 1.523,-25.904 l -34.284,-35.807"
   inkscape:connector-curvature="0"
   style="fill:url(#path61_2_)" />
<linearGradient
   id="path63_2_"
   gradientUnits="userSpaceOnUse"
   x1="-86.0093"
   y1="136.23849"
   x2="-127.911"
   y2="93.574898"
   gradientTransform="matrix(1,0,0,-1,202.50021,250.52594)">
	<stop
   offset="0"
   style="stop-color:#000000;stop-opacity:0.15"
   id="stop55" />
	<stop
   offset="0.3"
   style="stop-color:#000000;stop-opacity:0.06"
   id="stop57" />
	<stop
   offset="1"
   style="stop-color:#000000;stop-opacity:0.03"
   id="stop59" />
</linearGradient>
<path
   id="path63_1_"
   d="m 78.457213,170.03004 35.807997,-60.948 c -5.65,6.737 -13.456,11.312 -22.093997,12.951 l -15.238,47.997"
   inkscape:connector-curvature="0"
   style="fill:url(#path63_2_)" />
<linearGradient
   id="path65_2_"
   gradientUnits="userSpaceOnUse"
   x1="-86.6157"
   y1="123.9641"
   x2="-80.521103"
   y2="184.14819"
   gradientTransform="matrix(1,0,0,-1,202.50021,250.52594)">
	<stop
   offset="0"
   style="stop-color:#000000;stop-opacity:0.15"
   id="stop63" />
	<stop
   offset="0.3"
   style="stop-color:#000000;stop-opacity:0.06"
   id="stop65" />
	<stop
   offset="1"
   style="stop-color:#000000;stop-opacity:0.03"
   id="stop67" />
</linearGradient>
<path
   id="path65_1_"
   d="M 161.50021,47.369039 H 84.552213 c 11.59,0.054 22.525997,5.381 29.711997,14.476 l 48.759,-12.19"
   inkscape:connector-curvature="0"
   style="fill:url(#path65_2_)" />
</svg>