<?xml version="1.0" encoding="UTF-8" standalone="no"?>
<!-- Created with Inkscape (http://www.inkscape.org/) -->

<svg
   xmlns:dc="http://purl.org/dc/elements/1.1/"
   xmlns:cc="http://creativecommons.org/ns#"
   xmlns:rdf="http://www.w3.org/1999/02/22-rdf-syntax-ns#"
   xmlns:svg="http://www.w3.org/2000/svg"
   xmlns="http://www.w3.org/2000/svg"
   xmlns:xlink="http://www.w3.org/1999/xlink"
   xmlns:sodipodi="http://sodipodi.sourceforge.net/DTD/sodipodi-0.dtd"
   xmlns:inkscape="http://www.inkscape.org/namespaces/inkscape"
   width="109.40017"
   height="100.77499"
   id="svg2"
   version="1.1"
   inkscape:version="0.48.2 r9819"
   sodipodi:docname="Internet Explorer 9 logo.svg">
  <defs
     id="defs4">
    <radialGradient
       inkscape:collect="always"
       xlink:href="#SVGID_1_"
       id="radialGradient3275"
       gradientUnits="userSpaceOnUse"
       gradientTransform="matrix(0.869,0.4949,-0.4095,0.7191,90.1259,-29.9967)"
       cx="157.0107"
       cy="169.83791"
       r="175.4256" />
    <radialGradient
       inkscape:collect="always"
       xlink:href="#SVGID_2_"
       id="radialGradient3277"
       gradientUnits="userSpaceOnUse"
       gradientTransform="matrix(0.7101,0.7041,-1.8774,1.8936,417.7134,-296.0714)"
       cx="171.77879"
       cy="195.98"
       r="78.793503" />
    <radialGradient
       inkscape:collect="always"
       xlink:href="#SVGID_3_"
       id="radialGradient3279"
       gradientUnits="userSpaceOnUse"
       gradientTransform="matrix(0.7015,0.7127,-1.8844,1.8549,441.4625,-309.2913)"
       cx="188.8398"
       cy="204.3584"
       r="89.172897" />
  </defs>
  <sodipodi:namedview
     id="base"
     pagecolor="#ffffff"
     bordercolor="#666666"
     borderopacity="1.0"
     inkscape:pageopacity="0.0"
     inkscape:pageshadow="2"
     inkscape:zoom="1.4142136"
     inkscape:cx="239.0378"
     inkscape:cy="53.581371"
     inkscape:document-units="px"
     inkscape:current-layer="layer1"
     showgrid="false"
     showguides="false"
     fit-margin-top="0"
     fit-margin-left="0"
     fit-margin-right="0"
     fit-margin-bottom="0"
     inkscape:window-width="1600"
     inkscape:window-height="837"
     inkscape:window-x="-8"
     inkscape:window-y="-8"
     inkscape:window-maximized="1">
    <inkscape:grid
       type="xygrid"
       id="grid3053"
       empspacing="5"
       visible="true"
       enabled="true"
       snapvisiblegridlinesonly="true" />
  </sodipodi:namedview>
  <metadata
     id="metadata7">
    <rdf:RDF>
      <cc:Work
         rdf:about="">
        <dc:format>image/svg+xml</dc:format>
        <dc:type
           rdf:resource="http://purl.org/dc/dcmitype/StillImage" />
        <dc:title></dc:title>
      </cc:Work>
    </rdf:RDF>
  </metadata>
  <g
     inkscape:label="Capa 1"
     inkscape:groupmode="layer"
     id="layer1"
     transform="translate(15.74869,-265.30153)">
    <g
       id="g3241">
      <g
         transform="matrix(0.38462212,0,0,0.38462212,-30.92626,239.595)"
         id="g3098">
	<g
   id="g3100">
		
			<radialGradient
   gradientUnits="userSpaceOnUse"
   gradientTransform="matrix(0.869,0.4949,-0.4095,0.7191,90.1259,-29.9967)"
   r="175.4256"
   cy="169.83791"
   cx="157.0107"
   id="SVGID_1_">
			<stop
   id="stop3103"
   style="stop-color:#3DC5F1"
   offset="0.4713" />

			<stop
   id="stop3105"
   style="stop-color:#31A5DC"
   offset="0.7905" />

			<stop
   id="stop3107"
   style="stop-color:#1E71B8"
   offset="1" />

		</radialGradient>

		<path
   id="path3109"
   d="m 204.013,271.924 c -20.214,0 -37.787,-11.293 -46.766,-27.908 -4.052,-7.502 -6.356,-16.09 -6.356,-25.215 v -0.244 h 0.005 106.233 64.823 c 0.508,-4.504 0.795,-9.072 0.795,-13.711 0,-66.792 -54.145,-120.935 -120.936,-120.935 -66.792,0 -120.937,54.144 -120.937,120.935 0,66.791 54.145,120.936 120.937,120.936 53.076,0 98.134,-34.207 114.413,-81.766 h -65.447 c -8.977,16.615 -26.552,27.908 -46.764,27.908 z m -2.201,-133.177 c 27.136,0 49.306,21.229 50.829,47.983 h -101.66 c 1.523,-26.754 23.694,-47.983 50.831,-47.983 z"
   inkscape:connector-curvature="0"
   style="fill:url(#radialGradient3275)" />

		<g
   id="g3111"
   style="opacity:0.5">
			<path
   id="path3113"
   d="m 204.429,273.173 c -20.213,0 -37.786,-11.293 -46.766,-27.908 -4.052,-7.502 -6.356,-16.09 -6.356,-25.215 v -0.244 h 0.005 106.232 64.823 c 0.508,-4.504 0.795,-9.072 0.795,-13.711 0,-66.792 -54.145,-120.935 -120.936,-120.935 -66.791,0 -120.934,54.143 -120.934,120.935 0,66.791 54.145,120.936 120.936,120.936 53.076,0 98.134,-34.207 114.413,-81.766 h -65.447 c -8.978,16.615 -26.553,27.908 -46.765,27.908 z m -2.201,-133.177 c 27.136,0 49.306,21.229 50.829,47.983 h -101.66 c 1.524,-26.754 23.694,-47.983 50.831,-47.983 z"
   stroke-miterlimit="10"
   inkscape:connector-curvature="0"
   style="fill:none;stroke:#ffffff;stroke-width:1.46889997;stroke-miterlimit:10" />

		</g>

		<path
   id="path3115"
   d="m 204.013,271.924 c -20.214,0 -37.787,-11.293 -46.766,-27.908 -4.052,-7.502 -6.356,-16.09 -6.356,-25.215 v -0.244 h 0.005 106.233 64.823 c 0.508,-4.504 0.795,-9.072 0.795,-13.711 0,-66.792 -54.145,-120.935 -120.936,-120.935 -66.792,0 -120.937,54.144 -120.937,120.935 0,66.791 54.145,120.936 120.937,120.936 53.076,0 98.134,-34.207 114.413,-81.766 h -65.447 c -8.977,16.615 -26.552,27.908 -46.764,27.908 z m -2.201,-133.177 c 27.136,0 49.306,21.229 50.829,47.983 h -101.66 c 1.523,-26.754 23.694,-47.983 50.831,-47.983 z"
   stroke-miterlimit="10"
   inkscape:connector-curvature="0"
   style="fill:none;stroke:#0f5ea8;stroke-width:1.46889997;stroke-miterlimit:10" />

		<g
   id="g3117"
   style="opacity:0.1">
			<path
   id="path3119"
   d="m 203.597,271.508 c -20.214,0 -37.787,-11.293 -46.767,-27.908 -4.052,-7.502 -6.356,-16.09 -6.356,-25.215 v -0.244 h 0.005 106.233 64.823 c 0.508,-4.504 0.795,-9.072 0.795,-13.711 0,-66.792 -54.145,-120.936 -120.936,-120.936 -66.792,0 -120.937,54.144 -120.937,120.936 0,66.791 54.145,120.936 120.937,120.936 53.076,0 98.134,-34.207 114.413,-81.766 H 250.36 c -8.976,16.615 -26.551,27.908 -46.763,27.908 z m -2.201,-133.177 c 27.136,0 49.306,21.229 50.829,47.983 h -101.66 c 1.523,-26.755 23.693,-47.983 50.831,-47.983 z"
   stroke-miterlimit="10"
   inkscape:connector-curvature="0"
   style="fill:none;stroke:#231f20;stroke-width:1.46889997;stroke-miterlimit:10" />

		</g>

	</g>

	
		<radialGradient
   gradientUnits="userSpaceOnUse"
   gradientTransform="matrix(0.7101,0.7041,-1.8774,1.8936,417.7134,-296.0714)"
   r="78.793503"
   cy="195.98"
   cx="171.77879"
   id="SVGID_2_">
		<stop
   id="stop3122"
   style="stop-color:#FFCC09"
   offset="0.638" />

		<stop
   id="stop3124"
   style="stop-color:#F2ED7E;stop-opacity:0.96"
   offset="0.8712" />

		<stop
   id="stop3126"
   style="stop-color:#F3EC79;stop-opacity:0.8057"
   offset="0.8919" />

		<stop
   id="stop3128"
   style="stop-color:#F4E76A;stop-opacity:0.6187"
   offset="0.917" />

		<stop
   id="stop3130"
   style="stop-color:#F7E051;stop-opacity:0.4146"
   offset="0.9444" />

		<stop
   id="stop3132"
   style="stop-color:#FBD730;stop-opacity:0.2"
   offset="0.9732" />

		<stop
   id="stop3134"
   style="stop-color:#FFCC09;stop-opacity:0"
   offset="1" />

	</radialGradient>

	<path
   id="path3136"
   d="m 139.395,309.66 c -26.71,12.176 -48.584,14.281 -59.485,3.379 -22.308,-22.309 9.694,-90.48 71.479,-152.265 61.785,-61.784 129.958,-93.787 152.265,-71.479 9.521,9.522 9.119,27.415 0.759,49.583 1.224,1.896 2.398,3.824 3.518,5.789 C 319.16,115.382 319.034,90.475 304.268,75.71 281.377,52.819 176.443,87.324 109.721,154.048 43,220.768 26.363,294.691 49.006,317.334 c 17.253,17.254 62.211,14.289 98.166,-3.396 -2.649,-1.334 -5.241,-2.764 -7.777,-4.278 z"
   inkscape:connector-curvature="0"
   style="opacity:0.25;fill:url(#radialGradient3277)" />

	<path
   id="path3138"
   d="m 139.395,309.66 c -26.71,12.176 -48.584,14.281 -59.485,3.379 -22.308,-22.309 9.694,-90.48 71.479,-152.265 61.785,-61.784 129.958,-93.787 152.265,-71.479 9.521,9.522 9.119,27.415 0.759,49.583 1.224,1.896 2.398,3.824 3.518,5.789 11.229,-29.285 11.103,-54.192 -3.663,-68.957 -22.891,-22.891 -109.786,-1.605 -176.507,65.118 -66.723,66.723 -87.764,153.861 -65.12,176.506 17.253,17.254 48.578,14.289 84.533,-3.396 -2.651,-1.334 -5.243,-2.764 -7.779,-4.278 z"
   inkscape:connector-curvature="0"
   style="fill:#ffcc09" />

	
		<radialGradient
   gradientUnits="userSpaceOnUse"
   gradientTransform="matrix(0.7015,0.7127,-1.8844,1.8549,441.4625,-309.2913)"
   r="89.172897"
   cy="204.3584"
   cx="188.8398"
   id="SVGID_3_">
		<stop
   id="stop3141"
   style="stop-color:#F2ED7E;stop-opacity:0"
   offset="0.5583" />

		<stop
   id="stop3143"
   style="stop-color:#FFCC09"
   offset="0.7398" />

		<stop
   id="stop3145"
   style="stop-color:#F2ED7E;stop-opacity:0.96"
   offset="0.8712" />

		<stop
   id="stop3147"
   style="stop-color:#F3EB77;stop-opacity:0.8174"
   offset="0.8903" />

		<stop
   id="stop3149"
   style="stop-color:#F5E562;stop-opacity:0.6033"
   offset="0.919" />

		<stop
   id="stop3151"
   style="stop-color:#F9DC40;stop-opacity:0.3442"
   offset="0.9538" />

		<stop
   id="stop3153"
   style="stop-color:#FECF12;stop-opacity:0.0522"
   offset="0.993" />

		<stop
   id="stop3155"
   style="stop-color:#FFCC09;stop-opacity:0"
   offset="1" />

	</radialGradient>

	<path
   id="path3157"
   d="m 139.395,309.66 c -26.71,12.176 -48.584,14.281 -59.485,3.379 -22.308,-22.309 9.694,-90.48 71.479,-152.265 61.785,-61.784 129.958,-93.787 152.265,-71.479 9.521,9.522 9.119,27.415 0.759,49.583 1.224,1.896 2.398,3.824 3.518,5.789 11.229,-29.285 11.103,-54.192 -3.663,-68.957 -22.891,-22.891 -109.786,-1.605 -176.507,65.118 -66.723,66.723 -87.764,153.861 -65.12,176.506 17.253,17.254 48.578,14.289 84.533,-3.396 -2.651,-1.334 -5.243,-2.764 -7.779,-4.278 z"
   inkscape:connector-curvature="0"
   style="fill:url(#radialGradient3279)" />

</g>
    </g>
  </g>
</svg>
