<svg xmlns="http://www.w3.org/2000/svg" viewBox="0 0 1507 1512"><path fill="#706cf5" d="M878 0c374.3 0 628.7 254.3 628.7 628.6l-.5 282.7c-12.5 359-263.3 600.6-628.2 600.6H628.6C254.3 1512 0 1265 0 891V620C0 257.2 239.4 14.8 595.4.7l33.2-.7H878z"/><path fill="#fff" d="M971.7 1086.7a396 396 0 0 1-573.2-154 906.8 906.8 0 0 1-89.8-53.8 461.2 461.2 0 0 0 444.6 338c126 0 240-51 323.3-133-32.5 3-67.7 3.4-105 2zM365.5 838.2a727 727 0 0 1-72.2-50c-79.4-63.2-120.2-129-105-185s83.5-92 183.4-106.2a461.3 461.3 0 0 1 841.8 228.8c79.3 63 120 129 104.8 185-15.3 56-84 92.2-185 106.3-27 4-56.4 6-87.7 7-102 2-224-14-351.6-48.4-127.8-35-241.3-83.4-328.5-137zm731.3 115.6a394.3 394.3 0 0 0 52.8-195.4V756a396.3 396.3 0 0 0-792.6-.4c82.5 55.3 207.3 109.8 351.6 149 149 40.6 288.2 56.6 388.2 49.2zm79.2-13.2c39.7-11.7 65.3-30 72.2-55.2 7-25.5-6.4-55-35.8-85.7l-.6 6c-5 47.6-17.5 93-35.8 135zM334.2 563.3l3.4-7c-47 11.4-77 31-84.3 58.3-7.4 27.2 8 58.7 41.5 91.6a459 459 0 0 1 39.4-143z"/></svg>