<svg xmlns="http://www.w3.org/2000/svg" viewBox="0 0 150.7 151.2"><path fill="#706cf5" d="M87.8 0c37.43 0 62.87 25.43 62.87 62.86v25.47l-.05 2.8c-1.25 35.9-26.33 60.06-62.82 60.06H62.86C25.43 151.2 0 126.5 0 89.1V62C0 25.72 23.94 1.48 59.54.07L62.86 0H87.8z"/><path fill="#fff" d="M97.17 108.67a39.6 39.6 0 0 1-57.32-15.4 90.68 90.68 0 0 1-8.98-5.38 46.12 46.12 0 0 0 44.46 33.8c12.6 0 24-5.1 32.33-13.3-3.25.3-6.77.34-10.5.2zM36.55 83.82a72.7 72.7 0 0 1-7.22-5c-7.94-6.32-12.02-12.9-10.5-18.5 1.52-5.6 8.35-9.2 18.34-10.62a46.13 46.13 0 0 1 84.18 22.88c7.93 6.3 12 12.9 10.48 18.5-1.53 5.6-8.4 9.22-18.5 10.63-2.7.4-5.64.6-8.77.7-10.2.2-22.4-1.4-35.16-4.84-12.78-3.5-24.13-8.34-32.85-13.7zm73.13 11.56a39.43 39.43 0 0 0 5.28-19.54v-.24a39.63 39.63 0 0 0-79.26-.04c8.25 5.53 20.73 10.98 35.16 14.9 14.9 4.06 28.82 5.66 38.82 4.92zm7.92-1.32c3.97-1.17 6.53-3 7.22-5.52.7-2.55-.64-5.5-3.58-8.57l-.06.6c-.5 4.76-1.75 9.3-3.58 13.5zM33.42 56.33l.34-.7c-4.7 1.14-7.7 3.1-8.43 5.83-.74 2.72.8 5.87 4.15 9.16a45.9 45.9 0 0 1 3.94-14.3z"/></svg>