<svg xmlns="http://www.w3.org/2000/svg" viewBox="0 0 256 256">
	<linearGradient id="a" gradientUnits="userSpaceOnUse" x1="58.703" y1="177.051" x2="237.038" y2="177.051">
		<stop offset="0" stop-color="#0c59a4" />
		<stop offset="1" stop-color="#114a8b" />
	</linearGradient>
	<path d="M231.05 190.534a93.452 93.452 0 01-10.533 4.714c-10.981 4.125-23.108 6.464-35.9 6.464-47.32 0-88.543-32.552-88.543-74.323 0-11.745 6.796-21.926 16.426-27.289-42.795 1.795-53.797 46.4-53.797 72.531 0 73.873 68.09 81.37 82.76 81.37 7.907 0 19.841-2.303 27.032-4.559.438-.145.874-.292 1.31-.443 27.76-9.573 51.188-28.407 66.589-52.82 2.208-3.501-1.676-7.568-5.343-5.645z" fill="url(#a)"/>
	<radialGradient id="b" cx="157.204" cy="178.384" r="95.384" gradientTransform="matrix(1 0 0 .95107 0 8.728)" gradientUnits="userSpaceOnUse">
		<stop offset=".717" stop-opacity="0" />
		<stop offset=".946" stop-opacity=".53" />
		<stop offset="1" />
	</radialGradient>
	<path d="M231.05 190.534a93.452 93.452 0 01-10.533 4.714c-10.981 4.125-23.108 6.464-35.9 6.464-47.32 0-88.543-32.552-88.543-74.323 0-11.745 6.796-21.926 16.426-27.289-42.795 1.795-53.797 46.4-53.797 72.531 0 73.873 68.09 81.37 82.76 81.37 7.907 0 19.841-2.303 27.032-4.559.438-.145.874-.292 1.31-.443 27.76-9.573 51.188-28.407 66.589-52.82 2.208-3.501-1.676-7.568-5.343-5.645z" opacity=".35" fill="url(#b)"/>
	<linearGradient id="c" gradientUnits="userSpaceOnUse" x1="152.723" y1="99.684" x2="41.328" y2="221.019">
		<stop offset="0" stop-color="#1b9de2" />
		<stop offset=".162" stop-color="#1595df" />
		<stop offset=".667" stop-color="#0680d7" />
		<stop offset="1" stop-color="#0078d4" />
	</linearGradient>
	<path d="M105.711 241.414c-8.894-5.514-16.615-12.784-22.735-21.376-9.47-13.295-15.132-29.65-15.132-47.407 0-26.13 12.168-49.275 30.924-63.939 4.26-3.33 9.713-6.69 13.732-8.592 3.12-1.477 8.457-4.137 15.545-4.036 11.752.166 20.631 6.157 25.685 12.962 3.884 5.228 6.278 11.669 6.358 18.66.003-.21 24.465-79.603-80.049-79.603C36.146 48.083 0 89.753 0 126.298c0 23.182 5.38 41.69 12.115 56.033 15 31.95 42.818 56.678 76.845 67.573A127.947 127.947 0 00128.045 256c14.14 0 27.731-2.326 40.45-6.558a75.75 75.75 0 01-22.72 3.49c-14.671 0-28.346-4.255-40.064-11.518z" fill="url(#c)"/>
	<radialGradient id="d" cx="71.304" cy="198.664" r="143.236" gradientTransform="matrix(.14843 -.98892 .79688 .1196 -97.59 245.418)" gradientUnits="userSpaceOnUse">
		<stop offset=".763" stop-opacity="0" />
		<stop offset=".946" stop-opacity=".5" />
		<stop offset="1" />
	</radialGradient>
	<path d="M105.711 241.414c-8.894-5.514-16.615-12.784-22.735-21.376-9.47-13.295-15.132-29.65-15.132-47.407 0-26.13 12.168-49.275 30.924-63.939 4.26-3.33 9.713-6.69 13.732-8.592 3.12-1.477 8.457-4.137 15.545-4.036 11.752.166 20.631 6.157 25.685 12.962 3.884 5.228 6.278 11.669 6.358 18.66.003-.21 24.465-79.603-80.049-79.603C36.146 48.083 0 89.753 0 126.298c0 23.182 5.38 41.69 12.115 56.033 15 31.95 42.818 56.678 76.845 67.573A127.947 127.947 0 00128.045 256c14.14 0 27.731-2.326 40.45-6.558a75.75 75.75 0 01-22.72 3.49c-14.671 0-28.346-4.255-40.064-11.518z" opacity=".41" fill="url(#d)"/>
	<radialGradient id="e" cx="25.234" cy="46.805" r="202.431" gradientTransform="matrix(-.03715 .99931 -2.12836 -.07913 125.79 25.293)" gradientUnits="userSpaceOnUse">
		<stop offset="0" stop-color="#35c1f1" />
		<stop offset=".111" stop-color="#34c1ed" />
		<stop offset=".232" stop-color="#2fc2df" />
		<stop offset=".314" stop-color="#2bc3d2" />
		<stop offset=".673" stop-color="#36c752" />
	</radialGradient>
	<path d="M152.314 148.857c-.81 1.05-3.303 2.498-3.303 5.664 0 2.605 1.7 5.117 4.721 7.226 14.38 10.036 41.486 8.684 41.559 8.684 11.19-.04 21.256-3.116 30.273-8.388a61.468 61.468 0 0011.322-8.5c11.747-11.163 18.91-26.894 19.108-44.373.255-22.415-7.96-37.317-11.337-43.916C223.465 23.836 177.718 0 127.977 0 57.865 0 .948 56.346.007 126.2.48 89.657 36.8 60.15 79.972 60.15c3.5 0 23.462.341 42.005 10.073 16.334 8.573 24.898 18.932 30.85 29.208 6.18 10.67 7.28 24.146 7.28 29.519s-2.709 13.328-7.793 19.908z" fill="url(#e)"/>
	<radialGradient id="f" cx="242.469" cy="77.576" r="97.338" gradientTransform="matrix(.28109 .95968 -.78353 .22949 235.097 -172.92)" gradientUnits="userSpaceOnUse">
		<stop offset="0" stop-color="#66eb6e" />
		<stop offset="1" stop-color="#66eb6e" stop-opacity="0" />
	</radialGradient>
	<path d="M152.314 148.857c-.81 1.05-3.303 2.498-3.303 5.664 0 2.605 1.7 5.117 4.721 7.226 14.38 10.036 41.486 8.684 41.559 8.684 11.19-.04 21.256-3.116 30.273-8.388a61.468 61.468 0 0011.322-8.5c11.747-11.163 18.91-26.894 19.108-44.373.255-22.415-7.96-37.317-11.337-43.916C223.465 23.836 177.718 0 127.977 0 57.865 0 .948 56.346.007 126.2.48 89.657 36.8 60.15 79.972 60.15c3.5 0 23.462.341 42.005 10.073 16.334 8.573 24.898 18.932 30.85 29.208 6.18 10.67 7.28 24.146 7.28 29.519s-2.709 13.328-7.793 19.908z" fill="url(#f)"/>
</svg>
