<svg xmlns="http://www.w3.org/2000/svg" viewBox="0 0 5.25 5.25"><path fill="#7882ff" d="M2.03 0h1.2c1.11 0 2.02.9 2.02 2.03v1.2c0 1.11-.9 2.02-2.03 2.02h-1.2C.92 5.25 0 4.35 0 3.22v-1.2C0 .92.9 0 2.03 0z"/><path fill="#4d5cc1" d="M4.02 2.63l-.01-.17-.05-.1c.33.3.5.62.4.87-.08.23-.36.36-.74.38-.37.02-.83-.06-1.3-.24a3.23 3.23 0 0 1-1.13-.69C.92 2.41.8 2.13.89 1.9c.09-.24.4-.36.81-.37h.01a1.42 1.42 0 0 0-.42.55c.09.25.44.55 1.13.84.56.23 1.22.35 1.51.16h.02c.04-.15.07-.3.07-.45z"/><path fill="#fff" d="M4.01 2.46a1.43 1.43 0 0 1-.06.61c-.29.2-.96.09-1.53-.15-.69-.3-1.04-.59-1.12-.84a1.42 1.42 0 0 1 .41-.55l.01-.01a1.42 1.42 0 0 1 2.29.94zm-1.4 1.58a1.42 1.42 0 0 1-1.42-1.36 3.44 3.44 0 0 0 2.43.93 1.41 1.41 0 0 1-1.02.43z"/></svg>