<svg viewBox="-5.5 -6 140 140" xmlns="http://www.w3.org/2000/svg" xmlns:xlink="http://www.w3.org/1999/xlink"><linearGradient id="a"><stop offset="0" stop-color="#fff"/><stop offset="1" stop-color="#fff" stop-opacity="0"/></linearGradient><linearGradient id="b"><stop offset="0" stop-color="#fff"/><stop offset=".35" stop-color="#fff" stop-opacity=".84"/><stop offset="1" stop-color="#fff" stop-opacity="0"/></linearGradient><linearGradient id="c" xlink:href="#a"/><linearGradient id="d"><stop offset="0" stop-color="#3465a4"/><stop offset="1" stop-color="#3465a4" stop-opacity="0"/></linearGradient><linearGradient id="e"><stop offset="0" stop-color="#569fed"/><stop offset="1" stop-color="#fff"/></linearGradient><linearGradient id="f"><stop offset="0" stop-opacity=".71"/><stop offset=".4" stop-opacity=".35"/><stop offset="1" stop-opacity="0"/></linearGradient><radialGradient id="g" cx="65.33" cy="63.5" fx="65.58" fy="64.69" gradientUnits="userSpaceOnUse" r="57.35" xlink:href="#f"/><linearGradient id="h" gradientUnits="userSpaceOnUse" x1="60.81" x2="428.63" y1="222.16" y2="222.16"><stop offset="0" stop-color="#e23434"/><stop offset="1" stop-color="#9a0606"/></linearGradient><radialGradient id="i" cx="244.72" cy="222.16" gradientUnits="userSpaceOnUse" r="183.91"><stop offset="0" stop-color="#fff" stop-opacity=".7"/><stop offset=".8" stop-color="#9a0606" stop-opacity="0"/><stop offset="1" stop-color="#e23434"/></radialGradient><radialGradient id="j" cx="33.41734" cy="222.17464" gradientUnits="userSpaceOnUse" r="249.01414" xlink:href="#c"/><radialGradient id="k" cx="60.80876" cy="222.17464" gradientUnits="userSpaceOnUse" r="249.01414" xlink:href="#c"/><linearGradient id="l" gradientTransform="matrix(.543 -.94 .94 .543 -156.67 314.83)" gradientUnits="userSpaceOnUse" x1="98" x2="420" xlink:href="#c" y1="240.92" y2="240.92"/><linearGradient id="m" gradientTransform="matrix(-.94 .543 .543 .94 334.23 -173.07)" gradientUnits="userSpaceOnUse" x1="98" x2="420" xlink:href="#c" y1="240.92" y2="240.92"/><linearGradient id="n" gradientTransform="matrix(.94 -.543 -.543 -.94 150.77 625.27)" gradientUnits="userSpaceOnUse" x1="98" x2="420" xlink:href="#c" y1="240.92" y2="240.92"/><linearGradient id="o" gradientTransform="matrix(-.543 .94 -.94 -.543 641.67 131.38)" gradientUnits="userSpaceOnUse" x1="98" x2="420" xlink:href="#c" y1="240.92" y2="240.92"/><radialGradient id="p" cx="246.35" cy="226.88" gradientTransform="matrix(1 -.577 .124 .215 -28.14 320.38)" gradientUnits="userSpaceOnUse" r="154.36" xlink:href="#c"/><radialGradient id="q" cx="246.35" cy="226.88" gradientTransform="matrix(-.577 -1 .215 -.124 339.85 501.37)" gradientUnits="userSpaceOnUse" r="154.36" xlink:href="#c"/><radialGradient id="r" cx="156.5" cy="148.5" gradientUnits="userSpaceOnUse" r="19.5" xlink:href="#b"/><radialGradient id="s" cx="31.34" cy="39.21" gradientTransform="matrix(1.26 .664 -.285 .54 5.6 1.06)" gradientUnits="userSpaceOnUse" r="21.78" xlink:href="#b"/><linearGradient id="t" gradientTransform="matrix(1 0 0 .903 0 7.61)" gradientUnits="userSpaceOnUse" x1="2.09" x2="28.26" xlink:href="#b" y1="67.33" y2="67.33"/><radialGradient id="u" cx="31.34" cy="86.61" gradientTransform="matrix(2.12 0 0 2.274 -35.1 -110.37)" gradientUnits="userSpaceOnUse" r="20.03" xlink:href="#d"/><radialGradient id="v" cx="31.34" cy="39.21" gradientTransform="matrix(-1.26 .664 .285 .54 122.33 1.06)" gradientUnits="userSpaceOnUse" r="21.78" xlink:href="#b"/><radialGradient id="w" cx="31.34" cy="86.61" gradientTransform="matrix(-2.12 0 0 2.274 163.04 -110.37)" gradientUnits="userSpaceOnUse" r="20.03" xlink:href="#d"/><linearGradient id="x" gradientTransform="matrix(-1 0 0 .903 127.94 7.61)" gradientUnits="userSpaceOnUse" x1="2.09" x2="28.26" xlink:href="#b" y1="67.33" y2="67.33"/><radialGradient id="y" cx="64" cy="78.81" gradientTransform="matrix(1 0 0 1.054 0 -4.64)" gradientUnits="userSpaceOnUse" r="64" xlink:href="#e"/><linearGradient id="z" gradientTransform="matrix(1.023 0 0 1.186 -1.26 -8.68)" gradientUnits="userSpaceOnUse" x1="50.65" x2="37.42" xlink:href="#e" y1="66.35" y2="51.58"/><linearGradient id="A" gradientUnits="userSpaceOnUse" x1="50.13" x2="45.44" xlink:href="#d" y1="57.79" y2="49.66"/><radialGradient id="B" cx="41.46" cy="49.55" gradientTransform="matrix(1.71 0 0 1.518 -29.48 -25.07)" gradientUnits="userSpaceOnUse" r="9.23" xlink:href="#c"/><radialGradient id="C" cx="64" cy="37.53" gradientTransform="matrix(7.14 0 0 2.42 -392.97 -52.39)" gradientUnits="userSpaceOnUse" r="13.46" xlink:href="#b"/><radialGradient id="D" cx="63.52" cy="41.99" gradientTransform="matrix(10.062 0 0 6.926 -575.1 -225.38)" gradientUnits="userSpaceOnUse" r="3.5" xlink:href="#d"/><linearGradient id="E" gradientUnits="userSpaceOnUse" x1="62.91" x2="62.91" xlink:href="#f" y1="44.77" y2="46.88"/><linearGradient id="F" gradientUnits="userSpaceOnUse" x1="185.18" x2="185.18" xlink:href="#a" y1="178.87" y2="162.24"/><radialGradient id="G" cx="185.18" cy="162.24" gradientTransform="matrix(1.766 0 0 3.005 -141.84 -325.26)" gradientUnits="userSpaceOnUse" r="8.31" xlink:href="#a"/><radialGradient id="H" cx="64.02" cy="32.37" gradientTransform="matrix(1.517 0 0 .378 -33.1 19.78)" gradientUnits="userSpaceOnUse" r="11.16" xlink:href="#e"/><path d="m122.68 63.5a57.35 57.35 0 1 1 -114.7 0 57.35 57.35 0 1 1 114.7 0z" fill="url(#g)" transform="matrix(.806 0 0 .227 11.33 100.54)"/><g fill-rule="evenodd"><path d="m56.87 1.2c-4.76.86-6.27 5.13-8.71 7.37-5.07 3.08-10.84 4.63-16.63 6.16-3.66.96-7.33 1.92-10.82 3.24-9.28 5.73-14.48 18.04-15.55 28.2-.43 3.18-1.26 11.12.02 13.76 2.56-1.49 5-1.47 5.04-1.29-6.06-.2-8.8 9.16-9.62 14.04-.53 8.4.79 16.38 6.2 22.53 7 7.95 24.7 10.05 31 15.78 1.68 1.53-5.06 3.75-7.06 6-.64.72-1.1 2.06-.85 2.9.26.88 1.44 1.9 2.38 2.21 1.03.36 2.39-.38 3.51-.16 1.18.24 2.3 1.74 3.4 1.55 1.87-.32 3.65-2.66 5.53-3.09.88-.2 1.82 1.37 2.7 1.23 1.48-.25-.2.1 4.4-2.4 18.2-12.58 5.48-12.58 24.32 0 4.36 2.9 2.9 2.15 4.37 2.4.88.16 1.82-1.42 2.7-1.22 1.88.43 3.66 2.77 5.54 3.1 1.1.18 2.2-1.32 3.39-1.55 1.13-.22 2.52.52 3.55.16.93-.32 2.08-1.33 2.34-2.22.24-.82-.21-2.17-.86-2.9-2-2.24-8.74-4.46-7.06-5.98 6.3-5.73 24.02-7.83 31-15.78 5.43-6.15 6.78-14.14 6.25-22.53-1.03-4.83-3.47-14.23-9.62-14.03.03-.18 2.6-.37 5 1.29 1.29-2.65.46-10.6.03-13.76-.47-10.14-6.67-22.58-15.54-28.2-8.74-3.9-19.46-3.87-27.41-9.4-2.44-2.25-4.42-6.54-8.75-7.38-4.4-.86-8.84-.98-14.22 0z" fill="url(#y)" stroke="#3465a4" stroke-linecap="round" stroke-linejoin="round" stroke-width="2.5"/><path d="m56.92 26.94c6.63-3.13 7.48-3.01 14-.4 2.6 1.1 5.2-1.66 7.81-2.49 2.06 13.2 1.03 15.07-1.44 16.1-2.72 1.14 7.1 9.22-13.79 9.22-19.55 0-10.2-8.23-12.55-9.46-2.72-1.43-3.66-3.07-1.85-15.43 2.6.83 5.37 3.9 7.82 2.5z" fill="url(#C)"/><path d="m62.93 40.28c-.31 0-.7.13-1.2.52-2.68 2.08-5.51 4.05-6.38 5.57-3.92 6.77 20.77 6.7 16.9 0-1.06-1.84-3.7-3.49-6.38-5.57-1.26-.98-1.83-.46-2.09.33-.15-.47-.38-.85-.85-.85z" fill="url(#D)"/></g><path d="m63.5 45.8a.5 1.08 0 1 1 -1 0 .5 1.08 0 1 1 1 0z" fill="url(#E)" transform="matrix(1.238 0 0 1.238 -15.43 -13.4)"/><path d="m63.5 45.8a.5 1.08 0 1 1 -1 0 .5 1.08 0 1 1 1 0z" fill="url(#E)" transform="matrix(1.238 0 0 1.238 -12.96 -13.4)"/><path d="m58.28 35.56a2.12 2.12 0 0 0 -4.24 0 2.12 2.12 0 0 0 4.24 0z"/><path d="m193.5 170.56a8.31 8.31 0 1 1 -16.63 0 8.31 8.31 0 1 1 16.63 0z" fill="url(#F)" transform="matrix(.1 0 0 -.047 37.6 42.26)"/><path d="m193.5 170.56a8.31 8.31 0 1 1 -16.63 0 8.31 8.31 0 1 1 16.63 0z" fill="url(#G)" transform="matrix(.16 0 0 -.09 26.8 51.58)"/><path d="m73.14 35.56a2.12 2.12 0 0 0 -4.24 0 2.12 2.12 0 0 0 4.24 0z"/><path d="m193.5 170.56a8.31 8.31 0 1 1 -16.63 0 8.31 8.31 0 1 1 16.63 0z" fill="url(#F)" transform="matrix(.1 0 0 -.047 52.45 42.26)"/><path d="m193.5 170.56a8.31 8.31 0 1 1 -16.63 0 8.31 8.31 0 1 1 16.63 0z" fill="url(#G)" transform="matrix(.16 0 0 -.09 41.66 51.58)"/><g fill-rule="evenodd"><path d="m52.54 32.02c-1 .42-1.8 1.19-1.93 1.93s.78 3.05 1.13 2.52c2.42-3.64 4.94-.86 7.59-1.17 4.38 2.18 4.6 1.36 8.98 0 2.95.11 4.88-2.19 7.56 1.17.39.5 1.29-1.77 1.16-2.52-.13-.74-.93-1.51-1.94-1.93a6.9 6.9 0 0 0 -4.1-.59c-1.68.33-4.6 2.25-5.98 2.56-1.14.57-1.28.49-2.41 0-1.4-.32-4.34-2.23-6.03-2.56-1.42-.33-2.73.13-4.06.58z" fill="url(#H)"/><path d="m117.13 47.04-.16-2.16-2 .17.5-1.5h-1.49v-1h-1.49l-1.33-1.83-.5.66-1.99-1.83v.5l-1.67-1.16.33.67-3.66-1.66.5.33-4.82-1.83 1 .83-4.49-.5-.33.66-4.66-1.33.17 1.66-3.83.83.5.83-4.49 1.16 1 .5-4.98 1.16.83 1.16-3.16 1.83.99 1.66h-1.33l-1.5 1.5-1.5 3.49 15.79 10.8v-6.14l3.16 1.33-2-2.5 3.16 1-1.66-2.32 3.32 1-2.34-2.99 2.82 1.33-2.32-3.32 3.82 2.16-1.66-3.16 2.66 1.83-.83-3.33 2.32 2.5-.83-3.66 2.33 3.16-.17-2.83 1.5 2.83v-3.66l1.5 2.49v-2.5l1.82 1.66.33-2.5 1.33 1.84-.16-1.66 1.67 1.33-.16-1.17 1.49.66-.17-1.16 1.83 1.33v-1.49l1.16 1.83.33-1.16 1.17 1.66.5-1.16 1.83 1.17z" fill="url(#v)"/><path d="m10.8 47.04.17-2.16 2 .17-.5-1.5h1.5v-1h1.5l1.33-1.83.5.66 2-1.83v.5l1.66-1.17-.33.66 3.66-1.66-.5.33 4.83-1.83-1 .83 4.49-.5.33.66 4.65-1.33-.16 1.67 3.82.83-.5.83 4.5 1.17-1 .5 4.98 1.16-.83 1.16 3.15 1.83-1 1.66h1.34l1.5 1.5 1.5 3.5-15.8 10.8v-6.15l-3.15 1.33 2-2.5-3.16 1 1.66-2.31-3.33 1 2.33-3-2.83 1.34 2.33-3.33-3.82 2.16 1.66-3.16-2.66 1.83.83-3.32-2.33 2.5.83-3.67-2.32 3.16.17-2.83-1.5 2.83v-3.66l-1.51 2.5v-2.5l-1.83 1.67-.33-2.5-1.33 1.83.16-1.66-1.66 1.33.17-1.16-1.5.67.17-1.16-1.83 1.33v-1.5l-1.16 1.84-.33-1.16-1.16 1.66-.5-1.17-1.83 1.17z" fill="url(#s)"/><path d="m33.41 63.83 1.67-2.32-2.5 1.5 1.33-2-2.66 1.16 1-2.16-2.16 1.33.67-2.16-2.82 1 .67-1.66-1.66 1v-1.17l-1.49.33.17-1.16-1.83.33-.33-1-1 .34-.67-1.16-.99.17-1.33-.83-3.66-.66 2.33 1.16-1.33.83 1.83-.33-1.5 2.16 2-1.33-.66 2.16 2-1.66-1.84 2.83 2.83-2.16-2 2.83 3-2-2 3 2.66-2-1.83 2.49 3.16-2.33-1.86 3.64 2.33-2.83-1.33 3.66 2.66-2.5-2 3.65 2.66-3.33-.83 3.16 1.5-2.33-.83 2.49 1.66-2.66-1.66 5.8 2-3.48-1.49 5.49 1.83-2.83-1.49 5.15-.66 4.16-.83-2.33.16 5.16-1.16-1.33 1 5.49-2-2.16 1.83 4.98-2.32-2.66 2 3.66-2.83-1.49 2.66 3.16-2.83-1.66 2 2.5-3-1.83 2 2.99-3.33-2 2.82 2.83-3.49-2.16 2.66 3.66-3.99-3 3.66 4.82-4.32-3.82 3.82 5.49-4.82-4.66 3.15 5.16-3.65-3.49 1.83 3.82-3.33-3.83 1 3.5-2.16-3v2.16l-2.16-1.66s.34 1.83 2.66 3c2.33 1.16 19.45 6.31 21.78 8.14s5.98 4.5 4.5 5.82c-1.5 1.33-3 3.5-3 3.5l2.33-2-.67 2.33 2-1.67-.5 2 2.15-1-.16 1.84 1.83-.67.66 1.33 2.16-1.33.83 1.33 3.5-3.33-17.96-51.37z" fill="url(#u)"/><path d="m94.52 63.83-1.66-2.32 2.5 1.5-1.33-2 2.66 1.16-1-2.16 2.16 1.33-.67-2.16 2.82 1-.67-1.66 1.66 1v-1.17l1.49.33-.17-1.16 1.83.33.33-1 1 .34.66-1.16 1 .17 1.33-.83 3.66-.66-2.33 1.16 1.33.83-1.83-.33 1.5 2.16-2-1.33.66 2.16-2-1.66 1.84 2.83-2.83-2.16 2 2.83-3-2 2 3-2.66-2 1.83 2.49-3.16-2.33 1.83 3.64-2.33-2.83 1.33 3.66-2.66-2.5 2 3.67-2.64-3.35.83 3.16-1.5-2.33.83 2.5-1.66-2.66 1.66 5.81-1.99-3.49 1.5 5.5-1.83-2.83 1.5 5.15.66 4.16.83-2.33-.17 5.15 1.16-1.33-1 5.49 2-2.16-1.83 4.99 2.33-2.66-1.99 3.65 2.83-1.5-2.66 3.16 2.83-1.66-2 2.49 3-1.83-2 2.99 3.32-2-2.83 2.83 3.5-2.16-2.66 3.66 3.99-3-3.66 4.83 4.32-3.83-3.83 5.49 4.82-4.65-3.16 5.15 3.66-3.5-1.83 3.83 3.33-3.82-1 3.49 2.16-3v2.17l2.16-1.66s-.33 1.83-2.66 2.99-19.45 6.31-21.78 8.14c-2.32 1.83-5.98 4.49-4.49 5.82s3 3.49 3 3.49l-2.33-2 .66 2.33-1.99-1.66.5 2-2.16-1 .17 1.82-1.83-.66-.67 1.33-2.16-1.33-.83 1.33-3.5-3.33 17.96-51.37z" fill="url(#w)"/></g><path d="m64.06 48.13a36.04 36.04 0 1 1 0 72.1 36.04 36.04 0 0 1 0-72.1z" fill="#9a0606" stroke="#9a0606" stroke-linejoin="round" stroke-width="1.49"/><path d="m428.63 222.16a183.9 183.9 0 1 1 -367.82 0 183.9 183.9 0 1 1 367.82 0z" fill="url(#h)" transform="matrix(0 -.196 .196 0 20.52 132.14)"/><path d="m428.63 222.16a183.9 183.9 0 1 1 -367.82 0 183.9 183.9 0 1 1 367.82 0z" fill="url(#i)" transform="matrix(0 -.196 .196 0 20.52 132.14)"/><path d="m428.63 222.16a183.9 183.9 0 1 1 -367.82 0 183.9 183.9 0 1 1 367.82 0z" fill="url(#j)" transform="matrix(0 .142 .142 0 32.35 40.23)"/><path d="m428.63 222.16a183.9 183.9 0 1 1 -367.82 0 183.9 183.9 0 1 1 367.82 0z" fill="url(#k)" transform="matrix(0 -.115 .154 0 29.87 126.15)"/><g fill-rule="evenodd" opacity=".5"><path d="m55.6 118.81s-34.48-34.88 6.4-70.31c-46.22 35.31-6.29 70.14-6.4 70.32z" fill="url(#l)"/><path d="m98.04 76.97s-34.88-34.5-70.32 6.39c35.3-46.22 70.13-6.28 70.32-6.39z" fill="url(#m)"/><path d="m29.22 93.01s34.88 34.5 70.32-6.38c-35.31 46.21-70.14 6.27-70.32 6.37z" fill="url(#n)"/><path d="m71.65 50s34.49 34.87-6.39 70.31c46.22-35.3 6.28-70.13 6.4-70.32z" fill="url(#o)"/><path d="m34.13 102.61s33.4-14.2 60.5-34.93c-31.69 13.37-60.7 34.93-60.5 34.93z" fill="url(#p)"/><path d="m81.85 115.4s-14.2-33.4-34.94-60.51c13.38 31.7 34.94 60.7 34.94 60.51z" fill="url(#q)"/></g><g fill="url(#r)"><path d="m176 148.5a19.5 19.5 0 1 1 -39 0 19.5 19.5 0 1 1 39 0z" transform="matrix(.367 0 0 .367 7 30.79)"/><path d="m176 148.5a19.5 19.5 0 1 1 -39 0 19.5 19.5 0 1 1 39 0z" transform="matrix(.156 0 0 .156 58.24 43.51)"/><path d="m176 148.5a19.5 19.5 0 1 1 -39 0 19.5 19.5 0 1 1 39 0z" transform="matrix(.095 0 0 .095 74.92 56.18)"/><path d="m176 148.5a19.5 19.5 0 1 1 -39 0 19.5 19.5 0 1 1 39 0z" transform="matrix(.196 0 0 .196 22.17 35.97)"/><path d="m176 148.5a19.5 19.5 0 1 1 -39 0 19.5 19.5 0 1 1 39 0z" transform="matrix(.196 0 0 .196 53.9 43.81)"/><path d="m176 148.5a19.5 19.5 0 1 1 -39 0 19.5 19.5 0 1 1 39 0z" transform="matrix(.196 0 0 .196 44.7 75.55)"/><path d="m176 148.5a19.5 19.5 0 1 1 -39 0 19.5 19.5 0 1 1 39 0z" transform="matrix(.196 0 0 .196 12.18 68.3)"/><path d="m176 148.5a19.5 19.5 0 1 1 -39 0 19.5 19.5 0 1 1 39 0z" transform="matrix(.156 0 0 .156 57.26 79.95)"/><path d="m176 148.5a19.5 19.5 0 1 1 -39 0 19.5 19.5 0 1 1 39 0z" transform="matrix(.095 0 0 .095 62.19 94.97)"/><path d="m176 148.5a19.5 19.5 0 1 1 -39 0 19.5 19.5 0 1 1 39 0z" transform="matrix(.156 0 0 .156 21.21 80.73)"/><path d="m176 148.5a19.5 19.5 0 1 1 -39 0 19.5 19.5 0 1 1 39 0z" transform="matrix(.156 0 0 .156 21.21 44.3)"/><path d="m176 148.5a19.5 19.5 0 1 1 -39 0 19.5 19.5 0 1 1 39 0z" transform="matrix(.095 0 0 .095 23.59 85.96)"/><path d="m176 148.5a19.5 19.5 0 1 1 -39 0 19.5 19.5 0 1 1 39 0z" transform="matrix(.095 0 0 .095 35.15 46.2)"/></g><g fill-rule="evenodd"><path d="m11.8 58.35s-4.32 2.7-5.98 5.1-3.33 3.3-3.66 6.46c-.33 3.15.67 8.25.67 8.25l.33-2.7.16 2.41.66-1.95.5 1.95.99-1.95.5 1.35.33-1.5.83 2.7.16-4.2.83 4.06.16-3 .83 2.71.5-2.7 1.33 3v-3.6l1.33 2.4.16-2.25 1.5 1.95v-2.4l1.5 1.64.16-2.1 2 3.3 1.83-2.85.33 3 1-3.15 1.83 2.1.17-3.6 1.33.9.66-3.9.5 2.1.83-2.4.83.6 1.33-2.86-1.33 1.65-.66-1.2-1 1.5-.17-1.8-2.33 2.1 1-2.1-2.16 1.5.67-2.25-2.16 1.8.99-2.25-2.5 1.5 1-2.7-2 2.1.5-2.24-1.32.9 1.16-1.95-3.33 1.8 3-3-3.66 2.4 3.15-3.6-4.32 2.85 2.33-3.75-3.99 3.15 2.83-4.05-4.32 2.85 3.99-3.75-4.81 3.14 2.99-3.46z" fill="url(#t)"/><path d="m116.14 58.35s4.32 2.7 5.98 5.1 3.32 3.3 3.65 6.46c.33 3.15-.67 8.25-.67 8.25l-.33-2.7-.17 2.41-.67-1.95-.5 1.95-1-1.95-.5 1.35-.33-1.5-.83 2.7-.17-4.2-.83 4.06-.17-3-.83 2.71-.5-2.7-1.33 3v-3.6l-1.33 2.4-.17-2.25-1.5 1.95v-2.4l-1.5 1.64-.16-2.1-2 3.3-1.83-2.85-.33 3-1-3.16-1.83 2.1-.16-3.6-1.33.9-.66-3.9-.5 2.1-.83-2.4-.83.6-1.33-2.85 1.33 1.65.66-1.2 1 1.5.17-1.8 2.32 2.1-1-2.1 2.17 1.5-.67-2.25 2.16 1.8-1-2.26 2.5 1.51-1-2.7 1.99 2.1-.5-2.25 1.33.9-1.16-1.95 3.32 1.8-2.99-3 3.66 2.4-3.16-3.6 4.32 2.85-2.33-3.75 4 3.15-2.83-4.05 4.32 2.85-3.99-3.75 4.82 3.15-2.99-3.45z" fill="url(#x)"/><path d="m35.14 63.09c.83 2.73 3.05-1.42 3.05-1.42s0 3.94 1.87 2.76 2.2-4.34 2.2-4.34.52 2.57 2.9 1.19.68-4.93.68-4.93 1.19 3.74 2.72 1.97 3.4-2.56.68-5.91 2.38 1.38 5.1-.2-.6-3.23-3.74-4.73c-10.15-4.84-16.6 11.93-15.47 15.6z" fill="url(#z)" stroke="url(#A)"/><path d="m35.14 63.09c.83 2.73 3.05-1.42 3.05-1.42s0 3.94 1.87 2.76 2.2-4.34 2.2-4.34.52 2.57 2.9 1.19.68-4.93.68-4.93 1.19 3.74 2.72 1.97 3.4-2.56.68-5.91 2.38 1.38 5.1-.2-.6-3.23-3.74-4.73c-10.15-4.84-16.6 11.93-15.47 15.6z" fill="url(#z)"/><path d="m35.5 61.57c.76 2.48 2.77-1.29 2.77-1.29s0 3.58 1.7 2.5 2-3.93 2-3.93.47 2.32 2.63 1.07.61-4.48.61-4.48 1.08 3.4 2.47 1.79c1.4-1.61 3.09-2.33.62-5.37s2.16 1.25 4.63-.18-.55-2.94-3.4-4.3c-9.2-4.38-15.05 10.85-14.03 14.19z" fill="url(#B)"/><path d="m92.78 63.09c-.83 2.73-3.05-1.42-3.05-1.42s0 3.94-1.87 2.76-2.2-4.34-2.2-4.34-.51 2.57-2.9 1.19-.68-4.93-.68-4.93-1.19 3.74-2.72 1.97-3.4-2.56-.68-5.91-2.38 1.38-5.1-.2.6-3.23 3.74-4.73c10.15-4.84 16.59 11.93 15.47 15.6z" fill="url(#z)" stroke="url(#A)"/><path d="m92.78 63.09c-.83 2.73-3.05-1.42-3.05-1.42s0 3.94-1.87 2.76-2.2-4.34-2.2-4.34-.51 2.57-2.9 1.19-.68-4.93-.68-4.93-1.19 3.74-2.72 1.97-3.4-2.56-.68-5.91-2.38 1.38-5.1-.2.6-3.23 3.74-4.73c10.15-4.84 16.59 11.93 15.47 15.6z" fill="url(#z)"/><path d="m92.42 61.57c-.76 2.48-2.77-1.29-2.77-1.29s0 3.58-1.7 2.5-2-3.93-2-3.93-.47 2.32-2.63 1.07-.62-4.48-.62-4.48-1.08 3.4-2.47 1.79c-1.4-1.61-3.1-2.33-.62-5.37s-2.16 1.25-4.63-.18.54-2.94 3.39-4.3c9.2-4.4 15.06 10.83 14.04 14.17z" fill="url(#B)"/></g></svg>