<svg xmlns="http://www.w3.org/2000/svg" viewBox="26 0 239 239" fill="#fff"><linearGradient id="a" x1="84.678" x2="87.362" y1="288.84" y2="286.278" gradientUnits="userSpaceOnUse"><stop offset="0" stop-color="#c3dcda"/><stop offset="1" stop-color="#c3dcda" stop-opacity="0"/></linearGradient><g stroke="#80bec2" stroke-width=".6"><path fill="#a2a4a4" d="M255.523 119.702a109.727 109.727 0 1 1-219.453 0 109.727 109.727 0 1 1 219.453 0z"/><path fill="#7fc0c4" d="M251.736 119.702a105.94 105.94 0 1 1-211.88 0 105.94 105.94 0 1 1 211.88 0z"/><path fill="#007c85" d="M244.163 119.702a98.366 98.366 0 1 1-196.732 0 98.37 98.37 0 1 1 196.74 0zm0 0a98.366 98.366 0 1 1-196.732 0 98.37 98.37 0 1 1 196.74 0z"/></g><path d="M76.4 66.944l8.58 1.144 3.145 1.715 72.92 82.07 22.6 2.287-9.437-13.725-68.058-75.493-29.74-.286z"/><path fill="url(#a)" d="M29.4 243.544l8.58 1.144 3.145 1.715 72.92 82.07 22.6 2.287-9.437-13.725-68.058-75.493-29.74-.286z" transform="translate(47 -176.6)"/><path fill="#000" d="M233.754 163.766c-16.17 32.193-49.498 54.302-87.957 54.302-37.65 0-70.384-21.2-86.915-52.286 89.88-27.257 120.167-10.618 174.872-2.016z"/><path d="M177.1 157.5h6.5V68.4h-6.5z"/><path d="M158.922 66.733c11.62-.32 16.13 4.693 18.592 11.242L184 76.678c2.148-4.376 3.774-8.927 15.997-9.945v-3.026H158.5zM56.002 159.88c59.815-16.033 123.718-13.367 177.826 3.733l-.916 1.8c-38.775-3.316-104.508-17.28-171.24 5.2-1.92-3.033-3.977-6.585-5.67-10.753z"/><g fill="#c3dcda"><path d="M75.68 169.636c11.462.32 15.912-4.692 18.34-11.24l6.397 1.296c2.12 4.376 3.723 8.927 15.78 9.944v3.027H75.255l.426-3.027z"/><path d="M93.593 75.58L100 82.893v85.014h-6.397z"/></g><path d="M76.34 169.636c11.734.778 16.482-3.287 18.592-11.24l6.486 1.296c2.15 4.376 3.774 8.927 15.997 9.944v3.027H75.908l.433-3.027z"/><path d="M94.5 77.1l6.485 7.24v83.577H94.5z"/></svg>