<svg viewBox="26 0 239 239" xmlns="http://www.w3.org/2000/svg" xmlns:xlink="http://www.w3.org/1999/xlink"><linearGradient id="a" gradientUnits="userSpaceOnUse" x1="84.678" x2="87.362" y1="288.84" y2="286.278"><stop offset="0" stop-color="#c3dcda"/><stop offset="1" stop-color="#c3dcda" stop-opacity="0"/></linearGradient><g stroke-width="0" transform="translate(47 -176.6)"><g stroke="#80bec2" stroke-width=".6"><path d="m208.523 296.302a109.727 109.727 0 1 1 -219.453 0 109.727 109.727 0 1 1 219.453 0z" fill="#a2a4a4"/><path d="m204.736 296.302a105.94 105.94 0 1 1 -211.88 0 105.94 105.94 0 1 1 211.88 0z" fill="#7fc0c4"/><path d="m197.163 296.302a98.366 98.366 0 1 1 -196.732 0 98.366 98.366 0 1 1 196.74 0zm0 0a98.366 98.366 0 1 1 -196.732 0 98.366 98.366 0 1 1 196.74 0z" fill="#007c85"/></g><path d="m29.39 243.544 8.58 1.144 3.145 1.715 72.92 82.07 22.59 2.287-9.437-13.725-68.058-75.493-29.74-.286z" fill="#fff" fill-rule="evenodd"/><path d="m29.39 243.544 8.58 1.144 3.145 1.715 72.92 82.07 22.59 2.287-9.437-13.725-68.058-75.493-29.74-.286z" fill="url(#a)" fill-rule="evenodd"/><path d="m186.754 340.366c-16.17 32.193-49.498 54.302-87.957 54.302-37.65 0-70.384-21.19-86.915-52.286 89.88-27.257 120.167-10.618 174.872-2.016z"/><path d="m130.1-334.1h6.5v89.1h-6.5z" fill="#fff" transform="scale(1 -1)"/><path d="m111.922 243.333c11.62-.32 16.13 4.693 18.592 11.242l6.486-1.297c2.148-4.376 3.774-8.927 15.997-9.945v-3.026h-41.507zm-102.92 93.147c59.815-16.033 123.718-13.367 177.826 3.733l-.916 1.81c-38.775-3.316-104.508-17.28-171.24 5.21-1.92-3.033-3.977-6.585-5.67-10.753z" fill="#fff" fill-rule="evenodd"/><path d="m28.68 346.236c11.462.32 15.912-4.692 18.34-11.24l6.397 1.296c2.12 4.376 3.723 8.927 15.78 9.944v3.027h-40.942l.426-3.027z" fill="#c3dcda" fill-rule="evenodd"/><path d="m46.593 252.18 6.397 7.313v85.014h-6.397z" fill="#c3dcda"/><g fill="#fff"><path d="m29.34 346.236c11.734.778 16.482-3.287 18.592-11.24l6.486 1.296c2.15 4.376 3.774 8.927 15.997 9.944v3.027h-41.507l.433-3.027z" fill-rule="evenodd"/><path d="m47.5 253.69 6.485 7.24v83.577h-6.485z"/></g></g></svg>