<svg viewBox="-15 -5 130 130" xmlns="http://www.w3.org/2000/svg" xmlns:xlink="http://www.w3.org/1999/xlink"><linearGradient id="a"><stop offset="0" stop-color="#287a28"/><stop offset="1" stop-color="#439c43"/></linearGradient><linearGradient id="b" gradientUnits="userSpaceOnUse" x1="69" x2="88.8" xlink:href="#a" y1="26.75" y2="6.95"/><linearGradient id="c" gradientUnits="userSpaceOnUse" x1="44" x2="50.8" xlink:href="#a" y1="24.25" y2="8.65"/><linearGradient id="d" gradientUnits="userSpaceOnUse" x1="26.1" x2="23.5" xlink:href="#a" y1="31.95" y2="17.45"/><linearGradient id="e" gradientUnits="userSpaceOnUse" x1="10.2" x2="3.8" xlink:href="#a" y1="43.95" y2="31.95"/><radialGradient id="f" cx="-91.5" cy="6.7" gradientTransform="matrix(1 0 0 1.06 136.4 72.03)" gradientUnits="userSpaceOnUse" r="36.8"><stop offset="0" stop-color="#88a4bf"/><stop offset="1" stop-color="#3b5876"/></radialGradient><filter id="g"><feGaussianBlur stdDeviation=".6"/></filter><path d="m87.46.1c-24.6 0-29.22 35.03-15.38 35.03s39.98-35.03 15.38-35.03zm-40.86 30.7c7.38.44 15.46-28.14 1.6-26.34-13.83 1.8-8.96 25.88-1.6 26.33zm-33.75 17.73c5.24-2.3.67-24.87-8.24-18.72-8.9 6.16 3 21.03 8.24 18.72zm14.77-11.8c6.24-1.28 6.58-26.87-4.54-22.28-11.13 4.6-1.7 23.54 4.55 22.27zm31 3.4c-19.1-.33-44.3 9.25-48.6 28.5-4.64 20.8 19.17 49.7 44 49.7 12.23 0 26.3-11 28.95-25 2-10.65-23.68-6.4-22.75.67 1.1 8.46-6.22 12.64-13.38 7.2-22.78-17.36 37.74-26.02 33.75-49.73-1.24-7.37-10.5-11.15-21.96-11.34zm-7.22 12.9c2.23.03 4.1.63 5.1 2.06 3.17 4.58-3.36 12.05-8.07 15.16-4.7 3.1-17.35 6.43-20.3 1.72-2.95-4.72 3.93-11.3 8.53-14.32 3.16-2.07 9.85-4.7 14.75-4.62z" filter="url(#g)" opacity=".6"/><path d="m86.07 0c-24.6 0-29.22 35.04-15.37 35.04 13.82 0 39.96-35.04 15.36-35.04z" fill="url(#b)"/><path d="m45.22 30.7c7.37.45 15.45-28.12 1.6-26.33-13.84 1.8-8.97 25.88-1.6 26.33z" fill="url(#c)"/><path d="m11.45 48.45c5.24-2.3.67-24.87-8.24-18.71-8.9 6.15 3 21.02 8.25 18.7z" fill="url(#e)"/><path d="m26.21 36.64c6.26-1.27 6.6-26.86-4.53-22.27-11.13 4.6-1.7 23.54 4.54 22.27z" fill="url(#d)"/><path d="m57.2 40.04c-19.1-.32-44.28 9.26-48.58 28.5-4.65 20.82 19.16 49.72 44 49.72 12.22 0 26.3-11.02 28.94-25 2-10.66-23.68-6.4-22.75.66 1.1 8.45-6.2 12.64-13.37 7.2-22.78-17.36 37.74-26.03 33.75-49.73-1.24-7.4-10.5-11.16-21.96-11.36zm-7.2 12.9c2.22.04 4.1.64 5.1 2.07 3.16 4.6-3.37 12.06-8.08 15.16-4.7 3.1-17.36 6.43-20.3 1.72-2.96-4.72 3.93-11.3 8.52-14.32 3.16-2.08 9.85-4.7 14.75-4.63z" fill="url(#f)"/></svg>