<svg xmlns="http://www.w3.org/2000/svg" xmlns:xlink="http://www.w3.org/1999/xlink" viewBox="0 0 5650 5650"><linearGradient id="a" gradientUnits="userSpaceOnUse"/><linearGradient id="b" x1="4893" x2="571" y1="858" y2="5028" xlink:href="#a"><stop offset=".05" stop-color="#3fe1b0"/><stop offset=".5" stop-color="#00b3f4"/><stop offset=".83" stop-color="#592acb"/></linearGradient><linearGradient id="q" x1="4841" x2="1164" y1="836" y2="4514" xlink:href="#a"><stop offset=".17" stop-color="#54ffbd" stop-opacity=".8"/><stop offset=".24" stop-color="#43f8ca" stop-opacity=".64"/><stop offset=".36" stop-color="#27ede1" stop-opacity=".37"/><stop offset=".47" stop-color="#12e4f1" stop-opacity=".17"/><stop offset=".54" stop-color="#05dffb" stop-opacity=".05"/><stop offset=".59" stop-color="#0df" stop-opacity="0"/></linearGradient><radialGradient id="c" cx="4693" cy="622" r="5428" xlink:href="#a"><stop offset=".11" stop-color="#3fe1b0"/><stop offset=".12" stop-color="#3bdcb3"/><stop offset=".25" stop-color="#1bb3d3"/><stop offset=".36" stop-color="#0799e6"/><stop offset=".42" stop-color="#0090ed"/><stop offset=".49" stop-color="#2482f1"/><stop offset=".64" stop-color="#7165fb"/><stop offset=".71" stop-color="#9059ff"/><stop offset=".8" stop-color="#7d49ed"/><stop offset=".86" stop-color="#7542e5"/></radialGradient><radialGradient id="e" cx="2710" cy="2841" r="5428" xlink:href="#a"><stop offset=".3" stop-color="#45278d"/><stop offset=".34" stop-color="#562896" stop-opacity=".8"/><stop offset=".43" stop-color="#782aa9" stop-opacity=".36"/><stop offset=".5" stop-color="#8d2bb5" stop-opacity=".1"/><stop offset=".53" stop-color="#952bb9" stop-opacity="0"/></radialGradient><radialGradient id="f" cx="3364" cy="-609" r="3932" xlink:href="#a"><stop offset=".13" stop-color="#3fe1b0"/><stop offset=".29" stop-color="#28d0c8"/><stop offset=".53" stop-color="#00b3f4"/></radialGradient><radialGradient id="g" cx="2110" cy="4259" r="2584" xlink:href="#a"><stop offset=".29" stop-color="#0060df"/><stop offset=".42" stop-color="#2357e1"/><stop offset=".6" stop-color="#4f4ce3"/><stop offset=".75" stop-color="#6b45e4"/><stop offset=".83" stop-color="#7542e5"/></radialGradient><radialGradient id="j" cx="2244" cy="3887" r="42" xlink:href="#a"><stop offset=".35" stop-color="#3a8ee6"/><stop offset=".47" stop-color="#5c79f0"/><stop offset=".67" stop-color="#9059ff"/><stop offset="1" stop-color="#c139e6"/></radialGradient><radialGradient id="k" cx="483" cy="6472" r="15" gradientTransform="matrix(.97 -.24 .28 1.14 -4222 -2360)" xlink:href="#a"><stop offset=".21" stop-color="#9059ff" stop-opacity="0"/><stop offset=".28" stop-color="#8c4ff3" stop-opacity=".06"/><stop offset=".75" stop-color="#7716a8" stop-opacity=".45"/><stop offset=".97" stop-color="#6e008b" stop-opacity=".6"/></radialGradient><radialGradient id="i" cx="5358" cy="4806" r="1370" gradientTransform="matrix(.97 -.24 .28 1.14 -3748 -2005)" xlink:href="#a"><stop offset=".21" stop-color="#45278d" stop-opacity="0"/><stop offset=".25" stop-color="#44268a" stop-opacity=".06"/><stop offset=".73" stop-color="#371f6f" stop-opacity=".6"/><stop offset=".96" stop-color="#321c64" stop-opacity=".8"/></radialGradient><radialGradient id="n" cx="5926" cy="2703" r="5811" gradientTransform="matrix(.1 .99 -.65 .07 4495 -5977)" xlink:href="#a"><stop offset="0" stop-color="#54ffbd"/><stop offset=".09" stop-color="#4cf3b8"/><stop offset=".2" stop-color="#3fe1b0"/><stop offset=".26" stop-color="#33d8bd"/><stop offset=".37" stop-color="#12c0e1"/><stop offset=".42" stop-color="#00b3f4"/><stop offset=".74" stop-color="#0060df"/></radialGradient><radialGradient id="l" cx="2642" cy="400" r="1859" xlink:href="#a"><stop offset="0" stop-color="#0df"/><stop offset=".23" stop-color="#00d6fd"/><stop offset=".57" stop-color="#00c3f8"/><stop offset=".79" stop-color="#00b3f4"/></radialGradient><radialGradient id="m" cx="4103" cy="-779" r="7932" xlink:href="#a"><stop offset=".13" stop-color="#3fe1b0"/><stop offset=".43" stop-color="#0df"/><stop offset=".48" stop-color="#1ec1ff"/><stop offset=".62" stop-color="#7077ff"/><stop offset=".69" stop-color="#9059ff"/><stop offset=".9" stop-color="#b833e1"/></radialGradient><radialGradient id="o" cx="2598" cy="1089" r="4952" xlink:href="#a"><stop offset=".14" stop-color="#3fe1b0"/><stop offset=".44" stop-color="#0df"/><stop offset=".48" stop-color="#1ec1ff"/><stop offset=".62" stop-color="#7077ff"/><stop offset=".68" stop-color="#9059ff"/></radialGradient><radialGradient id="p" cx="3905" cy="1379" r="5420" xlink:href="#a"><stop offset=".09" stop-color="#54ffbd"/><stop offset=".24" stop-color="#41f7cc"/><stop offset=".54" stop-color="#0fe3f3"/><stop offset=".63" stop-color="#0df"/></radialGradient><path id="d" d="M5238 1828c-113-272-343-566-523-660a2688 2688 0 0 1 264 791 2355 2355 0 0 1-81 1757c-300 640-1020 1300-2150 1265-1222-35-2300-940-2500-2130a1122 1122 0 0 1 18-434 1961 1961 0 0 0-40 364v19a2600 2600 0 0 0 5170 441l12-100a2690 2690 0 0 0-169-1313z"/><path id="h" d="M2833 2300c0 65-233 288-313 288-740 0-860 448-860 448a1100 1100 0 0 0 613 852l44 20 76 30a1191 1191 0 0 0 339 66c1300 60 1550-1552 613-2020a900 900 0 0 1 627 152 1313 1313 0 0 0-1140-666h-92a1300 1300 0 0 0-715 279c40 34 84 78 180 170 175 180 628 355 630 380z"/><path fill="url(#b)" d="M5238 1828c-113-272-343-566-523-660a2688 2688 0 0 1 264 791c-300-734-794-1030-1200-1674l-60-100a594 594 0 0 1-29-54 492 492 0 0 1-39-100 7 7 0 0 0-5-7h-7a1900 1900 0 0 0-900 1446 1300 1300 0 0 0-714 279 748 748 0 0 0-68-50 1200 1200 0 0 1-7-636 1935 1935 0 0 0-625 483c-100-130-100-562-90-652a439 439 0 0 0-87 46 1937 1937 0 0 0-254 218 2223 2223 0 0 0-243 292 2186 2186 0 0 0-350 789v17c-5 23-23 137-26 162a13 13 0 0 1 0 6 2647 2647 0 0 0-50 359v17a2600 2600 0 0 0 5170 441l12-100a2690 2690 0 0 0-169-1313zM2238 3866l36 18zm600-1570zm2147-330z"/><use fill="url(#c)" xlink:href="#d"/><use fill="url(#e)" xlink:href="#d"/><path fill="url(#f)" d="M3972 2134l17 12a1435 1435 0 0 0-242-315C2937 1021 3535 76 3635 31a1900 1900 0 0 0-900 1446h92a1313 1313 0 0 1 1145 657z"/><use fill="url(#g)" xlink:href="#h"/><use fill="url(#i)" xlink:href="#h"/><path fill="url(#j)" d="M2237 3866l38 20z"/><path fill="url(#k)" d="M2237 3866l38 20z"/><path fill="url(#l)" d="M1902 1662l54 36a1200 1200 0 0 1-7-636 1935 1935 0 0 0-624 484c10 0 387-7 577 116z"/><path fill="url(#m)" d="M249 2858c200 1188 1277 2094 2500 2130 1130 32 1852-625 2150-1265a2355 2355 0 0 0 81-1757c92 600-215 1187-694 1582-934 760-1828 460-2010 335l-38-20c-545-260-770-756-722-1182a667 667 0 0 1-617-381 980 980 0 0 1 957-38 1300 1300 0 0 0 977 38c0-20-454-200-630-376l-180-170a748 748 0 0 0-68-50l-54-36c-190-123-567-116-580-116-100-130-100-562-90-652a439 439 0 0 0-87 46 1937 1937 0 0 0-254 218 2223 2223 0 0 0-243 292 2186 2186 0 0 0-350 789s-95 406-50 615z"/><path fill="url(#n)" d="M3747 1830a1435 1435 0 0 1 242 315l40 32c590 544 280 1313 258 1368 480-400 786-980 694-1582-300-734-794-1030-1200-1674l-60-100a594 594 0 0 1-29-54 492 492 0 0 1-39-100 7 7 0 0 0-5-7h-10c-100 47-697 993 112 1802z"/><path fill="url(#o)" d="M4025 2178l-40-32-17-12a900 900 0 0 0-627-152c936 468 685 2080-613 2020a1191 1191 0 0 1-339-66l-76-30-44-20c180 124 1075 426 2010-335 30-58 340-827-254-1370z"/><path fill="url(#p)" d="M1660 3032s120-448 860-448a630 630 0 0 0 313-288 1300 1300 0 0 1-977-38 980 980 0 0 0-957 38 667 667 0 0 0 616 388c-48 426 177 922 722 1182l36 18a1100 1100 0 0 1-613-852z"/><path fill="url(#q)" d="M5238 1828c-113-272-343-566-523-660a2688 2688 0 0 1 264 791c-300-734-794-1030-1200-1674l-60-100a594 594 0 0 1-29-54 492 492 0 0 1-39-100 7 7 0 0 0-5-7h-7a1900 1900 0 0 0-900 1446h92a1313 1313 0 0 1 1140 666 900 900 0 0 0-627-152c936 468 685 2080-613 2020a1191 1191 0 0 1-339-66l-76-30-46-22a1100 1100 0 0 1-613-852s120-448 860-448a630 630 0 0 0 313-288c0-20-454-200-630-376l-180-170a748 748 0 0 0-68-50 1200 1200 0 0 1-7-636 1935 1935 0 0 0-620 482c-100-130-100-562-90-652a439 439 0 0 0-87 46 1937 1937 0 0 0-254 218 2223 2223 0 0 0-243 292 2186 2186 0 0 0-350 789v17a3980 3980 0 0 0-30 164 3177 3177 0 0 0-46 363v15a2600 2600 0 0 0 5170 441l12-100a2690 2690 0 0 0-169-1313zm-260 134z"/></svg>