<svg xmlns="http://www.w3.org/2000/svg" xmlns:xlink="http://www.w3.org/1999/xlink" viewBox="0 0 5650 5650"><linearGradient id="a" gradientUnits="userSpaceOnUse"/><linearGradient id="q" x1="4841" x2="1164" y1="836" y2="4514" xlink:href="#a"><stop offset=".17" stop-color="#fff44f" stop-opacity=".8"/><stop offset=".27" stop-color="#fff44f" stop-opacity=".63"/><stop offset=".49" stop-color="#fff44f" stop-opacity=".22"/><stop offset=".6" stop-color="#fff44f" stop-opacity="0"/></linearGradient><radialGradient id="d" cx="4144" cy="-321" r="7782" xlink:href="#a"><stop offset=".05" stop-color="#fff44f"/><stop offset=".11" stop-color="#ffe847"/><stop offset=".22" stop-color="#ffc830"/><stop offset=".37" stop-color="#ff980e"/><stop offset=".4" stop-color="#ff8b16"/><stop offset=".46" stop-color="#ff672a"/><stop offset=".53" stop-color="#ff3647"/><stop offset=".7" stop-color="#e31587"/></radialGradient><radialGradient id="e" cx="4694" cy="622" r="5428" xlink:href="#a"><stop offset=".13" stop-color="#ffbd4f"/><stop offset=".19" stop-color="#ffac31"/><stop offset=".25" stop-color="#ff9d17"/><stop offset=".28" stop-color="#ff980e"/><stop offset=".4" stop-color="#ff563b"/><stop offset=".47" stop-color="#ff3750"/><stop offset=".71" stop-color="#f5156c"/><stop offset=".78" stop-color="#eb0878"/><stop offset=".86" stop-color="#e50080"/></radialGradient><radialGradient id="g" cx="2710" cy="2841" r="5428" xlink:href="#a"><stop offset=".3" stop-color="#960e18"/><stop offset=".35" stop-color="#b11927" stop-opacity=".74"/><stop offset=".43" stop-color="#db293d" stop-opacity=".34"/><stop offset=".5" stop-color="#f5334b" stop-opacity=".1"/><stop offset=".53" stop-color="#ff3750" stop-opacity="0"/></radialGradient><radialGradient id="h" cx="3365" cy="-609" r="3932" xlink:href="#a"><stop offset=".13" stop-color="#fff44f"/><stop offset=".25" stop-color="#ffdc3e"/><stop offset=".51" stop-color="#ff9d12"/><stop offset=".53" stop-color="#ff980e"/></radialGradient><radialGradient id="b" cx="2110" cy="4259" r="2584" xlink:href="#a"><stop offset=".35" stop-color="#3a8ee6"/><stop offset=".47" stop-color="#5c79f0"/><stop offset=".67" stop-color="#9059ff"/><stop offset="1" stop-color="#c139e6"/></radialGradient><radialGradient id="j" cx="-2093" cy="3887" r="42" xlink:href="#b"/><radialGradient id="l" cx="2642" cy="400" r="1859" xlink:href="#a"><stop offset="0" stop-color="#ffe226"/><stop offset=".12" stop-color="#ffdb27"/><stop offset=".3" stop-color="#ffc82a"/><stop offset=".5" stop-color="#ffa930"/><stop offset=".73" stop-color="#ff7e37"/><stop offset=".79" stop-color="#ff7139"/></radialGradient><radialGradient id="m" cx="4105" cy="-779" r="7932" xlink:href="#a"><stop offset=".11" stop-color="#fff44f"/><stop offset=".46" stop-color="#ff980e"/><stop offset=".62" stop-color="#ff5634"/><stop offset=".72" stop-color="#ff3647"/><stop offset=".9" stop-color="#e31587"/></radialGradient><radialGradient id="k" cx="2256" cy="3872" r="15" gradientTransform="matrix(.97 -.24 .28 1.14 -4222 -2360)" xlink:href="#c"/><radialGradient id="c" cx="5359" cy="4806" r="1370" gradientTransform="matrix(.97 -.24 .28 1.14 -3748 -2005)" xlink:href="#a"><stop offset=".21" stop-color="#9059ff" stop-opacity="0"/><stop offset=".28" stop-color="#8c4ff3" stop-opacity=".06"/><stop offset=".75" stop-color="#7716a8" stop-opacity=".45"/><stop offset=".97" stop-color="#6e008b" stop-opacity=".6"/></radialGradient><radialGradient id="n" cx="5927" cy="2703" r="5811" gradientTransform="matrix(.1 .99 -.65 .07 4495 -5977)" xlink:href="#a"><stop offset="0" stop-color="#fff44f"/><stop offset=".06" stop-color="#ffe847"/><stop offset=".17" stop-color="#ffc830"/><stop offset=".3" stop-color="#ff980e"/><stop offset=".36" stop-color="#ff8b16"/><stop offset=".45" stop-color="#ff672a"/><stop offset=".57" stop-color="#ff3647"/><stop offset=".74" stop-color="#e31587"/></radialGradient><radialGradient id="o" cx="2598" cy="1089" r="4952" xlink:href="#a"><stop offset=".14" stop-color="#fff44f"/><stop offset=".48" stop-color="#ff980e"/><stop offset=".59" stop-color="#ff5634"/><stop offset=".66" stop-color="#ff3647"/><stop offset=".9" stop-color="#e31587"/></radialGradient><radialGradient id="p" cx="3905" cy="1379" r="5420" xlink:href="#a"><stop offset=".09" stop-color="#fff44f"/><stop offset=".23" stop-color="#ffe141"/><stop offset=".51" stop-color="#ffaf1e"/><stop offset=".63" stop-color="#ff980e"/></radialGradient><path id="f" d="M5238 1828c-113-272-342-566-522-660a2712 2712 0 0 1 263 791 2355 2355 0 0 1-81 1757c-300 640-1020 1300-2150 1265-1222-35-2300-940-2500-2130a2700 2700 0 0 1 19-434 2500 2500 0 0 0-41 364v19a2600 2600 0 0 0 5170 441l12-100a2678 2678 0 0 0-169-1313z"/><path id="i" d="M2835 2300c-5 65-233 288-314 288-740 0-860 448-860 448a1100 1100 0 0 0 613 852l44 20 77 30a1184 1184 0 0 0 338 66c1300 60 1550-1552 613-2020a900 900 0 0 1 628 152 1316 1316 0 0 0-1141-666h-92a1300 1300 0 0 0-716 279c40 34 84 78 180 170 175 180 630 355 630 380z"/><path fill="url(#d)" d="M5238 1828c-113-272-342-566-522-660a2712 2712 0 0 1 263 791c-300-734-794-1030-1200-1674l-60-100-30-54a446 446 0 0 1-38-100 9 9 0 0 0-6-7h-7a1900 1900 0 0 0-900 1446 1300 1300 0 0 0-713 279 748 748 0 0 0-68-50 1215 1215 0 0 1-7-636 1945 1945 0 0 0-625 483c-100-130-100-562-90-652a439 439 0 0 0-87 46 1937 1937 0 0 0-254 218 2223 2223 0 0 0-243 292 2200 2200 0 0 0-350 789v17l-14 70-14 92v6a2500 2500 0 0 0-48 360v16a2600 2600 0 0 0 5170 441l12-100a2678 2678 0 0 0-169-1313zM2238 3866l36 18zm600-1570zm2146-330z"/><use fill="url(#e)" xlink:href="#f"/><use fill="url(#g)" xlink:href="#f"/><path fill="url(#h)" d="M3973 2134l16 12a1435 1435 0 0 0-242-315C2937 1021 3535 76 3637 31a1900 1900 0 0 0-900 1446h92a1316 1316 0 0 1 1145 657z"/><use fill="url(#b)" xlink:href="#i"/><use fill="url(#c)" xlink:href="#i"/><path fill="url(#j)" d="M2237 3866l38 20z"/><path fill="url(#k)" d="M2237 3866l38 20z"/><path fill="url(#l)" d="M1903 1662l53 36a1215 1215 0 0 1-7-636 1945 1945 0 0 0-624 484c10 0 388-7 578 116z"/><path fill="url(#m)" d="M249 2858c200 1188 1277 2094 2500 2130 1130 32 1853-625 2150-1265a2355 2355 0 0 0 81-1757c92 600-215 1187-694 1582-934 760-1828 460-2010 335l-38-20c-545-260-770-756-720-1182a669 669 0 0 1-620-381 980 980 0 0 1 957-38 1300 1300 0 0 0 978 38c0-20-455-200-630-376l-180-170a748 748 0 0 0-68-50l-53-36c-190-123-568-116-580-116-100-130-100-562-90-652a439 439 0 0 0-87 46 1937 1937 0 0 0-254 218 2223 2223 0 0 0-243 292 2200 2200 0 0 0-350 789v17l-14 70-14 92v6a2700 2700 0 0 0-21 431z"/><path fill="url(#n)" d="M3747 1830a1435 1435 0 0 1 242 315l40 32c590 544 280 1313 258 1368 480-400 786-980 694-1582-300-734-794-1030-1200-1674l-60-100-30-54a446 446 0 0 1-38-100 9 9 0 0 0-6-7h-8c-103 47-700 993 110 1802z"/><path fill="url(#o)" d="M4025 2178l-40-32-16-12a900 900 0 0 0-628-152c936 468 685 2080-613 2020a1184 1184 0 0 1-338-66l-77-30-44-20c180 124 1075 426 2010-335 30-58 340-827-254-1370z"/><path fill="url(#p)" d="M1660 3032s120-448 860-448c80 0 310-223 314-288a1300 1300 0 0 1-978-38 980 980 0 0 0-957 38 669 669 0 0 0 617 388c-50 426 176 922 720 1182l36 18a1100 1100 0 0 1-613-852z"/><path fill="url(#q)" d="M5238 1828c-113-272-342-566-522-660a2712 2712 0 0 1 263 791c-300-734-794-1030-1200-1674l-60-100-30-54a446 446 0 0 1-38-100 9 9 0 0 0-6-7h-7a1900 1900 0 0 0-900 1446h92a1316 1316 0 0 1 1141 666 900 900 0 0 0-628-152c936 468 685 2080-613 2020a1184 1184 0 0 1-338-66l-77-30-46-22a1100 1100 0 0 1-613-852s120-448 860-448c80 0 310-223 314-288 0-20-455-200-630-376l-180-170a748 748 0 0 0-68-50 1215 1215 0 0 1-7-636 1945 1945 0 0 0-620 482c-100-130-100-562-90-652a439 439 0 0 0-87 46 1937 1937 0 0 0-254 218 2223 2223 0 0 0-243 292 2200 2200 0 0 0-350 789v17l-14 70-14 92v6a2500 2500 0 0 0-48 360v14a2600 2600 0 0 0 5170 441l12-100a2678 2678 0 0 0-169-1313zm-258 134z"/></svg>