<svg xmlns="http://www.w3.org/2000/svg" viewBox="120 813 236 239"><path fill="#477baf" d="M118.1 813h240v240h-240z"/><path fill="#fff" d="M256.9 973.8a72 72 0 0 0-36.6 1.4v-36h36.6zm18.7 7v-60.3h-74.1V984l-.2.1h-36.4V883h110.3s36.9.2 36.9 35.6v65.6l-30.8.1a77.6 77.6 0 0 0-5.8-3.5"/><path fill="#bfd1e3" d="M127.5 1042.3V1009a46 46 0 0 1 14.4-3.6l2.8-.2 1.1-.1a48.8 48.8 0 0 1 13.4 1.9c-.3 1.2.1 0 .1 0v-.3c-1-1.6-3.4-3.8-6.3-5.7a39 39 0 0 1 39.9-10.8c-2 3.9-3.6 8.7-3.8 12.7l.2.1s1 1 0 0c4-5.4 6.6-8.2 9.4-10.6l2-1.7 3.3-2.5a64 64 0 0 1 78.7 3 33.3 33.3 0 0 0-2.8 8l.3.2-.1.1s.7.8 0 0a31.8 31.8 0 0 1 48 11.3l.6 1.1.1.3c1 2 1.6 4.4 2.1 7.4-1.2.2 0 .1 0 .1l.4-.1a22 22 0 0 0 2.7-9.3c4.6-2.5 9.6-4.2 14.9-5v36.7H127.5z"/></svg>