<svg xmlns="http://www.w3.org/2000/svg" viewBox="0 0 2360 2390"><path fill="#477baf" d="M-19 0h2400v2400H-19z"/><path fill="#fff" d="M1369 1608a720 720 0 0 0-366 14v-360h366zm187 70v-603H815l-2 636H449V700h1103s369 2 369 356v656l-308 1a776 776 0 0 0-58-35"/><path fill="#bfd1e3" d="M75 2293v-333a460 460 0 0 1 144-36l28-2 11-1a488 488 0 0 1 134 19c-3 12 1 0 1 0v-3c-10-16-34-38-63-57a390 390 0 0 1 399-108c-20 39-36 87-38 127l2 1s10 10 0 0c40-54 66-82 94-106l20-17 33-25a640 640 0 0 1 787 30 333 333 0 0 0-28 80l3 2-1 1s7 8 0 0a318 318 0 0 1 480 113l6 11 1 3c10 20 16 44 21 74-12 2 0 1 0 1l4-1a220 220 0 0 0 27-93c46-25 96-42 149-50v367H75z"/></svg>