<svg xmlns="http://www.w3.org/2000/svg" viewBox="26 26.6 56 56"><linearGradient id="a" x1="78.92" x2="37.26" y1="25.09" y2="74.45" gradientUnits="userSpaceOnUse"><stop offset=".09" stop-color="#ff980e"/><stop offset=".18" stop-color="#ff8b16"/><stop offset=".36" stop-color="#ff672a"/><stop offset=".56" stop-color="#ff3647"/><stop offset=".94" stop-color="#e31587"/></linearGradient><path fill="url(#a)" d="M78.12 44.5c-1.19-2.85-3.51-5.74-5.4-6.74a1 1 0 0 0-1 0 .91.91 0 0 0-.39.91c-.79-1-1.62-1.91-2.46-2.86A47.35 47.35 0 0 1 64 29.62l-.58-.93-.24-.46a4.06 4.06 0 0 1-.3-.76 1 1 0 0 0-.79-.79.81.81 0 0 0-.31 0 .87.87 0 0 0-.38.11 19.31 19.31 0 0 0-9 13.78 9.61 9.61 0 0 0-2.3.66.91.91 0 0 0 .32 1.77.78.78 0 0 0 .36-.08 7.44 7.44 0 0 1 1.87-.52 22.18 22.18 0 0 1 2.29 0h.74l.68.11h.13l.55.13.2.06.55.17h.11l.64.25.16.07.48.22.18.08.6.33.55.35.18.12.46.33.09.07.53.44.11.09.26.24-.4-.08h-.08l-.36-.06h-1.98l-.41.05a1 1 0 0 0-.74.55.9.9 0 0 0 .44 1.16 9.25 9.25 0 0 1 4.59 10.83c-.08.3-.17.6-.27.88v.05l-.32.78a.25.25 0 0 0 0 .07 7.55 7.55 0 0 1-.37.69.41.41 0 0 1 0 .09c-.13.21-.27.42-.41.61l-.06.09-.45.55-.07.08c-.16.17-.32.34-.49.49l-.08.07c-.17.16-.35.3-.53.44l-.07.06c-.19.13-.37.26-.57.38h-.07c-.19.12-.39.23-.6.34L58 64l-.68.25-.72.22-.67.14h-.07l-.65.1h-.09l-.64.06h-1.32a10.18 10.18 0 0 1-3-.57l-.68-.28a3.39 3.39 0 0 1-.39-.18 9.69 9.69 0 0 1-5.41-7.26c.26-.64 1.71-3.49 7.38-3.49 1.2 0 3.59-2.3 3.9-3.43v-.28c0-.6-.34-.75-1.67-1.4a21.42 21.42 0 0 1-4.68-2.8l-.27-.26-.34-.33-.29-.29a4.12 4.12 0 0 0-.65-.77 7.34 7.34 0 0 0-.69-.52 10.76 10.76 0 0 1 .05-5.12.89.89 0 0 0-.42-1.1.94.94 0 0 0-.82 0 18.32 18.32 0 0 0-5.33 3.82 20.05 20.05 0 0 1-.32-4.51.71.71 0 0 0 0-.25.9.9 0 0 0-.56-.65c-.23-.1-.56-.23-1.69.54a18.75 18.75 0 0 0-2.58 2.2 22.19 22.19 0 0 0-2.45 2.91 21.89 21.89 0 0 0-3.51 7.88v.18l-.26 1.63a21.75 21.75 0 0 0-.42 3.56v.13a26 26 0 0 0 51.7 4.35c0-.24.06-.48.08-.73v-.25a26.27 26.27 0 0 0-1.72-13zm-18.81-3h-.11a8.32 8.32 0 0 0-.64-.24l-.23-.08a5.76 5.76 0 0 0-.59-.18h-.19a9.59 9.59 0 0 0-.77-.18h-.15l-.63-.19h-.24l-.65-.07h-.89a18 18 0 0 1 4.51-9.27c0 .08-.05.16-.07.24a1.42 1.42 0 0 0-.07.22 3.57 3.57 0 0 0-.1.35l-.06.21c0 .13-.07.27-.1.4s0 .12 0 .18l-.12.59-.06.37v1.33a.41.41 0 0 0 0 .11v1.36a.31.31 0 0 1 0 .1v1.06c0 .04 0 .31.08.46 0 .16.07.32.11.49v.13c0 .13.07.26.1.39v.11c0 .17.1.33.16.5v.1l.15.41.06.14.19.47c.07.17.16.33.24.5v.06zm.49-6.5c0-.2 0-.4.05-.6a.88.88 0 0 0 0-.16c0-.16.05-.32.07-.47s0-.08 0-.12l.11-.54v-.13c0-.14.07-.28.1-.42s0-.09 0-.14l.15-.49a.14.14 0 0 1 0-.06c0-.14.09-.28.14-.41l.05-.14.14-.36v-.08l.18-.4a.47.47 0 0 1 0-.1 2.59 2.59 0 0 1 .14-.29V30l.18-.33v-.06l.14-.25v-.13c0-.06.12.23.2.35l.6 1A49.71 49.71 0 0 0 67.51 37c2.44 2.76 4.75 5.36 6.38 9.35a7.53 7.53 0 0 1 .1.83 1.27 1.27 0 0 1 0 .2v1.9c0 .11 0 .4-.07.6a2.89 2.89 0 0 1 0 .29c0 .28-.09.57-.15.85-.06.3-.14.59-.22.87l-.09.28-.19.6-.12.31-.23.57-.13.29-.32.66-.09.19c-.15.28-.3.55-.47.82l-.12.21-.4.61-.19.27-.4.54a2.47 2.47 0 0 1-.21.27c-.14.19-.3.37-.46.56l-.18.21a.23.23 0 0 1-.07.07c0-.18 0-.37.07-.55s0-.1 0-.15v-.47a.57.57 0 0 1 0-.13v-1.99a.19.19 0 0 1 0-.08c0-.18 0-.37-.07-.55s0-.11 0-.16a11.5 11.5 0 0 0-.32-1.27.75.75 0 0 0 0-.16c0-.19-.11-.38-.17-.56v-.09q-.1-.31-.24-.63l-.15-.1a6.2 6.2 0 0 0-.24-.53l-.06-.12-.34-.62-.07-.12-.33-.51-.1-.14a8.2 8.2 0 0 0-.44-.59l-.07-.08-.44-.51a1.85 1.85 0 0 1-.14-.14c-.18-.19-.37-.38-.57-.56l-.2-.16h-.05l-.06-.05v-.06a9.9 9.9 0 0 0-.43-.69.86.86 0 0 0-.07-.1c-.16-.23-.32-.46-.5-.69l-.06-.07a14.56 14.56 0 0 0-1.25-1.41A11.58 11.58 0 0 1 59.8 35zm1.4 29.21l.66-.57.06-.06.58-.6.06-.08c.18-.2.35-.41.51-.62l.06-.09c.16-.21.31-.43.45-.65l.05-.08q.21-.34.39-.69a.25.25 0 0 0 0-.07 7.79 7.79 0 0 0 .38-.7v-.06l.29-.75.24-.78a11.22 11.22 0 0 0-2.86-11 8.1 8.1 0 0 1 2.44 1.12l.09.07c.11.09.22.17.3.25l.46.45.14.14.27.31.23.25.22.28a1.43 1.43 0 0 1 .14.2l.19.27.13.2.17.27a2.12 2.12 0 0 1 .11.21l.15.28.1.21.12.27.09.21c0 .09.07.19.11.28s0 .14.07.2.06.19.09.29a1.17 1.17 0 0 1 .06.2c0 .1.06.2.08.29s0 .13 0 .19l.06.32v.16l.06.39v.55a3 3 0 0 1 0 .42.57.57 0 0 0 0 .13v.76a.81.81 0 0 1 0 .16 2.44 2.44 0 0 1 0 .27v.16a2.28 2.28 0 0 0 0 .26v.4A.59.59 0 0 1 68 58v.25a.5.5 0 0 0 0 .12v.26a.36.36 0 0 1 0 .1 1.84 1.84 0 0 1-.05.25V59l-.06.26v.05c-.1.41-.2.76-.29 1l-.06.18c0 .05 0 .09-.05.13l-.4.31-.36.27a4.73 4.73 0 0 1-.46.32l-.33.24-.47.3-.32.2-.48.28-.3.18-.48.25-.29.16-.49.23-.28.13-.44.18-.83.33-.23.08zM51.39 51l-.18.12-.15.07h-1.14l-.78.07H49c-.27 0-.52.07-.77.12h-.19l-.62.14h-.1c-.22.06-.44.12-.64.19h-.16l-.5.19h-.1l-.53.25-.12.06-.4.22-.1.06a4.38 4.38 0 0 0-.42.28l-.09.06-.32.24-.08.07-.34.29-.06.06-.25.25-.06.07-.26.29v.05l-.19.24v.07a2.11 2.11 0 0 0-.18.27l-.14.22v-.48a.25.25 0 0 0 0-.08v-1.46a.88.88 0 0 0-.23-.71.92.92 0 0 0-.68-.3 5.48 5.48 0 0 1-4.71-2.47 8.8 8.8 0 0 1 7.61.11l.5.22.19.07.32.13.22.07.27.1.23.07.27.07a1.55 1.55 0 0 0 .23.06l.25.07.24.05h4.52zm-7.07-11.81a12.42 12.42 0 0 0 0 2.72h-.05q-.3-.11-.6-.18h-.11l-.56-.19h-.07c-.45-.08-.89-.14-1.3-.19a17.12 17.12 0 0 1 2.69-2.16zM30 54.53a8.81 8.81 0 0 1 0-2.42c.07-.5.14-1 .22-1.38v-.06c0-.25.19-1.31.23-1.48v-.16a20 20 0 0 1 3.2-7.19l.06-.09A20.82 20.82 0 0 1 36 39.06a18.77 18.77 0 0 1 1.7-1.52c0 1.66.23 4.09 1.09 5.17a.91.91 0 0 0 .21.18l.1.06a.6.6 0 0 0 .19.06.65.65 0 0 0 .2 0h1.46a8.69 8.69 0 0 1 3.65.99l.5.33c.23.16.4.28.58.43s.7.65 1.41 1.34l.26.26.37.33.08.07.41.31.08.06.4.28h.09l.46.3.13.07.48.29.47.26.12.07.48.25h.1l.44.23H49c-.26 0-.53 0-.8-.07h-.99l-.21.01h-.18l-.25-.07-.18-.06-.26-.09-.17-.05-.29-.12h-.15l-.52-.28a10.36 10.36 0 0 0-10.16.45.89.89 0 0 0-.31 1.07 7.28 7.28 0 0 0 5.82 4.24c-.12 4.66 2.75 9 7.52 11.29l.33.16a14.56 14.56 0 0 0 7.17 1.66h.22a19.62 19.62 0 0 0 7.73-1.74l.19-.09.63-.3.34-.17.51-.27.45-.26L66 64l.52-.33.37-.24.61-.43.29-.21c.31-.22.61-.46.92-.7l.1-.11.77-.67.17-.16q.41-.36.78-.75l.11-.11.69-.75.09-.1.67-.82a1.83 1.83 0 0 1 .13-.16l.61-.84.07-.11c.19-.28.38-.57.55-.86a.43.43 0 0 0 0-.07c.18-.3.35-.6.51-.91l.07-.14c.16-.3.31-.62.45-.93v-.07q.21-.5.39-1 .13-.34.24-.69v2.4a1.8 1.8 0 0 1 0 .22c0 .3-.06.6-.09.89v.18c0 .25-.07.51-.12.76v.19l-.17.84v.19l-.17.71a1.24 1.24 0 0 0 0 .16l-.23.78-.06.18-.23.68v.09l-.28.71-.06.16-.3.67c-2.72 5.8-9.38 11.9-19.9 11.6-11.61-.35-21.6-8.8-23.45-19.68zm48 2.76v.26c0 .23 0 .46-.08.65a24.25 24.25 0 0 1-45.65 6.4l.15.2.15.23.52.69.07.09.6.74.18.21.51.58.15.16q.33.36.66.69l.18.17.55.53.2.18c.23.22.47.43.71.63l.13.11q.31.27.63.51l.23.18.7.52.09.07.79.54.24.15c.21.15.43.28.66.42a1.18 1.18 0 0 0 .19.11c.27.17.55.33.83.48l.22.12.68.35.24.12.88.41.16.07.76.32.26.1.88.32h.05c.31.11.63.21.94.3l.27.08.79.22h.19l1 .22.24.05.79.14h.25c.33 0 .66.1 1 .13h.17l.85.08h.28q.51 0 1 .06H54a22.6 22.6 0 0 0 19.56-10.17 22.29 22.29 0 0 0 1.28-2.32 23.44 23.44 0 0 0 .94-17.16c0-.1-.06-.2-.1-.3a23.75 23.75 0 0 0-.9-3.66 15.22 15.22 0 0 1 1.65 2.93A24.39 24.39 0 0 1 78 57.29z"/></svg>