<svg xmlns="http://www.w3.org/2000/svg" viewBox="0 0 300 300"><path fill="#2672ec" d="M0 0h300v300H0z"/><path fill="#fff" d="M256.3 152c0-17-4.5-33-12.1-46.8C277 31 209 41.8 205.2 42.6a171.8 171.8 0 0 0-40 13 96.5 96.5 0 0 0-99.5 74.6c24.2-27 41.1-38 51.3-42.3l-4.8 4.3a70.7 70.7 0 0 1-4.6 4.5l-1.7 1.8-2.6 2.7-1.9 2-2.4 2.5-1.8 2-2.2 2.6-1.8 2-2 2.5c-.7.7-1.3 1.4-1.8 2.2l-2 2.3-1.7 2.3-1.6 2.1-1.9 2.5-1.2 1.7c-3.8 5.2-7.3 10.3-10.5 15.2l-2.4 3.8-.1.2-2.3 3.8v.1A214.8 214.8 0 0 0 47 188c-27.5 98 58 56.7 70 50.5a96.5 96.5 0 0 0 133.6-54.2H200a44.5 44.5 0 0 1-38.5 21.2c-24.3 0-44-18.4-44-41.1h138c.5-4 .8-8.2.8-12.4zm-18-95c8.2 5.6 14.9 14.4 3.5 44.1A96.8 96.8 0 0 0 194.7 62c8.9-4.3 31-13.4 43.5-5zM61.6 238.3c-6.8-7-8-23.9 7-54.7a96.8 96.8 0 0 0 42 51.4c-9.7 5.3-35.3 17.3-49 3.3zM117.3 138c.7-22 20-39.8 43.6-39.8a42.5 42.5 0 0 1 43.5 39.8h-87.1z"/></svg>