<svg xmlns="http://www.w3.org/2000/svg" fill="#fff" viewBox="0 0 202 202"><clipPath id="a"><path d="M189 37l-16 28-4.6 8h-10.8l-13.8 26.1A44.11 44.11 0 0 1 117 150l-1.5.6L101 177l-14.6-26.5c-.5-.2-1-.4-1.5-.5A44.16 44.16 0 0 1 58 99L44.4 73H33.6L29 65 13 37h46l7.5 14.9.4.2c0-.1.1-.2.1-.2C68.6 34.6 83.2 21 100.9 21s32.3 13.6 33.9 30.9c0 .1-.2.2-.2.2l-.1-.2L143 37z"/></clipPath><radialGradient id="b" cx="15.25" cy="154.86" r="185.44" gradientTransform="matrix(1 0 0 -1 0 193.61)" gradientUnits="userSpaceOnUse"><stop offset="0" stop-color="#fff" stop-opacity=".1"/><stop offset="1" stop-color="#fff" stop-opacity="0"/></radialGradient><path fill="#4285f4" stroke="#fff" stroke-miterlimit="10" stroke-width="15" d="M189 37h-46l-8.2 14.4A33.96 33.96 0 0 0 101 21c-17.8 0-32.4 13.6-34 30.9 0 .1-.2.2-.2.2l-.4-.2-7-13.9h.1l-.5-1H13l.6 1L29 65l4.1 7H33l.6 1h10.9l13.7 26c-.2.8-.3 1.6-.5 2.4-.4 2.5-.6 5-.6 7.5 0 18.6 11.6 34.6 28 41 .5.2 1 .4 1.5.5L101 177l14.6-26.5c.5-.2 1-.3 1.5-.5 16.4-6.4 28-22.3 28-41 0-3.4-.4-6.8-1.1-10l13.8-26h10.8l.6-1 4-7 15.4-27z"/><g clip-path="url(#a)"><path fill="#9e9e9e" d="M160.5 64l-4.3 9h12.2l.6-1 4.5-8zM41.3 64H28.5l5.2 9h12z"/><path fill="#424242" d="M189 37l-16 28h-11.2l-17.9 34.1L101 177 58.1 99 40.2 65H29L13 37h46l7.5 14.9 24.4 44.5 10 18.3 9.6-18.3 24-44.5L143 37"/><path d="M118 109a16.99 16.99 0 1 1-34 0 16.99 16.99 0 1 1 34 0zm-2-52a14.98 14.98 0 1 1-30 0 14.98 14.98 0 1 1 30 0z"/><g fill="#263238" fill-opacity=".2"><path d="M169 72l-.6 1h-10.9l-13.7 26.1L101 177 58.1 99 44.4 73H33.6l-.6-1h11.4l.5 1 13.2 25 42.9 78 42.9-77.9L157.6 72"/><path fill="#4285f4" fill-opacity="1" d="M143.9 99.1c-2.2-9.7-7.7-18.2-15.2-24.3 4-5.6 6.3-12.4 6.3-19.8 0-1-.1-2.1-.1-3.1C133.3 34.6 118.7 21 101 21S68.7 34.6 67.2 51.9c-.1 1-.2 2.1-.2 3.1 0 7.4 2.3 14.2 6.3 19.8-7.5 6.1-13 14.5-15.2 24.2-.8 3.2-1.1 6.5-1.1 10 0 18.6 11.6 34.6 28 41 5 1.9 10.4 3 16 3s11.1-1.1 16-3c16.4-6.4 28-22.3 28-41 0-3.4-.4-6.8-1.1-9.9zM101 43c7.7 0 14 6.3 14 14s-6.3 14-14 14-14-6.3-14-14 6.3-14 14-14zm0 82c-8.8 0-16-7.2-16-16 0-5.1 2.4-9.7 6.2-12.6 2.7-2.1 6.1-3.4 9.8-3.4s7.1 1.3 9.8 3.4c3.8 2.9 6.2 7.5 6.2 12.6 0 8.8-7.2 16-16 16z"/><path fill="#fff" d="M135 55v.5C134.7 37 119.6 22 101 22S67.3 37 67 55.5V55c0-18.8 15.2-34 34-34s34 15.2 34 34zM72.9 75.2C63.2 83.2 57 95.4 57 109v.5c.2-13.6 6.5-25.8 16.3-33.7l.5-.4-.5-.6zm56.2 0l-.4-.4-.5.6.5.4c9.9 8 16.2 20.1 16.3 33.7v-.5c0-13.6-6.2-25.8-15.9-33.8zM59.6 38h-46l-.6-1h46zm83.4-1l-.6 1h46l.6-1z"/><path d="M145 108.5v.5a44 44 0 0 1-88 0v-.5c.3 24.1 19.9 43.5 44 43.5s43.7-19.4 44-43.5zm-78-54v.5c0 7.7 2.5 14.7 6.8 20.4.2-.1.3-.2.5-.4-4.5-5.6-7.2-12.8-7.3-20.5zm68 0c-.1 7.8-2.8 14.9-7.3 20.5.2.1.3.2.5.4 4.3-5.6 6.8-12.7 6.8-20.4z"/></g></g><path fill="url(#b)" d="M189 37l-16 28-4.6 8h-10.8l-13.7 26.1a44.11 44.11 0 0 1-26.8 50.9l-1.5.6L101 177l-14.6-26.5c-.5-.2-1-.4-1.5-.5A44.16 44.16 0 0 1 58 99L44.4 73H33.6L29 65 13 37h46l7.5 14.9.4.2c0-.1.1-.2.1-.2C68.6 34.6 83.2 21 100.9 21s32.3 13.6 33.9 30.9c0 .1-.2.2-.2.2l-.1-.2L143 37z"/></svg>