<svg xmlns="http://www.w3.org/2000/svg" viewBox="2.5 .1 187 187"><clipPath id="a"><path d="M184 32l-16 28-4.55 8h-10.8l-13.78 26.05c.74 3.2 1.13 6.53 1.13 9.95 0 18.64-11.6 34.56-27.95 40.98-.5.2-1 .38-1.5.55L96 172l-14.55-26.47c-.5-.17-1-.35-1.48-.54C63.6 138.5 52 122.6 52 104c0-3.43.4-6.77 1.13-9.97L39.43 68h-10.8L24 60 8 32h46l7.5 14.87.38.25c0-.08.14-.17.15-.25C63.6 29.57 78.2 16 95.93 16s32.33 13.57 33.9 30.9c0 .07-.22.16-.22.24l-.1-.24L138 32h46z"/></clipPath><g fill="#fff" clip-path="url(#a)"><path fill="#9e9e9e" d="M155.47 59l-4.28 9h12.2l.6-1.02 4.5-7.98h-13.1zM36.3 59H23.45l5.18 9h12.02l-4.33-9z"/><path fill="#424242" d="M184 32l-16 28h-11.2l-17.93 34.05L96 172 53.13 94.03 35.2 60H24L8 32h46l7.5 14.87 24.4 44.5 9.97 18.28 9.64-18.28 24-44.47L138 32"/><g fill-opacity=".2"><path d="M54.56 33h-46L8 32h46l.56 1zM138 32l-.55 1h45.98l.57-1h-46z"/><path fill="#263238" d="M164.04 66.98l-.58 1.02H152.6l-13.73 26.05L96 172 53.13 94.03 39.43 68H28.56L28 67h11.43l.53 1 13.17 25.03L96 171l42.87-77.95 13.74-26.07"/><g fill-opacity="1"><path d="M113 104c0 9.4-7.6 17-17 17-9.37 0-17-7.6-17-17s7.63-17 17-17c9.4 0 17 7.6 17 17zm-2-52c0 8.28-6.72 15-15 15-8.27 0-15-6.72-15-15s6.73-15 15-15c8.28 0 15 6.72 15 15z"/><path fill="#4285f4" d="M138.87 94.05c-2.25-9.72-7.7-18.2-15.2-24.27C127.64 64.2 130 57.38 130 50c0-1.05-.05-2.08-.15-3.1C128.3 29.56 113.73 16 96 16S63.72 29.56 62.15 46.87a33.874 33.874 0 0 0 6.19 22.91c-7.5 6.07-12.96 14.54-15.2 24.25A43.66 43.66 0 0 0 52 104c0 18.64 11.6 34.58 27.97 41A44.13 44.13 0 0 0 96 148c5.66 0 11.08-1.07 16.05-3.02C128.4 138.56 140 122.64 140 104c0-3.42-.4-6.75-1.13-9.95zM96 38c7.73 0 14 6.27 14 14s-6.27 14-14 14c-7.72 0-14-6.27-14-14s6.28-14 14-14zm0 82c-8.82 0-16-7.16-16-16a15.98 15.98 0 0 1 6.18-12.63C88.88 89.27 92.3 88 96 88s7.12 1.26 9.83 3.37A15.94 15.94 0 0 1 112 104a16 16 0 0 1-16 16z"/></g><path d="M130 50v.5C129.72 31.95 114.6 17 96 17S62.27 31.95 62 50.5V50c0-18.78 15.22-34 34-34s34 15.22 34 34zM67.9 70.15C58.2 78.2 52 90.38 52 104v.5c.15-13.62 6.5-25.75 16.34-33.72l.46-.37-.46-.6-.44.4zm56.2 0l-.44-.37-.46.63.46.4c9.85 8 16.2 20.1 16.34 33.7v-.5c0-13.6-6.2-25.8-15.9-33.8z"/><path fill="#263238" d="M140 103.5v.5c0 24.3-19.7 44-44 44s-44-19.7-44-44v-.5c.27 24.07 19.87 43.5 44 43.5s43.73-19.43 44-43.5zm-78-54v.5a33.8 33.8 0 0 0 6.8 20.4c.16-.1.32-.24.5-.36A33.88 33.88 0 0 1 62 49.5zm68 0a33.857 33.857 0 0 1-7.3 20.54c.18.12.34.25.5.37 4.27-5.6 6.8-12.7 6.8-20.4v-.5z"/></g></g><radialGradient id="b" cx="10.25" cy="33.75" r="185.44" gradientUnits="userSpaceOnUse"><stop offset="0" stop-color="#fff" stop-opacity=".1"/><stop offset="1" stop-color="#fff" stop-opacity="0"/></radialGradient><path fill="url(#b)" d="M184 32l-16 28-4.55 8H152.6l-13.73 26.05c.74 3.2 1.13 6.53 1.13 9.95 0 18.64-11.6 34.56-27.95 40.98-.5.2-1 .38-1.5.55L96 172l-14.55-26.47c-.5-.17-1-.35-1.48-.54C63.6 138.5 52 122.6 52 104c0-3.43.4-6.77 1.13-9.97L39.43 68h-10.8L24 60 8 32h46l7.5 14.87.38.25c0-.08.14-.17.15-.25C63.6 29.57 78.2 16 95.93 16s32.33 13.57 33.9 30.9c0 .07-.22.16-.22.24l-.1-.24L138 32h46z"/></svg>