<svg xmlns="http://www.w3.org/2000/svg" xmlns:xlink="http://www.w3.org/1999/xlink" width="192" height="192" viewBox="0 0 192 192"><path fill="none" d="M0 0h192v192H0z"/><defs><path id="a" d="M184 32l-16 28-4.55 8h-10.79l-13.79 26.05c.74 3.2 1.13 6.53 1.13 9.95 0 18.64-11.59 34.56-27.95 40.98-.49.19-.99.38-1.49.55L96 172l-14.55-26.47c-.5-.17-.99-.35-1.48-.54C63.59 138.58 52 122.64 52 104c0-3.43.39-6.77 1.13-9.97L39.42 68h-10.8L24 60 8 32h46.01l7.49 14.87v.01l.38.24c0-.08.14-.17.15-.25C63.6 29.56 78.21 16 95.94 16s32.32 13.57 33.88 30.89c.01.08-.21.17-.21.25l-.1-.24v-.01L138 32h46z"/></defs><clipPath id="b"><use xlink:href="#a" overflow="visible"/></clipPath><g clip-path="url(#b)"><path fill="#9E9E9E" d="M155.47 59l-4.28 9h12.27l.58-1.02 4.53-7.98h-13.1zM36.31 59H23.44l5.18 9h12.02l-4.33-9z"/><path fill="#424242" d="M184 32l-16 28h-11.2l-17.93 34.05L96 172 53.13 94.03 35.21 60H24L8 32h46.01l7.49 14.87v.01l24.39 44.49 9.98 18.28 9.64-18.28L129.5 46.9v-.01L138 32"/><g fill-opacity=".2"><path fill="#FFF" d="M54.56 33H8.57L8 32h46.01l.55 1zM138 32l-.55 1h45.98l.57-1h-46z"/><path fill="#263238" d="M164.04 66.98l-.58 1.02H152.6l-13.73 26.05L96 172 53.13 94.03 39.43 68H28.56l-.57-1h11.44l.53 1 13.17 25.03L96 171l42.87-77.95L152.07 68l.54-1.02"/></g></g><g clip-path="url(#b)"><path fill="#FFF" d="M113 104c0 9.39-7.61 17-17 17-9.37 0-17-7.61-17-17s7.63-17 17-17c9.39 0 17 7.61 17 17zm-2-52c0 8.28-6.72 15-15 15-8.27 0-15-6.72-15-15 0-8.28 6.73-15 15-15 8.28 0 15 6.72 15 15z"/><path fill="#4285F4" d="M138.87 94.05c-2.25-9.72-7.71-18.2-15.21-24.27C127.65 64.21 130 57.38 130 50c0-1.05-.05-2.08-.15-3.11C128.29 29.57 113.73 16 96 16S63.72 29.56 62.15 46.87C62.05 47.9 62 48.95 62 50c0 7.38 2.35 14.21 6.34 19.78-7.5 6.07-12.96 14.54-15.21 24.25-.74 3.2-1.13 6.54-1.13 9.97 0 18.64 11.59 34.58 27.97 40.99C84.93 146.93 90.34 148 96 148s11.08-1.07 16.05-3.02C128.41 138.56 140 122.64 140 104c0-3.42-.39-6.75-1.13-9.95zM96 38c7.73 0 14 6.27 14 14s-6.27 14-14 14c-7.72 0-14-6.27-14-14s6.28-14 14-14zm0 82c-8.82 0-16-7.16-16-16 0-5.13 2.42-9.7 6.18-12.63C88.89 89.26 92.3 88 96 88c3.71 0 7.12 1.26 9.83 3.37 3.76 2.93 6.17 7.5 6.17 12.63 0 8.84-7.16 16-16 16z"/><g fill-opacity=".2"><path fill="#FFF" d="M130 50c0 .17 0 .33-.01.5C129.73 31.95 114.61 17 96 17S62.27 31.95 62.01 50.5c-.01-.17-.01-.33-.01-.5 0-18.78 15.22-34 34-34s34 15.22 34 34zM67.9 70.15C58.19 78.21 52 90.38 52 104v.5c.15-13.62 6.49-25.75 16.34-33.72.15-.12.3-.25.46-.37-.16-.21-.31-.42-.46-.63-.15.12-.29.24-.44.37zm56.2 0c-.15-.13-.29-.25-.44-.37-.15.21-.3.42-.46.63.16.12.31.25.46.37 9.85 7.97 16.19 20.1 16.34 33.72v-.5c0-13.62-6.19-25.79-15.9-33.85z"/><path fill="#263238" d="M140 103.5v.5c0 24.3-19.7 44-44 44s-44-19.7-44-44v-.5c.27 24.07 19.87 43.5 44 43.5s43.73-19.43 44-43.5zm-77.99-54c-.01.17-.01.33-.01.5 0 7.66 2.53 14.73 6.8 20.41.16-.12.32-.25.49-.37-4.47-5.67-7.17-12.79-7.28-20.54zm67.98 0c-.11 7.75-2.81 14.87-7.28 20.54.17.12.33.25.49.37 4.27-5.68 6.8-12.75 6.8-20.41 0-.17 0-.33-.01-.5z"/></g></g><radialGradient id="c" cx="10.25" cy="33.75" r="185.44" gradientUnits="userSpaceOnUse"><stop offset="0" stop-color="#FFF" stop-opacity=".1"/><stop offset="1" stop-color="#FFF" stop-opacity="0"/></radialGradient><path fill="url(#c)" d="M184 32l-16 28-4.55 8H152.6l-13.73 26.05c.74 3.2 1.13 6.53 1.13 9.95 0 18.64-11.59 34.56-27.95 40.98-.49.19-.99.38-1.49.55L96 172l-14.55-26.47c-.5-.17-.99-.35-1.48-.54C63.59 138.58 52 122.64 52 104c0-3.43.39-6.77 1.13-9.97L39.42 68h-10.8L24 60 8 32h46.01l7.49 14.87v.01l.38.24c0-.08.14-.17.15-.25C63.6 29.56 78.21 16 95.94 16s32.32 13.57 33.88 30.89c.01.08-.21.17-.21.25l-.1-.24v-.01L138 32h46z"/></svg>