<svg xmlns="http://www.w3.org/2000/svg" viewBox="-9 -9 268 268"><radialGradient id="d" cx="670.4" cy="-1006.4" r="71.62" gradientTransform="matrix(.9068 -.0102 .013 1.1657 -493.25 1281.8)" gradientUnits="userSpaceOnUse"><stop offset=".19" stop-color="#fff"/><stop offset="1" stop-color="#0861a8"/></radialGradient><radialGradient id="c" cx="640.9" cy="-951.8" r="56.4" gradientTransform="matrix(-1.299 0 0 -1.3482 887.52 -1112.9)" gradientUnits="userSpaceOnUse"><stop offset="0" stop-color="#3081bc"/><stop offset=".48" stop-color="#d2e3ef"/><stop offset=".62" stop-color="#75acd2"/><stop offset=".81" stop-color="#4691c4"/><stop offset="1" stop-color="#1876b6"/></radialGradient><linearGradient id="b" x1="157.2" x2="219.8" y1="169.7" y2="91.2" gradientUnits="userSpaceOnUse" spreadMethod="reflect"><stop offset="0" stop-color="#1974b4"/><stop offset=".79" stop-color="#e0ebf5"/><stop offset="1" stop-color="#176da8"/></linearGradient><linearGradient id="a" x1="22" x2="42.1" y1="72.5" y2="11.3" gradientUnits="userSpaceOnUse" spreadMethod="reflect"><stop offset="0" stop-color="#1977b6"/><stop offset=".71" stop-color="#80b4d7"/><stop offset="1" stop-color="#e8f1f8"/></linearGradient><path fill="url(#a)" d="M31.4 0C27 0 22.72 1.58 19.57 4.66a16.37 16.37 0 0 0-4.93 11.7l-.03 70.1c.3 1.08.7 2.07 1.1 3a85.04 85.04 0 0 1 77.2-49.4c3.8 0 7.5.2 11.1.68-.7-.97-1.7-1.9-2.8-2.78L39.2 2.2A16.77 16.77 0 0 0 31.4 0z"/><path fill="url(#b)" d="M159.8 72.7a84.58 84.58 0 0 1 18 52.3 84.48 84.48 0 0 1-17.88 52.1c1.3-.34 2.7-.76 4.15-1.36l63.23-36.5a16.35 16.35 0 0 0 0-28.31l-63.14-36.5a16.2 16.2 0 0 0-4.36-1.73z"/><path fill="url(#c)" d="M16.7 162.72c-.74.23-1.45.47-2.12.74l-.03 70.2c0 5.83 3.12 11.23 8.18 14.15 5.06 3 11.28 3 16.34 0l62.04-35.7c.7-.9 1.3-1.8 1.8-2.6a84.94 84.94 0 0 1-86.1-46.6z"/><path fill="url(#d)" d="M156.6 125a63.76 63.76 0 1 1-127.53 0 63.76 63.76 0 0 1 127.54 0z"/></svg>