<svg viewBox="-9 -9 268 268" xmlns="http://www.w3.org/2000/svg" xmlns:xlink="http://www.w3.org/1999/xlink"><radialGradient id="a" cx="670.42" cy="-1006.37" gradientTransform="matrix(.9068 -.0102 .013 1.1657 -493.25 1281.8)" gradientUnits="userSpaceOnUse" r="71.62"><stop offset="0" stop-color="#fff"/><stop offset=".19" stop-color="#fff"/><stop offset="1" stop-color="#0861a8"/></radialGradient><radialGradient id="b" cx="640.94" cy="-951.85" gradientTransform="matrix(-1.299 0 0 -1.3482 887.52 -1112.89)" gradientUnits="userSpaceOnUse" r="56.42"><stop offset="0" stop-color="#3081bc"/><stop offset=".48" stop-color="#d2e3ef"/><stop offset=".62" stop-color="#75acd2"/><stop offset=".81" stop-color="#4691c4"/><stop offset="1" stop-color="#1876b6"/></radialGradient><linearGradient id="c" gradientUnits="userSpaceOnUse" spreadMethod="reflect" x1="157.226426" x2="219.780476" y1="169.669742" y2="91.195073"><stop offset="0" stop-color="#1974b4"/><stop offset=".79" stop-color="#e0ebf5"/><stop offset="1" stop-color="#176da8"/></linearGradient><linearGradient id="d" gradientUnits="userSpaceOnUse" spreadMethod="reflect" x1="22.068793" x2="42.126974" y1="72.461566" y2="11.338491"><stop offset="0" stop-color="#1977b6"/><stop offset=".71" stop-color="#80b4d7"/><stop offset="1" stop-color="#e8f1f8"/></linearGradient><path d="m31.4 0c-4.4 0-8.68 1.58-11.83 4.66a16.37 16.37 0 0 0 -4.93 11.7l-.03 70.1c.3 1.08.7 2.07 1.1 3a85.04 85.04 0 0 1 77.2-49.4c3.8 0 7.5.2 11.1.68-.7-.97-1.7-1.9-2.8-2.78l-62.01-35.76a16.77 16.77 0 0 0 -7.8-2.2z" fill="url(#d)"/><path d="m159.8 72.7a84.58 84.58 0 0 1 18 52.3 84.48 84.48 0 0 1 -17.88 52.1c1.3-.34 2.7-.76 4.15-1.36l63.23-36.5a16.35 16.35 0 0 0 0-28.31l-63.14-36.5a16.2 16.2 0 0 0 -4.36-1.73z" fill="url(#c)"/><path d="m16.7 162.72c-.74.23-1.45.47-2.12.74l-.03 70.2c0 5.83 3.12 11.23 8.18 14.15 5.06 3 11.28 3 16.34 0l62.04-35.7c.7-.9 1.3-1.8 1.8-2.6a84.94 84.94 0 0 1 -86.1-46.6z" fill="url(#b)"/><path d="m156.6 125a63.76 63.76 0 1 1 -127.53 0 63.76 63.76 0 0 1 127.54 0z" fill="url(#a)"/></svg>