<svg xmlns="http://www.w3.org/2000/svg" width="231.13" height="261.57" xmlns:xlink="http://www.w3.org/1999/xlink"><defs><linearGradient id="c"><stop offset="0" stop-color="#1974b4"/><stop offset=".79" stop-color="#e0ebf5"/><stop offset="1" stop-color="#176da8"/></linearGradient><linearGradient id="b"><stop offset="0" stop-color="#3081bc"/><stop offset=".48" stop-color="#d2e3ef"/><stop offset=".62" stop-color="#75acd2"/><stop offset=".81" stop-color="#4691c4"/><stop offset="1" stop-color="#1876b6"/></linearGradient><linearGradient id="d"><stop offset="0" stop-color="#1977b6"/><stop offset=".71" stop-color="#80b4d7"/><stop offset="1" stop-color="#e8f1f8"/></linearGradient><linearGradient id="a"><stop offset="0" stop-color="#fff"/><stop offset=".19" stop-color="#fff"/><stop offset="1" stop-color="#0861a8"/></linearGradient><radialGradient id="h" cx="670.42" cy="-1006.37" r="71.62" fx="670.42" fy="-1006.37" xlink:href="#a" gradientUnits="userSpaceOnUse" gradientTransform="matrix(.9488 -.0106 .0137 1.2196 -531.307 1341.13)"/><radialGradient id="g" cx="640.94" cy="-951.85" r="56.42" fx="640.94" fy="-951.85" xlink:href="#b" gradientUnits="userSpaceOnUse" gradientTransform="matrix(-1.3592 0 0 -1.4106 913.384 -1164.4)"/><linearGradient id="f" x1="741.38" x2="817.88" y1="-931.54" y2="-1027.51" xlink:href="#c" gradientUnits="userSpaceOnUse" gradientTransform="translate(-485.007 974.5) scale(.8555)" spreadMethod="reflect"/><linearGradient id="e" x1="576.09" x2="600.62" y1="-1050.42" y2="-1125.17" xlink:href="#d" gradientUnits="userSpaceOnUse" gradientTransform="translate(-485.007 974.5) scale(.8555)" spreadMethod="reflect"/></defs><path fill="url(#e)" d="M17.63 0c-4.6 0-9.08 1.65-12.38 4.88C1.95 8.1.1 12.52.1 17.13L.05 90.47c.28 1.12.67 2.16 1.1 3.12C15.23 63 46.1 41.9 81.9 41.9c3.92 0 7.8.24 11.57.73-.8-1.02-1.76-2-2.94-2.9L25.78 2.3C23.3.88 20.48.08 17.63 0z"/><path fill="url(#f)" d="M151.97 76.06c11.8 15.1 18.84 34.08 18.84 54.72 0 20.56-7 39.47-18.7 54.53 1.4-.3 2.9-.8 4.4-1.4l66.17-38.2c5.3-3 8.54-8.7 8.54-14.8 0-6.1-3.25-11.7-8.54-14.8L156.5 77.9c-1.43-.84-2.97-1.44-4.56-1.83z"/><path fill="url(#g)" d="M2.25 170.25c-.77.24-1.52.5-2.22.78L0 244.47c0 6.1 3.27 11.76 8.56 14.8 5.3 3.07 11.8 3.07 17.1 0l64.9-37.43c.7-.93 1.28-1.86 1.85-2.78-3.4.4-6.9.63-10.5.63-34.9 0-65.1-20.2-79.6-49.5z"/><path fill="url(#h)" d="M148.63 130.8c0 36.83-29.87 66.7-66.7 66.7-36.86 0-66.73-29.87-66.73-66.7 0-36.86 29.87-66.73 66.72-66.73 36.84 0 66.7 29.87 66.7 66.72z"/></svg>
