<svg viewBox="-21 -21 556 556" xmlns="http://www.w3.org/2000/svg"><circle cx="257" cy="257" r="257" fill="#4285f4"/><path d="m468.3 110.7-145.3 103s27 41.3 0 84.6l145.3 105a257 257 0 0 0 0-292.6" fill="#fbbc05"/><path d="M323 213.7l145.3-103M323 298.3l145.3 105" stroke="#fff" stroke-miterlimit="10" stroke-width="20"/><path d="m257 355a98 98 0 1 1 98-98 98.2 98.2 0 0 1-98 98z" fill="#34a853"/><path d="m257 169a88 88 0 1 1-88 88 88.2 88.2 0 0 1 88-88m0-20a108 108 0 1 0 108 108 108 108 0 0 0-108-108z" fill="#fff"/></svg>