<svg xmlns="http://www.w3.org/2000/svg" viewBox="-21 -21 556 556"><defs/><g id="Layer_2" data-name="Layer 2"><g id="Layer_1-2" data-name="Layer 1"><circle cx="257" cy="257" r="257" fill="#4285f4"/><path fill="#fbbc05" d="M468 111L323 214s27 41 0 84l145 105a257 257 0 0 0 0-292"/><path fill="none" stroke="#fff" stroke-miterlimit="10" stroke-width="20" d="M323 214l145-103M323 298l145 105"/><path fill="#34a853" d="M257 355a98 98 0 1 1 98-98 98 98 0 0 1-98 98z"/><path fill="#fff" d="M257 169a88 88 0 1 1-88 88 88 88 0 0 1 88-88m0-20a108 108 0 1 0 108 108 108 108 0 0 0-108-108z"/></g></g></svg>