<svg viewBox="0 0 49275 37755" xmlns="http://www.w3.org/2000/svg" fill="#2bb673" stroke="#3d3d3d" stroke-linecap="round" stroke-linejoin="round" stroke-width="1500"><path d="m14659 19245 470-2053c200-854 379-2532 485-3312-1136-463-2670-200-4661-425a8064 8064 0 01-4130-1759v284a8136 8136 0 007170 7197z" fill-opacity=".2"/><path d="m7923 7944a8100 8100 0 01-4152-1721v7a8138 8138 0 007167 7194l4879 366c238-2975-1142-5087-7894-5846z" fill-opacity=".6"/><path d="m46245 762h-5072a3056 3056 0 00-2992 2431l-1969 9609a1392 1392 0 01-1359 1111l-7635 22a1390 1390 0 01-1366-1674c1239-5936-3135-11511-11581-11511h-13521a8140 8140 0 007173 7194c8919 1000 8224 4607 7206 9048l-3945 17224a2279 2279 0 002222 2788h4795a3055 3055 0 002991-2427l2072-9862a1391 1391 0 011357-1100l7683-22a1391 1391 0 011366 1672l-1840 8910a2280 2280 0 002222 2789h5073a3057 3057 0 002991-2432l6351-30973a2279 2279 0 00-2222-2797z"/></svg>