<svg xmlns="http://www.w3.org/2000/svg" fill="#fa1e4e" viewBox="-2.4 -2.3 62.6 62.6"><path d="M46.34 48.4a18.39 18.39 0 0 1-10.15 3.1c-5.85 0-11.4-2.86-15.22-7.85l-.04-.05c-2.93-3.48-4.68-8.6-4.8-14v-1.27c.12-5.43 1.87-10.54 4.84-14.07 3.82-5 9.37-7.85 15.22-7.85a18.4 18.4 0 0 1 10.15 3.1 26.29 26.29 0 0 1 0 38.9m-18.67 6.7a26.08 26.08 0 0 1-24.8-26.16A26.15 26.15 0 0 1 28.94 2.78H29a25.4 25.4 0 0 1 6.68.9c-6.52.16-12.65 3.4-16.84 8.87-3.33 3.95-5.32 9.68-5.45 15.76v1.33c.13 6.04 2.1 11.76 5.43 15.7 4.23 5.52 10.36 8.74 16.87 8.9a26.2 26.2 0 0 1-8.03.87M48.08 7.4A28.66 28.66 0 0 0 28.91.04 28.88 28.88 0 0 0 .14 28.96 28.8 28.8 0 0 0 28.91 57.9a28.6 28.6 0 0 0 19.17-7.36 29.04 29.04 0 0 0 0-43.13m-13.9 3.33c5.13 3.3 8.67 10.24 8.67 18.26s-3.54 14.95-8.67 18.26c6.55-.55 11.75-8.5 11.75-18.26s-5.2-17.7-11.75-18.26"/></svg>