<svg xmlns="http://www.w3.org/2000/svg" fill="#fa1e4e" viewBox="-24 -23 626 626"><path d="M463.4 484a183.9 183.9 0 0 1-101.5 31c-58.5 0-114-28.6-152.2-78.5l-.4-.5c-29.3-34.8-46.8-86-48-140v-12.7c1.2-54.3 18.7-105.4 48.4-140.7 38.2-50 93.7-78.5 152.2-78.5a184 184 0 0 1 101.5 31 262.9 262.9 0 0 1 0 389m-186.7 67a260.8 260.8 0 0 1-248-261.6A261.5 261.5 0 0 1 289.4 27.8h.6a254 254 0 0 1 66.8 9c-65.2 1.6-126.5 34-168.4 88.7-33.3 39.5-53.2 96.8-54.5 157.6v13.3c1.3 60.4 21 117.6 54.3 157 42.3 55.2 103.6 87.4 168.7 89a262 262 0 0 1-80.3 8.7M480.8 74A286.6 286.6 0 0 0 289.1.4 288.8 288.8 0 0 0 1.4 289.6 288 288 0 0 0 289.1 579a286 286 0 0 0 191.7-73.6 290.4 290.4 0 0 0 0-431.3m-139 33.3c51.3 33 86.7 102.4 86.7 182.6s-35.4 149.5-86.7 182.6c65.5-5.5 117.5-85 117.5-182.6s-52-177-117.5-182.6"/></svg>