<svg viewBox="-16 -18 468 468" xmlns="http://www.w3.org/2000/svg" xmlns:xlink="http://www.w3.org/1999/xlink"><linearGradient id="a"><stop offset="0" stop-color="#999"/><stop offset="1" stop-color="#999" stop-opacity="0"/></linearGradient><linearGradient id="b"><stop offset="0" stop-color="#122126"/><stop offset="1" stop-color="#122126" stop-opacity="0"/></linearGradient><linearGradient id="c"><stop offset="0" stop-color="#fff"/><stop offset="1" stop-color="#fff" stop-opacity="0"/></linearGradient><linearGradient id="d"><stop offset="0"/><stop offset="1" stop-opacity="0"/></linearGradient><linearGradient id="e"><stop offset="0" stop-opacity="0"/><stop offset=".78" stop-opacity="0"/><stop offset="1"/></linearGradient><linearGradient id="f"><stop offset="0" stop-color="#c3d6e7"/><stop offset="1"/></linearGradient><linearGradient id="g"><stop offset="0" stop-color="#fff"/><stop offset="1"/></linearGradient><radialGradient id="h" cx="119.63" cy="31.19" gradientTransform="matrix(.99702168 .26640527 -.26640527 .99702168 -76.791176 -22.135583)" gradientUnits="userSpaceOnUse" r="132.1"><stop offset="0" stop-color="#00438a"/><stop offset=".57" stop-color="#0057ae" stop-opacity="0"/></radialGradient><linearGradient id="i" gradientUnits="userSpaceOnUse" x1="150.83" x2="205.49" xlink:href="#d" y1="333.4" y2="323.5"/><linearGradient id="j" gradientUnits="userSpaceOnUse" x1="55.08" x2="116.6" y1="201.36" y2="211.26"><stop offset="0" stop-color="#333"/><stop offset="1" stop-color="#333" stop-opacity="0"/></linearGradient><linearGradient id="k"><stop offset="0" stop-color="#d5d5d5"/><stop offset="1"/></linearGradient><filter id="l" color-interpolation-filters="sRGB" height="1.24" width="1.24" x="-.1" y="-.1"><feGaussianBlur stdDeviation="11.38"/></filter><filter id="m" color-interpolation-filters="sRGB"><feGaussianBlur stdDeviation=".03"/></filter><filter id="n" color-interpolation-filters="sRGB" height="1.07" width="1.34" x="-.2" y="0"><feGaussianBlur stdDeviation="2.53"/></filter><filter id="o" color-interpolation-filters="sRGB"><feGaussianBlur stdDeviation="2.71"/></filter><filter id="p" color-interpolation-filters="sRGB"><feGaussianBlur stdDeviation="3.15"/></filter><filter id="q" color-interpolation-filters="sRGB"><feGaussianBlur stdDeviation=".66"/></filter><filter id="r" color-interpolation-filters="sRGB"><feGaussianBlur stdDeviation="3.31"/></filter><filter id="s" color-interpolation-filters="sRGB"><feGaussianBlur stdDeviation="1.25"/></filter><filter id="t" color-interpolation-filters="sRGB"><feGaussianBlur stdDeviation="1.42"/></filter><radialGradient id="u" cx="176.87" cy="215.87" gradientTransform="matrix(1.682 .265 -.296 1.882 -49.78 -245.23)" gradientUnits="userSpaceOnUse" r="109.71" xlink:href="#d"/><filter id="v" color-interpolation-filters="sRGB"><feGaussianBlur stdDeviation="2.3"/></filter><filter id="w" color-interpolation-filters="sRGB"><feGaussianBlur stdDeviation="4.25"/></filter><filter id="x" color-interpolation-filters="sRGB" height="1.08" width="1.28" x="-.1" y="0"><feGaussianBlur stdDeviation="2.87"/></filter><filter id="y" color-interpolation-filters="sRGB" height="1.23" width="1.87" x="-.4" y="-.1"><feGaussianBlur stdDeviation="8.98"/></filter><filter id="z" color-interpolation-filters="sRGB" height="1.32" width="1.19" x="-.1" y="-.2"><feGaussianBlur stdDeviation="1.28"/></filter><filter id="A" color-interpolation-filters="sRGB" height="1.2" width="1.31" x="-.2" y="-.1"><feGaussianBlur stdDeviation="1.26"/></filter><filter id="B" color-interpolation-filters="sRGB" height="1.36" width="1.21" x="-.1" y="-.2"><feGaussianBlur stdDeviation="1.92"/></filter><filter id="C" color-interpolation-filters="sRGB" height="1.23" width="1.82" x="-.4" y="-.1"><feGaussianBlur stdDeviation="1.08"/></filter><filter id="D" color-interpolation-filters="sRGB" height="1.17" width="1.44" x="-.2" y="-.1"><feGaussianBlur stdDeviation=".92"/></filter><filter id="E" color-interpolation-filters="sRGB"><feGaussianBlur stdDeviation=".68"/></filter><linearGradient id="F"><stop offset="0" stop-color="#d9d9d9"/><stop offset="1" stop-color="#eee" stop-opacity="0"/></linearGradient><filter id="G" color-interpolation-filters="sRGB"><feGaussianBlur stdDeviation="2.19"/></filter><filter id="H" color-interpolation-filters="sRGB"><feGaussianBlur stdDeviation=".74"/></filter><filter id="I" color-interpolation-filters="sRGB"><feGaussianBlur stdDeviation=".72"/></filter><filter id="J" color-interpolation-filters="sRGB" height="1.47" width="1.16" x="-.1" y="-.2"><feGaussianBlur stdDeviation="2.64"/></filter><filter id="K" color-interpolation-filters="sRGB"><feGaussianBlur stdDeviation=".79"/></filter><filter id="L" color-interpolation-filters="sRGB" height="1.39" width="1.17" x="-.1" y="-.2"><feGaussianBlur stdDeviation="1.76"/></filter><filter id="M" color-interpolation-filters="sRGB"><feGaussianBlur stdDeviation="1.75"/></filter><filter id="N" color-interpolation-filters="sRGB" height="1.35" width="1.37" x="-.2" y="-.2"><feGaussianBlur stdDeviation="13.12"/></filter><radialGradient id="O" cx="118.31" cy="184.03" gradientTransform="matrix(1.403 .914 -.956 1.466 296.99 -681.87)" gradientUnits="userSpaceOnUse" r="166.2" xlink:href="#e"/><radialGradient id="P" cx="119.63" cy="31.19" gradientTransform="matrix(3.383 .907 -.907 3.383 203.3 -525.76)" gradientUnits="userSpaceOnUse" r="132.1" xlink:href="#h"/><radialGradient id="Q" cx="72.08" cy="59.56" gradientTransform="matrix(3.383 .907 -.907 3.383 203.3 -525.76)" gradientUnits="userSpaceOnUse" r="47.44"><stop offset=".86" stop-color="#0057ae" stop-opacity="0"/><stop offset="1" stop-color="#0057ae"/></radialGradient><radialGradient id="R" cx="47.1" cy="49.11" gradientTransform="matrix(3.383 .907 -.907 3.383 203.3 -525.76)" gradientUnits="userSpaceOnUse" r="47.44"><stop offset="0" stop-color="#fff"/><stop offset="1" stop-color="#ccc" stop-opacity="0"/></radialGradient><radialGradient id="S" cx="124.22" cy="135.58" gradientTransform="matrix(.59 1.594 -1.64 .608 512.21 -623.37)" gradientUnits="userSpaceOnUse" r="166.2" xlink:href="#e"/><radialGradient id="T" cx="227.55" cy="279.74" gradientTransform="matrix(1.452 .008 -.02 3.51 -126.25 -744.53)" gradientUnits="userSpaceOnUse" r="61.48" spreadMethod="reflect" xlink:href="#f"/><linearGradient id="U" gradientUnits="userSpaceOnUse" spreadMethod="reflect" x1="86.52" x2="86.28" xlink:href="#c" y1="-214.76" y2="-33.74"/><linearGradient id="V" gradientTransform="matrix(.675 0 0 1 142.93 400.59)" gradientUnits="userSpaceOnUse" spreadMethod="reflect" x1="86.52" x2="84.18" xlink:href="#c" y1="-214.76" y2="-90.31"/><radialGradient id="W" cx="174.64" cy="222.93" gradientTransform="matrix(6.385 .708 -.623 5.62 -781.43 -1143.51)" gradientUnits="userSpaceOnUse" r="61.22" xlink:href="#g"/><linearGradient id="X" gradientUnits="userSpaceOnUse" spreadMethod="reflect" x1="555.48" x2="390.25" xlink:href="#f" y1="330.23" y2="327.22"/><radialGradient id="Y" cx="676.02" cy="266.14" gradientTransform="matrix(1 0 0 1.102 0 -34.04)" gradientUnits="userSpaceOnUse" r="79.53" xlink:href="#c"/><linearGradient id="Z" gradientUnits="userSpaceOnUse" x1="520.85" x2="551.43" y1="258.38" y2="306.46"><stop offset="0" stop-color="#b3b3b3"/><stop offset="1" stop-color="#fff"/></linearGradient><radialGradient id="aa" cx="47.35" cy="47.56" gradientTransform="matrix(3.383 .907 -.907 3.383 41.48 -37.82)" gradientUnits="userSpaceOnUse" r="71.35"><stop offset="0" stop-color="#bfebff"/><stop offset=".07" stop-color="#9fdfff"/><stop offset=".18" stop-color="#78d1ff"/><stop offset=".28" stop-color="#5ac6ff"/><stop offset=".38" stop-color="#44beff"/><stop offset=".48" stop-color="#37baff"/><stop offset=".57" stop-color="#339bff"/><stop offset=".8" stop-color="#1679e3"/><stop offset="1" stop-color="#005acf"/></radialGradient><linearGradient id="ab" gradientUnits="userSpaceOnUse" x1="963.63" x2="831.93" y1="399.72" y2="388.67"><stop offset="0" stop-color="#9fa4a5"/><stop offset=".31" stop-color="#cdd0d3"/><stop offset="1" stop-color="#fff"/></linearGradient><radialGradient id="ac" cx="667.36" cy="375.93" gradientTransform="matrix(-1.13 0 0 -3.897 1421.25 2043.53)" gradientUnits="userSpaceOnUse" r="52.84" xlink:href="#c"/><linearGradient id="ad" gradientTransform="matrix(2.652 .663 0 2.652 619.76 183.05)" gradientUnits="userSpaceOnUse" x1="35.48" x2="34.5" xlink:href="#c" y1="52.67" y2="86.34"/><linearGradient id="ae" gradientTransform="matrix(2.652 .663 0 2.652 641.76 399.05)" gradientUnits="userSpaceOnUse" x1="35.48" x2="34.5" xlink:href="#c" y1="52.67" y2="86.34"/><linearGradient id="af" gradientTransform="matrix(2.652 .663 0 2.652 625.76 401.05)" gradientUnits="userSpaceOnUse" x1="34.88" x2="34.01" xlink:href="#c" y1="90.84" y2="12.2"/><linearGradient id="ag" gradientTransform="matrix(2.652 .663 0 2.652 651.76 393.05)" gradientUnits="userSpaceOnUse" x1="34.88" x2="34.01" xlink:href="#c" y1="90.84" y2="12.2"/><linearGradient id="ah" gradientTransform="matrix(2.652 .663 0 2.652 667.76 391.05)" gradientUnits="userSpaceOnUse" x1="35.48" x2="34.5" xlink:href="#c" y1="52.67" y2="86.34"/><radialGradient id="ai" cx="707.16" cy="372.73" gradientTransform="matrix(1 0 0 .99 120 3.88)" gradientUnits="userSpaceOnUse" r="63.1" xlink:href="#d"/><radialGradient id="aj" cx="39.95" cy="165.63" gradientTransform="matrix(9.023 2.36 -3.24 12.385 236.32 -2053.29)" gradientUnits="userSpaceOnUse" r="34.75" xlink:href="#g"/><linearGradient id="ak" gradientUnits="userSpaceOnUse" x1="-116.4" x2="-114.78" xlink:href="#c" y1="285.79" y2="393.27"/><linearGradient id="al" gradientUnits="userSpaceOnUse" x1="-114.4" x2="-112.78" xlink:href="#c" y1="285.79" y2="345.19"/><linearGradient id="am" gradientTransform="matrix(1 0 0 1.308 -165.61 129.52)" gradientUnits="userSpaceOnUse" x1="57.33" x2="56.83" xlink:href="#c" y1="125.2" y2="218.67"/><radialGradient id="an" cx="43.81" cy="182.48" gradientTransform="matrix(3.068 -.008 .01 3.98 -276.68 -254.98)" gradientUnits="userSpaceOnUse" r="34.75" xlink:href="#c"/><linearGradient id="ao" gradientUnits="userSpaceOnUse" x1="25.4" x2="96.85" y1="181" y2="186.21"><stop offset="0"/><stop offset=".15" stop-opacity=".5"/><stop offset=".46" stop-color="#fff" stop-opacity=".61"/><stop offset="1" stop-color="#fff" stop-opacity=".83"/></linearGradient><radialGradient id="ap" cx="174.64" cy="222.93" gradientTransform="matrix(6.385 .708 -.623 5.62 -900.7 -1304.1)" gradientUnits="userSpaceOnUse" r="61.22" xlink:href="#g"/><linearGradient id="aq" gradientUnits="userSpaceOnUse" x1="329.53" x2="252.86" xlink:href="#k" y1="-228.33" y2="-108.18"/><linearGradient id="ar" gradientUnits="userSpaceOnUse" x1="264.59" x2="264.59" xlink:href="#k" y1="-270.66" y2="-87.96"/><radialGradient id="as" cx="243.07" cy="-207.07" gradientTransform="matrix(-.09 2.465 -1.2 -.044 16.65 -825.19)" gradientUnits="userSpaceOnUse" r="35.82" xlink:href="#c"/><radialGradient id="at" cx="242.68" cy="-217.88" gradientTransform="matrix(-.09 2.465 -1.2 -.044 16.65 -825.19)" gradientUnits="userSpaceOnUse" r="35.82" xlink:href="#c"/><linearGradient id="au" gradientUnits="userSpaceOnUse" x1="248.88" x2="248.88" xlink:href="#g" y1="-264.54" y2="-24.41"/><radialGradient id="av" cx="268.58" cy="-142.86" fx="268.58" fy="-142.86" gradientTransform="matrix(1 0 0 1.324 180 41.72)" gradientUnits="userSpaceOnUse" r="54.73" xlink:href="#h"/><radialGradient id="aw" cx="248.76" cy="-127.89" fx="248.76" fy="-127.89" gradientTransform="matrix(1 0 0 1.324 180 41.72)" gradientUnits="userSpaceOnUse" r="54.73" xlink:href="#h"/><radialGradient id="ax" cx="235.54" cy="-107.93" fx="235.54" fy="-107.93" gradientTransform="matrix(1 0 0 1.324 180 41.72)" gradientUnits="userSpaceOnUse" r="54.73" xlink:href="#h"/><radialGradient id="ay" cx="300.34" cy="230.78" gradientTransform="matrix(4.568 -.066 .067 4.698 -1218.97 -1226.37)" gradientUnits="userSpaceOnUse" r="63.13" xlink:href="#g"/><linearGradient id="az" gradientUnits="userSpaceOnUse" x1="198.06" x2="185.91" xlink:href="#a" y1="-145.16" y2="-237.25"/><linearGradient id="aA" gradientUnits="userSpaceOnUse" x1="192.54" x2="169" xlink:href="#a" y1="-138.09" y2="-185.68"/><linearGradient id="aB" gradientUnits="userSpaceOnUse" x1="234.71" x2="207.49" xlink:href="#k" y1="-184.56" y2="-313.06"/><linearGradient id="aC" gradientUnits="userSpaceOnUse" x1="198.04" x2="257.39" xlink:href="#g" y1="-251.47" y2="-95.15"/><linearGradient id="aD" gradientTransform="matrix(1.42 0 0 1.272 -400.37 -511.44)" gradientUnits="userSpaceOnUse" x1="365.17" x2="317.95" xlink:href="#k" y1="517.29" y2="34.25"/><radialGradient id="aE" cx="-48.57" cy="-193.06" gradientTransform="matrix(1 0 0 2.894 0 335.62)" gradientUnits="userSpaceOnUse" r="19.4"><stop offset="0" stop-color="#422e2e"/><stop offset="1" stop-color="#787878"/></radialGradient><linearGradient id="aF" gradientTransform="matrix(1.42 0 0 1.272 -400.37 -511.44)" gradientUnits="userSpaceOnUse" x1="227.3" x2="304.56" y1="212.57" y2="368.35"><stop offset="0" stop-color="#9fa4a5"/><stop offset=".46" stop-color="#cdd0d3"/><stop offset="1" stop-color="#fff"/></linearGradient><radialGradient id="aG" cx="171.14" cy="191.03" gradientTransform="matrix(-.045 1 -1.88 -.084 344.98 -217)" gradientUnits="userSpaceOnUse" r="34.84" xlink:href="#F"/><radialGradient id="aH" cx="171.14" cy="191.03" gradientTransform="matrix(-.023 1 -2.057 -.047 375.31 -224.19)" gradientUnits="userSpaceOnUse" r="34.84" xlink:href="#F"/><radialGradient id="aI" cx="167.69" cy="80.88" gradientTransform="matrix(1 0 0 1.01 -160 -300.82)" gradientUnits="userSpaceOnUse" r="73.91" xlink:href="#c"/><radialGradient id="aJ" cx="167.69" cy="80.88" gradientTransform="matrix(1 0 0 1.348 -160 -328.18)" gradientUnits="userSpaceOnUse" r="73.91" xlink:href="#c"/><radialGradient id="aK" cx="151.98" cy="155.8" gradientTransform="matrix(1 0 0 .498 0 78.28)" gradientUnits="userSpaceOnUse" r="48.33" xlink:href="#c"/><radialGradient id="aL" cx="151.98" cy="155.8" gradientTransform="matrix(1 0 0 .498 -160 -161.72)" gradientUnits="userSpaceOnUse" r="48.33" xlink:href="#c"/><linearGradient id="aM" gradientUnits="userSpaceOnUse" x1="275.82" x2="361.26" y1="732.21" y2="732.21"><stop offset="0" stop-color="#525252"/><stop offset="1" stop-color="#3c3c3c"/></linearGradient><radialGradient id="aN" cx="286.07" cy="658.68" gradientTransform="matrix(-1 0 .006 -8.396 568.14 6173.62)" gradientUnits="userSpaceOnUse" r="4.93" xlink:href="#b"/><radialGradient id="aO" cx="257.58" cy="461.1" gradientTransform="matrix(3.518 -.28 .82 10.286 -1027.36 -4027.99)" gradientUnits="userSpaceOnUse" r="36.1" xlink:href="#g"/><radialGradient id="aP" cx="314.33" cy="744.09" fx="314.33" fy="744.09" gradientTransform="matrix(1.037 -.167 .334 2.074 -259.73 -733.22)" gradientUnits="userSpaceOnUse" r="42.72" xlink:href="#h"/><radialGradient id="aQ" cx="279.43" cy="628.23" gradientTransform="matrix(1.942 -.212 .118 1.078 -334.95 17.87)" gradientUnits="userSpaceOnUse" r="11.14" xlink:href="#b"/><path d="m274.06 387.62 10.3-150.83c-37.55-1.18-80.34-2.5-120.4 14.04l-4.9 91.77z" fill="url(#T)" transform="translate(-136.12 -162.87)"/><g filter="url(#s)" opacity=".7" transform="translate(-136.12 -162.87)"><path d="m106.5-163.5c-2.5 0-5 .02-7.5.1v131.34l11.3 4.43v-135.84c-1.26 0-2.53-.03-3.8-.03zm17.94.4v141l12.75 4.98v-145.38c-4.26-.2-8.5-.42-12.76-.6zm-35.35.23c-3.76.28-7.53.66-11.32 1.18v121.33l11.3 4.43v-126.93zm-22.63 3.18c-3.3.7-6.6 1.53-9.9 2.48v108.56l9.9 3.88v-114.9zm-18.38 5.2c-2.3.8-6.17 3.27-8.47 4.22l-4.02 90.2 12.51 8.07v-102.5z" fill="url(#U)" transform="translate(126.27 400.59)"/><path d="m214.8 237.1c-1.7 0-3.36 0-5.06.08v131.35l7.64 4.43v-135.84l-2.58-.03zm12.1.4v141l8.6 4.97v-145.37c-2.85-.23-5.72-.43-8.6-.6zm-23.84.22c-2.53.28-5.08.66-7.64 1.18v121.3l7.64 4.45v-126.95zm-15.27 3.18c-2.23.7-4.46 1.52-6.7 2.47v108.56l6.7 3.88zm-12.4 5.2c-1.56.8-3.1 1.66-4.65 2.6l-5.7 93.92 10.33 6v-102.52z" fill="url(#V)"/></g><path d="m137.94 224.75 10.34-150.17c-37.54-1.17-82.5-.8-122.58 15.73l-1.88 87.14z" fill-opacity=".15"/><path d="m274.06 107.62c-32.04-76.9-101.06-92.72-57.2-147.18-14.96 1.45-32.68 5.6-49.05 11.72l-4.5 90.62 110.76 44.84z" fill-opacity=".39" filter="url(#r)" transform="translate(-136.12 117.13)"/><path d="m166.28 255.6c12.17-20.9 119.22-17.78 119.22-17.78l10.42-2.43s-129.5-6.3-137.7 22.42c4.56-.54 4.2.13 8.06-2.23z" fill="url(#W)" transform="translate(-136.12 -162.87)"/><path d="m558.66 309.45-10.5 81.35-76.8 21.94-44.9-165.2c44.08 21.32 100.07 23.88 132.2 61.9z" fill="url(#X)" transform="translate(-136.12 -162.87)"/><path d="m422.48 146.73-10.45 81.2-76.8 21.94-44.88-165.2c44.07 21.32 100 24.03 132.13 62.06z" fill-opacity=".26"/><path d="m533.12 343.17 15.04 47.63-76.8 21.94-7.6-132.76c33.54 6.38 71.6 46.98 69.36 63.2z" fill-opacity=".59" filter="url(#o)" transform="translate(-136.12 -162.87)"/><g fill="url(#Y)" filter="url(#t)" transform="translate(-276.12 -174.87)"><path d="m546.5 247.53 22.2 81.8v-72.37a271.32 271.32 0 0 1 -22.2-9.43zm44.86 17.5v107.72l11.28-3.22v-100.57c-3.75-1.32-7.5-2.63-11.28-3.93zm22.6 8.03v93.22l8.5-2.4v-87.48c-2.8-1.14-5.65-2.26-8.5-3.34zm15.56 6.34v82.44l9.9-2.8v-74.94a209.13 209.13 0 0 0 -9.9-4.72zm22.62 11.9v64.07l9.9-2.8v-58.3c-3.17-2.47-6.5-.8-9.9-2.96zm15.57 5.66v53.97l.44-.12 9.4-37.7c-3.08-3.66-6.36-13.03-9.83-16.14z"/><path d="m574.5 257.53 22.2 81.8v-72.37a271.32 271.32 0 0 1 -22.2-9.43zm44.86 17.5v87.72l11.28-3.22v-80.57c-3.75-1.32-7.5-2.63-11.28-3.93zm22.6 8.03v73.22l8.5-2.4v-67.48c-2.8-1.14-5.65-2.26-8.5-3.34zm15.56 6.34v62.44l9.9-2.8v-54.94a209.13 209.13 0 0 0 -9.9-4.72zm22.62 11.9v44.07l9.9-2.8v-34.3c-3.17-2.47-6.5-4.8-9.9-6.96zm15.57 11.66v27.97l.44-.12 9.4-17.7a100.42 100.42 0 0 0 -9.83-10.14z" opacity=".41"/></g><path d="m390.27 373.74s159.33-33.72 161.67-60.74c2.33-27-105.84-54.06-105.84-54.06l-2.68-4.45s117.06 28.03 120.2 56.83c3.08 28.44-174.3 65.9-174.3 65.9l.95-3.5z" fill="url(#Z)" transform="translate(-136.12 -162.87)"/><path d="m240.55 60.34c-10.98-76.5-66.1 15.1-87.97 135-17.07 93.67-21.04 265.94 8.25 190.57" fill="none"/><path d="m391.8 272.03c23.75-88.63-28.85-179.74-117.5-203.5-88.62-23.73-179.73 28.87-203.5 117.51-23.74 88.64 28.87 179.75 117.5 203.5 88.64 23.75 179.74-28.85 203.5-117.5z" fill="url(#aa)" transform="translate(-16.85 -2.28)"/><path d="m301.1 195.47c-11.38 1.02 4.3 8.7 0 0zm-13.6-9.4c-6.86 1.3 2.1 15.78 0 0zm-13.13-104.97c18.2 20.22 16.25 11.24 0 0zm-24.3 4.1c1.65.67 2.8 2.53 4.77 3.14 15.75 4.86-11.37-12.42-4.55-3.46m-26.64 26.5c3.73 2.03 9 .22 12.28.66 6.7.9-14.53 14.77-12.9 2.6.27-1.9-1.66-1.78 1-3.54m-23.8-29.3c5.63 6.9-8.07 13.83-11.8 19.3-2.07 3.06-2.56 7.33-4.56 10.27-1.5 2.2 2.5 6.22 2.22 8.33-.1.63 11.96-6.18 14.46-8.08 3.98-3.04 22.33-8.05 23.56-9.87 3.4-4.97 6.5-14.83 11.18-18.4 4.1-3.1-5.72-4.32-7.02-4.96-5.16-2.54-19.78-3.82-25.3-1.92-.9.3-2.95 4.58-3.58 5.37m-11.65-12.78c.96 2.58.3 8.36 2.5 9.88 1.1.73 14.96-3.08 17.35-3.35.94-.1 8.84.2 8.35-1.2-.8-2.4-8.92-1.07-10.72-2.3-1.9-1.3-7.95-6.32-10.22-6.06-3.23.36-4.57 2.47-7.25 3.03zm-16.55 4.96c25.4-7.65 9.97-11.73-.87-3.46-2.8 2.13-3.2 7.92 1 3.8m-7.5 29.6c-2.4-7.98 7.95-8.67 11.36-13.68 2.52-3.72-.77-5.1.77-8.27.82-1.65 9.4-7.4 10.78-5.57 4.42 5.8-2.44 9.97-6.8 13.3-1.94 1.48 1.18 6.9-1 8.57-3.9 2.98-3.44-3.3-5.85-2.47-.9.32-1.08 3.67-1.77 4.45-1.97 2.25-3.9.18-4.98 1-1.3 1-.7 2.45-2.53 2.68zm-11.74 28.7c-13.22 1-6.7 18.8.16 13.57.04-.03-.87-2.23-.8-2.78.16-1.16 2.12-2.27 1.54-3.98-.12-.37-4.16-.95-2.54-2.18 1.93-1.47 4.33-3.4 1.63-4.63zm-77.4 70.5c-3.6.96 3.95 9.82 5.53 8.62 1.62-1.25-3.88-8.9-5.53-8.62zm-7.15-22.54c.07 4.46 3.2 9.23 2.54 13.4-.2 1.26 3.8 6.37 4.18 6.08 1.13-.85-5.3-19.03-6.73-19.46zm131.9-118.78c-8.4 1.75-44.74 7.57-32.74 15.75 3.1 2.1 14.06-8.05 15.7-5.9 2.5 3.3 1.53 2.4-1.9 5.26l-.76.73c-18.46 4.63 1.24 6.06-5.65 8.42-7.1 2.42-21.3.32-25.2 3.3-3.4 2.6-9.28 2.07-12.66 4.64-2.5 1.9-2.6 9.32-2.98 12.15-.35 2.64-7.64 5.83-5 6.2 3 .4 27.97-18.08 29.7-16.9 7.7 5.24-3.24 8.72-5.03 12.36-1 2.04 8.64.3 8.28-1.9l.86-.05c-.56 1.72-6.38 9.4-5.45 14.33.48 2.48 3 5.97 1 7.5-1.3 1-2.75 2.5-4.07 2.96-2.14.72-5.4 1.96-7.32 2.18-3.05.34-4.66-2.65-5.93-4.32-1.5-1.96-14.28.57-14.5 2.23-.23 1.68 6.4-1.84 9.8.47 1.5 1.04-2.87 5.6-3 6.12l-.16 1.14c-.2 4.97 2.78 1.26 4.22 2.24 5.1 3.48-12.5 5.24-13.14 4.42-1.54-2.03 3.75-5.26 3.26-5.58-4.23-2.9-10.18 4.08-12.3 5.7-2.04 1.56-5.18-.62-7.14.87-2.96 2.25-9.9 8.08-12.93 9.12-2.3.78-9.32.65-10.73 2.73-3.44 5.06-3.96 15.1-8.9 18.87-1.16.9 3.34-12.36 3.66-14.73.8-5.93-1.04-5.83-4.42-8.13-1.65-1.13 2.18-3.52 1.02-5.05-.13-.17-3.8.68-4.16 1.1-1.96 2.23-3.08 4.44-5.16 6l-.27.8c-1.7 1.94-8.36 15.4-7.2 18.77.08.25 5.13-1.47 6.14 1.5.8 2.3-4.3 10.5-5.5 12.3-.94 1.36.56 7.7 1.33 8.7.96 1.27-2.17 3.84-2.62 4.5-5.14 7.56 1.1 17.15 3.13 23.84l.82.1c5.3-4.63 11.95 12.6 16.6 14.47 8.1 3.24 10.16 15.52 12.64 22.8.92 2.68 6.12 1.64 7.4 3.33 1.6 2.1 3 4.7 4.32 6.44 10.27 13.5 8.48 30.72 31.03 36.3l.58.6c2.2.7 4.3 5.26 6.75 6.92 12.98 8.84-.54 11.98-5.43 19.16-2.44 3.58-1.28 8.73-3.65 12.22-2 2.94-10.02-2.82-12.78-.72-2.22 1.7-2.2 6.14-5.46 7.74-1.45.7-3.16.75-4.46-.65-12.85-10.2-25.74-25.83-27.86-29.96-2.12-4.15-22.35-42.97-22.72-46.37-.38-3.4-6.35-27.3-4.77-32.76 1.56-5.48 3.34-2.56 4.93-6.86 1.58-4.3-2.82-18.77-2.82-18.77-6.8-21.33 5.76-54.86 6.35-57.96.6-3.1 12.25-33.67 41.2-59.48 22.25-19.82 55.54-38.54 96.23-41.63l-.12.37zm44.08 92.37c6.4.57 8.67-8.4 4-11.6-2.85-1.92-8.13 7.93-4 11.6zm9.7 4.4c.36 1.7 12.72-1.56 10.63-5.75-1.7-3.4-4.26-4.17-6.33-7.63-2.77-4.62-2.67-6.1-3.4-8.24-1.52-4.46-6.35-3.3-5.46 1.44.66 3.46 5.16 5.46 5.55 9.03.25 2.26-1.58 2.65-.93 5.06.53 2.04-.46 4.4-.08 6.1zm-14.3-96.2c7.4 2.28 10.85 2.62 18.04 4.7 5.36 1.57 5.65 1.83 11.05 3.5 6.43 2 7.57 2.2 12.2 5.17 6.92 4.44 9.73 9.78 12.72 13.7 1.7 2.25-.37 6.22 1.14 8.2 1.25 1.64-.4 6.9.32 9.03.26.76 2.88 4.68 1.33 5.86-1.2.9-5.76-3.33-6.58-3.74-2.94-1.44 5.48-1.82 3.64-4.24-1.7-2.2-7.34-5.24-10.8-4.06-4.5 1.54-11.78-1.65-13.1 5.04.07 2.52.72 8.85-.5 10.63-1.25 1.86-5.28 7.03-4.45 9.45.2.6 4.2 8.5 4.75 8.57 1.46.2 6-2.38 6.2-2.24 1.47 1 6.43 10.23 9.07 8.22 1.26-.97 2.16-11.27 1.85-12.88-.37-1.97-3.36-2.1-4.58-3.7-1.28-1.68.58-5.5.12-7.9-.04-.23-1.42-3.06-.98-3.2 5.22-1.8 1.9 22.76 14.13 11.7l.64-.26c3 2.65-2.13 3.5-3.9 6.1-2.87 4.2 9.62 10.4-4.54 15.24-.98.33-1.58-1.34-2.15-1.6l-.44-.17c-.53.23-3.4 4.27-5.3 1.76-.58-.73-2.88-9.47-4.05-8.58-1.2.93 2.77 15.02-4.66 12.62l-.08.47c-1.62 12.02-15.26 12.66-16.63 14.67-.4.58 4.12 2.36 5.04 2.82 2.98 1.45 4.82 10.32 2.82 13.26-1.52 2.23-14.32-4.84-17.3-.45-1.4 2.05.57 4.48.24 6.9-.53 3.95-4.32 9.24-1.4 13.06 1.07 1.42 4.4.1 5.76 1.02 1.75 1.2 1.77 3 2.93 4.54.54.7 2.34-2.94 2.54-3.1 1.52-1.15 6 1 7.28-.54l.63-.27c6.13-4.05 1.9-9.68 5.06-12.08 10.55-8.05 2.1-3.08 6.5-9.54.64-.94 9.77.16 11.27-3.8l.7.1c1.2 1.07 7.95 5.13 8.53 6.83.76 2.24 6.6 2.38 7.95 4.16.38.5 1.94 8.72 3.73 7.36 10.97-8.37-20.78-19.17-13.7-24.56 3.8-2.9 26.18 24.94 26.42 24.86 6.1-2.1-6-11.26.7-13.75 2.83-1.06 3.7-1.63 4.57-3.4.08-.16-5.64-14.4-1.4-17.17l.3-.07c2.48-.76 4.36 4.58 6.3 4.22 2.3-.44-4.13-7.2-.22-8.55 1.88-.64 2.32 5.14 4.4 5.86 2.8.96 12.77 3.98 9.6 8.63-2 2.92-6.03.87-9.05 1.7-4.74 1.43-8.02 8.27-12.56 9.28 3.7-.95 5.5 8.92 8.16 10.8l2.93-.33c1.4-.82 7.33-5.97 9.48-4.5 1.3.88 4.56 12.12 3.77 15.87-.57 2.7-1 4-3.86 5.13.28 2.73 4.34 3 6.83 4.7 1.9 1.3 10.34 17.95 11.18 20.42 1.27 3.7 4.3 6.76 5.66 10.7.23.67-.26 5.02 1.4 4.45 6.95-2.38 4.63-18.05 8.84-23.4l.18-.46c-.3-6.8 2.44-18.4-1.84-24.02-2.28-3-4.1 7.28-4.24 6.88-.56-1.67-10.8-10.3-6.56-13.54 2-1.53 6.36 8.12 8.04 2.62l.2-.7 4.9-7.85s.57 1.08-4.56-14.92c-6.88-21.42-20.38-42.85-32.6-56.64a173.73 173.73 0 0 0 -35.74-30.57c-19.9-12.7-40.6-20.13-64.24-24zm41.37 314.94c-2 4.1 33.67-14.88 46.3-29.9 4-9.47 10-16.64 17.65-23.57 6.54-5 2.65-20.37 8.83-25.08 13.34-10.17 18.1-34.27 19.88-52-1.5 1.72-1.82 6.55-3.52 7.85-6.42 4.9-21.5-41.26-28.43-45.5l-2.8.35c-6.23 3.63-12.47-2.27-17.67-.5-4.87 1.68-.92 8.97-3.7 9.92-2.87.98-22.47-8.7-22.2-10.57.07-.64.27-1.28 0-1.9l-.15-1.3c-1.96-5.6-3.27-4.13-8.9-3.95-6 .18-10.42-.1-15.45 2.34-1.78.87-4.3 3.18-6.27 3.76-3.4 1-7.52-.92-10.83-.3h-.67c-2.33.43-2.5 3.45-4.24 4.78-1.9 1.45-4.4 2.87-5.75 4.83-3.62 5.32-1.17 9.47-5.85 11.75l-.42.03c-7.24 2.97-9.3 8.15-13.56 14.4-2.5 3.68-10.5 5.08-7.74 11.5l.1.43c2.58 5.4.8 10.68-.87 15.86l-.23.46c-2.05 2.7-2.42 8.5-1.87 11.96l.26.54c2.92 3.6 5.22 7.6 9.13 10.26 1.7 1.15 1.47 4.52 2.98 5.84 1.86 1.63 5 2.33 7.15 4.06 2.34 1.87 1.6 2.83 5.03 4.2.98.4 2.64 1.68 3.64 1.5 2.17-.42 4.12-2.23 6.38-2.66 6.3-1.2 11.6 1.7 17.68-.37 3.76-1.3 7.05-5.4 10.94-6.15 1-.2 2.98 2.6 3.33 3.2l.4.07c2.1.98 1.12 3.82 3.46 3.56 1.17-.13 2.5-1.76 3.57-1.6 12.85 1.72.03 12.6 4.3 18.22.9 1.15 1.13 1.9 2.15 2.04l.54.33c3.45 4.47 1.64 20.9-3.24 21.56l-.22.38c-7.94 3.13-2.98 13.8-4.82 16.5-1.35 3.07-2.17 7.73-4.3 9.32l.02 3.54zm63.8-229.14c1.87 3.9 3.2 7.94 6.76 10.38 6.36 4.33 11.1 19.04 5.4 15.16-3.05-2.08-20.92-24.67-12.15-25.54z" fill="#fff" opacity=".57"/><g fill="none" stroke="#000"><path d="m322 314.54c-37.37 43.6-100.23 60.94-155.47 47.86 53.33-2.6 108.02-22 144.93-61.8 14.23-15.54 24.97-34.35 30.6-54.68.98 16.32-9.54 30.58-18.36 43.37-18.88 24.38-43.06 46.9-73.25 55.73-16.98 7.66-35.98 11.68-54.63 10.76-16.7-2.8 4.37-16.4 10.86-18.9 36.3-14.88 73.2-37.37 89.96-74.48 8.76-18.5 7.3-40.5 18.18-58.13 5.57 4.62 1.17 18.47 1.12 26.71-6.62 45.84-35.2 84.94-66.92 117.16-3 3.84-14.05 12.26-12.42 12.93 63.2-22.26 110.33-87.98 105.03-155.7-1.4-14.6-3.57-29.85-12.9-41.74-3.3-5.37-16.43-20.9-15.9-18.15 9.2 9.8 19.77 19.2 22.73 33 8.2 29.54-6.85 59.2-23.5 82.8-8.96 12.12-18.27 24.15-28.83 34.9-4.37 4.97-24.64 17.3-21.13 3.15 6.9-11.6 13.64-23.32 18.35-36.1 16.13-39.33 25.06-83.2 16.35-125.44 14.3 36.7 24 79.02 9 117.06-8.03 19.06-22.25 34.53-34.54 50.9-4.32 4.83-9.22 12.5-13.7 15.22 9.2-17.2 24.75-30.03 32.9-47.9 18.76-37.8 16.34-81.37 12.7-122.2-1.25-7.63-3-17.3 8.1-12.28 22.26 6.54 35.52 28.3 43.83 48.6 9.6 24.57 12.66 54-1.73 77.4-17.65 34-42.84 66.62-78.55 82.73-14.5 6.37-30.75 8.97-46.48 6.77 8.54-22.83 30.96-36.13 43.4-56.5 7.8-11.2 10.47-25.03 9.7-38.43 1.97-18.12 5.3-36.4 3.76-54.66-6.3-3.37-8.7 15.42-11.7 21.04-20.1 41.84-49.32 79.5-85.12 109.07 50.2-20.54 92.63-66.4 98.85-121.6-20.28 45.1-55.43 85.58-101.74 104.85-12.5 5.82-26.8 1.7-40.03 4.75-4.95-.36-12.72 3.94-3.48 5.26 39.1 8.37 82.23 5.9 117.55-14.16 19.84-11.25 34.98-30.4 40.74-52.52 9.43-26.47 6.86-55.23 13.13-82.33 4-11.33 6.46 9.3 8.08 14.26 8.68 43.65-11.1 88.96-43.2 118.33-21.88 20.43-50.18 33.54-79.4 39.3-17.1 2.98-35.7 1.93-50.9-7.2" filter="url(#l)" transform="matrix(1.154 0 0 1.154 -26.51 -33.15)"/><path d="m361 204.53c21.2 18.77-21.8 78.25-24.16 58 4.6-17.57-.75-63.12 3.1-19.35-.1 18-35.5 64.06-9.36 26.03 9.15-12.47 28.34-48.23 27.28-49.8-8.17 25.55-18.3 50.62-32.18 73.64 6.33-12.87 29.95-55.87 36.04-33.27-2.6 16.13-41.2 56-20.2 19.28 7.44-14.17 35.13-45.07 11.64-14.02-14.63 20.13-41.34 59.58-61.24 56.2 3.26-20.72 52.13-33.03 23.83-3.44 9.97 1.32 30.43-50.75 50.18-57.1-10.97 20.84-39.47 66.27-50.34 63.4 2.45-12.14 46.6-44.74 21.58-16.5-19.93 20.47-59.72 62.84-80.46 54.48 4.25-17.6 54.85-31.66 19.1-9.7-16.06 8.52-41.2 40.17-52.1 29.3 6-18.93 59.22-50.1 54.18-42.04-12.36 17-59.18 36.63-63.18 26.9 16.98-5.75 40.84-9.13 9.8-3.83-29.83 1.6-23.25 7.35-28.22 5.24 14.87-18.23 54.55-15.93 77.86-27.77-17.78.98-58.24 5.8-18.3-3.9 15.16-4.1 30.57-8.98 43.14-18.74" filter="url(#N)" transform="matrix(1.178 0 0 1.178 -45.08 -67.88)"/></g><path d="m553.62-215.9c23.75-88.63-28.86-179.74-117.5-203.5-88.63-23.74-179.74 28.86-203.5 117.5-23.74 88.63 28.87 179.75 117.5 203.5 88.64 23.75 179.74-28.85 203.5-117.5z" fill="url(#O)" opacity=".6" transform="translate(-178.67 485.65)"/><path d="m553.62-215.9c23.75-88.63-28.86-179.74-117.5-203.5-88.63-23.74-179.74 28.86-203.5 117.5-23.74 88.63 28.87 179.75 117.5 203.5 88.64 23.75 179.74-28.85 203.5-117.5z" fill="url(#P)" opacity=".6" transform="translate(-178.67 485.65)"/><path d="m553.62-215.9c23.75-88.63-28.86-179.74-117.5-203.5-88.63-23.74-179.74 28.86-203.5 117.5-23.74 88.63 28.87 179.75 117.5 203.5 88.64 23.75 179.74-28.85 203.5-117.5z" fill="url(#Q)" opacity=".6" transform="translate(-178.67 485.65)"/><path d="m553.62-215.9c23.75-88.63-28.86-179.74-117.5-203.5-88.63-23.74-179.74 28.86-203.5 117.5-23.74 88.63 28.87 179.75 117.5 203.5 88.64 23.75 179.74-28.85 203.5-117.5z" fill="url(#R)" opacity=".6" transform="translate(-178.67 485.65)"/><path d="m553.62-215.9c23.75-88.63-28.86-179.74-117.5-203.5-88.63-23.74-179.74 28.86-203.5 117.5-23.74 88.63 28.87 179.75 117.5 203.5 88.64 23.75 179.74-28.85 203.5-117.5z" fill="url(#S)" opacity=".6" transform="translate(-178.67 485.65)"/><path d="m101.75 107.32c-10.96 47.02 14.85 81.3 14.85 81.3l-4.24 8.5-26.17-.7-4.25 5.65s-1.77 37.83 17.68 83.43c-7.07 9.9-11.67 11.67-11.67 11.67-32.4-33.2-16.93-65.03-19.1-99 0-37.47 33.6-90.15 32.9-90.85z" fill="url(#j)" filter="url(#x)" transform="translate(-16.85 -2.28)"/><path d="m162.2 251.78c13.1.1 25.93 1.14 41.62-6.46 22.78-30.1 51.84-54.08 66.7-97.42 22.8-13 87.94-4.4 116.05 1.15-9.5-6.77-9.75-8.55-20.1-18.3-22.63-9.43-81.1-25.9-106.33-19.9 0 0 17.24-25.3 43.58-31.4-2.8-8.83-47.6-16.48-66.65-12.56-17.32 2.82-51.93 45-51.93 45l2.48 34.3-15.36 44.15-25.1 8.13 15.03 53.3z" fill="url(#u)" filter="url(#w)" opacity=".7" transform="translate(-16.85 -2.28)"/><path d="m184.84 389.1c-25.8-47.38-22.34-155.37-22.34-155.37l6.5-1.06c-3.4 84.32 28.1 162.4 58.97 163.5-9.2 3.18-44.2-7.78-43.13-7.07z" fill="url(#i)" filter="url(#v)" transform="translate(-16.85 -2.28)"/><path d="m152.3 241.88c13.1.1 23.1 5.4 38.8-2.2 22.78-30.12 49-44.2 63.85-87.53l-8.95-42.7s31.38-23.9 57.73-30c-2.8-8.83-47.6-16.48-66.66-12.56-17.32 2.82-51.93 45-51.93 45l2.48 34.3-15.36 44.15-25.1 8.14 5.13 43.38z" fill="url(#u)" filter="url(#w)" opacity=".54" transform="translate(-16.85 -2.28)"/><path d="m101.75 107.32c-10.96 47.02 14.85 81.3 14.85 81.3l-4.24 8.5-26.17-.7-4.25 5.65s-1.77 37.83 17.68 83.43c-7.07 9.9-11.67 11.67-11.67 11.67-32.4-33.2-16.93-65.03-19.1-99 0-37.47 33.6-90.15 32.9-90.85z" fill-opacity=".33" filter="url(#y)" transform="translate(-16.85 -2.28)"/><path d="m408.95 258.48 6.13 12.66 2.14-.25-4.92-10.27-3.35-2.15z" fill="#b3b3b3"/><path d="m321.58 231.68 3.2.75 5.2 15.05-37 77.5-1.23-4.53 35.12-75.3-5.3-13.47z" fill="#fff"/><path d="m1003.68 312.67c-61.13 38.56-174.65 64.33-174.65 64.33l.97 11.43 69.34 8.74 5.9 12.42-36.18 77.95 9.1 6.28 53.92-50.3 9.77 3.9 13.87 63.42 8.92.1 16.32-76.3 8.02-8.77 4.05 8 2.23-4.22-1.26-43.82 9.68-73.17z" fill="url(#ab)" transform="translate(-576.12 -162.87)"/><path d="m362.5 280.55 3.47 3.72 13.65 63.9-2.07-2.7-15.04-64.93z" fill="#b3b3b3"/><g filter="url(#M)" transform="translate(-356.12 -382.87)"><path d="m714.7 565.62c-6.37 2.05-12.5 3.97-18.5 5.84v104.88l15.88-14.8 2.63-95.92zm-40.34 12.56-10.53 3.16v31.87l10.53 1.36v-36.38zm-20.7 6.2c-8.12 2.38-15 4.37-21.14 6.12v18.78l21.15 2.65v-27.56zm-34.45 9.83c-6.37 1.77-10.18 2.8-10.18 2.8l1 9.43 9.2 1.16v-13.4zm55.16 58.83-10.53 22.68v28.86l10.53-7.8v-43.73zm-10.53 51.53-10.16 2v-8.97l-4.62 9.96 9.13 4.28 5.65-7.28z" fill="url(#ac)"/><path d="m734.27 557.5a661.24 661.24 0 0 1 -35.3 13.34v104.94l13.1-12.25 9.76 3.9 12.44 56.85z" fill="#fff" fill-opacity=".17" filter="url(#n)"/><path d="m712.86 344.07-7.8 4.46.92 87.92 5.16-8.14 1.72-84.23z" fill="url(#ad)" filter="url(#m)" transform="matrix(.488 0 0 1 361.11 222)"/><path d="m734.86 560.07-7.8 4.46.92 87.92 5.16-8.14 1.72-84.23z" fill="url(#ae)" filter="url(#m)"/><path d="m710.96 566.84 1.12 94.7 9.75 3.9-.1-102.13-10.77 3.54z" fill="url(#af)" filter="url(#m)"/><path d="m712.86 344.07-7.8 4.46.92 87.92 5.16-8.14 1.72-84.23z" fill="url(#ad)" filter="url(#m)" transform="matrix(.488 0 0 1.662 387.11 -13.87)"/><path d="m736.96 558.84 1.12 170.04 5.02.05 4.73-20.9-.1-152.72-10.77 3.54z" fill="url(#ag)" filter="url(#m)" opacity=".5"/><path d="m768.86 541.42-15.8 15.1.92 87.93 13.16-18.8z" fill="url(#ah)" filter="url(#m)" opacity=".3"/><g fill="url(#ad)"><path d="m712.86 346.07-7.8 4.46.92 85.92 5.16-8.14 1.72-82.23z" filter="url(#m)" transform="matrix(-.488 0 0 -1 1030.8 1034.53)"/><path d="m712.86 345-7.8 4.46.5 46.78 6.26-1.33 1.04-49.9z" filter="url(#m)" transform="matrix(-1.044 0 0 -2.14 1433.4 1420.93)"/></g></g><path d="m427.9 148.88c-61.15 38.56-174.8 64.82-174.8 64.82l.97 11.44 69.33 8.74 5.9 12.4-36.18 77.98 9.1 6.27 53.9-50.3 9.78 3.92 13.87 63.4 8.92.1 16.32-76.3 8.03-8.76 4.05 8 2.22-4.23-1.25-43.83 9.8-73.66z" fill-opacity=".1"/><path d="m805.24 409.58-36.18 77.97 9.1 6.28 53.92-50.3 9.77 3.9 13.87 63.42 8.92.1 16.32-76.3 8.02-8.77 4.05 8 2.23-4.22-1.26-43.82c-27.74-1.3-55.78-1.13-88.76 23.74z" fill="url(#ai)" filter="url(#p)" opacity=".2" transform="translate(-475.91 -163.3)"/><path d="m254.15 210.87s158.63-39.02 161.67-60.73l11.54-1.3c.98 29.55-174.15 65.5-174.15 65.5l.95-3.47z" fill="#fff"/><path d="m34.88 250.78-11.88 31.72 2.62-.5 12.66-31.6-3.4.36zm-19.22-39.7-4.96 8.42 1.46-.32 4.77-7.04-1.27-1.07z" fill="#808080"/><path d="m94.93 175.86-1.4 9.93-24.84-1.43-1.42 8.5 9.22 81.56-7.1 7.1-12.05-28.37-5.67 2.13-11.6 29.7-5.67-1.4 2.38-58.1-4.96-9.93-4.26 6.4-2.12-4.27 7.1-32.62s2.4-69.45 7.2-89.47c5.1 31.3 30.3 57.56 55.2 80.26z" fill="url(#aj)" transform="translate(-16.85 -2.28)"/><path d="m77.55 173.58-1.6 9.93h3.37l2.13-10.27-3.9.35zm-25.57 8.04-1.72 10.43 3.62.5 2.12-10.28z" fill="#808080"/><path d="m50.57 191.56 3.26.75 7.52 81-3-1.76-7.78-79.98z" fill="#999"/><path d="m58.95 271.76-6.36 7.17 2.1.76 6.4-6.3-2.15-1.64z" fill="#808080"/><g filter="url(#q)" transform="translate(163.88 -162.87)"><path d="m-141.73 259.2c-1.6 10.13-2.96 25.56-4 40.7v82.63l1.78 3.56-1.78 23.55v-5.3l4 .96zm9 18.08v128.02l3.7-9.43 4.3-1.63v-102.54c-3-4.7-5.7-9.5-8-14.4zm19 29.75v89.43l2.4 5.66 2.6-2.6v-4.3l-4.72-41.76 1.4-8.5 3.32.2v-32.1c-1.7-1.98-3.37-4-5-6.03zm18 19.93v18.94l8.5.47 1.44-9.9a325.3 325.3 0 0 1 -9.93-9.5zm-55 30.35-4.56 20.98 2.13 4.28 2.44-3.7v-21.55z" fill="url(#ak)"/><path d="m-139.73 259.2c-1.6 10.13-2.96 25.56-4 40.7v82.63l1.78 3.56-1.78 3.55v14.7l4 .96zm13 26.08v108.02l3.7-9.43 4.3-1.63v-82.54c-3-4.7-5.7-9.5-8-14.4zm15 21.75v89.43l2.4 5.66 8.6-.6v-4.3l-10.72-43.76 1.4-8.5 9.32 2.2v-32.1c-1.7-1.98-9.37-6-11-8.03zm18 19.93v18.94l8.5.47 1.44-9.9a325.3 325.3 0 0 1 -9.93-9.5zm-55 30.35-4.56 20.98 2.13 4.28 2.44-3.7v-21.55z" fill="url(#al)"/><path d="m-120.6 292.57v141.26l3.68-12.34 4.3-2.13v-107.96a197.98 197.98 0 0 1 -8-18.83z" fill="url(#am)"/><path d="m-141.36 255.7c-1.32 5.53-1.68 12.27-2.68 23.17v107.03l.1.2-.1 2.27v56.37l3.4-1.15 2.97-7.64v-171.15c-1.25-3.93-3.04-5.08-3.7-9.1zm6.53 16.86v156.12l4.22-10.8v-136.33a114.52 114.52 0 0 1 -4.23-9zm20.5 33.72v126.78l3 7.06 7.1-5.1-9.22-81.56 1.4-8.5 24.82-.6 1.44-7.9c-9.94-9.07-19.87-19.25-28.53-30.18zm-34.65 43-6.3 29 2.1 4.28 4.2-6.32v-26.94z" fill="url(#an)"/></g><path d="m94.93 175.86-1.4 9.93-24.84-1.43-1.42 8.5 9.22 81.56-7.1 7.1-12.05-28.37-5.67 2.13-11.6 29.7-5.67-1.4 2.38-58.1-4.96-9.93-4.26 6.4-2.12-4.27 7.1-32.62s.54-66.75 5.34-86.77c5.1 31.3 32.16 54.86 57.05 77.56z" fill="url(#ao)" opacity=".36" transform="translate(-16.85 -2.28)"/><path d="m93.86 175.8 4.4-.06s-61.3-60.67-50.9-81.2l-8.16 1.86c-8.08 23.96 54.15 79.4 54.66 79.4z" fill="url(#ap)" transform="translate(-16.85 -2.28)"/><path d="m295.52-197.24 4.47 25.18-3.28 9.5c-5.1-2.35-14.8-5.9-21.9-9.54l20.7-25.14z" fill="url(#aq)" transform="translate(-9.85 239.72)"/><path d="m260.03-239.57 18.4 12.85-4.12 35.64-23.56-6.8 9.3-41.7z" fill="url(#ar)" transform="translate(-9.85 239.72)"/><path d="m265.98 69.94 19.7-27.46-9-.3-29.94 25.38 19.24 2.37z" fill="#ccc"/><path d="m249.12 38.73c-20.23 1.2-54.04 78.84-73.72 127.72l2.87 17.12c26.32-58.08 53.72-116.12 93.16-112 9.16 2.73 11.38 3.84 13.44 4.7 0 0-5.72-21.45-17.35-31.2-8.6-7.23-14.68-6.57-18.4-6.34z" fill="#525252"/><path d="m259.8-201.06-.83.06c-3.06.18-6.42 2.13-10 5.44l10.06 31.9c2.4-1.24 4.8-2.27 7.28-3.03l-6.5-34.36zm6.76.5 3.53 32.94c1.05-.2 2.1-.35 3.18-.47-.1-9.28 5.58-13.92 5.14-22.58-2.2-1.27-10.08-9.45-11.86-9.88zm-22.84 10.6a130.27 130.27 0 0 0 -9.66 13.6l12.25 21.77c2.56-2.3 5.13-4.4 7.8-6.18l-10.38-29.2zm-14.72 22.01c-2.35 4.08-4.7 8.4-7.06 12.9l11.03 15.26a130.9 130.9 0 0 1 6.5-7.94l-10.47-20.21zm-17 32.88c-1.75 3.68-3.48 7.4-5.2 11.15l10.2 8.8c1.95-3.44 3.94-6.78 5.94-10l-10.94-9.93z" fill="url(#as)" filter="url(#K)" opacity=".1" transform="translate(-9.85 239.72)"/><path d="m254.04-199.4c-7.8 6.56 5.2-1.62 4.93-1.6-3.06.18-6.42 2.13-10 5.44l10.06 31.9c2.4-1.24.45-.23 7.28-3.03-8.92-6.04-12.1-17.84-12.26-32.7zm12.52-1.16 3.53 32.93c1.05-.2 2.1-.35 3.18-.47-.1-9.28 14.6-4.73 14.16-13.4 1.44-2.17-13.97-19.9-20.88-19.06zm-25.56 18.46c-3.13 3.77-10.4 2.5-13.7 7.72l15.23 23.4c2.55-2.32 4.94-5.12 7.6-6.9l-9.14-24.2zm-14.65 18.83c-2.35 4.08-2.05 3.72-4.4 8.24l11.02 15.25c2.14-2.82.7-1.26 2.92-3.72l-9.55-19.77zm-9.35 17.9c-1.75 3.68-8.48 17.72-10.2 21.46l10.2 8.8c1.95-3.44 7-11.62 9-14.84l-9-15.43z" fill="url(#at)" filter="url(#K)" opacity=".1" transform="translate(-9.85 239.72)"/><path d="m252.96-199.66 7.07-39.9-10.6-.16-11.55 41.5z" fill="url(#au)" transform="translate(-9.85 239.72)"/><path d="m438.97-201c-20.23 1.22-54.03 78.85-73.7 127.73l2.86 17.12c26.32-58.1 53.72-116.12 93.15-112 9.16 2.73 11.4 3.84 13.44 4.7 0 0-5.7-21.44-17.35-31.2-8.6-7.23-14.67-6.57-18.4-6.34z" fill="url(#av)" transform="translate(-189.85 239.72)"/><path d="m438.97-201c-20.23 1.22-54.03 78.85-73.7 127.73l2.86 17.12c26.32-58.1 53.72-116.12 93.15-112 9.16 2.73 11.4 3.84 13.44 4.7 0 0-5.7-21.44-17.35-31.2-8.6-7.23-14.67-6.57-18.4-6.34z" fill="url(#aw)" transform="translate(-189.85 239.72)"/><path d="m438.97-201c-20.23 1.22-54.03 78.85-73.7 127.73l2.86 17.12c26.32-58.1 53.72-116.12 93.15-112 9.16 2.73 11.4 3.84 13.44 4.7 0 0-5.7-21.44-17.35-31.2-8.6-7.23-14.67-6.57-18.4-6.34z" fill="url(#ax)" transform="translate(-189.85 239.72)"/><path d="m184.52-67.34-42.92-1.46c2.9-59.7 30.1-120.77 52.28-136.96 24.05 1.02 51.44 2.7 73.97 5.25-33.7-1.54-72.28 110.2-83.33 133.16z" fill="url(#ay)" transform="translate(-9.85 239.72)"/><path d="m195.42-193.06 2.94 24.56-9.1 22.37-3.94-27.12 10.1-19.8z" fill="url(#az)" transform="translate(-9.85 239.72)"/><path d="m176 66.92 9.65-20.9-11.03.63-9.85 20.57 11.22-.3z" fill="#f3f3f3"/><path d="m176.5-146.85 13.27.72-4.5-26.52-10.15-.7 1.37 26.5z" fill="url(#aA)" transform="translate(-9.85 239.72)"/><path d="m211.9 15.6 6.78-7.1-12.3.13-7.32 6.62 12.85.35z" fill="#eee"/><path d="m229.04-231.46 2.74 31.65-13.58 13.9 3.2-38.93 7.64-6.63z" fill="url(#aB)" transform="translate(-9.85 239.72)"/><path d="m206.05-188.4 13.22.36 2.14-36.8-12.5.37-2.85 36.07z" fill="url(#aC)" transform="translate(-9.85 239.72)"/><path d="m175.4 237.2-36.2 8.17-20.3-12.2-9.38-13.08s15.68 10.02 26.06 10.32 30.03-6.5 30.03-6.5l9.8 13.28z" fill="#999"/><path d="m25.26-.52-36.2 8.18-12.59-7.56c3.8-4.72 34.35 8.56 38.98-13.9l9.81 13.3z" fill="#122126" fill-opacity=".42" filter="url(#L)" transform="translate(150.15 237.72)"/><path d="m15.1-12.96 23.93-54.27 1.2-26.47 41.07-135.7 5.46-.13-18.95 98.1 1.6 44.24-44.25 86.64z" fill="url(#aD)" transform="translate(150.15 237.72)"/><path d="m-30.42-121.08 11.85-20.04-33.77-92.23-5.02 1.4z" fill="url(#aE)" transform="translate(150.15 237.72)"/><path d="m119.02 115.94 56.75 1.54 2.73-17.65-46.92-3.6-12.56 19.7z" fill="#aeaeae"/><path d="m15.1-12.94s-20.5 7.34-31.25 5.9c-10.75-1.43-24.44-10.4-24.44-10.4l-6.15-55.72-9.68-35.03-12.97-121.12 12.16-2.1 31.16 100.86 43.26 4 52.72-107.2 11.66 4.5-41.57 135.4-.46 25.53" fill="url(#aF)" transform="translate(150.15 237.72)"/><path d="m135.8 153.07c17.1 1.9 54.67-9.73 54.67-9.73l-.43 25.66s-35.38 9.97-51.6 8.8c-16.22-1.2-35.88-17-35.88-17l-8.75-31.35s24.9 21.72 42 23.62z" fill="#c0c0c0"/><path d="m80.8 8.44 12.15-2.06 4.7-1.95-8.38 2.06-8.48 1.94zm139.3-4.5 11.64 4.53 5.17-.28-9.46-3.56-7.35-.7z" fill="#e6e6e6"/><g filter="url(#E)" opacity=".5" transform="translate(150.15 237.72)"><path d="m-41.5-72.5 5.7 57.88c1.22.68 2.63 1.45 4.17 2.2l-2.87-55.77c-2.66-1.5-5-2.95-7-4.3zm69.7 6.78c-2.58.62-5.36 1.3-8.4 1.94l-17.73 54.68c1.3-.3 2.48-.6 3.66-.93l22.47-55.7zm-56.43.86 2.37 55.07c1.4.46 2.77 1.2 4.15 1.5l2.62-53.02c-2.6-.4-6.52-2.6-9.15-3.54zm37.42 3.1c-4.2.73-8.3 1.3-12.1 1.63l-5.09 52.93c1.24-.14 2.5-.3 3.75-.52l13.45-54.03z" fill="url(#aG)"/><path d="m-38.3-70.42 2.5 55.8c1.22.68 2.63 1.45 4.17 2.2l-.3-54.3c-2.66-1.53-4.37-2.36-6.37-3.7zm59.36 6.37c-2.56.6-3.16.6-6.2 1.26l-12.79 53.69c1.3-.3 2.48-.6 3.66-.93l15.34-54.03zm-45 1.06-1.92 53.2c1.4.46 2.77 1.2 4.15 1.5l6.16-52.16c-2.6-.4-5.75-1.6-8.38-2.52zm18.94 3.04c-4.17.72-2-.24-5.8.08l-1.4 53.02c1.2-.15 1.18.08 2.45-.15z" fill="url(#aH)"/></g><path d="m24.07-9.65 28.76-71.65 2.98-29.9 23.44-79.4-11.43 59.17 4.44 46.6-46.6 87.1-1.57-11.92z" fill="#002138" fill-opacity=".33" filter="url(#G)" transform="translate(150.15 237.72)"/><path d="m24.07-9.65 27.8-54.16 8.2-24.7 7.75-42.93 6.8 46.6-49 87.1-1.55-11.92z" fill="#000e19" fill-opacity=".33" filter="url(#G)" transform="translate(150.15 237.72)"/><g filter="url(#H)" transform="translate(150.15 297.72)"><path d="m69.94-293.78-10.75 21.9-49.33 125.1c4.2-.8 8.32-1.7 12.16-2.63l53.1-142.35-5.2-2.03zm5.2 2.03-40.24 138.95 5.26-1.5 41.44-134.96-6.47-2.5zm-137.24 1.2-4.12.7 18.66 128.57c1.97 1.46 4.2 3.06 6.6 4.65l-21.14-133.93zm5.73 1.83-.16.16 22.47 136.22c5.08 2.95 10.45 5.52 15.43 6.84l-37.4-142.03-.06-.28-.27-.92zm39.02 98.97 4 45.16a55 55 0 0 0 9.1-.12l6.75-43.22-19.84-1.8z" fill="url(#aI)"/><path d="m69.94-293.78-10.75 21.9-40.73 123.3c4.2-.8 7.96-2 11.8-2.94l44.86-140.23-5.2-2.03zm5.2 2.03-44.34 138.55c2.97-.84 9.16-1.05 9.36-1.1l41.44-134.96-6.48-2.5zm-137.24 1.2-4.12.7 18.66 128.57c1.97 1.46 4.2 3.06 6.6 4.65l-21.14-133.93zm-1.18.12-2.74 1.94 31.96 136.16c5.1 2.94 10.45 5.5 15.44 6.84l-45.7-144.7-.64.12 1.68-.35zm55.95 101.6-6 44.24c2.66.22 11.65-.52 15-.8l10.83-41.61-19.84-1.83z" fill="url(#aJ)"/></g><g filter="url(#I)" opacity=".5" transform="translate(150.15 237.72)"><path d="m103.66 131.75 8.75 31.34s5.5 4.4 13.04 8.7l-9.45-30.49c-7.2-5.06-12.34-9.53-12.34-9.53zm16.1 12.1 6.5 28.43a82.62 82.62 0 0 0 7.1 3.6l-6.8-27.85a115.01 115.01 0 0 1 -6.8-4.18zm80.55 1.77s-2.5.77-6.5 1.88l-12.93 28.47c10.54-2.3 19.03-4.7 19.03-4.7zm-22.18 5.85c-2.87.65-5.85 1.28-8.84 1.84l-11.8 26.54c3.18-.28 6.58-.74 10.05-1.3l10.6-27.07zm-40 2.03 1.9 24.9c1.67.52 9.3 1.37 10.96 1.66l-.82-24.5c-1.62 0-3.12-.06-4.5-.22-2.4-.26-4.93-.92-7.53-1.84z" fill="url(#aK)" transform="translate(-160 -240)"/><path d="m-56.34-108.25 8.75 31.34s-.76.53 6.77 4.85l-14.7-33.32-.8-2.88zm16.1 12.1 10.36 30.48c2.24 1.26 3.2 1.43 5.7 2.54l-3.6-25.87c-2.36-1.35-10.3-5.72-12.47-7.16zm80.54 1.75s-2.5.77-6.5 1.88l-5.8 26.85c10.53-2.3 11.93-3.05 11.93-3.05l.4-25.66zm-15.46 4.3c-2.88.64-7.75 1.9-10.74 2.46l-9.18 26.59c3.2-.3 6.23-1.12 9.7-1.7l10.22-27.34zm-42.1 4.93 2.6 24.45c1.67.5 8.22.43 9.87.73l-.28-24.68c-1.62 0-7.88.15-9.26 0-2.4-.27-.3.43-2.9-.5z" fill="url(#aL)"/></g><path d="m153.96 171.28 20.25-4.72 7.3-16.63-19.64 7.65-7.9 13.7z" fill="#f00"/><path d="m154.18 171.15 16.15-8.8 4.12 4.18z" fill="#a00"/><path d="m161.93 157.32 8.07 5.2 11.2-12.26z" fill="#ff8080"/><path d="m122.83 167.55-5.24-12.44-14.8-10.62 7.4 16.26 12.63 6.8z" fill="#f00"/><path d="m102.78 144.5 10.7 13.54 4.28-2.82-14.98-10.7z" fill="#ff8080"/><path d="m109.96 160.75 3.52-2.7 9.56 9.68z" fill="#a00"/><g filter="url(#J)" transform="translate(150.15 237.72)"><path d="m3.8-66.44 20.27-4.72 7.3-16.63-19.66 7.66-7.9 13.7z" fill="#f00"/><path d="m4.03-66.57 16.15-8.8 4.13 4.18-20.27 4.63z" fill="#a00"/><path d="m11.78-80.4 8.07 5.2 11.2-12.26z" fill="#ff8080"/><path d="m-27.32-70.17-5.24-12.44-14.8-10.64 7.4 16.26 12.64 6.8z" fill="#f00"/><path d="m-47.36-93.2 10.7 13.52 4.27-2.82-14.96-10.7z" fill="#ff8080"/><path d="m-40.2-76.97 3.53-2.7 9.56 9.7-13.1-7z" fill="#a00"/></g><path d="m26.73.22c-13.75 9.78-25.63 4.73-37.68 7.44l9.97-7.43c5.6-1.63 15.65 1.64 25.26-8.27z" fill-opacity=".42" filter="url(#L)" transform="translate(150.15 237.72)"/><path d="m223.7 418.1-11.58-23.25-6.38 1.78 12.04 20.07 5.9 1.42z" fill="#818181"/><path d="m230.28 392.2 3.02 12.8-10.15 12.73-11.9-25.14c6.34-.1 12.98.1 19.04-.4z" fill="#414141"/><path d="m183.82 431.75 1.6-21.38-11.26 5 2.2 15.42 7.47.95z" fill="#b9b9b9"/><path d="m204.13 411.72-3.98 18.46-16.22 1.7-.14-20.27 20.33.12z" fill="#4b4b4b"/><path d="m285.17 640.5c-31.87 107.73 23.8 237.84 76.1 154.84-13.13.3-39.48-.32-44.15-4.8-22.04-16.98-35.3-85.3-30.3-145.36l-1.65-4.7z" fill="url(#aM)" transform="translate(-136.12 -402.87)"/><path d="m285.32 640.9a229.9 229.9 0 0 0 -8.37 44.48l8.92-6.3c-.27-11.33.02-22.75.95-33.9l-1.5-4.27z" fill="url(#aN)" transform="translate(-136.12 -402.87)"/><path d="m285.34 640.74s-8.16 1.75-11.44 1.23c-3.28-.5-9.1-3.2-9.1-3.2s-27.7 124.2 20.16 180.9c9.35 1.27 31.27 1.58 44.46 2.48-46.53-10.52-55.05-94.8-44.08-181.4z" fill="url(#aO)" transform="translate(-136.12 -402.87)"/><path d="m323.05 820.18-16.75-11.98-15.24-7.13c5.1 6.93 9.7 14.35 16.75 19.33z" fill="#525252" fill-opacity=".78" filter="url(#z)" transform="translate(-136.12 -402.87)"/><path d="m295.9 791.43-23.74-6.4.03-14.46 3.6-10.45 10.9 5.06 9.2 26.25z" fill="#525252" fill-opacity=".71" filter="url(#A)" transform="translate(-136.12 -402.87)"/><path d="m127.7 289.25 5.9.5.95-21.02-6.3-.06z" fill="#ccc"/><path d="m134.84 269.22 3.4-2.42-8.1.28-2.05 1.74 6.74.4z" fill="#ccc"/><path d="m137.85 267.02-1.17 21.9-3.54.9.9-20.77 3.8-2.03zm27.48 156.74-11.9-10.95 1.5-14.6c5.1 6.93 9.7 14.35 16.76 19.33l-6.37 6.23z" fill="#525252"/><path d="m147.5 411.93 6.72.9 1.07-14.63-8.54-.23.74 13.95zm-10.44-44.2 2.67-9.96-9 .3-1.62 9.64 7.96.03z" fill="#ccc"/><path d="m140.93 387.24-7.1-.13-4.75-19.43h7.17l4.68 19.57z" fill="#999"/><path d="m146.1 380.42-4.8 6.24-5.23-18.97 3.6-10.45 6.42 23.17z" fill="#525252"/><path d="m126.37 338.73 6.55-.05-.2-23.68-7.1.1.75 23.62z" fill="#ccc"/><path d="m136.9 312.42-.1 25.24-4.23.95-.2-25.05 4.53-1.13z" fill="#525252"/><path d="m125.88 315.47 6.34-.5 4.6-2.66-8.9.42-2.04 2.75z" fill="#ccc"/><path d="m147.44 411.88 6.6.2 11.1 11.54-6.36-.73-11.34-11.02z" fill="#999"/><path d="m342.8 814.26c6.1-4.3 12.3-11.14 18.46-20.92-18.65 3.36-53.92-4.78-58-26.5.4 15.65 11.2 41.8 39.53 47.42z" fill-opacity=".31" filter="url(#B)" transform="matrix(1.066 0 0 1 -156.24 -402.87)"/><path d="m271.97 669.9-1.17 21.88 6.8.5 1.5-19.13-7.13-3.26z" fill="#525252" fill-opacity=".53" filter="url(#C)" transform="translate(-136.12 -402.87)"/><path d="m271.02 715.3-.1 25.23 7.98 1.48.3-25-8.18-1.7z" fill="#525252" fill-opacity=".59" filter="url(#D)" transform="translate(-136.12 -402.87)"/><path d="m285.32 640.9c-31.86 107.75 23.66 237.44 75.94 154.44-13.12.3-39.47-.32-44.14-4.8-22.04-16.98-35.3-85.3-30.3-145.36l-1.5-4.27z" fill="url(#aP)" transform="translate(-136.12 -402.87)"/><path d="m285.34 640.74s-8.16 1.75-11.44 1.23c-3.28-.5-9.1-3.2-9.1-3.2s-.72 3.33-1.75 9.14l21.2 2.07c.34-3.07.7-6.15 1.1-9.23z" fill="url(#aQ)" transform="translate(-136.12 -402.87)"/></svg>