<svg xmlns="http://www.w3.org/2000/svg" viewBox="740 202 2614 2614"><radialGradient id="a" cx="1431" cy="2198" r="2143" gradientUnits="userSpaceOnUse"><stop offset="0" stop-color="#b8f5ff"/><stop offset="1" stop-color="#0097ff"/></radialGradient><path fill="url(#a)" stroke="#000" stroke-width="88" d="m887 1509a1161 1161 0 1 0 2323 0 1161 1161 0 0 0-2323 0z" transform="matrix(1 0 0 -1 0 3018)" stroke-linejoin="bevel" stroke-miterlimit="16"/><path fill="#fff" d="m2820 1323-73-202 167-101-195-91 47-189-202 73-100-167-92 195-188-47 73 202-167 101 195 91-47 189 202-73 100 166 91-194 188 47z"/><path d="m1528 542-53 202-89-18 60-219zm-96 407-18 205-81-3 18-216zm-18 417 32 202-88 18-25-216 81-3zm82 407 81 184-78 36-84-198zm180 372 120 163-70 56-124-177zm251 332 153 156-85 42-131-144zm-909-506 177 75-21 74-152-46z"/><path d="m1397 2088 212 14-3 89-220-22zm421 18 208-22 11 85-215 21-3-84zm414-53 201-50 25 85-209 50zm403-117 187-85 36 74-191 92zm357-198 142-142 78 50-163 159z"/></svg>