<svg width="512" height="512" enable-background="new" version="1.1" viewBox="0 0 135.47 135.47" xmlns="http://www.w3.org/2000/svg" xmlns:xlink="http://www.w3.org/1999/xlink"><defs><linearGradient id="linearGradient855" x1="-1108.2" x2="-1106.4" y1="224.72" y2="10.598" gradientTransform="matrix(1.0069 0 0 1.0133 1248.4 -116.04)" gradientUnits="userSpaceOnUse"><stop stop-color="#d2d2d2" offset="0"/><stop stop-color="#f2f2f2" offset=".5337"/><stop stop-color="#ffffff" offset="1"/></linearGradient><filter id="filter1648" color-interpolation-filters="sRGB"><feFlood flood-color="rgb(0,0,0)" flood-opacity=".61" result="flood"/><feComposite in="flood" in2="SourceGraphic" operator="in" result="composite1"/><feGaussianBlur in="composite1" result="blur" stdDeviation="0.5"/><feOffset dx="0.80000000000000004" dy="0.80000000000000004" result="offset"/><feComposite in="SourceGraphic" in2="offset" result="fbSourceGraphic"/><feColorMatrix in="fbSourceGraphic" result="fbSourceGraphicAlpha" values="0 0 0 -1 0 0 0 0 -1 0 0 0 0 -1 0 0 0 0 1 0"/><feFlood flood-color="rgb(0,0,0)" flood-opacity=".4" in="fbSourceGraphic" result="flood"/><feComposite in="flood" in2="fbSourceGraphic" operator="in" result="composite1"/><feGaussianBlur in="composite1" result="blur" stdDeviation="3.8"/><feOffset dx="2.3" dy="3.3" result="offset"/><feComposite in="fbSourceGraphic" in2="offset" result="composite2"/></filter><filter id="filter1912" color-interpolation-filters="sRGB"><feFlood flood-color="rgb(0,0,0)" flood-opacity=".37255" result="flood"/><feComposite in="flood" in2="SourceGraphic" operator="out" result="composite1"/><feGaussianBlur in="composite1" result="blur" stdDeviation="2.9"/><feOffset dx="0.4" dy="1.7" result="offset"/><feComposite in="offset" in2="SourceGraphic" operator="atop" result="composite2"/></filter><filter id="filter2268" color-interpolation-filters="sRGB"><feFlood flood-color="rgb(0,0,0)" flood-opacity=".37255" result="flood"/><feComposite in="flood" in2="SourceGraphic" operator="in" result="composite1"/><feGaussianBlur in="composite1" result="blur" stdDeviation="0.6"/><feOffset dx="0.1" dy="0.4" result="offset"/><feComposite in="SourceGraphic" in2="offset" result="composite2"/></filter><filter id="filter2567" color-interpolation-filters="sRGB"><feFlood flood-color="rgb(0,0,0)" flood-opacity=".27451" result="flood"/><feComposite in="flood" in2="SourceGraphic" operator="in" result="composite1"/><feGaussianBlur in="composite1" result="blur" stdDeviation="3"/><feOffset dx="0.3" dy="2.8" result="offset"/><feComposite in="SourceGraphic" in2="offset" result="composite2"/></filter><linearGradient id="linearGradient7445" x1="-886.23" x2="-869.87" y1="206.65" y2="21.739" gradientTransform="matrix(.93079 0 0 .93669 929.79 -97.911)" gradientUnits="userSpaceOnUse"><stop stop-color="#206ee7" offset="0"/><stop stop-color="#19a3ed" offset="1"/></linearGradient><radialGradient id="radialGradient7495" cx="108.15" cy="95.832" r="93.079" gradientTransform="matrix(.75222 .41809 -.49287 .88677 84.686 -150.46)" gradientUnits="userSpaceOnUse"><stop stop-color="#22a8f1" offset="0"/><stop stop-color="#1f94ee" stop-opacity="0" offset="1"/></radialGradient><filter id="filter8059" color-interpolation-filters="sRGB"><feFlood flood-color="rgb(0,0,0)" flood-opacity=".27451" result="flood"/><feComposite in="flood" in2="SourceGraphic" operator="in" result="composite1"/><feGaussianBlur in="composite1" result="blur" stdDeviation="1"/><feOffset dx="0" dy="0.9" result="offset"/><feComposite in="SourceGraphic" in2="offset" result="composite2"/></filter><radialGradient id="radialGradient8200" cx="109.35" cy="13.759" r="93.079" gradientTransform="matrix(-.018216 1.0922 -1.042 -.017649 136.95 -115.33)" gradientUnits="userSpaceOnUse"><stop stop-color="#000000" stop-opacity="0" offset="0"/><stop stop-color="#5488d6" stop-opacity="0" offset=".9625"/><stop stop-color="#5d96eb" offset="1"/></radialGradient></defs><rect id="white-box" transform="matrix(.56938 0 0 .56921 -7.3377 65.687)" x="22" y="-106.53" width="220" height="220" ry="49" fill="url(#linearGradient855)" fill-rule="evenodd" filter="url(#filter2567)" stroke-width="1.7566"/><g id="blue-circle-with-sheen" transform="matrix(.58082 0 0 .57636 -1.9016 59.555)" stroke-width="1.7284"><ellipse id="blue-circle" cx="120" cy="14.153" rx="93.079" ry="93.669" fill="url(#linearGradient7445)" filter="url(#filter1912)" style="paint-order:stroke fill markers"/><ellipse id="blue-circle-sheen" cx="120.31" cy="16.025" rx="93.079" ry="93.669" fill="url(#radialGradient7495)" stroke-width="1.7284"/><ellipse id="bottom-sheen" cx="120" cy="14.153" rx="93.079" ry="93.669" fill="url(#radialGradient8200)"/></g><g id="red-compass" transform="matrix(.58289 0 0 .56508 2.5962 -8.4388)" fill-rule="evenodd" filter="url(#filter1648)" stroke-width="1.7424"><path d="m46.006 191.66 0.75536 0.24111 72.145-48.09-7.3415-8.9474z" fill="#cac7c8"/><path d="m45.616 191.06 0.39011 0.60124 65.559-56.793-6.9426-8.9175z" fill="#fbfffc"/><path d="m118.91 143.81-7.3463-8.9473 66.08-57.195 0.20803 0.68452z" fill="#c72e24"/><path d="m104.62 125.95 6.9431 8.9168 66.077-57.198-0.57862-0.46863z" fill="#fb645c"/></g><g id="points" transform="matrix(.57695 0 0 .57695 -2.1614 -.89022)" filter="url(#filter8059)" stroke-width="1.7333"><g id="tick2" transform="translate(10.691,10.646)" filter="url(#filter2268)"><path id="tick-small" d="m117.92 23.177-0.66371 6.7456" fill="#fbfffc" fill-rule="evenodd" stroke="#ffffff" stroke-linecap="round" stroke-width="2.0637"/><path id="tick-big" d="m110.45 22.899v13.712" fill="#fbfffc" fill-rule="evenodd" stroke="#fbfbfb" stroke-linecap="round" stroke-width="2.293"/></g><use transform="rotate(170 121.03 119.03)" width="100%" height="100%" xlink:href="#tick2"/><use transform="rotate(50 104.41 124.84)" width="100%" height="100%" xlink:href="#tick-small"/><use transform="rotate(150 121.07 119.04)" width="100%" height="100%" xlink:href="#tick2"/><use transform="rotate(80 121.13 119.11)" width="100%" height="100%" xlink:href="#tick2"/><use transform="rotate(100 121.13 119.12)" width="100%" height="100%" xlink:href="#tick2"/><use transform="rotate(130 121.12 119.06)" width="100%" height="100%" xlink:href="#tick2"/><use transform="rotate(120 121.13 119.08)" width="100%" height="100%" xlink:href="#tick2"/><use transform="rotate(110 121.13 119.11)" width="100%" height="100%" xlink:href="#tick2"/><use transform="rotate(90 121.13 119.09)" width="100%" height="100%" xlink:href="#tick2"/><use transform="rotate(180 121.15 119.09)" width="100%" height="100%" xlink:href="#tick2"/><use transform="rotate(160 121.04 119.06)" width="100%" height="100%" xlink:href="#tick2"/><use transform="rotate(70 121.17 119.16)" width="100%" height="100%" xlink:href="#tick2"/><use transform="rotate(60 121.24 119.21)" width="100%" height="100%" xlink:href="#tick2"/><use transform="rotate(190 121.02 118.97)" width="100%" height="100%" xlink:href="#tick2"/><use transform="rotate(10 120.8 118.84)" width="100%" height="100%" xlink:href="#tick2"/><use transform="rotate(200 121.01 118.94)" width="100%" height="100%" xlink:href="#tick2"/><use transform="rotate(210 121 118.91)" width="100%" height="100%" stroke-width="1.7333" xlink:href="#tick2"/><use transform="rotate(220 121 118.88)" width="100%" height="100%" xlink:href="#tick2"/><g transform="translate(-.45859)"><use transform="rotate(20 121.51 120.91)" width="100%" height="100%" xlink:href="#tick2"/><use transform="rotate(30 121.34 120.26)" width="100%" height="100%" xlink:href="#tick2"/><use transform="rotate(40 121.26 119.93)" width="100%" height="100%" xlink:href="#tick2"/></g><g transform="translate(-.45859 .45859)"><use transform="rotate(-30 120.52 117.67)" width="100%" height="100%" xlink:href="#tick2"/><use transform="rotate(-80 120.73 118.57)" width="100%" height="100%" xlink:href="#tick2"/><use transform="rotate(-50 120.62 118.17)" width="100%" height="100%" xlink:href="#tick2"/><use transform="rotate(-60 120.68 118.33)" width="100%" height="100%" xlink:href="#tick2"/><use transform="rotate(-70 120.72 118.46)" width="100%" height="100%" xlink:href="#tick2"/><use transform="rotate(-20 120.55 117.1)" width="100%" height="100%" xlink:href="#tick2"/><use transform="rotate(-10 120.06 115.16)" width="100%" height="100%" xlink:href="#tick2"/><g transform="translate(.91718)"><use transform="rotate(230 117.99 111.12)" width="100%" height="100%" xlink:href="#tick-small"/><use transform="rotate(260 120.71 118.72)" width="100%" height="100%" xlink:href="#tick2"/><use transform="rotate(-90 120.92 118.88)" width="100%" height="100%" xlink:href="#tick2"/><use transform="rotate(250 120.74 118.75)" width="100%" height="100%" xlink:href="#tick2"/><use transform="rotate(240 120.76 118.77)" width="100%" height="100%" xlink:href="#tick2"/></g><use transform="rotate(-40 120.66 118.01)" width="100%" height="100%" xlink:href="#tick2"/></g><use transform="rotate(140 121.08 119.08)" width="100%" height="100%" xlink:href="#tick2"/></g></svg>
