<svg xmlns="http://www.w3.org/2000/svg" fill="#fff" viewBox="-1 -1 1843 1849"><path fill="#8d89f7" d="M1073 0H728l1112 1115V769c0-458-310-769-768-769z"/><path fill="#706cf5" d="M768 1848h305c446 0 752-296 768-734L728 0C293 18 0 314 0 758v332c0 458 310 759 768 759z"/><path d="M1188 1330a482 482 0 0 1-700-189c-40-20-77-43-110-65a563 563 0 0 0 938 250c-40 4-83 5-128 3zm-740-304c-33-20-63-40-89-61-97-77-147-158-128-226 18-69 102-113 224-130a563 563 0 0 1 1028 280c97 77 147 157 128 226-18 68-102 112-225 130-33 4-70 7-108 8-124 2-274-18-430-60a1598 1598 0 0 1-400-167zm893 141a480 480 0 0 0 64-239v-3a484 484 0 1 0-968 0 1513 1513 0 0 0 430 182c181 50 351 70 474 60zm96-16c49-14 80-37 89-67 8-31-8-67-44-105l-1 7a555 555 0 0 1-44 165zM410 690l4-9c-57 14-94 38-103 72-9 33 10 71 51 112 7-62 23-120 48-175zm1137-336l28 28-124 124-28-28 124-125z"/><path d="M1606 412l-23 22-88-88 23-22 88 88zm-171-170l20 20 8 8 45 44-23 23-44-44-30 30 39 37-23 22-38-38-27 26 44 45-22 23-53-53-20-20 124-124zm200 200l10 10 20 18-89 161-28-28 22-33-32-32-32 20-28-27 159-90zm-8 38l-64 41 23 23 40-64zm-288-334l29 28 17 18a48 48 0 0 1 0 67 48 48 0 0 1-44 13 46 46 0 0 1-76 48l-22-21-28-28 124-125zm-59 144c9 10 24 10 33 0 10-10 10-24 0-34l-13-13-33 34 12 13zm49-54c8 8 22 8 30 0 9-9 9-22 0-30l-10-11-30 30 10 10z"/></svg>