<svg viewBox="0 3 250 250" xmlns="http://www.w3.org/2000/svg" xmlns:xlink="http://www.w3.org/1999/xlink"><linearGradient id="a" gradientTransform="matrix(1 0 0 -1 -256 -90)" gradientUnits="userSpaceOnUse" x1="324.57" x2="427.24" y1="-144.04" y2="-261.37"><stop offset="0" stop-color="#ded9d9"/><stop offset="1" stop-color="#6a6363"/></linearGradient><radialGradient id="b" cx="351.82" cy="-188.48" gradientTransform="matrix(1 0 0 -1 -256 -90)" gradientUnits="userSpaceOnUse" r="175.05"><stop offset=".08" stop-color="#8ddb92"/><stop offset=".16" stop-color="#77ce7c"/><stop offset=".34" stop-color="#3eab45"/><stop offset=".5" stop-color="#078a0f"/><stop offset=".58" stop-color="#108c18"/><stop offset=".71" stop-color="#28922f"/><stop offset=".71" stop-color="#299230"/></radialGradient><radialGradient id="c" cx="386.73" cy="-214.62" gradientTransform="matrix(1 0 0 -1 -256 -90)" gradientUnits="userSpaceOnUse" r="116.24"><stop offset=".62" stop-color="#f60000"/><stop offset=".72" stop-color="#e70505"/><stop offset=".92" stop-color="#c41212"/><stop offset="1" stop-color="#dd7878"/></radialGradient><radialGradient id="d" cx="383.82" cy="-189.31" gradientTransform="matrix(1 0 0 -1 -256 -90)" gradientUnits="userSpaceOnUse" r="52.11"><stop offset="0" stop-color="#b1ddf4"/><stop offset=".07" stop-color="#a9d7f3"/><stop offset=".19" stop-color="#93c7f1"/><stop offset=".33" stop-color="#6eadee"/><stop offset=".4" stop-color="#5b9fec"/><stop offset=".53" stop-color="#0b85d1"/><stop offset=".62" stop-color="#1375b3"/><stop offset=".65" stop-color="#166fa8"/><stop offset=".72" stop-color="#1e608b"/><stop offset=".8" stop-color="#2b475c"/><stop offset=".84" stop-color="#33383f"/><stop offset="1" stop-color="#363233"/></radialGradient><linearGradient id="e"><stop offset="0" stop-color="#fff"/><stop offset="1" stop-color="#fff" stop-opacity=".53"/></linearGradient><linearGradient id="f" gradientTransform="matrix(1 0 0 -1 -256 -90)" gradientUnits="userSpaceOnUse" x1="287.08" x2="311.81" xlink:href="#e" y1="-168.97" y2="-301.85"/><linearGradient id="g" gradientTransform="matrix(1 0 0 -1 -256 -90)" gradientUnits="userSpaceOnUse" x1="303.56" x2="321.56" y1="-153.93" y2="-194.6"><stop offset="0" stop-color="#fff"/><stop offset=".52" stop-color="#fff" stop-opacity=".53"/></linearGradient><linearGradient id="h" gradientTransform="matrix(1 0 0 -1 -256 -90)" gradientUnits="userSpaceOnUse" x1="329.19" x2="329.19" xlink:href="#e" y1="-367.65" y2="-263.65"/><linearGradient id="i"><stop offset="0" stop-color="#fff" stop-opacity=".7"/><stop offset="1" stop-color="#fff" stop-opacity="0"/></linearGradient><linearGradient id="j" gradientTransform="matrix(1 0 0 -1 -256 -90)" gradientUnits="userSpaceOnUse" x1="365.09" x2="436.27" xlink:href="#i" y1="-116.29" y2="-153.54"/><linearGradient id="k" gradientTransform="matrix(1 0 0 -1 -256 -90)" gradientUnits="userSpaceOnUse" x1="279.06" x2="299.79" xlink:href="#i" y1="-183.9" y2="-194.75"/><linearGradient id="l" gradientTransform="matrix(1 0 0 -1 -256 -90)" gradientUnits="userSpaceOnUse" x1="357.25" x2="356.91" xlink:href="#i" y1="-164.5" y2="-217.65"/><linearGradient id="m" gradientTransform="matrix(1 0 0 -1 -256 -90)" gradientUnits="userSpaceOnUse" x1="360.13" x2="382" xlink:href="#i" y1="-174.23" y2="-168.76"/><radialGradient id="n" cx="384.83" cy="-208.98" gradientTransform="matrix(1 0 0 -1 -256 -90)" gradientUnits="userSpaceOnUse" r="125.99"><stop offset=".18" stop-color="#ffe650"/><stop offset=".7" stop-color="#ffdb00"/><stop offset="1" stop-color="#d5b319"/></radialGradient><linearGradient id="o" gradientTransform="matrix(1 0 0 -1 -256 -90)" gradientUnits="userSpaceOnUse" x1="428.92" x2="428.92" xlink:href="#e" y1="-367.64" y2="-263.65"/><linearGradient id="p" gradientTransform="matrix(1 0 0 -1 -256 -90)" gradientUnits="userSpaceOnUse" x1="341.97" x2="410.49" y1="-167.77" y2="-167.17"><stop offset="0" stop-color="#29506b"/><stop offset=".07" stop-color="#304d68"/><stop offset=".16" stop-color="#424560"/><stop offset=".28" stop-color="#613854"/><stop offset=".3" stop-color="#673551"/><stop offset=".55" stop-color="#4d7ebe"/><stop offset=".75" stop-color="#633753"/><stop offset="1" stop-color="#29506b"/></linearGradient><linearGradient id="q" gradientTransform="matrix(1 0 0 -1 -256 -90)" gradientUnits="userSpaceOnUse" x1="415.99" x2="402.32" y1="-229.4" y2="-172.4"><stop offset="0" stop-color="#343539"/><stop offset=".32" stop-color="#29506b"/><stop offset="1" stop-color="#c7dd85"/></linearGradient><linearGradient id="r" gradientTransform="matrix(1 0 0 -1 -256 -90)" gradientUnits="userSpaceOnUse" x1="363.08" x2="363.62" y1="-235.29" y2="-212.67"><stop offset="0" stop-color="#343539"/><stop offset=".32" stop-color="#29506b"/><stop offset="1" stop-color="#496d4e"/></linearGradient><linearGradient id="s"><stop offset="0" stop-color="#f4dd80"/><stop offset="1" stop-color="#f4dd80" stop-opacity=".3"/></linearGradient><linearGradient id="t" gradientTransform="matrix(1 0 0 -1 -256 -90)" gradientUnits="userSpaceOnUse" x1="492.7" x2="499.53" xlink:href="#s" y1="-215.04" y2="-223.54"/><linearGradient id="u" gradientTransform="matrix(1 0 0 -1 -256 -90)" gradientUnits="userSpaceOnUse" x1="491.78" x2="467.19" xlink:href="#s" y1="-206.56" y2="-274.99"/><linearGradient id="v" gradientTransform="matrix(1 0 0 -1 -256 -90)" gradientUnits="userSpaceOnUse" x1="440.09" x2="445.42" xlink:href="#s" y1="-293" y2="-309.92"/><linearGradient id="w" gradientTransform="matrix(1 0 0 -1 -256 -90)" gradientUnits="userSpaceOnUse" x1="414.53" x2="426.15" xlink:href="#s" y1="-303.73" y2="-323.94"/><circle cx="128.07" cy="126.26" fill="#4e4a4a" r="109"/><path d="m67.24 45.8s-8.16 4.93-5.3 15.68 8.16 16.75 12.26 21.88 8.3 12.54 7.63 17.62-2.38 25.42 10.75 38.65c13.12 13.22 22.87 13.6 22.87 13.6l-3.25 2.37-40.6 33.25 11.48 16.78 27.84 23.83-19.83-3.67-1.5 5.2 28.9.4-12-19.5-20.49-18.89s-3.6-3.8 3.6-9.05 42.2-32 42.2-32l38.83-57.6s3.1.13 9 .5 51.53 20.76 51.53 20.76-.8-15.4-1.57-22.7c-.4-3 .9-2.7 2.8 1.7 1.8 4.4.7 12 .7 12l-1.09-17.31-6.92-9.34-1.75 8s1.38 8.13 1.75 11.13-1 4-5.38 2-18.87-6.8-28.5-8-24.37-1.9-24.37-1.9l-75 1-4 2.9s.94-3.5-3.06-10.1-17.53-39.2-17.53-39.2z" fill="url(#a)"/><path d="m74.8 89.32s4.56 8.1 4.1 14.47c-.45 5.9-.83 31.1 23.18 45.5 6.23 3.7 11.6 5.1 11.6 5.1l.56 2.3-13.98 1.1-35.18-35 .37-28.3 5.13-5.5 2.75-.66 1.47.72z" fill="#007a3f"/><path d="m99.4 231.06s11.5 1 16.26.5 23.58 5.5 23.58 5.5-2.75 4.14-8.67 5.1c-5.9 1-36.58-7.5-36.58-7.5l5.4-3.6z" fill="#005a2b"/><path d="m114.24 156.8s-36.74 26.42-41.66 35.85c-4.93 9.43 8.5 21.66 17.08 28.83s21.16 18.88 44.8 19.38c0 0-15.64 4.88-39.14-4.12s-49.75-59-49.75-59l68.66-20.9z" fill="#00663f"/><path d="m65.26 38.48-11.06 8.5-1.12-7 8.5-3.13z" fill="#262626"/><path d="m65.45 35.9s-5.92-2.46-10 1.9-6.04 22 11.8 40.5c0 0-12.6-16.98-12.26-30.5.3-13.5 10.8-9.07 10.8-9.07l-.4-2.83z" fill="#007a3f"/><path d="m122.2 241.1c-20.12-2.12-38-19.12-45-26.5s-16.25-15.25-4.62-26.75 41.66-31.04 41.66-31.04c-22.2-5.4-38.66-25.7-38.66-49.6 0-4.2.7-7.8 1.1-11.7.23-2.5-1.98-7.8-8.85-16.1s-13.28-19.21-14.57-29.21c-1.43-11.2 6.27-14.7 6.27-14.7-6.53.26-17.95 11.5-17.95 11.5-33.75 31.77-45.68 84.7-22.34 130.7s66.34 61.15 86.84 64.8c20.5 3.67 28.37-1.6 28.37-1.6-3.75 1.04-12.25.23-12.25.23z" fill="url(#b)"/><path d="m238.14 114.57c5.4 3.64 6.94 4.4 5.44-10.6s-15.13-36.5-15.13-36.5l.03.16c4.2 7.84 11.63 23.35 12.93 37.2 1 10.55.4 11.76-3.2 9.74z" fill="#af8513"/><path d="m231.07 82.6 2 38.75h13.25s4.5-25.25-21.25-58.25z" fill="#591f00"/><path d="m81.9 83.54 2.86 1.5s15.98-21.9 37.48-23.73c21.5-1.8 38.5 10.9 44.17 17s8.5 8.9 16.9 8.9 36.2 4.5 46.2 9l6.1-2.3-30.1-28.5-102.21-25.41z" fill="#8f0404"/><path d="m81.9 83.54s8.8-17.8 29.17-24.06 42.26-3.25 59.38 17.37l1.75 1.88s2.88 3.18 11.06 3.5c8.2.3 34.32 4.08 44.98 9.33l5.04 2.16s3.54 1.62 2.88-2.8-3.93-24.37-21.6-42.96c-21.82-23-57.24-36-84.24-35.75s-47.58 6.79-64.9 17.49c0 0-.85 10.75.9 17.75s10.1 25.17 14.1 31.17c0 0 1.58 2.3 1.47 4.97z" fill="url(#c)"/><ellipse cx="128.07" cy="110.79" fill="url(#d)" rx="46.25" ry="42.75"/><path d="m51.5 45.8s-32.68 37.36-32.35 78.2c.33 40.23 19.92 62 40.17 76.67 18.4 13.32 5.66 14.16-3.5 6.66 0 0-51.02-35.1-38.67-99.32 6.67-34.71 34.35-62.21 34.35-62.21z" fill="url(#f)" opacity=".32"/><path d="m64.06 76.1s-3.5 1.44-6.82-2.25-8.7 1.88-11.25 3-5.5-1.93-5.4-4.43-1-8.7 2.8-13.25 8.9-8.63 8.9-8.63-.89 11.26 11.71 25.56z" fill="url(#g)" opacity=".5"/><path d="m11.93 159.47c1.87 6.13 4.3 12.2 7.3 18.18 23.34 46 66.34 61.16 86.84 64.83s28.38-1.62 28.38-1.62c-3.75 1.07-12.25.25-12.25.25-16.38-1.8-33.3-14.3-40.3-21.7 0 0 4.76 4.2 0 0-32.35-2.2-58.97-44.9-69.97-59.9z" fill="url(#h)" opacity=".3"/><path d="m71.35 57.35s4-6 .87-12.06c-2.15-4.2-5.5-4.5-6.5-3.7 0 0 1 10.2 5.63 15.7m7.8-16.1s6.1-4.3 8.26-6.2c2.2-1.9.5-5.4-1.9-5.1s-7.5 1.7-10.6 5c-2.5 2.6-2.2 5.6-.5 6.9s3.9 0 4.8-.6z" fill="#fff" opacity=".5"/><path d="m183.5 38.48c-56.76-41.5-118.25-.28-118.25-.28s52.74-50.22 130.5-.72l-12.26 1z" fill="url(#j)" opacity=".32"/><path d="m54.95 38.07c-.02-.48-.67-.2-.67-.2-66.62 51.6-39.93 124.17-39.93 124.17-17.2-83.8 40.15-123.3 40.15-123.3s.47-.2.45-.67z" fill="url(#k)" opacity=".6"/><path d="m109.5 79.23s-14 11.62-11.38 38.75c0 0-.7 3.7-3.75-1.13s-3.5-31.25 15.12-37.62z" fill="url(#l)" opacity=".6"/><path d="m128.12 75.85s-13.63 3.38-18.07 9.25-6.16-.3-1.23-3.87 12.3-6.38 19.3-5.38z" fill="url(#m)" opacity=".6"/><path d="m179.12 91.85-1.63 3s9.3 27.96-6.1 47.13l2.5.35 11-21 1-21.67-6.8-7.8z" fill="#af8513"/><path d="m129.4 159.23-43.33 33.92s-10.25 7.16-3.58 14.4c6.6 7.26 29.3 31.68 56 33.93s71-19 91-50 32.5-85.5-4-129c0 0 14 22.83 15.8 42.33s-1.9 7.2-19.9 1.4-30.3-8.7-34.8-10.2-7.1-3.5-7.7-4c0 0 7.2 22.3-.4 37.8-9.5 19.4-24 27.8-49.3 29.5z" fill="url(#n)"/><path d="m103.17 164.26c6.38-4.4 11.07-7.45 11.07-7.45-22.2-5.4-38.67-25.7-38.67-49.6 0-4.2.72-7.8 1.1-11.7.17-1.8-.96-5.1-4.23-10a60.84 60.84 0 0 0 -4.77 23.6c0 24.5 14.53 45.6 35.5 55.3zm81.33-81.96a61.57 61.57 0 0 0 -55.33-34.32 61.62 61.62 0 0 0 -50.97 26.86c.8 1.5 1.56 2.76 2.2 3.72 0 0 1.56 2.23 1.48 4.98 0 0 8.8-17.8 29.18-24.06s42.25-3.25 59.37 17.37l1.75 1.87s2.87 3.18 11.06 3.5c.37 0 .78.03 1.22.06zm-5.42 9.62s7.22 22.3-.38 37.8c-9.5 19.38-23.96 27.76-49.3 29.5l-12.23 9.6c3.88.75 7.9 1.16 12 1.16 33.97 0 61.5-27.32 61.5-61 0-4.18-.42-8.25-1.23-12.2-1.08-.3-2-.57-2.7-.8-4.5-1.5-7.04-3.5-7.67-4.08z" fill="#fff" opacity=".64"/><path d="m229.57 191.48a124.12 124.12 0 0 0 16.2-38.6c-15.18 29.15-45.02 66.42-99.76 72.77-17.1 2-32.4 1.15-45.9-1.52 10.3 8.13 23.8 16.1 38.5 17.35 26.8 2.25 71-19 91-50z" fill="url(#o)" opacity=".3"/><path d="m89.58 87.1c.75-.35 4.36-2.2 19.4-11.93 17.68-11.42 24.85-1.34 31.68.66s10.58-2 10.58-2l-.26-.17a48.95 48.95 0 0 0 -22.9-5.62c-16.06 0-30.2 7.57-38.5 19.05z" fill="url(#p)"/><path d="m128 69.2c25.18 0 45.65 19.32 46.22 42.47 0-.34.03-.67.03-1 0-23.6-20.7-42.75-46.25-42.75s-46.25 19.14-46.25 42.75l.02 1c.58-23.15 21.05-42.47 46.23-42.47z" fill="#fff" opacity=".15"/><path d="m155.7 86.48s14 17.5 3.32 32c-10.67 14.5-15.5 18.83-16.17 23.67 0 0 30-9.17 28.5-25.5-1.5-16.34-4.83-22.67-15.66-30.17" fill="url(#q)" opacity=".6"/><path d="m84.86 98.98s1.13 19.75 6.38 23.75c0 0 8.2 20.16 39.54 18.32l-3.04 5.68s-23.75 6.25-33.88-9.13-10.13-25-9-38.63z" fill="url(#r)"/><path d="m247.03 140.17s-3.25-14.64-12.47-14.24l.1-1.4s9.62-.74 12.37 15.64z" fill="url(#t)"/><path d="m234.56 125.93h1.16c-.78 11.22-6.83 50.2-35.23 68.22 0 0 30.2-20.97 34-68.22z" fill="url(#u)"/><path d="m188.9 226.06s3.6-9-7.66-19.75c0 0 31.25-18 41.1-39.3 9.82-21.3 11.15-38 10.82-43.6 0 0 11.75-1.9 14 16.5 0 0-2.38-14.4-12.5-15.2 0 0-1.46 25.1-12.13 44.6-9.37 17.1-24.75 27.4-39 37.5 0 0 9.63 10.9 5.38 19.5z" fill="#d1ab1a"/><path d="m184.6 205.82s8.62 10.53 4.97 18.72c0 0 2.78-6.7-6.07-17.94z" fill="url(#v)"/><path d="m157.03 236.6s-5.62-10-6.62-14.62c0 0 16.3-4 22.2-6.88 0 0 4.2 4.75 7 14.5 0 0 .2-9.25-6.8-16.5l-24.8 7.75s5.8 12.37 9.2 15.75z" fill="url(#w)"/><path d="m158.24 238.06s-7.75-6-11.4-18.08c0 0 15.65-3 25.9-7.83 0 0 8.25 7.75 7.25 19.92 0 0-.5-10.9-7.4-18.33 0 0-16.3 6.5-23.8 7.42 0 0 2.4 8.84 9.3 16.92z" fill="#d1ab1a"/></svg>