<svg xmlns="http://www.w3.org/2000/svg" viewBox="0 0 514 514"><defs><style>.cls-1{fill:#4285f4;}.cls-2{fill:#fbbc05;}.cls-3,.cls-6{fill:none;stroke-miterlimit:10;}.cls-3{stroke:#fff;stroke-width:20px;}.cls-4{fill:#34a853;}.cls-5{fill:#fff;}.cls-6{stroke:#000;}</style></defs><title>Asset 1</title><g id="Layer_2" data-name="Layer 2"><g id="Layer_1-2" data-name="Layer 1"><circle class="cls-1" cx="257" cy="257" r="257"/><path class="cls-2" d="M468.32,110.73,323,213.67s27,41.33,0,84.67L468.32,403.27a257,257,0,0,0,0-292.55"/><line class="cls-3" x1="323" y1="213.67" x2="468.32" y2="110.73"/><line class="cls-3" x1="323" y1="298.33" x2="468.32" y2="403.27"/><path class="cls-4" d="M257,355.08A98.08,98.08,0,1,1,355.08,257,98.2,98.2,0,0,1,257,355.08Z"/><path class="cls-5" d="M257,168.91A88.09,88.09,0,1,1,168.91,257,88.18,88.18,0,0,1,257,168.91m0-20A108.09,108.09,0,1,0,365.09,257,108.09,108.09,0,0,0,257,148.91Z"/><path class="cls-6" d="M343.67,123.33"/></g></g></svg>