<svg xmlns="http://www.w3.org/2000/svg" viewBox="0 0 5120 5120"><linearGradient id="a" x2="0" y2="100%"><stop offset="0" stop-color="#19d7ff"/><stop offset="1" stop-color="#1e64f0"/></linearGradient><g fill="#fff" transform="scale(10)"><rect width="513" height="512" rx="105"/><circle cx="256" cy="256" r="224" fill="url(#a)"/><path fill="red" d="M409 102L237 237l40 40z"/><path d="M102 409l135-172 40 40z"/></g><path stroke="#fff" stroke-width="30" d="M2560 540v330m0 3370v330m350-4000l-57 325m-586 3318l-57 327M3250 662l-113 310M1984 4138l-113 310m339-3878l57 325m586 3318l57 327M1870 662l113 310m1152 3166l113 310M1552 810l166 286m1685 2918l165 286M1265 1010l212 253m2166 2582l212 253M1015 1258l253 212m2582 2168l253 212M813 1548l286 165m2920 1685l286 165M665 1866l310 113m3166 1150l310 113M574 2202l326 58m3320 588l325 57M545 2555h330m3370 0h330M575 2905l325-57m3320-586l325-57M668 3245l310-113m3165-1152l310-113M815 3563l286-165m2920-1685l286-165M1016 3850l253-212m2580-2166l253-212M1262 4100l212-253m2166-2582l212-253M1552 4300l166-286m1685-2918l165-286M2384 548l16 180m320 3656l16 180M2038 610l47 174m950 3544l47 174M1708 730l76 163m1550 3326l77 163M1404 904l103 148m2106 3006l103 148M1135 1130l127 127m2596 2596l127 127M910 1400l148 103m3006 2107l146 100M734 1703l163 76m3326 1550l163 77M614 2033l174 47m3544 950l174 47M553 2380l180 16m3656 320l180 16m-4014 0l180-16m3656-320l180-16M614 3077l174-47m3544-950l174-47M734 3407l163-76m3326-1550l163-76M910 3710l148-103m3006-2107l146-100M1404 4206l103-148m2105-3006l104-148M1708 4380l77-163M3335 890l77-163M2038 4500l47-174m950-3544l47-174m-698 3952l16-180m320-3656l16-180"/></svg>