<svg xmlns="http://www.w3.org/2000/svg" viewBox="0 0 512 512"><linearGradient id="a" x2="0" y2="100%"><stop offset="0" stop-color="#19d7ff"/><stop offset="1" stop-color="#1e64f0"/></linearGradient><g fill="#fff"><rect width="513" height="512" rx="105"/><circle cx="256" cy="256" r="224" fill="url(#a)"/><path fill="red" d="M409 102L237 237l40 40z"/><path d="M102 409l135-172 40 40z"/></g><path stroke="#fff" stroke-width="3" d="M256 54v33m0 337v33m35-400l-5.7 32.5m-58.6 331.8L221 454M325 66.2l-11.3 31M198.4 413.8l-11.3 31M221 57l5.7 32.5m58.6 331.8L291 454M187 66.2l11.3 31m115.2 316.6l11.3 31M155.2 81l16.6 28.6m168.5 291.8l16.5 28.6M126.5 101l21.2 25.3m216.6 258.2l21.2 25.3m-284-284l25.3 21.2M385 363.8l25.3 21.2m-329-230.2l28.6 16.5m292 168.5l28.6 16.5m-364-169.7l31 11.3m316.6 115l31 11.3m-387.7-104L90 226m332 58.8l32.5 5.7m-400-35h33m337 0h33m-400 35l32.5-5.7m332-58.6l32.5-5.7m-387.7 104l31-11.3M414.3 198l31-11.3M81.5 356.3l28.6-16.5m292-168.5l28.6-16.5M101.6 385l25.3-21.2m258-216.6l25.3-21.2m-284 284l21.2-25.3M364 126.5l21.2-25.3M155.2 430l16.6-28.6m168.5-291.8L356.8 81M238.4 54.8l1.6 18m32 365.6l1.6 18M203.8 61l4.7 17.4m95 354.4l4.7 17.4M170.8 73l7.6 16.3m155 332.6l7.7 16.3M140.4 90.4l10.3 14.8m210.6 300.6l10.3 14.8M113.5 113l12.7 12.7m259.6 259.6l12.7 12.7M91 140l14.8 10.3M406.4 361l14.6 10M73.4 170.3l16.3 7.6m332.6 155l16.3 7.7M61.4 203.3l17.4 4.7m354.4 95l17.4 4.7M55.3 238l18 1.6m365.6 32l18 1.6m-401.4 0l18-1.6m365.6-32l18-1.6M61.4 307.7l17.4-4.7m354.4-95l17.4-4.7M73.4 340.7l16.3-7.6m332.6-155l16.3-7.6M91 371l14.8-10.3M406.4 150l14.6-10M140.4 420.6l10.3-14.8m210.5-300.6l10.4-14.8M170.8 438l7.7-16.3M333.5 89l7.7-16.3M203.8 450l4.7-17.4m95-354.4l4.7-17.4M238.4 456l1.6-18m32-365.6l1.6-18"/></svg>