<svg viewBox="-1.1 -1 49.5 49.5" xmlns="http://www.w3.org/2000/svg" xmlns:xlink="http://www.w3.org/1999/xlink"><linearGradient id="a" gradientTransform="matrix(1.1627 .32854 -.32854 1.1627 325.63 407.16)" gradientUnits="userSpaceOnUse" x1="13" x2="40" y1="11" y2="19"><stop offset="0" stop-color="#fff" stop-opacity=".6"/><stop offset="1" stop-color="#4e9a06" stop-opacity="0"/></linearGradient><linearGradient id="b" gradientTransform="matrix(1.1627 .32854 -.32854 1.1627 327.75 406.93)" gradientUnits="userSpaceOnUse" x1="33" x2="4" y1="33" y2="5"><stop offset="0" stop-color="#41a100"/><stop offset="1" stop-color="#fff" stop-opacity="0"/></linearGradient><g fill="#c5f199"><path d="m40.83 1.76c-5.5 3.07-26.98-.1-36.12 22.85-1.24 6.1-.6 14.45 5.28 14.8 1.2.1 2.3.9 2.88 1.86 3.74 6.1 9.13 5.56 11.37 2.65.43-.56 1.25-.4 1.83.05 6.74 5.18 11.27-3.03 13.57-9.46.9-2.83 5.52-24.9 3.7-27.25-.54-.7-2.9 1.33-4.98 3.5-16.5 17.33-27.46 4.4 1.9-8.53l.45-.52.3.13"/><path d="m18.2 43.5 3.95-13.96m-13.42 7.5 2.3-8.13m18.63 14.09 2.3-8.14" fill-rule="evenodd"/></g><g fill="#73d216"><path d="m41.55 10.82c-7 8.17-20.72 14.5-21.9 7.5-.56-3.44 3.5-8.16 10.52-12.82-8.07 2.28-22.7 9.4-23.87 20.68-1.7 4.34-.58 13.6 4.67 12.16 1.4-.38 3.12 1.23 3.5 2.66.8 3.04 6.58 3.85 8.26 2.53a4.52 4.52 0 0 1 4.68-.4c6.05 3.3 8.9-5.2 9.87-8.6 5.43-11.95 3.14-19.04 4.3-23.7z"/><path d="m29.66 42.96 2.3-8.14m-13.76 8.68 3.95-13.96m-13.42 7.5 2.3-8.13" fill-rule="evenodd"/></g><path d="m329.5 447.6c2.72-5.28 7.74-5.34 16.52-2.47 5.84 0 13.68-5.52 18.1-10.47 1 19.2-7.55 38.55-15.16 31.02-1.02-1-1.8.1-3.3.93-1.43.85-2.13.98-3.68.57-5.12.33-6.1-7.93-8.4-6.26-4.3 3.16-5.85-5.8-4.07-13.27z" fill="url(#b)" fill-rule="evenodd" transform="translate(-322.77 -423.39)"/><path d="m11.77 38.9c-.33-2.88-.7-8.3 1.82-11.43m10.9 3.18c-2.9 7.57-1.04 8.85.4 12.96l-.2-.6" fill="none" stroke="#c5f199" stroke-linecap="round" stroke-width="3.62"/><g fill="none" stroke="#204c00"><path d="m42.4 1.42c-5.6 1.04-31.85 4-37.68 23.5-1.7 6.6-.75 15.56 6.85 15.23.53-.02.6.15.78.6 3.13 7.4 10.82 6.06 12.55 3.16.25-.4-.37-.22 0 0 7.83 5.4 12.1-2.02 14.57-8.64 3.02-5.74 4.86-29.64 3.25-28.1-27.5 26.34-27.43 3.15-.32-5.7" stroke-linejoin="round"/><path d="m12.35 40.28c-1.98-9 .34-10.57 1.24-13m11.21 16.42c-2.57-5.42-2.14-9.9-.32-13.23" stroke-linecap="round" stroke-linejoin="bevel"/></g><path d="m351.92 429.6c.2-2.3-22.6 7.32-22.32 18.16 3.97-5.16 7.83-5.58 14.15-3 4.62 4.3-9.18-3.55 8.17-15.17z" fill="url(#a)" fill-rule="evenodd" transform="translate(-322.77 -423.39)"/></svg>