<svg viewBox="-4.27 -1.27 55.5 55.5" xmlns="http://www.w3.org/2000/svg" xmlns:xlink="http://www.w3.org/1999/xlink"><linearGradient id="a" gradientTransform="matrix(1 0 0 -1 0 58)" gradientUnits="userSpaceOnUse" x1="1.6" x2="23.76" y1="28.67" y2="28.67"><stop offset="0" stop-color="#fff"/><stop offset=".14" stop-color="#fff" stop-opacity=".96"/><stop offset="1" stop-color="#fff" stop-opacity=".7"/></linearGradient><path d="m45.3 17.4-1.6-4.3 1.1-2.5c.1-.3.1-.7-.2-.9l-3-3a4.9 4.9 0 0 0 -5-1.2l-.8.3-4.6-4.9h-7.8l-7.8.1-4.6 5-.8-.3c-1.6-.7-3.6-.2-4.9 1.1l-3 3.1c-.2.2-.2.5-.1.7l1.1 2.6-1.6 4.3 1 3.9 4.6 17.6c.5 2 1.8 3.8 3.5 5 0 0 5.6 4 11.2 7.6.5.3 1 .5 1.5.5s1.1-.2 1.5-.5c6.2-4.1 11.2-7.6 11.2-7.6 1.7-1.2 2.9-3 3.5-5l4.6-17.6z" fill="#ff5000"/><path d="m7.5 39.7-5.9-21.9 1.7-4.3-1.2-3.2 2.9-2.8c.9-.8 2.8-1.1 3.6-.6l4.5 2.6 5.8 1.3 4.5-1.9.4 38.8c-.1 5.6.3 5-3.8 2.4l-10.2-6.9c-1.1-1-1.9-2.2-2.3-3.5z" fill="url(#a)" opacity=".15"/><path d="m24.8 32.6c-.4-.2-.8-.3-.9-.3h-.6c-.1 0-.5.1-.9.3l-1.4.6c-.4.2-1.1.5-1.6.7l-2.5 1.3c-.4.2-.4.6-.1.9l2.2 1.6c.4.3 1 .8 1.4 1.1l.6.5c.4.3.9.8 1.3 1.1l.6.5c.4.3.9.3 1.3 0l.6-.5c.4-.3.9-.8 1.3-1.1l.6-.5c.4-.3 1-.8 1.4-1.1l2.2-1.6c.4-.3.4-.7-.1-.9l-2.5-1.3c-.4-.2-1.1-.5-1.6-.7z" fill="#fff"/><path d="m40.4 18.4.1-.2c0-.3 0-.7-.1-.9 0-.2-.6-1.1-.8-1.5l-1.4-2.1c-.3-.4-.7-1-1-1.4l-1.9-2.4c-.3-.4-.6-.7-.6-.7s-.4.1-.9.2l-2.9.6c-.5.1-1 .2-1.3.2s-.8 0-1.3-.2l-2.3-.8c-.5-.1-1.2-.4-1.7-.5h-1.4c-.5.1-1.2.3-1.7.5l-2.3.8c-.5.1-1 .2-1.3.2-.2 0-.8-.2-1.3-.2l-2.9-.6c-.5-.1-.8-.2-.9-.2 0 0-.3.3-.6.7l-1.9 2.3c-.3.4-.8 1-1 1.4l-1.4 2.1c-.3.4-.6.9-.7 1.1s-.2 1.1-.2 1.3l.1.2.1.4c.3.4.8 1 1.1 1.3l5 5.3c.3.3.4 1 .3 1.4l-.8 1.9c-.2.4-.2 1.2 0 1.6l.2.5c.3.7.7 1.4 1.3 1.9l.8.6c.4.3 1 .4 1.4.2l2.8-1.3c.4-.2 1.1-.6 1.4-.9l2.2-2c.4-.3.4-.9 0-1.3l-5.1-3.4c-.4-.3-.5-.8-.3-1.2l2-3.7c.2-.4.3-1.1.1-1.5s-.7-.8-1.1-1l-6.2-2.3c-.4-.2-.4-.3.1-.4l3.6-.3c.5 0 1.2 0 1.7.2l3.2.9c.5.1.8.6.7 1.1l-1.2 6.7c-.1.5-.1 1-.1 1.1.1.2.5.4.9.5l1.9.4c.5.1 1.2.1 1.7 0l1.7-.4c.5-.1.9-.3.9-.5s0-.7-.1-1.1l-1.2-6.8c-.1-.5.2-1 .7-1.1l3.1-.9c.5-.1 1.2-.2 1.7-.2l3.6.3c.5 0 .5.2.1.4l-6.2 2.3c-.4.2-.9.6-1.1 1s-.1 1 .1 1.5l2 3.7c.2.4.1 1-.3 1.2l-5 3.6c-.4.4-.3 1 0 1.3l2.2 2c.4.3 1 .7 1.4.9l2.8 1.3c.4.2 1.1.1 1.4-.2l.8-.6c.6-.5 1.1-1.1 1.3-1.9l.2-.5c.2-.4.1-1.2 0-1.6l-.8-1.9c-.2-.4-.1-1.1.3-1.4l5-5.3c.3-.3.8-.9 1.1-1.3.1 0 .1 0 .2-.4z" fill="#fff"/><path d="m36.2 43.9-8.6 5.9c-2.4 1.3-3.6 2.6-3.8 2-.2-.5 0-1.9-.1-4.2l-.1-38c0-.4.3-1 .7-.9l4.4 1.3 6.3-1 4.3-3c.5-.3 1.1-.3 1.5.1l3.7 3.6c.3.4.4 1.1.2 1.5l-1 1.9 1.7 4.5-5.9 22.1c-.9 2.6-2.2 3.3-3.3 4.2z" opacity=".07"/></svg>