<svg xmlns="http://www.w3.org/2000/svg" xmlns:xlink="http://www.w3.org/1999/xlink" viewBox="1 1 190 190"><clipPath id="c"><circle cx="96" cy="96" r="88"/></clipPath><linearGradient id="d" x1="110.87" x2="52.54" y1="164.5" y2="130.33" gradientUnits="userSpaceOnUse"><stop offset="0" stop-color="#1a237e" stop-opacity=".4"/><stop offset=".33" stop-color="#1a237e" stop-opacity="0"/></linearGradient><linearGradient id="e" x1="30.43" x2="86.54" y1="74.4" y2="41.61" gradientUnits="userSpaceOnUse"><stop offset="0" stop-color="#1a237e" stop-opacity=".2"/><stop offset=".66" stop-color="#1a237e" stop-opacity="0"/></linearGradient><linearGradient id="f" x1="118.57" x2="54.58" y1="169.11" y2="131.57" gradientUnits="userSpaceOnUse"><stop offset="0" stop-color="#1a237e" stop-opacity=".2"/><stop offset=".33" stop-color="#1a237e" stop-opacity="0"/></linearGradient><clipPath id="g"><path d="M8 184h83.77l38.88-38.88V116H61.36L8 24.48z"/></clipPath><linearGradient id="a"><stop offset="0" stop-color="#1a237e" stop-opacity=".3"/><stop offset=".66" stop-color="#1a237e" stop-opacity="0"/></linearGradient><linearGradient id="h" x1="121.86" x2="136.55" y1="49.8" y2="114.13" gradientUnits="userSpaceOnUse" xlink:href="#a"/><linearGradient id="i" x1="121.87" x2="136.29" y1="50.07" y2="113.01" gradientUnits="userSpaceOnUse" xlink:href="#a"/><clipPath id="j"><path d="M96 56l34.65 60-38.88 68H184V56z"/></clipPath><linearGradient id="k" x1="29.34" x2="81.84" y1="75.02" y2="44.35" gradientUnits="userSpaceOnUse"><stop offset="0" stop-color="#1a237e" stop-opacity=".6"/><stop offset=".66" stop-color="#1a237e" stop-opacity="0"/></linearGradient><linearGradient id="b"><stop offset="0" stop-color="#1a237e" stop-opacity=".2"/><stop offset="1" stop-color="#1a237e" stop-opacity="0"/></linearGradient><radialGradient id="l" cx="92.18" cy="55.95" r="84.08" gradientUnits="userSpaceOnUse" xlink:href="#b"/><clipPath id="n"><path d="M61.36 116L96 56h88V8H21.97v40.34"/></clipPath><linearGradient id="m" x1="8" x2="130.65" y1="104.24" y2="104.24" gradientUnits="userSpaceOnUse"><stop offset="0" stop-color="#f4b400" stop-opacity=".4"/><stop offset=".09" stop-color="#f2a700" stop-opacity=".3"/><stop offset=".22" stop-color="#f19800" stop-opacity=".13"/><stop offset=".33" stop-color="#f09300" stop-opacity="0"/></linearGradient><radialGradient id="o" cx="21.87" cy="48.52" r="78.04" gradientUnits="userSpaceOnUse" xlink:href="#b"/><radialGradient id="p" cx="95.84" cy="96.14" r="87.87" gradientUnits="userSpaceOnUse" xlink:href="#b"/><radialGradient id="q" cx="34.29" cy="32.01" r="176.75" gradientUnits="userSpaceOnUse"><stop offset="0" stop-color="#fff" stop-opacity=".1"/><stop offset="1" stop-color="#fff" stop-opacity="0"/></radialGradient><g clip-path="url(#c)"><path fill="#5e97f6" d="M8 184h83.77l38.88-38.88V116H61.36L8 24.48z"/><path fill="url(#d)" d="M8 184h83.77l38.88-38.88V116H61.36L8 24.48z"/></g><g clip-path="url(#c)"><path fill="#3367d6" d="M21.97 8v108h39.39L96 56h88V8z"/><path fill="url(#e)" d="M21.97 8v108h39.39L96 56h88V8z"/></g><path fill="#1a237e" fill-opacity=".15" d="M62.31 115.65L22.48 47.34l-.58 1 39.54 67.8z" clip-path="url(#c)"/><g clip-path="url(#c)"><path fill="#5e97f6" d="M8 184h83.77l38.88-38.88V116H61.36L8 24.48z"/><path fill="url(#f)" d="M8 184h83.77l38.88-38.88V116H61.36L8 24.48z"/></g><path fill="#1a237e" fill-opacity=".15" d="M129.84 117.33l-.83-.48L90.62 184h1.15l38.1-66.64z" clip-path="url(#c)"/><g clip-path="url(#c)"><g clip-path="url(#g)"><path fill="#a1c2fa" d="M96 56l34.65 60-38.88 68H184V56z"/><path fill="url(#h)" d="M96 56l34.65 60-38.88 68H184V56z"/></g></g><g clip-path="url(#c)"><path fill="#a1c2fa" d="M96 56l34.65 60-38.88 68H184V56z"/><path fill="url(#i)" d="M96 56l34.65 60-38.88 68H184V56z"/></g><g clip-path="url(#c)"><g clip-path="url(#j)"><path fill="#3367d6" d="M21.97 8v108h39.39L96 56h88V8z"/><path fill="url(#k)" d="M21.97 8v108h39.39L96 56h88V8z"/></g></g><path fill="url(#l)" d="M96 56v20.95L174.4 56z" clip-path="url(#c)"/><g clip-path="url(#c)"><path fill="url(#m)" d="M8 184h83.77l38.88-38.88V116H61.36L8 24.48z" clip-path="url(#n)"/></g><path fill="url(#o)" d="M21.97 48.45l57.25 57.24L61.36 116z" clip-path="url(#c)"/><path fill="url(#p)" d="M91.83 183.89l20.96-78.2L130.65 116z" clip-path="url(#c)"/><g clip-path="url(#c)"><circle cx="96" cy="96" r="40" fill="#f5f5f5"/><circle cx="96" cy="96" r="32" fill="#4285f4"/></g><g clip-path="url(#c)"><path fill="#1a237e" fill-opacity=".2" d="M96 55a40 40 0 00-40 40v1a40 40 0 0140-40h88v-1z"/><path fill="#fff" fill-opacity=".1" d="M130.6 116A39.96 39.96 0 0196 136a39.97 39.97 0 01-34.61-20h-.04L8 24.48v1L61.36 117h.04a39.94 39.94 0 0069.21 0h.05v-1z"/><path fill="#1a237e" d="M97 56c-.17 0-.33.02-.5.03a39.98 39.98 0 010 79.94c.17 0 .33.03.5.03a40 40 0 000-80z" opacity=".1"/><path fill="#fff" fill-opacity=".2" d="M131 117.33a39.72 39.72 0 003.5-32.05 39.72 39.72 0 01-3.87 30.69l.02.04-38.87 68h1.16l38.09-66.64z"/></g><g clip-path="url(#c)"><path fill="#fff" fill-opacity=".2" d="M96 9a88 88 0 0187.99 87.5l.01-.5A88 88 0 008 96l.01.5A88 88 0 0196 9z"/><path fill="#1a237e" fill-opacity=".15" d="M96 183a88 88 0 0087.99-87.5l.01.5A88 88 0 018 96l.01-.5A88 88 0 0096 183z"/></g><path fill="none" d="M0 0h192v192H0z"/><circle cx="96" cy="96" r="88" fill="url(#q)"/></svg>