<?xml version="1.0" encoding="UTF-8" standalone="no"?><svg xmlns:rdf="http://www.w3.org/1999/02/22-rdf-syntax-ns#" xmlns="http://www.w3.org/2000/svg" height="650" width="650" version="1.1" xmlns:cc="http://creativecommons.org/ns#" xmlns:dc="http://purl.org/dc/elements/1.1/" viewBox="0 0 650.0001 650.00015"><g transform="translate(522.14 -798.79)"><g transform="translate(4742.5 -1387.1)"><title>qutebrowser-logo</title><g transform="translate(9.8882 1558.1)"><ellipse style="color-rendering:auto;color:#000000;isolation:auto;mix-blend-mode:normal;shape-rendering:auto;solid-color:#000000;image-rendering:auto" rx="325" ry="325" cy="952.75" cx="-4949.5" fill="#cee5fd"></ellipse><path d="m-4950.1 627.75c-41.072 0-80.164 7.8197-116.29 21.55-2.6285 2.4104-6.0419 4.2605-8.7446 4.0308-0.3622-0.035-0.7417-0.2759-1.1039-0.4122-17.808 7.4364-34.701 16.548-50.721 26.882 2.0836 3.372 2.7009 7.1265-1.5867 8.9502-0.7245 0.3122-9.2508 1.4737-12.414 1.396-45.551 33.034-81.421 77.105-104.78 128.97 0.3794-0.052 2.145-0.2091 2.5243-0.235 3.5446-0.052 6.0115 1.0555 9.4162 1.7696 3.1408 0.6451 5.6744 2.7474 8.3945 2.9516 7.7149 0.5847 9.5725-5.4041 15.868-8.7597 6.5042 0.9175 10.82-1.0988 16.694-0.4451 4.0032 0.4416 6.8956 4.7123 10.016 4.9514 2.6252 0.2655 4.9329-2.4512 7.4735-2.0631 2.4681 0.3795 6.7215 5.7499 7.1233 8.7597 0.5002 3.7465-2.7614 7.1204-1.6903 11.235 3.9308 3.997 11.075 4.8067 16.694 7.1093 3.6583-3.009 0.483-8.5931 0-12.949 0-1.9169 0.2587-3.6285 0-5.3955-0.3449-2.9998-1.6214-5.748-1.6558-8.3153 0-11.858 9.5846-17.407 17.553-22.09 3.4495-2.0413 6.1661-5.6155 9.1584-7.1093 4.2275-2.1158 7.3752-2.6075 10.875-4.5703 6.3248-3.5458 11.749-6.3922 16.694-10.41 2.2871-5.3767 0.2243-12.587 0.414-17.9 2.2887-1.3987 4.2516 0.602 6.6783 0.4123 3.817-0.7917 4.1326-6.1688 6.2955-8.3153 1.259-1.2298 4.7018-2.1112 6.2645-3.3326 3.8031-2.9781 5.0415-7.4763 8.3634-8.7596 1.1902-0.4812 3.9412-0.3501 5.8195-0.8572 2.4715-0.6537 5.9901-3.5737 10.016-4.9513 2.625-0.9159 8.6342-1.0918 9.6362-2.0947 1.2247-1.2574 0-4.7832 0.414-6.6648 2.0249-9.407 16.222-11.401 24.613-14.568 5.8815-2.2253 11.918-6.297 18.379-5.0465-1.259 4.4706-7.2837 2.8868-6.2644 8.3155 1.4144 7.5338 11.518-2.1589 14.183-3.269 5.095-2.1433 13.828-3.4516 20.511-5.8718 5.859-2.1431 16.366-5.402 10.844-12.092-4.6068-0.2656-6.8283 5.3958-10.844 7.1094-2.7735 0.4415-2.2457-2.3165-4.6104-2.5391-2.2509-0.2655-3.5099 2.0717-5.8194 1.6817-2.2974-0.3777-5.5244-3.9842-5.8831-6.665-0.9143-6.9564 5.89-9.8241 8.7756-15.012-1.9076-6.2923-10.628-1.2816-15.899-3.7451 0.5002-3.7461 4.3931-6.3297 8.7775-7.046 3.5926-0.6071 11.659-0.2967 13.8 1.6179 1.242 1.0538 0 3.6801 2.0992 5.4273 2.1266 1.9171 4.743 1.7196 7.5044 1.2694 1.0004-4.7481-6.1867-3.5571-5.4054-6.6967 5.6401-3.6822 14.814-0.659 21.718-1.6817 3.974-0.5847 8.1479-3.3855 11.67-5.3638 3.3496-1.9053 7.703-5.2108 11.258-2.0948 0.9658 3.4033-3.096 4.5293-4.9934 6.2207-6.3885 5.6721-12.968 12.17-17.934 18.757 3.0461 2.9656 8.5825 1.4798 13.736 2.0947 2.0162 0.2656 4.5482 0.8624 6.6784 1.2384 2.4888 0.4415 5.1414 0.3173 7.0904 0.8245 3.5083 0.8572 4.4465 4.602 7.9185 4.602 5.7125-0.011 5.7798-6.177 2.5442-10.029 1.0175-3.9329 2.6232-5.9727 1.2418-8.7279-2.5734-5.1363-12.011-0.2656-12.498-6.665-0.3104-4.1548 3.4841-3.9692 4.9933-7.0775-0.6898-8.0283 6.5973-8.6099 5.8194-15.806-0.345-3.0099-2.8804-3.0515-4.9932-5.8716-1.0521-1.3868-1.6041-4.0437-2.8287-5.2368-9.7432-0.8676-19.597-1.3971-29.573-1.3971zm-168.03 65.571c1.9438 0.2812 4.2912 2.3608 6.6455 2.5392 2.2302 0.052 4.0653-1.2263 5.4381-0.8573 3.4911 0.9176 4.9623 6.1806 1.6904 8.7596-2.7303 0.3415-3.7945-1.1815-5.8504-0.8244-5.6711 0.9607-7.8461 12.046-12.084 11.68-3.9964-0.3415-6.1592-10.056-2.0991-12.949 0.2588-2.5259-1.8473-2.9313-1.7247-5.4273 1.2073-1.5351 4.6291-3.1868 7.9495-2.9199zm-18.793 1.3006c1.1557 0.035 2.0352 0.319 2.4802 0.8261-0.5518 4.4413-4.0359 4.1503-7.4734 6.2206-5.935 3.5758-9.3673 9.0244-11.256 16.663-0.5519 2.2252-6.3972 8.1111-9.2224 7.522-6.6197-1.3936 1.8265-13.574 3.3392-15.425 1.673-2.052 3.9135-3.8515 5.8832-6.2207 1.9094-2.2942 3.1529-5.3917 4.9915-6.6649 2.0163-1.3937 7.7701-3.0536 11.258-2.9201zm49.415 14.98c2.1216 0.035 4.0275 0.3811 4.8967 1.2383-1.3624 5.5031-13.239 4.0501-17.584 2.0631 0.2761-2.0751 3.5325-2.6463 6.2644-2.9199 1.9215-0.052 4.3068-0.445 6.4231-0.3812zm-27.029 10.156c1.4142-0.035 2.8424 0.2725 4.3257 0.6658-3.8429 3.2081-7.9978 5.0254-14.597 7.1093-3.1719 0.9969-8.6515 2.2398-9.1896-1.3022-0.6554-4.3341 4.6396-3.3255 7.5356-3.7133 3.6479-0.5053 7.6527-2.6247 11.925-2.7611zm414.66 24.692c-0.5003 1.1798-0.8624 2.3483-0.7934 3.4911 0.2586 2.011 2.4647 3.9451 2.9562 6.6651 0.2587 1.4402-0.6726 4.5568 0 5.8716 2.0111 3.8912 7.2717 1.0918 11.035 1.3005-4.2758-5.8758-8.5447-11.762-13.196-17.329zm21.337 28.66c-0.6037 2.871-2.5545 6.6159-4.1344 9.0136-3.6392 5.5245-8.5825 5.7821-13.802 8.728-4.3515 2.4625-6.2246 6.5714-8.7756 10.854-2.7649 4.6264-4.4776 7.4212-3.3393 14.124-3.7306 7.3859-9.3794 11.911-17.108 15.425-2.2854 1.0279-5.4072 1.4075-7.5045 2.9198-1.6731 1.1971-2.62 4.4166-4.9916 7.0776-2.9286 3.2523-5.997 4.6247-7.5372 7.1094-1.1901 1.9172-1.6041 5.7387-2.9253 8.3155-1.7817 3.4997-5.5779 5.2139-7.9184 8.7597-1.0694 1.6402-1.7765 4.962-2.9563 7.1094-2.6441 4.7974-7.1629 8.2537-6.6784 12.473 0.483 4.0778 5.1209 4.7925 5.4382 8.3472 0 2.0094-1.3279 3.2372-1.2418 5.4273 0 3.1973 2.2267 5.4424 2.4804 7.9029 0.6208 6.1864-2.1096 8.6552-3.2755 12.886-0.5519 2.0199-0.3105 4.2935-0.8624 5.8716-1.0176 3.097-5.352 5.8917-5.4364 9.5532 0 2.6018 2.6734 4.6945 2.8924 8.347 0 2.5181-1.2419 5.2066-0.7934 7.522 0.8969 4.5343 8.9981 9.8071 12.529 13.33 4.7241 4.7143 10.908 8.3632 12.943 13.33 1.7074 4.218 1.7074 9.7066 4.9914 12.886 2.4354 2.3474 6.4852 3.8108 9.6036 6.2523 2.9097 2.2793 6.0799 4.2466 9.1896 6.665 5.083 3.9677 12.765 11.877 20.861 11.267 4.2274-0.3088 8.56-3.7519 13.355-4.6021 4.9329-0.8831 11.335-1.3367 16.313-0.8245 3.8117 0.3778 7.739 2.6575 11.703 2.4756 4.1843-0.2656 8.9826-3.3542 13.736-5.4272 3.8256-1.6627 8.5204-3.5035 13.674-4.8559 2.3629-15.853 3.6254-32.093 3.6254-48.623 0-66.547-19.937-128.23-54.058-179.64zm-538.55 109.21c-6.9354 0.3794-11.48 0.6933-15.421 2.4756-9.0343 4.1032-7.2888 16.287-16.313 19.17-3.1218 0.9952-7.4078 1.0435-10.844 1.6817-2.9666 0.5416-6.58 2.1592-9.6364 2.0947-0.8623-0.012-0.9086-0.1949-1.9727-0.5329-0.8094 5.1109-1.7261 11.429-1.9674 17.189 8.5859 1.6421 11.871 12.656 19.46 16.414 2.0783 1.0279 4.7949 1.0831 7.4717 1.6816 2.1612 0.4813 3.8015 1.3954 5.8833 2.0948 4.4154 1.4971 9.8243 1.316 13.355 2.888 5.3226 2.3575 9.2242 12.34 13.802 15.012 0.2587 2.6927-0.5174 6.3076 0.414 8.3153 2.161 2.9264 5.2157 2.2813 8.7774 4.1895 4.2602 2.2942 5.564 8.2185 9.6036 10.029 1.397 0.6173 4.8879 0.5381 7.0904 1.2055 5.5349 1.6714 7.3407 8.0618 12.084 6.6651 3.1115-0.9159 2.8665-4.1093 3.3702-7.0777 2.0559-2.2251 4.2998-5.7455 7.5045-5.8079 5.1882-0.2656 5.6486 5.3497 7.5373 10.378 1.0693 2.8416 3.8514 5.3181 4.5793 8.3155 1.2936 5.1777 0.6554 20.677-0.4485 23.772-1.3108 3.7966-6.4593 5.4072-9.6346 9.6167-1.5005 1.9737-2.2112 4.8651-3.3392 6.2524-2.0438 2.4836-5.0829 3.1344-6.6128 5.4271-0.8624 1.2919-1.7075 4.0628-2.544 5.8082-2.5078 5.302-5.8625 9.059-3.753 15.425 0.8795 2.6203 4.9828 4.3749 4.9931 7.4586 0.01 3.6279-7.7321 6.8765-8.3323 10.854-0.4484 2.9592 2.3991 8.2414 3.3392 12.092 0.6899 2.9102 6.1987 4.7294 7.9183 6.6651 2.9304 3.284 5.2727 7.9361 7.9495 12.061 5.2933 8.1125 9.4414 18.007 14.595 25.867 2.7251 4.1168 6.549 7.8185 8.3634 12.092 0.9315 2.1567 0.7934 4.7271 1.6558 6.665 2.9839 6.7213 16.16 13.739 22.959 17.075 3.1839 1.542 6.7145 2.0988 9.6345 3.7134 4.4242 2.4626 13.19 9.0768 15.423 12.949 1.9887 3.4807 3.2305 11.953 4.198 17.488 1.2938 7.3142 0.014 12.93 0.4139 20.852 0.2589 4.2833 1.6388 8.5912 1.6905 12.886 0.016 1.5023-0.9177 1.4423-0.9867 2.977l0.183 1.6086c40.884 18.771 86.391 29.438 134.48 29.438 8.6876 0 17.262-0.3073 25.776-0.9678 0.3794-0.64 0.7374-1.4468 1.1858-2.0472 1.9594-2.5675 3.6996-4.8164 4.9933-7.0776 1.2245-7.6081-3.0408-12.923-1.242-19.582 1.9922-7.4808 12.356-12.05 19.62-15.425 2.4991-1.1591 5.0554-3.0401 7.0906-3.7453 5.0276-1.7457 11.304-0.8019 15.899-2.4755 7.8237-2.8571 8.6395-11.232 12.498-18.345 1.8179-3.3687 4.2223-6.7415 4.5792-9.1406 0.3105-2.1569-0.7934-4.1855-0.4485-6.7285 0.3796-2.5179 2.639-4.6928 3.3393-7.4585 0.9141-3.6092 1.3108-8.8969 1.3108-12.917 0-3.3-1.5523-6.1955-1.6903-9.1723-0.5347-10.808 3.9118-12.018 7.9185-17.9 2.0111-2.9221 2.763-6.253 4.1653-8.3472 6.7267-10.016 18.398-14.852 17.553-29.993-0.276-5.0101-3.4288-16.333-7.1233-17.932-2.1129-0.9176-6.9595-0.052-10.016-1.2383-9.8674-3.6742-15.659-15.883-25.884-16.663-2.1854-0.2656-4.1896 0.8952-6.6473 0.8572-4.0464-0.2656-10.147-2.8293-14.626-3.3326-2.8476-0.3087-6.6542 0.8469-8.3634 0-2.608-1.2642-2.8718-6.0604-4.9932-7.4901-1.6731-1.1556-4.9536-1.5523-7.5047-2.539-4.1118-1.5765-7.3716-3.4153-12.115-3.7452-1.4661-0.052-3.2874 0.702-4.9933 0.4449-2.625-0.4415-4.7-3.5433-7.1216-5.0146-3.0338-1.8429-5.8383-2.7346-7.0923-5.3636 2.7424-8.9754-4.8346-11.477-6.6782-16.663-0.8798-2.4301-0.483-5.3543-1.242-7.5219-1.0866-3.1051-4.1636-4.8998-7.5355-7.4903-6.042-4.6406-11.399-8.9981-20.033-10.061-3.7963-0.4812-7.5614 1.1349-12.148 0.8572-4.8587-0.3087-10.959-4.5496-14.595-8.6963-3.534-4.0482-5.2536-7.6815-8.3323-9.6166-2.915-1.8712-6.7836-1.8175-8.7758-3.7134-0.8795-0.8244-0.7416-2.2428-1.6903-4.1895-1.466-3.031-3.9273-4.7156-2.099-8.347-3.3271-1.7058-3.4185 3.1689-7.0595 2.539-3.2443-4.5974-5.9868-6.7756-13.355-5.4274-3.3754 0.6192-5.2589 4.8772-9.1896 4.9831-3.2254 0.2656-5.759-3.5856-10.018-4.1895-3.215-0.4415-6.8699 0.871-9.1586 0.445-3.5634-0.7123-4.6622-3.6717-7.9167-5.8081-2.3873-1.5662-7.0252-4.232-8.3636-4.1893-4.1964 0.2656-7.1872 8.9006-12.974 5.8397-2.8131-3.557 4.581-5.4314 1.2419-8.7598-2.5304-2.5256-4.6552 1.1435-6.6784 2.5391-2.3181 1.5988-4.4965 3.1795-7.0595 4.1259-5.7349 2.1431-9.319 1.0211-13.8 3.3326-4.1498 2.1455-4.3274 5.7349-6.6783 9.9975-1.9214 3.4922-6.3006 8.5808-9.1896 8.7916-3.4996 0.2655-6.8439-4.8829-10.018-6.2526-9.5605-4.1334-14.192 3.6709-22.132 3.777-7.3666 0.2656-17.891-11.875-17.52-18.789 0-4.2187 2.4301-10.618 2.9252-15.837 0.4484-4.1509 3.2908-6.653 3.3391-10.442 0-5.0612-6.7266-8.9528-10.017-9.5532-7.7995-1.4315-18.629 3.1322-27.569-0.445-1.7075-2.8238 1.9991-4.775 2.958-7.5219 0.5347-1.5627 0.2242-3.6462 0.7935-5.3637 0.983-2.6538 3.779-4.7101 5.0242-7.522 0.9314-2.1457 1.1728-5.2407 2.0991-7.9028 1.0866-3.0313 3.1046-4.9835 3.3392-7.1094 0.3104-2.8071-0.759-6.0516-2.9581-7.9027zm111.62 88.2c2.8287 0.2656 3.1839 6.1003 0.2933 6.5698-3.1201 0.4829-4.7069-4.8866-1.6903-6.2843 0.5174-0.2655 1.0004-0.2828 1.397-0.2535v-0.035z" fill="#7ebaff"></path></g><path d="m-4845.3 2264.9-85.715 51.123v130.75l85.715-51.123zm-149 11.438c-78.594-0.4315-227.48 22.267-228.14 190.81-0.8 204.45 152.42 157.78 187.14 137.14 66.769-39.428 135.56-81.143 198.57-118.06 34.316-20.073 98.57-33.141 98.57 61.144 0 94.286-69.767 123.52-107.14 121.5v-159.23l-85.715 50.588v181.71c4.6167 0.947 22.089 3.2468 46.148 3.3789 78.594 0.4315 227.48-22.267 228.14-190.81 0.8-204.45-152.42-157.78-187.14-137.14-66.769 39.429-135.56 81.143-198.57 118.06-34.316 20.073-98.57 33.141-98.57-61.144 0-94.286 69.767-123.52 107.14-121.5v159.23l85.715-50.588v-181.71c-4.6167-0.947-22.089-3.2468-46.148-3.3789zm46.148 298.54-85.715 51.123v130.75l85.715-51.123z" fill-rule="evenodd" fill="#0a396e"></path></g></g></svg>
