<svg enable-background="new" version="1.1" viewBox="0 -2 313 305" xmlns="http://www.w3.org/2000/svg" xmlns:xlink="http://www.w3.org/1999/xlink">
  <defs>
    <radialGradient id="P" cx="173.96" cy="149.58" r="161.64" gradientTransform="matrix(0 1 -.8 0 293.62 -24.38)" gradientUnits="userSpaceOnUse">
      <stop stop-color="#99fbff" offset=".55"/>
      <stop stop-color="#92f6fe" offset=".61"/>
      <stop stop-color="#80e7fa" offset=".7"/>
      <stop stop-color="#62cff3" offset=".8"/>
      <stop stop-color="#38adea" offset=".91"/>
      <stop stop-color="#0f8ce1" offset="1"/>
    </radialGradient>
    <radialGradient id="left-yellow-halo-gradient" cx="62.968" cy="220.74" r="48.326" gradientTransform="matrix(3.4175 -2.0751 1.0888 1.7931 -389.83 -12.808)" gradientUnits="userSpaceOnUse">
      <stop stop-color="#fcf69f" stop-opacity="0" offset="0"/>
      <stop stop-color="#fcf69f" stop-opacity="0" offset=".5"/>
      <stop stop-color="#fcf69f" stop-opacity=".77" offset="1"/>
    </radialGradient>
    <radialGradient id="top-sheen-gradient" cx="100.32" cy="148.8" r="138.81" gradientTransform="matrix(.9302 -.83744 .32785 .36414 17.035 155.03)" gradientUnits="userSpaceOnUse">
      <stop stop-color="#f8b633" stop-opacity="0" offset="0"/>
      <stop stop-color="#fabc3f" stop-opacity="0" offset=".83"/>
      <stop stop-color="#fdf8c3" stop-opacity=".98" offset=".92"/>
      <stop stop-color="#fdf8c3" stop-opacity=".98" offset=".96"/>
      <stop stop-color="#fdf6b0" stop-opacity=".98" offset="1"/>
    </radialGradient>
    <radialGradient id="yellow-ring-shadow-gradient" cx="138.27" cy="245.02" r="84.078" gradientTransform="matrix(1.3738 -1.4223 .47637 .46011 -146.79 229.99)" gradientUnits="userSpaceOnUse">
      <stop stop-color="#3d3a04" stop-opacity="0" offset="0"/>
      <stop stop-color="#454205" stop-opacity="0" offset=".92416"/>
      <stop stop-color="#4e4a06" stop-opacity=".27" offset="1"/>
    </radialGradient>
    <radialGradient id="extra-top-left-blue-gradient" cx="92.079" cy="70.362" r="64.365" gradientTransform="matrix(1.82 .032229 -.038824 2.1923 -73.94 -85.114)" gradientUnits="userSpaceOnUse">
      <stop stop-color="#a0f5fc" offset="0"/>
      <stop stop-color="#a0f3fc" stop-opacity="0" offset="1"/>
    </radialGradient>
    <radialGradient id="top-sheen-mask-gradient" cx="136.1" cy="93.932" r="157.94" gradientTransform="matrix(.67825 -.45732 .55906 .82913 -15.248 63.774)" gradientUnits="userSpaceOnUse">
      <stop stop-color="#fcfcfc" offset="0"/>
      <stop stop-color="#fff" offset=".68073"/>
      <stop offset="1"/>
    </radialGradient>
    <mask id="top-sheen-mask" maskUnits="userSpaceOnUse">
      <rect x=".5" y="-12.389" width="314.89" height="314.89" fill="url(#top-sheen-mask-gradient)" fill-rule="evenodd" stroke="#000" stroke-width="1px"/>
    </mask>
    <radialGradient id="yellow-white-base-gradient" cx="160.08" cy="156.25" r="138.81" gradientTransform="matrix(1.0704 -1.0538 .44083 .44775 -75.068 245.37)" gradientUnits="userSpaceOnUse">
      <stop stop-opacity="0" offset="0"/>
      <stop stop-color="#fdbb36" stop-opacity=".94" offset=".82"/>
      <stop stop-color="#fbd44d" stop-opacity=".92" offset=".89"/>
      <stop stop-color="#fbcf39" stop-opacity=".88" offset="1"/>
    </radialGradient>
    <radialGradient id="dark-orange-inner-gradient" cx="180.99" cy="167.23" r="138.81" gradientTransform="matrix(1.1348 -1.1322 .52964 .53081 -114.38 274.24)" gradientUnits="userSpaceOnUse">
      <stop stop-color="#f7ab32" stop-opacity="0" offset="0"/>
      <stop stop-color="#f7b535" stop-opacity=".92" offset=".76"/>
      <stop stop-color="#f7b33f" stop-opacity=".96" offset=".84"/>
      <stop stop-color="#f7e232" offset=".93"/>
      <stop stop-color="#f5ec80" offset="1"/>
    </radialGradient>
    <radialGradient id="white-inner-glow-gradient" cx="-2.5004" cy="136.62" r="138.81" gradientTransform="matrix(.85784 -.85837 .28831 .28814 123.22 99.466)" gradientUnits="userSpaceOnUse">
      <stop offset="0"/>
      <stop stop-color="#fee259" stop-opacity=".5" offset=".94"/>
      <stop stop-color="#fff045" stop-opacity="0" offset="1"/>
    </radialGradient>
    <radialGradient id="yellow-ring-rear-white-mask-gradient" cx="222.81" cy="221.24" r="156.35" gradientTransform="matrix(1.1049 -.66263 .37599 .62704 -95.652 198.56)" gradientUnits="userSpaceOnUse">
      <stop offset="0"/>
      <stop offset=".67163"/>
      <stop stop-color="#fff" offset="1"/>
    </radialGradient>
    <mask id="yellow-ring-mask" maskUnits="userSpaceOnUse">
      <rect y="-.37378" width="312.71" height="302.26" fill="url(#yellow-ring-rear-white-mask-gradient)" fill-rule="evenodd"/>
    </mask>
    <radialGradient id="dark-orange-inner-mask-gradient" cx="101.97" cy="109.66" r="158" gradientTransform="matrix(.84189 -.58292 .28064 .4054 -11.053 122.85)" gradientUnits="userSpaceOnUse">
      <stop stop-color="#fff" offset="0"/>
      <stop stop-color="#fff" offset=".69"/>
      <stop offset="1"/>
    </radialGradient>
    <mask id="dark-orange-inner-mask" maskUnits="userSpaceOnUse">
      <rect x=".5" y="-12.5" width="315" height="315" fill="url(#dark-orange-inner-mask-gradient)" fill-rule="evenodd" stroke="#000" stroke-width="1px"/>
    </mask>
  </defs>
  <path id="letter-e" d="m226.06 194.2c-10.23 17.2-29.93 28.53-51.3 28.53a56.08 56.08 0 0 1-56.28-56v-2.2h179.52a125.85 125.85 0 0 0 0.77-13.88 124.27 124.27 0 0 0-124.33-124.83c-69.08 0-125.9 55.76-125.9 124.84 0 22.48 6.47 43.56 16.7 61.75 9.15 16.27 21.16 30.23 36.5 40.8 20.22 13.92 45.5 21.58 72 21.58 27.95 0 54.67-8.54 75.7-23.84a122 122 0 0 0 42.56-56.76zm-49.5-115.2c30.52 0 53.3 24.3 54.13 54.6h-112.49c0.97-30.3 27.8-54.6 58.37-54.6z" fill="url(#P)" stroke="#1b62a2" stroke-opacity=".87785" stroke-width="4.9134" style="paint-order:stroke markers fill"/>
  <g id="yellow-ring" mask="url(#yellow-ring-mask)">
    <path id="yellow-white-base" d="m108.75 260.53c-27.7 14.08-50 17.08-61.5 5.6-25-25 7.8-94.8 74.3-161.32s136.31-99.31 161.35-74.29c10.13 10.13 9 28.72-1.14 52q2.1 3.34 4 6.82c13.47-31.15 14.25-57.5-1.46-73.2-28.75-29.12-126.4 4.2-186.67 67.3s-97.79 159.36-69.89 187.96c18.14 18.14 51.2 13.87 89.56-6.43q-4.38-2.05-8.55-4.43z" fill="url(#yellow-white-base-gradient)"/>
    <path id="dark-orange-inner" d="m108.75 260.53c-27.7 14.08-50 17.08-61.5 5.6-25-25 7.8-94.8 74.3-161.32s136.31-99.31 161.35-74.29c10.13 10.13 9 28.72-1.14 52q2.1 3.34 4 6.82c13.47-31.15 14.25-57.5-1.46-73.2-28.75-29.12-126.4 4.2-186.67 67.3s-97.79 159.36-69.89 187.96c18.14 18.14 51.2 13.87 89.56-6.43q-4.38-2.05-8.55-4.43z" fill="url(#dark-orange-inner-gradient)" mask="url(#dark-orange-inner-mask)" opacity=".92963"/>
    <path id="top-sheen" d="m108.75 260.53c-27.7 14.08-50 17.08-61.5 5.6-25-25 7.8-94.8 74.3-161.32s136.31-99.31 161.35-74.29c10.13 10.13 9 28.72-1.14 52q2.1 3.34 4 6.82c13.47-31.15 14.25-57.5-1.46-73.2-28.75-29.12-126.4 4.2-186.67 67.3s-97.79 159.36-69.89 187.96c18.14 18.14 51.2 13.87 89.56-6.43q-4.38-2.05-8.55-4.43z" fill="url(#top-sheen-gradient)" mask="url(#top-sheen-mask)" opacity=".83519"/>
    <path id="white-inner-glow" d="m108.75 260.53c-27.7 14.08-50 17.08-61.5 5.6-25-25 7.8-94.8 74.3-161.32s136.31-99.31 161.35-74.29c10.13 10.13 9 28.72-1.14 52q2.1 3.34 4 6.82c13.47-31.15 14.25-57.5-1.46-73.2-28.75-29.12-126.4 4.2-186.67 67.3s-97.79 159.36-69.89 187.96c18.14 18.14 51.2 13.87 89.56-6.43q-4.38-2.05-8.55-4.43z" fill="url(#white-inner-glow-gradient)"/>
  </g>
  <path id="extra-top-left-blue" transform="translate(0,-2)" d="m174.44 27.82c-68.937 0-125.66 55.53-125.89 124.41 13.174-23.455 29.981-46.791 49.086-66.793 23.061-24.144 51.592-43.919 79.645-57.514a124.27 124.27 0 0 0-2.8359-0.10547z" fill="url(#extra-top-left-blue-gradient)"/>
  <path id="left-yellow-halo" d="m46.15 154.56c12.851-24.577 33.552-52.853 50.53-70.16-19.184 16.918-38.242 38.928-50 53.93-42.52 54.68-55.05 102.46-41.35 125.7 11.08 18.8 32.27 23.17 53 18.83-12.4-0.08-22.86-3.75-30.6-11.48-18.48-18.97-8.2-67.73 18.4-116.82z" fill="url(#left-yellow-halo-gradient)" opacity=".877"/>
  <path id="yellow-ring-shadow" transform="translate(0,-2)" d="m217.33 35.551c-28.801 13.432-62.699 38.165-95.781 71.258-29.291 29.3-52.032 59.233-66.188 85.697 1.2925 3.734 2.7499 7.3878 4.3535 10.953 6.4429-25.294 32.58-54.181 64.28-92.234 1.749-2.0995 3.6752-5.1253 5.8179-7.2148 3.9483-5.0788 8.745-9.5056 14.154-13.086 29.879-18.073 54.304-40.563 79.551-52.885-2.0399-0.88463-4.1031-1.7144-6.1875-2.4883z" fill="url(#yellow-ring-shadow-gradient)"/>
</svg>
