<svg enable-background="new" version="1.1" viewBox="0 -2 313 305" xmlns="http://www.w3.org/2000/svg" xmlns:xlink="http://www.w3.org/1999/xlink">
  <defs>
    <radialGradient id="P" cx="174" cy="149.6" r="161.6" gradientTransform="matrix(0 1 -.8 0 293.6 -24.38)" gradientUnits="userSpaceOnUse">
      <stop stop-color="#99fbff" offset=".55"/>
      <stop stop-color="#92f6fe" offset=".61"/>
      <stop stop-color="#80e7fa" offset=".7"/>
      <stop stop-color="#62cff3" offset=".8"/>
      <stop stop-color="#38adea" offset=".91"/>
      <stop stop-color="#0f8ce1" offset="1"/>
    </radialGradient>
    <filter id="filter10941" color-interpolation-filters="sRGB">
      <feFlood flood-color="rgb(255,219,87)" result="flood"/>
      <feComposite in="flood" in2="SourceGraphic" operator="out" result="composite1"/>
      <feGaussianBlur in="composite1" result="blur" stdDeviation="1.9"/>
      <feOffset dx="-1.3" dy="-0.5" result="offset"/>
      <feComposite in="offset" in2="SourceGraphic" operator="atop" result="composite2"/>
    </filter>
    <radialGradient id="radialGradient3984" cx="62.97" cy="220.7" r="48.33" gradientTransform="matrix(3.417 -2.075 1.089 1.793 -389.8 -12.81)" gradientUnits="userSpaceOnUse">
      <stop stop-color="#fcf69f" stop-opacity=".001629" offset="0"/>
      <stop stop-color="#fcf69f" stop-opacity=".0114" offset=".5"/>
      <stop stop-color="#fcf69f" stop-opacity=".7687" offset="1"/>
    </radialGradient>
    <linearGradient id="linearGradient4037" x1="68.74" x2="115.6" y1="280.3" y2="261.3" gradientTransform="matrix(1.083 -1.089 .4371 .4344 -10.15 174.8)" gradientUnits="userSpaceOnUse">
      <stop stop-color="#f8b633" stop-opacity="0" offset="0"/>
      <stop stop-color="#fbd993" stop-opacity=".5697" offset=".25"/>
      <stop stop-color="#fce0a8" stop-opacity=".7216" offset=".5"/>
      <stop stop-color="#fff" offset="1"/>
    </linearGradient>
    <linearGradient id="linearGradient4060" x1="281.5" x2="293.1" y1="97.33" y2="54.58" gradientUnits="userSpaceOnUse">
      <stop stop-color="#fff" offset="0"/>
      <stop stop-color="#fff" stop-opacity="0" offset="1"/>
    </linearGradient>
    <radialGradient id="radialGradient5204" cx="93.43" cy="180.8" r="138.8" gradientTransform="matrix(1.054 -1.052 .4626 .4632 -12.31 166.4)" gradientUnits="userSpaceOnUse">
      <stop stop-color="#f8b633" offset="0"/>
      <stop stop-color="#fbb445" stop-opacity=".9686" offset=".8283"/>
      <stop stop-color="#f9c72d" stop-opacity=".9529" offset=".9035"/>
      <stop stop-color="#f9db33" stop-opacity=".9804" offset=".9545"/>
      <stop stop-color="#fbe76c" stop-opacity=".9804" offset=".9729"/>
      <stop stop-color="#fdf6b0" stop-opacity=".9804" offset="1"/>
    </radialGradient>
    <radialGradient id="radialGradient5346" cx="137.9" cy="243.8" r="84.08" gradientTransform="matrix(1.382 -1.388 .4694 .4672 -146.2 223.5)" gradientUnits="userSpaceOnUse">
      <stop stop-color="#3d3a04" stop-opacity="0" offset="0"/>
      <stop stop-color="#454205" stop-opacity="0" offset=".9318"/>
      <stop stop-color="#4e4a06" stop-opacity=".2655" offset="1"/>
    </radialGradient>
    <radialGradient id="radialGradient5364" cx="92.08" cy="70.36" r="64.37" gradientTransform="matrix(1.82 .03223 -.03882 2.192 -73.94 -85.11)" gradientUnits="userSpaceOnUse">
      <stop stop-color="#a0f5fc" offset="0"/>
      <stop stop-color="#a0f3fc" stop-opacity="0" offset="1"/>
    </radialGradient>
  </defs>
  <path id="letter-e" d="m226.1 194.2c-10.23 17.2-29.93 28.53-51.3 28.53a56.08 56.08 0 0 1-56.28-56v-2.2h179.5a125.8 125.8 0 0 0 0.77-13.88 124.3 124.3 0 0 0-124.3-124.8c-69.08 0-125.9 55.76-125.9 124.8 0 22.48 6.47 43.56 16.7 61.75 9.15 16.27 21.16 30.23 36.5 40.8 20.22 13.92 45.5 21.58 72 21.58 27.95 0 54.67-8.54 75.7-23.84a122 122 0 0 0 42.56-56.76zm-49.5-115.2c30.52 0 53.3 24.3 54.13 54.6h-112.5c0.97-30.3 27.8-54.6 58.37-54.6z" fill="url(#P)" stroke="#1b62a2" stroke-opacity=".8779" stroke-width="4.913" style="paint-order:stroke markers fill"/>
  <path id="extra-top-left-blue" transform="translate(0,-2)" d="m174.4 27.82c-68.94 0-125.7 55.53-125.9 124.4 13.17-23.46 29.98-46.79 49.09-66.79 23.06-24.14 51.59-43.92 79.64-57.51a124.3 124.3 0 0 0-2.836-0.1055z" fill="url(#radialGradient5364)"/>
  <g filter="url(#filter10941)">
    <path id="yellow-main" d="m108.8 260.5c-27.7 14.08-50 17.08-61.5 5.6-25-25 7.8-94.8 74.3-161.3s136.3-99.31 161.4-74.29c10.13 10.13 9 28.72-1.14 52q2.1 3.34 4 6.82c13.47-31.15 14.25-57.5-1.46-73.2-28.75-29.12-126.4 4.2-186.7 67.3s-97.79 159.4-69.89 188c18.14 18.14 51.2 13.87 89.56-6.43q-4.38-2.05-8.55-4.43z" fill="url(#radialGradient5204)"/>
  </g>
  <g>
    <path id="right-white" transform="translate(0,-2)" d="m289.8 55.25c-0.5598 8.466-3.332 18.35-8.088 29.27 1.4 2.227 2.733 4.5 4 6.82 5.436-12.57 8.803-24.36 9.855-34.98z" fill="url(#linearGradient4060)" fill-rule="evenodd"/>
    <path id="bottom-white" transform="translate(0,-2)" d="m108.8 262.5c-13.23 6.727-25.23 10.92-35.41 12.21-4.837 1.356-4.668 3.448-4.597 5.526 0.6656 1.698 1.556 3.295 7.738 2.525 12.5-2.74 26.28-8.127 40.82-15.82-2.92-1.367-5.771-2.845-8.551-4.432z" fill="url(#linearGradient4037)"/>
    <path id="left-yellow-halo" d="m46.15 154.6c12.85-24.58 33.55-52.85 50.53-70.16-19.18 16.92-38.24 38.93-50 53.93-42.52 54.68-55.05 102.5-41.35 125.7 11.08 18.8 32.27 23.17 53 18.83-12.4-0.08-22.86-3.75-30.6-11.48-18.48-18.97-8.2-67.73 18.4-116.8z" fill="url(#radialGradient3984)" opacity=".877"/>
    <path id="yellow-ring-shadow" transform="translate(0,-2)" d="m217.3 35.55c-28.8 13.43-62.7 38.17-95.78 71.26-29.29 29.3-52.03 59.23-66.19 85.7 1.292 3.734 2.75 7.388 4.354 10.95 6.443-25.29 32.58-54.18 64.28-92.23 1.749-2.099 3.675-5.125 5.818-7.215 3.948-5.079 8.745-9.506 14.15-13.09 29.88-18.07 54.3-40.56 79.55-52.88-2.04-0.8846-4.103-1.714-6.188-2.488z" fill="url(#radialGradient5346)"/>
  </g>
</svg>
