<svg version="1.1" viewBox="0 -2 313 305" xmlns="http://www.w3.org/2000/svg" xmlns:xlink="http://www.w3.org/1999/xlink">
  <defs>
    <radialGradient id="P" cx="173.96" cy="149.58" r="161.64" gradientTransform="matrix(0 1 -.8 0 293.62 -24.38)" gradientUnits="userSpaceOnUse">
      <stop stop-color="#99fbff" offset=".55"/>
      <stop stop-color="#92f6fe" offset=".61"/>
      <stop stop-color="#80e7fa" offset=".7"/>
      <stop stop-color="#62cff3" offset=".8"/>
      <stop stop-color="#38adea" offset=".91"/>
      <stop stop-color="#0f8ce1" offset="1"/>
    </radialGradient>
    <filter id="filter10941" color-interpolation-filters="sRGB">
      <feFlood flood-color="rgb(255,219,87)" result="flood"/>
      <feComposite in="flood" in2="SourceGraphic" operator="out" result="composite1"/>
      <feGaussianBlur in="composite1" result="blur" stdDeviation="1.9"/>
      <feOffset dx="-1.3" dy="-0.5" result="offset"/>
      <feComposite in="offset" in2="SourceGraphic" operator="atop" result="composite2"/>
    </filter>
    <radialGradient id="radialGradient3984" cx="62.968" cy="220.74" r="48.326" gradientTransform="matrix(3.4175 -2.0751 1.0888 1.7931 -389.83 -12.808)" gradientUnits="userSpaceOnUse">
      <stop stop-color="#fcf69f" stop-opacity=".0016287" offset="0"/>
      <stop stop-color="#fcf69f" stop-opacity=".011401" offset=".5"/>
      <stop stop-color="#fcf69f" stop-opacity=".76873" offset="1"/>
    </radialGradient>
    <linearGradient id="linearGradient4037" x1="72.992" x2="114.88" y1="279.75" y2="265.58" gradientTransform="matrix(1.0827 -1.0892 .43708 .43442 -10.147 174.84)" gradientUnits="userSpaceOnUse">
      <stop stop-color="#f8b633" stop-opacity="0" offset="0"/>
      <stop stop-color="#ffffff" offset="1"/>
    </linearGradient>
    <linearGradient id="linearGradient4060" x1="284.52" x2="290.95" y1="88.846" y2="61.025" gradientUnits="userSpaceOnUse">
      <stop stop-color="#ffffff" offset="0"/>
      <stop stop-color="#ffffff" offset=".23374"/>
      <stop stop-color="#ffffff" stop-opacity="0" offset="1"/>
    </linearGradient>
    <radialGradient id="radialGradient5204" cx="90.79" cy="171.62" r="138.81" gradientTransform="matrix(1.001 -1.0091 .43753 .43397 -2.8103 167.65)" gradientUnits="userSpaceOnUse">
      <stop stop-color="#f8b633" offset="0"/>
      <stop stop-color="#f6a810" stop-opacity=".96078" offset=".79572"/>
      <stop stop-color="#fad026" stop-opacity=".98039" offset=".92796"/>
      <stop stop-color="#f8f39c" stop-opacity=".98039" offset="1"/>
    </radialGradient>
    <radialGradient id="radialGradient5346" cx="141.05" cy="243.66" r="84.078" gradientTransform="matrix(1.5402 -1.4931 .44717 .46128 -163.34 240.03)" gradientUnits="userSpaceOnUse">
      <stop stop-color="#3d3a04" stop-opacity="0" offset="0"/>
      <stop stop-color="#454205" stop-opacity="0" offset=".91939"/>
      <stop stop-color="#4e4a06" stop-opacity=".26547" offset="1"/>
    </radialGradient>
    <radialGradient id="radialGradient5364" cx="92.079" cy="70.362" r="64.365" gradientTransform="matrix(1.2879 .021762 -.024416 1.445 -25.965 -31.567)" gradientUnits="userSpaceOnUse">
      <stop stop-color="#a0f5fc" offset="0"/>
      <stop stop-color="#a0f3fc" stop-opacity="0" offset="1"/>
    </radialGradient>
  </defs>
  <path id="letter-e" d="m226.06 194.2c-10.23 17.2-29.93 28.53-51.3 28.53a56.08 56.08 0 0 1-56.28-56v-2.2h179.52a125.85 125.85 0 0 0 0.77-13.88 124.27 124.27 0 0 0-124.33-124.83c-69.08 0-125.9 55.76-125.9 124.84 0 22.48 6.47 43.56 16.7 61.75 9.15 16.27 21.16 30.23 36.5 40.8 20.22 13.92 45.5 21.58 72 21.58 27.95 0 54.67-8.54 75.7-23.84a122 122 0 0 0 42.56-56.76zm-49.5-115.2c30.52 0 53.3 24.3 54.13 54.6h-112.49c0.97-30.3 27.8-54.6 58.37-54.6z" fill="url(#P)" stroke="#1b62a2" stroke-width="4.9134" style="paint-order:stroke markers fill"/>
  <path id="extra-top-left-blue" transform="translate(0,-2)" d="m174.44 27.82c-68.937 0-125.66 55.53-125.89 124.41 13.174-23.455 29.981-46.791 49.086-66.793 23.061-24.144 51.592-43.919 79.645-57.514a124.27 124.27 0 0 0-2.8359-0.10547z" fill="url(#radialGradient5364)"/>
  <g filter="url(#filter10941)">
    <path id="yellow-main" d="m108.75 260.53c-27.7 14.08-50 17.08-61.5 5.6-25-25 7.8-94.8 74.3-161.32s136.31-99.31 161.35-74.29c10.13 10.13 9 28.72-1.14 52q2.1 3.34 4 6.82c13.47-31.15 14.25-57.5-1.46-73.2-28.75-29.12-126.4 4.2-186.67 67.3s-97.79 159.36-69.89 187.96c18.14 18.14 51.2 13.87 89.56-6.43q-4.38-2.05-8.55-4.43z" fill="url(#radialGradient5204)"/>
    <path id="bottom-white" transform="translate(0,-2)" d="m108.75 262.53c-13.235 6.7272-25.232 10.917-35.412 12.215l3.1406 8.0508c12.497-2.74 26.277-8.1269 40.822-15.824-2.92-1.3667-5.7708-2.845-8.5508-4.4316z" fill="url(#linearGradient4037)"/>
    <path id="right-white" transform="translate(0,-2)" d="m289.85 55.248c-0.55981 8.4662-3.3322 18.353-8.0879 29.271 1.4 2.2267 2.7333 4.5003 4 6.8203 5.4361-12.571 8.8028-24.359 9.8555-34.982z" fill="url(#linearGradient4060)" fill-rule="evenodd"/>
  </g>
  <path id="left-yellow-halo" d="m46.15 154.56c12.851-24.577 33.552-52.853 50.53-70.16-19.184 16.918-38.242 38.928-50 53.93-42.52 54.68-55.05 102.46-41.35 125.7 11.08 18.8 32.27 23.17 53 18.83-12.4-0.08-22.86-3.75-30.6-11.48-18.48-18.97-8.2-67.73 18.4-116.82z" fill="url(#radialGradient3984)"/>
  <path id="yellow-ring-shadow" transform="translate(0,-2)" d="m217.33 35.551c-28.801 13.432-62.699 38.165-95.781 71.258-29.291 29.3-52.032 59.233-66.188 85.697 1.2925 3.734 2.7499 7.3878 4.3535 10.953 6.4429-25.294 32.58-54.181 64.28-92.234 1.749-2.0995 3.6752-5.1253 5.8179-7.2148 3.9483-5.0788 8.745-9.5056 14.154-13.086 29.879-18.073 54.304-40.563 79.551-52.885-2.0399-0.88463-4.1031-1.7144-6.1875-2.4883z" fill="url(#radialGradient5346)"/>
</svg>
