<svg fill="#fff" viewBox="0 0 5940 5940" xmlns="http://www.w3.org/2000/svg" xmlns:xlink="http://www.w3.org/1999/xlink"><linearGradient id="a" x1="50%" x2="50%" y1="0%" y2="100%"><stop offset="0" stop-color="#34aadc"/><stop offset="1" stop-color="#007aff"/></linearGradient><path id="b" d="m2354 4728-1616-1270a611 611 0 0 1 -253-480c0-180 90-352 253-480l1616-1272a1003 1003 0 0 1 616-199c233 0 450 72 616 200l1616 1270a611 611 0 0 1 253 480c0 182-90 353-253 480l-1616 1270a996 996 0 0 1 -616 201c-233 0-450-70-616-200z"/><path id="c" d="m2354 3928-1616-1270a611 611 0 0 1 -253-480c0-180 90-352 253-480l1616-1272a1003 1003 0 0 1 616-199c233 0 450 72 616 200l1616 1270a611 611 0 0 1 253 480c0 182-90 353-253 480l-1616 1270a996 996 0 0 1 -616 201c-233 0-450-70-616-200z"/><path d="m5200 3280a590 590 0 0 1 0 973l-1610 1264a1060 1060 0 0 1 -1240 0l-1610-1262a590 590 0 0 1 1-974l1610-1264c342-266 898-266 1240 0z" fill="#ff9d00"/><use fill="#fc0" xlink:href="#b"/><use fill="url(#a)" xlink:href="#c"/><path d="m2976 3395c825 0 1494-547 1494-1222 0-673-670-1223-1494-1223-826 0-1496 550-1496 1223 0 675 670 1222 1495 1222zm0 126c-910 0-1650-603-1650-1348 0-744 740-1347 1650-1347s1648 604 1648 1347c0 745-738 1348-1648 1348z"/><path d="m3086 2692c82-10 163-34 237-70l470 194-246-370a430 430 0 0 0 0-546l246-370-443 183-13 195a330 330 0 0 1 -12 538 514 514 0 0 1 -160 85l-80 160zm-220-1036c-137 18-240 70-240 70l-470-194 246 370a431 431 0 0 0 0 545l-246 370 454-187 10-183a330 330 0 0 1 3-546c45-40 146-82 160-85l80-160z" fill="#8cc8f6"/><path d="m2750 2133-63 1110 507-1030 72-1107zm-7 897 406-824-356-65-50 890z" fill-rule="evenodd"/></svg>