<svg xmlns="http://www.w3.org/2000/svg" viewBox="3 3 1039 1039"><path fill-opacity=".1" d="M969.6 351.3q-8.6-20.9-19.4-40.9a417.9 417.9 0 0 0-12.9-22.3 493.2 493.2 0 0 0-71.5-89.9C773.7 106.2 662.4 60 532 60c-130.3 0-241.6 46.1-333.8 138.3S60 401.6 60 532s46.1 241.7 138.3 333.8S401.6 1004 532 1004s241.7-46 333.8-138.2A465 465 0 0 0 976.1 696a475 475 0 0 0 27.9-164 487.1 487.1 0 0 0-20.3-141.6 461.1 461.1 0 0 0-14-39.1z"/><g fill="#4f3663"><path d="M969.8 394a514.8 514.8 0 0 0-12.1-40 438.4 438.4 0 0 0-35.5-76 489.7 489.7 0 0 0-76.3-97.8 480.9 480.9 0 0 0-127.5-92.3 443.8 443.8 0 0 0-126.2-39.7 483.7 483.7 0 0 0-80.1-6.2 518.2 518.2 0 0 0-48 2.2 449 449 0 0 0-159 44 476.3 476.3 0 0 0-126.8 92C89 269.6 43 376.9 40.2 501.9l-.1 12.2c0 130.3 46 241.7 138.2 333.8 85.3 85.3 186.8 131 304.7 137.4l1.1.1h.4c8.5.5 16.6.7 24.5.7h3a582.9 582.9 0 0 0 37.1-1.3 494.7 494.7 0 0 0 82.1-12.8c80.8-20.3 152.2-61.6 214.7-124.1A458.6 458.6 0 0 0 953.3 686a448.6 448.6 0 0 0 21.2-73 491.9 491.9 0 0 0 9.5-99v-12.3c-.9-37.3-5.6-73-14.3-107.7z"/><path d="M686.2 582.7a10.3 10.3 0 0 0-7.3-3c-78.1 0-82.8 0-110.8 53.4a10.3 10.3 0 0 0 0 9.7 10.3 10.3 0 0 0 8.1 5.3c.2 0 4.6.4 11.3.4 17 0 48.2-2.7 66.2-20.8a46.1 46.1 0 0 0 13.2-26l1.8-.1c12.2-1 20.2-1.8 20.4-11.5.1-2.7-1-5.4-2.9-7.4zm-222 50.4c-28-53.5-32.6-53.5-110.7-53.5-2.8 0-5.4 1.1-7.4 3.1a10.3 10.3 0 0 0-3 7.4c.3 9.7 8.3 10.4 20.5 11.5l1.9.1c1.6 10.1 6 18.8 13.1 26 18 18.1 49.3 20.8 66.3 20.8 6.6 0 11-.4 11.2-.4a10.3 10.3 0 0 0 8-5.3 10.3 10.3 0 0 0 .2-9.7z"/></g><path fill="#78af52" stroke="#78af52" stroke-width="14" d="M797.2 217.5c-13.6-13.6-39.1-13.2-73.7 1.1-62.4 25.9-146 96.1-164 170.9a524.5 524.5 0 0 0-47.3-2.2c-16.7 0-32.4.8-47.3 2.2-18-74.8-101.7-145-164-170.9-34.7-14.3-60.1-14.7-73.7-1.1-23.7 23.7-27.4 88.5-23.4 136.8 5 58.5 20.8 109.2 43.4 139.9-2.7 30.4-11 146 12.2 183.4 25 40.3 122.9 82.2 149.9 93.1-.3 19.1.6 62.9 13.2 80.4 17.5 24.2 67.8 34.7 89.7 34.7 21.8 0 72.2-10.5 89.6-34.7 12.7-17.5 13.5-61.6 13.2-80.8 27-10.9 125-52.4 150-92.7 23-37.4 14.8-153 12.2-183.4 51.7-70.6 59.7-237 20-276.7zm-45 289a10 10 0 0 0 5.5 2.8c3.3 47.5 5.6 132-10.2 157.5-18.2 29.3-92.2 64.6-132.6 81.3v-45.4a10.3 10.3 0 0 0-20.5 0v72.1c0 24.1-2.5 55-9.2 64.2-8.5 11.8-34.5 21-56 24.6 10.9-10 22-25.6 22-38.9 0-21.5-17.5-28.8-39-28.8s-39 7.3-39 28.8c0 13.3 11.1 29 22 39-21.5-3.6-47.5-12.9-56-24.7-6.7-9.2-9.3-39.6-9.4-63.5l.2-1.6v-71.2a10.3 10.3 0 1 0-20.6 0v45.9c-40.3-17-114.4-52.4-132.5-81.8-15.8-25.6-13.6-110-10.3-157.5 2-.4 4-1.2 5.6-2.7 4-4 4-10.6 0-14.6-24.7-24.7-42.7-76.9-47.9-139.5-4.6-55 2.7-105.8 17.4-120.5 5.1-5 21.6-6.7 51.3 5.6 65 27 154.9 104.6 154.9 180.4a10.3 10.3 0 0 0 10.3 10.2 10.3 10.3 0 0 0 10.2-10.2c0-2.7 0-5.5-.3-8.2a496.3 496.3 0 0 1 44-1.9c15.6 0 30.2.7 44 2a115 115 0 0 0-.2 8 10.3 10.3 0 1 0 20.5 0c0-75.7 90-153.4 155-180.3 29.6-12.3 46.1-10.7 51.2-5.6 31 31 24.7 204.8-30.5 260a10.3 10.3 0 0 0 0 14.6z"/><path fill="#eaeace" d="M462.6 852.5c-25.7-13-28.8-22.8-28.9-91.6 0-32-1.4-60.3-3.1-63-1.7-2.6-7-4.2-11.8-3.5-8 1-8.7 3-9.7 25.9-1 23.5-1.5 24.5-9 22.2-27.2-8.5-99.6-51.3-113.7-67.3-13-14.7-16.5-32-18.6-91.3-1.7-49.9-1.2-59 4.5-71.5l6.4-14.4-9.8-12.8c-24.6-32.3-38-80.8-40.9-147.4-2.1-50.7 1.5-79.8 12.1-96.7 17.6-28 109.3 19.6 166.5 86.7a175.6 175.6 0 0 1 38.6 79.3c2.3 13.1 5.9 22.1 9.3 23.4 6.4 2.5 15.5-3.9 15.5-10.7 0-7.2 9-9 43.7-9 24.5 0 33.4 1.3 37 5.5 12.9 15.4 14.2 16.2 20.7 12.7 4.3-2.3 7.3-9.6 8.9-21.4 7.4-56 69.8-126.3 143.7-161.7 34.8-16.7 55.5-17.6 63-3 14.6 28.3 16.4 99.4 4 158.8-6.3 31-25.5 76.6-35.5 84.8-6.5 5.3-8.3 20.4-2.9 23.8 5.5 3.3 8.3 70.8 4.5 106.2-4.7 43.7-10.8 55.8-38.1 75.2-19.3 13.7-92 52.9-98 52.9-1.2 0-2.2-9.4-2.3-21 0-24.7-3.2-30.9-14.8-29.2l-8.7 1.2-2 63.5c-1.4 44.7-3.5 66.6-7.2 74-5 10.1-20.5 20.3-39.4 25.8l-8.7 2.6 7.8-12.6c10-16.4 9.9-29-.7-41.2-11.8-13.7-42.1-16.3-60-5-11.7 7.3-12.2 8.3-10.5 25.6 1 10 4.6 21 8.3 25.1 9 10 .8 9.7-20.2-.9zm-.5-212c1.7-12.2-22.7-47.9-36.6-53.5-13.8-5.6-75.4-10-82.1-6-8.1 5-3.2 20.1 6.9 21.4 6.5.8 11 5.1 15.6 15.2 9.9 21.2 36 33.2 69.7 31.8 23-.9 25.5-1.7 26.5-9zm160.7 5.5c18.8-6.4 32.6-17.4 38-30.5 3.7-8.8 7.7-12.3 15-13.1 7.2-.8 10.4-3.5 11.2-9 1.9-13-8.6-15.7-49.6-12.5-33.3 2.6-38 3.8-47.3 12.8-13.8 13.1-30 43.4-27.2 50.7 2.7 7.1 40.7 8.2 59.9 1.6z"/></svg>