<svg xmlns="http://www.w3.org/2000/svg" image-rendering="optimizeSpeed" style="background-color:#fff" width="1024" height="1024"><path fill-opacity=".098" d="M969.65 351.3q-8.6-20.85-19.4-40.85a417.89 417.89 0 0 0-12.9-22.4c-19.55-31.7-43.4-61.65-71.55-89.8C773.65 106.1 662.35 60 532 60c-130.35 0-241.6 46.1-333.75 138.25S60 401.65 60 532s46.1 241.65 138.25 333.8S401.65 1004 532 1004s241.65-46.05 333.8-138.2c50.75-50.8 87.55-107.4 110.35-169.75C994.7 645.2 1004 590.55 1004 532c0-44.9-5.45-87.55-16.4-127.95-1.25-4.55-2.55-9.1-3.9-13.6-4.1-13.3-8.8-26.35-14.05-39.15z"/><path d="M969.75 394c-1.1-4.35-2.35-9-3.65-13.6-2.5-8.75-5.35-17.6-8.45-26.35C951.2 335.8 943.5 318 934.5 300.4c-3.8-7.4-7.95-14.95-12.3-22.4-20.3-34.5-45.8-67.2-76.35-97.75-38.95-38.95-81.35-69.7-127.5-92.35-39.3-19.3-81.45-32.55-126.15-39.7-16.25-2.6-32.8-4.4-50.05-5.35-9.7-.55-19.85-.85-30.1-.85-9.35 0-18.6.25-27.9.75-6.7.35-13.35.8-20.05 1.45-56.85 5.2-109.8 19.8-158.95 44-45.6 22.4-87.9 53.1-126.85 92.05C89.05 269.5 43 376.75 40.2 501.75q-.15 6.1-.15 12.25c0 130.35 46.1 241.65 138.25 333.8 85.25 85.25 186.85 131.05 304.7 137.4.35.05.75.05 1.15.1h.4c8.5.45 16.6.7 24.5.7h3c10.3 0 20.5-.3 30.1-.8 2.5-.15 4.75-.3 6.95-.45 20.2-1.45 39.9-4.05 58.7-7.7 7.95-1.55 15.8-3.3 23.4-5.15 80.8-20.3 152.15-61.6 214.65-124.1 6.1-6.1 12-12.25 17.5-18.3 39.85-43.85 69.75-91.6 89.85-143.5 9.1-23.45 16.15-47.75 21.3-73.05 5.2-25.8 8.3-52.65 9.25-80.45.2-6.05.3-12.25.3-18.5v-3c0-3.1-.05-6.2-.1-9.35-.85-37.2-5.55-73-14.2-107.65z" fill="#4F3663"/><path d="M686.21 582.706a10.282 10.282 0 0 0-7.343-3.083c-78.08 0-82.758 0-110.79 53.473a10.257 10.257 0 0 0 .07 9.666 10.257 10.257 0 0 0 8.062 5.33c.178.02 4.583.424 11.248.424 16.989 0 48.199-2.706 66.263-20.811 7.145-7.165 11.55-15.886 13.132-25.997.664-.055 1.295-.116 1.877-.157 12.166-1.035 20.208-1.72 20.414-11.433.068-2.761-1-5.433-2.932-7.412zm-221.955 50.39c-28.031-53.473-32.703-53.473-110.79-53.473-2.76 0-5.41 1.11-7.343 3.083a10.293 10.293 0 0 0-2.931 7.412c.205 9.706 8.247 10.398 20.413 11.433.576.048 1.22.11 1.877.157 1.59 10.125 5.994 18.832 13.132 25.997 18.064 18.112 49.267 20.811 66.263 20.811 6.658 0 11.056-.411 11.241-.425a10.278 10.278 0 0 0 8.063-5.33 10.258 10.258 0 0 0 .075-9.665z" fill="#4f3663"/><path d="M797.151 217.49c-13.59-13.584-39.06-13.18-73.674 1.158-62.372 25.84-146.027 96.096-164.03 170.839a524.485 524.485 0 0 0-47.28-2.137c-16.708 0-32.402.794-47.288 2.137-18.002-74.75-101.658-145.006-164.036-170.846-34.608-14.33-60.077-14.741-73.654-1.15-23.702 23.701-27.395 88.484-23.36 136.765 4.898 58.542 20.784 109.241 43.342 139.937-2.63 30.368-10.885 146.02 12.207 183.396 24.935 40.348 122.9 82.196 149.884 93.136-.26 19.119.63 62.872 13.22 80.34 17.496 24.27 67.853 34.772 89.685 34.772 21.838 0 72.201-10.502 89.683-34.772 12.605-17.475 13.427-61.55 13.139-80.8 27.065-10.864 125.031-52.335 149.973-92.67 23.099-37.375 14.838-153.062 12.207-183.402 51.76-70.64 59.693-236.991 19.982-276.702zm-45.04 289.089c1.575 1.575 3.569 2.35 5.603 2.692 3.33 47.568 5.556 131.943-10.248 157.508-18.146 29.367-92.197 64.598-132.545 81.333v-45.424c0-5.672-4.604-10.275-10.276-10.275s-10.275 4.603-10.275 10.275v71.181c0 .301.068.59.089.884.007 24.188-2.555 54.96-9.275 64.29-8.488 11.782-34.512 21.016-55.953 24.606 10.823-10.002 21.914-25.62 21.914-38.937 0-21.53-17.448-28.806-38.972-28.806-21.523 0-38.978 7.275-38.978 28.806 0 13.31 11.125 28.942 21.949 38.937-21.442-3.576-47.486-12.817-55.98-24.607-6.687-9.275-9.296-39.628-9.351-63.59.068-.514.15-1.042.15-1.583v-71.188c0-5.672-4.596-10.275-10.275-10.275s-10.275 4.603-10.275 10.275v45.89c-40.314-16.879-114.393-52.411-132.56-81.792-15.79-25.552-13.563-109.94-10.241-157.515 2.041-.343 4.035-1.117 5.61-2.692 4.015-4.008 4.015-10.522 0-14.53-24.763-24.77-42.677-76.921-47.91-139.505-4.61-55.131 2.712-105.816 17.406-120.517 5.097-5.097 21.565-6.693 51.26 5.61 64.941 26.901 154.906 104.529 154.906 180.334a10.27 10.27 0 0 0 10.275 10.275 10.27 10.27 0 0 0 10.275-10.275c0-2.713-.102-5.419-.3-8.125a496.262 496.262 0 0 1 44.026-1.939c15.516 0 30.148.713 44.026 1.94a114.986 114.986 0 0 0-.301 8.124c0 5.678 4.603 10.275 10.275 10.275 5.672 0 10.276-4.597 10.276-10.275 0-75.792 89.957-153.426 154.898-180.327 29.675-12.296 46.178-10.707 51.274-5.61 30.922 30.922 24.71 204.802-30.504 260.022a10.276 10.276 0 0 0 .007 14.53z" fill="#78af52" stroke="#78af52" stroke-width="14"/><path d="M462.635 852.5c-25.77-12.995-28.865-22.793-28.938-91.615 0-31.929-1.445-60.237-3.136-62.906-1.693-2.669-6.974-4.301-11.737-3.628-8.033 1.136-8.739 3.015-9.738 25.906-1.029 23.573-1.436 24.57-9.07 22.201-27.124-8.416-99.506-51.247-113.62-67.232-12.995-14.718-16.503-31.954-18.581-91.297-1.748-49.905-1.178-59.054 4.461-71.56l6.466-14.338-9.807-12.86c-24.615-32.27-38.061-80.734-40.886-147.364-2.15-50.728 1.477-79.772 12.076-96.678 17.612-28.096 109.251 19.603 166.488 86.657 19.391 22.719 33.85 52.435 38.582 79.303 2.31 13.115 5.886 22.111 9.31 23.425 6.361 2.44 15.525-3.903 15.525-10.747 0-7.175 8.914-9.014 43.694-9.014 24.508 0 33.334 1.332 36.894 5.568 12.936 15.397 14.24 16.194 20.772 12.698 4.293-2.297 7.334-9.623 8.902-21.44 7.438-56.072 69.85-126.27 143.756-161.688 34.772-16.664 55.407-17.63 62.972-2.948 14.549 28.236 16.365 99.393 4.051 158.739-6.421 30.95-25.57 76.573-35.595 84.802-6.443 5.29-8.246 20.457-2.83 23.804 5.433 3.358 8.258 70.792 4.452 106.237-4.696 43.725-10.818 55.801-38.114 75.187-19.275 13.688-91.9 52.846-98.013 52.846-1.199 0-2.204-9.388-2.235-20.863-.069-24.76-3.223-30.99-14.868-29.344l-8.66 1.225-1.996 63.495c-1.406 44.747-3.549 66.62-7.257 74.074-5.015 10.082-20.478 20.209-39.38 25.787l-8.719 2.574 7.813-12.641c10.089-16.325 9.892-28.918-.644-41.167-11.796-13.714-42.151-16.28-60.016-5.074-11.72 7.352-12.16 8.426-10.507 25.637.97 10.1 4.586 21.124 8.26 25.183 9.05 10 .81 9.614-20.127-.944zm-.54-212.074c1.73-12.162-22.682-47.804-36.612-53.454-13.789-5.592-75.425-10.027-82.092-5.906-8.096 5.004-3.223 20.042 6.904 21.304 6.47.806 10.946 5.163 15.61 15.19 9.896 21.28 36.025 33.237 69.656 31.876 23.03-.933 25.504-1.773 26.533-9.01zm160.69 5.612c18.855-6.395 32.59-17.423 38.088-30.579 3.666-8.773 7.622-12.217 15.01-13.066 7.093-.816 10.362-3.473 11.159-9.072 1.844-12.954-8.68-15.587-49.625-12.415-33.357 2.584-38.011 3.84-47.333 12.77-13.737 13.161-29.963 43.46-27.17 50.736 2.729 7.114 40.655 8.144 59.871 1.626z" fill="#eaeace"/></svg>