<svg xmlns="http://www.w3.org/2000/svg" xmlns:xlink="http://www.w3.org/1999/xlink" viewBox="0 -5 110 110">
    <defs>
        <radialGradient xlink:href="#a" id="d" gradientUnits="userSpaceOnUse" gradientTransform="matrix(.869 .495 -.409 .719 90.126 -29.997)" cx="157.011" cy="169.838" r="175.426"/>
        <radialGradient xlink:href="#b" id="e" gradientUnits="userSpaceOnUse" gradientTransform="matrix(.71 .704 -1.877 1.894 417.713 -296.071)" cx="171.779" cy="195.98" r="78.794"/>
        <radialGradient xlink:href="#c" id="f" gradientUnits="userSpaceOnUse" gradientTransform="matrix(.702 .713 -1.884 1.855 441.462 -309.291)" cx="188.84" cy="204.358" r="89.173"/>
    </defs>
    <g transform="translate(15.749 -265.302) matrix(.385 0 0 .385 -30.926 239.595)">
        <radialGradient gradientUnits="userSpaceOnUse" gradientTransform="matrix(.869 .495 -.409 .719 90.126 -29.997)" r="175.426" cy="169.838" cx="157.011" id="a">
            <stop offset=".471" stop-color="#3DC5F1"/>
            <stop offset=".79" stop-color="#31A5DC"/>
            <stop offset="1" stop-color="#1E71B8"/>
        </radialGradient>
        <path d="m204.013 271.924c-20.214 0-37.787-11.293-46.766-27.908-4.052-7.502-6.356-16.09-6.356-25.215v-.244h171.06099999999998c.508-4.504.795-9.072.795-13.711 0-66.792-54.145-120.935-120.936-120.935-66.792 0-120.937 54.144-120.937 120.935s54.145 120.936 120.937 120.936c53.076 0 98.134-34.207 114.413-81.766h-65.447c-8.977 16.615-26.552 27.908-46.764 27.908zm-2.201-133.177c27.136 0 49.306 21.229 50.829 47.983h-101.66c1.523-26.754 23.694-47.983 50.831-47.983z" fill="url(#d)"/>
        <path d="m204.429 273.173c-20.213 0-37.786-11.293-46.766-27.908-4.052-7.502-6.356-16.09-6.356-25.215v-.244h171.06c.508-4.504.795-9.072.795-13.711 0-66.792-54.145-120.935-120.936-120.935s-120.934 54.143-120.934 120.935c0 66.791 54.145 120.936 120.936 120.936 53.076 0 98.134-34.207 114.413-81.766h-65.447c-8.978 16.615-26.553 27.908-46.765 27.908zm-2.201-133.177c27.136 0 49.306 21.229 50.829 47.983h-101.66c1.524-26.754 23.694-47.983 50.831-47.983z" stroke-miterlimit="10" stroke="#fff" stroke-width="1.469" fill="none" opacity=".5"/>
        <path d="m204.013 271.924c-20.214 0-37.787-11.293-46.766-27.908-4.052-7.502-6.356-16.09-6.356-25.215v-.244h171.06099999999998c.508-4.504.795-9.072.795-13.711 0-66.792-54.145-120.935-120.936-120.935-66.792 0-120.937 54.144-120.937 120.935s54.145 120.936 120.937 120.936c53.076 0 98.134-34.207 114.413-81.766h-65.447c-8.977 16.615-26.552 27.908-46.764 27.908zm-2.201-133.177c27.136 0 49.306 21.229 50.829 47.983h-101.66c1.523-26.754 23.694-47.983 50.831-47.983z" stroke-miterlimit="10" stroke="#0f5ea8" stroke-width="1.469" fill="none"/>
        <path d="m203.597 271.508c-20.214 0-37.787-11.293-46.767-27.908-4.052-7.502-6.356-16.09-6.356-25.215v-.244h171.06099999999998c.508-4.504.795-9.072.795-13.711 0-66.792-54.145-120.936-120.936-120.936-66.792 0-120.937 54.144-120.937 120.936 0 66.791 54.145 120.936 120.937 120.936 53.076 0 98.134-34.207 114.413-81.766h-65.447c-8.976 16.615-26.551 27.908-46.763 27.908zm-2.201-133.177c27.136 0 49.306 21.229 50.829 47.983h-101.66c1.523-26.755 23.693-47.983 50.831-47.983z" stroke-miterlimit="10" stroke="#231f20" stroke-width="1.469" fill="none" opacity=".1"/>
        <radialGradient gradientUnits="userSpaceOnUse" gradientTransform="matrix(.71 .704 -1.877 1.894 417.713 -296.071)" r="78.794" cy="195.98" cx="171.779" id="b">
            <stop offset=".638" stop-color="#FFCC09"/>
            <stop offset=".871" stop-color="#F2ED7E" stop-opacity=".96"/>
            <stop offset=".892" stop-color="#F3EC79" stop-opacity=".806"/>
            <stop offset=".917" stop-color="#F4E76A" stop-opacity=".619"/>
            <stop offset=".944" stop-color="#F7E051" stop-opacity=".415"/>
            <stop offset=".973" stop-color="#FBD730" stop-opacity=".2"/>
            <stop offset="1" stop-color="#FFCC09" stop-opacity="0"/>
        </radialGradient>
        <path d="m139.395 309.66c-26.71 12.176-48.584 14.281-59.485 3.379-22.308-22.309 9.694-90.48 71.479-152.265 61.785-61.784 129.958-93.787 152.265-71.479 9.521 9.522 9.119 27.415.759 49.583 1.224 1.896 2.398 3.824 3.518 5.789 11.229-29.285 11.103-54.192-3.663-68.957-22.891-22.891-127.825 11.614-194.547 78.338-66.721 66.72-83.358 140.643-60.715 163.286 17.253 17.254 62.211 14.289 98.166-3.396-2.649-1.334-5.241-2.764-7.777-4.278z" opacity=".25" fill="url(#e)"/>
        <path d="m139.395 309.66c-26.71 12.176-48.584 14.281-59.485 3.379-22.308-22.309 9.694-90.48 71.479-152.265 61.785-61.784 129.958-93.787 152.265-71.479 9.521 9.522 9.119 27.415.759 49.583 1.224 1.896 2.398 3.824 3.518 5.789 11.229-29.285 11.103-54.192-3.663-68.957-22.891-22.891-109.786-1.605-176.507 65.118-66.723 66.723-87.764 153.861-65.12 176.506 17.253 17.254 48.578 14.289 84.533-3.396-2.651-1.334-5.243-2.764-7.779-4.278z" fill="#ffcc09"/>
        <radialGradient gradientUnits="userSpaceOnUse" gradientTransform="matrix(.702 .713 -1.884 1.855 441.462 -309.291)" r="89.173" cy="204.358" cx="188.84" id="c">
            <stop offset=".558" stop-color="#F2ED7E" stop-opacity="0"/>
            <stop offset=".74" stop-color="#FFCC09"/>
            <stop offset=".871" stop-color="#F2ED7E" stop-opacity=".96"/>
            <stop offset=".89" stop-color="#F3EB77" stop-opacity=".817"/>
            <stop offset=".919" stop-color="#F5E562" stop-opacity=".603"/>
            <stop offset=".954" stop-color="#F9DC40" stop-opacity=".344"/>
            <stop offset=".993" stop-color="#FECF12" stop-opacity=".052"/>
            <stop offset="1" stop-color="#FFCC09" stop-opacity="0"/>
        </radialGradient>
        <path d="m139.395 309.66c-26.71 12.176-48.584 14.281-59.485 3.379-22.308-22.309 9.694-90.48 71.479-152.265 61.785-61.784 129.958-93.787 152.265-71.479 9.521 9.522 9.119 27.415.759 49.583 1.224 1.896 2.398 3.824 3.518 5.789 11.229-29.285 11.103-54.192-3.663-68.957-22.891-22.891-109.786-1.605-176.507 65.118-66.723 66.723-87.764 153.861-65.12 176.506 17.253 17.254 48.578 14.289 84.533-3.396-2.651-1.334-5.243-2.764-7.779-4.278z" fill="url(#f)"/>
    </g>
</svg>
