<svg xmlns="http://www.w3.org/2000/svg" fill="#fff" stroke-linejoin="round" stroke-width=".2" viewBox="0 0 119.22 119.64"><path fill="#706cf5" d="M69.48 0c29.62 0 49.74 20.13 49.74 49.74V69.9l-.04 2.23c-.98 28.4-20.83 47.52-49.7 47.52H49.74C20.13 119.64 0 100.16 0 70.54V49.1C0 20.36 18.94 1.17 47.12.05L49.74 0z"/><path d="M61.28 96.3a38.09 38.09 0 0 0 4.02-.21l-2.5-4.95-1.52.04A31.36 31.36 0 0 1 33.21 73.8a71.17 71.17 0 0 1-7.1-4.25A36.5 36.5 0 0 0 61.27 96.3zm31.28-34.24h5.17l-.04-4.63a36.5 36.5 0 0 0-66.6-18.1c-7.9 1.12-13.3 3.98-14.5 8.4-1.2 4.43 2.02 9.64 8.3 14.63 1.7 1.35 3.6 2.68 5.72 3.97 6.9 4.22 17.03 8.5 27.15 11.24L55.63 71c-10.52-3.05-19.58-7.1-25.7-11.2a31.21 31.21 0 0 1 4.32-15.87 31.36 31.36 0 0 1 58.4 15.9v.2a34.79 34.79 0 0 1-.09 2.04zM28.4 44l-.27.56A36.25 36.25 0 0 0 25 55.88c-2.64-2.6-3.87-5.1-3.28-7.24.6-2.17 2.95-3.7 6.66-4.63zm30.5 22.78h5.3l8.87 24.8h-5.3zm18.32-.5h5.48l-7.58 21.86-3-8zm11.7 13.2h6l7.54 12.04h-6.02zm7.93-.92l2.45 3.75s3.44-1.87 3.44-5.3c0-5.42-1.7-10.58-9.8-10.58s-9.17 2.66-9.17 6.4v18.7h4.85V72.2s-.54-1.35 5.05-1.35c5.6 0 4.74 6.77 3.18 7.7z"/></svg>