<svg xmlns="http://www.w3.org/2000/svg" fill="#fff" stroke-linejoin="round" viewBox="0 0 11922 11964"><path fill="#706cf5" d="M6948 0c2962 0 4974 2013 4974 4974l-4 2240c-98 2840-2083 4752-4970 4752H4974C2013 11964 0 10016 0 7054V4910C0 2036 1894 117 4712 5l262-5z"/><path d="M6128 9630a3809 3809 0 0 0 402-21l-250-495-152 4a3136 3136 0 0 1-2807-1738 7117 7117 0 0 1-710-425 3650 3650 0 0 0 3516 2675zm3128-3424h517l-4-463a3650 3650 0 0 0-6660-1810c-790 112-1330 398-1450 840-120 443 202 964 830 1463 170 135 360 268 572 397 690 422 1703 850 2715 1124l-213-657c-1052-305-1958-710-2570-1120a3121 3121 0 0 1 432-1587 3136 3136 0 0 1 5840 1590v20a3479 3479 0 0 1-9 204zM2840 4400l-27 56a3625 3625 0 0 0-313 1132c-264-260-387-510-328-724 60-217 295-370 666-463zm3050 2278h530l887 2480h-530zm1832-50h548l-758 2186-300-800zm1170 1320h600l754 1204h-602zm793-92l245 375s344-187 344-530c0-542-170-1058-980-1058s-917 266-917 640v1870h485V7220s-54-135 505-135c560 0 474 677 318 770z"/></svg>