<svg xmlns="http://www.w3.org/2000/svg" xmlns:xlink="http://www.w3.org/1999/xlink" viewBox="19.9 19.9 152.2 152.2"><defs><rect id="d" width="152" height="152" rx="12"/><radialGradient id="f" cx="14.94%" cy="13.64%" r="100.42%"><stop offset="0" stop-color="#fff" stop-opacity=".12"/><stop offset="1" stop-color="#fff" stop-opacity="0"/></radialGradient><radialGradient id="g" cx="-.17%" cy=".1%" r="136.32%"><stop offset="0" stop-color="#1a237e" stop-opacity=".2"/><stop offset="1" stop-color="#1a237e" stop-opacity="0"/></radialGradient><radialGradient id="h" cx="85.08%" cy="13.4%" r="153.65%"><stop offset="0" stop-color="#1a237e" stop-opacity=".12"/><stop offset="1" stop-color="#1a237e" stop-opacity="0"/></radialGradient><radialGradient id="i" cx="41.34%" cy="0%" r="56.54%"><stop offset="0" stop-color="#1a237e" stop-opacity=".15"/><stop offset="1" stop-color="#1a237e" stop-opacity="0"/></radialGradient><path id="a" d="m76 136a60 60 0 1 0 0-120 60 60 0 0 0 0 120z"/><mask id="j" width="120" height="120" x="0" y="0" fill="#fff"><use xlink:href="#a"/></mask><circle id="b" cx="76" cy="76" r="28"/><mask id="k" width="56" height="56" x="0" y="0" fill="#fff"><use xlink:href="#b"/></mask><circle id="c" cx="76" cy="76" r="20"/><mask id="l" width="40" height="40" x="0" y="0" fill="#fff"><use xlink:href="#c"/></mask><mask id="e" fill="#fff"><use xlink:href="#d"/></mask></defs><g fill="none" transform="translate(20 20)"><use fill="#2879ff" xlink:href="#d"/><g stroke="#fff" stroke-opacity=".2" stroke-width=".5" mask="url(#e)"><g transform="translate(-20 -20)"><path d="m0 0 192 192m0-192-192 192m123.75-192v192m-55.5-192v192m123.75-68.25h-192m192-55.5h-192"/><circle cx="96" cy="96" r="39"/><path d="m0 96h192m-96-96v192"/></g></g><circle cx="76" cy="76" r="60" fill="url(#f)"/><path fill="#fff" d="m140 0h-128c-6.6 0-12 5.4-12 12v1c0-6.6 5.4-12 12-12h128c6.6 0 12 5.4 12 12v-1c0-6.6-5.4-12-12-12z" opacity=".2"/><path fill="#000" d="m140 151h-128c-6.6 0-12-5.4-12-12v1c0 6.6 5.4 12 12 12h128c6.6 0 12-5.4 12-12v-1c0 6.6-5.4 12-12 12z" opacity=".1"/><path fill="url(#g)" d="m49.49 67.48-24.49-24.48 26.72 45.83a27.37 27.37 0 0 1 -2.24-21.35z"/><path fill="url(#h)" d="m81.97 103-8.97 33.46 26.56-46.46a27.42 27.42 0 0 1 -17.6 13z"/><path fill="url(#i)" d="m96.1 57.43 33.42-8.93h-53.65a27.37 27.37 0 1 0 20.23 8.93z"/><g stroke="#fff" stroke-width="4"><use mask="url(#j)" xlink:href="#a"/><use mask="url(#k)" xlink:href="#b"/><use mask="url(#l)" xlink:href="#c"/></g><path fill="#fff" d="m76 48h53v2h-53zm24.25 42-26.5 45.9-1.73-1 26.5-45.9zm-48.5 0-26.5-45.9 1.73-1 26.5 45.9z"/></g></svg>