<svg viewBox="19.9 19.9 152.2 152.2" xmlns="http://www.w3.org/2000/svg" xmlns:xlink="http://www.w3.org/1999/xlink"><defs><rect id="a" height="152" rx="12" width="152"/><radialGradient id="b" cx="14.9%" cy="13.6%" r="100.4%"><stop offset="0" stop-color="#fff" stop-opacity=".1"/><stop offset="1" stop-color="#fff" stop-opacity="0"/></radialGradient><radialGradient id="c" cx="-.2%" cy=".1%" r="136.3%"><stop offset="0" stop-color="#1a237e" stop-opacity=".2"/><stop offset="1" stop-color="#1a237e" stop-opacity="0"/></radialGradient><linearGradient id="d"><stop offset="0" stop-color="#1a237e" stop-opacity=".1"/><stop offset="1" stop-color="#1a237e" stop-opacity="0"/></linearGradient><radialGradient id="e" cx="85.1%" cy="13.4%" r="153.7%" xlink:href="#d"/><radialGradient id="f" cx="41.3%" cy="0%" r="56.5%" xlink:href="#d"/><path id="g" d="m76 136a60 60 0 1 0 0-120 60 60 0 0 0 0 120z"/><mask id="h" fill="#fff" height="120" width="120" x="0" y="0"><use xlink:href="#g"/></mask><circle id="i" cx="76" cy="76" r="28"/><mask id="j" fill="#fff" height="56" width="56" x="0" y="0"><use xlink:href="#i"/></mask><circle id="k" cx="76" cy="76" r="20"/><mask id="l" fill="#fff" height="40" width="40" x="0" y="0"><use xlink:href="#k"/></mask><mask id="m" fill="#fff"><use fill="none" xlink:href="#a"/></mask></defs><g fill="none" fill-rule="evenodd" transform="translate(20 20)"><use fill="#2879ff" xlink:href="#a"/><g mask="url(#m)" stroke="#fff" stroke-opacity=".2" stroke-width=".5"><g transform="translate(-20 -20)"><path d="m0 0 192 192m0-192-192 192m123.8-192v192m-55.5-192v192m123.7-68.2h-192m192-55.5h-192"/><circle cx="96" cy="96" r="39"/><path d="m0 96h192m-96-96v192"/></g></g><circle cx="76" cy="76" fill="url(#b)" r="60"/><path d="m140 0h-128a12 12 0 0 0 -12 12v1a12 12 0 0 1 12-12h128a12 12 0 0 1 12 12v-1a12 12 0 0 0 -12-12z" fill="#fff" opacity=".2"/><path d="m140 151h-128a12 12 0 0 1 -12-12v1a12 12 0 0 0 12 12h128a12 12 0 0 0 12-12v-1a12 12 0 0 1 -12 12z" fill="#000" opacity=".1"/><path d="m49.5 67.5-24.5-24.5 26.7 45.8a27.2 27.2 0 0 1 -2.2-21.3z" fill="url(#c)"/><path d="m82 103-9 33.5 26.6-46.5a27.4 27.4 0 0 1 -17.6 13z" fill="url(#e)"/><path d="m96.1 57.4 33.4-8.9h-53.5a27.4 27.4 0 1 0 20.2 9z" fill="url(#f)"/><g stroke="#fff" stroke-width="4"><use mask="url(#h)" xlink:href="#g"/><use mask="url(#j)" xlink:href="#i"/><use mask="url(#l)" xlink:href="#k"/></g><path d="m76 48h53v2h-53zm24.3 42-26.5 45.9-1.7-1 26.5-45.9zm-48.5 0-26.5-46 1.7-1 26.5 46z" fill="#fff"/></g></svg>