<svg viewBox="0 0 256 256" fill="none" xmlns="http://www.w3.org/2000/svg"><style>.conditional{display:none}@media (min-width:1px) and (max-width:23px){#g-1-23{display:block}}@media (min-width:24px) and (max-width:63px){#g-24-63{display:block}}@media (min-width:64px) and (max-width:127px){#g-64-127{display:block}}@media (min-width:128px){#g-128-plus{display:block}}</style><g class="conditional" id="g-1-23"><rect width="256" height="256" rx="53.333" fill="#1A73E8"/><path d="M128 223.997c53.018 0 95.997-42.979 95.997-95.997S181.018 32.003 128 32.003 32.003 74.983 32.003 128c0 53.018 42.98 95.997 95.997 95.997Z" stroke="#fff" stroke-width="16"/><path d="M128 168.32c22.268 0 40.32-18.052 40.32-40.32S150.268 87.68 128 87.68 87.68 105.733 87.68 128s18.052 40.32 40.32 40.32ZM163.124 147.81l-43.733 75.749M93.038 148.14 49.306 72.391M128.417 87.68h87.466" stroke="#fff" stroke-width="16"/></g><g class="conditional" id="g-24-63"><rect width="256" height="256" rx="53.333" fill="#1A73E8"/><path d="M127.999 223.997c53.018 0 95.998-42.979 95.998-95.997s-42.98-95.997-95.998-95.997c-53.017 0-95.997 42.98-95.997 95.997 0 53.018 42.98 95.997 95.997 95.997Z" stroke="#fff" stroke-width="13.333"/><path d="M128 168.32c22.267 0 40.319-18.052 40.319-40.32S150.267 87.68 128 87.68c-22.268 0-40.32 18.052-40.32 40.32s18.052 40.32 40.32 40.32ZM163.123 147.81l-43.733 75.748M93.037 148.14 49.304 72.391M128.416 87.68h87.467" stroke="#fff" stroke-width="10.24"/></g><g class="conditional" id="g-64-127"><g clip-path="url(#clip-64-127)"><rect width="256" height="256" rx="56" fill="#1A73E8"/><path d="m5.917 5.92 244.167 244.166M250.095 5.903 5.907 250.091M178.525 0v256M77.472 0v256M256.001 178.526h-256M255.998 77.474h-256M127.998 199.396c39.432 0 71.397-31.965 71.397-71.396s-31.965-71.397-71.397-71.397c-39.43 0-71.396 31.966-71.396 71.397 0 39.431 31.965 71.396 71.396 71.396ZM-.002 128h256M127.998 0v256" stroke="#fff" stroke-opacity=".3"/><path fill-rule="evenodd" clip-rule="evenodd" d="M128 226c54.124 0 98-43.876 98-98s-43.876-98-98-98-98 43.876-98 98 43.876 98 98 98Z" stroke="#fff" stroke-width="4"/><path d="M128 177.763c27.483 0 49.763-22.28 49.763-49.763 0-27.483-22.28-49.763-49.763-49.763-27.483 0-49.763 22.28-49.763 49.763 0 27.483 22.28 49.763 49.763 49.763Z" stroke="#fff" stroke-width="4"/><path d="M128 165.04c20.456 0 37.039-16.584 37.039-37.04S148.456 90.96 128 90.96c-20.457 0-37.04 16.584-37.04 37.04s16.583 37.04 37.04 37.04ZM171.115 152.925l-42.161 73.026M84.832 152.921 42.671 79.895M128.001 78.237h84.323" stroke="#fff" stroke-width="4"/></g><defs><clipPath id="clip-64-127"><rect width="256" height="256" rx="56" fill="#fff"/></clipPath></defs></g><g class="conditional" id="g-128-plus"><g clip-path="url(#clip-128-plus)"><rect width="256" height="256" rx="56" fill="#1A73E8"/><path d="m5.917 5.92 244.167 244.166M250.095 5.903 5.907 250.091M178.525 0v256M77.472 0v256M256.001 178.526h-256M255.998 77.474h-256M127.998 199.396c39.432 0 71.397-31.965 71.397-71.396s-31.965-71.397-71.397-71.397c-39.43 0-71.396 31.966-71.396 71.397 0 39.431 31.965 71.396 71.396 71.396ZM-.002 128h256M127.998 0v256" stroke="#fff" stroke-opacity=".3" stroke-width=".5"/><path fill-rule="evenodd" clip-rule="evenodd" d="M128 227.368c54.88 0 99.368-44.488 99.368-99.368 0-54.88-44.488-99.368-99.368-99.368-54.88 0-99.368 44.488-99.368 99.368 0 54.88 44.488 99.368 99.368 99.368Z" stroke="#fff" stroke-width="3"/><path d="M128 178.458c27.867 0 50.458-22.591 50.458-50.458 0-27.867-22.591-50.458-50.458-50.458-27.867 0-50.458 22.591-50.458 50.458 0 27.867 22.591 50.458 50.458 50.458Z" stroke="#fff" stroke-width="3"/><path d="M128 167.57c21.853 0 39.569-17.716 39.569-39.57S149.853 88.43 128 88.43c-21.854 0-39.57 17.716-39.57 39.57s17.716 39.57 39.57 39.57ZM171.717 153.273l-42.75 74.046M84.23 153.269 41.48 79.224M128.001 77.542h85.5" stroke="#fff" stroke-width="3"/></g><defs><clipPath id="clip-128-plus"><rect width="256" height="256" rx="56" fill="#fff"/></clipPath></defs></g></svg>