<svg xmlns="http://www.w3.org/2000/svg" xmlns:xlink="http://www.w3.org/1999/xlink" fill="none" viewBox="-1 -1 1522 1522"><style>.e{fill:#fff}.a{stroke:#fff}.b{stop-color:#fff}.c{stop-color:#1a237e}.d{stop-opacity:0}.f{stop-opacity:.12}</style><defs><rect id="d" width="1520" height="1520" rx="120"/><radialGradient id="f" cx="15%" cy="14%" r="100%"><stop class="b f" offset="0"/><stop class="b d" offset="1"/></radialGradient><radialGradient id="g" cx="-.2%" cy=".1%" r="136%"><stop class="c" offset="0" stop-opacity=".2"/><stop class="c d" offset="1"/></radialGradient><radialGradient id="h" cx="85%" cy="13%" r="154%"><stop class="c f" offset="0"/><stop class="c d" offset="1"/></radialGradient><radialGradient id="i" cx="41%" cy="0" r="57%"><stop class="c" offset="0" stop-opacity=".15"/><stop class="c d" offset="1"/></radialGradient><path id="a" d="M760 1360a600 600 0 1 0 0-1200 600 600 0 0 0 0 1200z"/><mask id="j" width="120" height="120" x="0" y="0" class="e"><use xlink:href="#a"/></mask><circle id="b" cx="760" cy="760" r="280"/><mask id="k" width="56" height="56" x="0" y="0" class="e"><use xlink:href="#b"/></mask><circle id="c" cx="760" cy="760" r="200"/><mask id="l" width="40" height="40" x="0" y="0" class="e"><use xlink:href="#c"/></mask></defs><use fill="#2879ff" xlink:href="#d"/><g stroke-opacity=".2" stroke-width="5" class="a" xlink:href="#d"><path d="M-200-200l1920 1920m0-1920L-200 1720M1037.5-200v1920m-555-1920v1920M1720 1037.5H-200m1920-555H-200"/><circle cx="760" cy="760" r="390"/><path d="M-200 760h1920M760-200v1920"/></g><circle cx="760" cy="760" r="600" fill="url(#f)"/><path d="M1400 0H120C54 0 0 54 0 120v10C0 64 54 10 120 10h1280c66 0 120 54 120 120v-10c0-66-54-120-120-120z" class="e" opacity=".2"/><path fill="#000" d="M1400 1510H120c-66 0-120-54-120-120v10c0 66 54 120 120 120h1280c66 0 120-54 120-120v-10c0 66-54 120-120 120z" opacity=".1"/><path fill="url(#g)" d="M494.9 674.8L250 430l267.2 458.3a273.7 273.7 0 0 1-22.4-213.5z"/><path fill="url(#h)" d="M819.7 1030L730 1364.6 995.6 900a274.2 274.2 0 0 1-176 130z"/><path fill="url(#i)" d="M961 574.3l334.2-89.3H758.7A273.7 273.7 0 1 0 961 574.3z"/><g stroke-width="40" class="a"><use mask="url(#j)" xlink:href="#a"/><use mask="url(#k)" xlink:href="#b"/><use mask="url(#l)" xlink:href="#c"/></g><path d="M760 480h530v20H760zm242.5 420l-265 459-17.3-10 265-459zm-485 0l-265-459 17.3-10 265 459z" class="e"/></svg>