<svg xmlns="http://www.w3.org/2000/svg" xmlns:xlink="http://www.w3.org/1999/xlink" viewBox="19.9 19.9 152.2 152.2"><style>.m{stop-color:#1a237e}.n{stop-color:#fff}.o{fill:#fff}.p{stroke:#fff}.q{stroke-width:4}.r{stop-opacity:.12}.s{stop-opacity:0}</style><defs><rect id="d" width="152" height="152" rx="12"/><radialGradient id="f" cx="14.94%" cy="13.64%" r="100.42%" fx="14.94%" fy="13.64%"><stop class="n r" offset="0%"/><stop class="n s" offset="100%"/></radialGradient><radialGradient id="g" cx="-.17%" cy=".1%" r="136.32%" fx="-.17%" fy=".1%"><stop class="m" offset="0%" stop-opacity=".2"/><stop class="m s" offset="100%"/></radialGradient><radialGradient id="h" cx="85.08%" cy="13.4%" r="153.65%" fx="85.08%" fy="13.4%"><stop class="m r" offset="0%"/><stop class="m s" offset="100%"/></radialGradient><radialGradient id="i" cx="41.34%" cy="0%" r="56.54%" fx="41.34%" fy="0%"><stop class="m" offset="0%" stop-opacity=".15"/><stop class="m s" offset="100%"/></radialGradient><path id="a" d="M76 136a60 60 0 1 0 0-120 60 60 0 0 0 0 120z"/><mask id="j" width="120" height="120" x="0" y="0" class="o"><use xlink:href="#a"/></mask><circle id="b" cx="76" cy="76" r="28"/><mask id="k" width="56" height="56" x="0" y="0" class="o"><use xlink:href="#b"/></mask><circle id="c" cx="76" cy="76" r="20"/><mask id="l" width="40" height="40" x="0" y="0" class="o"><use xlink:href="#c"/></mask></defs><g fill="none" transform="translate(20 20)"><mask id="e" class="o"><use xlink:href="#d"/></mask><use fill="#2879ff" xlink:href="#d"/><g stroke="#fff" stroke-opacity=".2" stroke-width=".5" mask="url(#e)"><g transform="translate(-20 -20)"><path d="M0 0l192 192m0-192L0 192M123.75 0v192M68.25 0v192M192 123.75H0m192-55.5H0"/><circle cx="96" cy="96" r="39"/><path d="M0 96h192M96 0v192"/></g></g><circle cx="76" cy="76" r="60" fill="url(#f)"/><path d="M140 0H12C5.4 0 0 5.4 0 12v1C0 6.4 5.4 1 12 1h128c6.6 0 12 5.4 12 12v-1c0-6.6-5.4-12-12-12z" class="o" opacity=".2"/><path fill="#000" d="M140 151H12c-6.6 0-12-5.4-12-12v1c0 6.6 5.4 12 12 12h128c6.6 0 12-5.4 12-12v-1c0 6.6-5.4 12-12 12z" opacity=".1"/><path fill="url(#g)" d="M49.49 67.48L25 43l26.72 45.83a27.37 27.37 0 0 1-2.24-21.35z"/><path fill="url(#h)" d="M81.97 103L73 136.46 99.56 90a27.42 27.42 0 0 1-17.6 13z"/><path fill="url(#i)" d="M96.1 57.43l33.42-8.93H75.87a27.37 27.37 0 1 0 20.23 8.93z"/><use class="p q" mask="url(#j)" xlink:href="#a"/><use class="p q" mask="url(#k)" xlink:href="#b"/><use class="p q" mask="url(#l)" xlink:href="#c"/><path d="M76 48h53v2H76zm24.25 42l-26.5 45.9-1.73-1L98.52 89zm-48.5 0l-26.5-45.9 1.73-1L53.48 89z" class="o"/></g></svg>