<?xml version="1.0" encoding="UTF-8"?>
<svg width="128" height="128" viewBox="0 0 128 128" xmlns="http://www.w3.org/2000/svg">
    <path id="Path" fill="#f02d5e" stroke="none" d="M 59.101555 25.855179 L 38.467205 13.825188 L 17.8328 1.795967 C 16.937876 1.274429 15.922713 0.999924 14.889439 1 C 13.856164 1.000076 12.841103 1.274742 11.946269 1.796417 C 11.051423 2.318092 10.308314 3.068398 9.791611 3.971924 C 9.274909 4.875458 9.002869 5.900368 9.002718 6.943726 L 9.002718 55.063759 C 9.002635 56.107208 9.27459 57.132301 9.791237 58.035973 C 10.307878 58.939644 11.050976 59.68998 11.945888 60.2117 C 12.840812 60.733429 13.855974 61.008072 14.889349 61.008072 C 15.922713 61.007965 16.93791 60.733322 17.8328 60.211479 L 38.467205 48.182281 L 59.101555 36.152298 C 59.996937 35.630684 60.740326 34.880341 61.257347 33.976563 C 61.774261 33.072777 62.046551 32.04747 62.046551 31.003677 C 62.046551 29.959999 61.774261 28.934692 61.257347 28.030907 C 60.740326 27.127121 59.996937 26.376793 59.101555 25.855179 L 59.101555 25.855179 Z"/>
    <path id="path1" fill="#f02d5e" stroke="none" d="M 58.10144 92.847702 L 37.467094 80.81839 L 16.831926 68.789185 C 15.93716 68.267349 14.922119 67.992592 13.888845 67.992477 C 12.85556 67.992371 11.84043 68.267014 10.945574 68.788628 C 10.050718 69.310242 9.30772 70.060577 8.791109 70.964249 C 8.274504 71.867813 8.002581 72.892784 8.002684 73.936127 L 8.002684 122.055832 C 8.002679 123.099739 8.274596 124.124603 8.791203 125.028496 C 9.30781 125.931274 10.050863 126.681717 10.945675 127.203674 C 11.840475 127.725616 12.855493 128.000031 13.888755 128.000031 C 14.922008 128.000031 15.937058 127.725616 16.831926 127.203674 L 37.467094 115.175247 L 58.10144 103.145493 C 58.996712 102.623772 59.740326 101.873322 60.257236 100.969421 C 60.774147 100.065643 61.046436 99.040329 61.046436 97.996536 C 61.046436 96.952744 60.774147 95.927444 60.257236 95.023544 C 59.740326 94.119766 58.996712 93.369308 58.10144 92.847702 Z"/>
    <path id="path2" fill="#f02d5e" stroke="none" d="M 117.950615 59.352051 L 97.316277 47.322067 L 76.681923 35.292755 C 75.786987 34.771034 74.771866 34.496277 73.738495 34.496277 C 72.705231 34.496277 71.690002 34.77092 70.795067 35.292641 C 69.900131 35.814377 69.156967 36.564705 68.640396 37.468384 C 68.123703 38.372047 67.851753 39.397141 67.85186 40.44059 L 67.85186 88.560524 C 67.851974 89.603867 68.124153 90.628845 68.640839 91.532394 C 69.157532 92.435852 69.900581 93.18618 70.795517 93.707901 C 71.690338 94.22953 72.705345 94.504288 73.738602 94.504288 C 74.771866 94.504395 75.786987 94.229858 76.681923 93.708359 L 97.316277 81.678375 L 117.950615 69.649063 C 118.846001 69.127563 119.589615 68.377113 120.106529 67.473328 C 120.623558 66.56955 120.895615 65.544235 120.895615 64.500557 C 120.895615 63.456879 120.623558 62.431572 120.106529 61.527786 C 119.589615 60.624001 118.846001 59.87355 117.950615 59.352051 L 117.950615 59.352051 Z"/>
</svg>
