<svg color-interpolation="linearRGB" viewBox="-.4 0 64 64" xmlns="http://www.w3.org/2000/svg" xmlns:xlink="http://www.w3.org/1999/xlink"><radialGradient id="a" cx="0" cy="0" gradientTransform="matrix(.3803 0 0 -.3803 23.532 21.015)" gradientUnits="userSpaceOnUse" r="64"><stop offset=".19" stop-color="#3ff"/><stop offset=".78" stop-color="#06f"/><stop offset="1" stop-color="#0034cc"/></radialGradient><radialGradient id="b" cx="0" cy="0" gradientTransform="matrix(.3803 0 0 -.3803 23.532 21.015)" gradientUnits="userSpaceOnUse" r="64"><stop offset=".33" stop-color="#09b4b6"/><stop offset=".85" stop-color="#033784"/><stop offset="1" stop-color="#051d61"/></radialGradient><radialGradient id="c" cx="26.492" cy="14.436" gradientUnits="userSpaceOnUse" r="28.6528"><stop offset="0" stop-color="#fff"/><stop offset=".3" stop-color="#0f0"/><stop offset=".56" stop-color="#00b200"/><stop offset="1" stop-color="#008000"/></radialGradient><linearGradient id="d" gradientUnits="userSpaceOnUse" x1="-64" x2="64" y1="-64" y2="-64"><stop offset=".48" stop-color="#fffc00"/><stop offset=".87" stop-color="#ffba36"/></linearGradient><linearGradient id="e" gradientUnits="userSpaceOnUse" x1="-64" x2="64" y1="-64" y2="-64"><stop offset=".97" stop-opacity=".42"/><stop offset="1" stop-opacity=".24"/></linearGradient><radialGradient id="f" cx="0" cy="0" gradientUnits="userSpaceOnUse" r="64"><stop offset=".54" stop-color="#f00"/><stop offset=".66" stop-color="#c00000"/></radialGradient><linearGradient id="g" gradientUnits="userSpaceOnUse" x1="-64" x2="64" y1="-64" y2="-64"><stop offset="0" stop-color="#ffe5ce"/><stop offset=".82" stop-color="#ecb989"/></linearGradient><linearGradient id="h" gradientUnits="userSpaceOnUse" x1="-64" x2="64" y1="-64" y2="-64"><stop offset=".05" stop-color="#efbc8c"/><stop offset="1" stop-color="#d4aa82"/></linearGradient><linearGradient id="i" gradientUnits="userSpaceOnUse" x1="-64" x2="64" y1="-64" y2="-64"><stop offset=".7" stop-color="#ffcb9c"/><stop offset=".73" stop-color="#d4aa82"/></linearGradient><linearGradient id="j" gradientUnits="userSpaceOnUse" x1="-64" x2="64" y1="-64" y2="-64"><stop offset="0" stop-color="#262626"/><stop offset="1" stop-color="#1c1c1c"/></linearGradient><linearGradient id="k" gradientUnits="userSpaceOnUse" x1="-64" x2="64" y1="-64" y2="-64"><stop offset="0" stop-color="#ffbc34"/><stop offset="1" stop-color="#ff9c00"/></linearGradient><linearGradient id="l" gradientUnits="userSpaceOnUse" x1="-64" x2="64" y1="-64" y2="-64"><stop offset="0" stop-opacity="0"/><stop offset=".43" stop-opacity=".4"/></linearGradient><g transform="matrix(1.3646 0 0 1.358 -11.2 -.65)"><path d="m32 5.9c10.01 0 18.13 8.1 18.13 18.11s-8.12 18.13-18.13 18.13c-10 0-18.11-8.12-18.11-18.13s8.11-18.11 18.11-18.11z" fill="none" stroke="#000" stroke-width="3"/><path d="m32 5.9c10.01 0 18.13 8.1 18.13 18.11s-8.12 18.13-18.13 18.13c-10 0-18.11-8.12-18.11-18.13s8.11-18.11 18.11-18.11z" fill="url(#a)"/><path d="m47.32 14.32c-2.68-4.23-7.1-7.23-12.04-8.12-1.07-.2-2.18-.3-3.28-.3-5.06 0-10 2.19-13.41 5.96-3.6 3.96-5.28 9.45-4.52 14.75.43 2.5.67 3.26 1.34 4.66 1.82 4.17 5.2 7.55 9.36 9.37 4.75 2.07 10.3 1.98 14.98-.23-.18-.89-.92-.91-1.66-.97h-.08l.26.06c-.57-.14-1.1.13-1.64.28-.63.2-1.3.11-1.93.02-1.28-.14-2.86-.39-3.94.53h-.13-.21-3.01c-.51-.36-1-.47-1.46-.51-.04-.03-.25-.28-.25-.28-.13-.13-.23-.23-.43-.29l-1.08-.37-1.13-.41c-.09-.03-.19-.04-.31-.05-.01-.04-.01-.1-.02-.14l-.25-.39c-.35-.59-.71-1.15-1.39-1.31.08-.37-.06-.68-.15-1.06-.13-.38-.17-.79-.13-1.21l.03-.36c.03-.5.06-1-.01-1.5.78-.91.96-1.82.9-2.97l-.02-.45c0-.62.01-.69.2-.97l.1-.14c.57-.75 1.47-2.23.28-2.88l-2.93-1.59s-.38-.19-.44-.21v-.01c-.02-.86-.32-1.47-1.02-1.98l-.16-.14-.25-.33-.74-.87c-.47-.43-.92-.57-1.31-.62-.03-.07-.07-.16-.13-.22 1.04-.44 1.52-1.57 1.92-2.55.24-.55.43-1.16.86-1.63.4-.42.76-.8.65-1.42.82-.34 1.57-.74 2.27-1.17l.1-.06 1.45-.88c1.01-.61 1.46-1.43 1.81-2.55.62.06 1.15-.08 1.59-.31.78.49 2.04.5 2.7-.19.03-.01.16-.01.28-.01-.38.79 0 1.87.87 2.2.03.03.04.1.07.13-.16.06-.35.12-.35.12l-.79.9c-.17.54 0 1.11.26 1.6.01.04.02.1.02.1.02.09.06.24.11.39-.09.09-.15.19-.15.19-.82.96-2.1 1.18-2.47 2.53l-.03.16c-.41.54-.51 1.19-.15 1.77-.04.08-.08.13-.08.13-.31.6-.61 1.3-.4 1.98.17.66.73 1.15 1.24 1.59.5.42 1.01.88 1.64 1.11.74.29 1.55.22 2.29.03l.77-.23c.36-.13.71-.31 1.11-.27s.72.37 1.01.62c-.53 1.36.5 2.71 1.09 3.88 0 0 .15.24.2.29-.75 1.37-.84 2.87.3 4l.13.12c-.03 1.12.02 3.08 1.42 3.41 1.45.36 2.93-.47 3.8-1.55l.35-.43.29-.21c.3-.21.63-.47.8-.83.2-.36.21-.79.45-1.12v.01c.04.69.71 1.21 1.38 1.08.85-.13 1.36-1.04 1.69-1.74l.16-.28.03-.08c.42-.7.72-1.61.19-2.34-.45-.64-1.33-.81-1.94-.29v-.4l.02-1.3c.03-.19.45-.58.67-.81l.21-.22.24-.2c.45-.39.88-.84 1.06-1.45.08-.27.04-.69.05-.98v-.3c.04-.6-.03-1.19-.5-1.61.51-.3.9-.86 1.06-1.52.02.03.1.17.1.17.13.31.34.67.66.98-.05.74.23 1.45.57 2.11.32.63.38 1.34.37 2.04l.03.72c.02.37.06.75-.04 1.12-.09.36-.26.65-.35.99-.22.79-.28 1.61-.3 2.41-.1.67.29 1.31.83 1.51 2.05-5.29 1.45-11.41-1.61-16.21z" fill="url(#b)"/><path d="m19.57 32.16c.3-.39.68-.7.91-1.16.25-.53.1-1.37.1-1.97 0-.67 0-1.06.42-1.65.33-.42.64-.8.74-1.36-.97-.52-1.93-1.05-2.91-1.57-.26-.13-.83-.31-.96-.58-.16-.39 0-.89-.18-1.27-.16-.28-.6-.49-.82-.74-.3-.36-.53-.79-.88-1.12-.34-.32-.67-.46-1.1-.24-.46.27-.44-.44-.48-.76-.13.52-.23 1.04-.31 1.57.4 0 .35.11.38.51.01.4.02.8.02 1.2.07.19.03.27-.13.27-.07.03-.12.05-.17.06-.09.09-.17.07-.21-.03-.18-.01-.06 1.77-.05 1.92.05.57-.01 2.38.8 2.12.44.27.37.98.65 1.38.35.5.78.76.97 1.37.16.61.17 1.26.28 1.89.13.78.56 1.06 1.14 1.54.14.84.37 1.35.93 1.96.26.29.51.56.74.88.22.31.34.29.57-.04-.29-.64-.4-1.37-.36-2.1.05-.68.2-1.44-.09-2.08m6.43-25.05c.36.23.38.46.83.54.29.06.78.12 1.02-.13.59-.59 1.48-.16 2.15-.59.54-.34 1-1 1.71-1 .42 0 .69.25 1.03.46.47.25.85-.24 1.28-.38-3.35-.37-6.77.2-9.8 1.64.67.22 1.28-.13 1.78-.54m4.62 2.7c.33.02.7.24.99.12.52-.21.02-.96-.17-1.19-.16-.15-.87-.87-.74-.24.08.43.45 1.01-.08 1.31m-13 3.98c.05-.24-.09-.31-.23-.47-1.06 1.46-1.9 3.06-2.5 4.76 1.39-1.08 1.3-3.19 2.73-4.29m32.47 9.15c-.26-2.78-1.06-5.52-2.41-7.94-.69-1.25-1.54-2.41-2.52-3.45-.48-.5-.99-.99-1.53-1.44-.16-.12-.35-.37-.59-.24-.21.11-.37-.31-.31-.45-2.37-1.75-5.17-2.9-8.07-3.33.41.28.94.27 1.39.45.18.05.64.33.26.45-.75.24-1.58-.06-2.33 0-.48.03-.71.19-.74.66-.02.28-.09.78 0 1.03.11.3 1.02-.07 1.17-.23.22-.27-.06-.86.58-.68.22.48.71 1.84-.33 1.48-.26-.09-.75-.51-1.04-.38-.03 0-.08.32-.1.37-.08.17-.24.26-.43.31-.73.21-1.25.32-1.53 1.12-.12.38-.11.63-.55.78-.32.11-.67.18-1 .33-.41.21-.12.75.03 1.03.12.19.09.68.32.79.63.37 1.35-1.05 1.62-1.37.33-.44.72-.35 1.19-.5.23-.07.51-.62.75-.54.77.31 1.01 1.24 1.12 1.96.24.01.09-.6.61-.46-.4-.41-.65-.99-.71-1.57.56.38.95.76 1.11 1.38.18.63.46.99.97.36.14-.13.32-.98.58-.75.23.21.24.89-.1.98.2.19.48.1.71.04.3-.08.49-.07.79.05.35.14.73.19 1.08.21.39.03.59.35.76.64.47.77-2.34.46-2.48.45-.34-.03-.7-.04-1.02.09-.25.11-.42.43-.71.32-.32-.1-.62-.39-.89-.57-.38-.26-.77-.47-1.2-.66-.68-.3-1.47-.5-2.21-.35-.34.07-.7.23-.97.44-.36.26-.74.04-1.09.4-.52.54-.89 1.21-1.6 1.54-.28.14-.63.26-.82.52-.22.26-.22.61-.35.89s-.43.41-.19.75c.2.29.27.52.13.87-.22.5-.8 1.18-.38 1.74.41.54 1.1 1.05 1.65 1.45.61.45 1.35.41 2.03.21.65-.15 1.29-.48 1.97-.52.83-.07 1.49.48 2.07 1.01.39.35.54.48.23.98-.32.54-.11.94.15 1.5.28.53.56 1.06.84 1.6.13.22.29.43.41.68.1.26-.08.44-.21.66-.26.48-.46 1.05-.46 1.59 0 .62.29.85.7 1.24.35.36.33 1.01.3 1.47-.04.66.15 1.11.53 1.62.58.03 1.19-.01 1.72-.27.64-.3.93-.92 1.41-1.4.44-.44.92-.5 1.07-1.17.15-.82.57-1.13 1.17-1.63.54-.48.46-1.12.49-1.76.02-.74-.08-1.57.03-2.3.08-.67.74-1.2 1.17-1.67.34-.33.89-.66 1.01-1.14.08-.27.01-.61.01-.89 0-.22.08-.55-.02-.72-.25-.52-1.33-.01-1.43-.5-.09-.29-.08-.24.11-.42.23-.2 0-.41-.18-.51-.53-.32-.93-.5-1.33-1.01-.35-.47-.65-1-.94-1.53-.06-.12-.77-1.53-.35-1.41.45.16.85.7 1.15 1.02.55.6 1.03 1.23 1.37 1.96.01.09.32.27.4.31.25.18.51.33.83.3.71-.07 1.04-.71 1.08-1.34.09-.87-.58-.68-1.1-1.11-.3-.24-.49-.56-.73-.84-.16-.18-.55-.45-.42-.74.3-.19.43-.02.71.15.35.21.72.39 1.09.52.41.13 1 .01 1.35.26.2.15.35.52.5.75.22.35.44.7.61 1.08.3.56.39.96 1.08 1.17-.44.73-.01 1.58.34 2.25.39.78.45 1.56.44 2.43-.01.81.16 1.72-.19 2.48-.41.82-.48 1.94-.48 2.84.01-.05.03-.12.05-.17-.03.06-.14.53-.04.55.18.02.49-1.68.52-1.88.31-1.53.42-3.11.32-4.67m-9.93-10.79c-.26.03-.24-.41-.44-.52-.34-.16-.74.04-1.05.2-.99.54-.7-.59-.5-1.15.03-.08.66.04.78.01.32-.03.8-.19 1.06.11.25.27.45.56.73.81.34.32-.31.5-.58.54m4.88 15.89c-.31.42-.76.71-1.02 1.17-.28.53-.13 1.14-.13 1.71.56-.27.81-1.01 1.1-1.51.2-.38.66-1.1.05-1.37m-7.22 12.48c-1.44 1.03-3.66.12-5.3.3-.37.04-.73.12-1.02.37-.39.32-.54.28-1.08.28h-3.32c2.4.67 4.92.84 7.4.51 1.17-.17 2.34-.45 3.47-.82.07-.03.93-.47.62-.6-.24-.07-.55.07-.77-.04m-15.07-30.77c.32-.51.52-1.09.66-1.69-2.07 1.13-3.92 2.67-5.42 4.49.9-.3 1.74-.8 2.54-1.29.42-.25.82-.47 1.21-.73.32-.22.79-.43 1.01-.78m-1.87 27.92c-.14.09-.27.26-.43.3.45.38.94.75 1.44 1.08-.39-.42-.52-1.04-1.01-1.38" fill="url(#c)"/></g><path d="m42.18 33.74c3.32 5.03-7.39 11.16-13.18 14.86-6.26 4-14.32 4.58-15.2 2.64-.62-1.34 0-4.06 9.87-11.38 4.58-3.38 16.57-9.07 18.51-6.12z" fill="none" stroke="#000" stroke-width="4" transform="matrix(1.2583 .1812 -.1887 1.208 1.37 -11.706)"/><path d="m11.24 47.86s-6.13 4-3.13 8.38c3.09 4.51 16.13.5 16.13.5" fill="none" stroke="#000" transform="matrix(1.0562 0 0 1.0973 -.664 -6.79)"/><path d="m24.67 37.5c4.55-3.36 16.42-9.31 19.62-5.76 4.64 5.12-6.08 11.59-10.69 15.12-4.59 3.54-17.6 10.15-20.67 6.74-4.13-4.56 6.64-12.36 11.74-16.1z" fill="url(#d)" transform="matrix(1.1375 .156 -.1706 1.041 3.465 -3.732)"/><path d="m23.67 50.93 10.37-1.75 6.14-2 2.11-1.25 1-1.25.14-3.25s-5.25-.52-6-1.25c-.21-.2-1.58 2.16-3.89 2.5-2.28.32-7.12.92-7.12.92l-.63 1.5s2.25-.1 2.5.26c.8 1.17-1.37 1.14-1.37 1.14" fill="url(#e)" transform="matrix(1.0562 0 0 1.0562 -1.35 -5.488)"/><g transform="matrix(1.09039983 .051174 -.051174 1.09039983 3.648866 -7.507408)"><path d="m17.29 49.86s-.93-1.06-.25-1.86c.7-.82 2.2-1.39 2.2-1.39l.26-1.61-.13-.5.5-2.39-.63-.74-.37-6.76 5.05-6.87v-5.74l-9.12-5.5s-1.12-1-.12-2.5c1.47-2.25 9.99 4.37 9.99 4.37l.25-4.63s1.12-2 3.25-2c2.12 0 3.25 2.26 3.25 2.26l.12 4.74 3.14 2.76 9.5-.39s1.25.75 1.25 1.63c0 .73-1.25 1.63-1.25 1.63l-6.25.13-6.26 2.61.43 9.39s-1.99-.76 5.5 4c.4.23.4 1.8-1 2.74-1.06.72-3.56.86-3.56.86l-.25-1.6 1.25-1.26-6.12-1.74v-8.76l-4.55 5.12-.87 10.14s-.15 2.76-1.13 3c-2.26.5-4.08.86-4.08.86z" fill="none" stroke="#000" stroke-width="2"/><path d="m22.42 17.37-1.63 2 3.75 2.24.25 6.76-3.62 4.49 2.62 1.38 3.88-3 .87 4.76h3.13l-.5-8.76 2.51-2.13 3.32-.82.1-1.25-6.36-3.8s-.5.87-3 .87c-1.37 0-2.45-.74-2.45-.74l-1-1.26z" fill="url(#f)"/><path d="m17 48.5.67 1.1s2.83-.36 3.7-1.24c.49-.48.42-1.62.42-1.62l.45-6.5.63-4.14 1.42-1.5-3.12-2.24-1.5 2.24.07 6.64.05 5.86z" fill="url(#g)"/><path d="m28.29 35.5 3.32.1-.24 1.4 4.63 3s1.93 1.1 1.6 1.6c-.56.9-2.17 1.76-2.17 1.76l-2 .74-.39-1.6 2.14-1-6.57-2.5z" fill="url(#h)"/><path d="m20.61 19.5 1.56-1.76-5.43-3.87s-1.58-.3-2 .37c-.87 1.37.63 1.87.63 1.87z" fill="url(#g)"/></g><path d="m36.18 21.5h7.61l1 1.61-.5 1.39-8.11.37z" fill="url(#h)" transform="matrix(1.0753 .043 -.0505 .9158 4.32 -3.413)"/><g transform="matrix(1.09039983 .051174 -.051174 1.09039983 3.648866 -7.507408)"><path d="m25.87 14 1-1.26h2.37l1.5 1.26.13 4.24s-1.63 2.26-3.13 1.87c-1.29-.33-2.24-1.74-2.24-1.74z" fill="url(#i)"/><path d="m25 14.87 2.61.13.39 1.61 2-.11-.26-1.13 1.87.37s.9-3.8-3.5-4.5c-3.11-.5-3.11 3.63-3.11 3.63z" fill="url(#j)"/><path d="m24.87 18s.73 2.25 2.24 2.5c2.5.37 3.76-2.39 3.76-2.39" fill="none" stroke="#000"/></g><path d="m58.74 18.5c-.46-1.41 1.36-6.76-.88-9.13-1.95-2.07-4.86-3-4.86-3s2.2 4.72.36 6.81c-2.36 2.69-3.42 1.82-2.93-.44.5-2.31-2.74.57-3.69 2.26-8 14 .12 7.87 1.62 9.37 2 2 3.38 7.63 5.88 5.5 0 0 6.62-4.76 4.5-11.37z" fill="none" stroke="#000" stroke-width="4" transform="matrix(1.048 .2723 -.3044 .8665 3.016 .2)"/><path d="m58.74 18.5c-.46-1.41 1.36-6.76-.88-9.13-1.95-2.07-4.86-3-4.86-3s2.2 4.72.36 6.81c-2.36 2.69-3.42 1.82-2.93-.44.5-2.31-2.74.57-3.69 2.26-8 14 .12 7.87 1.62 9.37 2 2 3.38 7.63 5.88 5.5 0 0 6.62-4.76 4.5-11.37z" fill="#f00" transform="matrix(1.048 .2852 -.3044 .9074 3.676 -1.752)"/><path d="m50.04 34.1c0-2 9.96-11.1 7.96-14.1s0-4 0-6-2-4-2-4 0 2-2 4-4 2-4 2-.9-.63-.9-2.63c0-1.2-2.1 3.37-3.36 5.87-.56 1.13-1.38 2.37-2 3.26-1.14 1.87-2.2 5.87 2.5 5.24 2.2-.29 1.8 4.36 3.8 6.36z" fill="url(#k)" transform="matrix(1.048 .2765 -.3044 .88 3.676 -.456)"/><path d="m56.24 12.05c3.98 5.21-4.24 5.95-4.24 9.95-6-6 4.22-6.74 4.24-9.95zm-8 2.95c.5 4.5-1.24 5.29-3.24 7.29-1.26-2.42 0-4.79 3.24-7.29zm7.76 5c0 2 .24 1.37-2.14 6.5-2-4 .14-4.5 2.14-6.5z" fill="#ff0" transform="matrix(.8952 .2526 -.26 .804 11.474 2.25)"/><path d="m56 20c0 2 .24 1.37-2.14 6.5-2-4 .14-4.5 2.14-6.5z" fill="#ffffc9" transform="matrix(1.0562 0 0 1.0562 -9.246 11.622)"/><path d="m39.5 36 .5-.71.6-1.43s.14 1 .5 2.5c.26 1-1.6-.36-1.6-.36z" fill="#ffffc9" transform="matrix(1.733 .6466 -.4492 1.2038 -10.52 -35.196)"/><path d="m8.87 28.61s-1.28 2.75-1.37 4.75c-.13 2.05.92 3.36 1.37 3.88 1.74 2 4.5 2.76 4.5 2.76s-.82.45-2.13.74c-1.13.26-3.63-.24-3.63-.24" fill="none" stroke="#000" transform="matrix(1.0143 0 0 1.0816 -1.43 -7.23)"/><path d="m46.86 13.5c-1.27-2.55-.86-11.5 1.14-13.5-2 0-6.64 15.83-5.64 18.5 1.14 3 1.74 5.87 5.38 6.61 2.78 2.62 13.97 2.22 12.76 1.63-8.76-4.24-11.9-9.74-13.64-13.24z" fill="none" stroke="#000" stroke-width="4" transform="matrix(.557 .1225 -.1618 .3898 -19.653 18.734)"/><path d="m46.86 13.5c-1.27-2.55-.86-11.5 1.14-13.5-2 0-6.64 15.83-5.64 18.5 1.14 3 1.74 5.87 5.38 6.61 2.78 2.62 13.97 2.22 12.76 1.63-8.76-4.24-11.9-9.74-13.64-13.24z" fill="#f00" transform="matrix(.4867 .1095 -.1414 .3485 -15.746 20.19)"/><path d="m46 3.24c0 2-3.26 11.13-3 13.63.26 2.8 0 5.24 10 9 2 0-.06-2.71-2.14-4.63-1.86-1.74-6.12-13.24-4.86-18z" fill="#ff9c00" transform="matrix(.4867 .1095 -.1414 .3485 -15.746 20.19)"/><path d="m46 8c-.26-.26.6 6.11 2 10.37 1.09 3.41 9 8.13-3.14.87 0-7.63-.62-6 1.14-11.24z" fill="#ff0" transform="matrix(.4867 .1194 -.1414 .38 -15.746 18.956)"/><g fill="none" stroke="#000"><path d="m16.04 15.11s-1.43-1.5-.17-3c1.13-1.37 3.5-.11 3.5-.11" stroke-width="2" transform="matrix(.9788 .0384 -.046 .8172 4.027 -2.822)"/><path d="m26.74 13.87s1.02-2.69 2.63-2.76c3.06-.11 4.13 3.13 4.13 3.13" transform="matrix(1.09039983 .051174 -.051174 1.09039983 1.881257 -7.590609)"/><path d="m8 27.61s-5.13 3.39-5.5 7.13c-.45 4.24 4.37 5.36 4.37 5.36" transform="matrix(1.0562 0 0 1.0562 -1.192 -5.41)"/><path d="m51.74 20.5s1.59.27 3.36 1.24c2.41 1.29 5.18 3.55 5.5 5.5.26 1.5-1.38 4.85-2.1 6.62-.64 1.5-.64 3.5-1.26 5-.54 1.29-1.24 2.64-1.24 2.64" transform="matrix(1.0968 0 0 1.0562 -3.682 -5.41)"/></g><path d="m50.18 20.24 3.36 3.13 1 1.13-.5 1.37z" fill="#005275" transform="matrix(1.0562 0 0 1.0562 -1.456 -5.41)"/><path d="m32.43 37.6 3.57 2.4s1.93 1.1 1.6 1.6c-.56.9-2.17 1.76-2.17 1.76l-2 .74-.39-1.6 2.14-1-5.51-2z" fill-opacity=".42" transform="matrix(1.0562 0 0 1.0562 -1.456 -5.41)"/><path d="m41.18 23.87 8.61.13-1.11 1.37-7.64.24z" fill="url(#e)" transform="matrix(.9807 0 0 .3017 1.51 13)"/><path d="m3.5 34 .87-1v1z" fill="#900000" transform="matrix(1.4883 0 0 1.7427 .578 -31.076)"/><path d="m9.24 56.24c1.26-1.5 3.63 2.86 19-3.24 7.17-2.87 14.86-5.9 14.86-5.9l3-1.36s-8.69 6.75-17.49 9.76c-15 5.1-20.5 2.07-19.37.74z" fill="none" stroke="url(#l)" stroke-width="2" transform="matrix(1.0562 0 0 1.0562 -1.456 -4.353)"/><path d="m32.1 20.87s3.64 2.37 5.5 1.24c1.6-.96-1.1-2.87-1.1-2.87s-.69.7-1.5 1.13c-.87.44-2.9.5-2.9.5z" fill-opacity=".42" transform="matrix(1.0562 0 0 1.0562 -1.456 -5.41)"/><path d="m16 16v32h32v-32z" fill="#594635" transform="matrix(.0312 0 0 .0312 20.5 46.5)"/><path d="m16 16v32h32v-32z" fill="#594635" transform="matrix(.0312 0 0 .0312 19.5 46.5)"/><g fill="#c3a414"><path d="m16 16v32h32v-32z" transform="matrix(.0312 0 0 .0312 18.5 47.5)"/><path d="m16 16v32h32v-32z" transform="matrix(.0312 0 0 .0312 19.5 47.5)"/><path d="m16 16v32h32v-32z" transform="matrix(.0312 0 0 .0312 20.5 47.5)"/></g><path d="m16 16v32h32v-32z" fill="#9d8160" transform="matrix(.0312 0 0 .0312 18.5 9.5)"/></svg>