<svg xmlns="http://www.w3.org/2000/svg" viewBox="-.4 0 64 64"><style>.e{fill:none;stroke:#000}.a{stroke-width:4}.b{fill:#ff0}.c{fill-opacity:.42}.d{stroke-width:2}</style><radialGradient id="a" cx="0" cy="0" r="64" gradientTransform="matrix(.3803 0 0 -.3803 23.53 21.02)" gradientUnits="userSpaceOnUse"><stop offset=".19" stop-color="#3ff"/><stop offset=".78" stop-color="#06f"/><stop offset="1" stop-color="#0034cc"/></radialGradient><radialGradient id="b" cx="0" cy="0" r="64" gradientTransform="matrix(.3803 0 0 -.3803 23.53 21.02)" gradientUnits="userSpaceOnUse"><stop offset=".33" stop-color="#09b4b6"/><stop offset=".85" stop-color="#033784"/><stop offset="1" stop-color="#051d61"/></radialGradient><radialGradient id="c" cx="26.49" cy="14.44" r="28.65" gradientUnits="userSpaceOnUse"><stop offset="0" stop-color="#fff"/><stop offset=".3" stop-color="#0f0"/><stop offset=".56" stop-color="#00b200"/><stop offset="1" stop-color="green"/></radialGradient><linearGradient id="d" x1="-64" x2="64" y1="-64" y2="-64" gradientUnits="userSpaceOnUse"><stop offset=".48" stop-color="#fffc00"/><stop offset=".87" stop-color="#ffba36"/></linearGradient><linearGradient id="e" x1="-64" x2="64" y1="-64" y2="-64" gradientUnits="userSpaceOnUse"><stop offset=".97" stop-opacity=".42"/><stop offset="1" stop-opacity=".24"/></linearGradient><radialGradient id="f" cx="0" cy="0" r="64" gradientUnits="userSpaceOnUse"><stop offset=".54" stop-color="red"/><stop offset=".66" stop-color="#c00000"/></radialGradient><linearGradient id="g" x1="-64" x2="64" y1="-64" y2="-64" gradientUnits="userSpaceOnUse"><stop offset="0" stop-color="#ffe5ce"/><stop offset=".82" stop-color="#ecb989"/></linearGradient><linearGradient id="h" x1="-64" x2="64" y1="-64" y2="-64" gradientUnits="userSpaceOnUse"><stop offset=".05" stop-color="#efbc8c"/><stop offset="1" stop-color="#d4aa82"/></linearGradient><linearGradient id="i" x1="-64" x2="64" y1="-64" y2="-64" gradientUnits="userSpaceOnUse"><stop offset=".7" stop-color="#ffcb9c"/><stop offset=".73" stop-color="#d4aa82"/></linearGradient><linearGradient id="j" x1="-64" x2="64" y1="-64" y2="-64" gradientUnits="userSpaceOnUse"><stop offset="0" stop-color="#262626"/><stop offset="1" stop-color="#1c1c1c"/></linearGradient><linearGradient id="k" x1="-64" x2="64" y1="-64" y2="-64" gradientUnits="userSpaceOnUse"><stop offset="0" stop-color="#ffbc34"/><stop offset="1" stop-color="#ff9c00"/></linearGradient><linearGradient id="l" x1="-64" x2="64" y1="-64" y2="-64" gradientUnits="userSpaceOnUse"><stop offset="0" stop-opacity="0"/><stop offset=".43" stop-opacity=".4"/></linearGradient><path stroke-width="3" d="M32 5.9c10.01 0 18.13 8.1 18.13 18.11S42.01 42.14 32 42.14c-10 0-18.11-8.12-18.11-18.13S22 5.9 32 5.9z" class="e" transform="matrix(1.3646 0 0 1.358 -11.2 -.65)"/><path fill="url(#a)" d="M32 5.9c10.01 0 18.13 8.1 18.13 18.11S42.01 42.14 32 42.14c-10 0-18.11-8.12-18.11-18.13S22 5.9 32 5.9z" transform="matrix(1.3646 0 0 1.358 -11.2 -.65)"/><path fill="url(#b)" d="M47.32 14.32c-2.68-4.23-7.1-7.23-12.04-8.12-1.07-.2-2.18-.3-3.28-.3-5.06 0-10 2.19-13.41 5.96-3.6 3.96-5.28 9.45-4.52 14.75.43 2.5.67 3.26 1.34 4.66 1.82 4.17 5.2 7.55 9.36 9.37 4.75 2.07 10.3 1.98 14.98-.23-.18-.89-.92-.91-1.66-.97h-.08l.26.06c-.57-.14-1.1.13-1.64.28-.63.2-1.3.11-1.93.02-1.28-.14-2.86-.39-3.94.53h-3.35c-.51-.36-1-.47-1.46-.51-.04-.03-.25-.28-.25-.28-.13-.13-.23-.23-.43-.29l-1.08-.37-1.13-.41a1.34 1.34 0 0 0-.31-.05c-.01-.04-.01-.1-.02-.14l-.25-.39c-.35-.59-.71-1.15-1.39-1.31.08-.37-.06-.68-.15-1.06a2.88 2.88 0 0 1-.13-1.21l.03-.36c.03-.5.06-1-.01-1.5.78-.91.96-1.82.9-2.97l-.02-.45c0-.62.01-.69.2-.97l.1-.14c.57-.75 1.47-2.23.28-2.88l-2.93-1.59s-.38-.19-.44-.21v-.01c-.02-.86-.32-1.47-1.02-1.98l-.16-.14-.25-.33-.74-.87a2.29 2.29 0 0 0-1.31-.62.71.71 0 0 0-.13-.22c1.04-.44 1.52-1.57 1.92-2.55.24-.55.43-1.16.86-1.63.4-.42.76-.8.65-1.42.82-.34 1.57-.74 2.27-1.17l.1-.06 1.45-.88c1.01-.61 1.46-1.43 1.81-2.55.62.06 1.15-.08 1.59-.31.78.49 2.04.5 2.7-.19.03-.01.16-.01.28-.01-.38.79 0 1.87.87 2.2.03.03.04.1.07.13-.16.06-.35.12-.35.12l-.79.9c-.17.54 0 1.11.26 1.6a4.287 4.287 0 0 0 .13.49c-.09.09-.15.19-.15.19-.82.96-2.1 1.18-2.47 2.53l-.03.16c-.41.54-.51 1.19-.15 1.77a.8.8 0 0 1-.08.13c-.31.6-.61 1.3-.4 1.98.17.66.73 1.15 1.24 1.59.5.42 1.01.88 1.64 1.11.74.29 1.55.22 2.29.03l.77-.23c.36-.13.71-.31 1.11-.27s.72.37 1.01.62c-.53 1.36.5 2.71 1.09 3.88 0 0 .15.24.2.29-.75 1.37-.84 2.87.3 4l.13.12c-.03 1.12.02 3.08 1.42 3.41 1.45.36 2.93-.47 3.8-1.55l.35-.43.29-.21c.3-.21.63-.47.8-.83.2-.36.21-.79.45-1.12v.01c.04.69.71 1.21 1.38 1.08.85-.13 1.36-1.04 1.69-1.74l.16-.28.03-.08c.42-.7.72-1.61.19-2.34-.45-.64-1.33-.81-1.94-.29v-.4l.02-1.3c.03-.19.45-.58.67-.81l.21-.22.24-.2c.45-.39.88-.84 1.06-1.45.08-.27.04-.69.05-.98v-.3c.04-.6-.03-1.19-.5-1.61.51-.3.9-.86 1.06-1.52.02.03.1.17.1.17.13.31.34.67.66.98-.05.74.23 1.45.57 2.11.32.63.38 1.34.37 2.04l.03.72c.02.37.06.75-.04 1.12-.09.36-.26.65-.35.99-.22.79-.28 1.61-.3 2.41-.1.67.29 1.31.83 1.51 2.05-5.29 1.45-11.41-1.61-16.21z" transform="matrix(1.3646 0 0 1.358 -11.2 -.65)"/><path fill="url(#c)" d="M19.57 32.16c.3-.39.68-.7.91-1.16.25-.53.1-1.37.1-1.97 0-.67 0-1.06.42-1.65.33-.42.64-.8.74-1.36-.97-.52-1.93-1.05-2.91-1.57-.26-.13-.83-.31-.96-.58-.16-.39 0-.89-.18-1.27-.16-.28-.6-.49-.82-.74-.3-.36-.53-.79-.88-1.12-.34-.32-.67-.46-1.1-.24-.46.27-.44-.44-.48-.76-.13.52-.23 1.04-.31 1.57.4 0 .35.11.38.51.01.4.02.8.02 1.2.07.19.03.27-.13.27a.88.88 0 0 1-.17.06c-.09.09-.17.07-.21-.03-.18-.01-.06 1.77-.05 1.92.05.57-.01 2.38.8 2.12.44.27.37.98.65 1.38.35.5.78.76.97 1.37.16.61.17 1.26.28 1.89.13.78.56 1.06 1.14 1.54.14.84.37 1.35.93 1.96.26.29.51.56.74.88.22.31.34.29.57-.04-.29-.64-.4-1.37-.36-2.1.05-.68.2-1.44-.09-2.08M26 7.11c.36.23.38.46.83.54.29.06.78.12 1.02-.13.59-.59 1.48-.16 2.15-.59.54-.34 1-1 1.71-1 .42 0 .69.25 1.03.46.47.25.85-.24 1.28-.38-3.35-.37-6.77.2-9.8 1.64.67.22 1.28-.13 1.78-.54m4.62 2.7c.33.02.7.24.99.12.52-.21.02-.96-.17-1.19-.16-.15-.87-.87-.74-.24.08.43.45 1.01-.08 1.31m-13 3.98c.05-.24-.09-.31-.23-.47a18.67 18.67 0 0 0-2.5 4.76c1.39-1.08 1.3-3.19 2.73-4.29m32.47 9.15c-.26-2.78-1.06-5.52-2.41-7.94a17.06 17.06 0 0 0-2.52-3.45c-.48-.5-.99-.99-1.53-1.44-.16-.12-.35-.37-.59-.24-.21.11-.37-.31-.31-.45-2.37-1.75-5.17-2.9-8.07-3.33.41.28.94.27 1.39.45.18.05.64.33.26.45-.75.24-1.58-.06-2.33 0-.48.03-.71.19-.74.66-.02.28-.09.78 0 1.03.11.3 1.02-.07 1.17-.23.22-.27-.06-.86.58-.68.22.48.71 1.84-.33 1.48-.26-.09-.75-.51-1.04-.38-.03 0-.08.32-.1.37-.08.17-.24.26-.43.31-.73.21-1.25.32-1.53 1.12-.12.38-.11.63-.55.78-.32.11-.67.18-1 .33-.41.21-.12.75.03 1.03.12.19.09.68.32.79.63.37 1.35-1.05 1.62-1.37.33-.44.72-.35 1.19-.5.23-.07.51-.62.75-.54.77.31 1.01 1.24 1.12 1.96.24.01.09-.6.61-.46-.4-.41-.65-.99-.71-1.57.56.38.95.76 1.11 1.38.18.63.46.99.97.36.14-.13.32-.98.58-.75.23.21.24.89-.1.98.2.19.48.1.71.04.3-.08.49-.07.79.05.35.14.73.19 1.08.21.39.03.59.35.76.64.47.77-2.34.46-2.48.45-.34-.03-.7-.04-1.02.09-.25.11-.42.43-.71.32-.32-.1-.62-.39-.89-.57-.38-.26-.77-.47-1.2-.66-.68-.3-1.47-.5-2.21-.35-.34.07-.7.23-.97.44-.36.26-.74.04-1.09.4-.52.54-.89 1.21-1.6 1.54-.28.14-.63.26-.82.52-.22.26-.22.61-.35.89s-.43.41-.19.75c.2.29.27.52.13.87-.22.5-.8 1.18-.38 1.74.41.54 1.1 1.05 1.65 1.45.61.45 1.35.41 2.03.21.65-.15 1.29-.48 1.97-.52.83-.07 1.49.48 2.07 1.01.39.35.54.48.23.98-.32.54-.11.94.15 1.5.28.53.56 1.06.84 1.6.13.22.29.43.41.68.1.26-.08.44-.21.66-.26.48-.46 1.05-.46 1.59 0 .62.29.85.7 1.24.35.36.33 1.01.3 1.47-.04.66.15 1.11.53 1.62.58.03 1.19-.01 1.72-.27.64-.3.93-.92 1.41-1.4.44-.44.92-.5 1.07-1.17.15-.82.57-1.13 1.17-1.63.54-.48.46-1.12.49-1.76.02-.74-.08-1.57.03-2.3.08-.67.74-1.2 1.17-1.67.34-.33.89-.66 1.01-1.14.08-.27.01-.61.01-.89 0-.22.08-.55-.02-.72-.25-.52-1.33-.01-1.43-.5-.09-.29-.08-.24.11-.42.23-.2 0-.41-.18-.51-.53-.32-.93-.5-1.33-1.01-.35-.47-.65-1-.94-1.53-.06-.12-.77-1.53-.35-1.41.45.16.85.7 1.15 1.02.55.6 1.03 1.23 1.37 1.96.01.09.32.27.4.31.25.18.51.33.83.3.71-.07 1.04-.71 1.08-1.34.09-.87-.58-.68-1.1-1.11-.3-.24-.49-.56-.73-.84-.16-.18-.55-.45-.42-.74.3-.19.43-.02.71.15.35.21.72.39 1.09.52.41.13 1 .01 1.35.26.2.15.35.52.5.75.22.35.44.7.61 1.08.3.56.39.96 1.08 1.17-.44.73-.01 1.58.34 2.25.39.78.45 1.56.44 2.43-.01.81.16 1.72-.19 2.48-.41.82-.48 1.94-.48 2.84.01-.05.03-.12.05-.17-.03.06-.14.53-.04.55.18.02.49-1.68.52-1.88.31-1.53.42-3.11.32-4.67m-9.93-10.79c-.26.03-.24-.41-.44-.52-.34-.16-.74.04-1.05.2-.99.54-.7-.59-.5-1.15.03-.08.66.04.78.01.32-.03.8-.19 1.06.11.25.27.45.56.73.81.34.32-.31.5-.58.54m4.88 15.89c-.31.42-.76.71-1.02 1.17-.28.53-.13 1.14-.13 1.71.56-.27.81-1.01 1.1-1.51.2-.38.66-1.1.05-1.37m-7.22 12.48c-1.44 1.03-3.66.12-5.3.3-.37.04-.73.12-1.02.37-.39.32-.54.28-1.08.28H27.1c2.4.67 4.92.84 7.4.51 1.17-.17 2.34-.45 3.47-.82.07-.03.93-.47.62-.6-.24-.07-.55.07-.77-.04M22.75 9.75c.32-.51.52-1.09.66-1.69a18.617 18.617 0 0 0-5.42 4.49c.9-.3 1.74-.8 2.54-1.29.42-.25.82-.47 1.21-.73.32-.22.79-.43 1.01-.78m-1.87 27.92c-.14.09-.27.26-.43.3.45.38.94.75 1.44 1.08-.39-.42-.52-1.04-1.01-1.38" transform="matrix(1.3646 0 0 1.358 -11.2 -.65)"/><path d="M42.18 33.74C45.5 38.77 34.79 44.9 29 48.6c-6.26 4-14.32 4.58-15.2 2.64-.62-1.34 0-4.06 9.87-11.38 4.58-3.38 16.57-9.07 18.51-6.12z" class="a e" transform="matrix(1.2583 .1812 -.1887 1.208 1.37 -11.7)"/><path d="M11.24 47.86s-6.13 4-3.13 8.38c3.09 4.51 16.13.5 16.13.5" class="e" transform="matrix(1.0562 0 0 1.0973 -.66 -6.79)"/><path fill="url(#d)" d="M24.67 37.5c4.55-3.36 16.42-9.31 19.62-5.76 4.64 5.12-6.08 11.59-10.69 15.12C29.01 50.4 16 57.01 12.93 53.6c-4.13-4.56 6.64-12.36 11.74-16.1z" transform="matrix(1.1375 .156 -.1706 1.041 3.46 -3.73)"/><path fill="url(#e)" d="M23.67 50.93l10.37-1.75 6.14-2 2.11-1.25 1-1.25.14-3.25s-5.25-.52-6-1.25c-.21-.2-1.58 2.16-3.89 2.5-2.28.32-7.12.92-7.12.92l-.63 1.5s2.25-.1 2.5.26c.8 1.17-1.37 1.14-1.37 1.14" transform="translate(-1.35 -5.49) scale(1.0562)"/><path stroke-width="2.18" d="M19.95 47.745s-.96-1.204-.177-2.041c.805-.859 2.47-1.403 2.47-1.403l.366-1.743-.116-.551.667-2.58-.649-.84-.057-7.39 5.858-7.233.293-6.259-9.663-6.463s-1.17-1.148-.003-2.733c1.719-2.378 10.67 5.277 10.67 5.277l.51-5.036s1.323-2.124 3.646-2.015c2.311.109 3.428 2.631 3.428 2.631l-.112 5.175 3.283 3.17 10.378.06s1.325.883 1.28 1.842c-.037.796-1.446 1.714-1.446 1.714l-6.822-.179-6.96 2.526-.011 10.26s-2.131-.93 5.792 4.644c.425.271.344 1.983-1.23 2.936-1.193.731-3.926.756-3.926.756l-.19-1.757 1.427-1.31-6.585-2.21.449-9.553-5.224 5.35-1.467 11.012s-.305 3.002-1.386 3.214c-2.49.43-4.493.729-4.493.729z" class="e"/><path fill="url(#f)" d="M22.42 17.37l-1.63 2 3.75 2.24.25 6.76-3.62 4.49 2.62 1.38 3.88-3 .87 4.76h3.13l-.5-8.76 2.51-2.13 3.32-.82.1-1.25-6.36-3.8s-.5.87-3 .87c-1.37 0-2.45-.74-2.45-.74l-1-1.26z" transform="rotate(2.69 161.88 74.04) scale(1.0916)"/><path fill="url(#g)" d="M17 48.5l.67 1.1s2.83-.36 3.7-1.24c.49-.48.42-1.62.42-1.62l.45-6.5.63-4.14 1.42-1.5-3.12-2.24-1.5 2.24.07 6.64.05 5.86z" transform="rotate(2.69 161.88 74.04) scale(1.0916)"/><path fill="url(#h)" d="M28.29 35.5l3.32.1-.24 1.4L36 40s1.93 1.1 1.6 1.6c-.56.9-2.17 1.76-2.17 1.76l-2 .74-.39-1.6 2.14-1-6.57-2.5z" transform="rotate(2.69 161.88 74.04) scale(1.0916)"/><path fill="url(#g)" d="M20.61 19.5l1.56-1.76-5.43-3.87s-1.58-.3-2 .37c-.87 1.37.63 1.87.63 1.87z" transform="rotate(2.69 161.88 74.04) scale(1.0916)"/><path fill="url(#h)" d="M36.18 21.5h7.61l1 1.61-.5 1.39-8.11.37z" transform="matrix(1.0753 .043 -.0505 .9158 4.32 -3.41)"/><path fill="url(#i)" d="M25.87 14l1-1.26h2.37l1.5 1.26.13 4.24s-1.63 2.26-3.13 1.87c-1.29-.33-2.24-1.74-2.24-1.74z" transform="rotate(2.69 161.88 74.04) scale(1.0916)"/><path fill="url(#j)" d="M25 14.87l2.61.13.39 1.61 2-.11-.26-1.13 1.87.37s.9-3.8-3.5-4.5C25 10.74 25 14.87 25 14.87z" transform="rotate(2.69 161.88 74.04) scale(1.0916)"/><path stroke-width="1.09" d="M29.846 13.392s.68 2.491 2.315 2.841c2.707.531 4.222-2.414 4.222-2.414" class="e"/><path d="M58.74 18.5c-.46-1.41 1.36-6.76-.88-9.13-1.95-2.07-4.86-3-4.86-3s2.2 4.72.36 6.81c-2.36 2.69-3.42 1.82-2.93-.44.5-2.31-2.74.57-3.69 2.26-8 14 .12 7.87 1.62 9.37 2 2 3.38 7.63 5.88 5.5 0 0 6.62-4.76 4.5-11.37z" class="a e" transform="matrix(1.048 .2723 -.3044 .8665 3.02 .2)"/><path fill="red" d="M59.604 31.788c-.053-1.411 3.483-5.747 1.857-8.536-1.413-2.434-4.18-4.108-4.18-4.108s.869 4.91-1.696 6.282c-3.292 1.768-4.138.676-2.936-1.235 1.227-1.954-3.045-.264-4.555.998-12.646 10.422-2.27 7.176-1.155 8.965 1.487 2.385 1.22 7.887 4.488 6.667 0 0 8.387-2.43 8.177-9.033z"/><path fill="url(#k)" d="M50.04 34.1C50.04 32.1 60 23 58 20s0-4 0-6-2-4-2-4 0 2-2 4-4 2-4 2-.9-.63-.9-2.63c0-1.2-2.1 3.37-3.36 5.87-.56 1.13-1.38 2.37-2 3.26-1.14 1.87-2.2 5.87 2.5 5.24 2.2-.29 1.8 4.36 3.8 6.36z" transform="matrix(1.048 .2765 -.3044 .88 3.68 -.46)"/><path d="M58.687 26.144c2.208 5.195-5.343 3.713-6.383 6.93-3.81-6.34 5.53-4.354 6.383-6.93zm-7.929.351c-.722 3.745-2.485 3.94-4.795 5.043-.5-2.264 1.245-3.851 4.795-5.043zm5.647 5.98c-.52 1.609-.141 1.163-3.606 4.686-.75-3.721 1.296-3.583 3.606-4.685z" class="b"/><path fill="#ffffc9" d="M49.901 32.746c0 2.112.254 1.447-2.26 6.865-2.112-4.224.148-4.753 2.26-6.865zm-8.139.935l1.186-.53 1.682-1.334s-.207 1.294-.257 3.332c.002 1.372-2.61-1.468-2.61-1.468z"/><path d="M8.87 28.61s-1.28 2.75-1.37 4.75c-.13 2.05.92 3.36 1.37 3.88 1.74 2 4.5 2.76 4.5 2.76s-.82.45-2.13.74c-1.13.26-3.63-.24-3.63-.24" class="e" transform="matrix(1.0143 0 0 1.0816 -1.43 -7.23)"/><path d="M46.86 13.5C45.59 10.95 46 2 48 0c-2 0-6.64 15.83-5.64 18.5 1.14 3 1.74 5.87 5.38 6.61 2.78 2.62 13.97 2.22 12.76 1.63C51.74 22.5 48.6 17 46.86 13.5z" class="a e" transform="matrix(.557 .1225 -.1618 .3898 -19.65 18.73)"/><path fill="red" d="M5.152 30.026c-.258-1.028 1.207-4.102 2.464-4.58-.974-.219-5.47 4.79-5.361 5.83.13 1.17.017 2.236 1.684 2.892.982 1.218 6.485 2.304 5.98 1.966-3.665-2.437-4.415-4.698-4.767-6.108z"/><path fill="#ff9c00" d="M6.184 26.356c-.283.697-3.16 3.522-3.387 4.422-.27 1.004-.741 1.826 3.594 4.231.973.22.354-.95-.387-1.848-.659-.81-1.106-5.284.18-6.805z"/><path d="M5.511 27.488c-.09-.13-.572 2.394-.493 4.18.048 1.426 3.23 4.164-1.651-.045 1.079-2.899.546-2.354 2.144-4.135z" class="b"/><g class="e"><path d="M16.04 15.11s-1.43-1.5-.17-3c1.13-1.37 3.5-.11 3.5-.11" class="d" transform="matrix(.9788 .0384 -.046 .8172 4.03 -2.82)"/><path stroke-width="1.09" d="M30.329 8.902s1.25-2.881 3.009-2.875c3.342.036 4.343 3.624 4.343 3.624"/><path stroke-width="1.06" d="M7.258 23.752s-5.419 3.58-5.81 7.53c-.475 4.479 4.616 5.662 4.616 5.662"/><path d="M51.74 20.5s1.59.27 3.36 1.24c2.41 1.29 5.18 3.55 5.5 5.5.26 1.5-1.38 4.85-2.1 6.62-.64 1.5-.64 3.5-1.26 5C56.7 40.15 56 41.5 56 41.5" transform="matrix(1.0968 0 0 1.0562 -3.68 -5.41)"/></g><path fill="#005275" d="M51.544 15.967l3.549 3.306 1.056 1.194-.528 1.447z"/><path d="M32.797 34.303l3.77 2.535s2.039 1.162 1.69 1.69c-.591.95-2.292 1.859-2.292 1.859l-2.112.781-.412-1.69 2.26-1.056-5.82-2.112z" class="c"/><path fill="url(#e)" d="M41.18 23.87l8.61.13-1.11 1.37-7.64.24z" transform="matrix(.9807 0 0 .3017 1.51 13)"/><path fill="#900000" d="M5.787 28.176l1.295-1.743v1.743z"/><path fill="none" stroke="url(#l)" d="M9.24 56.24c1.26-1.5 3.63 2.86 19-3.24 7.17-2.87 14.86-5.9 14.86-5.9l3-1.36s-8.69 6.75-17.49 9.76c-15 5.1-20.5 2.07-19.37.74z" class="d" transform="translate(-1.46 -4.35) scale(1.0562)"/><path d="M32.448 16.633s3.845 2.503 5.81 1.31c1.689-1.014-1.163-3.032-1.163-3.032s-.728.74-1.584 1.194c-.919.465-3.063.528-3.063.528z" class="c"/><path fill="#594635" d="M21 47v.998h.998v-.999zm-1 0v.998h.998v-.999z"/><path fill="#c3a414" d="M19 48v.998h.998v-.999zm1 0v.998h.998v-.999zm1 0v.998h.998v-.999z"/><path fill="#9d8160" d="M19 10v.998h.998v-.999z"/></svg>