<svg xmlns="http://www.w3.org/2000/svg" viewBox="-1477 4524 973 973"><path fill="#dbc01d" d="M-637 5270l-305 176a94 94 0 0 1-97 0l-305-176c-30-18-48-50-48-84v-352c0-35 18-66 48-84l305-176c30-18 66-18 97 0l305 176c30 18 48 50 48 84v352a93 93 0 0 1-48 84z"/><path fill="#383307" d="M-1056 4732s1 57-22 123c-16 47-38 71-90 125-25 25-95 87-148 154a574 574 0 0 0-64 97s9 23 37 40l74 43 34-56c15-23 40-54 40-54l80 122 115-77-97-145s46-44 58-58l32-37s49 29 68 42c28 18 64 47 64 47l-101 151 115 77 84-125 47 68c11 17 23 42 23 42l70-40c29-17 40-45 40-45s-31-56-59-93c-29-39-70-83-89-103-34-33-93-79-123-99-27-18-75-44-75-44s11-31 18-77c4-28 6-75 6-75z"/></svg>