<svg xmlns="http://www.w3.org/2000/svg" xmlns:xlink="http://www.w3.org/1999/xlink" viewBox="0 0 200 200"><clipPath id="a"><path d="M11.6 100.68h78.2v58.75H11.6z"/></clipPath><filter id="b" width="132.57" height="131.1" x="-15.59" y="64.5" filterUnits="userSpaceOnUse"><feColorMatrix values="1 0 0 0 0 0 1 0 0 0 0 0 1 0 0 0 0 0 1 0"/></filter><clipPath id="c"><path d="M89.8 141.88l-1.66 2.14-.72.87a125.28 125.28 0 0 1-12.81 13.58l-1.03.96a122.49 122.49 0 0 1-47.43-35.85 120.49 120.49 0 0 1-4.2-5.54 118.6 118.6 0 0 1-10.35-17.36l.3.01c.12.05.22.06.34.1 11.42 12.87 38.48 39.62 77.57 41.1"/></clipPath><mask id="d" width="132.57" height="131.1" x="-15.59" y="64.5" maskUnits="userSpaceOnUse"><path fill="url(#f)" d="M35.9 64.5l81.1 54.43-51.5 76.67-81.1-54.43z" clip-path="url(#c)" filter="url(#b)"/></mask><linearGradient id="e" gradientUnits="userSpaceOnUse"><stop offset="0"/><stop offset=".16" stop-color="#030303"/><stop offset=".29" stop-color="#0d0d0d"/><stop offset=".41" stop-color="#1e1e1e"/><stop offset=".53" stop-color="#363636"/><stop offset=".63" stop-color="#555"/><stop offset=".74" stop-color="#7b7b7b"/><stop offset=".84" stop-color="#a7a7a7"/><stop offset=".94" stop-color="#dadada"/><stop offset="1" stop-color="#fff"/></linearGradient><linearGradient id="f" x1="73.1" x2="48.91" y1="95.09" y2="131.12" xlink:href="#e" /><linearGradient id="g" gradientUnits="userSpaceOnUse"><stop offset="0" stop-color="#fdffff"/><stop offset=".91" stop-color="#fdffff"/><stop offset="1" stop-color="#fdffff"/></linearGradient><linearGradient id="h" x1="73.1" x2="48.91" y1="95.09" y2="131.12" xlink:href="#g" /><clipPath id="i"><path d="M0 40.02h112.2V86H0z"/></clipPath><filter id="j" width="154.78" height="149.84" x="-21.3" y="-11.93" filterUnits="userSpaceOnUse"><feColorMatrix values="1 0 0 0 0 0 1 0 0 0 0 0 1 0 0 0 0 0 1 0"/></filter><clipPath id="k"><path d="M112.2 43.56C108.1 44.7 57.03 44.34 5.6 86A124.56 124.56 0 0 1 0 61.18a166.78 166.78 0 0 1 19.1-9.14 176.24 176.24 0 0 1 11.06-3.98l1.96-.6a76.28 76.28 0 0 1 3.45-1.02 160.5 160.5 0 0 1 16.29-3.78c.3-.07.6-.1.93-.17l2.5-.4a166 166 0 0 1 24-2.05 166.4 166.4 0 0 1 32.73 2.83z"/></clipPath><mask id="l" width="154.78" height="149.84" x="-21.3" y="-11.93" maskUnits="userSpaceOnUse"><path fill="url(#m)" d="M34.85-11.93l98.63 66.2-56.14 83.64L-21.3 71.7z" clip-path="url(#k)" filter="url(#j)"/></mask><linearGradient id="m" x1="138.86" x2="50.3" y1="-68.72" y2="63.21" xlink:href="#e" /><linearGradient id="n" x1="138.86" x2="50.3" y1="-68.72" y2="63.21" xlink:href="#g" /><path fill="#4499d4" d="M114.38 77.83l-.13-1.85a131.67 131.67 0 0 0-1.6-12.48l-.46-2.44c-.07-.23-.1-.48-.16-.7a166.22 166.22 0 0 0-21.01-2.56 165.26 165.26 0 0 0-35.72 1.78l-2.5.4-.94.18a159.75 159.75 0 0 0-16.28 3.78 76.64 76.64 0 0 0-3.46 1.02l-1.95.6a176.47 176.47 0 0 0-11.06 3.98A166.8 166.8 0 0 0 0 78.68a124.64 124.64 0 0 0 5.58 24.83 122.16 122.16 0 0 0 5.99 14.62c0 .02.03.04.03.05a118.65 118.65 0 0 0 10.35 17.36 118.15 118.15 0 0 0 4.2 5.54 122.48 122.48 0 0 0 47.43 35.85l1.03-.95c3.8-3.45 7.84-7.6 11.9-12.46l.9-1.12c.25-.3.47-.6.72-.88l1.66-2.13a124 124 0 0 0 12.65-20.62l.8-1.67a120.3 120.3 0 0 0 5.44-13.83l.55-1.68c.02-.1.05-.2.1-.3v-.02a119.26 119.26 0 0 0 3.37-14.06l.15-.8.3-1.85a119.42 119.42 0 0 0 1.36-13.36l.04-1.9c.15-4.02.06-7.84-.2-11.47M53.3 105.97a6.78 6.78 0 0 1-.52-1.3 6.1 6.1 0 0 1-.3-1.26 8.95 8.95 0 0 1 .12-3.59 6.51 6.51 0 0 1 .57-1.56 8.86 8.86 0 0 1 6.68-5.1 8.9 8.9 0 0 1 9.82 5.64 8.91 8.91 0 0 1 .45 1.72 8.79 8.79 0 0 1-1.95 7.16 10.18 10.18 0 0 1-1.52 1.48l4.7 12.75-13.25.05.2-5.04.2-6.44a8.9 8.9 0 0 1-5.2-4.5zM168.35 89.9c-2.64 1.05-5.36 1.96-8.03 3.02-3.2 1.28-6.5 2.18-9.74 3.28-3.24 1.14-6.6 2-9.9 2.85l-4.95 1.35-5.02 1.1a117.6 117.6 0 0 1-10.12 2.02l-1 .17a126.74 126.74 0 0 0 .7-15.71 212.97 212.97 0 0 0 38.67-14.85c.78 6.43 4 12.52 9.37 16.78m29-11.1a15.9 15.9 0 0 1-17.96 6.34 14.73 14.73 0 0 1-4.02-1.91 15.82 15.82 0 0 1-6.95-15.35 15.65 15.65 0 0 1 2.49-6.64 15.89 15.89 0 0 1 22-4.43 15.88 15.88 0 0 1 4.44 21.98"/><path fill="#515050" d="M79.56 23.67a86.35 86.35 0 0 1 14.36-4.22 86.45 86.45 0 0 1 71.91 17.8l-.4.2-13.68 6.6a72.78 72.78 0 0 0-60.33-9.73 57.99 57.99 0 0 0-11.86-10.65m96.15 23.7l-1.25.86-3.7 2.45a305.24 305.24 0 0 0-3.88 2.4l-2.62 1.6-5.62 3.22-4.37 2.33-4.5 2.27a215.03 215.03 0 0 1-19.29 8.33 249.74 249.74 0 0 1-11.03 3.77 134.12 134.12 0 0 0-1.87-11.57l-.4-1.94 9.75-1.97c6.6-1.57 13.04-3.33 19.2-5.4 1.55-.5 3.06-1.1 4.56-1.6l4.47-1.65 3.27-1.35c1.8-.7 3.5-1.42 5.2-2.2a280.41 280.41 0 0 1 4.04-1.81l4.08-2.02a86.95 86.95 0 0 1 2.3 2.4 30.1 30.1 0 0 1 1.66 1.88m19.43 42.1l-3.8 2.06a60.66 60.66 0 0 1-3.69 1.9l-26.9 12.7c-1.25.6-2.62 1.08-3.9 1.6-2.63 1.04-5.2 2.17-7.88 3.1l-8.02 2.82c-2.65.93-5.4 1.6-8.13 2.35l-8.22 2.18c-2.63.66-5.15 1.45-7.8 1.9a113.54 113.54 0 0 1-2.1 7.73 138.3 138.3 0 0 1-3.2 9.22c.16-.5 33.4 5.05 66.8-23.64.9 5.9-9.22 20.17-12.93 24.7-16.83 20.7-42.12 28.78-68.1 25.65a132.94 132.94 0 0 1-12.3 15.17c.2.08.43.13.66.2l3.28.9c2.3.55 4.66.85 6.98 1.25 2.3.5 4.65.58 7.04.73 2.36.1 4.7.4 7.08.2l7.16-.32 8.54-1.27c.34-.07.47-.05.96-.17l.86-.2 3.43-.87c1.13-.3 2.3-.54 3.43-.9l6.65-2.32 6.45-2.9c1.05-.54 2.06-1.12 3.1-1.7l3.1-1.68c1.02-.57 1.97-1.3 2.97-1.93a53.47 53.47 0 0 0 5.73-4.1c1.86-1.45 3.74-2.86 5.4-4.55 1.76-1.6 3.53-3.2 5-4.93l2.35-2.54.57-.65.64-.7 1.08-1.4c1.38-1.87 2.92-3.68 4.13-5.66l1.94-2.94a93.5 93.5 0 0 0 1.76-3.07c1.25-2.05 2.23-4.13 3.22-6.2a59.22 59.22 0 0 0 2.7-6.52l1.2-3.3c.35-1.1.64-2.26 1-3.4l.93-3.4.7-3.4c.5-2.22.8-4.65 1.1-6.95.33-2.34.37-4.56.57-6.98.08-2.28-.02-4.7-.06-6.97V88.7zM90.23 52.94a162.7 162.7 0 0 0-11.73-.24 36.77 36.77 0 0 0-6.2-10.52 22.64 22.64 0 0 0-1.7-1.87A26.64 26.64 0 0 0 60 33.57a21.5 21.5 0 0 0-2.77-.72 20.7 20.7 0 0 0-7.23-.12c-11.75 1.92-20 13.74-20.63 28A168.8 168.8 0 0 0 18.3 64.7c-.85-21.32 11.68-39.88 29.93-42.85a32.6 32.6 0 0 1 20.4 3.46 34.6 34.6 0 0 1 2.74 1.61 41.04 41.04 0 0 1 9.16 7.94 54 54 0 0 1 1.86 2.32 48.74 48.74 0 0 1 7.84 15.76"/><g transform="translate(0 17.5)"><g clip-path="url(#a)" opacity=".2"><path fill="url(#h)" d="M35.9 64.5l81.1 54.43-51.5 76.67-81.1-54.43z" clip-path="url(#c)" mask="url(#d)"/></g><g clip-path="url(#i)" opacity=".25"><path fill="url(#n)" d="M34.85-11.93l98.63 66.2-56.14 83.64L-21.3 71.7z" clip-path="url(#k)" mask="url(#l)"/></g></g></svg>