<svg xmlns="http://www.w3.org/2000/svg" xmlns:xlink="http://www.w3.org/1999/xlink" version="1.0" width="200" height="200" enable-background="new 0 0 200 165"><path d="M114.382 77.832c-.027-.615-.09-1.25-.128-1.852a131.668 131.668 0 0 0-1.598-12.477c-.128-.58-.224-1.159-.331-1.709-.043-.25-.096-.482-.139-.734-.065-.23-.108-.479-.159-.7a166.222 166.222 0 0 0-21.007-2.563c-3.9-.233-7.823-.309-11.726-.263-7.996.096-16.008.776-23.996 2.047-.829.116-1.677.266-2.511.407-.316.061-.633.102-.935.175a159.754 159.754 0 0 0-16.285 3.78 76.644 76.644 0 0 0-3.453 1.017c-.657.19-1.32.395-1.957.6a176.472 176.472 0 0 0-11.058 3.982A166.797 166.797 0 0 0 0 78.676a124.64 124.64 0 0 0 5.58 24.83 122.155 122.155 0 0 0 5.986 14.626c.004.013.033.036.036.05a118.649 118.649 0 0 0 10.347 17.362 118.152 118.152 0 0 0 4.203 5.538c15.453 19.22 33.683 29.99 47.425 35.847.103-.097.218-.182.317-.28.234-.224.49-.455.725-.672 3.799-3.45 7.838-7.589 11.896-12.453.301-.378.616-.745.916-1.129.249-.288.473-.589.721-.877.534-.699 1.104-1.408 1.659-2.132a124.002 124.002 0 0 0 12.647-20.618c.279-.564.543-1.108.799-1.67 2.012-4.303 3.85-8.91 5.443-13.83.178-.544.36-1.096.548-1.675.026-.104.051-.206.099-.309l-.003-.013a119.26 119.26 0 0 0 3.374-14.064c.054-.264.097-.542.15-.785.11-.63.209-1.238.293-1.855a119.421 119.421 0 0 0 1.366-13.359c.022-.646.046-1.269.043-1.909.15-4.018.055-7.843-.188-11.467m-61.049 28.141a6.776 6.776 0 0 1-.519-1.298 6.093 6.093 0 0 1-.303-1.262 8.947 8.947 0 0 1 .121-3.59 6.51 6.51 0 0 1 .563-1.567 8.856 8.856 0 0 1 6.681-5.099c3.657-.594 7.153 1.083 8.996 4.026.342.493.6 1.052.824 1.62a8.91 8.91 0 0 1 .45 1.716 8.79 8.79 0 0 1-1.95 7.165 10.176 10.176 0 0 1-1.517 1.475l2.373 6.455 2.328 6.291-13.25.051.208-5.034.188-6.446a8.906 8.906 0 0 1-5.189-4.49z" fill="#4499d4"/><path d="M79.557 23.672a86.346 86.346 0 0 1 14.359-4.223c26.396-5.345 52.485 1.967 71.917 17.8l-.402.197-13.682 6.597C136.123 33.584 116.51 29.055 96.66 33.078c-1.77.342-3.516.762-5.24 1.243-3.52-4.149-7.524-7.737-11.863-10.649m96.149 23.7c-.405.284-.825.57-1.251.854-1.214.791-2.427 1.66-3.687 2.458a305.235 305.235 0 0 0-3.884 2.405c-.865.524-1.722 1.062-2.623 1.586-1.829 1.071-3.714 2.125-5.626 3.23-1.428.805-2.894 1.506-4.37 2.327-1.481.715-2.977 1.57-4.506 2.271-6.083 3.027-12.559 5.767-19.287 8.327a249.741 249.741 0 0 1-11.028 3.772 134.117 134.117 0 0 0-1.875-11.575l-.408-1.94c3.266-.575 6.543-1.24 9.762-1.965 6.595-1.574 13.042-3.333 19.208-5.403 1.553-.487 3.054-1.096 4.563-1.592 1.483-.564 3.008-1.068 4.465-1.658 1.091-.463 2.204-.92 3.273-1.349 1.79-.703 3.502-1.424 5.199-2.197a280.414 280.414 0 0 1 4.037-1.817c1.313-.634 2.573-1.274 3.882-1.916.05-.023.111-.044.198-.097a86.955 86.955 0 0 1 2.303 2.401c.568.608 1.131 1.22 1.655 1.878m19.433 42.098c-1.269.666-2.551 1.378-3.794 2.064-1.232.671-2.447 1.315-3.693 1.887l-7.684 3.636-15.396 7.261-3.834 1.811c-1.247.591-2.616 1.076-3.901 1.594-2.623 1.041-5.188 2.164-7.878 3.111l-8.021 2.82c-2.649.93-5.389 1.61-8.129 2.35l-8.223 2.174c-2.626.666-5.15 1.45-7.795 1.916a113.538 113.538 0 0 1-2.11 7.726 138.298 138.298 0 0 1-3.196 9.22c.169-.486 33.415 5.047 66.8-23.642.911 5.91-9.217 20.17-12.925 24.716-16.827 20.704-42.122 28.773-68.112 25.648a132.936 132.936 0 0 1-12.303 15.166c.22.087.435.132.669.207l3.273.904c2.31.537 4.667.837 6.988 1.237 2.298.514 4.65.584 7.031.738 2.364.111 4.7.408 7.08.197l7.163-.323 6.841-1.02 1.703-.25c.342-.07.47-.05.96-.17l.855-.205 3.432-.867c1.128-.3 2.289-.536 3.426-.907l3.336-1.157 3.322-1.166 3.228-1.442 3.221-1.44c1.05-.543 2.062-1.12 3.109-1.69l3.103-1.684c1.011-.574 1.967-1.308 2.965-1.929 1.963-1.276 3.941-2.563 5.731-4.096 1.862-1.45 3.734-2.863 5.407-4.55 1.748-1.6 3.517-3.194 5-4.933l2.345-2.539.57-.652.635-.714c.356-.459.725-.929 1.084-1.382 1.381-1.874 2.914-3.68 4.13-5.665l1.939-2.937c.613-1.008 1.185-2.052 1.764-3.077 1.241-2.044 2.228-4.128 3.214-6.199 1.032-2.01 1.939-4.417 2.704-6.515l1.198-3.289c.348-1.1.643-2.258.984-3.39l.938-3.388.696-3.407c.51-2.218.808-4.649 1.115-6.944.33-2.346.368-4.563.567-6.98.083-2.28-.02-4.689-.057-6.976l-.011-1.639z" fill="#515050"/><path d="M168.355 89.911c-2.647 1.046-5.367 1.961-8.031 3.023-3.205 1.274-6.514 2.178-9.742 3.276-3.239 1.141-6.608 1.995-9.887 2.847l-4.954 1.352-5.018 1.087c-3.347.77-6.741 1.551-10.12 2.023l-.991.17a126.74 126.74 0 0 0 .707-15.709c13.007-3.67 26.175-8.503 38.66-14.853.782 6.435 4.007 12.522 9.376 16.784m29.008-11.11c-4.015 6-11.408 8.422-17.958 6.354a14.732 14.732 0 0 1-4.026-1.918c-5.25-3.479-7.743-9.507-6.952-15.342a15.655 15.655 0 0 1 2.493-6.642c4.842-7.284 14.699-9.278 21.995-4.437 7.287 4.84 9.278 14.683 4.448 21.985" fill="#4499d4"/><path d="M90.231 52.944a162.707 162.707 0 0 0-11.728-.245c-1.549-3.979-3.678-7.553-6.206-10.515a22.642 22.642 0 0 0-1.691-1.873c-3.12-3.167-6.73-5.466-10.607-6.74a21.5 21.5 0 0 0-2.765-.72 20.705 20.705 0 0 0-7.231-.124c-11.748 1.927-20.009 13.738-20.635 28-3.762 1.188-7.412 2.537-11.065 3.976-.853-21.32 11.678-39.88 29.927-42.852 7.08-1.16 14.115.197 20.397 3.457a34.595 34.595 0 0 1 2.747 1.614c3.339 2.098 6.437 4.784 9.16 7.935a54.004 54.004 0 0 1 1.854 2.321c3.425 4.522 6.122 9.871 7.843 15.766" fill="#515050"/><g transform="translate(0 17.5)" opacity=".21"><defs><path id="a" d="M11.602 100.681H89.81v58.748H11.602z"/></defs><clipPath id="b"><use xlink:href="#a" overflow="visible" width="100%" height="100%"/></clipPath><g clip-path="url(#b)"><defs><path id="c" d="M89.81 141.885c-.555.726-1.124 1.434-1.659 2.133-.248.288-.472.589-.72.877-.3.383-.615.75-.916 1.128-4.057 4.864-8.098 9.002-11.896 12.454-.235.216-.49.45-.725.67-.1.099-.215.183-.318.281-13.742-5.857-31.972-16.627-47.425-35.845a120.49 120.49 0 0 1-4.203-5.539 118.605 118.605 0 0 1-10.347-17.364c.099 0 .2.013.3.013.116.045.217.059.335.082 11.421 12.877 38.486 39.625 77.574 41.11"/></defs><clipPath id="e"><use xlink:href="#c" overflow="visible" width="100%" height="100%"/></clipPath><defs><filter id="d" filterUnits="userSpaceOnUse" x="-15.589" y="64.504" width="132.574" height="131.105"><feColorMatrix values="1 0 0 0 0 0 1 0 0 0 0 0 1 0 0 0 0 0 1 0"/></filter></defs><mask maskUnits="userSpaceOnUse" x="-15.589" y="64.504" width="132.574" height="131.105" id="g"><g filter="url(#d)"><linearGradient id="f" gradientUnits="userSpaceOnUse" x1="4.014" y1="696.205" x2="5.297" y2="696.205" gradientTransform="scale(-33.6393 33.6393) rotate(56.127 651.17 343.723)"><stop offset="0"/><stop offset=".162" stop-color="#030303"/><stop offset=".293" stop-color="#0d0d0d"/><stop offset=".412" stop-color="#1e1e1e"/><stop offset=".525" stop-color="#363636"/><stop offset=".633" stop-color="#555"/><stop offset=".738" stop-color="#7b7b7b"/><stop offset=".84" stop-color="#a7a7a7"/><stop offset=".937" stop-color="#dadada"/><stop offset="1" stop-color="#fff"/></linearGradient><path clip-path="url(#e)" fill="url(#f)" d="M35.888 64.504l81.097 54.427-51.473 76.678-81.101-54.428z"/></g></mask><linearGradient id="h" gradientUnits="userSpaceOnUse" x1="4.014" y1="696.205" x2="5.297" y2="696.205" gradientTransform="scale(-33.6393 33.6393) rotate(56.127 651.17 343.723)"><stop offset="0" stop-color="#fdffff"/><stop offset=".91" stop-color="#fdffff"/><stop offset="1" stop-color="#fdffff"/></linearGradient><path clip-path="url(#e)" mask="url(#g)" fill="url(#h)" d="M35.888 64.504l81.097 54.427-51.473 76.678-81.101-54.428z"/></g></g><g transform="translate(0 17.5)" opacity=".25"><defs><path id="i" d="M0 40.02h112.187v45.984H0z"/></defs><clipPath id="j"><use xlink:href="#i" overflow="visible" width="100%" height="100%"/></clipPath><g clip-path="url(#j)"><defs><path id="k" d="M112.187 43.559c-4.105 1.156-55.169.78-106.607 42.445A124.562 124.562 0 0 1 0 61.176a166.78 166.78 0 0 1 19.102-9.135 176.244 176.244 0 0 1 11.058-3.983c.636-.203 1.3-.408 1.957-.598a76.277 76.277 0 0 1 3.453-1.019 160.494 160.494 0 0 1 16.285-3.779c.301-.073.619-.114.935-.175.833-.142 1.682-.291 2.511-.407 7.987-1.271 16-1.951 23.996-2.047a166.408 166.408 0 0 1 32.734 2.826c.047.221.09.471.156.7"/></defs><clipPath id="m"><use xlink:href="#k" overflow="visible" width="100%" height="100%"/></clipPath><defs><filter id="l" filterUnits="userSpaceOnUse" x="-21.295" y="-11.933" width="154.777" height="149.843"><feColorMatrix values="1 0 0 0 0 0 1 0 0 0 0 0 1 0 0 0 0 0 1 0"/></filter></defs><mask maskUnits="userSpaceOnUse" x="-21.295" y="-11.933" width="154.777" height="149.843" id="o"><g filter="url(#l)"><linearGradient id="n" gradientUnits="userSpaceOnUse" x1="3.707" y1="701.474" x2="4.989" y2="701.474" gradientTransform="scale(-124.1373 124.1373) rotate(56.127 659.647 345.928)"><stop offset="0"/><stop offset=".162" stop-color="#030303"/><stop offset=".293" stop-color="#0d0d0d"/><stop offset=".412" stop-color="#1e1e1e"/><stop offset=".525" stop-color="#363636"/><stop offset=".633" stop-color="#555"/><stop offset=".738" stop-color="#7b7b7b"/><stop offset=".84" stop-color="#a7a7a7"/><stop offset=".937" stop-color="#dadada"/><stop offset="1" stop-color="#fff"/></linearGradient><path clip-path="url(#m)" fill="url(#n)" d="M34.852-11.933l98.63 66.209-56.146 83.635-98.631-66.215z"/></g></mask><linearGradient id="p" gradientUnits="userSpaceOnUse" x1="3.707" y1="701.474" x2="4.989" y2="701.474" gradientTransform="scale(-124.1373 124.1373) rotate(56.127 659.647 345.928)"><stop offset="0" stop-color="#fdffff"/><stop offset=".91" stop-color="#fdffff"/><stop offset="1" stop-color="#fdffff"/></linearGradient><path clip-path="url(#m)" mask="url(#o)" fill="url(#p)" d="M34.852-11.933l98.63 66.209-56.146 83.635-98.631-66.215z"/></g></g></svg>