<svg xmlns="http://www.w3.org/2000/svg" viewBox="0 0 192 192"><linearGradient id="a" x1="57.4%" x2="9.78%" y1="67.45%" y2="-7.75%"><stop offset="0" stop-opacity=".23"/><stop offset="1"/></linearGradient><path fill="#464646" d="M96 16c48.9 0 65 37.77 65 80s-16.1 80-65 80-65-32.54-65-80 16.1-80 65-80z"/><path fill="#e8e8e8" d="M148.3 115a5 5 0 0 0 4.33-7.5l-16.3-28.23-22.52 13L126.93 115h21.36zm-94.9 16.78a5 5 0 0 0 4.33 7.5h32.6v-26H64.08l-10.68 18.5zm32.9-90.56a5 5 0 0 0-8.66 0l-16.3 28.22 22.52 13L97 59.72l-10.68-18.5z"/><circle cx="96" cy="96" r="33" fill="#518aec"/><path fill="url(#a)" d="M128.5 101.8L102 75.3l13.04-6.25a32.96 32.96 0 0 1 13.45 32.75zM66.83 80.53l44.63 44.63A32.85 32.85 0 0 1 96 129a33 33 0 0 1-33-33 32.85 32.85 0 0 1 3.84-15.46z" opacity=".1"/><path fill="#fff" d="M111 116h37.3a6 6 0 0 0 3.31-1l-10.85 18.95a16 16 0 0 1-13.89 8.05H111v5l-14-18 14-18v5zM71.18 99l-18.64 32.3a6 6 0 0 0-.8 3.36L40.76 115.8a16 16 0 0 1-.03-16.05L48.66 86l-4.33-2.5 22.6-3.12 8.58 21.12-4.33-2.5zm34.64-26L87.18 40.7a6 6 0 0 0-2.53-2.36l21.84-.08a16 16 0 0 1 13.92 8L128.34 60l4.33-2.5-8.6 21.12-22.6-3.12 4.33-2.5z"/></svg>