<svg xmlns="http://www.w3.org/2000/svg" fill="#fff" viewBox="0 0 192 192"><path stroke="#fff" stroke-miterlimit="10" stroke-width="15" d="M96.1 16.1c48.9 0 65 37.8 65 80s-16.1 80-65 80-65-32.5-65-80 16.1-80 65-80z"/><path fill="#464646" d="M96.1 16.1c48.9 0 65 37.8 65 80s-16.1 80-65 80-65-32.5-65-80 16.1-80 65-80z"/><path fill="#e8e8e8" d="M148.4 115.1a5 5 0 0 0 4.3-7.5l-16.3-28.2-22.5 13 13.1 22.7h21.4zm-94.9 16.8a5 5 0 0 0 1.8 6.8c.8.4 1.6.7 2.5.7h32.6v-26H64.2l-10.7 18.5zm32.9-90.6a5 5 0 0 0-6.8-1.8c-.8.4-1.4 1.1-1.8 1.8L61.4 69.5l22.5 13L97 59.8 86.4 41.3z"/><circle cx="96.1" cy="96.1" r="33" fill="#518aec"/><linearGradient id="a" x1="103.66" x2="70.656" y1="111.6" y2="60.725" gradientUnits="userSpaceOnUse"><stop offset="0" stop-opacity=".2"/><stop offset="1"/></linearGradient><path fill="url(#a)" d="M128.6 101.9l-26.5-26.5 13-6.2a32.9 32.9 0 0 1 13.5 32.7zM66.9 80.6l44.6 44.6a33 33 0 0 1-44.6-44.6z" opacity=".1"/><path d="M111.1 116.1h37.3c1.2 0 2.3-.3 3.3-1L140.8 134c-2.9 5-8.2 8.1-13.9 8.1H111v5l-14-18 14-18v5zm-39.8-17l-18.6 32.3c-.6 1-.9 2.2-.8 3.4l-11-18.9c-2.9-5-2.9-11.1 0-16l7.9-13.7-4.3-2.5L67 80.5l8.6 21.1-4.3-2.5zm34.6-26L87.3 40.8c-.6-1-1.5-1.8-2.5-2.4l21.8-.1a16 16 0 0 1 13.9 8l7.9 13.7 4.3-2.5-8.6 21.1-22.6-3.1c.1.1 4.4-2.4 4.4-2.4z"/></svg>