<svg xmlns="http://www.w3.org/2000/svg" viewBox="-10 -10 276 276"><filter id="c" width="1.08" x="-.04"><feGaussianBlur stdDeviation="1.65"/></filter><linearGradient id="a" x1="75.37" x2="77.09" y1="3" y2="236.2" gradientUnits="userSpaceOnUse"><stop offset="0" stop-color="#960b0f"/><stop offset="1" stop-color="#fff"/></linearGradient><linearGradient id="b" x1="79.75" x2="79.75" y1="16.81" y2="42.58" gradientUnits="userSpaceOnUse"><stop offset="0" stop-color="#fff"/><stop offset="1" stop-color="#fff" stop-opacity="0"/></linearGradient><path fill="#bda726" d="M88.72 35.2c34.7-17.41 52.74-25.36 87.7-8.14 282.06 183.82-348.22 326-87.7 8.14zm51.54 85.97c.65-1.68.26-2.47-1-2.05-2.58.85-4 4.78-1.73 4.78.93 0 2.16-1.23 2.73-2.74z"/><path fill="#62ab29" d="M17.53 98.46C43.2 21.03 106.65-7 180.45 25.35c168.44 138.48-44.74 345.12-162.92 73.11zm30.62 74.17l3.79-6.47-5.34 5.07c-5.35 5.08-6.7 7.87-3.8 7.87.86 0 3.26-2.91 5.35-6.47zm127.29-6.77c5.64-3.48 24.52-21.47 24.52-23.36 0-3.42-4.72-.74-8.52 4.85-2.32 3.4-7.75 8.98-12.08 12.41a737.64 737.64 0 0 0-9.51 7.61c-2.92 2.46.76 1.46 5.58-1.51zm2.09-33.34c1.83-3.59 5.49-8.17 8.13-10.2l4.8-3.67-6.9 1.12c-8.24 1.35-10.4 2.91-15.76 11.4-5.82 9.22-5.5 12.02 1.16 9.7 3.35-1.17 6.43-4.17 8.56-8.35zm-131.47.2c9.69-4.92 34.27-12.27 41.03-12.27 3.29 0 10.24 1.49 15.43 3.3l9.44 3.33v-3.85c0-2.12 1.02-5.25 2.26-6.94 1.95-2.67 3.18-2.84 9.02-1.22 5.39 1.49 7.25 1.37 9.18-.56 2.08-2.08 1.9-3.1-1.27-7.12-2.82-3.6-3.23-5.25-1.75-7.04 2.74-3.31 1.77-3.06-13.42 3.43-7.44 3.17-24 9.09-36.8 13.14-26.62 8.43-41.41 14.57-41.41 17.2 0 2.48.86 2.33 8.26-1.42zm103.9-2.83c1.2-1.44 1.7-3.1 1.1-3.7-1.25-1.25-6.32 2.6-6.32 4.82 0 2.37 2.8 1.77 5.2-1.12zm-9-9.33c.44-1.3-.21-1.94-1.5-1.51a5.37 5.37 0 0 0-3.02 3.02c-.43 1.29.2 1.94 1.5 1.5a5.44 5.44 0 0 0 3.03-3.01zm6.63-26.85c4.99-.77 7.42-2.1 8-4.37.48-1.79 4.5-5.42 8.95-8.07 4.45-2.64 13.26-8.9 19.58-13.9s14.4-9.99 17.97-11.07c8.9-2.68 6.85-3.82-2.4-1.33-4.11 1.11-13.9 6.65-21.73 12.3a703.86 703.86 0 0 1-29.35 19.85c-8.3 5.26-13.55 9.15-11.65 8.64 1.9-.5 6.67-1.42 10.6-2.03z"/><path fill="#7d891d" d="M9.36 98.26C32.37 9.19 129.09-24.2 203.06 31.78c123.5 175.07-86.3 300.32-193.7 66.48zm164.09 77.46c9.57-5.5 18.17-14.55 24.48-25.78 3.55-6.3 3.68-7.2 1.17-8.16-1.83-.7-3.77.35-5.58 3.03-1.52 2.26-6.33 7.6-10.67 11.83-4.35 4.25-7.72 8.3-7.5 9s-.73.83-2.13.3c-1.45-.56-3.01.21-3.61 1.77-1.32 3.43-16.1 7.96-25.95 7.96-5.63 0-12.14-2.45-27.5-10.35-22.23-11.43-26.55-12.18-40.77-7.07-5.01 1.81-10.37 3.23-11.9 3.17-1.69 2.98 7.76 27.34-27.44 18.88-17.38-23.69 42.05-20.3 52.42-21.36 8.11-.83 10.33-.16 26.12 7.87 22.67 11.54 29.17 13.76 40.54 13.9 7.47.07 11.37-.98 18.34-4.98zm-16.61-12.5c13.8-4.2 34.5-17.86 34.5-22.77 0-1.21 3.24-3.27 7.22-4.58 20.61-6.8 25.15-21.88 18.95-62.99-1.78-11.83-4.09-17.08-8.2-18.66-5.4-2.07-17.16 2.82-31.3 13.04a700.19 700.19 0 0 1-29.36 19.85c-8.3 5.26-13.55 9.16-11.65 8.67 6.41-1.68 17.28-2.86 14.15-1.54-2.4 1-1.39 1.76 4.54 3.34 8.82 2.36 17.36 8.95 21.2 16.35 2.5 4.85 2.44 5.29-1 7.7-2 1.4-5.62 5.67-8 9.46-3.55 5.6-4.28 8.7-3.92 16.6l.45 9.69-7.43 3.24c-11.22 4.89-17.64 2.95-29.36-8.84-13.75-13.85-18.97-26.94-13.89-34.81 1.24-1.92 1.68-.91 1.7 3.94.03 8.53 3.96 17.7 8.65 20.2 4.18 2.24 3.94 2.35 6.76-3.07 1.13-2.17 2.98-3.82 4.12-3.68 10.84 1.36 18.46-5.06 18.46-15.54 0-5.24.87-7.38 3.6-8.84 3.36-1.8 3.41-2.12.71-5.1-3.52-3.9-16.96-7.31-25.07-6.38-3.29.37-11.4 3-18.05 5.85s-22.55 8.48-35.35 12.54c-27.19 8.6-41.4 14.59-41.4 17.4 0 1.1 1.2 1.54 2.67.97 1.62-.62 2.23-.31 1.56.78-1.86 3 7.98 15.73 11.14 14.42 11.38-4.7 35.7-1.57 56.86 7.32 22.4 9.4 30.5 10.33 46.8 5.37zm-21.6-34.2c-3.19-5.15-4.06-12.62-1.85-15.77 1.98-2.83 2.46-2.92 3.34-.64.56 1.47 2.96 2.66 5.33 2.66 2.93 0 5.1 1.5 6.75 4.66 2.25 4.29 2.14 4.89-1.5 7.76-4.37 3.43-10.36 4.09-12.07 1.32zm5.75-8.46c.43-1.3-.22-1.94-1.51-1.51a5.4 5.4 0 0 0-3.02 3.02c-.43 1.29.21 1.94 1.5 1.5a5.4 5.4 0 0 0 3.03-3.01zm-50.96.57c.57-.57 2.06-.63 3.3-.13 1.38.55.97.96-1.04 1.04-1.8.07-2.83-.34-2.26-.9z"/><path fill="url(#a)" d="M52.2 141.44a43.73 43.73 0 0 0-8.06-4.55c-5.22-2.16-8.08-3.06-16.17-10.8-10.12-9.68-12.45-10.26-12.45-15.64 0-3.7-6.06-11.95-7.73-11.95-.77 0-2.6-3.6-3.66-7.74C1.5 80.6 5.5 63.32 8.95 52.7c3.55-10.93 8.82-19.12 16.8-27.51C41.41 8.7 57.6 1.8 79.7 3.17c11.99.74 18.48 2.17 29.25 7.47 6.79 3.35 10.45 5.4 17.72 12.58 10.06 9.95 13.8 16.5 18.02 29.05 2.32 6.93 2.76 8.93 2.76 22.93 0 14.2-.97 14.42-3.45 21.74-1.48 4.4-2.74 8.82-4.09 11.02-1.34 2.2-3.64 6.9-5 9.38-3.65 6.66-13.26 14.35-22.32 19.5l-10.02 3.83L78.48 145c-15.44 0-23.07-5.1-26.27-3.56zm60.95-20.8c5.42-2.58 10.76-7.83 13.88-13.64.77-1.44 1.4-6 1.48-10.72.1-6.04.56-8.7 1.75-10.02 4.22-4.65 4.56-24.6.63-36.47-1.04-3.14-1.89-7.13-1.89-8.85s-.73-4.66-1.61-6.53c-1.3-2.73-2.2-3.4-4.54-3.4-4.57 0-8.59 2.1-21.93 11.48-15.76 11.08-29.57 17.71-53.2 25.53-10.33 3.42-19.75 7-20.94 7.96l-2.15 1.75 3.77 5.14c4.17 5.68 3.99 5.6 8.52 4.01C42.3 85 56.15 87.33 67.36 92c5.24 2.18 11.3 4.25 13.47 4.6 8.14 1.3 21.45-3.57 29.77-10.89 2.43-2.13 4.16-4.29 3.85-4.79-.31-.5.27-.91 1.3-.91a5.1 5.1 0 0 0 3.12-1.25c1.02-1 1.55-.87 2.67.65 1.82 2.46.96 3.76-1.99 3.02-1.92-.48-3.63.72-9.69 6.78-8.5 8.5-16.15 12.8-22.79 12.8-3.4 0-7.13-1.37-16.3-6-12.87-6.49-16.18-7.1-23.26-4.35-2.2.86-5.35 1.66-7 1.78-3.76.28-9.47 3.97-12.29 7.94-2.46 3.46-2.26 4.28.64 2.72 7.21-3.86 30.84 2.43 47.31 12.6 9.25 5.72 15.11 7.44 23.84 7.02 5.54-.26 9-1.07 13.15-3.05zM82.63 89.03C74.84 86.54 67.43 77.8 68.8 72.7c.54-2.01.65-1.94 1.22.79a23.3 23.3 0 0 0 1.8 5.16c1.52 2.83 7.27 6.34 10.4 6.34 2.9 0 5.78-2.81 5.78-5.65 0-2.5 3.98-6.34 6.56-6.36 3.62-.03 4.75-1.51 4.04-5.3-.97-5.2-6.25-9.44-12.84-10.32-4.88-.66-5.04-.77-2.3-1.5 4.97-1.35 12.32 1.33 15.03 5.47.83 1.26 1.9 4.4 2.38 6.97.75 3.97.53 5.35-1.42 9.21-1.26 2.5-2.1 5.6-1.87 6.89.24 1.3-.2 2.87-.96 3.5-1.88 1.56-10.43 2.24-13.97 1.11zm-1.06-14.6c-1.84-1.84-1.94-2.87-.53-5.5 1.15-2.16 4.92-2.57 6.76-.73 1.84 1.84 1.43 5.6-.73 6.77-2.63 1.4-3.66 1.3-5.5-.54zm2.82-3.01c1.06-2.76.7-3.74-.89-2.42-1.64 1.36-2.04 4-.6 4 .48 0 1.16-.71 1.5-1.58z" transform="translate(-5.31 -.3) scale(1.725)"/><path fill="#110a05" d="M79.99 248.41c-.9-.78-6.74-3.52-12.96-6.1-9.01-3.72-14.89-8.09-28.85-21.44-17.69-16.9-21.02-21.94-21.13-31.97-.03-3.02-1.17-7.43-2.53-9.8-3.65-6.4-3.14-7.28 2.52-4.35 2.81 1.45 7.22 6.32 9.8 10.82a110.76 110.76 0 0 0 32.37 35.05c26.55 18.3 47.81 25 74.34 23.45 40.69-2.4 74.4-23.45 93.5-58.42 13.4-24.52 15.17-31.23 15.17-57.46 0-18.9-.63-24.32-4.02-34.5-6.94-20.8-13.77-31.77-29.53-47.45-24.29-24.18-47.08-33.62-81.16-33.62-33.95 0-57.8 9.99-82 34.34-21.81 21.95-31.46 43.9-33.06 75.19-1.96 38.5 6.06 45.7 39.23 35.23 15-4.74 17.85-7.44 4.24-4.01-9.2 2.3-7.85 3.35-16.92-13l-4.84-8.75 4.47-3.85c2.46-2.12 13.57-6.64 24.68-10.04 57.25-17.52 57.8-17.77 95.25-42.44C172.32 66.22 186.02 57.55 189 56c6.77-3.48 19.24-6.37 22.35-5.17 4.42 1.69 9.05 11.79 13.55 29.53 10.86 42.88 6.42 82.8-12.99 116.89-13.2 23.17-29.13 31.35-57.59 29.56-24.03-1.51-36.07-6.44-67.79-27.72-20.85-14-33.58-19.06-43.28-17.24-5.93 1.1-5.94 1.1-4.83-4.46l1.12-5.58-8.18 1.09c-10.53 1.4-22.03-4.05-27.12-12.85-3.09-5.35-4.29-6.64-4.2-29.58.07-23.02 1.38-29.66 5.32-41.43C11.72 70.03 21 54.53 34.65 40.17 61.66 11.73 96.23-2.11 134.35.26c20.68 1.28 33.24 4.62 51.81 13.77C197.87 19.8 204 24.4 216.53 36.78c17.35 17.16 25.91 30.66 33.18 52.33 4.01 11.94 5.66 17.34 5.66 41.48 0 24.49-1.62 26.38-5.88 39.02-2.56 7.6-6.56 16.9-8.88 20.7-2.32 3.8-6.15 10.4-8.49 14.66-6.3 11.49-24.23 28.14-39.85 37.03l-27.95 11.27-34.03 2.68c-26.64 0-49.37-6.76-50.27-7.54zm109.88-40.6c9.36-4.46 18.56-13.5 23.95-23.54 1.33-2.47 2.42-10.35 2.55-18.5.17-10.41.97-15 3.03-17.27 7.27-8.03 7.86-42.47 1.1-62.93-1.8-5.42-3.27-12.3-3.27-15.26s-1.25-8.04-2.78-11.27c-2.23-4.69-3.79-5.86-7.82-5.86-7.88 0-14.82 3.64-37.84 19.82-27.19 19.12-51 30.54-91.76 44.03-17.8 5.9-34.07 12.08-36.1 13.74l-3.73 3.02 6.51 8.87c7.2 9.8 6.9 9.66 14.7 6.93 9.3-3.24 33.18.78 52.51 8.82 9.05 3.77 19.5 7.33 23.23 7.93 14.06 2.25 37.02-6.14 51.37-18.78 4.18-3.68 7.16-7.4 6.63-8.26-.54-.86.47-1.57 2.23-1.57s4.2-.97 5.4-2.16c1.74-1.73 2.66-1.5 4.6 1.12 3.12 4.24 1.64 6.5-3.45 5.22-3.32-.83-6.27 1.23-16.7 11.7-14.65 14.66-27.86 22.08-39.32 22.08-5.86 0-12.3-2.37-28.12-10.35-22.2-11.2-27.9-12.27-40.12-7.5-3.79 1.47-9.23 2.85-12.07 3.06-6.48.48-16.34 6.85-21.2 13.7-4.24 5.96-3.9 7.37 1.1 4.68 12.44-6.65 53.2 4.2 81.6 21.73 15.97 9.86 26.07 12.83 41.13 12.1 9.55-.46 15.5-1.84 22.7-5.26zm-52.64-54.54c-13.44-4.3-26.2-19.36-23.86-28.15.93-3.46 1.12-3.34 2.11 1.37a40.4 40.4 0 0 0 3.1 8.9c2.62 4.89 12.54 10.93 17.93 10.93 5.01 0 9.98-4.86 9.98-9.76 0-4.3 6.86-10.94 11.33-10.98 6.25-.05 8.2-2.61 6.97-9.14-1.68-8.97-10.78-16.28-22.16-17.81-8.42-1.13-8.7-1.32-3.97-2.6 8.57-2.32 21.25 2.3 25.93 9.45 1.43 2.18 3.28 7.59 4.11 12.02 1.28 6.85.92 9.22-2.46 15.88-2.18 4.3-3.63 9.65-3.22 11.88s-.34 4.95-1.66 6.05c-3.24 2.69-17.99 3.87-24.1 1.92zm-1.83-25.18c-3.18-3.18-3.35-4.95-.92-9.48 2-3.73 8.5-4.43 11.67-1.26s2.46 9.68-1.27 11.67c-4.53 2.43-6.3 2.26-9.47-.92zm4.87-5.2c1.83-4.76 1.21-6.44-1.54-4.17-2.82 2.35-3.5 6.9-1.05 6.9.85 0 2.01-1.23 2.6-2.73zm-92.74 41.56c9.51-3.97 5.96-4.86-6.06-1.52-8.54 2.37-11.82 2.56-17.03 1L17.98 162l4.3 3.55c4.85 4.02 13.95 3.62 25.25-1.1z"/><path fill="url(#b)" d="m131.05 36.48a51.53 19.4 0 1 1-103.06 0 51.53 19.4 0 1 1 103.06 0z" filter="url(#c)" transform="matrix(1.36 0 0 2.048 17.86 -22.28)"/></svg>