<svg xmlns="http://www.w3.org/2000/svg" viewBox="-10 -10 260 260"><linearGradient id="b" x1="-.5" x2="2.8" gradientTransform="rotate(45 -588.81 477.56) scale(168.01)" gradientUnits="userSpaceOnUse"><stop offset=".13" stop-color="#fff"/><stop offset=".16" stop-color="#fcfeff"/><stop offset=".17" stop-color="#f8fdff"/><stop offset=".18" stop-color="#f1fbfe"/><stop offset=".19" stop-color="#ecf9fe"/><stop offset=".2" stop-color="#e5f7fd"/><stop offset=".21" stop-color="#def4fd"/><stop offset=".22" stop-color="#d9f2fc"/><stop offset=".23" stop-color="#d1effc"/><stop offset=".24" stop-color="#cdeefb"/><stop offset=".25" stop-color="#c6ebfb"/><stop offset=".26" stop-color="#c2eafa"/><stop offset=".27" stop-color="#bce7fa"/><stop offset=".28" stop-color="#b5e5f9"/><stop offset=".29" stop-color="#b1e3f9"/><stop offset=".3" stop-color="#aae0f8"/><stop offset=".31" stop-color="#a6def7"/><stop offset=".32" stop-color="#a0dbf6"/><stop offset=".33" stop-color="#9cd8f5"/><stop offset=".34" stop-color="#95d6f4"/><stop offset=".35" stop-color="#90d2f3"/><stop offset=".36" stop-color="#8cd0f3"/><stop offset=".37" stop-color="#89cef2"/><stop offset=".38" stop-color="#84cbf0"/><stop offset=".39" stop-color="#80c8f0"/><stop offset=".4" stop-color="#7cc5ee"/><stop offset=".41" stop-color="#77c1ed"/><stop offset=".42" stop-color="#74bfeb"/><stop offset=".43" stop-color="#70bbea"/><stop offset=".44" stop-color="#6eb9e9"/><stop offset=".45" stop-color="#6ab5e7"/><stop offset=".46" stop-color="#6ab4e7"/><stop offset=".47" stop-color="#6ab4e7"/><stop offset=".5" stop-color="#6ab4e7"/><stop offset="1" stop-color="#6ab4e7"/></linearGradient><radialGradient id="d" cx="0" cy="0" r="1" gradientTransform="rotate(45 -741.12 830.43) scale(195.86)" gradientUnits="userSpaceOnUse"><stop offset="0" stop-color="#fff"/><stop offset=".02" stop-color="#fcfeff"/><stop offset=".03" stop-color="#fbfeff"/><stop offset=".04" stop-color="#f9fdff"/><stop offset=".05" stop-color="#f8fdff"/><stop offset=".06" stop-color="#f6fcfe"/><stop offset=".07" stop-color="#f4fcfe"/><stop offset=".08" stop-color="#f3fbfe"/><stop offset=".09" stop-color="#f1fafe"/><stop offset=".1" stop-color="#effafe"/><stop offset=".11" stop-color="#edf9fe"/><stop offset=".12" stop-color="#ecf9fe"/><stop offset=".13" stop-color="#eaf8fe"/><stop offset=".14" stop-color="#e7f7fe"/><stop offset=".15" stop-color="#e6f7fd"/><stop offset=".16" stop-color="#e4f6fd"/><stop offset=".17" stop-color="#e2f6fd"/><stop offset=".18" stop-color="#e0f5fd"/><stop offset=".19" stop-color="#def5fd"/><stop offset=".2" stop-color="#dcf4fd"/><stop offset=".21" stop-color="#daf3fd"/><stop offset=".22" stop-color="#d9f3fd"/><stop offset=".23" stop-color="#d6f1fc"/><stop offset=".24" stop-color="#d5f1fc"/><stop offset=".25" stop-color="#d3f0fc"/><stop offset=".26" stop-color="#d1effc"/><stop offset=".27" stop-color="#cfeffc"/><stop offset=".28" stop-color="#ceeefb"/><stop offset=".29" stop-color="#cceefb"/><stop offset=".3" stop-color="#caedfb"/><stop offset=".31" stop-color="#c9ecfb"/><stop offset=".32" stop-color="#c6ebfb"/><stop offset=".33" stop-color="#c5ebfb"/><stop offset=".35" stop-color="#c1e9fa"/><stop offset=".36" stop-color="#c0e9fa"/><stop offset=".37" stop-color="#bee9fa"/><stop offset=".38" stop-color="#bce7fa"/><stop offset=".39" stop-color="#bce7fa"/><stop offset=".4" stop-color="#bae6f9"/><stop offset=".41" stop-color="#b7e5f9"/><stop offset=".42" stop-color="#b6e5f9"/><stop offset=".43" stop-color="#b4e4f9"/><stop offset=".44" stop-color="#b3e4f9"/><stop offset=".45" stop-color="#b1e3f9"/><stop offset=".46" stop-color="#b0e2f8"/><stop offset=".47" stop-color="#ade1f8"/><stop offset=".48" stop-color="#ace1f8"/><stop offset=".49" stop-color="#abe0f8"/><stop offset=".5" stop-color="#aae0f8"/><stop offset=".51" stop-color="#a8dff7"/><stop offset=".52" stop-color="#a6ddf7"/><stop offset=".53" stop-color="#a5ddf7"/><stop offset=".54" stop-color="#a3dcf7"/><stop offset=".55" stop-color="#a2dbf6"/><stop offset=".56" stop-color="#9fdaf6"/><stop offset=".57" stop-color="#9dd9f6"/><stop offset=".58" stop-color="#9cd9f5"/><stop offset=".59" stop-color="#9ad8f5"/><stop offset=".6" stop-color="#98d7f5"/><stop offset=".61" stop-color="#97d6f5"/><stop offset=".62" stop-color="#96d6f5"/><stop offset=".63" stop-color="#95d5f4"/><stop offset=".64" stop-color="#94d4f4"/><stop offset=".65" stop-color="#92d3f4"/><stop offset=".66" stop-color="#90d2f3"/><stop offset=".67" stop-color="#8fd2f3"/><stop offset=".68" stop-color="#8dd1f3"/><stop offset=".69" stop-color="#8cd0f2"/><stop offset=".7" stop-color="#8acff2"/><stop offset=".71" stop-color="#88cef2"/><stop offset=".72" stop-color="#87cdf1"/><stop offset=".73" stop-color="#86ccf1"/><stop offset=".74" stop-color="#85ccf1"/><stop offset=".75" stop-color="#84cbf0"/><stop offset=".76" stop-color="#83caf0"/><stop offset=".77" stop-color="#81c9f0"/><stop offset=".79" stop-color="#7fc7ef"/><stop offset=".8" stop-color="#7ec7ef"/><stop offset=".81" stop-color="#7dc6ee"/><stop offset=".82" stop-color="#7bc4ee"/><stop offset=".83" stop-color="#7ac3ed"/><stop offset=".84" stop-color="#79c3ed"/><stop offset=".85" stop-color="#77c1ed"/><stop offset=".86" stop-color="#76c0ec"/><stop offset=".87" stop-color="#75bfec"/><stop offset=".88" stop-color="#74bfeb"/><stop offset=".89" stop-color="#73beeb"/><stop offset=".9" stop-color="#72bdeb"/><stop offset=".91" stop-color="#71bcea"/><stop offset=".92" stop-color="#71bbea"/><stop offset=".93" stop-color="#6fbae9"/><stop offset=".94" stop-color="#6eb9e9"/><stop offset=".95" stop-color="#6db8e8"/><stop offset=".96" stop-color="#6db7e8"/><stop offset=".97" stop-color="#6cb7e8"/><stop offset=".98" stop-color="#6bb6e7"/><stop offset=".99" stop-color="#6ab5e7"/><stop offset="1" stop-color="#6ab4e7"/></radialGradient><clipPath id="a"><path d="M0 389.4V990h600V389.4z"/></clipPath><clipPath id="c"><path d="M301.4 495H104v197.3c0 109 88.3 197.6 197.4 197.6 109 0 197.6-89 197.6-198s-88.6-198-197.7-198"/></clipPath><clipPath id="e"><path d="M131.5 793.8c34.5 57.5 97.3 96 169.2 96 109 0 197.5-88.4 197.5-197.4 0-58-25.2-110.2-65-146.3-130.5 40-238.7 130-301.7 248"/></clipPath><clipPath id="f"><path d="M0 389.4V990h600V389.4z"/></clipPath><path fill="#100f0d" d="M281.8 389.4H.4v293H58V448h223.8z" clip-path="url(#a)" transform="matrix(.4 0 0 .4 0 -155.8)"/><path fill="url(#b)" d="M301.4 297.4l-395 395 395 395 395-395z" clip-path="url(#c)" transform="matrix(.4 0 0 .4 0 -155.8)"/><path fill="url(#d)" d="M315 362.7L-40.5 718 315 1073.2 670 718z" clip-path="url(#e)" transform="matrix(.4 0 0 .4 0 -155.8)"/><g clip-path="url(#f)" transform="matrix(.4 0 0 .4 0 -155.8)"><path fill="#69b4e7" d="M109 684.2l.2 9.8v2c-.2 106 85.3 191.7 190.4 191.7 105 0 190.6-85.6 190.6-190.7 0-105-85.4-190.6-190.5-190.6H109v178h.2zm190.6 217.2C187 901.4 95.3 809.7 95.3 697V492.6h204.3C412.3 492.6 504 584.3 504 697s-91.7 204.4-204.4 204.4"/><path fill="#acacaa" d="M541.7 706.5c-8.2 121.8-106 218.7-228.2 225.6v58c154-7 277.8-129 286-283h-57.8M313.5 448c124 7 223 106.8 228.5 231.2h58c-5.7-156.3-130.6-282-286.5-289zm-27.3 484C164 925.3 66.2 828.4 58 706.6H0C8.3 860.2 132 983 286.2 990z"/></g></svg>