<svg viewBox="-1.5 -2.5 131.1 131.1" xmlns="http://www.w3.org/2000/svg" xmlns:xlink="http://www.w3.org/1999/xlink"><clipPath id="a"><circle cx="64" cy="236" r="60"/></clipPath><radialGradient id="b" cx="256" cy="-46.42" gradientTransform="matrix(1.08446 0 0 1.11651 -21.62 6.22)" gradientUnits="userSpaceOnUse" r="224"><stop offset="0" stop-color="#62a0ea"/><stop offset=".55" stop-color="#3584e4"/><stop offset="1" stop-color="#1a5fb4"/></radialGradient><radialGradient id="c" cx="46.51" cy="236.83" gradientTransform="matrix(.29041 -.00079 .00067 .24464 50.34 156.1)" gradientUnits="userSpaceOnUse" r="224"><stop offset="0" stop-color="#cee2f8"/><stop offset=".55" stop-color="#98c1f1"/><stop offset="1" stop-color="#62a0ea"/></radialGradient><radialGradient id="d" cx="17.81" cy="24.15" gradientTransform="matrix(7.42904 0 0 7.1212 -87.91 43.75)" gradientUnits="userSpaceOnUse" r="9.13"><stop offset="0" stop-color="#fff"/><stop offset="1" stop-color="#e4e4e4"/></radialGradient><g transform="translate(0 -172)"><path d="m39.52 179.22v2l4.02-.16.1-2z" fill="#2967b4"/><path d="m4.13 230.12v2l4-.16.1-2z" fill="#164e93"/><circle cx="256" cy="44" fill="url(#b)" r="224" transform="matrix(.2679 0 0 .2679 -4.57 224.21)"/><use clip-path="url(#a)" opacity=".2" xlink:href="#e"/><path d="m100 270h12v20h-12z" fill="#fff" opacity=".1"/><path d="m106 230v2h4v-2z" fill="#144788"/><use clip-path="url(#a)" fill="url(#c)" xlink:href="#e" y="-2"/><path d="m78 252h6v2h-6zm-52-20h4v2h-4zm6-34h6v2h-6zm8 24h4v2h-4zm56-2h4v2h-4zm0 6h2v2h-2zm10 0h6v2h-6zm-12-26.14h4v2h-4zm-38 2.14h4v2h-4z" fill="#fff" opacity=".1"/><g fill="none" opacity=".67" stroke="#fff" stroke-linejoin="round"><circle cx="47.25308" cy="220.964266" r="11.979981" stroke-width="5.591979"/><circle cx="47.25308" cy="220.964266" r="22.780791" stroke-width="3.861207"/><circle cx="47.25308" cy="220.964266" r="34.060536" stroke-width="1.9818"/></g><path d="m47.6 225.3-37.67 36.57a60 60 0 0 0 6.29 10.34l5.38.17-1.9 3.97a60 60 0 0 0 9.85 8.72l3.3-7.42 15.06 16.1a60 60 0 0 0 .39.1l-.7-68.53z" fill="#12121c" opacity=".3"/><path d="m47.6 209.3-47.78 46.38 21.78.7-9.13 18.96c-2.8 8.43 9.83 11.6 11.94 5.27l8.43-18.96 15.45 16.5z" fill="url(#d)" transform="translate(0 12)"/><path d="m47.6 221.3-.25.24-31.15 73.78c3.14 1.28 7.12.6 8.22-2.72l8.43-18.96 15.45 16.5z" fill="#e4e6e8"/></g><path id="e" d="m38 176v4l10 8v8l8 8h4v-4l6-6v-4l4-4v-10zm-4 16h-30v40l20 18v-6l-4-4 6-6h4l4 4 .12-8.4 5.88-5.6h4v-4l4-4v-6l-4.27-3.88-9.73-.12v8h-4l-4-4v-4l6-6h6v-4zm60 2-6 6v4h6v-2.14h4v4.26l-2 1.88h-10v4h-4v6h-8v8h10v-4h8v2l4 4h2v-2l-2-2v-2h4l6 6h6v2l-2 2h-4l18 18v-56h-28zm12 38h-12l-2-2h-14l-8 8v8l8 8h6l4 4v2l2 2v12l14 14h8v-30l4-4v-8l-10-10zm-2-12h4l6 6h-4zm-74 28-4 4v10l8.12 8.14-.12 25.86h8v-8l6-6v-4l6-6v-4l4-4v-8l-4-4h-8l-4-4z"/></svg>