<?xml version="1.0" encoding="UTF-8" standalone="no"?>
<svg xmlns:rdf="http://www.w3.org/1999/02/22-rdf-syntax-ns#" xmlns="http://www.w3.org/2000/svg" height="512" width="512" version="1.1" xmlns:cc="http://creativecommons.org/ns#" xmlns:xlink="http://www.w3.org/1999/xlink" xmlns:dc="http://purl.org/dc/elements/1.1/">
<defs>
<linearGradient id="d">
<stop stop-color="#fff" offset="0"/>
<stop stop-color="#c59641" stop-opacity="0" offset="1"/>
</linearGradient>
<linearGradient id="e">
<stop stop-color="#edd19d" offset="0"/>
<stop stop-color="#edd19d" stop-opacity="0" offset="1"/>
</linearGradient>
<linearGradient id="b">
<stop offset="0"/>
<stop stop-color="#743800" stop-opacity=".54902" offset="1"/>
</linearGradient>
<linearGradient id="a">
<stop stop-color="#9b6534" offset="0"/>
<stop stop-color="#e6a556" stop-opacity="0" offset="1"/>
</linearGradient>
<linearGradient id="f" y2="413.83" gradientUnits="userSpaceOnUse" x2="411.91" y1="779.75" x1="140.81">
<stop stop-color="#0078ff" offset="0"/>
<stop stop-color="#fff" offset="1"/>
</linearGradient>
<radialGradient id="h" xlink:href="#a" gradientUnits="userSpaceOnUse" cy="978.43" cx="187.76" gradientTransform="matrix(1.0364 .56405 -.40945 .75236 398.38 139.46)" r="35.248"/>
<linearGradient id="l" y2="723.84" xlink:href="#b" gradientUnits="userSpaceOnUse" x2="229.5" y1="723.84" x1="182.26"/>
<radialGradient id="g" xlink:href="#b" gradientUnits="userSpaceOnUse" cy="720.23" cx="312.26" gradientTransform="matrix(5.4869 -.69152 .068530 .54375 -1446.5 542.55)" r="39.318"/>
<filter id="u" height="1.9701" width="2.0063" y="-.48503" x="-.50317">
<feGaussianBlur stdDeviation="16.039634"/>
</filter>
<linearGradient id="k" y2="1014.9" xlink:href="#a" gradientUnits="userSpaceOnUse" x2="123.42" gradientTransform="matrix(1.1538 .043122 -.046395 1.2413 20.037 -254)" y1="966.34" x1="248.86"/>
<linearGradient id="q" y2="730.53" gradientUnits="userSpaceOnUse" x2="317.54" y1="979.53" x1="222.41">
<stop stop-color="#784421" offset="0"/>
<stop stop-color="#deb15a" offset="1"/>
</linearGradient>
<radialGradient id="i" gradientUnits="userSpaceOnUse" cy="744.08" cx="210.9" gradientTransform="matrix(1 0 0 .79030 0 156.04)" r="24.991">
<stop stop-color="#fff" offset="0"/>
<stop stop-color="#c9d4e6" offset="1"/>
</radialGradient>
<linearGradient id="n" y2="216.44" gradientUnits="userSpaceOnUse" x2="214.07" y1="216.44" x1="185.43">
<stop stop-color="#4aa9ff" offset="0"/>
<stop stop-color="#4aa9ff" stop-opacity=".26797" offset="1"/>
</linearGradient>
<linearGradient id="m" y2="209.99" gradientUnits="userSpaceOnUse" x2="208.4" y1="225.17" x1="193.34">
<stop stop-color="#37a3ff" offset="0"/>
<stop stop-color="#d8e2e6" offset="1"/>
</linearGradient>
<filter id="v">
<feGaussianBlur stdDeviation="6.9184955"/>
</filter>
<linearGradient id="c" y2="657.19" gradientUnits="userSpaceOnUse" x2="373.74" y1="1143.9" x1="-12.03">
<stop stop-color="#1483ff" offset="0"/>
<stop stop-color="#beddff" stop-opacity="0" offset="1"/>
</linearGradient>
<linearGradient id="s" y2="759.44" xlink:href="#e" gradientUnits="userSpaceOnUse" x2="297.43" y1="719.31" x1="358.84"/>
<linearGradient id="r" y2="793.65" xlink:href="#d" gradientUnits="userSpaceOnUse" x2="148.75" y1="772.6" x1="114.76"/>
<radialGradient id="j" xlink:href="#a" gradientUnits="userSpaceOnUse" cy="978.43" cx="187.76" gradientTransform="matrix(-1.0364 .56405 .40945 .75236 125.75 133.54)" r="35.248"/>
<linearGradient id="p" y2="1014.9" xlink:href="#a" gradientUnits="userSpaceOnUse" x2="123.42" gradientTransform="matrix(-1.1538 .043122 .046395 1.2413 504.09 -259.92)" y1="966.34" x1="248.86"/>
<linearGradient id="o" y2="796.84" xlink:href="#d" gradientUnits="userSpaceOnUse" x2="143.93" gradientTransform="matrix(3.2299 4.1875 -2.9528 2.83 2114.7 -1857)" y1="767.61" x1="127.72"/>
<linearGradient id="t" y2="760.59" xlink:href="#e" gradientUnits="userSpaceOnUse" x2="289.87" gradientTransform="translate(5.6569 1.4142)" y1="723.58" x1="353.91"/>
<filter id="x">
<feGaussianBlur stdDeviation="2.3186822"/>
</filter>
<filter id="w" height="1.3323" width="1.0919" y="-.16614" x="-.045959">
<feGaussianBlur stdDeviation="2.7316268"/>
</filter>
</defs>
<g transform="translate(0 -540.36)">
<g>
<path d="m226.97 699.13c15.437 0 34.959 2.4681 47.729 9.4122 7.1155-3.4117 18.343-1.2426 26.89-2.9207 37.898-7.4399 59.98-5.1014 66.7 15.575 4.1494 12.767 5.955 37.946-8.0991 51.632 1.4619 3.9668 7.9605 26.832 7.5839 29.046-6.5546 38.513-34.814 39.035-51.217 48.553-5.4902 5.9114-3.111 20.867-0.80622 26.279 5.7584 12.254 32.628 53.513 36.472 65.431 22.002 68.208 23.181 23.094-4.9278 48.784-132.25 120.87-165.33 22.52-204.04-59.867-22.93-48.797-9.1563-87.81-3.4611-122.47-16.897-2.0169-33.585-19.677-24.618-35.968 5.4114-8.473 22.304-14.894 32.794-15.176 13.525-34.99 40.285-58.313 79.003-58.313z" fill="#643400"/>
<path d="m232.63 700.38c14.348 0 30.866 3.8409 42.736 10.562 6.6136-3.3023 15.686-4.6746 23.599-6.4569 35.532-8.0027 63.451-2.8147 68.734 20.641 3.2721 14.528 4.5817 35.862-10.548 47.316 3.1137 2.2731 8.2132 28.096 7.2812 31.745-6.3972 25.041-18.397 28.194-49.695 43.609-5.1029 5.722-5.6799 22.618-3.5377 27.857 5.3522 11.862 31.952 50.104 35.526 61.64 20.45 66.022 20.616 23.564-5.5096 48.43-122.92 116.99-153.67 20.83-189.65-58.916-21.312-47.233-13.158-86.932-7.8642-120.48-15.705-1.9523-33.772-16.142-25.437-31.911 5.0296-8.2015 20.963-14.659 30.713-14.931 12.571-33.868 47.667-59.106 83.654-59.106z" fill="url(#q)"/>
<path d="m151.5 813.34c-16.897-2.0169-45.292-24.429-36.326-40.72 5.4114-8.473 22.746-13.65 33.236-13.932-1.4246 0.39426 20.707 5.0262 7.8938 2.8131-26.401-4.56-41.649 11.884-40.277 24.595 0.42929 3.9783 10.734 13.756 15.598 15.523 16.674 6.0576 18.376 6.1358 19.874 11.721z" fill="#643400"/>
<path opacity=".15312" style="color:#000000" d="m345.57 999.88c-12.662 34.055-79.218 41.317-101.45 17.539-27.246-29.14-76.655-78.405-83.888-116.99 12.419-54.13 138.87-43.266 153.03 0.58828 13.811 42.761 39.034 72.775 32.305 98.859z" fill="url(#o)"/>
<path d="m367.27 756.92c-1.2962 3.5393-5.1856 11.649-8.965 13.908-2.1867 1.3071-1.7785 1.9006-1.8428 1.2639-0.0612-0.6059 1.5184 3.3921 2.228 5.0626 0.69392 1.6336 5.9118 21.483 5.0476 26.606-1.2368 7.3325-6.867 18.616-10.479 20.069-13.954 5.6149-39.746-11.219-56.259-11.219-31.204 0-62.5-42.864-62.5-66.75s62.546-42.75 93.75-42.75c19.792 0 25.643 2.8443 35.305 14.991 6.5074 8.1809 6.7438 30.547 3.7149 38.818z" fill="url(#s)"/>
</g>
<path opacity=".20625" stroke-linejoin="round" d="m221.42 780.97c1.1759-6.2772 16.941-8.4115 14.118-8.1892-6.5045 0.51216-8.5964 2.8379-8.2386 3.4854 4.0756 7.3749 16.03 38.409 56.843 26.979 9.5818-2.6835 19.205-3.3084 24.5-8.0545 14.739-13.214 18.584-19.591 25.227-27.813 1.2861-1.5916 2.9121 1.0991 8.3619 4.4187 1.0023 0.61054 8.5603 0.50042 8.418-0.82208" stroke="#582d00" stroke-linecap="round" stroke-width="2.646" fill="none"/>
<g>
<path d="m360.26 767.22c-6.4138 0.0153-7.2863-5.3563-14.146-8.9983-3.228-1.7139-9.8463-5.3478-13.97-3.7849-10.984 4.1623-21.285 21.092-30.779 27.92-15.309 11.01-31.106 9.6437-24.328 27.22 21.932 56.876-126.12 19.185 17.635 3.6012-4.0082-10.325 38.321-40.597 58.697-31.488 5.6187 2.5118 10.213 13.391 10.925 22.008 1.2462 15.075-37.777 45.118-39.92 40.464-23.932-51.982-69.69-29.374-86.193-28.818-425.68 14.345-7.8947-26.416-7.8947-50.303 0-23.886 72.414-60.513 103.62-60.513 19.792 0 15.148-4.6415 29.877 17.294 11.741 17.485 5.1906 46.687-3.5219 45.397z" filter="url(#x)" fill="url(#t)"/>
<path d="m324.72 740.06c23.248-12.023 50.532-39.627 21.396-42.76-0.88357-0.095-13.062-0.72622-14.029-0.776-42.103 1.475-60.025 11.095-57.183 16.215 8.6897 15.652 20.989 28.897 49.816 27.321z" fill="#733200"/>
<g transform="scale(1.0204 .98004)" stroke="#0065d8" stroke-miterlimit="1" stroke-width="3" fill="url(#f)">
<path d="m5.633 809.39c0 154.9 99.63 258.17 250.17 258.17 61.087 0 119.27-22.544 163.63-63.996 50.906-47.27 77.813-112.72 77.813-189.81 0-82.177-30.544-151.99-86.54-199.99-44.361-37.816-97.449-56.724-159.99-56.724-67.632 0-124.36 21.09-170.17 63.269-49.457 45.82-74.91 109.81-74.91 189.08m246.53-205.81c79.268 0 147.75 77.814 147.75 212.35 0 128.72-69.212 207.26-149.21 207.26-77.813 0-148.48-78.541-148.48-212.35 0-130.17 69.212-207.26 149.93-207.26" stroke="#0065d8" stroke-miterlimit="1" stroke-width="3" fill="url(#f)"/>
</g>
</g>
<path opacity=".51" d="m214.83 784.56c0.67665 0.82784 4.2259-6.9563 7.6054-7.9008 5.4336-1.5186 20.381-6.1227 21.823-5.2845 0.91702 0.53276-16.369 6.5101-15.825 7.3207 9.0255 13.439 10.686 31.107 42.501 26.973 36.362-3.887 38.031-6.7368 63.719-38.657 1.7039-2.0084 20.323 12.493 22.825 10.524" filter="url(#w)" stroke="#a05200" stroke-width="2.4313" fill="none"/>
<g>
<g transform="scale(1.0204 .98004)" fill="url(#c)">
<path d="m240.34 576.91c-72.63 1.28-145.5 39.53-182.62 102.84-33.625 58.07-38.777 129.05-25.379 193.85 12.889 64.093 54.223 123.08 114.26 150.65 75.529 35.796 171.44 31.43 239.66-18.949 48.211-35.351 80.506-90.94 88.017-150.22 9.9035-67.286-3.8851-140.15-46.209-194.34-33.61-43.78-84.79-73.61-139.57-81.27-15.868-2.5068-32.076-2.6917-48.156-2.5625zm10.219 6.5625c57.3-0.79652 110.42 36.57 135.78 86.784 33.995 62.412 39.516 137 28.429 206.33-9.8359 55.267-37.095 110.04-84.252 142.26-43.858 29.681-105.72 33.221-150.86 4.377-47.37-28.33-76.45-79.7-88.319-132.61-15.919-66.64-11.783-138.81 14.629-202.15 20.142-45.644 58.041-85.92 107.12-99.5 12.185-3.3714 24.779-5.3524 37.469-5.4688z" filter="url(#v)" fill="url(#c)"/>
</g>
<path opacity=".4625" d="m204.81 957.6c-15.969-14.672-29.097 2.0732-35.748 11.346-3.2999 6.2398-5.2592 8.6213-14.352 28.762-2.7422 6.6873-9.2404 18.184-1.7848 20.967 7.7092 4.67 27.03-38.595 25.425-38.596-1.3079-0.00055-27.457 29.749-19.977 41.681 12.212 19.481 27.615-34.108 26.155-33.895-1.2736 0.18516-24.342 35.847-11.993 41.801 2.7864 1.1736 4.6744-0.695 7.7514-3.2552 9.6042-4.9708 24.23-15.377 26.522-21.522 0.68743-3.0692-25.897 15.829-26.112 20.575-0.32916 9.742 5.8775 8.7948 11.378 4.6076 10.517-8.0063 25.299-30.286 25.193-32.492 4.9373-10.389 7.1647-19.436 6.8654-27.805-0.18264-5.1077-11.367-10.976-19.322-12.174z" transform="matrix(1.0145 .23972 -.087918 .49808 79.465 475.67)" filter="url(#u)"/>
<path d="m204.81 957.6c-15.969-14.672-29.097 2.0732-35.748 11.346-3.2999 6.2398-5.2592 8.6213-14.352 28.762-2.7422 6.6873-9.2404 18.184-1.7848 20.967 7.7092 4.67 27.03-38.595 25.425-38.596-1.3079-0.00055-27.457 29.749-19.977 41.681 12.212 19.481 27.615-34.108 26.155-33.895-1.2736 0.18516-24.342 35.847-11.993 41.801 2.7864 1.1736 4.6744-0.695 7.7514-3.2552 9.6042-4.9708 24.23-15.377 26.522-21.522 0.68743-3.0692-25.897 15.829-26.112 20.575-0.32916 9.742 5.8775 8.7948 11.378 4.6076 10.517-8.0063 25.299-30.286 25.193-32.492 4.9373-10.389 5.6647-17.436 5.3654-25.805-0.18264-5.1077-9.8666-12.976-17.822-14.174z" fill="#643400"/>
<path d="m220.19 977.82c0.52479-2.739-6.4381-16.582-16.642-15.781-10.063-13.828-21.368-5.3496-22.43-3.9819-15.983 17.037-15.354 24.615-24.807 34.854-5.1483 5.5766-4.4279 12.201-4.3256 16.162 0.0168 0.6496 0.46417 12.858 6.6912 4.1505 4.5186-6.3181 17.388-31.394 18.426-30.518 1.3638 1.1524-16.974 31.418-18.166 34.99-1.0418 3.1216 4.2772 11.539 9.637 3.74 7.0962-10.326 19.199-36.151 20.884-35.069 3.0888 1.985-20.938 32.781-18.682 39.009 4.8556 13.409 18.474-15.385 27.583-29.13 1.8992-2.8656 2.6579-1.3491 2.4614-0.98487-4.6869 8.6895-35.625 50.72-5.553 29.084 10.893-7.8375 18.246-26.346 24.923-46.525z" fill="url(#h)"/>
<path d="m207.46 961.15c-26.851-29.059-45.653 23.478-55.995 45.73-3.8262 8.2327 1.6631 15.981 7.3887 6.7935 4.5186-6.3181 17.211-31.836 18.249-30.96 1.3638 1.1524-16.991 31.412-18.166 34.99-1.0418 3.1716 4.2772 11.78 9.637 3.74 6.9501-10.425 19.199-36.151 20.884-35.069 3.0888 1.985-20.938 32.781-18.682 39.009 4.8556 13.409 18.474-15.385 27.583-29.13 1.8992-2.8656 2.6752-1.3392 2.4614-0.98487-12.533 21.324-18.911 27.502-19.057 32.474 2.0182 23.175 67.531-61.166 25.696-66.593z" fill="url(#k)"/>
<path d="m185.83 762.84c0.54213 0.74139 3.8293 1.9417 17.162-0.3445 12.927-2.2166 32.052-13.006 32.117-19.533 0.61953-11.768-9.6698-18.903-29.296-18.58-15.427 0.25347-21.485 26.303-19.983 38.458z" fill="#643400"/>
<path d="m187.52 761.17c10.981 5.0064 46.665-8.9364 46.772-19.397 0-10.416-9.1962-15.843-25.326-15.843-16.129 0-21.446 24.823-21.446 35.239z" fill="url(#i)"/>
<path d="m325.11 738.05c22.971-11.47 40.761-32.974 16.134-36.467-20.623-4.2464-28.85 2.6369-43.412 6.5526-22.014 4.6406-23.009 1.462-20.684 4.8299 9.4506 13.692 18.215 26.144 47.962 25.084z" fill="url(#g)"/>
</g>
<path stroke-linejoin="round" d="m221.46 780.56c0.67665 0.82784-0.19389-2.4051 2.9804-3.9008 4.9051-2.3113 6.6012-3.5643 8.3234-3.6595 11.176-0.61829-6.6496-0.4298-4.4499 2.6957 8.6378 12.273 15.648 37.013 56.466 26.125 9.5829-2.5561 18.567-3.5638 23.862-8.0846 14.741-12.586 17.614-19.914 24.258-27.745 1.2862-1.516 3.1927 1.024 8.7793 3.9626 1.8143 0.95433 7.7475 0.74211 8.3607 0.25943" stroke="#582d00" stroke-linecap="round" stroke-width="0.631" fill="none"/>
<g>
<path d="m223.79 721.52c-17.796-12.827-28.081 6.2864-41.53 13.442 4.0678-18.24 32.763-29.664 47.157-16.661 0.82872 1.0824-4.4103 3.0171-5.6269 3.2191z" fill="url(#l)"/>
<path style="color:#000000" d="m131.96 768.33c24.494-5.8354 18.549 2.1226 21.36 9.203 3.0097 7.5802-0.0505 21.649-6.241 22.406-7.5866 0.92869-18.301-3.4157-22.728-10.265-6.031-7.8816-4.6109-15.743 7.6091-21.344z" fill="url(#r)"/>
<path d="m210.25 216.44a10.5 10.438 0 0 1 -10.5 10.438 10.5 10.438 0 0 1 -10.5 -10.438 10.5 10.438 0 0 1 10.5 -10.438 10.5 10.438 0 0 1 10.5 10.438z" transform="matrix(.89463 0 0 .84537 39.035 558.01)" stroke="url(#n)" stroke-linecap="square" stroke-width="2.9027" fill="url(#m)"/>
<path d="m319.32 951.68c15.969-14.672 29.097 2.0732 35.748 11.346 3.2999 6.2398 5.2592 8.6213 14.352 28.762 2.7422 6.6872 9.2404 18.184 1.7848 20.967-7.7092 4.67-27.03-38.595-25.425-38.596 1.3079-0.00055 27.457 29.749 19.977 41.681-12.212 19.481-27.615-34.108-26.155-33.895 1.2736 0.18516 24.342 35.847 11.993 41.801-2.7864 1.1736-4.6744-0.695-7.7514-3.2552-9.6042-4.9708-24.23-15.377-26.522-21.522-0.68743-3.0692 25.897 15.829 26.112 20.575 0.32916 9.742-5.8775 8.7948-11.378 4.6076-10.517-8.0063-25.299-30.286-25.193-32.492-4.9373-10.389-5.6647-17.436-5.3654-25.805 0.18264-5.1077 9.8666-12.976 17.822-14.174z" fill="#643400"/>
<path d="m303.93 971.9c-0.52479-2.739 6.4381-16.582 16.642-15.781 10.063-13.828 21.368-5.3496 22.43-3.9819 15.983 17.037 15.354 24.615 24.807 34.854 5.1483 5.5766 4.4279 12.201 4.3256 16.162-0.0168 0.6496-0.46417 12.858-6.6912 4.1505-4.5186-6.3181-17.388-31.395-18.426-30.518-1.3638 1.1524 16.974 31.418 18.166 34.99 1.0418 3.1216-4.2772 11.539-9.637 3.74-7.0962-10.326-19.199-36.151-20.884-35.069-3.0888 1.985 20.938 32.781 18.682 39.009-4.8556 13.409-18.474-15.385-27.583-29.131-1.8992-2.8656-2.6579-1.3491-2.4614-0.98487 4.6869 8.6895 35.625 50.72 5.553 29.084-10.893-7.8375-18.246-26.346-24.923-46.525z" fill="url(#j)"/>
<path d="m316.66 955.22c26.851-29.059 45.653 23.478 55.995 45.73 3.8262 8.2327-1.6631 15.981-7.3887 6.7935-4.5186-6.3181-17.211-31.836-18.249-30.96-1.3638 1.1524 16.991 31.412 18.166 34.99 1.0418 3.1716-4.2772 11.78-9.637 3.74-6.9501-10.425-19.199-36.151-20.884-35.069-3.0888 1.985 20.938 32.781 18.682 39.009-4.8556 13.409-18.474-15.385-27.583-29.131-1.8992-2.8656-2.6752-1.3392-2.4614-0.98487 12.533 21.324 18.911 27.502 19.057 32.474-2.0182 23.175-67.531-61.166-25.696-66.593z" fill="url(#p)"/>
</g>
<g transform="matrix(1.4221 -.41527 .31672 .66009 -347.73 372.5)" fill="#bb8e4d">
<path style="color:#000000" d="m283.94 743.56c-0.60867 0.12256-1.2467 0.3134-1.8686 0.46511-0.66396 0.14868-1.334 0.3063-2.0112 0.48313-1.0072 0.28094-2.0309 0.64086-3.0399 0.92793-0.85058 0.23203-1.7108 0.49637-2.5678 0.7495-0.80897 0.22638-1.6376 0.53627-2.4524 0.86671-1.0633 0.46654-2.1199 0.95161-3.1753 1.4356-1.4502 0.69386-2.9343 1.3171-4.4004 1.9824-1.9152 0.87882-3.8019 1.803-5.6858 2.7281-1.3648 0.67259-2.742 1.3353-4.038 2.0748-0.86245 0.46548-1.5886 0.99346-2.3347 1.508-0.46473 0.32584-0.95301 0.63953-1.4582 0.95006l1.9209-1.8878c0.4927-0.31072 0.96671-0.62705 1.4302-0.94819 0.75127-0.51774 1.5088-1.0352 2.3797-1.4991 1.302-0.71231 2.664-1.358 4.0133-2.0195 1.8942-0.92585 3.7904-1.8522 5.7123-2.7366 1.478-0.6738 2.9708-1.3172 4.4347-2.0169 1.0732-0.49309 2.1445-0.99774 3.2318-1.4589 0.83798-0.33021 1.6832-0.64016 2.5125-0.86832 0.85418-0.24766 1.7139-0.51382 2.5617-0.74107 1.0129-0.29252 2.0405-0.64539 3.0506-0.92732 0.68853-0.18517 1.3713-0.35615 2.0424-0.50278 0.62225-0.15613 1.2493-0.32179 1.8732-0.48253l-2.131 1.9177z"/>
<path style="color:#000000" d="m287.43 743.64c-0.55895 0.26137-1.129 0.59583-1.6932 0.88855-0.6059 0.29965-1.2154 0.60938-1.827 0.93941-0.90493 0.50826-1.8058 1.097-2.711 1.6116-0.7656 0.42416-1.5323 0.88192-2.2988 1.328-0.72669 0.40894-1.4512 0.90347-2.1569 1.4147-0.91206 0.70136-1.8129 1.4191-2.7128 2.1356-1.2292 1.0124-2.5093 1.9643-3.7612 2.9527-1.633 1.3006-3.2266 2.6386-4.8174 3.9767-1.1519 0.97178-2.3182 1.9368-3.3863 2.9574-0.71755 0.65331-1.287 1.3353-1.8792 2.0089-0.36751 0.42477-0.76096 0.84329-1.1716 1.2627 0 0 1.3811-2.2804 1.3811-2.2804 0.39849-0.41666 0.77742-0.8344 1.1449-1.2543 0.59641-0.67795 1.199-1.3571 1.9251-2.0109 1.0808-0.99557 2.2367-1.9406 3.3764-2.898 1.6005-1.3413 3.2029-2.6836 4.841-3.9911 1.2613-0.99946 2.5447-1.9729 3.7857-2.9941 0.91491-0.72944 1.8249-1.4696 2.7616-2.1714 0.72834-0.5164 1.4689-1.0149 2.2148-1.4303 0.7651-0.44015 1.5308-0.89954 2.295-1.3184 0.90753-0.52082 1.814-1.1036 2.7215-1.6135 0.62041-0.34078 1.2388-0.66643 1.8522-0.96577 0.56354-0.29709 1.1293-0.60456 1.6932-0.90651l-1.5772 2.3585z"/>
<path style="color:#000000" d="m290.48 746.99c-0.55895 0.26137-1.129 0.59583-1.6933 0.88855-0.6059 0.29965-1.2154 0.60938-1.827 0.93941-0.90493 0.50826-1.8058 1.097-2.711 1.6116-0.7656 0.42416-1.5323 0.88192-2.2988 1.328-0.72669 0.40894-1.4512 0.90347-2.1569 1.4147-0.91207 0.70137-1.8129 1.4191-2.7128 2.1356-1.2292 1.0124-2.5093 1.9643-3.7612 2.9527-1.633 1.3006-3.2266 2.6386-4.8174 3.9767-1.1519 0.97178-2.3182 1.9368-3.3863 2.9574-0.71755 0.65331-1.287 1.3353-1.8792 2.0089-0.36752 0.42477-0.76096 0.84329-1.1716 1.2627 0 0 1.3811-2.2804 1.3811-2.2804 0.39848-0.41666 0.77742-0.8344 1.1449-1.2543 0.5964-0.67795 1.199-1.3571 1.9251-2.0109 1.0808-0.99557 2.2367-1.9406 3.3764-2.898 1.6005-1.3413 3.2029-2.6836 4.841-3.9911 1.2613-0.99946 2.5447-1.9729 3.7857-2.9941 0.91491-0.72944 1.8249-1.4696 2.7616-2.1714 0.72833-0.51641 1.4689-1.0149 2.2148-1.4303 0.7651-0.44015 1.5308-0.89954 2.295-1.3184 0.90753-0.52082 1.814-1.1036 2.7215-1.6135 0.62041-0.34078 1.2388-0.66643 1.8522-0.96577 0.56354-0.29709 1.1293-0.60456 1.6932-0.90651l-1.5772 2.3585z"/>
<path style="color:#000000" d="m295.52 747.51c-0.47565 0.38395-0.94344 0.84138-1.4163 1.257-0.51145 0.43204-1.0239 0.87471-1.533 1.3375-0.74843 0.70415-1.4724 1.4854-2.2195 2.1958-0.63468 0.59007-1.2619 1.213-1.8918 1.8246-0.60081 0.56623-1.1777 1.215-1.7322 1.8755-0.70625 0.89312-1.3974 1.7995-2.088 2.7044-0.93474 1.2688-1.9343 2.4908-2.8971 3.7416-1.253 1.6426-2.4585 3.3122-3.6611 4.9813-0.87005 1.2113-1.7558 2.4196-2.5323 3.6586-0.52981 0.8011-0.90864 1.5954-1.3118 2.387-0.24843 0.49775-0.52361 0.9955-0.81521 1.4981l0.75966-2.534c0.28054-0.49712 0.54184-0.99071 0.79151-1.4838 0.40604-0.79673 0.81777-1.5961 1.3558-2.3996 0.79505-1.2178 1.6759-2.4042 2.5378-3.5987 1.2112-1.6744 2.424-3.3503 3.6803-5.0008 0.96917-1.2637 1.9664-2.5074 2.9103-3.7875 0.70188-0.921 1.3962-1.8513 2.1263-2.7506 0.57508-0.67085 1.1666-1.3272 1.7844-1.9042 0.63012-0.60546 1.256-1.2297 1.8906-1.8144 0.74776-0.71695 1.4787-1.4938 2.2292-2.2001 0.51507-0.47532 1.0321-0.93551 1.5508-1.369 0.47102-0.41967 0.94156-0.84993 1.4117-1.2744l-0.92994 2.6555z"/>
<path style="color:#000000" d="m296.31 750.33c-0.39945 0.45676-0.77793 0.9846-1.1689 1.4721-0.42605 0.51004-0.85116 1.0307-1.2694 1.5707-0.61053 0.81723-1.1831 1.7063-1.7912 2.5295-0.51902 0.68606-1.0248 1.4032-1.5352 2.1097-0.48994 0.657-0.94147 1.3913-1.3688 2.1335-0.53497 0.99639-1.0527 2.0034-1.5702 3.0088-0.69246 1.4042-1.4572 2.773-2.1805 4.164-0.93875 1.825-1.8257 3.6687-2.71 5.5114-0.63907 1.3369-1.2942 2.6733-1.8361 4.0221-0.37774 0.87662-0.60798 1.7216-0.86267 2.5679-0.15514 0.53133-0.33665 1.0671-0.53345 1.6103l0.29235-2.6215c0.18688-0.536 0.35546-1.0654 0.51268-1.5923 0.25661-0.85185 0.51835-1.7072 0.90372-2.5876 0.56402-1.3309 1.2182-2.645 1.8523-3.964 0.89181-1.8494 1.7849-3.7004 2.7254-5.5337 0.72728-1.4049 1.4858-2.7946 2.1853-4.2115 0.52565-1.0231 1.0422-2.0542 1.5995-3.0606 0.44576-0.75578 0.91032-1.5 1.4151-2.1704 0.51175-0.70047 1.0159-1.4188 1.5358-2.0994 0.60756-0.82971 1.1878-1.7156 1.8-2.5353 0.42184-0.55327 0.84828-1.092 1.2813-1.6046 0.38846-0.49118 0.77454-0.99271 1.1613-1.4885l-0.43821 2.7694z"/>
<path style="color:#000000" d="m285.49 740.45c-0.62137 0.0263-1.2833 0.11535-1.9226 0.16832-0.68035 0.0434-1.3682 0.0947-2.0664 0.16392-1.0414 0.12057-2.1125 0.31649-3.1568 0.44282-0.87863 0.0966-1.7722 0.22369-2.6608 0.34017-0.8366 0.0976-1.7068 0.27445-2.5667 0.47379-1.1283 0.29496-2.253 0.60926-3.3765 0.92269-1.5485 0.4591-3.1186 0.84328-4.6779 1.2717-2.0388 0.56928-4.057 1.1878-6.0726 1.8075-1.4607 0.4514-2.9319 0.8911-4.336 1.4192-0.92989 0.32517-1.7358 0.7332-2.5593 1.1248-0.51377 0.24924-1.0487 0.48283-1.5998 0.71066l2.2154-1.564c0.53881-0.22996 1.0601-0.46838 1.5719-0.71317 0.82902-0.39402 1.6642-0.78681 2.6021-1.1091 1.4054-0.50036 2.8587-0.92568 4.3022-1.3685 2.0259-0.61896 4.0539-1.2381 6.1002-1.8118 1.5726-0.43498 3.1546-0.83768 4.7176-1.3004 1.1426-0.31962 2.2851-0.65097 3.4361-0.93692 0.88282-0.19549 1.7694-0.36987 2.6263-0.46603 0.88481-0.11151 1.7782-0.24043 2.6533-0.33279 1.049-0.13112 2.1228-0.31949 3.1672-0.44057 0.71079-0.0756 1.4134-0.13814 2.1005-0.17845 0.64043-0.0572 1.2872-0.12321 1.9301-0.18478l-2.4277 1.5608z"/>
</g>
<g transform="matrix(-.98346 .18112 .18112 .98346 500.11 -52.935)" fill="#bb8e4d">
<path style="color:#000000" d="m283.94 743.56c-0.60867 0.12256-1.2467 0.3134-1.8686 0.46511-0.66396 0.14868-1.334 0.3063-2.0112 0.48313-1.0072 0.28094-2.0309 0.64086-3.0399 0.92793-0.85058 0.23203-1.7108 0.49637-2.5678 0.7495-0.80897 0.22638-1.6376 0.53627-2.4524 0.86671-1.0633 0.46654-2.1199 0.95161-3.1753 1.4356-1.4502 0.69386-2.9343 1.3171-4.4004 1.9824-1.9152 0.87882-3.8019 1.803-5.6858 2.7281-1.3648 0.67259-2.742 1.3353-4.038 2.0748-0.86245 0.46548-1.5886 0.99346-2.3347 1.508-0.46473 0.32584-0.95301 0.63953-1.4582 0.95006l1.9209-1.8878c0.4927-0.31072 0.96671-0.62705 1.4302-0.94819 0.75127-0.51774 1.5088-1.0352 2.3797-1.4991 1.302-0.71231 2.664-1.358 4.0133-2.0195 1.8942-0.92585 3.7904-1.8522 5.7123-2.7366 1.478-0.6738 2.9708-1.3172 4.4347-2.0169 1.0732-0.49309 2.1445-0.99774 3.2318-1.4589 0.83798-0.33021 1.6832-0.64016 2.5125-0.86832 0.85418-0.24766 1.7139-0.51382 2.5617-0.74107 1.0129-0.29252 2.0405-0.64539 3.0506-0.92732 0.68853-0.18517 1.3713-0.35615 2.0424-0.50278 0.62225-0.15613 1.2493-0.32179 1.8732-0.48253l-2.131 1.9177z"/>
<path style="color:#000000" d="m287.43 743.64c-0.55895 0.26137-1.129 0.59583-1.6932 0.88855-0.6059 0.29965-1.2154 0.60938-1.827 0.93941-0.90493 0.50826-1.8058 1.097-2.711 1.6116-0.7656 0.42416-1.5323 0.88192-2.2988 1.328-0.72669 0.40894-1.4512 0.90347-2.1569 1.4147-0.91206 0.70136-1.8129 1.4191-2.7128 2.1356-1.2292 1.0124-2.5093 1.9643-3.7612 2.9527-1.633 1.3006-3.2266 2.6386-4.8174 3.9767-1.1519 0.97178-2.3182 1.9368-3.3863 2.9574-0.71755 0.65331-1.287 1.3353-1.8792 2.0089-0.36751 0.42477-0.76096 0.84329-1.1716 1.2627 0 0 1.3811-2.2804 1.3811-2.2804 0.39849-0.41666 0.77742-0.8344 1.1449-1.2543 0.59641-0.67795 1.199-1.3571 1.9251-2.0109 1.0808-0.99557 2.2367-1.9406 3.3764-2.898 1.6005-1.3413 3.2029-2.6836 4.841-3.9911 1.2613-0.99946 2.5447-1.9729 3.7857-2.9941 0.91491-0.72944 1.8249-1.4696 2.7616-2.1714 0.72834-0.5164 1.4689-1.0149 2.2148-1.4303 0.7651-0.44015 1.5308-0.89954 2.295-1.3184 0.90753-0.52082 1.814-1.1036 2.7215-1.6135 0.62041-0.34078 1.2388-0.66643 1.8522-0.96577 0.56354-0.29709 1.1293-0.60456 1.6932-0.90651l-1.5772 2.3585z"/>
<path style="color:#000000" d="m290.48 746.99c-0.55895 0.26137-1.129 0.59583-1.6933 0.88855-0.6059 0.29965-1.2154 0.60938-1.827 0.93941-0.90493 0.50826-1.8058 1.097-2.711 1.6116-0.7656 0.42416-1.5323 0.88192-2.2988 1.328-0.72669 0.40894-1.4512 0.90347-2.1569 1.4147-0.91207 0.70137-1.8129 1.4191-2.7128 2.1356-1.2292 1.0124-2.5093 1.9643-3.7612 2.9527-1.633 1.3006-3.2266 2.6386-4.8174 3.9767-1.1519 0.97178-2.3182 1.9368-3.3863 2.9574-0.71755 0.65331-1.287 1.3353-1.8792 2.0089-0.36752 0.42477-0.76096 0.84329-1.1716 1.2627 0 0 1.3811-2.2804 1.3811-2.2804 0.39848-0.41666 0.77742-0.8344 1.1449-1.2543 0.5964-0.67795 1.199-1.3571 1.9251-2.0109 1.0808-0.99557 2.2367-1.9406 3.3764-2.898 1.6005-1.3413 3.2029-2.6836 4.841-3.9911 1.2613-0.99946 2.5447-1.9729 3.7857-2.9941 0.91491-0.72944 1.8249-1.4696 2.7616-2.1714 0.72833-0.51641 1.4689-1.0149 2.2148-1.4303 0.7651-0.44015 1.5308-0.89954 2.295-1.3184 0.90753-0.52082 1.814-1.1036 2.7215-1.6135 0.62041-0.34078 1.2388-0.66643 1.8522-0.96577 0.56354-0.29709 1.1293-0.60456 1.6932-0.90651l-1.5772 2.3585z"/>
<path style="color:#000000" d="m295.52 747.51c-0.47565 0.38395-0.94344 0.84138-1.4163 1.257-0.51145 0.43204-1.0239 0.87471-1.533 1.3375-0.74843 0.70415-1.4724 1.4854-2.2195 2.1958-0.63468 0.59007-1.2619 1.213-1.8918 1.8246-0.60081 0.56623-1.1777 1.215-1.7322 1.8755-0.70625 0.89312-1.3974 1.7995-2.088 2.7044-0.93474 1.2688-1.9343 2.4908-2.8971 3.7416-1.253 1.6426-2.4585 3.3122-3.6611 4.9813-0.87005 1.2113-1.7558 2.4196-2.5323 3.6586-0.52981 0.8011-0.90864 1.5954-1.3118 2.387-0.24843 0.49775-0.52361 0.9955-0.81521 1.4981l0.75966-2.534c0.28054-0.49712 0.54184-0.99071 0.79151-1.4838 0.40604-0.79673 0.81777-1.5961 1.3558-2.3996 0.79505-1.2178 1.6759-2.4042 2.5378-3.5987 1.2112-1.6744 2.424-3.3503 3.6803-5.0008 0.96917-1.2637 1.9664-2.5074 2.9103-3.7875 0.70188-0.921 1.3962-1.8513 2.1263-2.7506 0.57508-0.67085 1.1666-1.3272 1.7844-1.9042 0.63012-0.60546 1.256-1.2297 1.8906-1.8144 0.74776-0.71695 1.4787-1.4938 2.2292-2.2001 0.51507-0.47532 1.0321-0.93551 1.5508-1.369 0.47102-0.41967 0.94156-0.84993 1.4117-1.2744l-0.92994 2.6555z"/>
<path style="color:#000000" d="m296.31 750.33c-0.39945 0.45676-0.77793 0.9846-1.1689 1.4721-0.42605 0.51004-0.85116 1.0307-1.2694 1.5707-0.61053 0.81723-1.1831 1.7063-1.7912 2.5295-0.51902 0.68606-1.0248 1.4032-1.5352 2.1097-0.48994 0.657-0.94147 1.3913-1.3688 2.1335-0.53497 0.99639-1.0527 2.0034-1.5702 3.0088-0.69246 1.4042-1.4572 2.773-2.1805 4.164-0.93875 1.825-1.8257 3.6687-2.71 5.5114-0.63907 1.3369-1.2942 2.6733-1.8361 4.0221-0.37774 0.87662-0.60798 1.7216-0.86267 2.5679-0.15514 0.53133-0.33665 1.0671-0.53345 1.6103l0.29235-2.6215c0.18688-0.536 0.35546-1.0654 0.51268-1.5923 0.25661-0.85185 0.51835-1.7072 0.90372-2.5876 0.56402-1.3309 1.2182-2.645 1.8523-3.964 0.89181-1.8494 1.7849-3.7004 2.7254-5.5337 0.72728-1.4049 1.4858-2.7946 2.1853-4.2115 0.52565-1.0231 1.0422-2.0542 1.5995-3.0606 0.44576-0.75578 0.91032-1.5 1.4151-2.1704 0.51175-0.70047 1.0159-1.4188 1.5358-2.0994 0.60756-0.82971 1.1878-1.7156 1.8-2.5353 0.42184-0.55327 0.84828-1.092 1.2813-1.6046 0.38846-0.49118 0.77454-0.99271 1.1613-1.4885l-0.43821 2.7694z"/>
<path style="color:#000000" d="m285.49 740.45c-0.62137 0.0263-1.2833 0.11535-1.9226 0.16832-0.68035 0.0434-1.3682 0.0947-2.0664 0.16392-1.0414 0.12057-2.1125 0.31649-3.1568 0.44282-0.87863 0.0966-1.7722 0.22369-2.6608 0.34017-0.8366 0.0976-1.7068 0.27445-2.5667 0.47379-1.1283 0.29496-2.253 0.60926-3.3765 0.92269-1.5485 0.4591-3.1186 0.84328-4.6779 1.2717-2.0388 0.56928-4.057 1.1878-6.0726 1.8075-1.4607 0.4514-2.9319 0.8911-4.336 1.4192-0.92989 0.32517-1.7358 0.7332-2.5593 1.1248-0.51377 0.24924-1.0487 0.48283-1.5998 0.71066l2.2154-1.564c0.53881-0.22996 1.0601-0.46838 1.5719-0.71317 0.82902-0.39402 1.6642-0.78681 2.6021-1.1091 1.4054-0.50036 2.8587-0.92568 4.3022-1.3685 2.0259-0.61896 4.0539-1.2381 6.1002-1.8118 1.5726-0.43498 3.1546-0.83768 4.7176-1.3004 1.1426-0.31962 2.2851-0.65097 3.4361-0.93692 0.88282-0.19549 1.7694-0.36987 2.6263-0.46603 0.88481-0.11151 1.7782-0.24043 2.6533-0.33279 1.049-0.13112 2.1228-0.31949 3.1672-0.44057 0.71079-0.0756 1.4134-0.13814 2.1005-0.17845 0.64043-0.0572 1.2872-0.12321 1.9301-0.18478l-2.4277 1.5608z"/>
</g>
</g>
</svg>
