<svg xmlns="http://www.w3.org/2000/svg" viewBox="0 0 320 300"><path fill="#597936" d="M298.1 271v-21.7h-21.9v-22h-156v-21.4H98.3V51.1h11V7.4H65.5v43.9h11V95h-44V51.2h11V7.4H-.2v43.8h11v198h21.8V271h22v22H320v-22h-21.9zM10.7 40.3v-22h22v22h-22zm65.7 98.6H32.6v-22h43.8v22zm0-120.5h22v22h-22v-22z"/><path fill="#5d432e" d="M253.4 183.9v-16.2h-95.5v-58.3h62v28.5H205v-13.6h-32.2v28.5h80.6V97.6h-21.9V75.7h-88.6v21.9H121v86.3h21.9v21.9h132.4v-21.9z"/><path fill="#44602d" d="M121 271v-22H55v-21H11v21h22v22h22v22h265v-22z"/><path fill="#4a2e18" d="M143 184h132v22H143zm-22-86h22v86h-22zm132 43.2V121h-17v17h-16v15h33z"/></svg>