<svg xmlns="http://www.w3.org/2000/svg" viewBox="12 3 320 300"><path fill="#597936" d="M310.1 274v-21.7h-21.9v-22h-156v-21.4h-21.9V54.1h11V10.4H77.5v43.9h11V98h-44V54.2h11V10.4H11.8v43.8h11v198h21.8V274h22v22H332v-22h-21.9zM22.7 43.3v-22h22v22h-22zm65.7 98.6H44.6v-22h43.8v22zm0-120.5h22v22h-22v-22z"/><path fill="#5d432e" d="M265.4 186.9v-16.2h-95.5v-58.3h62v28.5H217v-13.6h-32.2v28.5h80.6v-55.2h-21.9V78.7h-88.6v21.9H133v86.3h21.9v21.9h132.4v-21.9z"/><path fill="#44602d" d="M133 274v-22H67v-21H23v21h22v22h22v22h265v-22z"/><path fill="#4a2e18" d="M155 187h132v22H155zm-22-86h22v86h-22zm132 43.2V124h-17v17h-16v15h33z"/></svg>