<svg xmlns="http://www.w3.org/2000/svg" viewBox="0 0 156 156"><linearGradient id="a" x1="-4.8" x2="145.5" y1="149.9" y2="-.4" gradientUnits="userSpaceOnUse"><stop offset="0" stop-color="#2ac3a2"/><stop offset="1" stop-color="#008787"/></linearGradient><circle cx="71.5" cy="72.4" r="54.3" fill="url(#a)" transform="matrix(1.3333 0 0 -1.3333 -17.5 174.5)"/><path fill="#fff" d="M108.3 67.4a10.4 10.4 0 0 0-10.4 10.4c0 1.3.2 2.4.6 3.4L82.1 97.7V63.9a10.4 10.4 0 1 0-8.4 0v33.8L57.3 81.2c.3-1 .6-2.2.6-3.3a10.4 10.4 0 1 0-6.3 9.5l23.3 23.3a4.2 4.2 0 0 0 6 0l23.3-23.3a10.4 10.4 0 1 0 4.1-20"/></svg>