<svg xmlns="http://www.w3.org/2000/svg" xmlns:xlink="http://www.w3.org/1999/xlink" viewBox="-11 -12 343 343"><linearGradient id="c" x1="149%" x2="-21%" y1="-27%" y2="99%"><stop offset="0" stop-color="#d446ff"/><stop offset="1" stop-color="#a0d8ff"/></linearGradient><linearGradient id="a"><stop offset="0" stop-color="#fff"/><stop offset="1" stop-color="#dadada"/></linearGradient><linearGradient id="d" x1="42%" x2="96%" y1="21%" y2="-8%" xlink:href="#a"/><linearGradient id="e" x1="52%" x2="3%" y1="71%" y2="9%" xlink:href="#a"/><linearGradient id="f" x1="99%" x2="35%" y1="13%" y2="41%"><stop offset="0" stop-color="#d0d0d0"/><stop offset="1" stop-color="#fff"/></linearGradient><linearGradient id="b"><stop offset="0" stop-color="#ffdc68"/><stop offset="1" stop-color="#ce4300"/></linearGradient><linearGradient id="g" x1="34%" x2="-40%" y1="32%" y2="123%" xlink:href="#b"/><linearGradient id="h" x1="96%" x2="-11%" y1="2%" y2="35%" xlink:href="#b"/><linearGradient id="i" x1="55%" x2="-64%" y1="40%" y2="222%" xlink:href="#b"/><ellipse cx="160.6" cy="159.8" fill="url(#c)" stroke="#a3a3a3" stroke-width="5" rx="159" ry="156.1"/><path fill="url(#d)" d="M57 312.5s49.7-174 243-151.8c0 0-123-73-242.3 25.4-35.2 81.7-.8 126.4-.8 126.4z"/><path fill="url(#e)" d="M72 290.5s51.8-125 190.3-127.2c-105.3 25.6.1 116.5.1 116.5S179 355.2 72 290.5z"/><path fill="url(#f)" d="M43 194.6s103.6-114 258.3-35c-2.8-21.4-21-45.5-54-52.4-7.2-3.5-60.4-85.7-174.7-38.4 35.2 2.8 50.3 7.7 51 11.4C63 69.7 45 156.2 43 194.7z"/><path fill="#202020" d="M191.5 98s26.6-9.5 30 18.7c-26 2.5-30-18.7-30-18.7z"/><path fill="url(#g)" d="M56.5 313s45.2-147.7 196.7-153.4c0 0-123-22.5-209.7 115-.5 19.5 13 38.4 13 38.4z"/><path fill="url(#h)" d="M72.8 68.7S110.6 71 124 80c5.6-1 10.4-5 11.2-10.2-4.8-2-49-5.6-62.5-1.2z"/><path fill="url(#i)" d="M43.4 194.8s47.3-56.8 142.7-63.5c0 0-130 5.8-140.8 42.5-3 9-2 21-2 21z"/></svg>