<svg viewBox="-1.1 -1.2 34.3 34.3" xmlns="http://www.w3.org/2000/svg" xmlns:xlink="http://www.w3.org/1999/xlink"><linearGradient id="a" x1="148.79%" x2="-21.14%" y1="-26.56%" y2="99.3%"><stop offset="0" stop-color="#d446ff"/><stop offset="1" stop-color="#a0d8ff"/></linearGradient><linearGradient id="b"><stop offset="0" stop-color="#fff"/><stop offset="1" stop-color="#dadada"/></linearGradient><linearGradient id="c" x1="41.81%" x2="95.6%" xlink:href="#b" y1="20.87%" y2="-8.31%"/><linearGradient id="d" x1="52.28%" x2="2.54%" xlink:href="#b" y1="70.56%" y2="8.98%"/><linearGradient id="e" x1="98.68%" x2="35.27%" y1="13%" y2="40.86%"><stop offset="0" stop-color="#d0d0d0"/><stop offset="1" stop-color="#fff"/></linearGradient><linearGradient id="f"><stop offset="0" stop-color="#ffdc68"/><stop offset="1" stop-color="#ce4300"/></linearGradient><linearGradient id="g" x1="34.28%" x2="-40.21%" xlink:href="#f" y1="31.65%" y2="123.4%"/><linearGradient id="h" x1="95.71%" x2="-10.55%" xlink:href="#f" y1="2.34%" y2="34.74%"/><linearGradient id="i" x1="55.22%" x2="-63.57%" xlink:href="#f" y1="39.65%" y2="222.06%"/><g fill="none" fill-rule="evenodd" transform="translate(.15 .35)"><ellipse cx="15.91" cy="15.63" fill="url(#a)" fill-rule="nonzero" rx="15.9" ry="15.61" stroke="#a3a3a3" stroke-width=".5"/><path d="m5.56 30.9s4.97-17.4 24.31-15.18c0 0-12.29-7.3-24.23 2.54-3.52 8.17-.08 12.64-.08 12.64z" fill="url(#c)"/><path d="m7.04 28.7s5.18-12.5 19.03-12.72c-10.53 2.56.01 11.65.01 11.65s-8.32 7.54-19.04 1.07z" fill="url(#d)"/><path d="m4.15 19.11s10.36-11.39 25.83-3.51c-.28-2.14-2.11-4.55-5.39-5.24-.72-.35-6.04-8.57-17.47-3.84 3.52.28 5.03.77 5.11 1.14-6.08-1.04-7.88 7.61-8.08 11.46z" fill="url(#e)"/><path d="m19 9.45s2.66-.95 3 1.87c-2.61.25-3-1.87-3-1.87z" fill="#202020"/><path d="m5.5 30.95s4.52-14.77 19.67-15.34c0 0-12.3-2.25-20.97 11.5-.05 1.95 1.3 3.84 1.3 3.84z" fill="url(#g)"/><path d="m7.13 6.52s3.78.22 5.13 1.14c.56-.11 1.04-.5 1.12-1.02-.48-.2-4.9-.56-6.25-.12z" fill="url(#h)"/><path d="m4.19 19.13s4.73-5.68 14.27-6.35c0 0-13 .58-14.08 4.25-.3.89-.2 2.1-.2 2.1z" fill="url(#i)"/></g></svg>