<svg xmlns="http://www.w3.org/2000/svg" xmlns:xlink="http://www.w3.org/1999/xlink" viewBox="-1.1 -1.2 34.3 34.3"><linearGradient id="c" x1="149%" x2="-21%" y1="-27%" y2="99%"><stop offset="0" stop-color="#d446ff"/><stop offset="1" stop-color="#a0d8ff"/></linearGradient><linearGradient id="a"><stop offset="0" stop-color="#fff"/><stop offset="1" stop-color="#dadada"/></linearGradient><linearGradient id="d" x1="42%" x2="96%" y1="21%" y2="-8%" xlink:href="#a"/><linearGradient id="e" x1="52%" x2="3%" y1="71%" y2="9%" xlink:href="#a"/><linearGradient id="f" x1="99%" x2="35%" y1="13%" y2="41%"><stop offset="0" stop-color="#d0d0d0"/><stop offset="1" stop-color="#fff"/></linearGradient><linearGradient id="b"><stop offset="0" stop-color="#ffdc68"/><stop offset="1" stop-color="#ce4300"/></linearGradient><linearGradient id="g" x1="34%" x2="-40%" y1="32%" y2="123%" xlink:href="#b"/><linearGradient id="h" x1="96%" x2="-11%" y1="2%" y2="35%" xlink:href="#b"/><linearGradient id="i" x1="55%" x2="-64%" y1="40%" y2="222%" xlink:href="#b"/><ellipse cx="16.06" cy="15.98" fill="url(#c)" stroke="#a3a3a3" stroke-width=".5" rx="15.9" ry="15.61"/><path fill="url(#d)" d="M5.7 31.25s4.97-17.4 24.3-15.18c0 0-12.3-7.3-24.23 2.54-3.52 8.17-.08 12.64-.08 12.64z"/><path fill="url(#e)" d="M7.2 29.05s5.18-12.5 19.03-12.72c-10.53 2.56.01 11.65.01 11.65S17.9 35.52 7.2 29.05z"/><path fill="url(#f)" d="M4.3 19.46s10.36-11.4 25.83-3.5c-.28-2.14-2.1-4.55-5.4-5.24-.72-.35-6.04-8.57-17.47-3.84 3.52.28 5.03.77 5.1 1.14C6.3 6.97 4.5 15.62 4.3 19.47z"/><path fill="#202020" d="M19.15 9.8s2.66-.95 3 1.87c-2.6.25-3-1.87-3-1.87z"/><path fill="url(#g)" d="M5.65 31.3s4.52-14.77 19.67-15.34c0 0-12.3-2.25-20.97 11.5-.05 1.95 1.3 3.84 1.3 3.84z"/><path fill="url(#h)" d="M7.28 6.87S11.06 7.1 12.4 8c.56-.1 1.04-.5 1.12-1.02-.48-.2-4.9-.56-6.25-.12z"/><path fill="url(#i)" d="M4.34 19.48s4.73-5.68 14.27-6.35c0 0-13 .58-14.08 4.25-.3.9-.2 2.1-.2 2.1z"/></svg>