<svg xmlns="http://www.w3.org/2000/svg" fill="#b5a5fe" viewBox="0 51 1609 1609"><path fill="#987fff" d="M526.4 60c97-4.6 194.2-9.3 286.8-9.3s180.6 4.7 268.7 9.4c277.3 0 516.5 239.7 516.5 517 4.8 91 9.5 182 9.5 274.5 0 92.6-4.6 187-9.4 281.4 0 277.6-239.2 517-517 517-86.8 4.6-173.6 9.3-266.2 9.3s-191-4.6-289.2-9.3C248.4 1650 9 1410.6 9 1133L0 842c0-92.6 4.6-178.6 9.3-264.7C9.3 299.6 248.7 60 526.3 60z"/><path d="M809 321a534 534 0 0 1 429.7 844 533.4 533.4 0 0 1-663.9 171.8 534 534 0 0 1-304-470.2V855a534.1 534.1 0 0 1 533.7-534h5z"/><path fill="#fff" d="M810 345l-2.5 42.4 28.2 10.5 30.6 15 31.7 3.5 30.6 8.2 15.3 4.6 21 14v17.7l1 22.5 7 20 30.5 17.6 22.4 14h11.7l1 14.4 1.3 22.3L1020 602l-2.2 9.5 13 16.4 16.2 12 11.8 2.4 17.7-10.6 18.8-23.7 17.7-10.4 15.3 3.5 22.3 7 21 15.5 9.6 5.5v13.5l-3 23-10.6.5-14.7-8.8-26.6-2.4-31.2 9-10 6.4-17.6 10-23.6 5.3h-22.2l-27.7 6-24 12.4-11.7 22-24.7 40-.4 31-1.2 24.8 14 19 14.2 15 14 22.5 9.5 8.2 6.2 5.6 6 6 12.3 6 11.2-.3 11-9.5 14-10 6.3-9.2 8.5-7.4h13.4l8 9.4 7.5 9.7 11.4 8 5.2 7.7 6 13.7-.7 15.8v14l1.8 16.6 6 10.7 9.3 15.4 2.5 23.5 4 26.3.3 16 1.7 27.4v19.4l14 16 18.7 11.5 18.5 3.6 16 7 10.4 15s16 10.7 20.6 10.7c1 0 2.4 0 4.4.3a534 534 0 0 0-429.8-844l1 24zM620.6 1346l18.8-20 28.2-27 23.5-13 25-27 28-25.8 18-28.2 16.4-24.7 12-9.4 4.6-20 16.3-46.2 14-20 22.5-14v-44.8l-18.8-14-17.8-3.6L790 998l-20-5.8-42.4-7-21.2-23.6-13-11.7-20-25-22.3-26-19.5-20-26-14-34-2.3L550 877l-15.2 6-24.7-3.6-25-19-28-26.6-12.2-16.7-30.8-7-14-8-6.4-35 8-12.3 22-20.2 14-5.3L458 740l17.5 6 16.7-7 3.7-14 6-21.2 13-29-1.6-25.7-1-12.4 31-29L568 582l13.3-2.7 4.4 10.7h16l16.5-14 9.4-21.3 8.2-20-5-18.8v-78l19-13 21-7 7.2-7 9.4-9.5-1.2-13-22.3-25.8-21.6-16.6a534.9 534.9 0 0 0-371.8 521l4.5-1 44.8-3.5 44.6 2.4 48.2-3.7 14 7.2 33 23.5 27 13 10.6 8 16.6 5.7L515 948l-6 19-10.5 17.8 1.2 30.5 7 29.5 1 26 20 23.4 16.5 16.5 21 16.4 7.2 17.7 13 17.6 1 29.5-2.3 36.4v32l-8 29.3-2.3 17.7.7 30 48.8 20.5-2.6-11z"/><path d="M319.6 862.3l-44.6 3.5-4.5.8a533.7 533.7 0 0 0 304 470.2l-1-30 2.4-17.7 8-29v-32l2.2-36.3-1.2-29.4-13-17.4-7-17.8-21-16.4-16.5-16.5-20-23.5-1.2-26-7-29.3-1.2-30.3 10.8-17.8 5.8-19-1.2-29.3-16.5-6-10.6-8.3-27-13-33-23.4-14-7L364 865l-44.6-2.5zM809 321h-5c-56.3 0-110.7 8.8-161.7 25l21.8 16.7 22.7 25.8 1.2 13-16.5 16.4-21.2 7-18.7 13v77.2l4.7 18.8-8.4 20-9.5 21.3-16.7 14h-16l-4.3-10.5-13.2 2.5-24.7 25.6-31 29 1 12.3 1.8 25.6-13 29-6 21.3-3.8 14-16.6 7-17.7-6-20.3-10.6-14 5.2-22.2 20-8 12.5 6.3 35.3 14 8 31 7 12.5 16.6 28 26.5 25 19 25 3.6 15-6 21.3-14 34 2.2 26 14 20 20 22.3 26 20 24.6 13 11.6 21 23.6 42.5 7 20 6 21 10.4 17.7 3.5 19 14v44.7l-22.5 14-14 20-8 23.6-8.3 22.3-4.7 20-12 9.4-16.3 24.6-17.7 28.2-28.2 26-24.7 27-23.3 12.8-28.2 27-18.7 20 2.6 11.2a533.3 533.3 0 0 0 181 31.4 533 533 0 0 0 434.4-223.7l-4.3-.4c-4.3 0-20.2-10.5-20.2-10.5l-10.4-15-15.8-7-18.6-3.5-18.7-11.5-14-16v-19.2l-1.8-27.3-.3-16.3-4-26.4-2.5-23.5-9.5-15.3-6-10.6-1.6-16.6v-14.2l.5-15.8-6-13.6-5.2-7.6-11.2-8-7.2-9.8-8.2-9.4H1060l-8.6 7.4-6.4 9.4-14 10-11 9.4-11.2.5-12.6-6-6-6-6-5.4-9.5-8-14-22.5-14.2-15-14-19 1-24.5.4-31.3 8.4-14 16-26 11.7-22 24-12.4 28-6h22.3l23.5-5.2 17.4-10 10-6.5 31.2-9 26.4 2.4 14.8 8.8 10.6-.6 3-23V628l-9.5-5.6-21.3-15.3-22.3-7-15-3.4-17.7 10.7-18.8 23.5-17.6 10.5-11.8-2.4-16.3-11.7-13-16.5 2-9.5 10.6-16.5 9.3-14-1-22.4-1-14h-12l-22.4-14.4-30.5-17.6-7-20-1.3-22.4v-17l-21-14-15.5-4.8-30.6-8.2-31.8-3.6-30.6-15.3-28.2-10.3 2.4-42.4-1-24z"/></svg>