<svg width="200" height="200" xmlns="http://www.w3.org/2000/svg"><defs><linearGradient x1="45.327%" y1="23.055%" x2="94.457%" y2="68.238%" id="a"><stop stop-color="#5180D5" offset="0%"/><stop stop-color="#477FDF" offset="100%"/></linearGradient><linearGradient x1="0%" y1="62.128%" x2="28.28%" y2="62.128%" id="b"><stop stop-color="#FFF" offset="0%"/><stop stop-color="#F4F4F4" offset="97.193%"/></linearGradient><linearGradient x1="0%" y1="62.128%" x2="28.28%" y2="62.128%" id="c"><stop stop-color="#F3F3F3" offset="0%"/><stop stop-color="#EDEDED" offset="100%"/></linearGradient></defs><g fill="none" fill-rule="evenodd"><circle fill="#558DEE" cx="100" cy="100" r="67"/><path d="M81.707 164.472a55.33 55.33 0 0 1-.587-3.917l1.996-107.736 35.563-17.18c.722.208 1.438.43 2.15.662l45.696 71.717C162.563 141.241 134.29 167 100 167a67.048 67.048 0 0 1-18.293-2.528z" fill="url(#a)"/><path d="M98 16v156H8l16.941-24H76V31.53L98 16zM102 16v156h90l-16.941-24H124V31.53L102 16z" fill="#434343"/><path d="M32 138h44v10H24.941L32 138zM168 138l7.059 10H124v-10h44z" fill="#B0B0B0"/><path d="M85.432 69.014c-6.669 25.081-11.07 38.404-13.204 39.968-3.2 2.346-30.791 23.522-30.791 23.522L40 145l46 8 6-19h8V69l-14.568.014z" fill="#EFEFEF"/><path d="M88.526 145L86 153l-46-8h48.526z" fill="#E2E2E2"/><path d="M114.568 69.014c6.669 25.081 11.07 38.404 13.204 39.968 3.2 2.346 30.791 23.522 30.791 23.522L160 145l-46 8-6-19h-8V69l14.568.014z" fill="#EFEFEF"/><path d="M111.474 145l2.526 8 46-8h-48.526z" fill="#E2E2E2"/><path d="M82.691 57.59C86.647 30.762 97.051 26 100 26v117H78.345c-1.083-39.461.39-58.584 4.346-85.41z" fill="#FFF"/><path d="M117.309 57.59C113.353 30.762 102.949 26 100 26v117h21.655c1.083-39.461-.39-58.584-4.346-85.41z" fill="#F3F3F3"/><path stroke="#979797" fill="#D8D8D8" d="M98.5 128.5h3v35h-3z"/><path fill="#B0B0B0" d="M80 143h4v14h-4zM104 143h4v14h-4z"/><path fill="#BABABA" d="M84 143h4v14h-4zM108 143h4v14h-4z"/><path fill="#B0B0B0" d="M88 143h4v14h-4zM112 143h4v14h-4z"/><path fill="#9F9F9F" d="M92 143h4v14h-4zM116 143h4v14h-4z"/><path d="M88 55c0-6.627 5.373-12 12-12s12 5.373 12 12c0-4.418-5.373-8-12-8s-12 3.582-12 8z" fill="#000"/><path d="M100 143H88V55c0-4.418 5.373-8 12-8v96z" fill="url(#b)"/><path d="M112 143h-12V55c0-4.418 5.373-8 12-8v96z" fill="url(#c)" transform="matrix(-1 0 0 1 212 0)"/><path d="M100 118c1.333 0 2 7.333 2 22v23h-4v-23c0-14.667.667-22 2-22z" fill="#AAA"/><path d="M0 0h200v200H0z"/></g></svg>