<svg xmlns="http://www.w3.org/2000/svg" viewBox="0 0 214 214"><linearGradient id="a" gradientTransform="matrix(85.4 0 0 131.4002 64265.9 -1180.2)" gradientUnits="userSpaceOnUse" x1="-751.27" x2="-750.78" y1="9.83" y2="10.28"><stop offset="0" stop-color="#5180d5"/><stop offset="1" stop-color="#477fdf"/></linearGradient><linearGradient id="b" gradientTransform="matrix(12 0 0 96 8453.32 -1186.5)" gradientUnits="userSpaceOnUse" x1="-696.52" x2="-696.24" y1="13.48" y2="13.48"><stop offset="0" stop-color="#fff"/><stop offset=".97" stop-color="#f4f4f4"/></linearGradient><linearGradient id="c" gradientTransform="matrix(-12 0 0 96 -9774.28 -1186.5)" gradientUnits="userSpaceOnUse" x1="-824.44" x2="-824.16" y1="13.48" y2="13.48"><stop offset="0" stop-color="#f3f3f3"/><stop offset="1" stop-color="#ededed"/></linearGradient><path d="m199 185.1-17-24-7-10h-8.8l-.6-5.5c5.3-9.6 8.4-20.7 8.4-32.5 0-28.5-17.9-52.9-43-62.6v-5.9l-22-15.5-2-1.4-2 1.4-22 15.5v5.9c-25.1 9.7-43 34-43 62.6 0 11.8 3.1 22.9 8.4 32.5l-.6 5.5h-8.8l-7 10-17 24h90v-5h4v5z" stroke="#fff" stroke-miterlimit="10" stroke-width="15" fill="#fff"/><circle cx="107" cy="113.1" fill="#558dee" r="67"/><path d="m88.8 177.6-.6-4 2-107.7 35.6-17.2 2.1.7 45.7 71.7c-4 33.7-32.6 59-66.5 59-6.3 0-12.4-.8-18.3-2.5z" fill="url(#a)"/><path d="m105 29.1v156h-90l17-24h51v-116.5zm4 0v156h90l-17-24h-51v-116.5z" fill="#434343"/><g fill="#b0b0b0"><path d="m39 151.1h44v10h-51zm136 0 7 10h-51v-10z"/><g fill="#efefef"><path d="m92.4 82.1c-6.6 25-11 38.4-13.2 40-3.2 2.3-30.8 23.5-30.8 23.5l-1.4 12.5 46 8 6-19h8v-65z"/><path d="m121.7 82.1c6.6 25 11 38.4 13.2 40 3.2 2.3 30.8 23.5 30.8 23.5l1.4 12.5-46 8-6-19h-8v-65z"/></g><g fill="#e2e2e2"><path d="m95.5 158.1-2.5 8-46-8z"/><path d="m118.5 158.1 2.5 8 46-8z"/></g><path d="m89.8 70.7c4-26.8 14.3-31.6 17.3-31.6v117h-21.8c-1-39.5.5-58.6 4.5-85.4z" fill="#fff"/><path d="m124.3 70.7c-4-26.8-14.3-31.6-17.3-31.6v117h21.7c1.1-39.5-.3-58.6-4.4-85.4z" fill="#f3f3f3"/><path d="m105.5 141.6h3v35h-3z" fill="#d8d8d8" stroke="#979797"/><path d="m87 156.1h4v14h-4zm24 0h4v14h-4z"/><path d="m95 156.1h4v14h-4zm24 0h4v14h-4z"/></g><path d="m91 156.1h4v14h-4zm24 0h4v14h-4z" fill="#bababa"/><path d="m99 156.1h4v14h-4zm24 0h4v14h-4z" fill="#9f9f9f"/><path d="m95 68.1c0-6.6 5.4-12 12-12s12 5.4 12 12c0-4.4-5.4-8-12-8s-12 3.6-12 8z"/><path d="m107 156.1h-12v-88c0-4.4 5.4-8 12-8z" fill="url(#b)"/><path d="m107 156.1h12v-88c0-4.4-5.4-8-12-8z" fill="url(#c)"/><path d="m107 131.1c1.3 0 2 7.3 2 22v23h-4v-23c0-14.7.8-22 2-22z" fill="#aaa"/><path d="m7 13.1h200v200h-200z" fill="none"/></svg>