<svg xmlns="http://www.w3.org/2000/svg" viewBox="0 0 214 214"><linearGradient id="a" x1="107.442" x2="149.288" y1="128.541" y2="153.517" gradientUnits="userSpaceOnUse"><stop offset="0" stop-color="#5180d5"/><stop offset="1" stop-color="#477fdf"/></linearGradient><linearGradient id="b" x1="95.08" x2="98.44" y1="107.58" y2="107.58" gradientUnits="userSpaceOnUse"><stop offset="0" stop-color="#fff"/><stop offset=".97" stop-color="#f4f4f4"/></linearGradient><linearGradient id="c" x1="119" x2="115.64" y1="107.58" y2="107.58" gradientUnits="userSpaceOnUse"><stop offset="0" stop-color="#f3f3f3"/><stop offset="1" stop-color="#ededed"/></linearGradient><path fill="#fff" stroke="#fff" stroke-miterlimit="10" stroke-width="15" d="M199 185.1l-17-24-7-10h-8.8l-.6-5.5c5.3-9.6 8.4-20.7 8.4-32.5 0-28.5-17.9-52.9-43-62.6v-5.9l-24-16.9-2 1.4-22 15.5v5.9c-25.1 9.7-43 34-43 62.6 0 11.8 3.1 22.9 8.4 32.5l-.6 5.5H39l-7 10-17 24h90v-5h4v5z"/><circle cx="107" cy="113.1" r="67" fill="#558dee"/><path fill="url(#a)" d="M88.8 177.6l-.6-4 2-107.7 35.6-17.2 2.1.7 45.7 71.7c-4 33.7-32.6 59-66.5 59-6.3 0-12.4-.8-18.3-2.5z"/><path fill="#434343" d="M105 29.1v156H15l17-24h51V44.6zm4 0v156h90l-17-24h-51V44.6z"/><g fill="#b0b0b0"><path d="M39 151.1h44v10H32zm136 0l7 10h-51v-10z"/><path fill="#efefef" d="M92.4 82.1c-6.6 25-11 38.4-13.2 40-3.2 2.3-30.8 23.5-30.8 23.5L47 158.1l46 8 6-19h8v-65zm29.3 0c6.6 25 11 38.4 13.2 40 3.2 2.3 30.8 23.5 30.8 23.5l1.4 12.5-46 8-6-19h-8v-65z"/><path fill="#e2e2e2" d="M95.5 158.1l-2.5 8-46-8zm23 0l2.5 8 46-8z"/><path fill="#fff" d="M89.8 70.7c4-26.8 14.3-31.6 17.3-31.6v117H85.3c-1-39.5.5-58.6 4.5-85.4z"/><path fill="#f3f3f3" d="M124.3 70.7c-4-26.8-14.3-31.6-17.3-31.6v117h21.7c1.1-39.5-.3-58.6-4.4-85.4z"/><path fill="#d8d8d8" stroke="#979797" d="M105.5 141.6h3v35h-3z"/><path d="M87 156.1h4v14h-4zm24 0h4v14h-4zm-16 0h4v14h-4zm24 0h4v14h-4z"/></g><path fill="#bababa" d="M91 156.1h4v14h-4zm24 0h4v14h-4z"/><path fill="#9f9f9f" d="M99 156.1h4v14h-4zm24 0h4v14h-4z"/><path d="M95 68.1c0-6.6 5.4-12 12-12s12 5.4 12 12c0-4.4-5.4-8-12-8s-12 3.6-12 8z"/><path fill="url(#b)" d="M107 156.1H95v-88c0-4.4 5.4-8 12-8z"/><path fill="url(#c)" d="M107 156.1h12v-88c0-4.4-5.4-8-12-8z"/><path fill="#aaa" d="M107 131.1c1.3 0 2 7.3 2 22v23h-4v-23c0-14.7.8-22 2-22z"/></svg>