<svg xmlns="http://www.w3.org/2000/svg" viewBox="0 0 214 214"><style>.a{fill:#e2e2e2}.b{fill:#fff}.c{fill:#b0b0b0}.d{fill:#efefef}</style><linearGradient id="a" x1="-751.3" x2="-750.8" y1="9.8" y2="10.3" gradientTransform="matrix(85.4 0 0 131.4002 64265.9 -1180.2)" gradientUnits="userSpaceOnUse"><stop offset="0" stop-color="#5180d5"/><stop offset="1" stop-color="#477fdf"/></linearGradient><linearGradient id="b" x1="-696.5" x2="-696.2" y1="13.5" y2="13.5" gradientTransform="matrix(12 0 0 96 8453.3 -1186.5)" gradientUnits="userSpaceOnUse"><stop offset="0" stop-color="#fff"/><stop offset="1" stop-color="#f4f4f4"/></linearGradient><linearGradient id="c" x1="-824.4" x2="-824.2" y1="13.5" y2="13.5" gradientTransform="matrix(-12 0 0 96 -9774.3 -1186.5)" gradientUnits="userSpaceOnUse"><stop offset="0" stop-color="#f3f3f3"/><stop offset="1" stop-color="#ededed"/></linearGradient><path stroke="#fff" stroke-miterlimit="10" stroke-width="15" d="M199 185.1l-17-24-7-10h-8.8l-.6-5.5A67.1 67.1 0 0 0 131 50.5v-5.9l-22-15.5-2-1.4-2 1.4-22 15.5v5.9a67.1 67.1 0 0 0-34.6 95.1l-.6 5.5H39l-7 10-17 24h90v-5h4v5z" class="b"/><circle cx="107" cy="113.1" r="67" fill="#558dee"/><path fill="url(#a)" d="M88.8 177.6l-.6-4 2-107.7 35.6-17.2 2.1.7 45.7 71.7a67 67 0 0 1-84.8 56.5z"/><path fill="#434343" d="M105 29.1v156H15l17-24h51V44.6zm4 0v156h90l-17-24h-51V44.6z"/><path d="M39 151.1h44v10H32zm136 0l7 10h-51v-10z" class="c"/><path d="M92.4 82.1c-6.6 25-11 38.4-13.2 40-3.2 2.3-30.8 23.5-30.8 23.5L47 158.1l46 8 6-19h8v-65z" class="d"/><path d="M95.5 158.1l-2.5 8-46-8z" class="a"/><path d="M121.7 82.1c6.6 25 11 38.4 13.2 40 3.2 2.3 30.8 23.5 30.8 23.5l1.4 12.5-46 8-6-19h-8v-65z" class="d"/><path d="M118.5 158.1l2.5 8 46-8z" class="a"/><path d="M89.8 70.7c4-26.8 14.3-31.6 17.3-31.6v117H85.3c-1-39.5.5-58.6 4.5-85.4z" class="b"/><path fill="#f3f3f3" d="M124.3 70.7c-4-26.8-14.3-31.6-17.3-31.6v117h21.7a413 413 0 0 0-4.4-85.4z"/><path fill="#d8d8d8" stroke="#979797" d="M105.5 141.6h3v35h-3z"/><path d="M87 156.1h4v14h-4zm24 0h4v14h-4z" class="c"/><path fill="#bababa" d="M91 156.1h4v14h-4zm24 0h4v14h-4z"/><path d="M95 156.1h4v14h-4zm24 0h4v14h-4z" class="c"/><path fill="#9f9f9f" d="M99 156.1h4v14h-4zm24 0h4v14h-4z"/><path d="M95 68.1c0-6.6 5.4-12 12-12s12 5.4 12 12c0-4.4-5.4-8-12-8s-12 3.6-12 8z"/><path fill="url(#b)" d="M107 156.1H95v-88c0-4.4 5.4-8 12-8z"/><path fill="url(#c)" d="M107 156.1h12v-88c0-4.4-5.4-8-12-8z"/><path fill="#aaa" d="M107 131.1c1.3 0 2 7.3 2 22v23h-4v-23c0-14.7.8-22 2-22z"/><path fill="none" d="M7 13.1h200v200H7z"/></svg>