<svg xmlns="http://www.w3.org/2000/svg" viewBox="0 0 2390 2350"><path fill="#0080f5" d="M-6-28h2400v2400H-6V-28z"/><path fill="#fff" d="M1381 1580a720 720 0 0 0-365 15v-360h364v345zm188 70v-603H828l-2 638H462V672h1103s369 2 369 356v656h-308a770 770 0 0 0-58-34"/><path fill="#a6d3fc" d="M88 2266v-334a460 460 0 0 1 144-35l27-2h12a441 441 0 0 1 133 18c-3 12 0 0 0 0v-3a220 220 0 0 0-63-57 390 390 0 0 1 399-109c-20 40-36 88-38 128h1s10 10 0 0a610 610 0 0 1 95-105h1l20-17 33-25a638 638 0 0 1 788 28 307 307 0 0 0-28 80l2 4s7 8 0 0c23-18 49-30 71-41a318 318 0 0 1 410 154l5 11 1 3c10 20 16 45 21 75-12 2 0 1 0 1h3c13-22 25-60 28-94a440 440 0 0 1 148-50v367H88z"/></svg>