<svg xmlns="http://www.w3.org/2000/svg" viewBox="117 265 239 235"><path fill="#0080f5" d="M116.4 262.2h240v240h-240v-240z"/><path fill="#fff" d="M255.1 423a72 72 0 0 0-36.5 1.5v-36H255V423zm18.8 7v-60.3h-74.1v63.6l-.2.2h-36.4V332.2h110.3s36.9.2 36.9 35.6v65.6h-30.8a77 77 0 0 0-5.8-3.4"/><path fill="#a6d3fc" d="M125.8 491.6v-33.4a46 46 0 0 1 14.4-3.5l2.7-.2h1.2a44.1 44.1 0 0 1 13.3 1.8c-.3 1.2 0 0 0 0v-.3a22 22 0 0 0-6.3-5.7 39 39 0 0 1 39.9-10.9c-2 4-3.6 8.8-3.8 12.8h.1s1 1 0 0a61 61 0 0 1 9.5-10.5h.1l2-1.7 3.3-2.5a63.8 63.8 0 0 1 78.8 2.8 30.7 30.7 0 0 0-2.8 8l.2.4s.7.8 0 0c2.3-1.8 4.9-3 7.1-4.1a31.8 31.8 0 0 1 41 15.4l.5 1.1.1.3c1 2 1.6 4.5 2.1 7.5-1.2.2 0 .1 0 .1h.3c1.3-2.2 2.5-6 2.8-9.4a44 44 0 0 1 14.8-5v36.7H125.8z"/></svg>