<svg viewBox="0 0 128 128" xmlns="http://www.w3.org/2000/svg" xmlns:xlink="http://www.w3.org/1999/xlink"><linearGradient id="a" gradientUnits="userSpaceOnUse" x1="63.57" x2="62.66" y1="1004.08" y2="924.79"><stop offset="0" stop-color="#38aab0"/><stop offset="1" stop-color="#0f5f68"/></linearGradient><path d="m0 924.4h128v128h-128z" fill="url(#a)" transform="translate(0 -924.4)"/><g transform="translate(-298.5 -341.6)"><g fill="#fff"><path d="m335.2 371 4.1 4.6v54.4h-4.1z"/><path d="m335.8 371.9 4.1 4.6v53.5h-4.1v-58z"/><path d="m324.1 431.1c7.6.5 10.6-2 12-7.2l4.1.9c1.4 2.8 2.4 5.7 10.3 6.3v2h-26.6l.3-2zm.1-65.7 5.5.7 2 1.1 46.7 52.6 14.4 1.4-6-8.8-43.6-48.3-19-.2z" fill-rule="evenodd"/><path d="m324.2 365.4 5.5.7 2 1.1 46.7 52.6 14.4 1.4-6-8.8-43.6-48.3-19-.2z" fill-rule="evenodd"/><path d="m388.6-423.4h4.15v57.02h-4.15z" transform="scale(1 -1)"/><path d="m377 365.3c7.5-.3 10.3 3 12 7.1l4-.8c1.5-2.8 2.5-5.7 10.3-6.4v-1.9h-26.6z" fill-rule="evenodd"/></g><path d="m362.9 419c-24.4 0-46.8 4.1-64.4 10.8v39.8h128v-40.1a185.5 185.5 0 0 0 -63.6-10.4z"/><g fill="#fff"><path d="m323.6 425.7c7.3.2 10.2-3 11.7-7.2l4.1.8c1.4 2.8 2.4 5.7 10.1 6.4v2h-26.2z" fill-rule="evenodd"/><path d="m362.8 419c-24.4 0-46.7 4-64.3 10.8v.6h.9a184.8 184.8 0 0 1 63.4-10.4c22.2 1.2 45 3.8 63.7 10.5v-1a185.6 185.6 0 0 0 -63.7-10.5z"/></g></g></svg>