<svg xmlns="http://www.w3.org/2000/svg" xmlns:xlink="http://www.w3.org/1999/xlink" viewBox="0 0 128 128"><defs><linearGradient id="a"><stop offset="0" stop-color="#38aab0"/><stop offset="1" stop-color="#0f5f68"/></linearGradient><linearGradient id="b" x1="63.57" x2="62.66" y1="1004.08" y2="924.79" gradientUnits="userSpaceOnUse" xlink:href="#a"/></defs><path fill="url(#b)" d="M0 924.4h128v128H0z" transform="translate(0 -924.4)"/><g transform="translate(-298.5 -341.6)"><path fill="#fff" d="M335.2 371l4.1 4.6V430h-4.1v-59z"/><path fill="#fff" d="M335.8 371.9l4.1 4.6V430h-4.1V372z"/><path fill="#fff" fill-rule="evenodd" d="M324.1 431.1c7.6.5 10.6-2 12-7.2l4.1.9c1.4 2.8 2.4 5.7 10.3 6.3v2h-26.6l.3-2zm.1-65.7l5.5.7 2 1.1 46.7 52.6 14.4 1.4-6-8.8-43.6-48.3-19-.2v1.5z"/><path fill="#fff" fill-rule="evenodd" d="M324.2 365.4l5.5.7 2 1.1 46.7 52.6 14.4 1.4-6-8.8-43.6-48.3-19-.2v1.5z"/><rect width="4.15" height="57.02" x="388.6" y="-423.4" fill="#fff" ry="0" transform="scale(1 -1)"/><path fill="#fff" fill-rule="evenodd" d="M377 365.3c7.5-.3 10.3 3 12 7.1l4-.8c1.5-2.8 2.5-5.7 10.3-6.4v-1.9h-26.6l.3 2z"/><path d="M362.9 419c-24.4 0-46.8 4.1-64.4 10.8v39.8h128v-40.1a185.5 185.5 0 0 0-63.6-10.4z"/><path fill="#fff" fill-rule="evenodd" d="M323.6 425.7c7.3.2 10.2-3 11.7-7.2l4.1.8c1.4 2.8 2.4 5.7 10.1 6.4v2h-26.2l.3-2z"/><path style="text-indent:0;text-align:start;line-height:normal;text-transform:none;block-progression:tb;-inkscape-font-specification:Sans" fill="#fff" d="M362.8 419c-24.4 0-46.7 4-64.3 10.8v.6h.9a184.8 184.8 0 0 1 63.4-10.4c22.2 1.2 45 3.8 63.7 10.5v-1a185.6 185.6 0 0 0-63.7-10.5z" color="#000" font-family="Sans" overflow="visible"/></g></svg>