<svg viewBox="0 0 128 128" xmlns="http://www.w3.org/2000/svg" fill="#fff"><linearGradient id="a" x1="63.6" x2="62.7" y1="1004.1" y2="924.8" gradientUnits="userSpaceOnUse"><stop stop-color="#38aab0" offset="0"/><stop stop-color="#0f5f68" offset="1"/></linearGradient><path transform="translate(0 -924.4)" d="M0 924.4h128v128H0z" fill="url(#a)"/><path d="m36.7 29.4 4.1 4.6v54.4h-4.1z"/><path d="m37.3 30.3 4.1 4.6v53.5h-4.1v-58z"/><path d="M25.6 89.5c7.6.5 10.6-2 12-7.2l4.1.9c1.4 2.8 2.4 5.7 10.3 6.3v2H25.4l.3-2zm.1-65.7l5.5.7 2 1.1 46.7 52.6 14.4 1.4-6-8.8-43.6-48.3-19-.2z"/><path d="M25.7 23.8l5.5.7 2 1.1 46.7 52.6 14.4 1.4-6-8.8-43.6-48.3-19-.2z"/><path d="M90.1 81.8h4.2v-57H90z"/><path d="M78.5 23.7c7.5-.3 10.3 3 12 7.1l4-.8c1.5-2.8 2.5-5.7 10.3-6.4v-1.9H78.2z"/><path d="M64.4 77.4C40 77.4 17.6 81.5 0 88.2V128h128V87.9a185.5 185.5 0 0 0-63.6-10.4z" fill="#000"/><path d="M25.1 84.1c7.3.2 10.2-3 11.7-7.2l4.1.8c1.4 2.8 2.4 5.7 10.1 6.4v2H24.8z"/><path d="M64.3 77.4c-24.4 0-46.7 4-64.3 10.8v.6h.9a184.8 184.8 0 0 1 63.4-10.4c22.2 1.2 45 3.8 63.7 10.5v-1a185.6 185.6 0 0 0-63.7-10.5z"/></svg>