<svg viewBox="-21 -21 724 724" xmlns="http://www.w3.org/2000/svg" fill="#752a9f"><path d="M320 670.7L64 524a42.2 42.2 0 0 1-21.3-37V195A43 43 0 0 1 64 158.2L320 12a42.7 42.7 0 0 1 42.7 0l256 146.7a43 43 0 0 1 21.3 37v291.5c0 15.3-8.3 29.3-21.3 37l-256 146.5a42.7 42.7 0 0 1-42.7 0" fill="#00b6f4"/><path d="M320 670.7L64 524a42.2 42.2 0 0 1-21.3-37V195A43 43 0 0 1 64 158.2L320 12a42.7 42.7 0 0 1 42.7 0l256 146.7a43 43 0 0 1 21.3 37v291.5c0 15.3-8.3 29.3-21.3 37l-256 146.5a42.7 42.7 0 0 1-42.7 0" opacity=".2"/><path d="M341.3 563l-192-111V230.7l192-111.1 192 111V452z" fill="#fff"/><path d="m341.3 538.4-170.6-98.7v-197l170.6-98.3 170.7 98.7v196.6z" fill="#353f69"/><path d="m341.3 538.4-170.6-98.7v-197l170.6-98.3 170.7 98.7v196.6z" opacity=".2"/><path d="M341.3 676V6.7a42.7 42.7 0 0 1 21.4 5.3l256 146.7a42.2 42.2 0 0 1 21.3 36.9v292a43 43 0 0 1-21.3 37l-256.4 146a41.6 41.6 0 0 1-10.2 4c-4 1.4-8 1.7-10.6 1.7" fill="#353f69" opacity=".4"/><path d="m426.7 341.3a85.2 85.2 0 1 1-170.7 0 85.2 85.2 0 1 1 170.7 0" fill="#fff"/></svg>