<svg viewBox="-.1 -.1 184.3 184.9" xmlns="http://www.w3.org/2000/svg" fill="#fff"><path d="M107.3 0H72.8L184 111.5V76.9C184 31.1 153 0 107.2 0z" fill="#8d89f7"/><path d="M76.8 184.8h30.5c44.6 0 75.2-29.6 76.8-73.4L72.8 0C29.3 1.8 0 31.4 0 75.8V109c0 45.8 31 75.9 76.8 75.9z" fill="#706cf5"/><path d="M118.8 133a48.2 48.2 0 0 1-70-18.9c-4-2-7.7-4.3-11-6.5a56.3 56.3 0 0 0 93.8 25c-4 .4-8.3.5-12.8.3zm-74-30.4c-3.3-2-6.3-4-8.9-6.1-9.7-7.7-14.7-15.8-12.8-22.6 1.8-6.9 10.2-11.3 22.4-13a56.3 56.3 0 0 1 102.8 28c9.7 7.7 14.7 15.7 12.8 22.6-1.8 6.8-10.2 11.2-22.5 13-3.3.4-7 .7-10.8.8-12.4.2-27.4-1.8-43-6a159.8 159.8 0 0 1-40-16.7zm89.3 14.1a48 48 0 0 0 6.4-23.9v-.3a48.4 48.4 0 1 0-96.8 0 151.3 151.3 0 0 0 43 18.2c18.1 5 35.1 7 47.4 6zm9.6-1.6c4.9-1.4 8-3.7 8.9-6.7.8-3.1-.8-6.7-4.4-10.5l-.1.7a55.5 55.5 0 0 1-4.4 16.5zM41 69l.4-.9c-5.7 1.4-9.4 3.8-10.3 7.2-.9 3.3 1 7.1 5.1 11.2.7-6.2 2.3-12 4.8-17.5zM154.7 35.4l2.8 2.8-12.4 12.4-2.8-2.8 12.4-12.5z"/><path d="M160.6 41.2l-2.3 2.2-8.8-8.8 2.3-2.2 8.8 8.8zm-17.1-17l2 2 .8.8 4.5 4.4-2.3 2.3-4.4-4.4-3 3L145 36l-2.3 2.2-3.8-3.8-2.7 2.6 4.4 4.5-2.2 2.3-5.3-5.3-2-2 12.4-12.4zm20 20l1 1 2 1.8-8.9 16.1-2.8-2.8L157 57l-3.2-3.2-3.2 2-2.8-2.7 15.9-9zm-.8 3.8l-6.4 4.1 2.3 2.3 4-6.4zm-28.8-33.4l2.9 2.8 1.7 1.8a4.8 4.8 0 0 1 0 6.7 4.8 4.8 0 0 1-4.4 1.3 4.6 4.6 0 0 1-7.6 4.8l-2.2-2.1-2.8-2.8 12.4-12.5zM128 29c.9 1 2.4 1 3.3 0 1-1 1-2.4 0-3.4l-1.3-1.3-3.3 3.4 1.2 1.3zm4.9-5.4c.8.8 2.2.8 3 0 .9-.9.9-2.2 0-3l-1-1.1-3 3 1 1z"/></svg>