<svg xmlns="http://www.w3.org/2000/svg" viewBox="5.5 5.5 109 109"><linearGradient id="a" x2="51.61" gradientUnits="userSpaceOnUse" x1="51.61" y1="11.39" y2="108.79"><stop stop-color="#ff1b2d" offset=".61"/><stop stop-color="#a70014" offset="1"/></linearGradient><linearGradient id="b" x2="76.86" gradientUnits="userSpaceOnUse" x1="76.86" y1="17.14" y2="103.28"><stop stop-color="#9c0000" offset="0"/><stop stop-color="#ff4b4b" offset=".7"/></linearGradient><path d="M60 9.75a50.25 50.25 0 1 0 33.49 87.71 36.24 36.24 0 0 1-20.14 6.15c-11.97 0-22.68-5.94-29.9-15.3-5.56-6.56-9.15-16.25-9.4-27.13V58.8c.25-10.88 3.84-20.58 9.4-27.13 7.2-9.36 17.93-15.3 29.9-15.3 7.36 0 14.25 2.25 20.14 6.16a50.08 50.08 0 0 0-33.3-12.79H60z" fill="url(#a)"/><path d="M43.46 31.68c4.6-5.44 10.57-8.73 17.07-8.73 14.63 0 26.5 16.6 26.5 37.04 0 20.46-11.86 37.04-26.5 37.04-6.5 0-12.46-3.28-17.07-8.72 7.2 9.36 17.92 15.3 29.9 15.3a36.3 36.3 0 0 0 20.14-6.15A50.1 50.1 0 0 0 110.25 60a50.11 50.11 0 0 0-16.76-37.46 36.24 36.24 0 0 0-20.14-6.15c-11.97 0-22.68 5.94-29.9 15.3" fill="url(#b)"/></svg>