<svg viewBox="0 0 120 120" xmlns="http://www.w3.org/2000/svg"><linearGradient id="a" gradientTransform="matrix(0 97.39658 -97.39658 0 51.62 11.39)" gradientUnits="userSpaceOnUse" x2="1"><stop offset="0" stop-color="#ff1b2d"/><stop offset=".3" stop-color="#ff1b2d"/><stop offset=".61" stop-color="#ff1b2d"/><stop offset="1" stop-color="#a70014"/></linearGradient><linearGradient id="b" gradientTransform="rotate(90 29.862 46.992) scale(86.1425)" gradientUnits="userSpaceOnUse" x2="1"><stop offset="0" stop-color="#9c0000"/><stop offset=".7" stop-color="#ff4b4b"/><stop offset="1" stop-color="#ff4b4b"/></linearGradient><path d="M60 9.75C32.25 9.75 9.75 32.25 9.75 60c0 26.95 21.22 48.94 47.86 50.19.8.04 1.59.06 2.39.06 12.87 0 24.6-4.84 33.49-12.79-5.89 3.91-12.78 6.15-20.14 6.15-11.97 0-22.68-5.94-29.89-15.3-5.56-6.56-9.15-16.25-9.4-27.13v-2.37c.25-10.88 3.84-20.58 9.4-27.13 7.21-9.36 17.93-15.3 29.89-15.3 7.36 0 14.25 2.25 20.14 6.16-8.84-7.91-20.51-12.74-33.3-12.79H60z" fill="url(#a)"/><path d="M43.46 31.68c4.61-5.44 10.57-8.73 17.07-8.73 14.63 0 26.49 16.59 26.49 37.04 0 20.46-11.86 37.04-26.49 37.04-6.51 0-12.46-3.28-17.07-8.72 7.21 9.36 17.92 15.3 29.89 15.3 7.36 0 14.25-2.25 20.14-6.15 10.29-9.2 16.76-22.57 16.76-37.46 0-14.88-6.47-28.26-16.76-37.46-5.89-3.91-12.78-6.15-20.14-6.15-11.97 0-22.68 5.94-29.89 15.3" fill="url(#b)"/></svg>