<svg xmlns="http://www.w3.org/2000/svg" viewBox="5.5 5.5 109 109"><style>.a{stop-color:#ff1b2d}.b{stop-color:#ff4b4b}</style><linearGradient id="a" x2="1" gradientTransform="rotate(90 20.11 31.5) scale(97.39658)" gradientUnits="userSpaceOnUse"><stop class="a" offset="0"/><stop class="a" offset=".3"/><stop class="a" offset=".61"/><stop offset="1" stop-color="#a70014"/></linearGradient><linearGradient id="b" x2="1" gradientTransform="rotate(90 29.86 47) scale(86.1425)" gradientUnits="userSpaceOnUse"><stop offset="0" stop-color="#9c0000"/><stop class="b" offset=".7"/><stop class="b" offset="1"/></linearGradient><path fill="url(#a)" d="M60 9.75a50.25 50.25 0 1 0 33.49 87.71 36.24 36.24 0 0 1-20.14 6.15c-11.97 0-22.68-5.94-29.89-15.3-5.56-6.56-9.15-16.25-9.4-27.13v-2.37c.25-10.88 3.84-20.58 9.4-27.13 7.21-9.36 17.93-15.3 29.89-15.3 7.36 0 14.25 2.25 20.14 6.16a50.08 50.08 0 0 0-33.3-12.79H60z"/><path fill="url(#b)" d="M43.46 31.68c4.61-5.44 10.57-8.73 17.07-8.73 14.63 0 26.49 16.59 26.49 37.04 0 20.46-11.86 37.04-26.49 37.04-6.51 0-12.46-3.28-17.07-8.72 7.21 9.36 17.92 15.3 29.89 15.3 7.36 0 14.25-2.25 20.14-6.15A50.1 50.1 0 0 0 110.25 60a50.11 50.11 0 0 0-16.76-37.46 36.24 36.24 0 0 0-20.14-6.15c-11.97 0-22.68 5.94-29.89 15.3"/></svg>